<?xml version="1.0" standalone="no"?>
<!DOCTYPE svg PUBLIC "-//W3C//DTD SVG 1.1//EN" "http://www.w3.org/Graphics/SVG/1.1/DTD/svg11.dtd" >
<svg xmlns="http://www.w3.org/2000/svg">
<metadata></metadata>
<defs>
<font id="mrs_lollipopdots" horiz-adv-x="716" >
<font-face units-per-em="2048" ascent="1536" descent="-512" />
<missing-glyph horiz-adv-x="500" />
<glyph horiz-adv-x="0" />
<glyph unicode="&#xd;" horiz-adv-x="2048" />
<glyph unicode=" " />
<glyph unicode="!" horiz-adv-x="681" d="M236 272q1 2 4 11t6 12q1 0 5.5 3t7.5 4l7.5 2.5t9 1t7.5 -2.5h6q1 -1 7 -5.5t7.5 -8.5t1.5 -10l-10 -21l-8 -10q-11 -6 -41 -6l-5 11q-5 11 -5 19zM266 899q8 28 21 39q2 -1 6 0t7.5 2t6.5 0q25 -17 25 -31v-10q-2 -8 -7 -14t-8.5 -9t-11.5 -8q-2 0 -4.5 1t-3.5 1t-2 -1 t-2 -1l-21 17zM266 1231q8 17 19 20q4 0 12 1t12 1l8 -6q0 -1 5.5 -1t7.5 -3l8 -18l-4 -6q-2 -21 -31 -29h-8q-2 0 -5 1t-5 1q-14 14 -17 20q0 3 -1 9t-1 10zM268 1057l6 16q3 5 10 10t9 7q8 0 12 2q18 -6 23 -11q2 -4 6 -8v-10q-1 -3 -5.5 -14t-9 -17t-12.5 -10h-12 q-5 5 -14 8q-8 13 -13 27zM270 750v22q3 3 6 11.5t7 11.5q6 -2 16 -2q1 -1 5 -4.5t6 -5t5.5 -5t5.5 -6t4.5 -6t4 -7t2.5 -7.5q-3 -9 -4.5 -12t-5.5 -7t-11 -6q-12 0 -18 -2l-8 10h-6q-6 12 -9 15zM270 1366q-3 27 11 47q4 4 16 8q8 0 12 -2q5 0 10 -3t8 -6.5t7 -9t6 -7.5 v-17q-4 -19 -31 -28q-7 -3 -10 0q-3 0 -7.5 1t-6.5 1q-4 2 -8 8t-7 8z" />
<glyph unicode="&#x22;" horiz-adv-x="909" d="M145 1446q-1 6 2 13.5t3 10.5l12 15q2 0 5.5 1t6.5 1l16 -8q1 -3 4.5 -8.5t4.5 -6.5v-14q-1 -4 -13 -16q-13 -5 -30 -2zM156 1348q12 12 22 12q22 -9 27 -17v-20q-11 -18 -37 -18l-8 6q-4 6 -4 37zM158 1223l12 18q13 9 24 -1t11 -26q-12 -24 -39 -24q-13 13 -8 33z M578 1200q9 18 20 29h10q7 -7 13 -10q18 -36 -9 -52h-20q-2 3 -6.5 9t-6.5 11.5t-1 12.5zM578 1339q1 3 6 10t6 11q14 4 20 2q14 -10 19 -21q0 -2 1 -4t1 -4q-3 -8 -13 -22q-2 -1 -6 -3.5t-6.5 -3.5t-6 -2t-7.5 0t-8 3q-1 3 -3 9.5t-3 12.5t0 12zM588 1438v24l4 8l8 21 q9 9 14 10h17q7 -4 16 -22v-13q-3 -15 -12 -30l-12 -6q-13 -3 -25 0z" />
<glyph unicode="#" horiz-adv-x="2287" d="M227 494l9 20l14 12h33q17 -11 10 -32q-12 -16 -33 -23l-2 1l-6 -1q-2 0 -5 -1t-5 -1q-15 14 -15 25zM360 487v21q2 2 2 4l31 31q11 3 23 0q3 -2 8.5 -8.5t7.5 -8.5v-12q0 -1 -3 -7.5t-5 -10.5l-31 -19h-24zM379 205v12q1 4 4.5 7.5t6 5.5t8.5 4.5t8 3.5q3 0 8.5 -1 t7.5 -1q7 -4 16 -23l-6 -16q-5 -6 -22 -15h-15q-3 1 -5.5 4t-4 5.5t-3.5 7.5t-3 6zM440 336q10 15 35 26q12 3 19 -10v-26q-3 -8 -25 -17q-1 0 -4.5 -1t-5.5 -1q-3 0 -8 1t-7 1q-13 9 -4 27zM446 1067q5 9 19 20q15 5 18 5q6 0 27 -7q2 -4 2 -20q0 -1 -1 -3t-1 -3l-14 -12 l-23 -11l-20 6q-1 3 -3 7.5t-3.5 9t-0.5 8.5zM494 434q12 42 34 49h15q3 -1 5.5 -2.5l5 -3t3.5 -2.5q3 -3 3 -6.5t-1 -22.5q-12 -18 -14 -20q-1 0 -6 -3.5t-9 -4.5h-26q-2 2 -5.5 8t-4.5 8zM557 563v4q0 7 6 19l17 22q2 2 4 2h20l8 -6l6 -22v-4v-5q-7 -14 -20 -22h-25 q-10 2 -16 12zM614 1065q14 32 41 41h13q9 -4 18 -21v-16l-14 -20q-2 -2 -12 -7t-13 -8q-4 0 -9.5 3t-8.5 3q-15 0 -15 25zM621 717l12 12l10 14h29q2 -6 10 -18q0 -3 -1 -8t-1 -8q-2 -7 -7 -12t-9 -7t-13 -6q-3 0 -8.5 -0.5t-10.5 -0.5t-9 1q-6 10 -2 33zM692 854 q11 19 37 29h14q11 -16 11 -17v-18q-1 -3 -2.5 -5l-3 -4t-4 -3.5t-4 -3t-4 -3t-4 -2t-5 -2t-4.5 -2.5h-16q-9 3 -12 10t-3 21zM698 475v29q2 5 8.5 9.5l6.5 4.5l24 8q11 -6 14 -14.5t3 -28.5q-6 -8 -17 -16l-24 -4q-1 1 -8 4t-7 8zM754 981q0 1 1 4l4.5 12t5.5 9t11 10 q5 0 17 4q5 -3 7.5 -6.5t7.5 -12l5 -8.5v-14l-10 -14l-19 -9h-14q-23 11 -16 25zM815 1106q0 26 29 43h6q26 -10 31 -31q0 -16 -31 -28q-12 -3 -25 0q-6 4 -10 16zM827 465v14q2 8 19 21q16 8 28 8q16 -6 19 -21q3 -3 4.5 -6t1 -5.5t-1.5 -5t-3.5 -5t-4.5 -4t-5 -4t-5 -3.5 t-5 -3t-4 -2q-14 -3 -28 0q-13 9 -15 16zM899 1235q-3 16 2 27l23 24q1 0 4 2t5.5 2.5t5 1.5t5 0.5t4.5 -2.5l15 -16l-13 -31q-4 -4 -8 -6t-10 -4.5t-8 -3.5h-17zM954 1356q-3 9 0 18q1 1 4 5.5l4 6t3.5 5t5 5.5t5.5 4t7 3h12q9 -4 17 -17v-10q-9 -16 -39 -33q-6 0 -19 13z M971 1057v20q4 9 18 19h27q6 -5 20 -23q8 -20 -14 -31q-10 -2 -33 -2q-1 0 -3 1t-3 1zM977 489q13 33 51 43q2 -2 8 -2q16 -8 19 -14q3 -14 0 -29l-15 -14q-2 0 -6 -1t-6 -1q-7 0 -10 -10l-17 -6h-8q-16 11 -16 34zM1118 1055q4 16 4 24q4 8 13 8q3 3 8 3q3 0 9.5 1t10.5 1 q19 -13 19 -31q-3 -5 -7 -8t-12.5 -8t-9.5 -5h-18q-14 7 -17 15zM1147 485v7q10 18 37 28h18q17 -9 27 -33l-6 -14l-15 -16q-2 -1 -8.5 -4t-11.5 -4h-19q-3 1 -14 12zM1196 152q5 11 19 21q3 2 4 3h10q24 -8 31 -22q1 -4 -3 -10t-4 -7q-8 -8 -25.5 -10.5t-25.5 8.5z M1237 252q10 34 41 45h4q2 -2 14 -8q3 -2 5 -5t3 -5.5t2.5 -5.5l2.5 -5q3 -2 1 -8.5t-2 -7.5t-3.5 -7.5t-4.5 -8.5l-14 -11q-16 -3 -33 0l-12 6q-4 8 -4 21zM1255 1073q11 17 50 17q7 -6 14 -9q0 -1 1 -3.5t1 -4.5q8 -23 -14 -37q-8 -2 -21 -2l-20 8q-13 17 -11 31z M1327 371q-10 4 -13.5 12.5t-1.5 17.5t6.5 18t10.5 15l14 6q1 0 19 -6q1 -3 4.5 -8t3.5 -6q3 -21 -2 -37l-12 -12q-14 -3 -29 0zM1382 541l9 16l8 8l16 8l12 -6q5 -3 15 -22v-8q-8 -15 -10.5 -17.5t-20.5 -11.5q-2 2 -10 2q-8 5 -11.5 7.5t-6 8.5t-1.5 15zM1403 1073 q16 16 35 21h16q25 -6 31 -29v-8q-4 -8 -6 -10.5t-6 -6.5t-11 -6q-2 0 -15 -4t-17 0q-4 2 -6.5 3t-7 3.5t-7 4.5t-5.5 5.5t-4 7t-0.5 8.5t3.5 11zM1444 688v8q5 11 20 23h17q2 -2 4 -2l16 -17q2 -4 2 -22q-2 -4 -10 -12q-3 0 -10 -0.5t-13 -0.5t-10 1q-7 4 -16 22zM1509 842 q6 21 15 39l12 14q10 3 18 0q9 -8 12 -12t9 -19q-6 -18 -8 -22q0 -2 -4 -6q-3 -10 -13 -13q-12 -8 -20 -6q-16 12 -21 25zM1528 471q0 4 3 9.5t3 6.5l18 19q2 2 7 2q12 3 24 0q6 -4 10 -19q0 -10 -4.5 -21t-11.5 -13q-37 -7 -49 16zM1571 1001q3 4 7.5 7.5t8.5 5t10 4t9 4.5 q19 -8 24 -16q3 -13 0 -27q-5 -8 -24 -16h-19l-10 6q-9 23 -6 32zM1630 1104q-1 3 -1 6.5t0.5 8t0.5 7.5q14 18 17 25q1 0 2 1t2 1q0 2 2 2h20q13 -9 21 -33q-4 -12 -4 -18l-21 -14h-14q-17 3 -25 14zM1667 471v8q2 2 4.5 6t4.5 7.5t4.5 7t5.5 6.5q10 5 26 2l19 -21 q5 -13 2 -28q-3 -3 -6 -4.5t-6 -2.5t-5 -3q-16 -4 -41 6zM1692 1249v11l6 12q0 4 10.5 8.5t17.5 5.5q20 -5 25 -14q1 -3 1 -6t-0.5 -7.5t-0.5 -7.5q-15 -22 -45 -16q-12 8 -14 14zM1757 1386q5 8 23 17h6q20 -7 31 -21q0 -8 -4 -14t-8 -9.5t-12 -8.5t-11 -7h-15q-4 2 -6 5.5 t-3 9t-1 9v10.5v9zM1794 1016v8q1 2 3.5 8t4.5 10.5t6 8.5q21 10 37 6l8 -15v-10q-8 -10 -24 -20l-8 -13h-6q-18 9 -21 17zM1903 1028l6 16l22 21h19l18 -8q12 -20 12 -29q-11 -22 -34 -29h-21q-17 13 -22 29z" />
<glyph unicode="$" horiz-adv-x="1116" d="M195 342l10 25q3 1 9 5t9 5h6q17 -17 19 -21q-5 -32 -39 -32q-14 5 -14 18zM250 258q-2 0 -1 8.5t1 9.5q7 14 8 15q0 2 2 4.5t5 3.5t6.5 3t4.5 3q15 -3 21 -9.5t6 -21.5q-4 -4 -4 -10q-4 -7 -13.5 -13.5t-20.5 -6t-15 13.5zM303 1184q9 14 10 16h21l16 -8q4 -8 0 -25 q-6 -6 -26 -14q-1 1 -3 2t-3.5 2t-3.5 2t-3.5 2.5t-3 3.5t-2.5 4q0 1 -1 6.5t-1 8.5zM328 1030v21q4 8 20 20h12q27 -15 21 -33l-8 -12q0 -4 -4 -4l-17 -8q-16 5 -21 13zM346 1327q1 3 3 6t4 4.5l6 4.5t5.5 3.5t6.5 3.5t6 3l16 -9q13 -18 15 -28q-5 -5 -9 -17q-12 -4 -16 -8 h-14l-5.5 3.5t-9.5 4.5q-8 11 -8 29zM352 203q10 24 23 30h14q20 -15 23 -24l-6 -23q-13 -17 -31 -14q-2 1 -5 3t-5 3t-4.5 2.5t-3.5 3.5t-2.5 4.5t-2 6t-0.5 8.5zM389 918v22q0 1 3 8.5t6.5 11t9.5 5.5q24 0 34 -19v-18q-5 -11 -20 -23h-16q-1 0 -5 1.5t-6 2.5t-4 3.5 t-2 5.5zM449 1395q8 16 16 22h20q10 -3 17 -16q0 -9 -11 -22.5t-26 -14.5q-10 7 -13 12.5t-3 18.5zM463 150l6 20q2 4 10 12q4 2 13 2q7 -3 14.5 -10t7.5 -12q0 -2 1 -7t1 -8q-11 -15 -28 -16t-25 19zM479 844q0 1 2.5 7.5t3.5 9.5t4 6.5t7 4.5q14 3 26 0q9 -3 17 -20 q1 -5 -3 -11t-4 -7q-8 -7 -30 -15q-12 0 -15 8l-2 2zM522 -41q3 2 15 14h16q10 -6 22 -22v-21q-8 -14 -22 -22h-21q-17 0 -10 51zM522 1606q4 8 4 12q3 12 23 22h14l15 -6l16 -20v-17q-1 -4 -4.5 -7.5t-5.5 -5t-7 -5t-6 -4.5h-26q-1 1 -15 8q-2 0 -2 2zM565 1411v14 q4 18 19 21h2q3 -1 10 -3t11.5 -4.5t8.5 -6.5l7 -17l-5 -8l-4 -8q-13 -10 -28 -10q-7 3 -10 5.5t-6 6t-5 10.5zM569 760v18l17 23h2q14 -5 30 -21v-10l-6 -8l-6 -6l-22 -6q-15 8 -15 10zM606 166q0 5 3 10.5t8 10t11 7.5t11 3q11 -8 20 -23v-20q-2 -5 -6.5 -10t-11.5 -8 t-14 -3q-21 0 -21 33zM655 678v20q2 7 6.5 11t11.5 7t11 7q2 -1 5 -1t5 -1q7 -2 15 -14q1 -2 2 -6t2 -5q-4 -13 -8 -16.5t-21 -11.5h-18q-7 2 -11 10zM678 1364v18q8 11 16 17h21q9 -2 16 -17q2 -6 -2 -15t-4 -13l-4 -6q-9 -4 -15.5 -4t-12 3.5t-8 6.5t-7.5 10zM711 229 q0 1 3 12.5t6 17.5t9 7q27 0 33 -26v-17q-1 -1 -3.5 -4t-4.5 -5t-4 -3q-5 -2 -25 -2q-8 3 -14 20zM739 614q2 4 5.5 8.5t8.5 9t7 7.5h18q4 0 6 -2q9 0 15 -25q4 -6 1.5 -11t-6.5 -7l-10 -5t-8 -5h-26l-9 8q-5 10 -2 22zM758 348v14q0 13 20 33h17l14 -12q2 -4 2 -25 q-11 -22 -43 -22q-7 4 -10 12zM764 492v8l5 9q4 9 9 13l19 4q8 -4 18 -4l8 -10v-20q-5 -11 -18 -17h-25q-4 1 -6.5 3.5t-3.5 4t-3 5t-3 4.5zM786 1280v18q12 17 23 23h25q1 -2 3.5 -4.5t2.5 -3.5q2 -6 2 -35q-3 -7 -17 -16q-8 4 -14 4q-1 1 -3 1h-4t-4.5 1t-4.5 2q-1 0 -7 6 q0 1 -1 2t-1 2z" />
<glyph unicode="%" horiz-adv-x="2127" d="M154 1067q3 21 20 29q13 -3 27 -21v-8q-6 -11 -19 -18q-12 0 -20 2l-6 4q-4 8 -2 12zM160 1208q3 6 20 23h10l15 -14q5 -11 2 -25q-2 -2 -8.5 -5t-8.5 -5h-18q-19 6 -12 26zM197 944q0 4 2 10t2 9q0 4 1.5 6t4.5 4.5t4 3.5h20q14 -7 17 -16v-17l-12 -12l-21 -8 q-13 4 -18 20zM213 1331v15q2 3 3.5 5t2.5 3.5t3 3t2.5 2.5t3 3t3.5 2.5t5 4t6 4.5q2 -4 6 -7.5t7 -6.5t5 -8l2 -4l-8 -21l-8 -4l-19 -6q-8 6 -14 14zM293 895l6 18q11 11 29 2h4l14 -14q-3 -22 -22 -33h-11q-6 3 -12 9q-2 0 -2 2zM336 1399l6 22q1 2 4 6l4.5 6t4.5 5t7 4h9 q11 -4 22 -23q4 -10 0 -35q-4 -1 -8.5 -4.5t-5.5 -3.5q-15 -3 -27 0q-5 2 -7.5 5t-5.5 10.5zM430 887q4 8 8 8q20 10 33 10l12 -14q10 -20 -12 -35q-23 -6 -37 8q-2 0 -2 2q-2 6 -2 21zM479 1411v21l13 14q16 6 28 0l6 -14v-23l-12 -12q-11 -5 -25 -2q-2 2 -5.5 8t-4.5 8z M563 946v15q12 15 23 20l18 -6l12 -12q4 -9 0 -27l-8 -6q-2 0 -5.5 -1t-4.5 -1l-18 6q-11 0 -17 12zM575 1350v32q6 11 14 12.5t15 -3.5t12 -13q4 -13 0 -24l-14 -15h-12q-8 0 -15 11zM618 1030v21q7 11 15 16q3 2 7 1t6 -2t5.5 -2.5t5.5 -2.5q13 -9 14 -18.5t-7 -22.5 q-6 -8 -23 -12q-15 3 -23 22zM637 1245v2q-1 5 -1 10.5v9.5t0.5 9.5t0.5 9.5q9 14 14 17q5 1 14.5 -3t10.5 -4l8 -14q3 -15 0 -31l-12 -12l-15 -6q-17 6 -20 12zM649 1130q0 7 4 19q0 3 1 9t1 9l15 15h6q20 6 31 -17q0 -1 1 -3t1 -3q1 -4 -0.5 -7t-4.5 -8t-4 -7 q-9 -15 -28 -21l-6 3t-6.5 3t-5.5 3t-5 5zM733 180v13q1 2 7 8.5t8 11.5l18 12q1 0 11.5 -3t15.5 -9q0 -5 6 -14q0 -3 -1 -5.5t-2.5 -6t-2.5 -5.5q-17 -22 -39 -22q-15 7 -19 14q0 1 -1 3t-1 3zM788 305v8q17 21 27 27q7 2 10.5 1t12.5 -7l10 -15q3 -13 0 -22q-1 -1 -5 -2.5 t-5.5 -2.5t-5 -2t-6 -1t-5.5 0.5t-6 1.5q-8 -2 -18 -2q-5 5 -9 16zM854 444q0 2 3 6t3 5q6 10 9 13t16 13h8l14 -12v-4l6 -12v-15q-6 -16 -22 -22h-21q-4 0 -8 4q-4 16 -8 24zM922 557q-1 7 2.5 17t3.5 14l14 14h21q11 -5 18 -16q1 -4 0 -8.5t-3.5 -9t-2.5 -5.5 q-11 -16 -33 -20q-8 2 -10.5 3.5t-4.5 3t-5 7.5zM971 717q1 4 12 26l14 11q8 -3 31 -17l6 -12q0 -10 2 -14l-8 -17q-9 -3 -14 -8h-21q-21 7 -22 31zM1020 838q-2 4 -2 8t0.5 6t3 7.5t2.5 6.5l14 13l19 6l20 -19q3 -12 0 -24l-6 -8l-8 -7q-14 -6 -29 -2zM1067 985 q13 47 31 53q17 -4 28 -24q0 -2 0.5 -8.5t0.5 -12.5t-1 -10q-4 -10 -24 -18q-15 0 -21 2q-8 12 -14 18zM1133 1112q-5 11 -0.5 21.5t9 14.5t13.5 11q4 0 11 -1t10 -1l8 -6q7 -17 -2 -31q-3 -2 -11.5 -7.5t-11.5 -8.5q-5 2 -13.5 4t-12.5 4zM1169 1257q-2 6 2.5 14.5 t4.5 12.5l20 12q4 0 6.5 0.5t6.5 -2t5.5 -4l4.5 -4.5l4 -4l4 -12q-14 -35 -39 -27q-12 3 -19 14zM1229 1374v19q6 20 22 30h15q4 -2 7 -5t5.5 -8.5t3.5 -6.5q3 -11 -6 -43l-14 -8h-15q-10 8 -18 22zM1309 430v10q4 4 10 14.5t10 14.5h23l10 -14q0 -15 -6 -31q-5 -2 -23 -16 l-16 8q-2 2 -8 14zM1315 305v8l6 15l20 12h5q17 -9 20 -25q-1 -6 -3 -9.5t-7 -7t-7 -4.5l-10 -5h-14q-6 4 -10 16zM1350 563q11 32 32 39l9 -2l12 -6l6 -23q-4 -17 -20 -28q-2 0 -6.5 -1t-6.5 -1h-8q-15 9 -18 22zM1374 213l6 23q7 7 11 8.5t16 -0.5q3 -1 6 -3.5t5 -5 t4.5 -5.5t4.5 -5q0 -4 3 -10q-6 -5 -9 -16q-11 -3 -16 -9h-14q-4 2 -7 5.5t-5.5 9t-4.5 8.5zM1452 684v14q8 16 29 23q1 2 5.5 1.5t7 -1.5t7 -3.5l4.5 -2.5q1 -1 2.5 -4.5t2.5 -5t2 -4.5t0.5 -6.5t-1.5 -6.5q-5 -11 -20 -18h-21q-10 3 -18 14zM1454 193q4 9 21 22h16 q8 -6 14 -14q2 -8 2 -21q-2 -2 -2 -4q-1 -1 -4 -3.5t-5.5 -5t-4.5 -5.5q-6 -1 -9 -0.5t-8 3t-8 3.5q-14 11 -12 25zM1548 143q0 7 2 12t6.5 10t6.5 6.5t8 6.5h14q12 -6 19 -16v-15q-9 -18 -14.5 -21t-24.5 -1h-4q-9 5 -11 10q0 1 -1 3.5t-1 4.5zM1567 721v18q8 12 10 13 q2 2 6.5 4.5t5.5 3.5h23q10 -10 10 -31q-2 -8 -14 -16q-24 -9 -41 8zM1647 164q0 4 3 9.5t3 8.5q6 10 20 13q4 -1 7 -3.5t5 -4.5t5 -6.5t4 -6.5v-20q-9 -18 -27 -11q-10 7 -20 21zM1665 713q5 10 18 20q2 1 5.5 2.5t6 2.5t6.5 2t7 -1q14 -5 21 -24q-4 -14 -13 -25t-22 -8 q-7 0 -15 5t-8 11q-1 2 -3 5t-3 5t0 5zM1739 223q6 13 20 23h15q7 -4 16 -17v-16l-10 -14q-11 -4 -19 -9l-16 9q-1 1 -3.5 5.5t-2.5 5.5t-1 6t1 7zM1774 625v8q5 11 9.5 15t18.5 7q5 0 11.5 -3t11 -8t4.5 -11q-2 -4 -2 -10q-2 -4 -5 -6t-10.5 -5.5l-7.5 -3.5q-21 3 -30 17z M1804 532q4 20 15 27q8 0 10 2q8 0 14 2l17 -4q7 -3 10 -10q1 -5 -3.5 -14t-2.5 -13q-2 -1 -7 -5t-6.5 -5.5t-7 -4.5t-8 -2t-8.5 1q-10 8 -23 26zM1810 326q11 7 19 10q2 -2 14 -8l8 -15q0 -2 -0.5 -4.5t-1.5 -4t-2.5 -3.5t-2.5 -3.5t-3.5 -3t-4 -2.5t-4 -2.5t-3.5 -2.5h-14 q-21 7 -5 39zM1829 397q12 25 31 25q8 -2 20 -10v-15q0 -4 -1.5 -6.5t-3.5 -5.5t-3 -4q-2 0 -13 -5t-18 -3q-1 1 -4 3.5t-4 4l-3 4.5t-1.5 5t0.5 7z" />
<glyph unicode="&#x26;" horiz-adv-x="1415" d="M164 483q3 24 20 35q22 -7 27 -20q0 -3 -2.5 -9.5t-3.5 -9.5l-15 -12q-15 -2 -26 16zM182 616q8 19 17 25h20l4 -4l6 -12v-15q-2 -8 -6.5 -11t-14 -4.5t-13.5 -2.5q-16 11 -13 24zM188 381q8 25 25 25q19 -11 23 -17v-8q0 -1 -1 -4q-2 -5 -3 -8t-3.5 -8.5t-5 -7.5 t-6.5 -5.5t-8.5 -2.5t-11.5 1q-9 10 -9 35zM231 700l7 23l14 14q2 0 4.5 1t3.5 1q2 0 4.5 -1t3.5 -1q12 -6 17 -16v-12q-7 -14 -17 -19q-12 -3 -28 0zM279 266q-32 19 0 43h14l16 -16v-14q-2 -6 -12 -13h-18zM303 805q-3 16 0 31q2 3 6.5 6t5.5 4q14 3 21 -4q11 -7 14 -19 q-3 -18 -22 -24h-19zM334 1262q-7 34 16 45h15q11 -4 16 -23v-20q-6 -12 -16 -17q-2 0 -6.5 -1t-6.5 -1q-9 4 -18 17zM346 205v18q4 8 4 13q8 12 15 14q4 0 8 4q10 -5 20 -21q0 -8 2 -14q-2 -3 -5 -11t-5 -11q-5 -2 -31 -2l-1 1.5t-2.5 3l-3 3t-1.5 2.5zM352 1174 q3 10 21 16q1 0 6.5 -2t7.5 -3t5.5 -3t5.5 -4.5t3 -6.5q0 -1 2.5 -6t2.5 -10q-4 -15 -19 -25h-18q-17 17 -17 44zM371 1386v23l6 16l2 2q12 3 24 0q9 -7 9 -26l-19 -21q-9 -3 -20 0q0 1 -1 3t-1 3zM391 1024q0 2 1 5t1 5t1 4.5t1 3.5q7 9 23 17l16 -8l3 -4t5 -5v-22l-5 -5 t-5.5 -6t-6.5 -5.5t-7 -4t-7 -2t-8 1.5q-3 4 -6 13t-6 12zM436 920q0 2 1 5.5t1 4.5q11 8 35 8q18 -14 23 -20q5 -25 -2.5 -34.5t-30.5 -15.5q-3 0 -19 4q-2 4 -5.5 10.5t-4.5 9t-2 7.5t0 9.5t4 11.5zM449 1487l6 22q16 14 34 9q6 0 13 -11v-26q-1 -3 -3.5 -5.5t-4 -3.5 t-4 -3t-3.5 -3q-11 -6 -22 -2q-5 2 -7.5 5.5t-4.5 9t-4 8.5zM461 195q1 2 5 10.5t7 11.5q6 2 19 2q14 -7 22 -31v-14q-2 -6 -14 -14q-15 -4 -23 -2q-10 5 -13 13t-3 24zM510 1010v20l6 14l8 13q6 2 15 2q24 -14 24 -37q-5 -13 -22 -23q-1 0 -4.5 -1t-4.5 -1h-10 q-10 7 -12 13zM514 776q4 19 16 29h15q19 -11 28 -29q0 -6 2 -8q-6 -15 -22 -23q-10 0 -14 -2q-19 15 -25 33zM563 1493q0 8 2 10l6 19l7 6l12 6q15 -4 20 -16v-23q-3 -9 -5.5 -14t-8.5 -9t-14 -2q-4 0 -7 3t-4.5 5.5t-4.5 8t-3 6.5zM582 627v24l2 6q1 2 4 6l4.5 6t4.5 5 t7 4l23 -8q1 -1 2 -1.5t2 -1.5t2 -3l14 -21v-12q-5 -17 -29 -25q-4 0 -12 4q-6 0 -10 2t-8 7.5t-6 7.5zM588 170v10q2 7 5.5 12.5t6.5 7.5t10 7h8q17 -11 23 -23v-22q-2 -7 -14 -15q-7 5 -23 5q-9 5 -16 18zM618 1096q-2 7 -2 14.5t1 15.5t1 13q6 10 23 10q19 -6 31 -21v-8 q0 -18 -29 -30h-16zM653 520v27q6 8 17 16h10q13 -9 22 -22v-21q-25 -25 -38 -12q-8 4 -11 12zM672 1452q0 17 16 23q2 -1 10.5 -5.5t13.5 -8.5t9 -9v-20q-1 -1 -10 -7t-13 -10h-10q-16 11 -16 37zM678 1210q6 16 22 25q2 0 7.5 -1t7.5 -1q8 -2 16 -14q3 -9 0 -25l-12 -12 l-12 -4t-15 -4q-14 16 -14 36zM696 207l6 8l19 8q11 7 18 -4q2 -1 11 -10q2 -8 -5 -19q-16 -14 -32 -14l-11 6zM719 1311v20q5 9 16 17q1 0 3 1t3 1h11q1 0 4 -1t4 -1q2 0 2 -2l6 -9v-18q-4 -9 -23 -19h-14q-3 1 -5 2.5t-4 4.5t-3 4zM727 436v17q6 17 23 24q8 0 10 -2 q5 0 14 -6l12 -14q6 -23 -12 -41q-12 -4 -18 -8q-2 1 -7.5 3.5t-7 4l-5 5t-5.5 7.5q0 2 -4 10zM776 260l19 16q6 3 10 3q6 -3 12 -10t6 -13q0 -2 -4 -10q-6 -12 -10 -14.5t-18 -0.5l-9 7zM823 348q9 9 15 21l12 6q12 -6 16 -9.5t11 -17.5v-14q-2 -12 -17 -19q-8 0 -12 -2 q-3 2 -8.5 4.5t-9 5.5t-5.5 7q-2 6 -2 18zM891 254v2q4 11 14 23h17q1 -1 6 -4t6.5 -4.5l4.5 -4.5t4 -7.5t1 -10.5v-15l-8 -8q-14 -3 -25 0l-4 4q-8 12 -8 13q-8 8 -8 12zM956 449q11 22 45 16l19 -16q0 -1 4.5 -11t3.5 -16q-2 -2 -6 -5t-7.5 -5.5t-6.5 -5.5q-5 1 -14 -3 t-13 -4h-4q-11 13 -19 17q-5 16 -2 33zM977 209q-3 12 0 24q7 5 24 9h7q13 -10 17 -16.5t9 -22.5q0 -10 -13.5 -20t-23.5 -7q-4 2 -7.5 5.5t-6.5 8t-4.5 9.5t-1.5 10zM1028 518v21q3 6 19 18q23 -12 30 -22q-7 -19 -16 -25q-9 -3 -25 0zM1071 119v28l14 15q14 5 31 2 q1 -4 10 -17v-26l-14 -17h-16q-15 5 -25 15zM1071 598v20q9 13 16 17h13q12 -5 18 -17q0 -4 2 -6q-3 -13 -12.5 -22.5t-22.5 -9.5q-1 0 -2.5 1t-3.5 1z" />
<glyph unicode="'" horiz-adv-x="514" d="M168 1210v15q8 22 14 24h15q11 -3 19.5 -14.5t0.5 -22.5q0 -1 -1 -4t-1 -4q-9 -9 -12 -10q-1 0 -13 -4l-14 6q-1 4 -4.5 8.5t-3.5 5.5zM176 1481q2 3 6.5 6.5t10 6.5t10.5 3t9 -2t6 -3.5t6 -7.5t5 -7q2 -6 2 -17l-20 -20q-10 3 -25 10q-10 20 -10 31zM178 1348 q10 19 15 22q4 0 10.5 1t9.5 1q18 -9 18 -31q-2 -9 -10.5 -18t-17.5 -12q-5 0 -13.5 7t-9.5 9q-2 4 -2 21z" />
<glyph unicode="(" horiz-adv-x="819" d="M219 780q1 4 7.5 17.5t6.5 21.5q19 6 31 0q3 -2 5.5 -7.5t4.5 -6.5v-12q-8 -23 -20 -31l-23 -6l-8 4q-2 5 -2.5 11.5t-1.5 8.5zM233 621v20q9 18 17 23h12q1 0 4.5 -1.5t4.5 -2l4 -2t4 -2.5t3 -2.5t3 -4t2 -4.5v-14q-6 -12 -23 -23h-20q-8 2 -11 13zM233 958 q-1 3 -1.5 7.5t0 8t1 8t0.5 7.5q1 3 7.5 12t5.5 15q6 6 14 6q2 0 6 -1t6 -1q12 -12 15 -16v-21q-10 -27 -35 -35q-2 1 -5.5 2.5t-5.5 2t-4.5 2t-3.5 3.5zM274 469v20q2 2 4 6l3.5 7t4.5 6t7 4h16q11 -2 21 -16v-15l-8 -14q-4 -1 -9 -4.5t-6 -3.5q-14 0 -18 -2q-12 3 -15 12z M299 1169q1 3 1 9t1 8q1 3 2.5 9t3 9.5t3.5 7.5t5 7q8 2 27 2q9 -4 16 -19v-14q-6 -16 -10.5 -21t-21.5 -14h-15q-2 2 -12 16zM334 354q2 4 2 11q5 6 15 9t11 3q30 -8 21 -35q-2 -5 -5 -7.5t-10.5 -5.5l-7.5 -3h-10q-3 0 -5.5 1t-4.5 2.5t-3 4t-1 4.5q0 3 -1 8t-1 8z M367 1337l6 17q0 2 2 4.5t2 3.5q29 18 47 0l4 -8q0 -7 2 -11q-12 -24 -35 -32h-10q-8 2 -15 10t-3 16zM377 238q2 3 4.5 9t5 10t6.5 7h17q13 -6 22 -22q-4 -15 -14 -23l-25 -6q-16 8 -16 25zM438 119q5 11 8 15.5t5.5 7t9.5 8.5h20q15 -7 15 -27q-4 -13 -27 -29q-6 2 -14 2 q-4 3 -7 6.5t-5.5 8.5t-4.5 8zM457 1470q-3 15 0 29q14 18 20 23h23q3 -1 5 -3t3.5 -4.5t2.5 -4.5t2.5 -5.5t2.5 -5.5q0 -18 2 -26q0 -1 -1 -3t-1 -4q0 -1 -2 -3t-2 -3q-4 -3 -13 -5t-12 -5h-14q-6 2 -11 8t-5 12z" />
<glyph unicode=")" horiz-adv-x="813" d="M215 55v23l18 26l21 9q11 -8 20 -23v-20l-8 -15l-12 -8h-31zM231 1507q6 12 13 19q13 5 24 2t17 -12q2 -4 2 -25q-5 -12 -23 -23l-18 7q-15 19 -15 32zM317 205q1 1 2 4t2 4.5t2.5 4t3 4t4 3t5.5 2.5q2 0 7 1t7 1q21 -9 27 -16v-27q-1 -5 -6 -10l-6 -6l-17 -6 q-18 3 -29 14q-2 4 -2 27zM317 1346q-3 13 0 32q7 11 12.5 14t18.5 3l14 -9l9 -12q1 -3 1 -6t0.5 -5t-0.5 -4.5t-1 -4t-1.5 -3.5t-1.5 -3t-2 -3l-2.5 -2.5l-3 -3l-2.5 -2.5l-20 -6q-14 4 -21 15zM377 1219v14l12 20q1 0 17 11h16l12 -11q5 -7 2 -36q-3 -6 -10 -13l-20 -6 q-12 4 -19 4q-2 2 -5.5 8.5t-4.5 8.5zM397 334q4 17 11 26l10 21q4 4 6 4h8l21 -12q4 -10 4 -29q-15 -31 -39 -31l-12 6q-2 2 -4.5 7.5t-4.5 7.5zM432 1055v8l6 18q7 13 23 13l16 -9q2 -2 5.5 -8t4.5 -8v-20q-4 -2 -8.5 -8t-5.5 -7q-4 -2 -24 -2q-8 3 -17 23zM451 512v20 l8 17q12 8 18 10q21 -4 27 -14v-6v-19q-2 -10 -15 -18l-20 -6q-1 0 -3 1t-3 1q-1 1 -4 3.5t-5 4.5t-3 6zM463 891q-3 15 0 33q5 7 7.5 9t12.5 7q4 -4 9 -4q4 0 8.5 -2t8 -5.5t5.5 -8.5t2 -9v-18q-6 -19 -20 -19q-2 0 -7 -1t-8 -1l-10 5zM475 713q-6 37 8 51q4 2 15 2 q17 -4 22 -14l6 -25q-4 -12 -4 -18q-4 -8 -14 -12t-21 -1q-12 12 -12 17z" />
<glyph unicode="*" horiz-adv-x="1005" d="M188 1335q-6 25 17 41h20q4 -4 15 -8q3 -3 7.5 -13t6.5 -14q-4 -4 -4 -22q-8 -10 -23 -14l-18 6l-19 16q-2 4 -2 8zM252 1032v6q4 15 8 19.5t19 13.5q16 -2 25.5 -17.5t4.5 -35.5q-3 -7 -10 -10q-17 -3 -33 0q-3 2 -14 24zM311 1276q0 4 1 7t2.5 6.5t2.5 6.5l11 11 q4 2 20 2l21 -13l6 -18v-18q-3 -16 -23 -23h-12q-25 9 -25 23q0 8 -4 16zM340 1120v15q15 34 37 34q16 -6 29 -22q0 -15 2 -21q-6 -6 -9 -14q-15 -9 -30 -14q-4 0 -7.5 1t-7 4.5l-4.5 4.5l-6 6zM426 1243l6 27l17 18q10 6 30 2q20 -9 27 -33q0 -8 -4 -24l-13 -12l-12 -7 q-8 3 -14 0q-11 4 -27 15q-3 3 -5.5 8t-4.5 6zM436 1407q3 6 12 10t11 6q6 0 14 -3.5t10 -4.5l6 -14v-15l-4 -8l-7 -3.5t-7 -3t-7.5 -1.5t-8.5 0l-17 8q-2 5 -2 29zM451 1470q-4 8 0 29l8 8q12 0 18 2q12 -8 15 -14v-18l-9 -15q-3 -2 -18 -2q-6 2 -14 10zM510 1130 q-2 14 6 24t21 13q14 -3 26 -18q0 -2 6 -14q-6 -22 -24 -31h-15q-14 14 -20 26zM588 1028v41l10 8q10 4 29 0l14 -14q0 -4 1 -11t1 -10q-2 -2 -5.5 -8t-4.5 -8q-14 -7 -15 -8h-12q-3 1 -6.5 3t-6.5 4t-5 3zM588 1239q-3 9 0 21q1 2 2.5 6.5t3 8t4.5 8t6 7.5h14q15 -9 23 -20 q3 -16 0 -31q-10 -10 -23 -14h-6q-2 1 -8 3t-9.5 4.5t-6.5 6.5zM692 1317q-3 8 6 26q2 4 5 6t8.5 4t7.5 3h10q16 -11 16 -25v-16q-1 -2 -3 -6.5t-4 -7.5t-5 -5h-20l-8 7z" />
<glyph unicode="+" horiz-adv-x="870" d="M164 705v20l14 14q5 2 27 2q20 -4 20 -32q-7 -28 -32 -33q-2 1 -6.5 3t-8 4.5t-6.5 6.5zM279 700v37q13 18 26 21l14 -6l9 -15q4 -14 -2 -28q0 -9 -21 -21h-14q-10 7 -12 12zM365 500v30q9 20 16 25h16q15 -4 27 -16v-31q-6 -14 -8 -17.5t-8 -7.5q-15 -3 -27 0q-7 3 -9 5 t-7 12zM369 655v25l10 18l12 7q22 -3 37 -25q2 -4 2 -23q-1 -4 -4 -7t-5.5 -4t-8 -3.5t-6.5 -3.5h-21zM375 799q6 15 8 18.5t10 9.5h19q41 -24 12 -53l-21 -6q-23 5 -28 31zM375 936q0 4 1 12.5t1 12.5q3 6 12 12h25q9 -6 12 -15q0 -2 4 -10v-22l-16 -15h-19l-12 7 q-4 12 -8 18zM502 729q3 5 8 19l8 6q13 3 23 0q4 -2 6.5 -5t3.5 -5.5t3 -7t3 -5.5q2 -11 -8 -35l-17 -8h-8q-14 7 -20 23q0 12 -2 18zM588 698v23q3 13 9 19.5t19 13.5q7 -2 12 -6.5t7.5 -12t-0.5 -16.5v-2q-5 -14 -8 -19q-6 -3 -13 -10h-10q-2 1 -7 4t-9 6z" />
<glyph unicode="," horiz-adv-x="548" d="M207 272q0 1 1 4.5t1 4.5v8q4 4 8 12q20 12 35 10q13 -6 20 -16q4 -12 4 -23q-4 -6 -8 -18l-22 -14h-8q-14 6 -19 6q-9 12 -12 26zM250 61q0 5 3.5 12.5t4.5 10.5q6 4 25 14l12 -12q3 -2 4.5 -9t3.5 -9q-4 -8 -4 -11q-3 -3 -10.5 -7t-9.5 -5q-22 2 -29 16zM279 156 q-1 5 0 10t3 10.5t3 7.5l14 9q2 0 5.5 -1.5t6.5 -1.5l15 -14q8 -17 -4 -29q-16 -8 -27 -8q-10 5 -10 11z" />
<glyph unicode="-" d="M154 743v13q4 10 20 22l23 6h12q15 0 22 -22v-12q-3 -5 -7.5 -9.5t-8 -7.5t-9.5 -7t-9 -7q-3 0 -10 1t-9 1q-18 3 -24 22zM293 743v15l12 14l19 8h18q2 0 2 -2q4 -4 8 -16v-25q-3 -8 -11 -13.5t-17 -2.5q-4 4 -9 4q-12 6 -22 18zM408 748v10q5 11 28 22h19q10 -4 18 -16 q0 -2 1 -4.5t1 -3.5q-1 -3 -1 -8t-1 -7q-4 -4 -4 -6l-12 -8h-21q-17 7 -28 21z" />
<glyph unicode="." horiz-adv-x="528" d="M193 268v19q6 12 14 20q23 6 39 -2t16 -33q-6 -23 -35 -30q-15 4 -26 12q-3 9 -8 14z" />
<glyph unicode="/" horiz-adv-x="1007" d="M162 104l8 21l14 10q8 -4 15 -4q6 -3 10 -11t0 -16q-7 -7 -23 -16q-3 0 -8.5 3.5t-9.5 4.5zM199 195v14q5 13 20 24q1 0 10.5 0.5t14.5 4.5l6 -7q-2 -4 0.5 -11t1.5 -11q-4 -15 -14 -23q-1 0 -2.5 -1t-2.5 -1h-16q-13 3 -18 11zM254 360q7 23 27 35h26l8 -4l9 -16 q0 -8 -4 -17t-9.5 -15.5t-11.5 -10.5q-13 -4 -24 -2.5t-17.5 9.5t-3.5 21zM319 498v14q8 16 29 23h14q1 -1 7 -5.5l8 -6t4.5 -6t3.5 -9.5q-8 -25 -20 -33h-29q-4 2 -7 5t-4.5 5.5t-3 6.5t-2.5 6zM379 655v13l8 14l4 4q17 8 23 10q3 1 5.5 0t5.5 -3t5 -3l10 -14v-8 q-6 -13 -8 -19q-4 -2 -12 -10q-12 -2 -31 -2q-10 5 -10 18zM446 813v18l9 19l12 10q8 0 10 2q13 -8 18 -15.5t5 -21.5q-1 -3 -11 -18l-18 -12q-16 0 -25 18zM512 977q2 11 14 35l15 6q9 0 14 -6t8 -17t4 -12q-1 -1 -3.5 -8t-5 -10.5t-7.5 -6.5h-27q-4 2 -5.5 4.5t-3.5 7.5 t-3 7zM573 1118v17l13 20l4 4q13 8 26 4l17 -22v-15q-9 -18 -35 -22q-21 8 -25 14zM633 1266v14l18 25q0 2 4 2q5 2 14.5 -1.5t12.5 -2.5q5 -3 7 -11t3 -10l-10 -22q-3 -3 -8.5 -6t-7.5 -5h-15q-13 6 -18 17zM670 1405l8 22q7 13 14 13q11 -2 29 -13l14 -20v-10 q-7 -13 -22 -21h-21q-5 3 -9 7t-8 12.5t-5 9.5z" />
<glyph unicode="0" horiz-adv-x="1206" d="M195 741q4 12 4 23l12 12l14 6q2 -2 8.5 -2.5t8.5 -1.5q4 -1 9 -7.5t9 -8.5v-19q-4 -8 -4 -10q-2 -1 -7 -4.5t-8 -5.5t-8 -3.5t-10 -0.5q-3 2 -12.5 6t-13.5 8q0 1 -1 3.5t-1 4.5zM209 924q2 11 4.5 16.5t9.5 9.5t19 4l8 -4q10 -3 14 -14q4 -4 4 -10q-1 -2 -1 -6.5 t-1 -6.5l-14 -16q-21 0 -25 2q-1 0 -3.5 1t-4.5 1zM213 561q-5 14 0 27t16 18q10 5 13 8l16 -8q6 0 16 -20v-15q-6 -23 -26 -30h-8l-13 4zM217 412l4 10v4q14 18 29 25h10q23 -16 14 -43q-4 -5 -11.5 -11.5t-8.5 -7.5h-21q-10 10 -10 12zM233 1096q0 3 1.5 9t1.5 9l8 12 q2 0 5 1t5 1q5 5 6 5q19 0 33 -19v-12l-10 -17l-23 -10q-22 6 -27 21zM274 1241q1 2 1.5 4t0 3.5t-1 3.5t-0.5 3v15q5 20 35 20q9 0 13 -8q1 0 2 1t2 1q0 -1 1 -2t1 -2q5 -16 4 -20v-23l-13 -12q-2 -1 -5 -3t-6 -3t-7 0q-2 3 -8.5 5t-9.5 5q-1 1 -4 5.5t-5 6.5zM281 295 q0 20 16 33q3 3 15 0.5t16 -2.5q18 -15 16 -33l-6 -14l-21 -11q-12 4 -20 4q-3 0 -6 4.5t-6 11t-4 7.5zM403 205v14l9 21q10 9 14.5 11t19.5 5l15 -6q3 -2 8.5 -9.5t7.5 -9.5q-2 -4 -2 -10v-10q-12 -14 -37 -25h-14l-12 7q-3 6 -9 12zM420 1378q7 15 12 21h12l5.5 -3.5 t9.5 -4.5l6 -13v-18q-9 -9 -23 -14q-12 5 -17 12t-5 20zM535 1407q-2 3 -2.5 6.5t0.5 7t1.5 5.5t2.5 6.5t2 5.5q6 0 8 -2l8 6q1 -1 4 -2t4 -2t3.5 -2t4 -2t3.5 -2.5t3.5 -3t2.5 -3.5l2 -4l2 -4q0 -9 -3 -13.5t-12 -12.5q-15 -5 -30 4q0 4 -4 12zM602 203v10q1 5 4 11.5 t4 8.5q8 4 13 9h16q11 -8 16 -21q0 -21 -12 -31q-8 0 -20 -4l-9 4q0 7 -4 7zM678 1352v22q6 13 4 25q6 3 6 6q7 2 16 -1t11 -3l16 -15v-18q-6 -16 -22 -25q-6 -2 -9 -1t-8 2.5t-8 1.5zM705 272q6 14 6 19q9 12 26 20h6l19 -10q0 -5 1 -14t1 -11q-10 -15 -25 -26h-18 q-14 10 -16 22zM768 1284q1 1 4 9t8 12q3 2 10 5t11 5q5 0 8.5 -2t8.5 -7t7 -6q0 -4 4 -12q0 -4 -1.5 -8.5t-3.5 -8.5t-3 -7l-16 -9q-14 -3 -27 7q-6 10 -10 22zM819 401q2 5 2.5 14.5t1.5 12.5l11 16l20 7l6 -5l8 5q5 -1 10 -6.5t7 -6.5q0 -2 4 -10q0 -3 -3 -11.5t-3 -13.5 q-6 -13 -33 -28h-16q-10 6 -15 26zM834 1126q1 2 3 7.5t3 9t4 7.5t6 7q2 0 5.5 1t4.5 1l31 -24q4 -16 3.5 -16t-5.5 -13q-4 -4 -8 -6t-11.5 -4t-11.5 -4q-9 3 -16.5 13t-7.5 21zM858 563q5 23 14.5 33t32.5 12q6 -8 17 -16v-17l-7 -20q-1 -4 -4.5 -8t-10 -9t-7.5 -6h-8 q-3 0 -13 5q-2 0 -8 6l2 2zM862 766v16q12 29 29 29q5 1 9.5 0t7.5 -2.5t6.5 -3t5.5 -2.5l12 -19l-12 -24l-19 -6q-2 1 -12.5 1.5t-18.5 2.5t-8 8zM868 936v18q8 17 9 19l20 8q3 -1 11 -4t14 -4l6 -21q-2 -2 -2 -8v-10q-2 -3 -5 -9t-6 -10.5t-6 -7.5h-18q-4 2 -10 13.5 t-11 11.5q0 1 -1 2t-1 2z" />
<glyph unicode="1" horiz-adv-x="952" d="M229 1110l25 20l18 -12q8 -10 4.5 -21.5t-12.5 -15.5q-10 -10 -14 -10q-32 9 -17 31zM319 1194v10l9 25q4 4 10 4h2l25 -12q15 -19 6 -35l-4 -3t-5 -5l-18 -7q-1 0 -16 5l-6 6q1 3 -1 7t-2 5zM414 1303q0 10 2 17.5t6 15t6 12.5q3 3 11.5 0.5t9.5 -2.5q4 0 12 -6.5 t12 -6.5q3 -3 6 -10.5t4 -9.5l-8 -23q-16 -8 -24 -14h-17q-13 8 -20 27zM557 1382q1 2 2 11.5t6 15.5q2 1 7 5.5t8 6.5q4 -2 10 -2l24 -18l7 -10q-8 -18 -13 -23q0 -2 -2.5 -4.5t-7 -5l-4.5 -2.5h-21l-4 4q0 2 -1.5 3t-3.5 2t-3 3zM563 801q0 3 1 7.5t1 6.5q3 14 15 16l14 7 l24 -11l7 -10q4 -29 -15 -45q-2 2 -6 2h-10l-12 8h-4q-7 0 -15 19zM563 1204q-9 19 0 47q6 0 8 2q3 0 7 4q2 -2 6 -1.5t8 -0.5q5 0 20 -12q15 -20 -18 -45h-21zM567 379q6 6 8 12l15 4q16 -3 28 -12l5 -12q0 -20 -11 -37.5t-28 -9.5q-8 0 -10.5 7.5t-2.5 19.5t-2 16v6 q0 4 -2 6zM567 524q7 10 17 15h14q21 -10 25 -23q-5 -18 -23 -35h-14q-4 4 -8 4q-11 19 -11 39zM567 952l6 13q11 0 15 2q1 2 1 6.5t1 7.5q9 6 22 6q0 -2 4 -6q0 -1 1 -3t1 -3q12 -18 3 -35q-3 -3 -3 -6q-14 -9 -16 -10q-7 -1 -9.5 -1t-9 2.5t-8.5 2.5q-3 4 -8 24zM573 201 v2q-10 24 9 43q4 0 12 4q15 -3 31 -19l4 -18l-6 -12l-15 -13h-8q-4 0 -8 -4zM575 1090q0 4 1.5 10.5t1.5 9.5q6 13 14 18h18l15 -10q0 -4 4 -8q0 -21 -21 -39h-14l-4 3t-8 3zM578 668q0 4 1 10.5t1 9.5q2 1 8 4.5t8 5.5q33 -7 39 -24q-7 -20 -27 -25q-12 0 -17.5 4t-11.5 13 q0 1 -1 2z" />
<glyph unicode="2" horiz-adv-x="1071" d="M154 219v8q10 21 16 25q16 5 25 2q14 -9 16 -23v-12q-5 -9 -23 -22q-5 -1 -11.5 0.5t-8.5 1.5zM211 1100q1 1 4 6t5 6.5t5.5 4t7.5 3.5h7q8 -12 14 -18v-12q-11 -15 -16 -15l-23 12zM215 1196v6q2 6 10 6l13 13q12 -4 18 -4q0 -9 12 -17v-14q-7 -11 -20 -17h-12 q-3 1 -5.5 2.5t-5.5 3.5t-4 3q-1 2 0.5 6t-0.5 6zM229 1305v12q7 19 17 24h16q3 -2 21 -8l4 -14v-12l-21 -17q-2 2 -6 0.5t-6 -0.5h-14q-8 5 -11 15zM236 352v17l6 12q10 10 34 22q14 -14 17 -20v-16q-13 -21 -27 -25q-3 0 -10.5 1t-11.5 1q-3 0 -8 8zM262 219q0 2 1 7.5 t1.5 9t2.5 7.5t5 7l17 8q20 -6 30 -25q0 -35 -34 -43q-5 5 -6 5q-3 0 -6 2.5t-5.5 6t-4 8t-1.5 7.5zM313 475v8q21 21 37 17l10 -6q9 -14 11 -19q0 -2 -4 -10v-2q0 -1 -1 -2t-1 -2q-9 0 -13 -2q-2 0 -6 -4l-6 4q-4 -1 -7 -0.5t-6.5 3.5t-4.5 3.5t-5 5.5t-4 6zM340 1395 q13 22 31 30q12 0 18 -4l8 -16v-16q-4 -14 -30 -27l-15 4q-8 12 -8 20q0 1 -4 9zM395 211v25l3 2.5t3.5 3.5t3 3t4 2.5t4 2t4.5 2t4.5 1t5 0.5t5.5 -1q25 -16 25 -45l-11 -10q-2 0 -10 -4q-1 0 -6 -5q-2 0 -4 3.5l-2 3.5h-12q-1 2 -8 6t-9 10zM406 578q0 1 1 4t1 4l10 14 q4 1 15.5 0.5t15.5 1.5q5 -16 12 -16q0 -5 -4 -13v-16q-1 -1 -6.5 -6t-9.5 -7.5t-9 -2.5q-1 0 -3 1t-3 1h-12q-4 13 -8 35zM481 645q0 4 1 12t1 13q2 2 8 6t7 8q1 0 3 -1t3 -1q2 2 8 2q2 0 4.5 -1t3.5 -1l10 -4l7 -10q1 -4 0.5 -6t-1.5 -5.5t-1 -5.5l-9 -12q-2 -2 -6 -3 t-7 -2t-5 -3l-21 4zM496 1413q5 29 28 31q1 0 3.5 -1t5 -1.5t6.5 -1.5t7 -2.5t5.5 -3.5t4 -4t1.5 -5t-1 -8t-1 -8l-4 -8q-5 -2 -13 -9.5t-14 -9.5h-16l-6 9v12zM545 209q0 18 4 22q0 1 1 2q4 8 6 10.5t9 6.5l17 -4l14 -15l6 -20l-8 -8l-12 -6q-3 -2 -9.5 -1.5t-9.5 -0.5h-8z M565 725q-2 0 -1 9l1 9q0 16 15 27h10q0 -3 2.5 -5t7 -3t6.5 -2q10 -10 12 -19v-8q-11 -11 -32 -18q-2 1 -10 4t-11 6zM633 1329v12q0 1 1.5 8.5t3 13t5.5 9.5q5 -2 16.5 -4t16.5 -4l6 -10v-13l-12 -20l-8 -4h-15q-8 3 -14 12zM635 836q0 3 1 10.5t1 11.5q5 7 18 14 q32 -4 39 -24q-1 -1 -2 -4.5t-2 -5.5q-9 -12 -20 -17h-19q-14 6 -16 15zM647 233q1 3 4 7t6 6.5t7 6t6 5.5q7 0 10.5 -1.5t15.5 -10.5l6 -23q0 -1 -0.5 -2t-1 -2.5t-0.5 -3.5l-16 -16q-2 2 -8 2h-8q-11 4 -19 14q0 10 -2 18zM692 979q0 3 2.5 6t4.5 4.5t7 3.5l5 2q3 0 8 -1 t8 -1l10 -10l6 -12q-4 -8 -4 -15l-16 -14h-14q-17 0 -17 37zM694 1235q0 3 2 5.5t2 4.5q2 6 15 17q29 0 37 -29v-12l-15 -15q-24 -9 -37 4q0 2 -1 6t-1 5q3 9 -2 14zM719 1079v13q7 19 14 22h15q13 -3 18 -14v-15q-2 -9 -12 -22h-17q-8 4 -12 4q0 2 -4 6q0 1 -1 3t-1 3z M791 233q3 5 8 19l10 10q2 -2 8 -2q4 -2 10 -2q17 -21 17 -35q-1 -3 -10 -26q-2 -1 -6 -2t-5 -2l-28 6q-5 3 -4.5 17.5t0.5 16.5z" />
<glyph unicode="3" horiz-adv-x="1130" d="M182 449q4 4 4 6q2 2 2 8l15 4q22 -8 24 -12v-21q-2 -4 -8 -9t-8 -9q-1 0 -25 6q-7 13 -4 27zM193 356l16 17q3 3 10 0.5t8 -2.5q2 -3 6.5 -7t7 -8t3.5 -8q0 -2 -1 -6t-1 -6q-3 -6 -25 -10q-2 2 -6 2l-16 20q-2 2 -2 8zM225 1245q0 3 11 17l12 4q3 0 6.5 -4t7 -9t4.5 -6 q-2 -2 -2 -6l4 -8q0 -1 -1 -4t-1 -4q-4 -2 -14 -2l-6 -6l-17 6q-5 16 -4 22zM250 268q11 24 16 29h17q14 0 24 -27q0 -2 -1 -6.5t-1 -7.5l-16 -14h-21q-2 0 -10 4q-3 12 -8 22zM258 1341q4 4 4 9l4 8q39 13 39 -15q0 -9 -14 -26h-15q-5 7 -14 10q-4 12 -4 14zM336 1409 q0 2 1 5t1 5v11q6 6 9 8.5t8 4t12 1.5l16 -6q1 -4 4.5 -8t3.5 -9q0 -2 2 -6q-2 -3 -6 -10t-6 -10t-7 -6.5t-12 -4.5q-1 0 -4.5 1t-5.5 1q-7 5 -16 23zM373 190q1 4 0 10.5t0 10.5l8 18l10 9q4 -2 10 -2q2 0 6.5 -1.5t6.5 -1.5q9 -6 16 -20q0 -13 -16 -29q-1 0 -5.5 -2 t-5.5 -2.5t-5 -1.5t-6 -0.5t-5 1.5t-6 3zM442 1438l7 16q6 2 18 10q4 -2 10 -2.5t11.5 -1.5t9.5 -4l4 -12q0 -2 -4 -14l-13 -15l-20 -6q-2 0 -8 4t-6 6q-5 8 -9 19zM453 825q1 3 4 13.5t6 13.5q3 2 20 2q6 -2 11 -6.5t7 -11.5t-1 -15q0 -1 -1 -2.5t-2.5 -3.5t-2.5 -4 q-3 -3 -6.5 -5t-8 -4t-6.5 -3l-12 6q-3 2 -4 9.5t-4 10.5zM506 180v27q0 2 1 5.5t1 4.5q12 12 18 21q19 -5 23 -9q8 -12 8 -24q-7 -11 -12 -23v-8q-6 -6 -13 -6q-2 -1 -6 -1t-6 -1zM553 1403q2 4 1 12t1 12q1 1 3.5 6t4.5 7q3 2 10.5 4t10.5 4q12 -3 20 -21v-14 q-3 -14 -22 -20h-15q-3 1 -7 5t-7 5zM565 856q1 3 5.5 4.5t4.5 3.5l13 6q26 -7 33 -26v-13l-5 -10q-11 -14 -28 -12q-1 1 -4.5 2t-5.5 2l-11 10v19q1 4 -0.5 8.5t-1.5 5.5zM621 231v15q1 1 3.5 8t4 9t5 6t7.5 5l14 -4q3 -1 6.5 -7t4.5 -7q9 -6 12 -18v-13q-4 -4 -4 -8 q-5 -5 -14 -7t-11 -3l-16 6q-1 0 -3 -1t-3 -1q0 6 -2 10q0 2 -4 10zM657 1370q0 2 1 6t1 6l15 7l18 -5q3 -1 5.5 -4t6 -7.5t5.5 -6.5v-14q-1 -5 -6.5 -8.5t-6.5 -4.5q-6 2 -16 2l-8 7l-8 4zM659 905l7 6l-4 9q4 2 12 2l8 6q2 -2 6 -2h4q9 -6 12.5 -9t7.5 -11t1 -17l-6 -6 l-13 -9h-16q-2 0 -8 3q-1 2 -3.5 6t-4.5 6.5t-3 7t0 8.5zM662 735v10q4 4 8 17l16 4q20 -4 27 -16v-11q-3 -8 -12.5 -16t-18.5 -8q-3 1 -5 3t-2.5 4t-2 4.5t-2.5 4.5zM707 313v13q4 9 16 15.5t25 6.5q12 -3 20 -22v-7l-4 -8l-19 -12h-22q-8 0 -16 14zM723 1008q8 12 16 16 q5 1 11 -1.5t8 -2.5l18 -19v-12q0 -2 -1.5 -4.5t-4 -4t-4.5 -2.5t-5.5 -3t-4.5 -2h-13l-16 8q0 3 -1.5 8t-2.5 10t0 9zM737 647q0 11 2 15q0 2 4 14v2q7 0 15 4l22 -6l11 -12q2 -9 -3 -21q-34 -27 -43 0zM737 1257q1 2 3 8t5 10.5t7 8.5h14q4 -4 16 -8q1 -2 3 -6.5t2.5 -6.5 t1 -6t-0.5 -7t-4 -7l-10 -8q-12 0 -20 2q-1 1 -5.5 5t-7 7t-4.5 8zM741 1145v16l7 13q9 7 28 0q3 -10 15 -13q1 -2 1.5 -4t1 -3.5t1.5 -2.5v-16q-9 -9 -11 -13l-14 -4q-2 0 -6 1t-6 1l-10 10zM768 539v26l8 10l25 -4q1 -1 4 -4.5t3.5 -4.5t3 -5t2 -6.5t-0.5 -7.5l-9.5 -8.5 t-15.5 -10.5h-8q-6 3 -12 15zM774 428q1 2 2.5 6t3 6t3.5 5t5 4q15 5 23 -5q2 -1 5.5 -5.5t4.5 -6.5q2 -10 -6 -26q-6 -3 -12 -3q-7 -4 -12 -2l-13 9z" />
<glyph unicode="4" horiz-adv-x="1271" d="M158 580l6 8q5 15 8 18l18 4q17 -4 19 -16q0 -2 4 -6q0 -18 -23 -29q-10 -3 -19.5 4t-12.5 17zM197 670q-1 6 4 26l16 6q20 -9 25 -18v-8q-14 -14 -21 -14q-4 0 -16 4q-4 0 -8 4zM236 784l6 25l24 12q4 -1 7.5 -3t8 -5t7.5 -4q0 -2 1 -7t1 -7q-4 -19 -12 -27l-17 -6 q-2 0 -14 4q-8 8 -12 18zM266 588v4q7 14 21 20q1 0 2 1t2 1q16 -5 22 -24l-6 -12q-17 -8 -24 -7l-11 7zM287 905v6q0 1 1 4.5t1 6t-2 4.5q1 2 3 6.5t3.5 7t4 5.5t5.5 4t8 1q5 -2 23 -16l6 -14q-4 -18 -16 -25q-2 0 -11.5 -2.5t-11.5 0.5q-8 3 -14 12zM350 1049l6 28 q2 3 4.5 5.5t6 5.5t4.5 4q12 4 18 4q11 -3 21 -23q0 -2 1 -5.5t1 -6.5q0 -9 -13 -29l-24 -6q-14 5 -19 8zM389 604q0 2 1 6t1 6l12 9h13l12 -4q3 -5 10 -9l8 -24q-16 -17 -34 -17q-14 0 -20.5 10.5t-2.5 22.5zM416 1178l10 20q2 2 14 8q15 0 21 -2q10 -10 16 -22 q-1 -1 -1.5 -3t-1 -5t-1.5 -5q-7 -3 -10 -10l-21 -6q-1 0 -4.5 1t-5.5 1q-7 5 -16 23zM494 1296q2 3 7.5 11.5t8.5 11.5l12 4h2q2 -3 5 -7t6.5 -8.5t5.5 -7.5v-20q-1 -1 -4.5 -3.5t-6 -4.5t-4.5 -2h-14q-11 3 -16 10q0 3 -1 8.5t-1 7.5zM520 604q1 1 4 5.5t7 8t8 5.5 q1 0 3 -1t3 -1q2 1 5 -1l3 -2q14 -5 18 -16q0 -6 2 -12q-2 -2 -6.5 -7.5t-8.5 -8.5t-11 -3q-2 2 -17 2l-8 7q0 2 -2.5 11.5t0.5 12.5zM537 1389q5 21 8 28h12q2 -1 9 -4t12 -4q9 -23 4 -33l-15 -8h-10q-17 7 -20 21zM629 584v14l4 8l20 12h11q10 -5 18 -16v-16 q-1 -4 -10 -17l-17 -6q-10 0 -18 5.5t-8 15.5zM752 588q5 18 26 35h13q3 0 6 -1.5t5 -3t4 -4t3 -4.5t3 -5.5t3 -4.5l-4 -25l-6 -8q-13 -5 -17 -8q-6 2 -18 2q-4 4 -12 8q-6 9 -6 19zM791 186q-4 4 -3 12.5t5 12.5l6 12q2 2 7.5 6t8.5 7q5 1 25 -9q4 -4 7 -13.5t7 -12.5 q-7 -32 -29 -39h-12q-22 13 -22 24zM795 315q12 24 16 29h20q2 -2 10 -7t11 -11v-15q-6 -16 -27 -20h-16q-11 8 -14 24zM797 455q8 16 16 24l8 4h10l15 -12q3 -4 8 -20q0 -11 -7 -20t-16 -11q-2 0 -5.5 1t-4.5 1h-8l-8 4q-9 23 -8 29zM805 713q-2 4 -2.5 8t-1 7t1 7.5 t2.5 6.5t3.5 7.5t2.5 6.5l8 8h10q4 -1 10.5 -5t8.5 -5q8 -10 12 -13q4 -11 -0.5 -22.5t-15.5 -11.5l-6 -7h-19zM813 827v21q0 1 1.5 5t2.5 5.5t3.5 3.5t6.5 2h7q4 -1 8 -4.5t6.5 -6t6 -8t5.5 -7.5q-2 -2 -2 -4q2 0 2 -5q-10 -8 -26 -14q-18 4 -21 12zM883 596q0 22 22 39h15 l14 -12q2 -3 2 -27l4 -6v-8l-6 -7q-2 0 -6 -4h-10h-9q-24 8 -26 25zM991 598q-2 12 13 27q4 0 8 4h6l14 -4l6 -9q3 -9 3 -10.5t-3 -7t-4 -10.5q-12 -8 -20 -8l-19 10q-4 4 -4 8z" />
<glyph unicode="5" horiz-adv-x="1153" d="M184 502v8q6 6 9 12q2 1 4 7t8 6q22 -7 24 -9l4 -10v-14q-7 -11 -22 -19q-12 4 -16 4q0 8 -11 15zM190 387v21l5 10q2 0 8.5 4t11.5 4q2 0 14 -4q14 -11 11 -29l-4 -6l-9 -10q-3 -1 -8 -4t-6 -4q-3 0 -6 1t-6 3.5t-4 4t-3.5 5t-3.5 4.5zM207 981l6 20q2 2 8.5 7t9.5 8 q3 1 10 -1.5t9 -2.5q10 -8 14 -27q-4 -8 -4 -12l-8 -8q-1 -1 -2.5 -6.5t-3.5 -7t-6 -1.5h-9q-20 5 -24 31zM207 1411q5 14 8 19q1 2 8 1t8 -1q14 -11 17 -21q1 -3 1 -8t1 -8q-1 -1 -4 -6l-4.5 -7.5t-5.5 -5t-9 -2.5q-15 12 -20 39zM213 1163l16 19q3 0 7 1t6 1t5.5 -1 t4.5 -1l12 -25v-14q-4 -4 -4 -8q-2 -1 -7 -5t-10.5 -6.5t-11.5 -1.5l-12 13q-3 4 -3.5 14t-2.5 14zM213 1272q5 15 12 20q1 1 5 2t6 2l5 -2q5 -1 5 2q20 -7 20 -30q-3 -9 -26 -23q-11 -3 -21 4zM246 303q10 19 24 23q2 0 8 -1t9 -1l8 -9q1 0 2 -3q1 -2 2 -3v-18 q-11 -22 -29 -27q-7 0 -10 3t-5 9.5t-5 10.5zM291 1376q-2 14 6 45q1 1 2.5 2t2.5 2t1 2q17 2 31 -8q8 -21 8 -28q-1 -2 -4 -9.5t-6 -9.5q-3 -3 -13 -8h-8q-9 9 -20 12zM334 963q0 4 4 20l6 6l14 6q4 -1 17 -14v-14l-10 -21l-11 -6h-6q-5 1 -7.5 4t-4 10t-2.5 9zM367 229 q0 2 1 7.5t1 7.5q4 0 8 4q3 0 9 1t9 1q5 0 8.5 -2t5.5 -4t5 -6t4 -5v-10q-11 -13 -27 -20h-12q-8 4 -10 4q-7 13 -2 22zM406 1399q0 21 20 41h16q18 -9 21 -25v-10q0 -2 -4 -10l-19 -17h-24q-3 3 -5.5 11t-4.5 10zM420 934v29q3 2 7 8t7 8q8 0 12 2q14 -5 23 -18v-15 q0 -2 -4 -10l-19 -14l-8 -4q-10 2 -18 14zM473 223q0 9 4 21q25 17 45 6q2 -1 5.5 -5.5t4.5 -6.5q-2 -4 -2 -11q0 -1 -1 -4t-1 -4q-15 -14 -30 -16q-12 3 -25 20zM524 958v3l13 4h10q12 -6 22 -17v-10l-14 -16l-16 -9h-7q-11 3 -14 20t6 25zM553 1384q0 15 2 23q7 17 25 23 l11.5 -3.5t16.5 -9.5q0 -3 2 -9t2 -9l-14 -23l-23 -8h-2q-2 -2 -2 -4q-3 4 -9.5 10.5t-8.5 9.5zM598 225q0 5 5.5 12t6.5 9h23q8 -4 14 -17v-12l-14 -16q-5 0 -17 -4q-8 2 -16 14v8q0 1 -1 3t-1 3zM618 928v12q2 6 11 12h14l19 -6q0 -1 1 -4t1 -4q4 -4 4 -6l-6 -23 q-6 -3 -13 -10q-4 0 -6 2l-2 -2q-18 9 -23 29zM676 1425q0 9 8 13l27 6l7 -6t11 -11v-18q-3 -10 -20 -25h-17q-14 7 -17 15.5t1 25.5zM715 287q-3 12 5 25t21 18q13 -4 25 -19v-18l-4 -4q-3 -5 -6 -8t-6 -3.5t-8.5 -2t-10.5 -3.5q-7 3 -16 15zM717 872v9q0 2 4 10 q11 11 14 12q2 2 4.5 2.5t7 0.5t7.5 1q3 -4 10 -10t10 -12q0 -4 -2 -8q0 -5 -2 -9l-14 -14q-14 -5 -21.5 -3t-15.5 13q-1 1 -0.5 3.5t-1.5 4.5zM786 774v14q5 9 8 14t10.5 10t16.5 5q17 -5 23 -26l-6 -17l-17 -12h-22q-3 1 -5 3t-4.5 5t-3.5 4zM793 383v10q2 3 6 12.5 t8 12.5l12 6q17 0 23 -6q3 -4 8 -25q-2 -10 -14 -22q-15 -9 -31 0zM805 666v20l14 21l4 4q2 -2 4 -2q1 0 5 1t6 1h8q14 -7 18 -25l-6 -18q-1 -1 -2.5 -2t-2.5 -2t-1 -2q-3 -3 -7.5 -4l-9 -2t-6.5 -3q-9 2 -24 13zM815 518q0 4 1 12.5t1 12.5q13 14 25 16l20 -10 q6 -17 12 -33q-6 -9 -14 -12q-6 0 -10 -4h-12q-20 9 -23 18zM819 1395q4 12 4 20q4 13 19 19h14q17 -12 23 -21q-5 -20 -5 -24q-12 -12 -24 -17q-7 0 -19 4q-1 2 -4 5.5t-5 6.5t-3 7z" />
<glyph unicode="6" horiz-adv-x="1110" d="M186 733q6 24 25 33q16 -4 22 -4q0 -1 2.5 -3t2.5 -3l6 -8l-4 -19q-14 -17 -33 -20q-4 0 -4 4h-6q-11 9 -11 20zM188 854v25q11 20 27 24q18 -9 31 -22v-17q-8 -19 -19 -24q-12 0 -18 -2q-7 2 -21 16zM197 483q0 3 1 7t1 6q1 2 3.5 5t4 5t4 4.5t5.5 4t7 1.5q15 -3 27 -22 l-4 -23l-8 -8q-2 0 -5.5 -1t-5.5 -1l-8 4l-4 -2h-2l-14 8q0 4 -1 8zM197 616q0 2 1 7.5t1 7.5l2 2q11 8 17 10t22 0l6 -18v-23q-2 -1 -7 -5.5t-8 -6.5h-18l-12 8zM199 997v29q14 7 18 12q2 0 5 -1t5 -1q18 -14 23 -22v-15q-4 -8 -8 -12l-17 -12l-20 8zM205 1135 q-2 12 -1.5 16t5.5 16l6 7q12 4 14 4q5 0 13 -4l6 -9l14 -16v-12q0 -1 -1 -2t-1 -2q-7 -13 -16.5 -16t-24.5 3zM236 381q6 6 15 8t13 -2q21 -5 12 -41q-2 -4 -5.5 -6.5t-7.5 -4.5t-5 -3q-5 -1 -20 4q-20 10 -2 45zM252 1278q14 27 24 27h9q9 -3 18 -9q0 -2 4 -14 q-2 -10 -10 -25l-16 -6q-3 1 -7.5 4.5t-7.5 4.5q-3 10 -14 18zM313 254q0 5 -1 14.5t-0.5 13t4 8.5t10.5 9h16l2.5 -2.5t2.5 -3t2.5 -3t2.5 -3t2.5 -2.5t3.5 -2v-23q-2 -4 -5.5 -7.5t-8 -6t-6.5 -4.5h-8zM346 1366q1 3 1.5 7.5t1 6.5t1.5 4.5t2.5 4.5t3.5 4.5t6 5.5l13 4 q12 -3 22 -8q0 -5 4 -13v-10q-6 -12 -18 -18q-10 0 -14 2q-7 -2 -15 2q-2 0 -2 2zM350 776l6 19h-2q6 8 13 16h12q1 0 4.5 1t5.5 1q8 -5 11 -8.5t5.5 -10t2.5 -16.5q-2 -7 -13 -18q0 -4 2 -6l-2 -4q-4 -4 -18 -9q-2 0 -5.5 1t-4.5 1q-1 1 -3 4t-3.5 4.5t-4.5 0.5q0 3 -1 6.5 t-1 5.5zM408 207q2 4 2 14q6 12 12 15q6 0 8 2q8 0 12 2q3 -3 7.5 -6t9.5 -6t8 -5q2 -24 -23 -39q-22 -4 -34 11q0 8 -2 12zM461 1430q14 18 26 20q1 0 9 -2t12 -4q7 -5 12 -25q0 -12 -16 -22h-17l-8 4l-2 4t-2.5 3.5t-2.5 2t-3.5 2t-3.5 2.5q-4 8 -4 15zM498 831 q7 21 22 21h15q1 -1 4.5 -5t5 -6t3 -6t1.5 -7.5t-2 -8.5q0 -7 -19 -20h-18q-12 9 -12 32zM532 190q0 4 1.5 11.5t1.5 11.5l12 12q3 0 9 -1t9 -1q3 -2 6 -9t4 -9q10 -10 13 -15q2 -8 -6 -20q-1 0 -9 -4q-1 0 -3 1t-3 1q-5 -5 -6.5 -5t-7.5 3q-10 0 -14 4v4q-7 11 -7 16z M580 1421q0 4 2 8t5.5 8t4.5 7l20 10q4 0 11 -4.5t10 -5.5q4 -12 4 -14v-11q-16 -20 -35 -22l-16 4q-4 2 -3.5 9t-2.5 11zM621 813v25q5 5 14 8h16q3 0 11 -4l8 -8l8 -19q-4 -16 -27 -27h-6q-16 10 -24 25zM627 225q0 1 1 3t1 3v5q6 12 8 14q17 3 31 -2q1 0 2 1t2 1l2 -4 t2.5 -3.5t2.5 -2t3.5 -2t3.5 -2.5q7 -10 4 -19l-10 -8l-2 -2q-17 -5 -41 2q-6 4 -10 16zM686 1382q3 8 10 19q11 4 14 4t15 -4l10 -15v-12l-6 -16q-6 0 -10 -4h-10l-21 12v6q-2 4 -2 10zM723 291l12 18q2 3 8.5 5t8.5 3q13 -4 26 -14v-14l-12 -17l-6 -3t-7.5 -3t-7.5 0 q-4 3 -18 10v9q0 2 -4 6zM733 745q2 18 15 35h14q2 -1 6.5 -4t7.5 -2l6 -8q0 -17 4 -25l-6 -8l-12 -10h-20q-5 3 -15 22zM754 1290l8 10q11 7 37 0l6 -14q0 -4 -10 -24q-2 -1 -5 -2t-4.5 -2t-4.5 -1.5t-5 0.5q-8 6 -10 15l-8 6q0 4 -4 12zM776 1167v9v6q9 18 12 20 q12 5 23 -2.5t14 -17.5q3 -2 0.5 -12t-2.5 -11l-10 -10q-1 0 -4 -1t-4 -1q-17 4 -27 12q0 1 -1 3.5t-1 4.5zM797 639q2 2 2 8q0 1 -1 4t-1 4q7 9 20 19q6 1 14.5 -3.5t10.5 -4.5q3 -3 8 -13q0 -12 -14 -26q-17 -6 -23 -4q-1 3 -7 7.5t-9 8.5zM801 395q1 1 3.5 7t5 9.5 t5.5 4.5q22 0 33 -17v-18q0 -2 -4 -6l-2 -4q-9 2 -25 -2q-11 4 -14 8v8q-2 4 -2 10zM803 518q3 9 8 14q16 8 23 15q8 -4 12 -4q7 -15 10 -25l-2 -7t-4 -11l-16 -11q-18 -4 -27 11z" />
<glyph unicode="7" horiz-adv-x="962" d="M137 1333q0 3 1 5t3 4.5t3.5 3.5t4 3t3.5 3h20q8 -8 8 -11l6 -8q-2 -3 -3.5 -8t-2 -8.5t-2.5 -8t-4 -8.5l-10 -4q-1 0 -3.5 1t-4.5 1h-4q-4 2 -6 5t-4 7.5t-3 6.5q0 3 -1 8t-1 8zM252 1311v16q0 10 10 23l14 10q7 1 17 -4t10 -13q0 -10 -2 -14q0 -5 -2 -8t-5.5 -6.5 t-4.5 -5.5l-15 -9h-12q-6 3 -10 11zM256 215v18l12 21q2 0 6 1t7 1q1 -1 5.5 -2t6.5 -2q9 -12 12 -23v-12q-2 -8 -10 -16q-2 0 -6 -1t-6 -1q-3 0 -8.5 1t-8.5 1q-1 1 -10 14zM289 336l16 20l19 6h12q9 -3 14 -10q0 -3 1 -9t1 -9q0 -5 -1 -9t-4 -8t-4.5 -5.5l-5.5 -5.5l-5 -5 l-15 -4q-12 3 -17.5 7.5t-8.5 14.5q-1 3 -1 9t-1 8zM360 444v21l7 14q2 1 7 5.5t8.5 6.5t8.5 4.5t10 1.5t11 -5l4 -5q0 -4 4 -8v-18q-5 -13 -19 -27q-16 -6 -28 -4zM397 1311q-5 16 6 37q2 1 6 2t5 2h18l19 -13q8 -16 2 -22q-2 -7 -7.5 -14t-11.5 -7l-20 -6l-8 6zM424 596 q-3 3 -0.5 17t2.5 18l10 12q10 5 21.5 5t19.5 -13v-23q-8 -19 -18 -24q-3 0 -7.5 -1t-7.5 -1q-1 0 -5.5 1t-6.5 1zM492 774v2q0 13 12 25q3 0 9 3t7 3l21 -6q10 -10 12 -21v-6l-8 -16l-13 -10l-20 -7q-6 2 -12 6.5t-9 11.5t1 15zM514 1300v21q1 4 4.5 8t7.5 9t6 8h13 q20 -8 22 -23q-2 -11 -18 -31q-2 0 -12.5 -2.5t-16.5 -0.5t-6 11zM559 913l6 19q0 8 -2 12q0 1 -1 3t-1 3l14 11q3 1 6.5 1t6 -0.5t6.5 -2t6 -1.5q11 -8 14 -24q0 -22 -24 -39h-23q0 1 -6 10q0 4 -2 8zM625 1317q4 12 4 22q1 1 4 6.5t7 8.5t9 0l25 -11q6 -8 6 -26 q-1 -1 -5 -8.5t-9 -8.5q-2 -4 -5 -6t-7.5 -3.5t-6.5 -2.5q-11 4 -22 29zM643 1065q0 19 4 27v4q3 3 25 12q4 -4 12 -8q9 -20 6 -29q-2 -4 -2 -10l-16 -14h-17q-12 6 -12 18zM696 1188q-4 22 13 39q3 -3 14 2q16 -7 22 -12q0 -5 5 -15l-5 -14l-10 -6q-2 -4 -10 -8h-14 q-1 0 -3.5 1.5t-4 2.5t-3.5 2.5t-3 3.5t-1 4zM723 1317v10q7 18 20 25h17q13 -7 20 -25v-6l-10 -18q-4 -3 -6 -3l-8 -6h-13q-14 10 -20 23z" />
<glyph unicode="8" horiz-adv-x="1241" d="M180 504q0 4 4 12q12 12 25 12q12 -8 18 -10l4 -10q-6 -25 -26 -33q-25 0 -25 29zM180 629q-3 8 3 16.5t14 11.5q2 0 5.5 -1t4.5 -1h12q9 -6 12 -14v-6q-7 -13 -18 -19q-8 -4 -10 -8q-12 4 -13 4q-10 7 -10 17zM213 365q0 1 1 3t1 3q2 4 2 10l6 8l21 8q18 -6 22.5 -14 t-0.5 -27q-2 -3 -8 -7t-8 -7h-17q-4 4 -6 4q-10 15 -14 19zM229 766q-2 10 2 22q8 11 27 15q1 0 6.5 -2t7.5 -4l13 -15q0 -4 -4 -24q0 -1 -3 -3.5t-7 -5.5t-5 -4q-5 -1 -7.5 0t-7 2t-7.5 1q-3 3 -8 9.5t-7 8.5zM301 1167v9q6 14 16 16q1 0 3.5 -1t3.5 -1l6 6l4 -2 q0 -3 1.5 -4.5t4.5 -3t4 -2.5q7 -10 4 -21q-3 -2 -7 -5t-7 -4.5t-7 -3t-8 -1.5l-12 6q0 1 -1 3t-1 3q-4 4 -4 6zM307 262v4q0 1 1.5 5.5t2 7t2 6t4 5t5.5 1.5l12 6l24 -10l9 -13v-18q-1 -1 -5 -8t-8 -10t-10 -5h-10q-9 8 -21 21q0 1 -1 3t-1 3q-2 2 -4 2zM313 1282l9 14h6 l14 7l18 -13q0 -4 -2 -6q4 -4 4 -8v-4q-3 -10 -16 -17q-6 0 -10 -2q-18 7 -23 29zM336 852q5 16 10 22l19 9q3 0 7.5 -1t6.5 -1l10 -7q7 -10 4 -20l-3 -5t-3.5 -6t-3.5 -4.5t-4.5 -5t-5 -3.5t-6.5 -3h-15q-7 7 -16 25zM336 1077q0 3 1 4.5t3 2.5l2 1q1 1 1.5 5.5t2.5 5.5 q2 0 4 2.5t4 3.5q2 -1 4.5 -2t5 -1h5t4.5 -1q17 -6 8 -33l-12 -12h-15q-6 6 -12 8zM373 1368v18q14 14 26 19l15 -8q2 -2 3 -4.5t1.5 -6.5t1.5 -6q-3 -7 -6 -11t-6 -6t-11 -7h-10q-9 5 -14 12zM397 971q1 2 3 7.5t4 9.5t6 7q4 0 16 4q3 -3 11.5 -5.5t11.5 -6.5v-20 q-6 -10 -23 -23l-20 12q-1 1 -4.5 6.5t-4.5 8.5zM442 203v16q11 13 21 19h10q16 -11 21 -17q2 -7 2.5 -12t-0.5 -7t-3 -7.5t-4 -10.5q-17 -11 -24 -10l-14 6l-5 6q0 2 -1 6.5t-1 6.5q0 4 -2 4zM455 1460q0 1 2.5 5.5t4 6t4.5 3.5t7 2q3 0 5 1t4 2.5t3 2.5v-6l17 -15l4 -16 l-8 -12q-1 0 -8.5 -4.5t-12.5 -4.5q-2 3 -9 8t-9 9zM522 922q-4 25 4 39q1 0 4.5 2t4.5 2q4 1 9.5 0t8.5 0q7 -4 14.5 -13.5t3.5 -17.5l-6 -14q-3 -3 -7 -4.5t-8.5 -3t-6.5 -3.5q-12 0 -21 13zM580 172v23q0 2 4 6q0 4 2 8q4 -1 11 0.5t9 -0.5q12 -6 15.5 -9t9.5 -12 q-1 -5 -4 -11.5t-4 -8.5l-19 -12q-6 0 -8 2q-1 0 -4 1t-4 1zM580 1454q-2 11 0.5 22t9.5 15h12l12 -6l9 -15q1 -4 1.5 -7.5t-1 -7.5t-2 -5.5t-3.5 -5t-3.5 -4l-4.5 -4.5q-2 0 -8.5 2.5t-11.5 1.5q-4 3 -10 14zM664 981q2 3 4 5.5t5 4t4.5 2t5.5 1.5t5 1q15 0 27 -12t8 -27 q0 -3 -12 -18q-2 0 -8 -1t-9 -1q-2 0 -6.5 1t-7.5 1q-16 16 -16 43zM696 213q3 17 13 20q3 0 6 3q2 0 4.5 1t3.5 1q7 -3 16.5 -9.5t14.5 -9.5v-18q-5 -8 -27 -17q-3 0 -7.5 1t-6.5 1q-2 2 -2 4q-1 1 -6 10t-9 13zM696 1419v8q-4 8 0 23q2 5 5 7.5t10.5 5.5l7.5 3l6 -4 q12 0 23 -22q0 -14 -11 -26t-26 -5q-1 0 -7.5 4.5t-7.5 5.5zM739 1067v23q2 1 6 6t5 6q12 2 24 -10l4 -15q0 -1 -1 -3.5t-1 -4.5q-2 -2 -2 -6l-10 -6h-6q-11 7 -19 10zM770 852q-3 22 14 29q4 1 10 -0.5t7 -1.5q4 0 6 2l12 -4q0 -1 4 -8.5t4 -12.5q0 -8 -6.5 -14t-15.5 -8 h-17h-6q-2 2 -2 6q-8 8 -10 12zM772 1364l6 16l17 15q2 -2 4 -2q1 0 3 1t3 1q4 0 12 -4l12 -23q-14 -26 -34 -31q-3 0 -17 11zM784 1155q0 13 13 23h20q12 -6 21 -15v-18q-1 -1 -4.5 -2.5t-5 -3t-3.5 -4t-2 -5.5h-2q-2 1 -6 1t-6 2q-4 0 -12 4zM795 1262v8q2 2 2 6 q4 7 6 9.5t10 6.5q2 -2 8 -2.5t8 -1.5l13 -12q-7 -20 -17 -33h-14q-7 4 -9 6.5t-7 12.5zM799 270v13q3 7 10 10q1 0 2.5 1t3.5 2.5t4 2.5l6 -4l11 6h2q10 -7 16 -18v-15q-9 -9 -18 -12q-13 -2 -17.5 -1t-13.5 5zM827 743q3 14 13 31l12 8l6 -4q3 0 6 -2t5 -4l5.5 -5.5 l4.5 -4.5v-19q-3 -3 -6.5 -6t-7.5 -6t-7 -6q-8 0 -10 -2l-19 12q0 4 -2 8zM872 385q0 12 15 33q4 0 6 2q4 0 6 2q1 -1 4.5 -2t5.5 -2l15 -17v-12q-3 -15 -23 -22q-7 0 -10.5 0.5t-7 2.5t-6 5.5t-5.5 9.5zM874 627q0 16 9 28q15 5 20 4l21 -10l8 -8q0 -4 4 -12 q-1 -2 -3.5 -9.5t-6.5 -11.5q-8 -6 -29 -6q-4 2 -9 6t-9 9.5t-5 9.5zM893 506q5 16 18 26h11q16 -4 24 -12q0 -3 -1 -8t-1 -8l-10 -15q-3 0 -8.5 -3t-7.5 -3h-11q-2 1 -12 11q0 3 -1 6.5t-1 5.5z" />
<glyph unicode="9" horiz-adv-x="1163" d="M207 1092q1 3 6 8.5t6 9.5l17 8l18 -10l6 -10v-19l-6 -16q-3 -1 -8 -4t-6 -4h-15l-14 6q-5 25 -4 31zM219 926q-3 1 -1.5 16t1.5 16q12 16 27 21h12l12 -8q0 -4 4 -8v-13q-2 -18 -26 -32h-15zM242 1237q8 12 10 18l10 11q2 -2 4 -2q1 0 4 1t4 1q9 -3 18 -14.5t9 -22.5 q0 -20 -22 -29h-21q-3 6 -12 12q-6 17 -4 25zM279 340q2 4 2 10v10l12 17l12 6q12 -8 21 -6q2 -2 3 -4.5t1.5 -6.5t1.5 -6l-4 -4q0 -19 -21 -32q-2 0 -6 -1t-6 -1q-1 1 -4 2.5t-4.5 4t-1.5 5.5zM289 819v27q2 8 14 20q4 -2 12 -2h11q21 -9 24 -28q0 -2 -1 -6.5t-1 -6.5 q-3 -6 -13 -11.5t-13 -8.5l-11 4h-10zM311 240l13 26l6 6h12l12 -10l13 -20v-11q-3 -4 -7 -7.5t-11 -7.5t-9 -5q-4 1 -10 4l-8 4q-2 2 -3 4l-2 4l-2 4t-2 4.5t-2 4.5zM324 1348v12q4 8 18 22q13 5 27 -4q9 -12 18 -18q0 -2 1 -4.5t1 -3.5q2 -4 2 -13q-1 -4 -4 -7.5t-5 -5 t-7 -5t-6 -4.5h-21q-14 9 -24 31zM403 774q4 18 17 29q22 4 47 -12v-19q-11 -15 -45 -20q-9 3 -16 10q0 2 -1.5 6t-1.5 6zM410 168q1 3 0 9.5t0 10.5q4 0 4 7l4 10q4 0 13 1.5t15 0.5q9 -4 17 -21q3 -17 -8 -28q-16 -4 -28 -2.5t-17 12.5zM473 1384q1 3 -0.5 12.5t0.5 12.5 l10 14q14 9 19 11q4 -2 16 -2q6 0 14 -19q0 -6 -2 -8q0 -3 -1 -5.5t-2 -4.5t-3 -4t-4 -3t-5 -3t-4.5 -2.5t-4.5 -2.5t-4 -2q-21 0 -29 6zM512 745q0 22 6 31l10 8h17q16 -8 20 -20v-12q0 -3 -1.5 -5.5t-4.5 -6t-4 -5.5l-20 -6q-2 2 -11 6t-12 10zM518 154l6 28q12 16 25 21 q16 0 29 -10q3 -4 3.5 -13t2.5 -12q-1 -4 -3 -9t-5.5 -10.5t-4.5 -7.5l-16 -8q-3 -1 -11.5 -1.5t-11.5 -2.5q-1 1 -2.5 2t-2.5 2t-1 2q-3 5 -8 19zM604 1403q15 22 27 22q4 0 16 -4q0 -8 17 -14q0 -2 4 -10v-15l-11 -14q-1 -2 -6 -5t-6 -5q-12 0 -18 -2l-11 6q-12 14 -12 41 zM659 195q-1 3 -0.5 7t1.5 6.5t2 6.5t2 6q4 7 18 17q3 1 9.5 -0.5t8.5 -1.5q3 -1 5 -2.5t4 -3.5t4 -3q8 -8 10 -14q0 -16 -12 -25q-16 -8 -31 -8l-6 6h-10q0 4 -5 9zM666 776v25q2 2 4 6.5t3.5 7.5t5 6.5t7.5 5.5h16l13 -6l8 -8q4 -20 2 -29q0 -7 -11 -13.5t-20 -8.5 q-4 0 -16 4q-5 0 -12 10zM737 1311v24q3 3 8 13l11 6h8l8 8l16 -14q2 -6 11 -25v-16l-13 -13q-12 -4 -18 -8h-8q-17 9 -23 25zM760 285q-3 12 4 26l18 11h13l14 -9q3 -3 4 -6.5t1.5 -7.5t2.5 -6q-3 -17 -17.5 -29t-31.5 -4q-8 8 -8 25zM786 446q7 20 25 25h14q8 -8 21 -10 v-4l2 -4q0 -3 4 -7q0 -2 -4 -6q0 -2 2 -4q-5 -13 -25 -18q-3 0 -8 1t-8 1l-18 12zM799 707l8 16q23 10 27 14h10l4 -5t5.5 -7t3 -6.5t1.5 -9.5l-14 -19l-17 -4h-14q-3 2 -5.5 5t-5.5 9t-3 7zM805 573q-3 10 4 27l14 10h15l3 -2t4 -2.5t3.5 -2t3 -2.5t2.5 -3t2.5 -3.5t1 -4 t0.5 -4.5q1 -1 2 -5t2 -6l-4 -6l-4 -4q0 -4 -2 -4q-2 -4 -4.5 -6t-7.5 -4.5t-6 -3.5h-15q-2 1 -14 26zM805 1198q-9 25 12 43l8 4h11l2 -2l16 -14q0 -2 2 -4v-17q-4 -6 -12.5 -12.5t-9.5 -7.5h-19zM817 803q-2 6 0.5 14t1.5 10q8 10 21 17q9 -6 22 -6q2 0 2 -2q6 -18 8 -21 q-14 -14 -32 -20h-13zM823 1079q0 1 3 6.5t3 8.5q9 5 23 8q2 0 6 -4q1 0 2.5 1t3.5 1l13 -15q0 -31 -27 -36q-1 0 -2 -0.5t-2.5 -1t-3.5 -0.5q-1 1 -3.5 2t-3 1t-2 1t-2 2t-2 2t-2 2.5t-1 3.5t-1 4.5t-1 6t-1.5 7.5zM829 936v4q4 22 7 27l10 8q5 1 7.5 0.5t7 -3t7.5 -3.5 q11 -7 15 -27q-2 -1 -11 -16q0 -1 1 -3t1 -3q-1 0 -2 -2t-2 -3q-5 5 -6 5h-12l-18 6z" />
<glyph unicode=":" horiz-adv-x="505" d="M170 248v24q10 26 31 29q3 -2 8 -2.5t9 -1.5t7 -4l2 -2l15 -23v-5t-1.5 -3.5t-2.5 -3.5q0 -2 -1 -6t-1 -6q-15 -15 -19 -15h-29q-11 6 -18 19zM184 705q12 34 54 26q4 -1 6.5 -4t3.5 -5.5t3 -6.5l3 -6l-6 -17q-7 -10 -21 -20q-5 -2 -15 2t-15 4q-1 2 -4 4l-3 2z" />
<glyph unicode=";" horiz-adv-x="499" d="M178 256q-1 4 -1 9.5t0.5 12.5t0.5 11l12 26q2 2 9 6t8 5h20q10 -6 23 -23q3 -17 0 -35q-15 -19 -29 -28h-24q-8 4 -9 4l-4 4zM178 692q-1 5 2.5 15t3.5 14l23 14q25 -9 35 -18l8 -17q-8 -23 -19 -34q-3 -1 -9.5 -5t-12.5 -4q0 1 -3 3q-1 1 -1.5 1t-1.5 1q-10 0 -25 30z " />
<glyph unicode="&#x3c;" horiz-adv-x="851" d="M203 805v33q1 2 4 7.5t5 8.5t5.5 6.5t7.5 5.5h4q10 0 18.5 -6t10.5 -14q0 -4 4 -8v-15q-3 -5 -7 -10t-10.5 -10.5t-8.5 -7.5h-21q-8 3 -12 10zM262 717q7 10 29 28q2 0 6 1.5t6 1.5q3 0 8 -1.5t8 -1.5q6 -6 7 -6q4 -6 4 -18q-17 -29 -31 -35h-18q-9 2 -17 14q-1 3 -1 9 t-1 8zM293 944q0 5 8 29q7 10 21 20q17 -7 22 -12q12 -9 8 -23l-6 -22q-3 -4 -10.5 -7.5t-9.5 -6.5h-15q-3 1 -5.5 2.5t-4.5 4.5l-3 4.5t-2.5 5.5t-2.5 5zM334 618q1 2 6 10.5t10 12.5l12 6l15 -6l10 -10q5 -13 2 -27q-2 -2 -6 -7t-7 -8t-7.5 -6.5t-9.5 -5.5t-11 -2 q-4 1 -12 13q-1 4 -1 14.5t-1 15.5zM389 535q9 15 23 12q23 -8 37 -35q-10 -18 -27 -25h-8q-18 4 -23 17q-2 8 -2 31zM397 1028q-4 18 0 29l4 6q6 4 31 4q5 -2 7.5 -5t6 -8.5t3.5 -6.5l-7 -21l-12 -12q-8 0 -10 -2q-2 1 -5 2t-5.5 2.5l-5 3t-4.5 3.5t-3 5zM451 403v7 q0 21 4 26q2 2 2 13l14 12l12 -6q2 0 5.5 -5t6 -10t3.5 -8v-22q-4 -11 -23 -21h-8q-8 5 -16 14zM473 1139q0 4 1 10.5t1 9.5q8 16 17 23h30q4 -2 6 -4.5t4 -6.5l3 -6v-14q-1 -4 -4 -9t-8 -12t-9.5 -9t-9.5 1q-12 4 -19 4q-5 3 -12 13z" />
<glyph unicode="=" horiz-adv-x="847" d="M199 555q-3 7 4 14q6 9 18 17q11 0 41 -15q2 -4 2 -24l-8 -12l-12 -7q-6 -2 -17 -2q-4 4 -10 4q-12 8 -14 15q-1 2 -2 5.5t-2 4.5zM199 930v18q1 3 2 5t3 3.5t4 2.5t4.5 2.5t4.5 2t5 1.5t5 2q25 -6 25 -15v-22q-3 -9 -23 -17h-14q-10 5 -16 17zM311 924v18l8 16q6 4 21 9 l18 -6q2 -2 3 -5t2.5 -6.5t3.5 -5.5v-14q-6 -11 -17 -17q-13 -3 -24 0t-15 11zM313 553v16q4 12 11 17h18q2 -1 8.5 -3t11.5 -5t9 -7l6 -12q-4 -8 -4 -12q-6 -11 -17 -15q-22 0 -43 21zM428 557q1 2 2.5 6t3 6.5t3.5 5.5t5 5l17 6h6q22 -11 29 -23v-20q-8 -13 -15 -17 q-11 -3 -22 0l-6 3l-5 2.5t-3.5 2t-3 2l-2.5 2.5t-2.5 3l-2 4t-2.5 5.5t-2 6.5zM428 924v8l8 14q26 10 51 2q10 -10 7 -24l-9 -15l-18 -6q-28 0 -39 21zM537 553q0 17 13 25.5t30 1.5h6q12 -10 16 -17v-20q-6 -25 -49 -11q-10 2 -16 21zM549 924v18q7 15 16 19h21 q9 -4 10.5 -13t-0.5 -26q-1 -1 -4.5 -5t-5.5 -6t-5.5 -3.5t-7.5 -0.5q-20 8 -24 17z" />
<glyph unicode="&#x3e;" horiz-adv-x="862" d="M246 1155q3 5 9.5 15t8.5 14q2 0 5.5 1t4.5 1q19 -6 31 -21q0 -8 2 -10q-4 -21 -18 -33q-3 -2 -11.5 -5t-11.5 -5q-12 8 -18 14q-2 4 -1.5 13.5t-0.5 15.5zM248 406q0 2 1 6t1 6q3 13 14 18l21 -4l8 -8q4 -20 2 -35l-14 -10q-3 0 -9.5 -1t-9.5 -1q-9 0 -13.5 10t-0.5 19z M313 1022q6 29 19 35h12q20 -3 31 -17q4 -12 2 -20l-6 -8l-13 -13q-2 0 -5 -1t-5 -1q-8 0 -14 -2q-18 14 -21 27zM330 494q3 9 12 12q8 0 12 2h17q8 -2 20 -14q0 -11 2 -15q-3 -7 -20 -24l-15 -9q-10 0 -16 -2q-7 7 -8 7q0 2 -1 4.5t-1 3.5q0 5 -1 17t-1 18zM389 897 q2 12 17 23q0 2 4 2q2 2 8 2q6 -3 12 -7.5t14 -11.5t11 -10v-18q-1 -4 -4 -8t-5.5 -5.5t-7.5 -5t-6 -4.5q-8 4 -20 0q-17 4 -21 12q-2 5 -2 31zM410 557l6 25q8 16 35 16q14 -7 22 -18q2 -6 2 -19q-16 -21 -26 -29q-14 3 -31 13zM459 766v12l12 21q10 5 14 6t11 1t14 -5 q3 -1 5 -3.5t4 -7t3 -6.5q0 -19 -22 -34q-4 0 -11.5 -1t-11.5 -1q-1 0 -4.5 1.5t-5.5 2.5t-4 2.5t-2 3.5q-2 2 -2 8zM514 690l6 10q1 0 3 1t3 1q3 0 8 1.5t7 1.5h16q15 -10 23 -27q-4 -26 -9 -35q-3 -3 -28 -18q-3 2 -6 3t-6 1.5t-5 1.5l-8 8q-2 10 -2.5 28t-1.5 23z" />
<glyph unicode="?" horiz-adv-x="919" d="M172 1274l10 8q12 5 23 -6q5 -3 8 -8q0 -21 -20 -33q-7 0 -19 12q-5 11 -2 27zM229 1343q7 13 17 21h14q1 0 5 -2t6.5 -3.5t5 -4t2.5 -4.5q3 -10 0 -23q-4 -9 -19 -14q-14 0 -29 10q0 14 -2 20zM346 1368q1 3 2.5 10t3.5 13t6 10l13 8q8 2 20 2q13 -6 19 -16v-15l-13 -22 q-3 -1 -8 -4.5t-6 -3.5q-8 -2 -18 -2q-4 1 -7 3t-4.5 4l-3 4t-2.5 5t-2 4zM360 553q-4 17 -1 27.5t16 17.5h8q14 -6 20 -20q3 -3 3 -9q-7 -9 -10 -12.5t-12 -8t-17 -1.5zM360 696q3 12 17 19h8q25 -10 25 -41q-5 -21 -37 -21q-2 1 -4 2.5t-3 3t-2 3.5l-2 4t-1 4.5t-0.5 4.5 t-0.5 5v5v5.5v5.5zM365 205v18q2 9 12 19q6 2 16 2q2 -1 6.5 -3.5t7.5 -4.5t5 -5v-24q0 -10 -15 -17q-5 -2 -12.5 2t-11.5 3zM406 791q6 2 14 10h14q1 0 3 -1t3 -1q14 -10 19 -21q0 -1 1 -4t1 -4q-10 -19 -19 -25q-5 -1 -26 3l-8 6q-4 24 -2 37zM459 1364v16q1 1 3 9t5 11.5 t8 6.5h14q11 -6 21 -19.5t0 -23.5l-18 -16h-15q-11 3 -18 16zM481 862q1 1 3 6t3.5 7.5t4 6t6.5 5.5h6q10 0 14 2q11 -9 17 -17q0 -4 1 -12.5t1 -11.5q-5 -13 -17 -21h-20q-11 7 -15 13.5t-4 21.5zM569 1319v14q10 13 21 13q8 4 10 4q27 -14 23 -31q-4 -10 -21 -23h-14 q-4 1 -7 4t-4.5 5.5t-4 7t-3.5 6.5zM575 971q2 4 5 7t7.5 7t6.5 6l20 -4l9 -10l6 -21q-8 -20 -21 -28h-14q-11 4 -16.5 16t-2.5 27zM614 1225q5 10 17 18q28 0 45 -20v-15q-3 -8 -10 -12l-23 -12q-2 -1 -4 -1t-4 0.5t-4 1.5l-3 1.5t-3 2t-3 2.5t-3 2.5t-3 2.5q-2 10 -2 29z M618 1104q7 12 23 24h8l2.5 -2.5t3.5 -3l4 -3t4 -2.5t3 -1q2 -6 2 -16l4 -13q-13 -13 -27 -18q-4 0 -8 -2l-16 12q-3 12 -3 25z" />
<glyph unicode="@" horiz-adv-x="1884" d="M156 772q2 2 2 6l22 15q14 -3 21 -13q2 -8 2 -22q-5 -10 -19 -17q-1 0 -4.5 -1t-5.5 -1q-30 8 -16 29zM166 623q0 3 3.5 10.5t2.5 13.5l10 8q1 0 3 1t3 1q2 0 7.5 -1t7.5 -1l14 -6q9 -18 8 -24q-5 -11 -20 -23h-21q-9 4 -18 21zM166 930q0 1 1.5 3.5t2.5 3.5t2.5 3.5 t2.5 3t2.5 2.5t3.5 2.5l4 1t5 0.5t5.5 -1.5t6 -4.5t5.5 -4l6 -16q-3 -13 -8.5 -18t-18.5 -5q-20 0 -20 29zM207 1053q0 3 1 7.5t1 6.5q7 13 16 18h15q16 -8 10 -38l-14 -15q-10 -1 -19.5 5.5t-9.5 15.5zM213 473v23q4 2 12 10h21q1 -1 4.5 -4t5.5 -5t4.5 -5.5t2 -6.5 t-2.5 -8q-2 -6 -14 -14h-21q-4 2 -12 10zM252 350q12 36 39 27q2 -2 6.5 -4t8 -4.5t5.5 -6.5l4 -12q-4 -13 -20 -20h-21q-1 0 -3 1t-3 1zM262 1188v12q6 12 14 17l21 6q7 -10 14 -15v-14q-6 -11 -14 -14.5t-25 -3.5q-9 9 -10 12zM336 262v6q8 23 20 31q14 4 25 -2l12 -16 q3 -14 -2 -19q-7 -12 -24 -22h-7q-4 0 -9.5 3t-6.5 3q0 2 -2 2zM342 1321q12 28 25 41q8 3 14 0l14 -23v-14q-2 -2 -11.5 -13t-16.5 -16h-15q-13 15 -10 25zM420 215q5 11 20 23q6 1 14 -3t11 -4q9 -6 12 -20l-4 -18l-20 -13q-16 4 -25 13q-6 18 -8 22zM444 1430v2l19 24 q0 1 6 4h18q14 -7 17 -18l-8 -17l-17 -18q-21 -4 -30 0q-9 7 -5 23zM522 129v27q10 21 27 32q5 2 12 -2q10 -10 10 -18q0 -2 4 -10l13 -27q-4 -18 -15 -25q-4 0 -16 -4q-6 2 -25 11q-2 2 -3.5 4.5t-3 6t-3.5 5.5zM627 745v15q0 2 2.5 6t5.5 8.5t4 5.5q11 6 25 2q4 -2 6.5 -5 t4.5 -9t3 -8v-15q-5 -16 -25 -20q-22 9 -26 20zM627 864l12 25l14 8h15q5 -2 7.5 -4.5t6 -8t4.5 -7.5q-9 -21 -22 -27q-14 -3 -27 0q-3 1 -6 7t-4 7zM629 1460q-19 10 -13 31.5t27 21.5h19q3 -1 5 -2.5t4 -4t3.5 -5t3 -5.5l2.5 -5v-8q-3 -3 -7 -8t-8 -8.5t-8 -6.5h-28z M643 102q2 1 5.5 5.5t4.5 5.5h19l18 -9q8 -8 15 -22q0 -1 -1.5 -4.5t-1.5 -5.5l-14 -15h-20q-10 5 -15.5 9t-9 13.5t-0.5 22.5zM655 618v21q4 6 25 16q8 -4 10 -4q6 -3 9.5 -7t5 -6.5t4.5 -10.5q0 -1 -1 -4t-1 -5q-3 -6 -6.5 -9.5t-10.5 -7t-10 -5.5q-18 6 -25 22zM674 969 q6 22 22 30h23q8 -8 12 -10q9 -13 -6 -28l-14 -9q-1 1 -5 2t-6 2q-4 -4 -6 -4q-8 -2 -14 3t-6 14zM713 520q5 24 12 33h18l19 -16q1 -5 4 -12t4 -9q-12 -24 -37 -16q-1 0 -3 1t-3 1zM745 63v9q4 9 19 16q15 0 29 -5.5t14 -16.5v-9q-2 -6 -10 -10q-14 -11 -30 -4t-22 20z M772 1505q4 6 4 23q3 7 10 10h15q17 -10 24 -22v-15q-2 -3 -5.5 -6t-6.5 -4.5t-7.5 -3t-6.5 -2.5q-11 2 -20.5 7.5t-6.5 12.5zM776 1059q4 2 9 7t8 7h2q26 -13 34 -29q1 -4 -2.5 -9t-3.5 -7q-4 -2 -7 -3t-6 -1.5t-5 -1.5q-5 0 -21 4l-6 8q-2 4 -1.5 12.5t-0.5 12.5zM825 489 l13 23q10 20 26 4q10 -7 15 -16v-19q-5 -15 -27 -22q-12 4 -18 4q-12 9 -9 26zM866 1049q0 2 2 2q8 17 21 28h8q10 -5 16 -14q4 -17 2 -23q-2 -5 -5 -8t-9.5 -5t-7.5 -3h-16q-11 7 -11 23zM885 37v14q3 6 16 19q19 0 23 -2l10 -15q0 -2 -6 -20l-13 -15h-6q-10 5 -24 19z M928 1513q4 8 4 13q2 6 2 14q4 8 16 16h8q2 -1 7.5 -3t9 -4.5t6.5 -6.5l4 -18q0 -21 -31 -33q-6 0 -10.5 2.5t-6 4.5t-5 7.5t-4.5 7.5zM950 481q0 13 2 21q12 16 25 14l14 -6l10 -16q0 -3 -1 -10.5t-1 -10.5q-7 -10 -36 -10q-13 7 -13 18zM973 997q-7 14 4 43q1 0 3.5 1 t4.5 1q11 3 25 0l6 -6q3 -7 3.5 -13t-2.5 -11.5t-5.5 -8.5t-7.5 -8q-7 0 -19 -4zM987 31q0 18 4 26.5t15 12.5h14q10 -12 13 -24.5t-7 -22.5q-25 -6 -39 8zM1042 571q9 19 19 25q25 0 35 -25v-12q0 -11 -27 -18q-3 0 -18 10q-4 13 -9 20zM1049 934v16q2 11 16 21h14 q2 -2 6 -2l4 -4l2.5 -2.5l2 -2t2 -2.5l1.5 -3t2 -4.5t3 -6.5q-2 -6 -4.5 -9.5t-9 -9.5t-7.5 -7h-6q-8 4 -14 4q-6 3 -12 12zM1073 1493q1 3 4 11.5t2 13.5q7 4 25 4q7 -4 16 -17v-10q-5 -11 -16 -16h-19q-5 2 -8 7.5t-4 6.5zM1079 672q-3 14 2 30l13 15h16q14 -5 25 -25 q0 -3 -1 -9t-1 -9q-5 -10 -25 -17q-2 1 -8.5 3t-11.5 5t-9 7zM1085 811q-1 6 3 15t4 10q9 3 14 8h14q11 -6 19 -17v-22q-10 -20 -45 -8zM1104 39v8q1 3 4 8t4 6l18 7l15 -7q8 -12 10 -18q-6 -22 -20 -27l-23 7q-4 4 -8 16zM1171 1487q9 16 21 20q3 1 5.5 0t5.5 -3t5 -3 l13 -10q5 -10 2 -23l-6 -6q-5 -2 -25 -2q-4 3 -7.5 7.5t-7.5 10.5zM1178 592q0 1 1 4t1 4v6q0 1 -1 3t-1 3q1 2 4 7t5 7t6.5 4.5t10.5 2.5q7 -3 21 -17v-26q-1 -4 -4.5 -6.5t-5.5 -4t-7 -3.5t-6 -3q-2 -1 -9 1.5t-9 -1.5zM1210 72q17 17 25 22h25q8 -4 14.5 -14t3.5 -19 q-6 -12 -31 -20h-12q-7 0 -23 14q0 11 -2 17zM1255 549q14 27 25 33l23 -7q3 -7 10 -10l2 -4v-16l-15 -15q-12 -4 -36 0q-3 2 -4.5 9.5t-4.5 9.5zM1296 1421v21l9 16l14 8q6 -2 18 -14q4 -10 0 -29q-1 -3 -2.5 -5t-4 -4t-4 -2.5t-5 -2t-4.5 -2.5q-14 0 -21 14zM1339 115 q11 15 21 20q4 0 12 -4l31 -33q0 -4 -10 -14l-29 -8l-16 6q-13 10 -9 33zM1376 1362v22q4 9 12.5 14t16.5 1h4q9 -6 18 -27q-11 -22 -14 -26h-18q-12 2 -19 16zM1380 520v15q7 11 21 22q16 -4 24 -4q21 -14 15 -33q-2 -4 -5.5 -6.5t-8.5 -4.5t-7 -3h-22zM1448 150 q8 20 20 28q7 0 19 4q17 -9 20 -14v-8v-13q-7 -21 -28 -28l-23 6q-11 8 -8 25zM1479 1278q8 25 22 31h15l14 -9l8 -14v-20q-1 -1 -2.5 -5t-2.5 -6t-3.5 -4t-5.5 -2h-37q-8 8 -8 29zM1489 596q0 36 16 47h8q16 -6 25 -22v-21q-12 -17 -27 -20q-12 4 -18 4q-4 8 -4 12z M1550 707v34q11 18 23 23q16 -3 24 -14v-2q2 -8 2 -27q-5 -5 -8 -14l-16 -9h-16zM1550 1124l11 9q2 0 6 1t6 1q20 -10 24 -17q1 -5 1.5 -9.5t-0.5 -8t-2.5 -5.5t-4 -4t-4.5 -3.5t-5 -3.5t-5 -3q-10 -3 -20.5 13.5t-6.5 29.5zM1569 195v8q6 15 24 24h17q12 -6 18 -18v-14 q-7 -18 -22 -21l-23 6l-8 4zM1569 852q-1 3 -1 6.5t0.5 8t0.5 7.5l8 15q3 2 11 2.5t11 1.5q16 -9 21 -23q0 -8 -5.5 -14.5t-12 -10.5t-13.5 -5q-1 0 -9.5 3.5t-10.5 8.5zM1575 975v16q11 15 22 23h15q9 -4 16 -19v-14q-12 -23 -37 -23q-10 5 -16 17z" />
<glyph unicode="A" horiz-adv-x="1335" d="M201 223v23q13 33 30 33q5 0 9 -1.5t7 -3.5t6.5 -6t4.5 -6t4 -7.5t4 -6.5q3 -16 0 -29l-12 -14q-8 -2 -21 -2q-21 6 -32 20zM248 403q18 23 26 29q2 0 6.5 1t6.5 1q8 0 13 -3.5t7.5 -7.5t5.5 -13v-15q-6 -12 -26 -28h-21q-18 4 -18 36zM281 528q1 3 1.5 8.5t1.5 11t3 9.5 l12 18q2 2 4.5 2.5t5.5 1t4 1.5q2 0 6.5 1t6.5 1q8 -8 18 -13l6 -14q2 -14 -4.5 -28t-17.5 -21q-16 -3 -33 0q-10 10 -14 22zM334 674v24q7 15 16 19h12l13.5 -9t8 -10.5t3.5 -17.5q-6 -20 -22 -29h-9q-15 3 -22 23zM352 827q-1 0 -0.5 8.5l0.5 8.5l6 16q12 17 27 19 q1 -1 11 -4t14 -9l6 -16v-12q-5 -13 -21 -25q-9 -2 -28 2l-9 6zM383 977q0 6 2 10q0 1 -1 3t-1 3q5 5 12 19l23 6q25 -6 28 -29q-8 -25 -18 -35l-16 -6l-17 6q-4 3 -6 6.5t-3.5 8.5t-2.5 8zM434 541q0 4 1 10.5t1 9.5q8 13 21 23q12 3 24 0q12 -7 21 -29q1 -7 -3 -19.5 t-5 -15.5q-2 -2 -6 -3l-8 -2t-7 -3h-20l-2 2l-9 6t-5.5 7.5t-2.5 13.5zM455 1143q-4 7 0 22q11 19 26 21q2 0 6 -1t5 -1q10 -2 13 -8.5t3 -18.5q-10 -19 -16 -22h-19l-8 4q-2 0 -10 4zM485 1300q-3 19 7 39l3.5 4t6 6t6.5 3l16 -6l19 -21q0 -1 1 -4t1 -4v-8q-10 -16 -23 -29 h-20q-9 4 -17 20zM551 539l6 22l8 17l13 12q14 3 30 0l13 -12q2 -4 2 -21v-6q-18 -27 -29 -33h-27q-13 5 -16 21zM592 1417v15q3 3 8 11t8 11q27 -5 27 -24v-19q-7 -10 -8 -10l-9 -6h-2q-8 -2 -16 6q-4 12 -8 16zM647 1319q7 27 21 27q8 4 16 4q19 -5 25.5 -20.5t-4.5 -33.5 q-11 -11 -21 -16h-18q-19 5 -19 39zM678 528v17q7 24 18 33q16 6 30 2.5t19 -17.5l5 -8v-12l-5 -8l-4 -11l-12 -12q-8 0 -24 -4q-1 0 -4.5 1t-4 1.5t-3.5 1.5t-3.5 1.5t-2.5 1.5t-3 2.5t-2.5 3t-2 3.5t-1.5 4zM705 1167q5 24 14 33q1 0 2.5 1t3.5 2.5t4 2.5q3 1 8 0t7 -2 t7 -3t7 -3l10 -14v-33q-13 -17 -23 -23h-8q-7 0 -12 4.5t-9 12t-7 10.5q-4 4 -4 12zM748 1028q0 21 12 33h22q8 -3 19 -10l10 -19v-8q0 -12 -2 -18l-12 -15q-16 -8 -25 -8q-24 12 -24 45zM774 864v15l8 18q1 1 4.5 3.5t6 5t4.5 5.5h20l17 -14q0 -6 2 -8q0 -19 -2 -31 l-15 -12q-5 -2 -26 -2q-4 1 -6.5 3.5t-4 4.5l-4.5 6t-4 6zM811 705v18l8 22q1 2 12 13l27 -6q6 -11 12 -23v-12l-14 -23l-14 -6h-21q-3 2 -6 8.5t-4 8.5zM864 541q-3 19 0 45q1 1 4 6t4 8l17 8h6l14 -6q2 -5 8 -11.5t7 -8.5q3 -13 0 -23q-2 -2 -6 -14q-8 -14 -29 -21 q-8 0 -12 4q-6 3 -13 13zM885 424l4 8q0 16 18 23q4 0 6 2q5 0 12.5 -4.5t14 -11t6.5 -11.5q5 -8 2 -22q-1 -2 -2 -5t-2 -5.5t-2.5 -5t-3.5 -4.5t-4 -3q-4 -1 -9 -1t-10 0.5t-8 0.5q-10 4 -19 15.5t-3 23.5zM913 231q0 14 5 21l4 16q3 6 10 13q16 3 31 0q9 -4 22 -21 q2 -8 -3 -21.5t-5 -15.5l-12 -12q-8 -2 -19 -2l-22 8q-3 2 -4.5 4.5l-3 5t-3.5 4.5z" />
<glyph unicode="B" horiz-adv-x="1110" d="M231 629q8 19 23 22h12q17 -6 31 -20v-15q-2 -4 -5.5 -7t-9 -6t-8.5 -5h-20l-16 8q0 2 -1 6t-1 6q-5 10 -5 11zM231 1386q-3 12 0 25q13 21 27 21l25 -7l8 -16v-14q-11 -18 -25 -23h-6q-10 5 -22 8zM233 801q0 10 6 19.5t15 13.5h27q7 -4 16 -23v-8q-12 -23 -29 -29h-14 q-13 3 -16 17q-5 5 -5 10zM238 956q-3 19 0 35q6 12 14 17q11 3 22 0q11 -5 21 -19q2 -3 1.5 -7t-1.5 -6t-2 -5.5t-2 -5.5q-10 -13 -23 -21q-2 0 -6.5 -1t-7.5 -1q-1 1 -8.5 5t-7.5 9zM238 1139v10q2 8 14 16q3 2 7 1t6.5 -2t6.5 -2.5t7 -2.5l12 -14v-15l-8 -16 q-14 -7 -15 -8h-16l-8 8zM242 469q3 5 8.5 17.5t11.5 18t17 7.5q2 0 10 -4q2 -3 4.5 -5.5t5.5 -5t4 -3.5q4 -21 0 -33t-16 -21q-10 -2 -33 2l-10 7q2 2 2 8q0 4 -4 12zM244 1255q-4 23 0 35l6 8q6 2 18 2q19 -14 29 -34v-15q-1 -4 -4.5 -7t-5.5 -4l-8 -4t-7 -3q-6 0 -22 8z M250 317q3 20 14 31q1 0 3 1t3 1h17l2 -2q24 -20 18 -39l-14 -14h-21q-10 6 -22 22zM254 231q2 2 2 7q2 2 4.5 3.5t6 3t5.5 3.5h19q6 -2 10 -10q4 -21 2 -35l-8 -8q-12 -4 -31 0q-4 4 -4 8v6q2 7 -6 22zM383 190v17q10 19 14 22h11q6 0 10.5 -4.5t6 -8t5.5 -11.5v-12 q-12 -24 -33 -17q-8 6 -14 14zM406 1407q0 19 4.5 27.5t17.5 15.5h14q23 -8 23 -27v-6q-13 -26 -35 -33q-18 4 -24 23zM412 821q2 2 9 12t13 13q12 0 21.5 -6t11.5 -15q6 -11 2 -22q-8 -11 -16 -17h-4q-1 0 -4.5 -1t-4.5 -1q-2 0 -6 1t-6 1q-7 8 -16 35zM514 205v12 q7 15 16 19h27q2 -1 4 -3.5t3 -4.5t2.5 -4t2.5 -3v-16q-11 -19 -22 -23q-4 -1 -8.5 0t-9 3t-7.5 3zM520 772v12q3 5 8 19q16 16 29 18q3 0 7.5 -3t6.5 -3l11 -14v-17l-9 -14q-4 -7 -26 -20q-3 0 -9.5 3t-9.5 3q0 4 -4 8q0 4 -4 8zM545 1401v24q6 12 16 19q15 3 27 0 q22 -11 22 -31q-4 -16 -20 -29h-17q-3 2 -13.5 6t-14.5 11zM600 889v24q6 20 16 23h21q12 -6 14 -8q11 -7 19 -10q2 -1 5 -5l3 -4v-10q-23 -23 -41 -29h-12q-1 0 -4.5 1.5t-4.5 2l-4 2t-4 2.5t-3 2.5t-3 4t-2 4.5zM643 737q12 35 37 35q12 -8 16 -16v-13q-4 -12 -22 -30h-15 q-12 4 -16 24zM649 229v21q5 15 15 20q12 3 24 0q15 -11 19 -22v-15q-7 -13 -21 -22h-18q-13 3 -19 18zM676 1360q11 22 31 35q11 -2 22.5 -10.5t11.5 -20.5q-6 -22 -26 -33q-2 0 -6.5 -1t-6.5 -1q-6 5 -13.5 15.5t-12.5 15.5zM715 997v9l8 16q12 6 27 6q13 -5 18 -16v-21 q-7 -13 -16 -18h-15q-4 0 -7 1.5t-5.5 4.5t-3.5 5l-3.5 7t-2.5 6zM733 625q-1 4 0 8t3 8.5t3 7.5l13 15q12 5 20.5 0.5t11.5 -8t8 -12.5q1 -2 1 -3v-6l-9 -19q-20 -12 -28 -12q-4 1 -6.5 2.5t-5 5t-3.5 4.5q-2 1 -5 5zM758 305v12q4 4 4 7q2 8 14 16q2 0 10 4q20 4 29 -10 l6 -17q-6 -15 -20 -26q-13 -3 -29 0q-8 6 -14 14zM764 1122q0 12 11 20.5t24 4.5l18 -6l6 -8v-21l-8 -10q-23 -9 -31 -8q-13 8 -20 28zM766 1251q0 34 20 41h19q8 -4 16 -12q2 -6 2 -31q-11 -16 -41 -16q-7 0 -11.5 5.5t-4.5 12.5zM782 440q0 24 33 49l16 -6l15 -18v-2 l-6 -25q-3 -7 -21 -20q-11 -3 -22 0z" />
<glyph unicode="C" horiz-adv-x="1421" d="M233 717v10q6 10 27 27h14q14 -7 19 -17v-20q-2 -7 -14 -15l-3 -2q-2 0 -7 -1t-7 -1q-10 -5 -14 -2q-9 12 -15 21zM246 868q-7 35 16 41l27 -6q4 0 14 -14q1 -4 0 -9t-3 -11l-3 -9q-2 -2 -14 -8h-13q-16 3 -24 16zM268 553l13 25l6 10l16 8h6q22 -11 25 -14q3 -14 0 -31 l-17 -19l-20 -6q-16 3 -27 21q0 4 -2 6zM295 1022q4 20 12 33q0 2 2 2q6 6 21 10q1 -1 7 -2.5t9 -3.5l14 -17v-20q-3 -2 -6.5 -5.5t-7.5 -8t-6 -6.5q-15 -3 -27 0q-9 6 -18 18zM348 465q4 4 4 10q3 10 17 14q5 5 8 5h20q2 -1 5 -4t4 -3q5 -14 2 -24q-8 -13 -17 -17h-26 q-15 7 -17 19zM373 1153q4 16 4 21q1 4 2.5 6.5t4.5 4.5l4.5 3t6 1.5t5.5 0.5h7h7q11 -5 13.5 -6.5t6.5 -8.5t4 -18q-11 -16 -20 -16h-27zM444 391q13 31 29 31q21 -7 27 -19q0 -4 4 -12q0 -6 -8 -22l-15 -7q-14 -3 -28 0l-7 7q-2 4 -2 22zM487 1247q-2 2 -1 8t1.5 7.5 t3 7.5t3.5 8q8 8 18 14h16q6 -3 19 -16v-16l-6 -13q-2 -2 -5 -3.5t-7 -2.5t-5 -2h-20zM573 291q2 4 2 14q3 6 3 14q13 26 53 -4v-22q-6 -11 -35 -17q-2 1 -5.5 3t-6 3t-6 3.5t-5.5 5.5zM608 1333v15q7 13 21 22h22q15 -9 23 -20v-17q-5 -9 -23 -22h-14q-3 3 -10 7t-11.5 7.5 t-7.5 7.5zM729 299q5 0 8 4t6.5 8.5t8.5 5.5q6 -1 16 -6l12 -6l8 -16q0 -6 -2 -10.5t-4.5 -7.5t-7.5 -5.5t-7.5 -4t-8.5 -3.5h-13q-2 2 -14 8q-13 22 -2 33zM764 1356q0 1 1 3q4 9 6 13t8 7t16 3q19 -8 24 -18v-21q-7 -9 -24.5 -9.5t-26.5 7.5q-4 6 -4 15zM864 285 q0 26 29 43q31 0 41 -35v-12q-3 -4 -7.5 -7.5t-8.5 -5.5t-9 -4t-8 -4l-24 6l-9 6q0 5 -4 13zM903 1307v30l15 15q1 0 4 1t4 1q2 0 4.5 -1t3.5 -1q9 -4 14.5 -15.5t1.5 -23.5q-5 -10 -20 -21h-10q-6 5 -17 15zM1020 338v1l-1 1q0 2 1 2l10 27q2 1 8.5 4.5t8.5 5.5h20 q19 -16 23 -29q-5 -23 -33 -43q-19 3 -31 12zM1024 1266q5 21 35 14q6 -9 12 -12q3 -14 -6 -23l-23 -6q-7 2 -12.5 9.5t-5.5 17.5z" />
<glyph unicode="D" horiz-adv-x="1142" d="M231 870l5 25q0 1 1 2t1 2t4 6.5t5.5 7t6 3.5t10.5 2l19 -9l12 -14q0 -4 4 -12v-4l-16 -25l-17 -8h-16q-19 14 -19 24zM233 590q0 2 3 2q3 3 9 14.5t13 14.5h12q4 -1 7 -4t4.5 -5.5t4 -7t3.5 -6.5v-14q-6 -11 -17 -17q-12 -3 -28 0q-11 4 -11 23zM233 727q3 3 3 6l18 35 q5 5 16 2q17 -14 25 -29v-24q-6 -17 -23 -23h-26l-10 6q-3 15 -3 27zM233 1049q10 20 19 26h18q12 -7 23 -22q1 -3 0 -5.5t-1.5 -4.5t-2 -4.5t-2.5 -4.5l-2 -2q-3 -4 -4 -4l-25 -8q-6 0 -11.5 4.5t-8.5 11t-3 13.5zM236 436q-4 12 0 35q9 19 22 23q13 0 22.5 -8t12.5 -21 v-16l-8 -11q-3 -3 -11 -6t-10 -4h-20zM242 207v16l6 13q2 3 7 5.5t7 4.5q6 1 11 -1t7.5 -4t7.5 -8.5t5 -7.5v-6q-3 -11 -21 -22q-8 2 -22 2zM242 311q-3 1 -1.5 10t1.5 10.5t3 10.5t3 10l14 8h10q1 0 3.5 -1.5t4.5 -2t4.5 -2t3.5 -3t1 -3.5q0 -7 3 -18.5t3 -18.5 q-6 -7 -9.5 -9t-17.5 -7l-12 4t-6 3t-4 3.5t-4 5.5zM246 1188q2 3 5 9.5t5.5 10t7.5 6.5q2 0 6 -1t6 -1q7 -3 10.5 -6t6 -8.5t2.5 -13.5q-1 -1 -3.5 -8t-5 -10.5t-7.5 -6.5q-1 0 -5.5 -0.5t-8.5 -0.5t-8 0.5t-6.5 2t-2.5 4.5q-2 8 -2 23zM252 1309q0 25 2 39q0 12 20 22 q1 0 4.5 -1t4.5 -1l22 -22q2 -3 1 -11t-1.5 -10t-2.5 -9t-3 -9l-6 -7l-19 -6q-15 4 -22 15zM362 231q-5 19 13 37q16 6 31 -2l8 -10q2 -5 2 -31q-4 -4 -8 -12q-5 -3 -10.5 -2.5t-8.5 1.5t-9 3.5t-7 3.5q-10 10 -11 12zM391 1327v12l4 8t4 11q6 3 15 12h16q10 -6 13.5 -8.5 t6.5 -9.5t3 -19q-13 -19 -21 -24q-4 0 -8 -4h-14q-4 1 -7 4t-4.5 5t-4 7t-3.5 6zM471 256v6l12 23l17 10h16l12 -12q4 -12 9 -17q0 -2 -2 -4q0 -2 -3 -6.5t-4 -7.5l-14 -6q-19 -4 -29 0zM518 1309q1 3 2.5 7t3 8.5t2.5 8.5l15 13q29 0 43 -27q0 -4 -2.5 -10t-1.5 -9 q-14 -10 -21 -20h-24q-1 1 -5 4.5t-5 5t-3.5 5t-3 7t-0.5 7.5zM580 303q0 3 0.5 5t2 4t3 3.5t4 3.5t4 2.5t4.5 2t4 2.5h19q14 -6 22 -29q-11 -18 -29 -27h-18l-8 6q0 1 -1 2.5t-1 2.5zM627 1251q3 3 8 13l14 10h15q14 -8 19 -17t5 -26q-4 -7 -24 -17h-13q-9 3 -18 9l-4 4 q-2 8 -2 24zM657 367q0 6 4.5 13t4.5 11l14 12h27q8 -4 16 -16q3 -12 -2 -20l-6 -15q-2 -1 -9 -4t-12 -4h-18q-5 0 -8 4.5t-6 10.5t-5 8zM725 1161q6 12 18 21q1 0 5.5 2.5t9 3.5t8.5 0l16 -6q0 -2 2 -2l7 -15q0 -9 -8 -21t-15 -16q-17 -2 -37 11zM741 481v13q12 25 45 18 l15 -8q6 -13 -2 -21q-1 -2 -6.5 -6.5t-6.5 -5.5q-4 -2 -14 -2q-3 0 -7.5 -2.5t-6.5 -1.5q-14 9 -17 16zM778 1044q4 13 31 23q29 -7 22 -43q0 -2 -1.5 -4t-4.5 -4t-5.5 -3t-6 -2.5t-4.5 -2.5h-16q-3 1 -5.5 2.5t-4 2.5t-2.5 3.5t-2 4t-1 5v5v6.5v7zM793 618l6 15l10 10l14 6 q8 -4 13 -4l14 -22q7 -13 -4.5 -23t-24.5 -14l-22 6l-3 5t-3 6.5t-1.5 7t1.5 7.5zM815 760v18l8 19l13 12h22q4 -4 16 -8l7 -17q0 -26 -21 -41q-2 0 -6 -1t-6 -1h-17q-9 4 -16 19zM815 907l19 21q4 2 22 2q25 -13 18 -35q-15 -18 -28 -25h-15q-8 2 -14 9q-2 5 -2 28z" />
<glyph unicode="E" horiz-adv-x="1058" d="M219 209v8q7 14 29 23h8q22 -7 25 -21l4 -6l-9 -14l-8 -11q-8 -4 -32 0zM231 344q2 6 23 16q2 0 7 1t7 1q12 -7 23 -22v-23q-6 -12 -23 -22h-18q-15 8 -18 15.5t-1 33.5zM231 451v14q1 1 3.5 6t4 7.5t4.5 6.5t5.5 6t6 3.5t7.5 1.5t8 -2q26 -17 21 -43q-3 -6 -10 -13 l-19 -10q-17 0 -31 23zM231 922v26q6 16 21 19l16 -9q33 -33 0 -53h-18q-12 6 -19 17zM231 1065l7 8v23l10 10h20q14 -9 23 -23q3 -15 0 -34l-15 -15q-9 -4 -26 0q-2 0 -10 4zM233 608l7 25q8 12 20 12q25 -8 31 -22v-21q-10 -13 -14 -16t-13 -6q-4 0 -8 2t-9.5 5.5 t-6.5 4.5zM233 766q5 20 5 25q10 17 22 24h6l17 -8q5 -7 14 -29v-14q-7 -7 -14 -21q-27 -4 -41 0l-2 2zM233 1188l7 20l8 6h24q1 -1 8 -3.5t11 -5t6 -7.5q3 -12 0 -27q-7 -17 -35 -24q-4 4 -8 4q-11 5 -18 14.5t-3 22.5zM238 1346v12q8 24 20 31q15 3 29 0l16 -13 q3 -20 -6 -43l-14 -10h-21q-3 1 -6 2.5t-4.5 3t-4 4.5t-3 3.5t-3.5 5zM352 240q6 16 17 24q2 2 6 1t5 -1t5 -2.5t6 -3.5l17 -20v-19q-2 -5 -5.5 -8.5t-6.5 -4.5t-7 -3t-6 -4h-14q-11 6 -14 15t-3 26zM365 745v29q5 5 14 23q3 1 8.5 3.5t8 2.5t10.5 -2q11 -4 14 -19 q0 -2 2.5 -5.5t3.5 -4.5v-24q-5 -11 -18 -17h-27q-9 3 -16 14zM371 1348q0 9 3 18.5t10 17t17 7.5q8 4 11 4q5 0 11.5 -4.5t11 -11.5t1.5 -13q-2 -4 -4 -12.5t-4 -12.5l-16 -16q-4 -2 -25 -2l-8 6q-5 14 -8 19zM455 215v14q7 14 8 15l16 8l21 -6q10 -6 14 -23v-4 q-8 -12 -16 -14l-11 -6q-12 -3 -22 2zM463 760v20l6 15q12 6 14 8q2 -1 7.5 -3t7.5 -3.5t6 -4t5.5 -6t2.5 -8.5q0 -2 2 -2q-4 -21 -20 -26h-21q-8 4 -10 10zM504 1346v24q12 14 26 19q5 -5 9 -5q11 0 18.5 -9.5t7.5 -24.5q-9 -25 -30 -33q-1 0 -4.5 1t-4.5 1q-9 6 -11.5 9.5 t-10.5 17.5zM557 760v26l10 11h15q9 -4 16 -15l2 -2v-24q-3 -10 -10 -13h-15q-13 6 -18 17zM559 215v27q3 9 27 18l18 -10l2.5 -2.5t3 -2.5t2.5 -2t2 -2.5t2 -2.5q2 -4 2 -8.5t-1 -7.5t-3.5 -8l-3.5 -7l-8 -8h-29q-10 5 -14 16zM618 1370q3 10 21 19l31 -15l8 -12l-4 -16 v-19l-19 -10h-8q-8 5 -22 22q0 4 -4 15t-3 16zM668 233v21q5 11 28 22q9 -2 12.5 -3.5t12.5 -10.5q0 -3 1 -8.5t1 -7.5q2 -3 8 -4.5t8 -5.5q0 -12 -14 -23q-23 -4 -43 -2zM739 1339v17q10 10 11 12q3 1 9.5 4.5t9 4t9.5 -0.5q17 -13 21 -22v-15q-3 -6 -19 -22q-14 -3 -24 2z M776 246v20q2 7 17 17h20l21 -15l8 -12v-4q-2 -2 -6.5 -8.5t-6.5 -8.5t-7 -5.5t-10.5 -5t-12.5 -1.5l-4 2z" />
<glyph unicode="F" horiz-adv-x="1046" d="M244 401q9 22 16 25q4 2 27 2l16 -8q0 -7 4 -19q-3 -19 -26 -32h-21q-12 6 -14 8q-2 4 -2 24zM244 541q1 3 4 11t4 13l16 8q2 -1 7 -1t8 -1l14 -8l6 -8v-20q-2 -3 -6.5 -8t-5.5 -7q-8 -2 -21 -2h-10q-4 3 -7 6.5t-5 8.5t-4 8zM246 774q-2 8 1 20.5t3 16.5l8 8l6 6 q27 9 45 -20v-21q-10 -24 -28 -34h-15q-6 2 -13 9t-7 15zM250 250v10q11 18 20 20.5t27 -8.5q2 -1 4 -2.5t3 -3t2.5 -3.5t2.5 -3q2 -7 -8 -22l-10 -9h-19q-9 4 -22 21zM250 944q-2 8 2 23l12 20l12 8q4 -3 8 -4t9 -1t8 -1q8 -6 14 -14q3 -14 -2 -27l-10 -10l-16 -8h-21 q-12 8 -16 14zM250 1092l8 22q2 2 14 8q18 3 33 0l6 -4q0 -2 4 -6q0 -12 2 -18q-1 -1 -2 -4q-9 -16 -20 -25q-11 -5 -25 -2l-12 12zM256 637q-3 21 0 39q5 11 16 16h21l16 -20l-6 -23q-8 -14 -22 -22h-15zM256 1255q0 1 1 3.5t1 3.5q4 8 4 10q1 0 4 1t4 1h21q20 -10 24 -17 v-26l-10 -19l-18 -10h-13q-2 1 -4 2.5t-3.5 3t-3 3.5t-2 3.5l-1.5 4.5t-2 4q0 4 2 6q-7 13 -4 26zM262 1389v14q6 12 8 14l15 8h18q10 -5 16 -14l3 -4q0 -3 3 -12.5t1 -16.5q-12 -18 -21 -18q-6 -2 -18 -2q-7 2 -12.5 7t-7.5 9.5t-5 14.5zM395 1368q-3 14 0 31l11 10l18 10 q22 0 27 4q4 -1 6.5 -3t5.5 -5.5t6 -5.5q-1 -7 -1 -20t-1 -19q-4 -6 -9 -9.5t-8.5 -5t-11.5 -3t-10 -2.5q-25 10 -33 18zM401 801v26l7 15q4 4 14 4q0 -1 1 -1t1 -1q19 -6 31 -21q0 -4 5.5 -10t6.5 -10l-8 -19q-2 -1 -13 -12h-22q-11 8 -14 12t-9 17zM504 795q-3 14 0 28 q17 17 43 17q4 -4 14 -9q2 -4 2 -24q0 -1 -1 -3t-1 -3l-24 -21q-2 -2 -6 -1.5t-6.5 1t-6.5 2t-6 2.5zM516 1366q-1 4 -1 9v9.5t0.5 10.5t0.5 10q7 2 35 2q1 0 5.5 -2t6.5 -3t7 -4t6 -4.5t4.5 -5t1.5 -6.5t-2 -8q-10 -20 -17 -24l-16 -9h-15q-6 4 -8 7.5t-8 17.5zM618 784v19 q11 23 37 28q2 -1 6 -2.5t6.5 -3t5.5 -3.5t5 -5v-20l-8 -19q-2 -1 -7 -5.5t-8 -6.5h-20q-11 5 -17 18zM631 1380v9l3 6t3 6.5t3.5 5.5t6.5 4q25 4 39 2q10 -6 16 -16v-15q-9 -18 -16 -22q-18 -6 -22 -8q-5 3 -19 8q-5 3 -14 20zM752 1399q0 10 16 26h20l23 -16l6 -14 q0 -9 -4 -16t-10.5 -12t-14.5 -7h-14q-9 8 -12 12.5t-10 26.5z" />
<glyph unicode="G" horiz-adv-x="1597" d="M209 745q-1 6 1.5 14t2.5 11q6 15 23 23q17 0 28 -7q4 -12 8 -18v-18q-6 -11 -16 -19q-4 -1 -9.5 -1t-13 0.5t-12.5 0.5zM219 616q9 22 17 25h18l20 -10l15 -17q2 -5 2.5 -9t0.5 -6.5t-3 -5.5l-4.5 -4.5t-6 -3.5t-6.5 -2.5t-7.5 -2.5t-6.5 -2q-7 0 -13 2t-10 7.5t-6 8.5 t-5.5 10.5t-4.5 9.5zM225 918v8q1 2 4 5.5t4 5t3 4t4 3.5t5 2t6.5 1.5t8.5 0.5q2 -1 6.5 -3t7 -3t6 -4t5.5 -6v-19q-4 -10 -16 -14.5t-25 -1.5q-13 9 -19 21zM287 1044v27q2 8 14 16q14 3 29 0l6 -6l8 -14q1 -3 -1.5 -9.5t-2.5 -8.5l-12 -13q-6 -1 -15 -4l-12 -4 q-12 8 -14 16zM291 504l16 16h17q12 -9 20 -22q3 -6 2 -11.5t-1.5 -8.5t-4 -6t-5.5 -4.5t-6.5 -4t-6.5 -4.5h-19q-5 2 -8 4.5t-3.5 8t-1 9t0 11.5t0.5 12zM352 1176q6 12 15 18q3 5 20 14l23 -6l12 -14q4 -15 0 -21l-6 -16q-12 -15 -27 -27h-20q-6 6 -9 6l-2 5q0 5 -4 19 t-2 22zM360 383v14l5 17q6 8 22 16h6l17 -8l8 -8q3 -15 0 -27q-2 -5 -5 -7.5t-10.5 -5.5l-7.5 -3q-2 1 -15.5 4t-19.5 8zM455 350q5 20 22 31h15l16 -16q-2 -4 -2 -13l8 -18q-4 -17 -12 -23l-17 -8l-18 6l-10 15q-2 5 -2 26zM455 1233q0 17 2 20l6 15l12 12q10 2 29 2 q28 -14 28 -49q-1 -1 -3 -6t-3 -6.5t-3.5 -4.5t-5 -5t-5.5 -3q-1 0 -11 -2.5t-12.5 -2.5t-13.5 1q-2 1 -6.5 6.5t-5.5 6.5zM575 1327v10l7 15l16 8q18 3 39 0q11 -6 20 -19q6 -17 -6 -45q-4 -4 -9 -6t-10.5 -3.5t-8.5 -2.5l-27 6q-5 3 -8 8zM592 276v21q13 18 24 22 q5 0 7 -2l20 -10q14 -6 8 -22q-4 -4 -4 -9l-22 -16h-15q-11 5 -18 16zM709 1352v20q1 3 5 8.5t5 8.5q4 2 24 2q17 -7 25 -17v-20l-6 -11l-10 -6q-16 -3 -31 0q-4 1 -5.5 3t-3.5 6zM711 256l4 18l12 15q8 2 18 2q13 -8 17 -15v-18q-3 -7 -21 -20l-20 6zM831 258q-5 9 1 25 t14 20q10 2 26 -2q9 -3 17 -20v-27q-1 -4 -4 -7t-5.5 -4t-7 -3.5t-6.5 -3.5h-14q-16 10 -21 22zM846 1378q5 8 9.5 10t13 1.5t14.5 1.5l16 -7l2 -4v-18q-3 -12 -14 -19l-19 -6q-14 7 -20 15q-2 4 -1.5 12t-0.5 14zM956 1313q-4 19 2 33q12 8 19 8q3 1 7 2.5t7 2.5t7.5 1 t9.5 -2l12 -10q2 -3 2 -19q-6 -12 -9 -16t-14 -13q-11 -3 -28 0zM963 680q0 8 8 20q8 2 22 2q14 -10 11 -26q-6 -11 -17 -17q-19 9 -24 21zM973 307q2 5 5.5 8.5t5.5 5t7 3t6 2.5q31 8 43 -17v-8q-9 -19 -28 -25l-19 -10q-4 1 -6.5 3t-6 6l-3.5 4q-2 6 -2.5 15.5t-1.5 12.5z M1055 686q0 9 12 21q6 2 18 2q12 -8 15 -19v-8q-1 -2 -2.5 -4t-3 -3.5t-4 -3t-4 -2t-5 -1.5t-4.5 -2l-14 6q-3 2 -4.5 4.5t-2 5.5t-1.5 4zM1071 1270v20l10 13q8 4 19 4q20 -8 24 -19q0 -1 1 -4.5t1 -5.5l-8 -16l-22 -15q-3 1 -8.5 3.5t-8.5 4t-5.5 5.5t-2.5 10zM1083 342 q4 12 4 18q3 9 3 17q8 12 14 16h22l21 -14l6 -19q0 -1 -1 -4t-1 -4q-2 -4 -2 -10q-11 -10 -39 -20q-10 0 -18 8q-3 6 -9 12zM1151 674q-2 12 3 19t17 14h7q14 -10 16.5 -20t-4.5 -25q-6 -3 -10 -3h-6q-2 2 -9.5 5.5t-9.5 5.5zM1174 440v15l6 8v22l6 13q1 1 6.5 4t10 4.5 t9.5 1.5q2 -1 6.5 -4.5t8 -6t6.5 -3.5q5 -5 6 -5l2 -4l12 -18q0 -4 -1 -11.5t-1 -11.5q-4 -3 -14 -16t-20 -16l-23 6q-17 17 -20 22zM1243 207q0 26 14 35q15 0 23 2l18 -11q5 -13 2 -28q-13 -18 -20 -21l-23 4q-9 5 -14 19zM1245 582v18q10 19 31 16l6 -3t6.5 -3t6 -3.5 t5.5 -6.5q0 -5 3 -14q0 -2 -1.5 -5.5t-1.5 -5.5q-1 -2 -16 -18h-20q-3 0 -5.5 1.5t-4.5 5t-3.5 6t-3 7t-2.5 5.5zM1253 350v12q9 22 17 25h16q6 -1 14.5 -7t10.5 -7v-2l6 -21q-4 -11 -19 -22q-6 0 -18 -4q-3 0 -9.5 2.5t-6.5 5.5q-10 15 -11 18zM1260 698l6 9h16 q17 -3 25 -17v-14q-12 -23 -31 -23q-2 0 -3.5 1t-3.5 4t-3 4q-1 4 -3.5 11.5t-3 11.5t0.5 13z" />
<glyph unicode="H" horiz-adv-x="1402" d="M233 1212q7 14 12.5 20.5t18.5 12.5l23 -6l10 -16v-21l-8 -8l-17 -8h-18q-18 6 -21 26zM236 227q2 11 14 31l14 8h15q18 -13 28 -55q-9 -19 -22 -23h-19q-1 0 -5 2.5t-4.5 3t-4 2.5t-4.5 3t-3.5 3t-3 3.5t-2 4t-2 5t-1 5.5t-0.5 7zM236 879q0 6 2 8l12 18q6 12 31 6 q17 -8 24 -30q0 -5 -2 -7q2 -2 2 -6q-3 -11 -4.5 -13.5t-7.5 -6.5q-6 -2 -33 -2q-12 6 -22 26q0 1 -1 3.5t-1 3.5zM236 1364q1 2 3.5 12t6.5 15l12 6h6q13 -3 25 -15v-22q-3 -10 -13 -17q-25 -6 -38 13q0 2 -1 4.5t-1 3.5zM242 1024v29q3 5 20 22l14 6l21 -6q9 0 11 -12.5 t-1 -22.5q-2 -2 -6 -14l-22 -14h-21q-10 3 -16 12zM254 393v21q2 10 4 16t7 14.5t12 9.5t18 -1q13 0 24 -23q3 -16 0 -31q-4 -10 -20 -22q-4 -2 -23 -2q-2 2 -7 5t-8.5 6t-6.5 7zM254 537q-3 16 0 32l8 17l8 6q15 3 27 0q3 -1 5 -3t3.5 -4t2.5 -4l2.5 -5l2.5 -5v-32 q-7 -15 -16 -19h-21zM254 725q8 25 22 31l23 -6l10 -11l10 -10v-14q-1 -3 -3.5 -7t-4.5 -6.5t-5 -6t-5 -5.5l-20 -6q-17 3 -25 14q-2 4 -2 27zM408 813q4 18 18 27q45 9 45 -31q-2 -2 -10 -18q-1 0 -17 -11h-14q-16 4 -22 33zM524 831q1 5 11 15q9 3 18 0q16 -12 25 -21 q4 -8 8 -12q0 -3 -3 -8t-3 -8q-1 -1 -3.5 -2.5t-4.5 -3t-4.5 -3t-4.5 -2.5h-14q-18 9 -23 17q-2 10 -2 28zM623 803v14q4 9 22 23q2 0 7 1t7 1q22 -17 23 -17q2 -4 2 -9t-1 -10.5t-1 -8.5q-14 -17 -37 -17l-8 6zM756 825q0 2 0.5 3.5l1 3t0.5 2.5q6 6 9.5 7t10.5 -1l8 -4 q13 0 19.5 -12.5t3.5 -26.5q-9 -9 -16 -11h-13l-18 9q-4 3 -5.5 7t-1.5 7t0.5 8.5t0.5 7.5zM842 795q-4 8 0 24l14 10l14 13h13q23 -12 16 -33q-4 -8 -20 -16h-29q-1 0 -2 0.5t-2.5 1t-3.5 0.5zM1004 256q-3 11 0 20l8 23q2 8 14 16h23l18 -18l6 -14q-4 -12 -4 -19 q-4 -4 -4 -6l-18 -10q-23 0 -35 2zM1004 403q-3 18 0 37q7 14 18.5 16t21 -4.5t17.5 -17.5q2 -2 2 -6q3 -11 0 -25l-12 -14q-2 0 -6 -1t-5 -1h-20l-10 8zM1004 604q3 12 10 15.5t22 3.5q4 -3 9 -7.5t10 -10.5t8 -9q7 -34 -16 -45h-25q-17 7 -22 21.5t4 31.5zM1004 764 q11 22 30 27q21 -7 35 -21l6 -20q-6 -23 -45 -35l-7 3.5t-7.5 4t-5.5 5t-4 7.5q-2 4 -2 29zM1010 1077q3 8 4.5 10.5t5.5 10t9.5 9t12.5 -0.5q14 -7 21 -16v-21l-12 -14q-4 -2 -25 -2q-16 5 -16 24zM1012 1188q1 3 1 4t-0.5 4.5t-0.5 5.5q5 4 9.5 14.5t8.5 14.5q3 2 17 2 q16 -5 28 -23v-16q-2 -7 -6.5 -12t-7.5 -6.5t-12 -6.5q-1 0 -3.5 1t-3.5 1q-8 0 -14 3q-3 0 -5 0.5t-3 1t-2.5 2t-2 2.5t-1.5 4t-2 4zM1014 897q2 4 2 16q0 1 1.5 4t2 3.5t1.5 3.5t2 3.5t2 3t2 3t3 2t3.5 2t4 1.5t4.5 1t8 -1t10.5 -3t8.5 -6l6 -25v-10q-8 -23 -20 -29h-6 q-18 4 -25 11zM1016 1362l8 14q1 1 5.5 4t8.5 4h21l8 -6l8 -16q7 -35 -10 -43l-14 -6h-19q-22 11 -16 49z" />
<glyph unicode="I" horiz-adv-x="636" d="M225 559v25q12 29 29 37q23 -7 31 -23q0 -2 1 -6.5t1 -7.5l12 -25v-12q-3 -4 -7 -7.5t-9.5 -6t-6.5 -3.5h-28q-9 9 -15 11q-4 12 -8 18zM231 233v31q8 19 21 29h8l25 -12l12 -13l8 -20q-1 -1 -5 -9.5t-7.5 -12.5t-9.5 -5q-4 -4 -7 -4q-6 0 -15.5 2t-16.5 2q-6 2 -13 12z M233 397v17q4 18 17 26h18l15 -12l14 -10q5 -13 4.5 -19.5t-6.5 -19.5l-8 -6l-13 -6h-12q-25 12 -29 30zM233 745q1 2 3 9.5t4.5 12t7.5 9.5l20 8q9 -4 23 -8l4 -4l10 -18q0 -3 -1 -9.5t-1 -9.5q-7 -20 -20 -28q-11 -3 -25 0q-12 8 -25 38zM238 1067v18q7 15 16 19 q16 3 31 0q4 -1 6 -3.5t4.5 -7.5t3.5 -6v-20q-12 -15 -31 -29q-3 0 -8.5 4t-7.5 5q-4 0 -4 4q-2 2 -5.5 8t-4.5 8zM244 932q12 12 22 14t29 -6q4 -4 6 -9.5t2 -8v-13.5q-13 -14 -22 -28h-17q-6 2 -9 4.5t-4 3.5t-5 8q-2 5 -2 35zM250 1391q4 8 16 16h21q3 -1 8 -5 t10.5 -12.5t5.5 -17.5q0 -2 -1 -5t-1 -5l-14 -14q-5 0 -14 -1t-11 -1q-14 6 -17 13.5t-3 26.5v5zM256 1231v24q9 22 18 25h13l14 -8q18 -24 21 -27q0 -9 1.5 -13t-3 -10.5t-6.5 -9t-8 -8t-7 -6.5l-16 -6q-2 1 -6 2t-5 2q-10 13 -10 25z" />
<glyph unicode="J" horiz-adv-x="1185" d="M147 1348q0 4 1.5 7l3 6l2.5 5q9 11 20 20q23 6 39 -10v-16q-8 -25 -23 -33h-26zM178 629v4q10 22 23 29h8q22 -13 27 -23q-3 -19 -19 -31q-17 -3 -24 0zM186 541l13 16q5 2 9.5 2.5t8 0.5t6.5 -1.5t5.5 -3.5t5 -5t4 -5t3.5 -5t3 -5q0 -13 -5 -22t-9.5 -12t-16.5 -9 q-2 0 -6.5 1t-5.5 1q-3 1 -4.5 3.5t-1.5 3.5v5v4q-1 1 -5.5 8t-4.5 9.5t1 13.5zM238 414q3 8 6.5 11.5t9 5t14.5 1.5l19 -10l6 -10l4 -9q0 -21 -16 -32h-21q-3 0 -5 1t-3.5 3.5t-2 4.5t-0.5 4.5t-1 4.5zM268 1348q-1 3 0 8t2 7l3 6t3 7l15 15q4 2 20 2q17 -8 23 -23v-27 q0 -3 -10 -10l-23 -6h-10l-17 8zM315 311l9 17l14 12q8 3 18 -4l15 -4q6 -7 10 -17l6 -20q-7 -14 -12 -19q-1 0 -13 -5t-16 1q-2 2 -8 2q-3 1 -5 1.5t-4 2t-3 2t-2.5 2.5l-3 4t-3.5 5q-2 6 -2 20zM395 1360v10q9 14 27 29q1 0 4.5 1t5.5 1t6 -1t6 -1q14 -9 16 -23t-11 -28 q-2 -1 -7.5 -4.5t-9.5 -5t-8 -1.5l-18 11q-1 2 -11 12zM438 223v13q2 4 5.5 7.5t6.5 5t8.5 4t8.5 3.5h18q19 -10 19 -29q-2 -4 -4.5 -6.5t-6.5 -6t-6 -5.5q-14 -3 -28 0zM504 1350l6 14q1 2 2 3.5t2.5 3t2.5 2l3 1.5t3.5 1.5t3.5 1t3 1.5q8 8 19 8q3 0 9 -2.5t9 -3.5 q6 -12 8 -14q0 -5 -1.5 -10.5t-2.5 -8.5t-5 -8t-5 -6l-6.5 -6.5l-5.5 -5.5h-8h-15q-9 13 -22 29zM559 242q0 6 12 18l15 8q28 7 45 -16v-14q-7 -9 -10 -12.5t-11 -8.5t-16 -2q-23 7 -35 27zM637 1364l10 14l19 8h12q1 -1 3.5 -1.5t4 -1t3.5 -1.5t3.5 -2l3 -2t2.5 -2.5 t2 -3.5l2 -4v-12q-3 -6 -16 -15q-1 -1 -1.5 -3.5t-0.5 -5.5v-5.5t-1 -4t-3 -1.5q-14 -3 -27 0q-23 15 -16 43zM684 287v16q4 9 8 23q10 14 19 18q9 9 24 -3t15 -24v-20l-9 -18q-3 -1 -18 -11h-21q-11 6 -18 19zM776 418v14q7 21 8 23q1 1 6 3.5t7 4.5h20q5 -3 25 -23v-20 q-6 -17 -35 -25l-19 8zM776 1329q-3 0 -1.5 14.5l1.5 14.5q0 3 2 6t4.5 5.5t7 5.5t7.5 4.5t7 4t5 2.5h22q2 -3 8.5 -8.5t8.5 -7.5v-24q-11 -22 -37 -31h-18q-13 13 -17 14zM823 575v15l8 16q9 12 23 19h12l11 -7q11 -30 8 -49q-6 -6 -6 -8q-20 -10 -33 -8q-1 0 -6 3.5 t-9 4.5q-6 12 -8 14zM844 743q3 9 3.5 11.5t3.5 8.5t6 7.5t8.5 3.5t13.5 2q26 -10 34 -35v-18q-2 -7 -16 -18q-12 -3 -27 0q-16 8 -22 16q0 6 -4 22zM854 872v15q3 5 7 15.5t8.5 17t13.5 8.5h16l19 -8q0 -1 1 -2.5t1 -2.5q3 -15 0 -30q-3 -7 -9 -13.5t-14 -11t-16 -4.5 q-20 4 -27 16zM862 1038q-1 7 -1 9t2 8t3 8l23 14h8q6 -2 16 -12q3 -9 0 -21q-5 -3 -10 -12q-2 0 -11 -3.5t-15 -2.5q-6 0 -15 12zM866 1188l8 16l15 8q6 0 10 -1t6 -2.5t3.5 -4t2.5 -5t2 -6.5t2 -7q0 -4 5 -19q-2 -2 -8.5 -5t-8.5 -5h-18q-11 4 -17 10q-5 8 -2 21z M891 1358q4 12 12 20l17 8h12q3 -1 12 -10v-33l-6 -8q-2 0 -3.5 -0.5t-2.5 -1t-2 -0.5h-23q-11 6 -16 25z" />
<glyph unicode="K" horiz-adv-x="1290" d="M219 170q0 19 3 29t14 14q6 0 18.5 -5t17.5 -5q10 0 13 -10v-9l-13 -26q-2 -2 -6.5 -4.5t-5.5 -3.5h-18q-11 5 -23 20zM219 270v31q1 2 4.5 8t5 8.5t5.5 6.5t8 6h14q15 -6 18 -23q0 -4 5 -14q-7 -15 -14.5 -23t-20.5 -12h-8q-17 8 -17 12zM219 426v10q8 32 29 37 q10 0 28 -10l11 -19v-18q-2 -4 -5 -7.5t-7.5 -7t-6.5 -5.5l-18 -9q-12 -2 -25 15zM219 928q6 11 19 18h24q15 -9 23 -20v-23q-4 -9 -21 -22h-22l-17 8q-6 12 -6 39zM225 571v21q10 15 11 18q4 2 10.5 5t7.5 3q25 -8 31 -20q3 -13 0 -29l-6 -8l-17 -6h-24q-4 2 -7 8t-6 8z M225 743l6 23q8 11 17 16h12q12 -4 19 -8t11.5 -14t0.5 -25q-5 -13 -23 -24h-20l-5.5 3.5t-9.5 4.5zM231 1051v24q22 15 33 17q5 -1 12 -4.5l9 -4.5l4 -4q3 -13 8 -20l-6 -15q-15 -15 -21 -18l-6 4l-4 -4q-29 10 -29 25zM231 1350q9 18 23 32h20q16 -8 23 -30l-6 -23 q-7 -3 -10 -10q-2 -1 -8.5 -4t-10 -4t-8.5 0l-14 10q0 2 -1 4.5t-1 3.5l-5 12q0 1 -1 4.5t-1 4.5zM233 1192l4 4l4.5 4.5l4.5 4.5t5 4t5.5 3.5t6 3.5t6 2.5t6 1t6.5 -0.5q11 -7 16 -15q3 -9 0 -24q-5 -10 -23 -21h-16l-10 8q-4 8 -10 11zM358 811v20q1 4 3 6.5t6 5.5t6 5 q13 -3 20 -10q1 -2 7 -8t8 -11l-9 -14q-3 -1 -7 -4t-7.5 -4.5t-7.5 -1.5q-3 3 -17 8q0 1 -1 4t-1 4zM471 838h18q12 -3 18.5 -14.5t0.5 -24.5q-13 -13 -33 -13q-17 4 -18 23t14 29zM575 795v24q9 19 15 23q12 6 14 8q22 -7 31 -21q4 -19 2 -28q-1 -2 -4.5 -6.5t-5 -6 l-4.5 -4.5t-6 -3.5t-8 -1.5t-11 -1q-1 1 -6 3t-7 3.5t-5.5 4t-4.5 6.5zM631 662v12q5 15 20 31q15 3 29 0q13 -6 20 -21q2 -3 2.5 -6.5t-0.5 -7t-1.5 -5.5t-2.5 -6.5t-2 -5.5q-6 -10 -26 -18q-12 2 -31 10zM670 926q0 17 26 39h23q4 -1 6.5 -3t4.5 -5t3 -5l3 -6l3 -6v-16 q-10 -39 -51 -31q-3 1 -14 12q0 5 -4 21zM715 526v29q6 15 22 23h21q1 -1 4.5 -2.5t5.5 -2.5t4.5 -3t4.5 -4t3 -5q4 -10 0 -26q-14 -18 -20 -23l-25 -4q-4 2 -20 18zM748 1038q-2 6 -2 12t1 10.5t2.5 11t2.5 11.5l16 9h20q13 -10 23 -23q3 -14 0 -29l-12 -12q-8 -3 -21.5 -3 t-15.5 -1q-3 1 -5 3t-3.5 4l-3 4t-2.5 3zM793 408v24q13 17 16 19q13 3 29 0q15 -11 22 -23v-12q-6 -19 -22 -27h-27q-2 2 -7.5 4.5t-8 5.5t-2.5 9zM823 1163v8q14 28 39 39q8 0 23 -20v-23l-17 -18q-4 -4 -18 -4q-2 1 -6.5 3t-7.5 3t-6.5 4.5t-6.5 7.5zM872 299q0 11 5 18 l4 17q2 4 10 12l14 6l8 -4q11 0 23 -12q10 -28 8 -39l-6 -12q-11 -9 -33 -13q-4 0 -6.5 0.5t-5.5 1.5l-4.5 1.5t-3.5 3t-3 3t-3 4t-2.5 4t-2.5 5zM897 1319q4 5 12 12t9 8h14q15 -4 18.5 -16.5t-0.5 -34.5l-20 -14q-28 -6 -35 7.5t2 37.5zM942 199q0 6 4 22q20 12 31 12 l20 -16q2 -3 2 -20l-6 -11q0 -14 -32 -14q-15 9 -19 27z" />
<glyph unicode="L" horiz-adv-x="974" d="M229 1339q-3 13 0 25l7 8l8 6q24 5 37 -8q2 -4 2 -22q-6 -10 -23 -23h-14q-12 6 -17 14zM236 354q-3 16 0 31l12 12q5 2 28 2q18 -8 25 -22v-15l-20 -22l-19 -4l-16 6q-8 8 -10 12zM236 512v20l6 17l8 6q9 3 22 0l23 -14q2 -1 6 -9v-18l-4 -6q-14 -10 -25 -16 q-7 -1 -26 8q-8 8 -10 12zM236 909q6 13 20 23h10q16 -3 31 -14q3 -2 5.5 -7.5t4.5 -7.5q-2 -4 -8 -22q-6 -13 -27 -21h-14q-3 1 -16 14q-1 3 -3 10t-3 13.5t0 11.5zM242 244q1 16 19 16t26 -12l6 -15q-4 -15 -17 -20q-2 0 -7.5 -1t-8.5 -1l-16 8q-3 4 -3.5 8t0.5 9.5t1 7.5 zM242 719v18q8 20 22 25h21l8 -6q0 -1 4.5 -14.5t4 -15t-0.5 -15.5q-7 -7 -10 -13q-3 -1 -12.5 -4.5t-16.5 -3.5l-12 10q-2 4 -5 11t-3 8zM242 1044q-3 0 -2 18l2 17l8 8q13 4 35 0l14 -12q4 -8 0 -24q-6 -13 -27 -21l-22 6zM242 1208q-4 22 0 35q3 1 8 4t6 4h16l9 -6 q10 -19 0 -39l-13 -8q-9 -3 -18 0zM379 285q0 3 1 9t1 9q4 10 8 14t14 11h21q10 -6 16 -19v-18q-9 -17 -24 -25h-19q-11 6 -18 19zM506 309q10 19 39 19h16q15 -11 17 -19l-7 -20q-7 -9 -10 -13q-2 -1 -8 -4.5t-8 -5.5h-27q-15 15 -12 43zM645 324q11 13 29 20h20 q22 -7 29 -22q10 -38 -31 -50h-20q-21 8 -25 19q-2 10 -2 33z" />
<glyph unicode="M" horiz-adv-x="1511" d="M211 844q4 12 4 16q2 4 2 14q4 4 14 19q8 2 23 2q16 -6 29 -23v-12q-6 -28 -39 -37l-23 6q-3 2 -5 8t-5 7zM211 1028v25q9 16 22 22q11 0 22 -7t17.5 -15.5t10.5 -18.5v-8q-7 -14 -15 -20q-4 -1 -11.5 -3.5t-11.5 -3.5t-12 0l-14 11q-4 12 -8 18zM213 702q2 4 4 12t2 9 l14 10h27q18 -14 23 -20q3 -12 0 -25q-1 -3 -3.5 -5.5l-4 -4t-5 -3.5t-5 -3t-6 -3t-5.5 -3h-25q-24 12 -16 36zM229 354v27q18 45 60 22q7 -6 12 -24q-6 -31 -29 -39h-24q-14 7 -19 14zM229 526q7 14 7 25q4 10 8 14.5t14 7.5h8q17 -4 29 -28v-19l-8 -18l-21 -10h-12 q-14 0 -25 28zM236 225q2 4 4 12t2 9q13 16 28 14l25 -27q-3 -13 -8 -24l-13 -8q-12 -3 -24 0q-8 0 -12.5 7.5t-1.5 16.5zM236 1190v31q8 23 22 30q4 0 7 -2t6 -5.5t5 -4.5l19 -16v-21q-5 -9 -19 -20q-12 -4 -18 -8q-18 9 -22 16zM242 1350v22q7 25 30 31q23 -5 29 -17 q0 -1 1 -4t1 -4q0 -3 -1 -9t-1 -9q-6 -18 -22 -29h-15q-1 1 -4 2t-4.5 2t-4 2.5t-4 3t-3 4t-2.5 5.5zM375 1286v14q1 2 3 8t4.5 9.5t6.5 5.5t29 2q11 -9 16 -27v-12q-12 -17 -28 -20h-9q-13 5 -22 20zM455 1182v10q4 16 14 22q12 3 25 3q14 -5 14 -37v-4q-1 -3 -3 -5 t-4 -3.5t-4 -2.5t-4.5 -2t-3.5 -2h-14q-5 4 -12 12t-8 9zM543 1069q0 4 1 11.5t1 11.5l14 14h16l15 -12q2 -8 2 -13t-3 -9.5t-6.5 -7t-9.5 -5.5q-12 0 -14 -2q-12 6 -16 12zM647 975q13 26 23 29q3 0 6 -3q35 -9 43 -28v-12q-9 -15 -25 -23q-10 0 -18 -2l-19 12q-8 4 -9 8.5 t-1 18.5zM754 1028q0 3 1 8.5t1 7.5q2 9 14 17q1 0 3.5 1t4.5 1h8q18 -8 21 -27q-2 -4 -16 -18l-21 -6q-1 1 -4 2q-12 5 -12 14zM827 1118v27q2 2 8.5 8t8.5 8h8l16 -6l6 -8q3 -16 0 -31q-15 -11 -28 -14q-12 7 -19 16zM905 1245q2 2 2 4q6 18 23 21q1 -1 6.5 -3t8 -3.5 t5.5 -4t4 -6.5v-20q0 -9 -28 -23h-11q-1 2 -8 9q-2 4 -2 26zM985 1368q2 4 4 8.5t2 5.5q4 7 17 15h14q18 -12 18 -35q-12 -19 -24 -25h-15l-8 6zM1094 1124v19q2 2 2 6q10 13 22 18h25q8 -4 16 -16v-21q-4 -8 -16 -20l-15 -6q-4 -4 -10 -4q-3 0 -6 1t-5 2.5t-4.5 5t-3 4.5 t-3 5.5t-2.5 5.5zM1112 1292q-3 17 0 33q4 8 16 16q15 3 27 0q14 -7 29 -26q0 -14 -8 -25.5t-19 -17.5q-15 -4 -22 -2q-15 11 -23 22zM1118 211v12q6 26 27 31q16 -3 24 -14l7 -19q-7 -22 -27 -33h-8q-1 1 -4 2.5t-3.5 2t-3 2t-3.5 2.5l-2.5 2.5t-2.5 3t-2 4t-2 4.5z M1118 819v15q6 23 33 32q1 0 4.5 -1t5.5 -1q37 -15 15 -59q-8 -8 -18 -10.5t-19 4.5zM1118 961v14l17 24q3 1 18 11h6l19 -6l10 -13q3 -3 1.5 -9.5t-1.5 -7t-3 -5.5t-3 -6q-2 -2 -5.5 -6t-6.5 -7t-7 -6q-13 -3 -26 0q-14 7 -19 17zM1120 1413q3 8 10 19l21 6q17 -8 20 -17 q0 -1 1.5 -5.5t1.5 -6.5l-7 -8l-18 -10h-8q-4 0 -8 2zM1124 356v19q10 20 35 31q2 -1 6.5 -3t7.5 -3.5t6 -4.5t5 -6v-20q-5 -10 -23 -23q-13 -3 -26 0l-7 6zM1130 680l17 18q2 2 14 4q2 -1 7.5 -4t8.5 -5t7 -6t6 -9q1 -4 -0.5 -8t-5 -9.5t-4.5 -7.5l-19 -12h-14 q-4 2 -6.5 4.5t-4.5 5.5t-3 4q-6 12 -3 25zM1139 498q-12 23 18 53h10q18 -9 23 -19v-24l-14 -23q-11 -3 -25 0z" />
<glyph unicode="N" horiz-adv-x="1527" d="M242 170v12q6 19 32 13l7 -7l8 -6q4 -10 -6 -20l-17 -8q-19 8 -24 16zM242 266v10q8 10 22 21h21q5 -2 10 -16v-11q-2 -9 -16 -20h-19q-11 6 -18 16zM242 356q0 8 3 19.5t3 19.5q5 9 10 13q23 0 39 -23v-23l-14 -14q-1 0 -5 -2t-5.5 -2.5t-5 -1.5t-5.5 -0.5t-5 1.5t-5 3z M242 504q-2 9 8 33q5 4 22 4q13 -9 13 -17l6 -14q0 -10 -2 -16l-4 -5q-10 -4 -27 -4q-9 4 -16 19zM242 1161q3 7 8 25l6 6h25l14 -6l6 -8q2 -7 1 -13t-4 -10t-7 -6l-10 -10h-21q-5 3 -10.5 11.5t-7.5 10.5zM248 612v11q0 6 8 14q4 8 8 12h21q4 -1 6.5 -4t3.5 -5.5t3 -6.5 l3 -6v-2l-6 -21l-8 -8q-19 -4 -31 0zM248 748q0 5 4 12t4 8q1 0 6.5 3t9.5 3l17 -6q12 -16 12 -31q-2 -4 -10 -12l-17 -8q-4 -1 -6.5 0t-5.5 3.5t-4 2.5q-3 5 -6 13.5t-4 11.5zM248 1370q2 3 6.5 7.5t5.5 6.5q4 2 23 2l18 -8l12 -12q2 -10 2 -27q-6 -13 -28 -22q-4 0 -4 2 l-11 -4l-6 3t-6.5 3t-5.5 3.5t-4 6.5q-5 16 -2 39zM250 879l6 22q14 3 23 8q10 -6 22 -22v-8v-9l-10 -14q-12 -4 -24.5 -1.5t-12.5 11.5q-4 8 -4 13zM254 1004v28q3 3 11 8t11 7l25 -21l6 -12q-3 -17 -14 -25q-9 -5 -23 0q-11 7 -16 15zM358 1229q5 19 21 31h14q11 -4 16 -7 t10 -9.5t7 -16.5q0 -7 -4 -23q0 -8 -21 -22h-12q-4 6 -16 14zM461 1087v3q4 16 28.5 20t30.5 -14q4 -8 4 -11q-3 -23 -28 -36h-13q-10 5 -16 14zM563 971q1 1 2 4.5t2 5.5q2 10 15 14q1 0 3 1t3 1l20 -4q5 -7 15 -14v-29l-11 -10h-34l-9 6zM647 821v17l12 16l25 6 q13 -6 23 -20v-9q-3 -13 -13.5 -24t-25.5 -6q-3 3 -10 10.5t-11 9.5zM731 741q2 6 17 17h14l14 -6q2 -2 4 -8t4 -7v-8q-5 -18 -12 -24q-30 -6 -37 16q-4 6 -4 20zM805 600q0 3 2 12.5t2 12.5q0 10 4 16l12 8q9 -2 15 -6.5t8.5 -8t9.5 -13.5v-23l-14 -14q-16 -3 -29 0 q-4 2 -6.5 8.5t-3.5 7.5zM889 508v10q3 1 7 4t7 4.5t6 1.5q25 -6 39 -28q0 -1 1 -5t1 -6v-12q-11 -13 -28 -20q-17 0 -26.5 17t-6.5 34zM967 354q8 12 18 17h19q17 -8 30 -35q-4 -7 -8 -25l-14 -12h-15q-20 7 -28 23q-2 5 -2 32zM1116 207v2l6 20l3 4t5 5h15l22 -15l7 -12 q2 -3 1 -7t-2.5 -6.5t-3 -6t-2.5 -5.5q0 -3 -2 -5t-6 -2.5t-6.5 -0.5h-8h-7.5q-16 15 -21 29zM1126 348q13 17 23 23h14l17 -9l6 -20v-6l-6 -17l-13 -12q-10 -5 -26 -2l-6 8q-2 6 -2 19q-7 9 -7 16zM1133 612v27q2 3 4.5 8t5 8.5t6.5 6.5h12l17 -9l16 -26q0 -3 -1 -8t-1 -7 q-5 -16 -27 -20q-19 0 -32 20zM1133 952q10 10 22 17q13 3 19 -6q1 -2 7.5 -9.5t10.5 -9.5v-4q0 -1 1 -2t1 -2q0 -2 -2 -2l-6 -16q-3 -1 -11.5 -5.5t-12 -4.5t-15.5 3q-4 0 -12 15q-2 8 -2 26zM1135 459q-4 12 0 35q6 13 22 22h8l5.5 -3.5t9.5 -4.5q10 -23 10 -37 q0 -6 -1.5 -10.5t-3 -6t-6 -5.5t-5.5 -5q-13 -3 -25 0l-8 7zM1135 1348l6 22l6 8q12 6 14 8l19 -8q4 -3 6.5 -8t3.5 -9.5t2.5 -10t3.5 -9.5q0 -20 -18 -32q-20 -5 -37 12zM1139 768q-2 15 2 39q2 5 5 8t9.5 5t7.5 3l21 -6q13 -22 8 -37q-2 -4 -5 -7.5t-7 -7t-6 -5.5 q-3 -2 -23 -2q-3 1 -12 10zM1141 1198q-1 3 0 6t3 7l3 6l14 12h15l16 -6q12 -16 12 -31q0 -1 -1 -3t-1 -3q-14 -14 -20 -17h-13q-4 2 -9 4q-7 3 -9 5.5t-8 14.5q-1 3 -2 5zM1145 1065v27l2.5 5t2 4.5t2 4t3 3.5t3.5 2.5t5 2t6 0.5l17 -8q4 -3 6.5 -6.5t4.5 -8t3 -6.5v-16 q-6 -15 -16 -20h-2q-13 0 -17 -2q-4 2 -7.5 5t-7 7t-5.5 6z" />
<glyph unicode="O" horiz-adv-x="1685" d="M260 727q10 21 16 25q7 2 18.5 1.5t18.5 0.5q18 -7 33 -37q-2 -2 -2 -8q-29 -43 -61 -27q-10 5 -21 20q0 4 -1 12.5t-1 12.5zM281 885l4 22l8 25l12 12q14 6 29 2q17 -7 24 -28q0 -3 -2 -9t-2 -8q-2 -6 -2 -16q-5 -5 -20 -23h-13q-20 0 -24 2q-2 0 -6 4zM322 530v31 q3 4 8 11.5l8 12t10 8t17 3.5h14q6 -1 10.5 -5t6.5 -6.5t6 -10.5t4 -9q-7 -14 -7 -26q-4 -5 -26 -27q-13 0 -17 -2q-2 0 -5.5 1t-4.5 1q-5 2 -9 5t-8 7t-7 6zM340 1077q4 16 27 39h28l11 -6l6 -10q4 -19 -4 -29q2 -2 2 -6l-4 -18l-17 -9h-27q-5 2 -16 13q0 4 -2 6 q0 4 -2 10.5t-2 9.5zM420 414q12 35 33 49h10q2 -2 8 -5.5t8 -4.5l19 -25q-1 -6 -0.5 -25.5t-1.5 -25.5q-5 -10 -19 -15q-8 -4 -22 1.5t-15 5.5l-14 10q0 1 -3.5 14.5t-2.5 20.5zM473 1204q-2 15 14 43q17 8 25 8q21 -5 29 -19.5t-4 -33.5q-14 -10 -37 -16q-15 0 -27 18z M545 336q11 22 24 31h33q10 -10 12 -11q4 -6 6.5 -13.5t4.5 -15t4 -12.5q-1 -1 -3.5 -6t-4 -7t-4.5 -5t-7 -4h-6q-8 -6 -26 -6q-4 0 -11 4t-12 4l-8 8q-2 10 -2 33zM621 1303q1 2 0.5 8.5t1.5 7.5q0 10 8 22q13 10 33 17q33 -9 43 -41q1 -3 -2 -8.5t-3 -8.5 q-7 -12 -13.5 -18t-20.5 -14h-27q-10 4 -17.5 14t-2.5 21zM696 258l9 18l10 9l26 8l13 -6q2 -4 6.5 -12.5t9 -14.5t10.5 -10l-4 -8q-4 -14 -14 -17q-2 0 -10 -4h-25q-12 4 -18 8q-4 7 -11 11q-2 6 -2 18zM842 1303v12l6 14q13 18 22 23q16 3 35 0l15 -15v-26q-1 -2 -2 -4.5 t-2.5 -4t-3 -3.5t-3 -3.5t-2.5 -3.5q-2 0 -7 -1t-7 -1q-8 -4 -10 -4h-17q-16 5 -24 17zM866 287q8 26 41 43h15q3 -3 7 -5.5t7.5 -4.5t7.5 -5.5t6 -7.5v-8q-2 -8 -11 -20.5t-11 -16.5l-19 -10h-20q-23 11 -23 35zM1018 1235q-3 12 0 27l12 26l17 8h18q1 0 3 -1t3 -1 q15 -11 23 -22q1 -8 0.5 -11.5t-3.5 -10t-4 -9.5l-16 -20l-16 -7h-5t-4 2t-4 3q-14 0 -24 16zM1024 340q0 2 2.5 8t3.5 10l12 13l13 6l20 -6q10 -5 21 -23v-8l-4 -4q-6 -18 -9 -21q-2 -2 -18 -10h-10q-28 6 -31 35zM1151 406q-4 12 -1.5 24t9.5 19l23 12q16 -4 24 -4 q4 -3 7 -6.5t5.5 -8.5t4.5 -8v-14q-6 -12 -17.5 -21.5t-25.5 -9.5q-2 0 -4 0.5t-4.5 1t-4.5 0.5q-9 4 -16 15zM1169 1198q1 2 7 19l14 14q34 0 41 -2l16 -15v-26l-10 -19l-18 -10h-21q-2 1 -5.5 2t-4.5 2q-2 0 -5 1t-5 1q-15 15 -9 33zM1253 561q8 8 11 17q4 7 18 18h4 q19 0 26 -2.5t13 -13.5v-21q-2 -2 -2 -4q-6 -9 -18 -18q-1 0 -3.5 -1t-3.5 -1l-10 -5h-18q-17 4 -17 31zM1266 1061l6 22q2 1 4.5 4t3.5 3t6 1t8 2.5t6 4.5h15q22 -13 22 -43q-6 -13 -8 -19l-18 -16h-6q-4 3 -12.5 7.5t-13.5 7.5t-9 10t-4 16zM1321 891q0 2 1 5t1 5 q4 19 18 27q18 4 41 -6q15 -15 9 -43q-15 -30 -41 -21q-8 4 -11 4q-9 8 -18 29zM1325 717l8 20q3 8 13 15q14 3 28 0q1 0 3.5 -1.5t3.5 -2.5t3.5 -2.5t3.5 -2.5l2.5 -2.5t2 -3.5t0.5 -4t4 -10q-1 -3 -4 -7t-4 -5q-4 -15 -25 -23h-18q-14 11 -21 29z" />
<glyph unicode="P" horiz-adv-x="1042" d="M231 274q8 8 0 23q4 7 17 16h12q4 -1 8.5 -4t5.5 -4q16 -16 9 -35l-11 -10l-16 -6h-4l-12 6q-6 6 -9 14zM233 164q-9 19 9 37l16 6q10 0 27 -17v-18q-3 -5 -25 -16q-8 -1 -27 8zM236 1061q1 2 3.5 8t2.5 8q3 12 12 15h14q19 -12 25 -21q0 -1 1 -4t1 -4l-6 -23 q-7 -10 -21 -20q-10 0 -24 10l-6 14q0 2 -1 8t-1 9zM238 532q-4 15 6 37q14 15 16 15q6 1 14.5 -4t10.5 -5q4 -4 12 -20v-14q-9 -14 -23 -23h-14q-18 9 -22 14zM238 1188v26q4 11 16 17h14q14 -7 15 -8q5 -10 8 -13q3 -15 0 -30q-6 -6 -8 -6q-6 -3 -25 -3l-16 9zM238 1352 q-7 49 16 61h18l17 -8q6 -12 8 -14q0 -7 -3 -19t-3 -20l-8 -15q-14 -14 -31 -8q-10 10 -10 14q-4 4 -4 9zM242 397v23q13 27 39 18l16 -20v-17q0 -1 -3.5 -5.5t-4.5 -8.5q-14 -7 -15 -8h-14q-10 5 -18 18zM244 705v24q3 18 22 25q26 -11 35 -27q0 -2 1 -4.5t1 -3.5v-8 l-8 -17l-8 -6q-14 -3 -29 0l-8 6zM246 946l6 6q4 0 10.5 1t9.5 1q27 -18 35 -41q0 -1 1 -3t1 -3v-8q-10 -17 -24 -25h-27q-14 10 -19 32t7 40zM365 588q5 21 6 22v1q4 9 7 14t10.5 10t17.5 2q18 -9 22 -14q2 -4 2 -29q-14 -17 -37 -27q-6 0 -22 8zM387 1360v22q3 5 8 19 l13 10q8 2 22 2q15 -8 25 -24v-21q-7 -6 -9 -14q-2 -1 -4 -3t-3.5 -4.5t-2.5 -3.5l-4 -2l-24 -6h-5q-16 11 -16 25zM510 649l6 13l19 16q12 6 36 -4q1 0 2 -1t2 -1q5 -5 13 -21q0 -1 -1 -4t-1 -4l-6 -10l-9 -10q-15 -9 -41 -9q-4 4 -6 4q-1 1 -2 3t-2.5 3.5t-3.5 2.5z M526 1337q4 8 9 23q3 9 22 16q16 -4 29 -18q0 -2 1 -5t1 -5q4 -4 4 -9v-16q-1 -5 -4 -8.5t-9.5 -9.5t-7.5 -7h-20q-4 1 -6.5 3t-6 6l-3.5 4q-1 5 -4.5 14t-4.5 12zM641 1251q9 32 14 39l15 6q5 0 11.5 -2.5t8.5 -3.5l4 -5.5t7.5 -9t5.5 -3.5q2 -8 2 -23l-9 -16l-8 -8h-35 q-6 3 -16 26zM653 727q11 27 23 27h20q4 -4 9 -4l16 -19q-2 -4 -2 -8q-4 -10 -23 -25h-26q-12 11 -17 29zM725 844q0 6 2 8l6 14q3 1 7.5 3t8.5 3.5t7 1.5l16 -6q0 -2 2 -2l6 -14v-14q-2 -2 -2 -7q-14 -14 -18 -16q-6 0 -12 -2l-21 21q0 2 -1 5t-1 5zM731 1102q0 4 1 11.5 t1 10.5q6 9 10 11h15q18 -9 22 -19v-24l-3 -7.5t-5.5 -10.5t-7.5 -5h-14q-10 3 -13 16q0 2 -1 4.5t-2.5 6.5t-2.5 6zM743 979q4 5 13.5 14.5t13.5 14.5q4 0 7 -1.5t5.5 -5t4 -5.5t4 -7t2.5 -6v-6q-10 -24 -31 -29q-19 5 -19 31z" />
<glyph unicode="Q" horiz-adv-x="1619" d="M217 655q4 10 5 13t5 10t9 10t12 4q6 -1 16 -6l12 -6l7 -23q-1 -6 -6 -11t-8.5 -7t-13.5 -6.5t-11 -5.5q-7 0 -11 2zM223 819v27l8 14l5.5 3.5t9.5 4.5q14 2 28.5 -5.5t14.5 -20.5q3 -22 -17 -33q-1 0 -4.5 -1t-5.5 -1l-8 -4l-23 6zM254 1008q0 30 29 49h20 q13 -10 23 -23q-2 -2 -2 -8l-13 -22q-2 -4 -7.5 -8t-6.5 -5q-6 -2 -18 -2h-13q-4 3 -6 6t-3.5 7t-2.5 6zM276 500q-1 5 3 26l4 6l16 17h25q9 -4 18 -17q6 -14 2 -28q-12 -16 -22 -21q-10 -2 -33 -2q-4 2 -6 5t-4 7.5t-3 6.5zM356 395v11l17 24q2 1 6 3.5t6.5 3.5t7.5 2t8 -1 l19 -16q4 -6 4 -19q-8 -16 -16 -22q-1 0 -2.5 -1t-2.5 -1q-4 1 -24 -4q-1 0 -3 1t-3 1q-10 7 -17 18zM356 1182v20q5 12 23 23h18q12 -4 13 -4q29 -18 -7 -54l-14 -4q-8 0 -12 -2q-8 4 -17 13zM477 317q6 19 19 35l16 8h20q8 -3 17 -22v-19q-4 -13 -23 -24h-26 q-19 10 -23 22zM518 1296q10 22 25 33h26q9 -5 17 -16v-29q-11 -15 -35 -27h-14q-2 1 -3.5 2l-3 2t-2.5 1l-8 16q0 12 -2 18zM604 270q0 6 3 16.5t5 12.5q3 4 7 6t9.5 3.5t8.5 2.5q9 6 31 -4l6 -8q-4 -20 -4 -25l-25 -26q-1 0 -3 -1t-3 -1h-16q-12 7 -19 24zM688 1327v7.5 v8.5v8t1 8.5l2 7t3 6t4 3.5h11l10 -6h8q7 0 14 -8t7 -14q-5 -27 -35 -37q-14 0 -25 16zM750 291l12 18l10 6q12 2 16 2t12.5 -3t10.5 -3l16 -20q1 -2 0 -7t-1.5 -6.5t-3 -5.5t-3.5 -6l-16 -18q-35 -17 -41 8q-1 3 -5 6.5t-5 5.5q-2 3 -2 23zM834 1335v25q6 10 22 22 q2 1 5.5 2t4.5 2l7.5 -3t10.5 -5.5t5 -7.5v-24q-17 -21 -29 -29h-10q-1 0 -2 1q-4 2 -5.5 3t-4 3t-3.5 4.5t-1 6.5zM936 305v12q7 20 18 29l23 10q27 -14 27 -37l-9 -16l-12 -12q-5 -2 -25 -2q-20 15 -22 16zM975 164l12 24q5 5 12 5l9 6h18q11 -4 18 -19v-20l-12 -15 q-4 -1 -9.5 -2.5t-9 -2.5t-9 -2t-9.5 1q-12 5 -20 25zM975 1313l14 24q5 4 27 4l16 -10l6 -14v-14q-9 -15 -22 -23h-25q-5 5 -7.5 10t-5 13t-3.5 10zM1028 57v15q0 1 1 3t1 3q11 11 21 16h20l16 -14q1 -3 1 -6.5t-0.5 -8.5t-0.5 -8q-2 -4 -5.5 -7.5t-6.5 -5.5t-8.5 -5 t-7.5 -4h-8q-8 3 -11.5 5t-6.5 6t-5 11zM1057 391v12q11 18 24 23h15q16 -10 20 -31q-7 -20 -22 -28h-19q-9 5 -18 24zM1081 -18q10 13 25 22h14q18 -12 21 -27q-4 -11 -19 -30l-14 -8q-11 -2 -27 14v29zM1116 1214q0 11 4 15l19 12q0 2 4 2q20 0 28 -16q0 -2 1.5 -7t1.5 -8 q-10 -13 -25 -22q-2 1 -8 4.5t-8 5.5q-2 0 -6 1t-5 1q-6 6 -6 12zM1137 479q4 12 4 19q2 6 2 16l12 14q21 4 31 2l14 -12q4 -12 8 -18l-8 -17q-1 -1 -3.5 -3t-4.5 -4t-4 -5q-2 0 -7 -2.5l-7 -3.5q-14 -3 -27 0q-3 2 -6 7t-4 7zM1180 1096q4 14 20 26h21q17 -10 22 -22 q-4 -21 -20 -31h-21q-7 4 -13 14t-9 13zM1202 631v14q1 1 2 4t2 4t2 3.5t2 4t2.5 3.5t3 3.5t3.5 2.5l4 2l4 2q6 2 14 -2t12 -4q8 -4 13 -15t0 -20q-2 -3 -7 -8t-6 -7q-16 -8 -20 -8q-4 -1 -8 0t-7.5 3t-5.5 3zM1239 932v16q1 1 4 7t4.5 8t5 5.5t7.5 4.5q1 0 3 1t3 1 q4 0 20 -4l12 -17q0 -25 -32 -41l-15 5q-2 4 -12 14zM1245 768l4 6q-2 2 -2 6q5 20 33 29h14q17 -10 17 -25l-8 -18q-1 -1 -3 -2t-2 -2l-20 -12q-17 -4 -25 0q-2 0 -2 2z" />
<glyph unicode="R" horiz-adv-x="1105" d="M225 610v21q6 8 17 16h20q14 -7 17 -18v-13l-5 -8l-16 -14h-14q-13 3 -19 16zM225 756v18q11 23 21 29q2 1 4.5 1t3.5 1q10 -6 13.5 -9t11.5 -14q3 -16 -1 -27.5t-16 -11.5q-2 0 -6 -2t-6 -2q-13 -7 -25 17zM225 924l6 24q16 16 23 19h6q10 0 31 -21q0 -3 1 -7.5t1 -6.5 q-1 -2 -4 -7l-4.5 -7.5t-4 -5.5t-6.5 -5q-8 0 -24 -4l-14 6q-3 2 -6.5 8t-4.5 7zM227 436q-15 23 0 53q6 7 23 7q25 -14 29 -31v-12q-7 -7 -27 -17q-3 1 -7 2t-6.5 1.5t-5.5 0t-6 -3.5zM231 221l9 21q1 1 2.5 2t3 2.5l3.5 3.5t3 4h16q4 -1 15 -12q10 -19 8 -27 q-3 -7 -21 -20q-2 0 -6 -1t-6 -1h-10l-15 10q-5 8 -2 18zM231 342v29l7 8l26 8q27 -20 27 -37l-6 -16l-17 -8h-20q-11 8 -17 16zM231 1079l15 25q4 4 12 8q24 0 33 -14v-23l-10 -14l-19 -8q-8 0 -12 -2q-15 11 -19 28zM231 1358q1 8 15 31l12 8q2 1 7 0t6.5 -1.5t5.5 -3 t6 -3.5q2 -2 5.5 -8.5t4.5 -8.5q0 -3 -1 -9t-1 -9q-12 -25 -43 -17l-8 6zM238 1227l6 22q7 11 16 15h21q11 -7 16 -17v-14q-8 -19 -33 -29q-4 0 -7 1t-6 2.5l-5 2.5zM358 1348v20l4 9.5t9 11.5q6 2 16 2q4 -1 6.5 -3t6 -6l3.5 -4q6 -13 3 -26q-4 -6 -23 -15h-14q-7 4 -11 11 zM399 666q1 1 11 16q8 8 20 14q2 -2 8 -2q15 -9 23 -20q3 -11 -1 -20.5t-8 -13.5t-14 -11h-28l-7 8q-4 10 -4 29zM479 1374q19 31 39 4q2 -2 2 -4q8 -16 -14 -31q-13 -3 -25 9q-2 4 -2 22zM541 662q-7 21 14 32h6l23 -12l10 -8v-23l-10 -8q-32 -6 -39 8q0 7 -4 11zM590 1364 q19 16 35 20q1 -1 7 -3.5t8 -3.5t4.5 -5t2.5 -10q-6 -24 -29 -37q-1 0 -4.5 -1t-5.5 -1t-5 1t-5 1q-6 9 -6 14q-9 12 -2 25zM612 516q0 5 4 14.5t5 12.5l12 12q3 2 9.5 1t9 -1.5t8.5 -2.5t8 -3q2 0 3.5 -1t2.5 -2t2 -1q5 -9 8 -23q-4 -12 -8 -18l-14 -12q-16 -6 -33 -3 q-8 5 -17 27zM666 385v21l6 10q0 8 2 13.5t5.5 9.5t10.5 7h19q14 -5 22 -28v-15l-6 -12l-20 -16h-29zM668 690q4 12 4 15v14q6 12 18 18h15q10 -6 26 -26v-19l-6 -12q-1 0 -5.5 -2.5t-5.5 -3t-5.5 -2t-7 -1.5h-7t-8.5 1zM698 1290q2 5 2.5 13t1.5 10q12 19 39 8l15 -18v-17 q-2 -4 -4.5 -6.5t-7 -6.5t-7.5 -7q-12 -3 -24 -9q-26 17 -15 33zM702 295v20q8 19 21 29h16q13 -5 23 -22q3 -13 0 -27l-6 -8q-14 -4 -21 -8q-14 5 -33 16zM739 784v13q0 1 3 7.5t4 9t3.5 8t5 8.5t6 6t7.5 4q9 0 19.5 -13t17.5 -26q0 -5 -4 -12.5t-4 -8.5q-7 -7 -20 -10 t-23 0q-1 1 -7 5.5t-8 8.5zM741 209q6 13 13.5 19t23.5 12q18 -3 21 -13v-16q-9 -19 -15 -23q-4 -2 -28 -2q-9 7 -15 23zM764 1186v18q4 17 20 23h17l14 -6l14 -23v-8q-5 -9 -18 -16h-31zM780 905v29q17 17 25 20l20 -8q1 -2 11 -12v-21l-7 -10q-12 -4 -18 -8h-10zM788 1040 q-2 5 -2 11t1 12t1 8q3 9 12.5 15t20.5 6q12 -4 16 -8t11 -19v-8l-6 -8l-17 -15q-3 0 -8.5 -1t-7.5 -1t-6 1t-6 1z" />
<glyph unicode="S" horiz-adv-x="1171" d="M215 401v5l8 16q1 2 21 12h14q7 -9 16 -31q-7 -22 -18 -22l-18 -6q-23 11 -23 26zM289 311l4 23q11 13 29 28h14q15 -6 24 -22v-12l-4 -8t-4 -11q-6 -3 -12 -12q-5 0 -21 -4q-1 0 -7 1t-11 1zM326 1083l6 21q4 6 20 18h15q9 -3 16 -14v-31q-35 -28 -49 -14q-2 2 -2 4z M338 1204q-2 4 -3 8t0 9t1.5 8t3 9t2.5 7q3 1 8.5 6t7.5 6h15q12 -8 16 -16v-16q-9 -17 -33 -27q-4 0 -7 1t-6 2.5zM360 952v15q5 13 23 24h20q18 -13 21 -20q-1 -2 -2 -6.5t-2 -7.5t-2.5 -6.5t-4 -5.5t-5.5 -3q-1 0 -13 -4h-18q-9 2 -17 14zM387 266l6 17l13 12h16 q1 -1 6.5 -3.5t8.5 -5.5t5 -7t2 -25q-14 -21 -38 -25q-13 3 -19.5 13.5t0.5 23.5zM416 1327q2 3 2 19q2 2 8 2l4 2q8 4 10 4h4q13 -8 17 -15q13 -6 0 -32l-15 -13h-14q-7 3 -14.5 15t-1.5 18zM459 866l6 19q1 2 3.5 3t5 2.5t3.5 4.5h21q15 -6 18 -18q-5 -16 -24 -35l-15 -6 q-8 8 -12 10zM500 215v14q7 17 22 23h8q5 0 9 -4l18 -23q2 -4 2 -10q-2 -8 -10 -25q-8 -3 -19 -10q-10 2 -22 10q-1 1 -4.5 11t-3.5 14zM524 1358q-4 16 1 28t16 15h12q14 -6 22 -21v-8q0 -9 -3.5 -14t-10.5 -8.5t-10 -6.5l-21 7zM541 809v14q0 6 3.5 13.5t4.5 9.5h12 q6 0 14 -8q8 -4 13 -9q2 -4 2 -12q0 -3 -0.5 -5.5t-1 -4t-2.5 -3.5t-3 -2.5t-4 -2.5t-3.5 -2t-4.5 -2l-4 -2q-5 0 -10 3t-6 3zM614 236v16l9 16q0 2 2 2l12 6q28 -6 37 -34q-2 -3 -5 -13t-7 -16t-11 -6q-12 -2 -23 7.5t-14 21.5zM631 1366q3 23 24 35h19q5 -2 8.5 -5t8 -8 t5.5 -6q7 -21 -20 -41h-12q-27 12 -33 25zM647 772q0 1 5 2q3 1 5 2q30 0 41 -33q0 -2 -1 -4.5t-1 -3.5q-8 -12 -16 -16h-25q-16 4 -17 22t9 31zM711 324l6 10q0 11 14 18q2 0 6 4q10 3 21 -8q2 -8 10 -24q0 -2 -1 -7t-1 -8q-3 -6 -21 -14h-18q-16 11 -16 29zM717 647 q-3 13 0 25l10 20q8 11 27 8q2 -2 14 -6q21 -28 -33 -53h-10q-6 6 -8 6zM748 1311v26q3 14 22 21h2l21 -12l8 -17v-12q-9 -18 -23 -23l-22 6zM764 440v21q1 1 3 5t3 5.5t3.5 4.5t4.5 4t5.5 2t7.5 1q14 -3 22 -10.5t12 -23.5q-2 -8 -9 -15.5t-15 -9.5q-1 0 -3.5 -1t-4.5 -1 t-6 1t-5 1q-13 7 -18 16zM772 553q-2 14 0 35q2 4 5.5 6.5t8.5 4.5t7 3q3 1 9.5 -1.5t8.5 -2.5q14 -19 14 -35q0 -2 -1.5 -4.5t-2.5 -4t-3 -3t-3 -2.5t-4 -3t-4 -3h-19zM819 1231v20q0 1 1 3t1 3q3 2 7.5 9.5t9.5 11.5t12 2q1 0 3.5 -1t4.5 -1q17 -4 21 -10q0 -2 1 -6.5 t1 -6.5q4 -8 4 -10q-9 -18 -13 -22l-16 -9l-12 7q-15 0 -25 10z" />
<glyph unicode="T" horiz-adv-x="1320" d="M127 1337v13q3 14 23 24h12q11 -7 18 -24q-1 0 -1 -1t-1 -1q-14 -18 -20 -23h-15q-10 0 -16 12zM225 1315q-11 34 6 51l11 6l22 -6q8 -8 12 -10l5 -17l-11 -22l-16 -10h-21zM326 1331q1 6 6 16.5t6 12.5l16 8q12 3 27 0l6 -6q2 0 3.5 -2.5t1.5 -6.5v-8t-0.5 -8.5 t-0.5 -5.5q0 -2 -2.5 -6.5t-6.5 -9t-5 -6.5l-19 -4h-4q-3 4 -13 10.5t-13 13.5zM453 1335v15l12 20l20 10q9 0 20.5 -6t14.5 -12l4 -4v-15q-4 -7 -13 -16.5t-11 -11.5l-25 -6q-22 16 -22 26zM567 1190v10l15 21l14 8h18q12 -6 19 -17q0 -1 1 -3t1 -3q-6 -25 -31 -37h-14 q-10 4 -23 21zM573 823l7 15v6q6 8 22 16q18 0 31 -22v-17q-6 -12 -29 -20h-12q-4 1 -7.5 4.5t-7 10t-4.5 7.5zM573 950q0 12 5 19q1 2 1.5 8.5t2.5 9.5l14 12h12q20 -7 31 -34v-17q-15 -14 -21 -16q-2 0 -5 -1t-5 -1q-4 -2 -8 -2q-6 0 -12 3.5t-9.5 8.5t-5.5 10zM573 1069 v6v10q7 29 21 29q2 0 14 4q3 -2 10.5 -5t12.5 -7t8 -10v-11l-6 -16q-5 -3 -17 -7t-18 -9q-3 2 -7.5 3.5t-7.5 3t-6 4t-4 5.5zM573 1356q10 20 17 24h20q0 -2 4 -2q14 -11 19 -20q3 -13 0 -23q-12 -15 -23 -20q-1 0 -4 -1t-4 -1q-5 0 -9 2.5t-6.5 4.5t-6.5 7t-5 6q-2 4 -2 23 zM575 385q5 20 21 29h14q14 -9 19 -11q2 -6 10 -18q0 -5 -0.5 -8.5t-2.5 -6.5t-3.5 -5t-5 -4.5t-5 -3t-6.5 -2.5t-6 -3q-6 0 -10 2l-18 13zM580 238v12q5 15 26 29h4l23 -7q5 -2 10 -12t2 -16l-8 -25q-1 -2 -21 -10q-2 -2 -10 -2q-6 0 -10.5 4t-6.5 7.5t-5 11t-4 8.5z M580 551q0 1 2 5.5t3.5 8.5t3.5 8t4.5 6.5t4.5 2.5h20l7 -7q12 -20 14 -30q-3 -16 -23 -23q-8 0 -12 -2q-2 1 -6.5 4t-6 3.5t-4.5 3.5t-4 5t-2 6t-1 9zM580 678l8 24l12 13q10 0 16 2q2 -2 8.5 -5.5t8.5 -4.5l6 -23l-8 -16l-8 -6q-22 -4 -33 0q-4 2 -6.5 8.5t-3.5 7.5z M700 1343q1 1 2.5 5t2.5 5.5l3 4.5l3 4.5t3 4t4.5 3.5t4.5 2h14q11 -6 14.5 -9t10.5 -13v-13q-4 -4 -8 -16q-13 -9 -23 -12l-16 6q-3 4 -8 14zM821 1331v27q7 7 25 14q17 -3 31 -20q0 -2 -1.5 -7.5t-1.5 -7.5q-10 -17 -24 -24h-10q-1 0 -4 1t-5 1t-2 2zM936 1319 q-15 7 -16 25t18 24l6 4l23 -6q3 -7 10 -10q3 -12 0 -21l-10 -14q-10 -2 -31 -2zM1020 1352l14 14h4q4 0 12 1t15.5 1t13.5 -2q5 -13 2 -29q-11 -18 -24 -22h-19q-12 3 -15 11.5t-3 25.5z" />
<glyph unicode="U" horiz-adv-x="1234" d="M209 958q10 32 27 39q3 0 8.5 -3t9.5 -3q2 -4 10 -12q1 -4 4.5 -12.5t3.5 -14.5q3 -6 -4 -10q-6 -10 -16 -16h-8q-13 2 -29 18zM215 797q0 1 1 3t1 3q-3 3 0 8l10 20q3 9 15 15q13 -7 26 -24q3 -3 4 -5q3 -13 0 -26q-2 -4 -5.5 -7t-8.5 -5.5t-8 -4.5h-14l-2 1 q-29 12 -19 22zM215 1128q7 12 25 19q13 -4 19 -7t11.5 -10t8.5 -18v-14q-4 -5 -21 -21h-22q-10 5 -17 15q-2 5 -1.5 18t-2.5 18zM223 602q-20 39 6 70l7 4h8l14 -6q0 -2 4 -6q0 -7 6 -18t11 -13v-23q-5 -9 -15 -16q-8 -2 -22 -2q-1 1 -19 10zM231 1237v23q7 13 23 20 q10 -3 15.5 -6t7 -4.5t4.5 -8.5t4 -10v-14q-12 -15 -23 -20h-14zM231 1360v18q0 9 10.5 19t20.5 10q3 1 7 -0.5l8 -3t6 -0.5l8 -17v-20q-7 -15 -31 -25h-12q-10 5 -17 19zM238 444q-3 13 0 27q14 25 22 31h14q7 -2 11 -7.5t7 -15.5t5 -14v-16q-1 -4 -3 -6.5t-6 -4.5l-6 -3 t-8.5 -3t-7.5 -2h-12q-12 8 -16 14zM315 350q8 20 17 31l14 6h14q4 -5 8.5 -10t5.5 -7.5t2 -10t1 -23.5l-6 -6q-2 -3 -11 -8q-19 -3 -34 0q-11 15 -11 28zM442 276q0 28 13 41l14 7q15 -5 18 -5q9 -13 11 -14v-16l-13 -15q-4 -3 -20 -8h-12q-1 2 -5.5 5.5t-5.5 4.5zM539 270 v13q3 8 12 12.5t12 7.5q2 0 6.5 -1t5.5 -1q14 -6 17 -18q-4 -15 -14 -23l-13 -6l-20 8zM649 283v14q9 21 21 29q16 -4 26 -9q5 0 13 -8v-20l-9 -15q-16 -5 -20 -8h-21q-6 4 -10 17zM764 362v21q3 10 16 16h19q15 -7 18.5 -19.5t-8.5 -25.5l-14 -10h-15q-9 5 -16 18zM817 508 q0 1 1 4t1 4q4 7 6.5 9.5t5.5 5t11 6.5h18l23 -13l6 -14v-10q-6 -11 -29 -23h-16q-8 0 -12.5 4.5t-9 14.5t-5.5 12zM848 625v16q1 1 3 5.5t3 7t3.5 5.5t6.5 5q13 3 29 0q12 -12 14 -15v-26q-3 -10 -13 -16.5t-22 -6.5q-11 0 -22 18q0 3 -2 7zM866 770q-4 15 8 39l11 8 q2 0 6 2t6 2q24 -9 29 -22v-21q-6 -13 -21 -20q-16 -4 -24 -2q-10 7 -15 14zM866 1087l6 19q9 8 14 11.5t14 4t20 -5.5l12 -14v-27q-10 -17 -23 -22q-14 -3 -28 0l-13 12q-2 8 -2 22zM868 952l4 19q5 7 15 14q21 3 33 -4q12 -4 18 -12q3 -13 0 -29q-4 -9 -23 -20 q-1 0 -2.5 -0.5t-3.5 -1t-4 -0.5q-1 0 -4.5 1t-5.5 1q-1 1 -5.5 3.5t-8 4.5t-6.5 4.5t-3 5.5q-4 12 -4 14zM885 1227v10q0 4 3 9.5t3 8.5l12 7q3 -1 7 -2t7 -1.5l6 -1t5 -0.5q16 -8 16 -20v-12q-11 -15 -22 -23h-21q-8 4 -16 25zM889 1356q0 16 2 22q10 10 27 17 q1 -1 4.5 -2t5.5 -2q3 0 5.5 -1.5t4.5 -3t4 -4.5t3 -5t2.5 -6t2.5 -5v-8q-17 -22 -28 -27h-15q-10 3 -16 15q0 1 -1 4.5t-1 5.5z" />
<glyph unicode="V" horiz-adv-x="1245" d="M180 1399q-3 12 8 26q3 0 13 5h26q11 -4 19 -9v-14q-2 -1 -3 -2t-2 -2.5t-1.5 -2.5l-1.5 -3l-2 -4q-11 -11 -19 -15h-12l-12 4q-8 10 -13 17zM211 1284q0 5 10 25l17 6q1 0 3 -1t3 -1q4 0 6 2l6 -6l8 -4l6 -23q0 -12 -11 -22t-21 -5l-21 11q0 1 -1 4.5t-1 5.5q-4 4 -4 8z M236 1145q-3 5 -1.5 11.5t5 12.5t8 10.5t8.5 6.5h10q7 -4 21 -8q6 -6 10 -21v-16q-5 -14 -23 -25q-2 0 -8.5 -2.5t-11.5 -1.5l-10 8l-6 13q0 8 -2 12zM276 1022l23 12l23 -6l10 -14q0 -13 -8 -37l-17 -12h-22l-6 6q-14 28 -3 51zM295 829q-3 14 4 31l10 10q7 0 17 7l22 -11 q12 -20 10 -35q-11 -25 -18 -32q-6 -4 -21 -4l-18 18v10zM328 696q0 9 8 25q2 2 8 5.5t8 4.5h13l6 -3t6.5 -3t5.5 -3.5t4 -6.5q5 -17 3 -30t-15 -23h-13q-2 1 -11 6.5t-15 7.5zM365 526v11q0 18 12 36q39 0 45 -32l-4 -21q-6 -12 -23 -18q-16 4 -30 24zM414 340q-1 5 0 11 t3 12.5t3 9.5q9 12 24 14q9 -2 25 -14l6 -17v-12q-9 -15 -29 -22q-3 -2 -7 -1t-6.5 2t-6.5 2.5t-6 2.5zM518 199v14q0 8 2 10v8q1 2 3 6.5t4 7.5t5 5q14 3 25 -2q1 -1 4.5 -8t5 -10.5t3 -10t0.5 -12.5t-5 -12l-14 -13q-5 -1 -13.5 0.5t-11.5 1.5l-4 9q0 2 -4 6zM575 352 q1 2 4 7.5t5 8t5 6.5t6.5 6.5t8.5 4.5q2 0 6 4q3 -2 9 -2t8 -2t9 -6.5t9 -9.5q0 -10 6 -19v-10q-6 -6 -6 -12q0 -8 -18 -17q-3 0 -9.5 -1t-9.5 -1l-16 6q-8 10 -10 27zM645 487q0 29 4 41q9 11 23 15q2 0 6 -3t4 -5l12 -25v-23q-8 -16 -18 -18h-12q-1 0 -9 4q-2 0 -10 14z M688 653v21l19 33q4 0 8 4h14l6 -6q0 -3 2 -5q0 -6 1.5 -11t7.5 -14l6 -9l-4 -17q-6 -3 -13 -10l-18 -4q-3 -1 -9.5 0t-9.5 0q-5 3 -10 18zM741 838q4 13 23 32q2 0 8.5 1.5t9.5 0.5q5 0 9 -4l18 -26v-19q0 -1 -1 -2q-11 -18 -26 -22h-18q-5 0 -11 5.5t-8 6.5q-4 20 -4 27z M795 1014v26q3 6 8 31l10 12q6 3 12 9h13l14 -17v-12q0 -2 2 -2q0 -2 2 -2q9 -14 8 -15q0 -2 1 -6t1 -6v-6q-2 -7 -8 -16t-12 -9q-6 -2 -19 -2q-1 0 -9.5 2.5t-14.5 4.5q-4 0 -8 8zM831 1186q0 2 1.5 5.5t1.5 4.5q-3 17 10 33q2 2 18 6l4 -1t8 -1q1 -1 6.5 -6t6.5 -6.5 t4.5 -6t4.5 -6.5t3 -6.5t2 -8.5t-0.5 -10t-1.5 -12l-12 -12q-7 -4 -31 -4l-16 12zM885 1362q7 26 24 29h15q22 -13 22 -31q0 -4 4 -8q0 -2 -1 -7.5t-1 -7.5q-2 -3 -5.5 -5t-6.5 -3.5l-7 -3.5t-7 -4h-17q-4 2 -7 5t-5 8.5t-3 8t-3 10.5t-2 9z" />
<glyph unicode="W" horiz-adv-x="1599" d="M172 1397v18q0 2 1 6t1 6q3 0 5.5 2t4.5 3.5t4 1.5q1 0 3.5 -1t3.5 -1l8 4q6 -12 12 -19q-3 -21 -16 -37q-3 0 -11 -4q-3 2 -6 5.5t-6 8.5t-4 7zM176 1315v14q1 4 3.5 8t4.5 5.5t7 5t6 4.5h16q15 -2 18 -23q0 -1 1 -3t1 -3q-3 -19 -14 -27l-24 -8q-1 2 -7.5 12t-11.5 15z M201 1174q4 8 2 12q0 20 22 31q15 -4 22.5 -11t10.5 -20q-2 -6 -2 -21q-4 -8 -8 -12q-3 -6 -7 -7.5t-12.5 0t-11.5 1.5q-3 3 -6 8t-5.5 10.5t-4.5 8.5zM217 1065q4 12 8 18q14 2 35 -6l12 -24q0 -4 -1 -11t-1 -10q-5 -10 -22 -16q-1 0 -4.5 1t-5.5 1l-17 16q-4 8 -4 31z M244 897q2 4 2 29q8 12 14 16h14q8 -2 17 -16q1 -1 1.5 -7.5t2.5 -9.5v-6q-4 -5 -8 -16.5t-6 -14.5q-2 0 -5.5 -1t-5.5 -1l-18 7q-5 7 -8 20zM268 739v19q3 10 25 16q16 -6 26 -16q0 -10 3 -19q-11 -18 -29 -24q-3 1 -5.5 4t-4.5 4h-4q-7 5 -11 16zM295 623v12q0 4 4 12 q2 0 6 4h17l26 -18l4 -21q-2 -4 -2 -10q-3 -17 -16 -22q-2 0 -4 -2h-11q-14 10 -16 12q-10 24 -8 33zM307 426q5 24 12 31q2 0 6 -1t7 -1t6 2q6 -1 13 -9t9 -10v-22q-7 -20 -24 -23l-17 8zM334 260q0 1 2.5 9.5t-0.5 9.5q9 16 26 20q4 0 11.5 -1t11.5 -1q2 -2 8 -5t8 -5 q3 -6 13 -13q4 -12 4 -20q0 -2 -1 -5t-1 -5l-19 -19q-6 0 -18 -4t-19 -2l-14 8l-8 11zM465 449q5 5 8 14l21 10q4 -2 22 -8l6 -10q0 -16 2 -19q-2 -7 -6 -12.5t-10 -11.5t-8 -9h-13q-17 11 -18 13q-5 25 -4 33zM582 569q0 3 1 8.5t1 8.5q0 2 -2 4q4 8 4 16q3 0 6 6h18 q4 -4 11 -4q15 -19 8 -41l-15 -12q-2 0 -6 -1t-6 -1t-5.5 1t-4.5 1zM692 743q20 5 23 5l18 -11l6 -12q0 -7 1 -15.5t1 -13.5q0 -1 -1 -3.5t-1 -4.5q-16 -16 -28 -18h-9q-1 0 -2 1t-2 1q-24 41 -6 71zM778 573l10 15h23q16 -8 25 -17q1 -3 3 -9.5t3 -12t0 -10.5 q-8 -20 -23 -25h-4q-1 0 -4 -1t-4 -1q-4 1 -6.5 3t-5 5t-4.5 4q0 2 -6.5 20t-6.5 29zM891 340q-7 26 0 43v4q4 6 16 10q9 -2 21 -11t16 -11q0 -7 5.5 -19.5t6.5 -15.5q0 -2 -12 -31l-10 -8h-16q-8 3 -14 15.5t-9 15.5q-4 4 -4 8zM1036 266v15q0 1 1.5 5t2 5.5t2 5t2.5 5.5 t3 4.5t4.5 4.5t5.5 4h16l14 -6l19 -20q-1 -4 -3 -9.5t-3 -9.5t0 -8q-12 -15 -24 -17t-32 5l-4 8zM1081 442v29q10 10 13 21l10 6q10 0 22 -4q2 -3 7 -8t6 -7q2 -2 4 -7t4 -7q2 -5 -0.5 -10.5t-7.5 -12.5t-6 -10l-9 -8l-18 -6q-1 1 -5.5 2t-6.5 2q-3 1 -5 4t-3 5.5t-2.5 5.5z M1124 662q4 20 4 26q5 4 14.5 12t10.5 9q1 0 3 1t3 1l19 -6q7 -21 8 -23q0 -2 6 -8q1 -2 3 -8t3 -11.5t0 -9.5l-6 -12l-10 -10q-4 0 -4 -2q-14 -5 -27 2q-1 0 -4 1t-6 1l-13 14q-2 4 -2 12t-2 11zM1147 815q1 2 2 4.5l2 5t2 5.5l2 6l14 14q4 2 13 2q10 -2 22 -18q0 -3 4 -15 q-1 -3 -2 -5.5t-2.5 -4.5t-4 -4t-4.5 -3.5t-5 -3t-4.5 -2.5t-5 -2.5t-4.5 -2.5q-18 6 -21 8zM1184 987v21q6 17 22 30h11l8 -4q0 -1 1 -3.5t2 -3.5t3 -1q4 -2 8 -5.5t7 -7t5 -8t2 -8.5v-14l-8 -12l-5 -2.5l-5 -2.5t-4.5 -1.5t-3.5 -1.5h-15q-2 1 -5.5 2.5t-5 1.5h-5.5 q-9 7 -12 20zM1202 1130q-1 3 -1 6.5t0.5 8.5t0.5 8q0 2 6 8q0 4 -0.5 5.5t2 5.5t3.5 5.5t4.5 4.5t3.5 4h6q10 10 28 -12l7 -25q-6 -20 -31 -29q-21 5 -29 10zM1233 1329q1 3 2.5 10.5t2.5 10t2.5 7.5t3.5 8t4.5 7t6.5 8q3 0 10.5 2.5l10.5 3.5q13 -8 22 -20v-10l-10 -35 q-24 -19 -47 -8q0 2 -3.5 8.5t-4.5 7.5z" />
<glyph unicode="X" horiz-adv-x="1353" d="M258 248q4 8 4 12l14 23q3 0 9 6h10l14 -8q9 -18 6 -39l-12 -9l-14 -6q-11 0 -17 2q-7 5 -14 19zM264 1405v18q3 3 8 13q12 4 13 4q22 -6 30 -23q-2 -3 -2 -20l-8 -11q-2 -2 -20 -8q-12 3 -19 17q0 2 -1 5t-1 5zM326 1315l8 10q3 0 14 -1.5t17 -0.5q10 -3 18 -20v-9 l-3 -3t-3 -4t0 -5l-8 -6l-4 -4q-3 -1 -6 -1t-7.5 0.5t-7.5 0.5q-12 12 -16 20v11q1 3 -0.5 7t-1.5 5zM334 371v12q11 22 14 25l8 8h23q2 -3 16 -17v-18l-6 -4q-4 -15 -31 -23q-4 0 -6 -2l-10 6q-5 10 -8 13zM389 1165q-2 13 -1 17.5t5 11.5l6 4h11l30 -6q6 -5 9 -16v-15 q0 -2 -7 -9t-8 -9q-6 0 -8 -2q-2 0 -4.5 -1t-3.5 -1q-5 0 -17 8zM406 469q-7 15 2 45q2 3 12 8h18q10 -7 17 -28l-4 -13l-9 -12q-4 -4 -12.5 -5t-9.5 -1t-4.5 1t-5.5 1zM465 600q0 2 1 6t1 6v13q30 31 49 12q11 -5 14 -19q1 -2 -0.5 -5t-1.5 -5q0 -5 -2.5 -9.5t-8 -8.5 t-8 -5.5t-9.5 -4.5h-15q-13 0 -20 20zM479 1038q0 1 1 3t1 3q-4 19 6 19q18 9 37 -10q4 -4 4 -6q5 -8 9 -19q0 -5 -1.5 -10t-5 -9.5t-5.5 -7t-7.5 -7.5t-7.5 -7h-6l-15 10q-12 24 -10 41zM543 737v15q12 16 16 18l23 8l14 -6q6 -12 8 -14l-8 -17l-4 -4q0 -10 -12 -15t-13 -7 q-4 1 -18 8q-2 2 -3 7t-3 7zM643 870q-1 6 4 27q1 1 6 16q12 0 17 9q22 -7 30 -19v-29l-14 -16l-10 -6q-7 4 -14 0l-13 6zM696 698q2 3 4.5 9t5 11.5t5.5 8.5h18l6 -4l13 -16l6 -23q0 -12 -19 -25q-8 0 -16 -2q-1 2 -8 9q-1 6 -7.5 16t-7.5 16zM733 1008l6 14q0 4 1 7t4 5 t5 3.5t6 3.5t5 3q6 0 8 -2q2 0 5 1t5 1q9 -13 15 -22q1 -5 0.5 -7t-1.5 -5.5t-1 -5.5q-15 -18 -25 -21q-3 0 -6.5 -1t-5.5 -1q-1 0 -7 2t-8 4q-6 9 -6 21zM752 580q1 3 2.5 8t3.5 8.5t6 5.5q6 2 9 1l7.5 -2.5t7.5 -0.5q7 -3 12 -12t5 -19q2 -6 -1 -12t-9 -10t-13 -4 q-12 0 -18 12zM827 440q-6 24 7 43h6l12 4q1 0 5.5 -3.5t8.5 -4.5l6 -22l-4 -13q-7 -9 -24 -16zM827 1163q0 11 12 18.5t25 4.5q5 0 17 -12l6 -15q-7 -23 -29 -29q-2 1 -6 1.5t-7.5 1.5t-6.5 4q-2 2 -3.5 5t-2.5 6l-2.5 7.5zM885 389l8 8h16l5 -5l6 -6t5.5 -6.5t5.5 -7.5 t3.5 -7.5t1.5 -8.5q-3 -13 -14 -18h-21q-20 15 -16 51zM903 1276q0 2 1 7t1 7q2 2 8 9.5t9 9.5q5 1 7 1t7.5 -2t7.5 -3q9 -6 12 -21v-10l-8 -12q-7 -7 -26 -7q-16 6 -19 21zM954 1391q0 10 3.5 16t9.5 9t16 5l10 -8q2 2 6 2q0 -9 7 -20q-2 -2 -5 -6t-5 -7t-4.5 -6t-5.5 -5 t-7 -3h-10q-2 0 -2 2q-13 9 -13 21zM963 244v16q3 9 10 14h10q20 -7 29 -34v-9q-4 -4 -4 -8q-7 -10 -27 -10l-14 16q0 7 -4 15z" />
<glyph unicode="Y" horiz-adv-x="1189" d="M174 1407v23q4 2 8 7l4 5q2 0 5 -2.5t6 -3.5q6 0 10 -2q5 -10 8 -13q-2 -2 -2 -6q0 -8 2 -10l-4 -4q-8 -4 -12 -8h-13q0 2 -5 7.5t-7 6.5zM203 1343v17q4 4 4 8q2 2 2 6q4 0 12 4l12 -6q8 0 14.5 -6.5t8.5 -13.5v-15q-10 -20 -31 -20q-4 4 -8 4zM260 1210v17l6 14l6 2 q9 3 37 -2q6 -4 10 -16v-23q-5 -14 -28 -20q-17 4 -31 28zM336 1073q0 5 4 17q1 2 2.5 3t3.5 2t4 3h25l14 -15v-32q-9 -13 -16 -17h-21q-2 2 -5 8.5t-5 8.5zM399 930q0 4 2 6q-2 4 -2 12q6 17 17 25h10q2 -3 9 -9t9 -8q9 -9 13 -28l-17 -21q-16 -5 -22 -4q-1 3 -12 10z M471 825q4 12 4 15l2 2q4 3 4 4q11 0 13 2q2 0 4 2l6 -3t6.5 -3t6 -3.5t5.5 -6.5v-11l-1 -6q-2 -6 1 -6q-9 -14 -16 -18h-19q-1 0 -3 1t-3 1l-6 10v10q-1 2 -2 5.5t-2 4.5zM516 418v26q0 9 23 15h6q23 -11 26 -25v-8q-4 -4 -4 -8l-16 -10h-16q-15 4 -19 10zM520 293 q0 23 14.5 33.5t36.5 1.5q9 -9 11 -15q0 -4 -1 -11t-1 -11q-14 -21 -37 -21q-12 0 -23 23zM522 203q2 2 8 14l13 6l24 -4q10 -14 11 -20q-15 -23 -35 -27q-2 0 -6 3t-7 3q-8 11 -8 25zM522 539v14q0 2 4 14l11 8l8 5q6 -2 14 -2q16 -14 19 -23q-5 -10 -5 -14l-18 -19 q-26 0 -31 2q-1 2 -1 7.5t-1 7.5zM526 662q-10 26 9 45q2 0 6.5 1t7.5 1q13 -3 26 -13l5 -12q0 -2 -5 -12l-18 -17h-22zM567 786q4 12 4 19l9 14q17 8 28 6q1 0 6 -3.5t9 -4.5q0 -5 -0.5 -10t-1.5 -8t-3 -7l-2.5 -5t-3.5 -5.5t-4 -5.5q0 -2 -6 -8q-6 0 -8 -2q-6 0 -8 -2 q-15 10 -19 22zM641 918q4 18 16 28q1 0 13 4l4 4h2l16 -12q0 -6 2 -10q-2 -4 -1.5 -12.5t-0.5 -12.5l-10 -6q-20 -4 -27 -4q-3 2 -5.5 5.5t-4.5 8.5t-4 7zM707 1055q9 22 10 28l14 11h19l14 -13q0 -2 2.5 -8.5t1.5 -11.5l-14 -25q-10 -10 -21 -10l-14 6l-4 4q-5 14 -8 19z M780 1157v25q5 7 15 14h14l12 -6q2 -2 8 -14q0 -7 2 -11l-8 -8q0 -1 -1 -5t-1 -7q-2 -2 -4 -2l-4 4q-3 0 -6.5 -2t-5.5 -2h-10q-4 4 -7 4q-4 8 -4 10zM821 1274q0 6 4 22q1 0 3 2t3 2q14 7 35 -10q8 -19 6 -28l-3.5 -6.5t-6.5 -9.5t-8 -5l-12 6h-8q-13 10 -13 27zM883 1378 q0 30 20 41q2 0 7 -1t8 -1q6 -4 10 -16q0 -2 2.5 -5.5t3.5 -6.5v-13l-4 -4q-7 0 -27 -10h-12z" />
<glyph unicode="Z" horiz-adv-x="1280" d="M172 252q0 1 1 4.5t1 5.5q5 12 10.5 17.5t18.5 11.5q6 -3 8 -5.5t10 -15.5v-12l-6 -14l-22 -11q-18 6 -21 19zM227 387v14l6 7l27 6q5 -1 8.5 -3.5t8.5 -8.5t6 -7q-2 -7 -7 -12.5t-13 -9.5t-17 -4q-15 4 -19 18zM231 1335v31l19 18h18q18 -9 23 -16q0 -12 2 -18 q-7 -24 -27 -33l-22 6q-1 2 -6 5.5t-7 6.5zM274 252q0 2 4.5 9t4.5 13q13 5 28 9q1 -1 6 -3.5t6.5 -4t3.5 -4.5t3 -7v-12q-1 -4 -3 -7.5t-5.5 -6t-5.5 -4t-7 -4t-6 -3.5q-19 0 -27 11q0 2 -1 6.5t-1 7.5zM322 506l10 24l10 9h14l19 -19q0 -4 4 -12l-4 -21q-1 -1 -7 -5.5 t-8 -8.5q-4 0 -12 -4q-20 10 -24 29q0 2 -1 4.5t-1 3.5zM354 1346v14q7 14 13.5 19.5t21.5 9.5l17 -7q2 -5 7.5 -12t6.5 -8q0 -3 -1 -11t-1 -12q-18 -24 -53 -6q-9 9 -11 13zM383 254q5 18 20 35q3 0 8 1t7 1h6q2 -2 9.5 -6.5t10.5 -8.5v-14l-6 -16q-25 -15 -32 -17 q-2 1 -6.5 3.5t-8 5t-6.5 6.5q0 1 -1 4.5t-1 5.5zM410 627q0 1 1 5.5t1 6.5t1 5.5t2.5 5.5t3.5 4.5t5 4.5q2 0 5.5 1.5t4.5 1.5t2 -1t2.5 -1.5t3.5 -0.5h7q12 -4 20 -18q5 -3 8 -8q-4 -19 -20 -27q-4 0 -11 -1t-10 -1q-2 0 -6.5 1t-7.5 1q-9 10 -12 21zM500 1335q-1 3 -1 6 t0.5 7t0.5 6q2 4 5 8t7 8.5t6 7.5q2 0 8 2t9 2q8 -4 10 -4q4 0 12 -4l8 -12q4 -17 -5.5 -29.5t-24.5 -17.5q-16 0 -25 12zM506 713v22q1 4 5.5 8.5t10.5 9.5t8 7h9q1 -1 3 -2t3.5 -2t3.5 -2t3 -2.5t2.5 -3t2.5 -3.5q0 -3 1 -9t1 -9t-1 -6.5t-3.5 -6.5t-4.5 -5l-5 -5l-4 -4 h-17q-5 0 -18 13zM524 258l11 14l12 7h12q19 -6 23 -35q-12 -19 -23 -23h-18l-11 6q-8 20 -6 31zM582 801v22l6 15q28 14 41 14q1 -1 6.5 -5t7.5 -7v-21q0 -1 -2 -5.5t-2 -6.5q-1 -3 -3.5 -6.5t-2.5 -5.5l-15 -11h-24q-5 2 -8 9t-4 8zM651 1337l4 15q4 6 14 12t17 2 q2 -2 6 2q1 -1 4.5 -3.5t6 -4t5.5 -4.5t5 -5.5t3.5 -6t1 -7.5t-2.5 -8q0 -4 -1.5 -7.5t-6.5 -6.5t-6.5 -4t-8.5 -4h-14q-2 2 -9.5 6.5t-10.5 8t-5 9.5zM657 248q0 1 1 2q11 33 28 35h14l17 -15q2 -4 2 -14v-12l-17 -17l-12 -6h-10q-2 2 -6.5 5.5t-7.5 6t-6 7t-3 8.5z M664 920l6 20l7 7t9 7l8 11h19l7.5 -3.5t10.5 -7.5q5 -16 4 -22q-13 -18 -39 -31h-20zM739 1028q-3 10 0 23l9 18l20 8q10 -5 25 -16q4 -25 2 -37q-1 0 -4 -3t-3 -5v-2h-2q-11 -5 -24 -2q-4 0 -12 4zM805 1159l10 31l12 6l13 4q4 -2 14 -2l16 -12l2 -6q3 -9 -2 -33 q-11 -11 -20 -14h-21q-3 0 -5.5 1t-4.5 3l-3.5 3.5t-3 4t-2.5 4t-2.5 5.5t-2.5 5zM811 242q0 14 10.5 25.5t24.5 11.5q15 -6 24 -21l4 -12q-7 -11 -10 -19q-2 -1 -6 -3.5t-5.5 -3t-6.5 -1.5t-8 0q-1 0 -6.5 2.5t-8.5 1.5q-4 2 -6 5t-3.5 7.5t-2.5 6.5zM817 1356v18 q2 4 10 12q0 1 1 4.5t1 4.5l23 12q8 0 19.5 -7.5t15.5 -8.5l2 -5q0 -6 -2 -10q0 -1 1 -3t1 -3l-4 -10q0 -2 -2 -2q-10 -7 -23 -19h-22q-2 2 -10 7t-11 10zM920 1255l6 25l8 12l16 8q3 0 19 -4q17 -22 6 -43q-3 -1 -6 -7t-4 -7l-17 -6q-4 0 -8 2h-8q-2 0 -6 4zM930 250 q0 2 1 5t1 5q17 23 33 23q14 -6 20 -23v-14l-8 -17q-8 -4 -10 -8h-15q-19 12 -22 29zM995 1350v10l4 24l2 2l29 13q11 -6 13.5 -9t5.5 -10v-16q-5 -13 -23 -27l-12 -4h-6q-9 7 -13 17z" />
<glyph unicode="[" horiz-adv-x="868" d="M225 0q0 1 2 5.5t2.5 5.5l2.5 5t3 5.5t3.5 4.5t4.5 3.5t5 1.5t6.5 1t7.5 -1q17 -9 21 -27q0 -6 -4 -18l-21 -13q0 -2 -2 -2h-8q-23 11 -23 29zM229 109q2 0 2 8v18q9 18 17 23h26q18 -11 23 -23v-14q-1 -4 -4.5 -9.5l-3.5 -5.5q-1 -2 -3 -4t-4 -3t-4.5 -1.5t-4.5 -1 t-4.5 -1t-4.5 -1.5q-3 1 -10 3t-13.5 5t-11.5 7zM233 602q4 24 17 37l16 8h8q19 -11 23 -22v-21q-4 -10 -12.5 -19.5t-18.5 -9.5h-16q-12 3 -12 17zM238 260v23l14 14q33 7 39 -10l6 -13v-14l-4 -8q-4 -4 -12 -8q-17 -3 -33 0q-4 2 -6.5 8.5t-3.5 7.5zM238 418q-3 12 0 26 q11 15 22 23h19q25 -12 18 -39q-19 -32 -41 -18q-15 5 -16 6zM238 760v8l8 20l18 17h15q13 -5 18.5 -11.5t5.5 -19.5q-7 -24 -33 -29h-14q-4 1 -18 15zM238 946v23l6 14l22 14q17 0 31 -34v-11q-8 -18 -16 -26h-21zM238 1133q10 19 16 22h18l7 -2q11 -9 20 -20q4 -2 4 -15 q-3 -9 -12 -18q0 -2 -2 -2l-15 -8h-14q-22 11 -22 43zM244 1266q6 20 22 28h15q1 -1 5.5 -4t5 -3.5t4 -4.5t2 -6t-0.5 -8v-4l-8 -19q-2 -1 -6 -3.5t-7 -4t-7.5 -2.5t-8.5 0l-14 6v2q-2 4 -2 23zM250 1405l14 20q10 4 23 2q7 -4 16 -22v-8q-3 -3 -6.5 -5.5t-7 -4t-8 -3.5 t-7.5 -4h-16q-1 2 -3.5 6t-3 5.5t-1.5 6.5t0 7zM256 1526l14 26q4 2 23 2q4 -2 6.5 -8.5t3.5 -7.5q3 -10 0.5 -22t-8.5 -15l-12 -6q-12 6 -15 6q-4 4 -6 8t-3.5 9t-2.5 8zM352 0v18q8 20 21 31h8q2 -1 6 -2.5t6 -2t5 -2.5t5 -4t3 -5q4 -11 0 -33q-4 -10 -21 -23q-6 -1 -15 3 t-10 4zM365 1507q-3 14 0 29q6 14 20 25q14 0 27 -17v-18q0 -1 -1.5 -4.5t-2 -4.5l-2 -4t-2.5 -4t-2.5 -3t-4 -3t-4.5 -2l-10 -6q-3 0 -8 3t-8 3q0 1 -1 3t-1 3zM467 1522v26q11 18 22 25h15q8 -4 10 -8l6 -6v-25q-4 -8 -24 -27q-16 -2 -29 15zM469 16l12 25l25 8 q4 0 7 -1.5t6 -3.5t5 -3q1 -2 3.5 -6t3 -5.5t1.5 -6.5t0 -7l-12 -14q-1 0 -4 -1t-4 -1l-8 -4h-21q-8 3 -14 20zM575 1536v14q1 1 3.5 4.5t3 4.5t3 3.5t3.5 2.5t4.5 2t6 0.5t7.5 -0.5q2 0 5.5 -2.5t7.5 -7.5l4 -5q2 -7 -0.5 -11.5t-7.5 -8.5t-7 -8h-20q-3 2 -13 12z" />
<glyph unicode="\" horiz-adv-x="968" d="M154 1425v27l8 14q4 4 24 9q3 -1 17 -15q3 -14 0 -28l-4 -7q-10 -7 -15 -14l-22 6zM203 1325v18q3 4 16 13h14q18 -11 23 -23q0 -4 -1 -7t-2.5 -6.5t-2.5 -6.5l-14 -10h-17q-4 2 -6.5 5.5t-5 8.5t-4.5 8zM266 1188q-5 7 0 16l4 4l19 9q4 -1 7.5 -3t5.5 -4t5 -5.5t4 -4.5 q3 -14 0 -29l-8 -8q-19 -4 -25.5 2t-11.5 23zM311 1073q2 4 4.5 6t7 3t7 1h9.5h9q5 -2 12 -12v-20q-1 -1 -3.5 -6t-4.5 -7q-6 -4 -24 -4l-9 6q-8 23 -8 33zM367 915q-1 11 8 35q12 12 37 -2q2 -2 5.5 -8t4.5 -8q0 -3 -1 -10t-1 -11q-1 -1 -2 -2.5t-2 -2.5t-2 -1q-4 -2 -8 -2 q-12 -3 -25 0zM410 772q-1 4 0 9t3 10.5t3 7.5l14 12h16l15 -6q1 -1 3.5 -4t5 -5.5t5.5 -4.5v-23q-8 -16 -31 -23q-16 0 -34 27zM475 598v39q8 12 28.5 9t20.5 -17q0 -1 1 -4t1 -4l-4 -19q-8 -12 -14 -14h-21q-3 1 -12 10zM537 461v14q3 6 18 21q8 4 25 0l8 -7l6 -22 q0 -9 -12 -29q-3 -1 -7.5 -3t-8 -3t-7.5 0q-3 1 -6 3t-5.5 5.5t-3.5 6t-3.5 7.5zM608 324v6q11 16 35 16q20 -8 25 -16q3 -16 0 -35q-7 -13 -23 -23h-18q-24 16 -19 52zM670 133q-3 15 0 33l6 14q6 2 16 2q38 -13 31 -49q-2 -6 -23 -16h-12q-11 2 -18 16z" />
<glyph unicode="]" horiz-adv-x="825" d="M176 1538q0 10 2 16q0 5 0.5 8.5t2.5 6.5t2.5 5t4.5 4t5 3t6 3.5t6 2.5h14q4 -4 8 -4q7 -2 11 -10q0 -4 4 -8v-13q-2 -9 -11.5 -21.5t-11.5 -17.5q-4 -4 -16 -4q-22 14 -27 29zM184 -14l9 16q0 3 4.5 5t9 1.5t4.5 -4.5q17 -14 20 -31q0 -8 -8 -16q-6 -4 -22 0l-6 4 q-11 12 -11 25zM270 -6q10 15 15 20q5 2 14 2.5t12 1.5q12 6 15 5q21 -17 26 -27q0 -3 -0.5 -6t-1.5 -5t-3 -5t-3 -4t-4.5 -3.5t-4 -3t-5 -3.5l-4.5 -3q-21 0 -29 -2q-21 8 -27 19v14zM315 1561q6 22 29 28h8q13 -9 17 -16v-23q-7 -18 -13 -24l-16 -8q-9 5 -23 8 q-4 12 -2 35zM401 -8q7 20 15 31l16 8q13 0 17 2q6 -3 6 -4q10 -6 14 -13q4 0 4 -6q2 -4 2 -10l-12 -18l-31 -17h-18q-2 2 -4 2q-5 18 -9 25zM424 137v35l10 14l19 9h12q11 -3 18 -17q0 -2 1 -7.5t1 -8.5q-4 -7 -8 -21q-13 -13 -26 -18q-3 0 -5.5 0.5t-4 0.5t-3.5 1.5t-3 2 t-3 2t-2.5 2l-2.5 2.5zM428 315l6 19l17 14q6 4 14 4q4 -2 20 -18q2 -5 2 -25q-8 -14 -22 -22q-4 0 -8 -2h-13q-2 2 -14 8q-2 4 -2 22zM436 471v6q12 36 21 45h16q19 -11 23 -22v-17l-17 -18q-6 -4 -18 -8q-20 5 -25 14zM446 637q4 12 9 22q0 1 1 3.5t1 3.5q3 1 8.5 3.5 t8.5 3t9 -0.5l19 -17q3 -4 8 -20l-8 -17q-11 -7 -19 -10h-12q-18 5 -25 29zM451 754v6v14l6 19l8 8h20q9 -3 13.5 -7.5t11.5 -15.5q0 -19 -35 -39h-10l-4.5 4.5t-5 5.5t-4.5 5zM453 948v6q2 3 5 12.5t9 14.5l12 6q10 2 21.5 -4t11.5 -16q2 -2 2 -9q0 -3 -1 -5.5t-1.5 -4.5 t-2.5 -3.5t-3.5 -2.5t-4.5 -2.5l-4 -2t-5 -2t-5 -1.5h-18q-8 2 -16 14zM455 1561q-1 4 0 9t2.5 10t1.5 9q10 13 16 17h14q19 -9 19 -33q-6 -10 -23 -23h-20q-6 3 -10 11zM457 1143q5 7 11.5 8t11 -1t12 -7t10.5 -6l8 -9v-20q-4 -8 -16 -16q-4 0 -12.5 -1t-12.5 -1 q-16 7 -17.5 21.5t5.5 31.5zM459 1282v21q6 13 14 18h23q22 -13 22 -39q-6 -12 -29 -20q-2 -1 -5.5 0t-5.5 1.5t-5.5 2t-5.5 2.5zM463 1448q0 1 4 9.5t6 12t8 6.5t13 1l12 -7l2 -2q2 -6 2 -32q-8 -11 -11.5 -15.5t-7.5 -6.5t-10 -3q-8 2 -12.5 8t-5 12t-0.5 17z" />
<glyph unicode="^" horiz-adv-x="813" d="M176 1288q0 3 1 8t1 7q3 8 23 16h6q8 -3 12 -10v-21l-6 -8q-5 -2 -27 -2zM256 1356q1 2 16 18h15q12 -8 16 -16v-10l-12 -15q-11 -3 -19 0q-4 4 -8 4q-5 14 -8 19zM346 1399v24q2 6 12 13h13l14 -9q3 -4 8 -24q-5 -14 -20 -21h-8q-12 3 -19 17zM428 1352l6 20l8 8h9 q18 -10 22 -26q-5 -10 -8 -13l-19 -6q-13 6 -18 17zM498 1298q4 8 10 11h20q8 -4 17 -17v-16q0 -5 -21 -16q-6 0 -14 3.5t-10 4.5q-2 5 -2 30z" />
<glyph unicode="_" horiz-adv-x="653" d="M92 -137l17 14q2 2 7 1t6 -1t5.5 -2.5t5.5 -3.5q4 -1 6 -4t3.5 -7.5t2.5 -6.5q0 -15 -12 -19q-4 0 -8 -4h-12q-1 0 -2 1q-35 16 -19 32zM197 -133q5 12 22 16h4q19 -7 27 -20v-23l-8 -10h-29q-9 5 -16 18v19zM319 -143q5 15 5 20q8 8 18 8h4q3 -2 7.5 -4t7.5 -3.5t6 -4 t4 -6.5q0 -2 1 -6.5t1 -7.5q0 -2 -1 -6.5t-1 -6.5q-3 -3 -11.5 -8t-11.5 -8q-19 7 -26 26q0 1 -1.5 3.5t-1.5 3.5zM408 -139q5 16 14 16q29 4 43 0q16 -8 8 -31l-6 -8l-23 -8q-5 -1 -10 0t-10.5 3t-7.5 3q-7 7 -8 10v15z" />
<glyph unicode="`" horiz-adv-x="610" d="M225 1413q9 14 27 23q12 -4 14 -4q10 -3 15 -11q1 -4 1 -9.5t-0.5 -12.5t-0.5 -10l-9 -11l-24 -6h-6q-8 3 -12 9.5t-4.5 12.5t-0.5 19zM287 1298v7q7 14 16 16h4q15 -10 19 -14t4 -23q-6 -10 -19 -16h-14q0 1 -1 2t-1 2q-8 16 -8 26z" />
<glyph unicode="a" horiz-adv-x="1271" d="M193 549q0 2 1.5 8t2.5 9.5t3 8.5t5.5 7t7.5 2q2 0 5 1t5 1q5 -2 19 -11q9 -9 6 -20l-6 -12q-5 -5 -14 -7.5t-11 -3.5q-2 -2 -7 -0.5t-9 0.5zM213 389q2 6 0 14q0 5 1.5 6.5t5.5 2.5t5 2q2 0 6 4l23 6q20 -10 20 -16q3 -8 -2 -31l-18 -12h-23q-6 0 -14 8zM215 700 q6 24 6 29q18 12 29 12q12 0 22 -10q4 -15 2 -22l-12 -17l-20 -6h-13q-1 1 -10 6zM289 834v12q11 22 35 22q14 -7 18 -12v-14q0 -2 -2 -4q-3 -8 -6.5 -11.5t-11.5 -7t-13 -6.5q-14 6 -16 16q0 1 -4 5zM305 283q0 31 27 39h10q3 -1 5.5 -3.5t4 -4.5t4 -4.5l4.5 -4.5v-20 q-1 -5 -3 -8.5t-5 -7.5t-4 -5q-2 0 -6 -4h-25q-6 9 -12 23zM406 907l6 11q0 11 18.5 13t22.5 -7q7 -10 4 -23q0 -4 -4 -12q0 -4 2 -6q-10 0 -19 -9l-20 7q-1 2 -3 5q-7 9 -7 21zM408 229q1 3 2.5 8.5t2 7.5t-0.5 7q4 5 8 7t11 4t9 3q24 -7 33 -22q-1 -2 -1.5 -10t-2.5 -11 q-2 -2 -7 -3t-7 -3q-2 -4 -13 -4q-6 2 -20 2q-1 1 -3.5 4t-5 5.5t-5.5 4.5zM532 236q2 3 5 5t6 3t6 2.5t4 3.5h12q15 -8 21 -12q3 -8 10 -19l-8 -4q0 -5 -19 -14q-1 0 -3 1t-3 1q-4 0 -6 -2l-16 6q-11 15 -9 29zM557 893q0 1 1 3.5t1 4.5v10q22 13 37 17l4 -2q2 2 4 2 l17 -10q0 -1 4 -9v-12q-4 -8 -23 -23h-18q-16 6 -27 19zM643 244q6 26 27 41h8q5 -3 20 -21v-12q-2 -9 -12 -19q-3 -3 -9.5 -5.5t-8.5 -4.5q-8 2 -11.5 4.5t-7 8t-6.5 8.5zM682 829q-2 15 12 33l15 8h16q3 -2 10 -5t9 -4t6 -4.5t6.5 -7t5.5 -9.5v-11q-6 -12 -8 -20l-17 -8 q-2 0 -6.5 1t-7.5 1q-7 4 -21 8q-3 1 -5.5 3t-5.5 4.5t-5 4.5zM729 340q-8 23 4 39q1 2 5 4.5t5 5.5q12 4 19 4q22 -3 29 -26v-11q-2 -2 -7 -8t-7.5 -8t-9 -6t-12 -3t-16.5 1zM836 805q5 10 7.5 14t8 8.5t14.5 8.5q23 -5 39 -19l6 -16v-13l-10 -14q-1 0 -4.5 -1t-5.5 -1 q-8 -4 -12 -4h-11q-4 0 -16 4l-8 8q-6 15 -8 25zM840 629q11 22 28 28q15 -5 19 -2l6 -6t5.5 -6.5t4.5 -5.5v-21q-1 -6 -7 -12.5t-7 -9.5l-15 -10l-12 4h-8q-12 8 -12 20v6q-2 2 -2 15zM846 459v8t-0.5 8t0 7t1 7t2.5 5.5t5 3.5q16 16 27 10q2 0 14 -4l8 -8q0 -3 0.5 -6 l1 -6t0.5 -5l-6 -14q-2 -4 -5 -6.5t-7.5 -5t-7.5 -4.5h-17q-12 4 -16 10zM860 911q-3 33 21 52q1 0 4 1t4 1q3 0 8 -1t8 -1q3 -2 17 -17q-7 -33 -31 -45q-1 0 -3 1t-3 1h-4q-2 0 -4 -2q-9 0 -9 4q-3 6 -8 6zM881 328q0 4 2 14t2 14l10 6h18q3 -2 10.5 -1.5t10.5 -0.5l8 -4 q0 -2 1 -6t1 -6q-1 -3 -2.5 -9t-2.5 -8.5t-3.5 -6.5t-6 -6.5t-9.5 -4.5q-2 0 -9 -1t-10 -1q-8 0 -14 6.5t-6 14.5zM967 242q1 5 6 9.5t6 6.5q11 11 22 8q4 0 12.5 -4.5t10.5 -3.5l8 -10v-12l-10 -13l-27 -12h-16q-15 12 -12 31z" />
<glyph unicode="b" horiz-adv-x="1085" d="M225 940v21q8 16 33 16l21 -10l6 -13v-4q0 -5 -3 -13t-3 -11q-5 -2 -11.5 -7.5t-7.5 -5.5h-14q-9 7 -21 27zM229 1124q10 23 13 25h10l24 -12q4 0 17 -23v-10q-1 -5 -17 -21h-18l-8 9q-4 0 -6 2h-2q0 3 -4 7t-5 7q0 4 -4 16zM231 647v23q9 9 19 14q4 -2 16 -2q1 0 6 -3.5 t9 -4.5l4 -6l4 -13q0 -2 -1 -5.5t-1 -4.5q-5 -8 -17 -11.5t-12 -4.5q-14 4 -27 18zM231 799l7 28q1 5 7 7.5t7 3.5q24 -7 35 -23v-24l-6 -11l-11 -8q-4 -1 -12.5 1.5t-11.5 2.5q-2 2 -5.5 6t-6 8t-3.5 9zM231 1239q0 4 1 11.5t1 11.5q12 17 15 20q14 3 26 -6q0 -2 1 -6t1 -6 q11 -11 11 -13q2 -8 -6 -20l-11 -8q-4 -1 -24 4zM233 1362q-3 4 -3.5 10t0.5 9.5t3.5 10.5t2.5 9l16 14h16q20 -8 23 -14v-10q0 -3 -10 -23l-27 -12zM236 213q-1 3 -1 6.5v6t0.5 5.5t0.5 5q1 2 3 8l3 9t4.5 7t7.5 6q24 0 43 -14q1 -2 1.5 -8t2.5 -8q-2 -3 -2.5 -7.5 t-0.5 -9.5t-1 -8q-2 -3 -5.5 -5t-8.5 -4t-7 -3q-15 -3 -28 2zM238 354l4 21q4 8 4 10l16 14h17q20 -10 20 -28v-6l-6 -19q-17 -10 -23 -10t-10 -2q-1 0 -3.5 1t-5 1t-5.5 -2q0 1 -1 3t-1 3t-2 5.5t-4 8.5zM238 489v25q6 22 24 25q11 0 18.5 -7t10 -13t6.5 -19l-8 -23 q-8 -4 -13 -4h-20q-1 1 -6.5 3.5t-8 5t-3.5 7.5zM373 213q2 4 2 6.5t-1 8t-1 8.5q4 16 28 24l23 -12l6 -12v-15q-2 -15 -20 -22q-5 2 -13.5 2t-14 2t-9.5 10zM389 907l6 19q1 1 5 6t8 8t8 4q4 -4 12 -8v-12q1 0 4 -1t4 -1v-4l-6 -25l-8 -4q-11 0 -20.5 5t-12.5 13zM485 238 l13 14q12 0 20 2q16 -8 23 -8q10 -5 18 -19q-7 -17 -18 -26h-6q-2 0 -6 -1t-6.5 -1.5t-4.5 0.5q-1 0 -5.5 2t-6 2h-6.5q-1 2 -7 8t-6 12q0 2 -1 7.5t-1 7.5zM498 915q4 4 4 9q13 6 28 4q1 0 3.5 -1t6 -2.5t5.5 -2.5q8 -16 6 -27q-12 -16 -27 -21l-18 7q-1 2 -2 4.5t-1.5 3.5 t-0.5 2zM614 256q1 2 1 5v5.5t-0.5 6.5t-0.5 6q8 11 21 16q2 0 6.5 1t7.5 1q8 -3 21 -25v-10q-17 -21 -27 -26q-3 2 -10.5 3.5t-11.5 4.5zM618 874q1 1 4 4.5t4.5 5.5t4 4.5t5 4t5.5 3t6.5 2.5t7.5 1l19 -12l6 -10v-21l-6 -14q-20 -8 -37 -4q-12 12 -14 18q0 3 -5 18z M705 342q9 17 18 23h14q14 -5 21 -23q0 -4 -2 -6q1 -1 1.5 -2.5t1 -3.5t1.5 -4q-3 -11 -12 -17q-6 -6 -25 -6l-10 8q-8 20 -8 31zM709 748v14l8 20q4 0 12 4q9 0 18 -7t9 -15q0 -2 1 -5t1 -5q-6 -15 -15 -19q-20 0 -34 13zM733 449l6 8v8q4 7 21 16l16 -6l12 -18v-8 q-4 -4 -4 -7q-9 -15 -26 -18q-6 0 -10 -2l-9 8q0 3 -3 9t-3 10zM743 612l7 27l10 10h18l15 -16q1 -2 1.5 -9t2.5 -10l-6 -16l-13 -8l-16 -4q-2 1 -7 4t-7 6q0 1 -5 16z" />
<glyph unicode="c" horiz-adv-x="1024" d="M188 510q1 5 3.5 9t6.5 7.5t6 5t9 5t8 4.5q14 -6 18.5 -11.5t6.5 -21.5q-11 -25 -25 -25h-20q-13 18 -13 27zM201 668q3 8 9.5 18t12.5 4q8 0 10 2q14 -6 17.5 -8.5t7.5 -11.5v-17q-7 -14 -29 -18q-17 5 -28 31zM213 356l4 19l21 12h10q13 -4 20 -18v-15l-12 -16 q-5 -4 -23 -8l-16 8q-4 8 -4 18zM258 776q0 14 6 30.5t15 16.5q4 2 12 2l12 -6q18 -18 12 -37q-4 -4 -4 -6q-2 -2 -2 -8q-12 -10 -28 -10q-20 9 -23 18zM311 242q-3 3 -0.5 14.5t2.5 13.5q2 2 5 4.5t5 4.5t5 4.5t6 3.5q2 0 5.5 1t6.5 1q16 -8 21 -23v-18l-11 -15 q-4 -4 -9 -5t-11.5 -1.5t-9.5 -1.5zM362 881q0 2 1 4t1.5 4t0.5 4q7 7 10 16q4 0 16 4q15 -2 27 -14q0 -2 0.5 -4.5t1 -4.5t0.5 -3q0 -15 -12 -33q-3 0 -11 -4h-14q-10 3 -18 14q-1 1 -1 8t-2 9zM428 225q2 2 2 13q6 13 14 18h15q2 0 6.5 -4t5.5 -4q1 -2 1.5 -9t2.5 -10 q1 -1 6 -16l-12 -12q-2 0 -6 -1t-6 -1q-5 0 -9 2t-5.5 3.5t-4.5 6.5t-4 6l-2 -2q-4 8 -4 10zM485 905l9 8q0 9 2 13q17 9 22 10.5t17 1.5q2 -2 14 -8q6 -8 6 -27l-8 -14l-23 -15h-12l-12 7q-13 13 -15 24zM537 223v17l6 14q8 2 20 10q6 -2 19 -8l8 -12q1 -5 0.5 -8t-1.5 -7 t-1 -6l-6 -8l-4 -8q-15 -5 -23 -2q-1 1 -5.5 3.5t-6.5 4.5zM627 858v16l6 7q0 4 4 20l8 6q7 2 27 -6l12 -29l-4 -12l-14 -16h-21l-14 6q0 4 -4 8zM690 283q4 13 9.5 20t17.5 10h6q2 0 6 -1t6 -1l19 -20q0 -2 -1 -6t-1 -6t-1 -6.5t-1 -6.5q-4 -15 -13 -20h-10l-10 -4 q-3 1 -8 3t-8.5 4t-6.5 5q-4 10 -4 29z" />
<glyph unicode="d" horiz-adv-x="1087" d="M182 449v12q4 7 14 17.5t13 13.5q4 0 11.5 -5t10.5 -6q9 -22 7 -35l-7 -12l-12 -10h-14q-15 2 -23 25zM215 594v12l12 17q1 0 9 4h14q3 -2 7.5 -8.5t6.5 -8.5v-12q-4 -8 -4 -10l-8 -8l-14 -5l-17 9zM227 313v2q1 3 4.5 13t7.5 14t13 4q13 -6 14 -8q16 0 23 -29 q-1 -2 -1.5 -6t-1.5 -7t-3 -5l-15 -15h-18l-17 13l-4 8q0 8 2 12zM254 709q0 4 2 6v16q4 13 10 17h15q2 -1 4.5 -2t4.5 -2.5t5 -2.5l6 -2q1 -3 4 -8t4 -6q0 -16 -12 -31q-1 0 -2.5 -1t-3.5 -2.5t-4 -2.5h-13l-6 6h-8zM340 229q0 11 8 27l17 12q4 2 10 2l14 -6l12 -18 q5 4 7 2l-9 -8l7 -13q-1 -6 -7.5 -12.5l-7.5 -7.5q-14 -5 -24.5 -4.5t-20.5 10.5zM354 805q0 1 1 4t1 4t-1 3t-1 3v8l6 13q3 0 5 2q10 0 12 2l14 -8q5 -10 8 -13q3 -15 -12 -30q-2 0 -4 -1t-5 -2t-5 -2q-1 1 -7 4t-8.5 6t-3.5 7zM444 850v16l5 8q3 -1 8 3t8 4q12 -2 17 -4 t7.5 -4.5t8.5 -10.5q2 -9 -2 -22l-11 -9q-3 0 -8 -1t-8 -1l-14 7zM449 209q1 2 2 8.5t2 9.5t10 13l14 4q7 0 15 -2l10 -11v-20q-7 -18 -25 -27q-1 0 -2.5 1t-3 1t-2.5 -2q-1 0 -2 1l-9 6t-6 7t-3 11zM563 870q0 2 1 6t1 5l15 16l6 4q4 -2 12 -2q2 -2 10 -6q2 -2 5 -6.5 t5 -5.5q1 -5 -0.5 -12t-1.5 -9q-12 -12 -12 -18q-2 1 -5.5 2t-7.5 2t-8.5 2.5t-8 3t-5.5 4t-2 4.5q-4 4 -4 10zM580 223q0 5 7.5 11t14.5 6q5 0 12 -5t9 -6q2 -2 5.5 -8t4.5 -8q-2 -12 -10 -27l-13 -10h-14q-25 12 -16 47zM709 383q6 30 6 31q12 12 20 16q7 0 16 -4.5 t13 -5.5l8 -14v-17q-6 -14 -9 -18.5t-13 -10.5q-7 -1 -18 0.5t-13 1.5q-3 3 -6 11t-4 10zM709 924q4 4 4 8l4 6q0 4 -2 6q10 12 28 23q5 0 9 -4q4 0 8 -2l6 -15l-6 -24q-2 -1 -12 -11q-14 -7 -25 -4t-14 17zM711 510q0 3 8 35q4 2 12 10l12 6q1 -4 6 -5l5 -1q4 -4 12 -8 q0 -3 1 -8.5t1 -8.5q0 -2 -1 -6.5t-1 -7.5q-3 -7 -3.5 -8.5t-3 -5.5t-5.5 -5t-8 -3.5t-13 -4.5q-1 0 -4.5 2.5t-6 4.5t-5.5 4.5t-4.5 5t-1.5 4.5zM711 635v10q1 5 3.5 10l4.5 9t5 9.5t5 8.5q8 4 14 4l9 -6q8 0 16 -14q0 -26 -18 -39q-18 -6 -25 -6q-8 3 -14 14zM711 780 q2 15 12.5 27t28.5 12l7 -7.5t9 -12.5q-4 -19 -10 -27h-2q-14 -16 -39 -2zM717 238q1 3 1 10t1 10l10 18q7 4 10 9q12 -4 19 -4q18 -18 18 -25v-12q-4 -28 -26 -31q-2 0 -8 1.5t-9 0.5q-4 0 -6 1.5t-3.5 6.5t-2.5 6q0 5 -4 9zM717 1067q-6 27 18 45q4 0 6 2q5 0 7 2 q12 -4 20.5 -13.5t1.5 -19.5q4 0 4 -4q0 -5 -1.5 -8.5t-3.5 -6t-6 -5t-6 -3.5t-7 -3h-17q-1 0 -4 1.5t-4.5 2.5t-3.5 2.5t-3 3.5t-1 4zM723 1217v12l6 22l6 6q8 0 17 3q12 -11 24 -29q2 -10 -6.5 -21.5t-19.5 -11.5h-17q0 1 -2 3t-2 3zM727 1362q-3 0 -0.5 10t2.5 14l16 19 q3 3 13 0.5t12 -2.5q8 -8 12 -10q3 -13 -4 -29q0 -2 2 -6l-20 -19h-15l-10 7z" />
<glyph unicode="e" horiz-adv-x="1120" d="M190 610l7 23l2.5 2.5l4 4t4.5 4t5 3.5t5 1.5t6 -0.5t5 -3l13 -6q8 -12 8 -25l-8 -16l-17 -12h-20q-1 2 -8 9t-7 15zM209 467q-8 39 27 53h16q5 -3 14 -20l-4 -19q-4 -7 -24 -22h-19zM221 717q-3 12 0 26l6 9l13 10h16q19 -6 12 -41l-6 -8l-18 -6q-18 0 -23 10zM244 385 q1 5 8 10.5t8 7.5q13 3 23 0q6 -4 14 -16q3 -13 0 -25q-12 -12 -21 -14q-4 0 -10.5 3t-9.5 3q0 1 -1 3t-1 3l-8 17q-1 1 -1 4t-1 4zM287 834q1 3 12 20q12 12 31 -2l12 -16v-17q-13 -14 -27 -18q-6 0 -14 4q-12 20 -14 29zM297 287q13 19 25 24h14q5 -2 8.5 -4t5.5 -5t3 -7 t1 -10q-2 -4 -7 -8t-11.5 -8t-12.5 -6t-11 0t-7 9q-2 3 -4 8t-4 7zM348 584q2 2 4 6t4 6.5t5 5.5t6 4h18l12 -10q0 -15 -2 -23l-18 -12h-6q-1 0 -6.5 3.5t-8 5.5t-5.5 6t-3 8zM377 909q2 4 2 15q2 3 7.5 5.5t6.5 4.5q14 2 33 -12q5 -13 2 -25q-2 -2 -16 -12q-4 -1 -8 0 t-9.5 3t-9.5 3q-5 15 -8 18zM379 240q5 16 16 22h17q11 -5 22 -29q-1 -2 -3 -7t-3 -8t-4 -6t-8 -5h-21q-10 7 -16 33zM469 184q4 29 29 35q23 -8 30 -22q-6 -20 -14 -27q-21 -4 -29 -2q-13 6 -16 16zM469 961q3 3 6.5 5.5t8.5 5.5t8 5h10q15 -7 20 -23v-10l-20 -14 q-9 0 -21 8q-10 12 -12 23zM485 588q6 7 9 8.5t12 3.5q30 -15 20 -29q0 -1 -1 -2t-1 -2q-1 0 -4.5 -4t-5.5 -4q-2 -2 -6 -0.5t-5.5 1t-4.5 2t-4 3.5t-3.5 4t-3.5 4q0 11 -2 15zM588 195q3 9 12 12h21q12 -8 16 -14q0 -1 1 -4.5t1 -4.5q0 -2 -1 -5.5t-1 -4.5q-3 -10 -14 -18 q-2 -1 -8.5 -4.5t-10.5 -4.5q-16 11 -16 48zM614 578q1 2 3 7t3.5 8t3.5 6.5t5.5 5.5t7.5 3q4 -6 18 -20q-2 -13 -8 -23q-17 -11 -33 13zM616 944q5 10 5 17q4 4 16 8q20 -10 25 -15q0 -1 1 -3t1 -3v-12q-3 -9 -13 -12h-20q-7 3 -15 20zM692 195v14q12 16 29 16 q2 -2 5.5 -4.5t6 -4.5t4.5 -5v-25q-2 -4 -5 -7t-8.5 -5.5t-6.5 -3.5q-1 0 -5 2l-6 3t-4 3.5t-2 5.5zM713 895q0 26 2 31l16 10q20 0 22 -18t-14 -29q-10 -10 -25 5zM729 559q-15 5 -14 20t14 19h8q11 -3 23 -25q-5 -10 -17 -14h-14zM762 209q-8 25 20 39q10 0 21 -15v-16 q-12 -16 -25 -16zM780 813v21l6 16l15 16h6q1 0 4 -2.5t5 -4t4.5 -3.5t3.5 -4.5t1 -5.5q-2 -5 -2 -16t-2 -15q-2 -3 -4.5 -4.5t-5 -3.5t-4.5 -4h-19zM811 616q9 26 20 33h11q16 -10 22 -28l-8 -21q-2 -3 -8 -5.5t-8 -4.5q-14 -3 -21.5 4.5t-7.5 21.5zM817 750l6 6l11 6 q13 3 24 -12q3 -15 0 -29q-8 -11 -16 -16h-8q-24 12 -17 45z" />
<glyph unicode="f" horiz-adv-x="892" d="M139 756v4q3 4 3.5 13t2.5 13q3 1 8.5 4.5t6.5 4.5h10q26 -16 29 -43q-12 -31 -43 -23q-3 0 -9 6zM233 745v13q1 1 5 7t5 8t4.5 6t7 6t7.5 3h17q9 -6 12.5 -11.5t3.5 -16.5l-8 -19l-13 -10q-19 -4 -28 -2q-9 5 -13 16zM346 203q15 15 21 18l20 -4q14 -7 16 -16 q-1 -1 -2 -5t-2 -6q-10 -12 -28 -16l-17 6q-10 11 -8 23zM346 602q0 27 19 43l14 6q33 -5 33 -39q-4 -15 -21 -32h-22q-18 13 -23 22zM350 754v12q1 2 3 6.5t3.5 7.5t4.5 6.5t6 4.5q9 2 21 -3.5t15 -15.5l7 -10l-7 -17q-2 -3 -5 -5t-5 -3l-5 -2.5t-5 -3.5h-14l-4 2t-3.5 2.5 l-3 3t-2.5 3.5l-2 4l-2 4zM352 303q3 5 2.5 15.5t1.5 15.5q3 5 27 14l16 -8q10 -15 11 -16q0 -9 -9 -20.5t-10 -12.5q-10 -2 -26 -2q-11 11 -13 14zM354 442q-3 12 0 25q11 16 37 16q6 -3 17 -22v-12q-9 -19 -21 -27h-14q-19 10 -19 20zM356 872l4 25l17 18l4 3q10 0 14 2 q1 -1 8 -5t9 -6q5 -11 2 -30l-15 -15q-13 0 -28 -6h-6q-4 4 -9 14zM358 1032q13 30 29 37h14q17 -3 23 -22v-19q-4 -12 -8 -16q-2 -5 -10 -9.5t-9 -5.5h-20q-5 1 -17 13q-2 4 -2 22zM399 1169q-3 12 0 31l15 19q12 4 30 4q5 -3 7 -5t4.5 -4t4 -4.5t3.5 -7.5l-4 -12v-6 l-6 -13q-4 -2 -17 -7t-18 -9q-14 3 -19 14zM457 1307q8 20 28 30l7.5 -2.5t7 -3t7.5 -4t5.5 -5t4.5 -6.5t1 -8t-2 -10q-2 -4 -6 -7.5t-11 -7.5t-10 -7q-3 0 -7.5 -0.5t-7.5 -0.5t-7.5 1t-7.5 4q-2 4 -2 27zM471 743l6 23q10 12 29 20q4 1 9 0l7.5 -1.5t6.5 -2t6 -2.5l6 -18 l-4 -21l-13 -12l-16 -8h-21q-4 4 -8 4q-4 12 -8 18zM567 737v13q5 16 13.5 24t25.5 8q13 -8 15 -18q0 -3 1 -9.5t1 -9.5q-2 -4 -4.5 -6.5t-6 -5.5t-4.5 -4q-10 -4 -30 0zM596 1360v20q1 2 2.5 6t2 6.5t2.5 5.5t5 5l19 6q12 -4 20 -4q21 -21 21 -33q-5 -12 -19 -26 q-10 -2 -25 2t-22 4z" />
<glyph unicode="g" horiz-adv-x="1116" d="M176 526v27q6 12 37 22q15 -9 23 -20l6 -23v-4q-4 -17 -23 -30h-20q-17 12 -23 28zM184 688q4 5 5 13.5t3 15t9 10.5q2 0 20 6q13 -11 17.5 -17t15.5 -28q-1 -9 -6 -17t-14 -13t-19 -5q-3 0 -8 1t-8 1l-9 7zM199 389l10 21q2 2 14 8h8q2 -1 5 -5t5 -6t5 -1q5 -10 2 -44 q-1 -3 -2.5 -5t-4.5 -4t-4 -2.5t-6 -2.5t-6 -2q-20 10 -22 12q-1 2 -2.5 6.5l-2 6t-1 5t0 6.5t1.5 7zM262 809q-3 18 0 35q11 16 35 16q8 -2 16 -14l6 -19q-8 -20 -32 -32q-3 -1 -5.5 0t-6 3t-5.5 3zM268 254q0 4 2 11.5t2 10.5q0 4 11 15q7 0 11 1.5t7.5 -1.5t5.5 -4t4 -6 t3 -7t2.5 -7.5t2.5 -8.5l-6 -12l-22 -8q-5 0 -8.5 2t-5.5 3.5t-5 5.5t-4 5zM328 -272l6 22l10 10l2 2q7 8 11.5 9t15.5 -4q7 -7 10 -15q0 -2 4 -10q-7 -21 -8 -23q0 -6 -14 -14h-21q-3 1 -5.5 4t-4 5.5t-3.5 7.5t-3 6zM346 872v23q8 20 19 29q9 5 26 2q13 -10 21 -23v-12 l-9 -19q-2 -1 -6 -5t-6 -5q-13 -5 -27.5 -3.5t-17.5 13.5zM365 217q4 12 4 14q3 17 18 23q10 0 21.5 -9.5t15.5 -17.5v-14q-4 -10 -21 -23q-9 -3 -18 0l-14 11zM442 -285q0 5 3.5 11t8 10t9.5 6h31q1 -2 3 -4l3.5 -3.5t4 -3.5t3.5 -3q4 -19 -2 -35.5t-19 -20.5q-2 0 -4.5 -1 t-3.5 -1h-4l-14 6l-10 13q-4 19 -9 26zM461 895q0 14 0.5 19.5t4 12.5t11.5 11h12q5 0 5 -2l18 -12q1 -1 8 -15v-8q-7 -23 -28 -29h-9q-11 4 -22 23zM479 217v10l8 19q4 4 23 4l18 -12q3 -3 11 -19v-12q-4 -10 -17 -19q-9 0 -30 9q-4 3 -6 6.5t-4 7.5zM575 -272q7 18 7 30 l10 6h20q24 -8 17 -43q-2 -4 -5 -7t-7.5 -7t-6.5 -6q-11 -3 -16 2q-5 2 -10 5t-8.5 9t-0.5 11zM600 922q7 7 16 10q26 -6 37 -35v-20q-1 -2 -10 -11q-15 -3 -29 0l-12 13q-5 10 -2 43zM606 217v21q11 14 21 22h16q19 -6 23 -16q0 -2 1 -6t1 -5q0 -3 -1 -7.5t-1 -6.5 q-2 -4 -5.5 -7t-9 -6t-8.5 -5h-18q-14 5 -19 16zM678 -180q5 10 8 22q3 4 12 2.5t11 -0.5q19 -9 22 -16q3 -12 0 -27q-5 -12 -22 -22h-19q-4 1 -7.5 7t-4.5 7v27zM702 829v19q28 32 48 12l6 -10v-14q-3 -9 -23 -19h-20q-8 4 -11 12zM715 270q4 16 4 21q2 8 2 20q7 12 22 23 h13l18 -8l6 -9q3 -13 0 -26q-5 -8 -24 -27l-15 -8q-4 0 -7 1t-6 2.5l-5 2.5zM733 -63q1 3 7.5 6t7.5 4h14q5 -2 24 -15q3 -18 0 -36l-8 -9l-12 -4q-10 3 -13.5 4.5t-8 5.5t-6 9.5t-1.5 15.5q-5 15 -4 19zM768 733v19q2 2 5.5 8t4.5 8q36 7 43 -14q2 -3 2 -23 q-15 -22 -39 -16q-10 7 -16 18zM776 41v14q3 21 21 31h16q10 -5 21 -20q3 -13 0 -25l-15 -21q-14 -3 -28 0q-9 9 -15 21zM786 418v37l17 20q4 2 14 2q14 -7 25 -20v-33q-11 -16 -31 -23q-1 1 -8 3.5t-10.5 5.5t-6.5 8zM788 168l7 18l6 13q5 2 26 2q10 -4 21 -19v-18 q-18 -23 -29 -23q-5 0 -11.5 4t-8.5 5q0 2 -2 5.5t-5 7.5t-4 5zM801 586q-4 19 0 28q12 12 24 9q13 -5 17 -21q0 -3 2 -7.5t2 -6.5q0 -5 -8 -13q-14 -3 -29 0z" />
<glyph unicode="h" horiz-adv-x="1175" d="M207 467q3 13 12 25q1 0 11.5 3.5t17.5 2.5q28 -12 33 -33l-7 -25q-12 -8 -18 -14q-16 -3 -31 0q-2 3 -4.5 5.5t-5.5 5t-4 3.5zM209 618l10 17q5 7 21 12h14q10 -4 22 -20q0 -29 -14 -43q-12 -4 -37 0q-13 10 -16 34zM211 309q-1 9 8 41l14 8h15q6 -2 10.5 -6t6 -6 t5.5 -10v-12q0 -5 -12 -25l-22 -6q-20 8 -25 16zM217 190v13l10 20l17 6q16 -8 20 -20v-16l-6 -9q-11 0 -27 -4zM223 758v18q7 20 23 31h16q13 -4 21 -25v-18q-3 -8 -9 -14q-3 -2 -7 -5.5t-8.5 -7t-8.5 -4.5q-7 0 -10 6q-13 9 -17 19zM223 920q-3 12 0 26q6 12 27 29h4 l16 -8l13 -15v-18q-7 -14 -25 -25h-20q-9 2 -15 11zM223 1380q4 8 4 11q0 10 8 21t17 11h8q10 -7 14.5 -10.5t9 -10.5t5.5 -16q-9 -26 -39 -32q-4 0 -12 4q-12 11 -15 22zM229 1083v21q1 1 7 10.5t11 13.5t13 5q4 0 12 -4t11 -5l10 -10l8 -16q-5 -15 -12.5 -23t-22.5 -14h-8 l-14 6zM229 1237v29q3 11 17 18h8q35 -14 35 -45q-1 -1 -4 -6t-4 -8q-4 -1 -11.5 -3.5t-11.5 -3t-12 0.5q-3 0 -7 3t-7 7.5t-3 7.5zM373 754q1 9 12 30q7 6 13.5 4.5t9.5 -6t8 -9.5t10 -5q1 -2 2.5 -6t2 -6.5t1 -6.5t-1.5 -6q-2 -4 -5 -6.5t-7.5 -5t-7.5 -4.5h-19 q-4 1 -6.5 3t-4.5 5t-2.5 5t-2 7t-2.5 7zM487 811q3 10 9 20q11 11 24 11q18 -9 21 -17v-20q-4 -9 -17 -17h-22q-1 1 -5 4.5t-6 5.5t-4.5 6.5t0.5 6.5zM614 836v18q5 12 15 20.5t22 4.5l15 -9q0 -1 3.5 -7t4.5 -8.5t1 -8.5t-3 -12q-5 -5 -6 -5l-21 -10h-14q-11 6 -17 17z M735 805v18q7 20 23 31q24 -6 26 -6q16 -6 27 -33l-10 -24l-23 -9h-20q-14 9 -23 23zM819 678q-1 4 0.5 9t4 10.5t3.5 9.5q12 12 15 14q4 0 12.5 1t11.5 1q19 -7 25 -16q3 -10 0 -23q-7 -14 -37 -27q-20 5 -25 5q-2 2 -5.5 8t-4.5 8zM846 526v17l6 12l16 18l17 9q1 0 3 -1 t3 -1q11 -6 18 -25v-2q-1 -6 -6 -16.5t-6 -12.5l-16 -8h-21zM850 381q0 15 8 43l14 12h15q3 -1 5.5 -2.5t5 -4t4 -4.5t4 -5.5t3.5 -6t3 -7t3 -5.5v-14q-11 -16 -28 -22h-19q-11 5 -18 16zM856 260v27q3 4 5.5 12.5t7 13t14.5 4.5q25 -7 32 -24v-21q-9 -11 -20 -20 q-1 0 -2 -1t-2 -1h-23q-3 1 -12 10zM862 184q8 14 25 17l14 -6l8 -15q2 -12 -8 -21t-22 -12q-4 0 -7.5 1t-5 3.5t-3 4.5t-1.5 6.5v7v7.5v7z" />
<glyph unicode="i" horiz-adv-x="663" d="M197 643q0 25 12 25l8 6q12 -4 16 -4q10 -3 21 -21q0 -8 -8 -24l-8 -9q-4 -2 -12 -2t-11 -2q-18 6 -18 31zM205 772v16q8 21 22 25q15 0 25 -14q0 -3 2.5 -11t1.5 -12l-6 -16l-10 -8q-11 0 -17 -2l-8 4zM209 485v35l10 8q2 0 5 -1t5 -1q5 0 9 2q8 -4 12 -4l12 -12v-20 l-8 -13q-3 -3 -18 -8q-1 0 -3.5 1t-3.5 1t-3 -1t-3 -1q-2 0 -10 4q0 2 -4 10zM211 891v14l12 27l10 6q8 1 27 -8q9 -14 2 -31q-7 -11 -16 -14h-25q-4 0 -10 6zM211 1329q0 11 1 14t7 11q0 1 1 3t1 3q3 3 9 5.5t8 4.5q2 0 5 -1q18 -3 23 -7t8 -19q0 -20 -6 -30q0 -2 -2 -3 t-2 -3l-18 -7l-10 5q-2 2 -11 2l-10 10h-2q-1 1 -1 5.5t-1 6.5zM217 369l6 6v12l15 21q2 0 10 4l10 -6q2 0 4.5 -1.5t3.5 -1.5q2 -1 4 -3t3 -3.5t2 -3.5t1.5 -3.5t2 -3.5t2.5 -3v-18l-9 -19l-10 -6q-2 0 -10 -4l-12 4q-2 -2 -7 -2q-5 6 -14 12v8q-2 4 -2 11zM258 256 q6 15 14 20q3 0 13 5q19 -6 22 -11q0 -8 4 -16q-4 -16 -20 -29h-8q-1 0 -4.5 -1t-4.5 -1q-8 2 -12 8q0 9 -4 25zM367 211q1 2 2 5t2.5 5t3 5t3.5 5.5t5 4.5q1 0 4.5 1t5.5 1h4q1 -1 10.5 -5t10.5 -8q8 -16 8 -24v-6q-7 -17 -20 -23h-19l-12 6q-11 22 -8 33z" />
<glyph unicode="j" horiz-adv-x="671" d="M137 -176l6 8q3 1 9.5 1t9.5 1l14 -8q2 -4 2 -23q-6 -12 -12 -15.5t-21 -0.5l-8 8v29zM190 -82l13 19v14q10 10 26 10q14 -11 21 -22v-15q-7 -23 -27 -35q-17 -4 -28 0q-5 5 -5 9v20zM233 41q1 2 3.5 4t4 3.5t3 3.5t2.5 3q8 3 14 3t9.5 -1t7.5 -5.5t5.5 -7.5l4.5 -9v-19 q-1 -4 -4 -7.5t-5.5 -4.5l-7.5 -3t-6 -3h-14q-13 6 -15 13.5t-2 29.5zM258 152v18q8 23 18 31q6 2 19 2l20 -13l9 -16v-14q-2 -3 -4.5 -7t-4.5 -6.5t-5 -6.5t-5.5 -5.5t-7.5 -3.5t-10 -1.5t-13 1.5q-3 1 -6 4t-4.5 5.5t-3 6t-2.5 5.5zM299 319v27q8 21 37 21q15 -9 22 -23 q-2 -13 2 -27q-1 -2 -2.5 -4t-2.5 -4l-2 -4t-2.5 -3.5t-3 -3.5t-3.5 -3q-4 -2 -27 -2q-10 6 -18 26zM299 1374q1 2 4 9t4 12l15 10h20l16 -8q0 -2 2 -2q0 -6 5 -21q-4 -15 -23 -22h-25q-15 6 -18 22zM311 475v10q10 26 29 37q4 1 8.5 0t9 -3t7.5 -3l14 -14v-27 q-10 -14 -19 -18h-22q-2 1 -6 2.5t-6 2.5t-5.5 2.5t-5.5 4.5zM324 758v20q0 1 1 2q9 17 21 21l7.5 -3t8.5 -3.5t8 -4.5t5.5 -6.5t2.5 -8.5t-1 -11q-4 -10 -21 -23q-3 0 -6.5 2t-5.5 2q-2 1 -4 1.5t-4.5 1t-5.5 2.5q0 2 -6 8zM324 891v14q3 6 22 17h4q2 -1 6.5 -2.5l7.5 -2.5 t7.5 -3t6.5 -4t4.5 -5.5t2 -7.5t-1.5 -10q-3 -12 -14 -19h-23q-12 6 -22 23zM330 631v20q2 3 5 10t5 9q6 5 22 10q14 -5 19 -8q11 -12 9 -30.5t-15 -27.5h-29q-7 4 -16 17z" />
<glyph unicode="k" horiz-adv-x="1089" d="M264 209q1 5 10 27q7 0 11 4q23 0 32 -35q0 -8 -9 -14.5t-17 -6.5q-12 4 -17 4zM264 870l4 15q0 4 -2 6h8q0 2 2 4q5 0 13 4l20 -12l6 -15l-8 -22l-6 -6q-6 0 -8 -2q-4 2 -17 2l-10 10v8q0 1 -1 4t-1 4zM264 1008v2q0 4 1 13.5t1 14.5l10 11q7 0 9 -2q1 0 2 1t2 1 q13 -2 18.5 -9t9.5 -22q-1 -1 -2 -4.5t-2 -5.5q-1 -3 -7.5 -7t-8.5 -6h-21q-2 3 -12 13zM266 313v9q2 4 7 11.5t6 10.5q5 3 12.5 6t9.5 4q0 -1 1.5 -2.5t2.5 -3.5h8l9 -8q11 -18 2 -33q-1 -2 -6 -6l-5 -4h-32q-1 1 -3 2t-3.5 2l-3 2t-3 2.5t-2 3.5t-0.5 4zM266 725v20l13 21 h16l14 -8l2.5 -3t5 -5.5t5.5 -4.5v-22q-12 -15 -31 -18l-19 10zM270 438q-3 14 4 31q1 1 5 3t7.5 3.5t4.5 1.5h18q12 -6 21 -18v-17q-5 -11 -17 -20q-16 -4 -22 -4q-2 1 -4 3t-4 3t-4 2.5t-3.5 3t-3 4t-2.5 4.5zM270 1167q7 17 17 27q1 0 3 1t3 1q4 1 9.5 -0.5t6.5 -1.5 l10 -8q5 -10 5 -25q-9 -21 -21 -26q-2 0 -6.5 -1t-7.5 -1q-12 4 -17 12q0 19 -2 22zM272 582q0 1 1 3.5t1 4.5q0 4 -2 6q12 24 15 27q1 0 3 1t3 1h14q17 -8 23 -19v-22q-4 -13 -19 -25h-20l-15 10q0 3 3 6zM276 1409q0 14 21 21h8q3 0 8 -5q4 0 13 -16q0 -3 -1 -8t-1 -8 l-11 -11q-4 0 -6 2l-6 -4q-4 4 -14 9zM283 1290q0 1 1 5.5t1.5 6.5t1.5 5.5t3 5.5t5 4l20 4l17 -14q0 -5 4 -13q-1 -8 -3 -14t-5.5 -10.5t-7.5 -7.5t-11 -7h-12q-4 2 -12 15q0 14 -2 20zM467 590q0 4 2 6q-2 2 -2 6l6 19q4 2 12 10q4 2 15 2q2 -1 5 -2t5 -2t4.5 -3t3.5 -5 q1 0 4.5 -1.5t5.5 -1.5q0 -4 4 -12l-8 -24q0 -3 -5 -9t-9 -6l-21 -4q-15 0 -22 27zM557 479q0 5 4 17l12 12q17 2 35 -16v-21q-4 -8 -4 -14q-12 -12 -18 -15h-8l-15 13q0 1 -1 4t-1 4q-4 12 -4 16zM567 674q0 1 1 2q8 24 22 29h16q7 -3 10.5 -13t1.5 -18q0 -13 -22 -27h-12 l-13 6q0 5 -4 21zM625 373v12v14l16 13q4 -4 4 -6h10q14 -14 19 -27v-12q0 -2 -1 -4t-2 -3.5t-3 -2.5t-3.5 -1.5t-4 -2t-3.5 -1.5h-20q-12 9 -12 21zM645 772q0 2 1 6t1 6l19 21h14q11 -4 22 -19v-16q-6 -9 -9.5 -13t-11 -7t-17.5 -2l-13 6zM690 270q1 1 1 5.5t1 5.5 q1 2 3 5q3 4 3 5q0 3 3.5 5.5t3.5 4.5l8 8h12q9 -5 11.5 -7.5t8.5 -14.5q1 -6 -4 -27l-12 -14h-20l-15 10q0 2 -4 14zM739 872v5q18 23 21 26l18 4l8 -4l9 -4q5 -25 4 -31q-4 -12 -25 -20h-12l-17 8q0 2 -1 5t-1 5q-4 4 -4 6zM743 195l7 6q-2 2 -2 8q1 3 10 12l14 6 q17 -13 21 -24v-13q-5 -10 -11 -14q-3 0 -8.5 -1t-9.5 -1q-17 8 -21 21z" />
<glyph unicode="l" horiz-adv-x="747" d="M217 1004l4 20q0 2 2 6q2 0 10 4q24 -9 27 -12l4 -12v-17l-16 -14h-21q-10 10 -10 25zM221 1139q2 6 2 22q3 3 9.5 7.5t7.5 5.5q15 -6 28 -19q0 -4 4 -12q-2 -15 -16 -27h-23q-8 3 -12 23zM223 694v19q-1 3 0.5 8t-0.5 8q5 11 19 14q31 -10 26 -43l-16 -16h-19zM223 887 l8 4h15l16 -6q0 -1 1 -3t1 -3l6 -9v-18l-6 -6l-20 -12h-11q-4 4 -8 4q-13 25 -2 49zM231 578l3 6t2 6v6l14 14h12l14 -14q8 -16 5 -35q-2 -1 -8.5 -7.5t-10.5 -8.5h-16l-10 8q-8 11 -5 25zM236 1274q-3 15 0 31q13 10 26 10l10 -6q9 -19 9 -33q-3 -5 -15 -14q-12 0 -18 -2z M238 1405l8 12q1 0 3 1t3 1q12 0 24 -6q0 -3 3.5 -14.5t1.5 -18.5l-9 -10q-2 0 -6.5 -1t-7.5 -1q-12 4 -18 12q1 2 -1.5 10.5t-0.5 14.5zM248 426q10 19 16.5 22t24.5 -2q19 -14 12 -28v-10l-16 -9q-11 0 -27 -4l-6 8q0 2 -1 7.5t-1 7.5q0 1 -1 4t-1 4zM303 289v2v8 q6 9 6 25q10 6 14.5 6.5t16.5 -6.5l10 -17v-22l-8 -13q-12 -6 -25 -6q-9 4 -14 23zM389 242q1 3 12 26l2 2h19l16 -16v-21q-2 -6 -12 -16q-33 -7 -33 14q-1 1 -2 5t-2 6zM463 201q0 2 1 6t1 6q0 1 -1 3.5t-1 4.5q0 3 1.5 6.5t3 5.5t4 5.5t3.5 5.5q4 -2 17 -2l12 -13 q0 -6 4 -18q-2 -6 -10 -14h-11l-12 -4q-4 4 -4 6q-2 0 -3.5 0.5t-2.5 1t-2 0.5z" />
<glyph unicode="m" horiz-adv-x="1556" d="M225 332v16q1 2 3 4.5t3.5 4t3.5 4t4 4t5 2.5h12q1 0 2.5 -1t4.5 -2t5 -2v-4q18 -12 19 -28q-6 -12 -6 -13q-10 -5 -13 -8h-18l-14 6q-4 2 -7 9t-4 8zM231 205v14q8 16 17 25h18q8 -4 10 -8q1 -2 8.5 -7.5t8.5 -11.5v-10l-12 -17q-2 -1 -9 -2t-10 -2l-9 4.5t-11 4.5 q-9 9 -11 10zM231 608v6l7 9q0 6 2 10l10 8l16 6l21 -14q8 -12 8 -21q0 -2 -1 -6t-1 -6q-8 -8 -25 -16l-16 6q-4 -2 -8 -2zM231 762v12q0 18 25 31q1 0 4 -1t4 -1h10q18 -13 21 -23v-14q-1 -2 -23 -18q0 -3 -3.5 -7t-6.5 -4q-19 5 -22 8zM236 922q6 4 8 12l14 14l12 4 q24 -6 31 -20v-21l-4 -8q-22 -22 -43 -18q0 1 -6.5 6t-7.5 6q0 3 -3 11.5t-1 13.5zM238 473q1 1 6.5 10t11.5 11h10q19 -12 27 -31q-4 -8 -4 -10q-4 -15 -10 -19q-2 0 -5 -6q-4 2 -8 2h-8q-4 4 -12 8q-10 24 -8 35zM356 770q0 1 2 5t3 5.5t3.5 5.5t4.5 5.5t4.5 3.5t6 3 t7.5 1q14 -2 25 -21l-3.5 -10.5t-4 -10.5t-5 -7.5t-8.5 -6.5t-12 -2l-14 7q-3 3 -4 6.5t-2 8t-3 7.5zM451 864q0 4 3.5 7.5t9 7.5t7.5 6h18l5 -6q2 0 4 -0.5t3.5 -2.5t2.5 -3t2 -3.5t1.5 -4t1.5 -4t1 -3.5l-6 -14q0 -7 -10 -10q-2 -2 -9 -4.5t-8 -2.5q-13 7 -17.5 14 t-8.5 23zM573 872q7 21 9 23v14q4 8 4 11l16 6q11 -2 17.5 -5.5t10.5 -10.5t7 -19q-6 -26 -31 -35h-20q-9 5 -13 16zM662 803v22q11 18 22 25q2 0 5.5 -1t4.5 -1q21 0 25 -21q0 -1 1 -3t1 -3q0 -2 -1 -5.5t-1 -4.5q0 -7 -6 -10l-13 -13q-15 -6 -30 0zM713 666v20l12 12 q14 3 31 13q1 0 4 -1t4 -1l4 -9q0 -4 4 -8q2 -5 1 -7.5t-3 -7t-2 -7.5q-4 -8 -20 -21q-4 0 -11 1t-10 1q-12 9 -14 15zM719 389q-1 6 1.5 14t2.5 11l22 12q2 0 8 -1t9 -1q13 -13 20 -31q-2 -6 -5.5 -9.5t-7 -4.5t-10.5 -2t-11 -2q-4 -2 -21 2zM719 557l4 12l20 13h13 q18 -8 26 -23v-20q-14 -18 -24 -21h-15q-18 7 -22 27q0 2 -1 6t-1 6zM723 223q-3 3 -0.5 13t2.5 12q2 2 5 6t6 7t7 5q1 1 3 1.5t5 1t5 1.5q3 -1 8 -5t8 -5q8 -8 12 -29l-10 -18l-10 -8h-2q-13 0 -17 -2l-14 6zM885 784q1 1 4.5 5.5t5.5 5.5h4q1 0 2 1t2 1l8 10l13 4 q3 -5 18 -16q0 -3 0.5 -8t0.5 -8.5t-1 -6.5q-3 -4 -7 -7t-9 -5t-8 -4q-6 2 -15 2q-15 9 -18 26zM979 819v27q1 2 3 5t3 5.5t0 5.5q4 1 11.5 1t11.5 1l16 -8q4 -8 8 -12q0 -1 -1 -3.5t-1 -4.5v-7q-2 -3 -5 -6t-5.5 -4.5t-6 -3.5t-5.5 -4h-15q-2 2 -14 8zM1094 854 q-1 2 0.5 6.5t1.5 5.5q2 4 2 13q4 13 18 20h12q17 -6 31 -22v-15q-2 -18 -26 -26q-2 0 -5 1t-4 1q-4 0 -6 -2q-8 4 -12 4l-6 8zM1194 760v8q6 14 8.5 19t9 11t17.5 9l18 -12q0 -3 4 -7v-12q-4 -22 -24 -31h-15q-12 3 -18 15zM1229 645v8q4 7 0 11q3 3 6.5 8t6.5 7.5t9 4.5 h15q2 -1 5 -4.5t5 -3.5q2 -1 4.5 -4t3.5 -5.5t3 -6t3 -5.5v-14q-14 -19 -33 -23q-13 3 -16.5 5.5t-9.5 11.5q0 2 -1 5t-1 5zM1235 373q3 12 8 22l12 17l15 4q21 -8 28 -29l-4 -10l-12 -17l-12 -6h-17q-2 0 -4 2.5t-3.5 6t-2.5 4.5q-4 0 -6 2q0 1 -1 2t-1 2zM1239 256 q2 2 3.5 6.5t3.5 9.5t3 7l13 4q8 -6 26 -15v-6q5 -15 4 -20l-6 -13q-12 -10 -31 -6l-8 6zM1239 502v2q0 6 1 15.5t1 15.5q2 1 7.5 4t10 6t5.5 6q2 -2 2 -4l4 -4h8q1 0 3.5 -2t3.5 -3l3 -3t2.5 -3.5t1.5 -4t1 -4.5t-1 -5l-4.5 -9t-7 -10.5t-8.5 -6.5q-1 0 -2 -1.5t-2 -1.5 q-8 -2 -17 2t-12 11z" />
<glyph unicode="n" horiz-adv-x="1167" d="M231 313q1 1 1 4.5t1 4.5l13 26l6 6q9 3 18 0q2 -2 5 -4.5t5.5 -5t5.5 -6t5 -6.5q5 -13 2 -26t-12 -17h-27q-1 1 -6 4t-8 4zM233 442v9l5 10q13 13 16 14h14l29 -12l6 -17v-14l-10 -14q-14 -5 -19 -8h-12q-27 11 -29 32zM236 610l4 15l12 12q6 2 16 2l4 -2q15 -12 27 -27 v-20q-5 -11 -18 -17q-15 -3 -31 0q-25 15 -14 37zM244 195q0 2 -0.5 6.5t-0.5 9t1 8.5q1 1 4 3.5t5 4.5t3 4l14 7q18 -3 27 -21v-14l-6 -15l-15 -8q-4 -1 -30 6q0 2 -1 5t-1 4zM244 750q11 21 20 26q28 0 39 -33q0 -10 -6 -22l-27 -8l-2 -2q-1 0 -3 1t-3 1q-10 3 -16 12 q-2 8 -2 25zM250 862v29q15 14 20 16q2 0 5 1t4 1h10l22 -14l4 -6l-6 -15l-7 -7t-7 -9q-1 0 -5.5 -2.5t-6 -3t-6.5 -2t-7 1.5q-2 2 -9 4.5t-11 5.5zM375 766q3 10 14 18q13 0 21 -2l8 -8v-18q-6 -16 -19 -19h-8l-12 6q-4 4 -4 23zM477 799q-4 6 0 18q0 2 4 6q0 2 1 4.5 t1 3.5l9 7h20q11 -3 18 -17v-8q-14 -17 -26 -22q-4 1 -9 2.5l-10 3t-8 2.5zM598 825v6q0 7 4 15q0 10 6.5 16t16.5 6l22 -6l15 -6l8 -16q0 -1 -1 -4.5t-1 -4.5q-8 -16 -25 -26q-3 -2 -7 -2.5t-8 -0.5t-7 -1q-2 2 -8.5 5.5t-8.5 4.5zM750 807q0 12 10.5 24t21.5 19h11 q4 -2 7 -5t7 -7.5t6 -6.5q5 -26 -8 -36.5t-39 -10.5q-5 2 -10.5 9.5t-5.5 13.5zM809 700v7q0 1 2.5 7t5.5 9t8 6q15 3 35 0l12 -12q2 -4 2 -8v-11q-5 -11 -32 -16h-11q-2 2 -12 6.5t-10 11.5zM831 205q0 20 19 28h6q7 -2 15 -10t8 -16q6 -9 0 -17q0 -2 -2 -2q-2 -1 -9 -4 t-12 -4q-1 0 -6 2t-7.5 3.5t-5.5 4t-3 5.5q-3 6 -3 10zM831 575q12 21 25 27h12l9 -4l14 -16q2 -2 2 -9v-20q-4 -8 -16 -16h-31q-5 1 -8 7t-4 7q0 12 -3 24zM834 285q1 3 6 12.5t6 15.5q0 3 6 15q2 2 12 2q9 -3 17 -15q3 -5 0 -41l-9 -4l-20 -4zM840 403v27q3 6 18 21 q13 3 27 -5l12 -12l6 -16l-12 -23q-7 -3 -25 -8q-16 0 -26 16z" />
<glyph unicode="o" horiz-adv-x="1212" d="M193 481l6 25q8 13 26 20q9 0 13 2q10 -4 18 -16q3 -15 0 -27q-3 -8 -23 -18q-27 -5 -40 14zM197 629q3 10 14 18q24 6 29 6q11 -6 22 -20v-10q-14 -24 -41 -33h-6q-18 12 -18 39zM227 340q-3 18 0 37q2 3 4.5 4.5t6.5 3t6 2.5h26q9 -3 15 -12l6 -21l-3.5 -7t-8.5 -11 q-20 -8 -41 -8l-7 6zM256 770q0 12 2 18l10 15q25 12 39 8q13 -9 17 -16v-11l-9 -20l-18 -19h-16q-2 1 -4.5 2t-4 2t-3.5 3l-3 3t-2.5 3.5t-2.5 3.5t-2.5 4t-2.5 4zM342 248v12q0 2 1 4.5t1 3.5q4 8 4 11q13 13 23 18h26q23 -15 23 -37q-11 -19 -35 -29h-20q-18 9 -23 17z M379 874q2 2 2 7q0 6 -2 8l6 20q6 11 21 15q3 -2 6.5 -3.5t7 -2.5t7 -3t6.5 -5t5 -7v-20q-8 -20 -22 -29h-15q-12 6 -14 8q-4 8 -8 12zM516 207v12q3 5 8 19l13 10q14 3 26 0l12 -12l9 -17q0 -21 -39 -37q-9 0 -13.5 3.5t-8.5 11t-7 10.5zM551 950l14 6h19q16 -8 16 -10 l6 -12v-14q-6 -12 -28 -23h-19q-15 6 -19 22.5t11 30.5zM662 274q8 18 20 21l18 -4q4 -1 6.5 -4.5t4 -5.5t3.5 -7t3 -6v-8q-7 -10 -21 -20l-6 1q-6 2 -6 -1q-1 0 -5 1t-7 2t-5.5 3t-2.5 4q-2 8 -2 24zM686 901l8 17q33 17 51 -7q2 -16 0 -34q-8 -11 -24 -17h-16q-9 2 -17 14 q-2 8 -2 27zM772 340q4 21 16 25h27q9 -9 10 -11l6 -6q1 -3 1 -7v-6.5t-0.5 -6.5t-0.5 -6q-6 -13 -16 -19h-27q-12 6 -12 16q0 9 -4 21zM795 793l8 18q12 12 28 12l23 -14q0 -1 1 -3t1 -3v-25l-14 -14q-10 -4 -31 0q-12 10 -16 29zM864 502q2 3 5 5t7.5 4t6.5 3l14 -6 l16 -16q2 -8 2 -19q0 -5 -6.5 -12.5t-7.5 -9.5l-14 -9h-15q-13 9 -16 25.5t8 34.5zM866 639q0 24 8 45l11 6h14q15 -6 23 -22v-15q-3 -6 -5 -9.5t-3 -6t-3.5 -4t-4 -2.5t-6 -3t-7.5 -3q-18 0 -27 14z" />
<glyph unicode="p" horiz-adv-x="1089" d="M213 -197q11 23 20 29h11q14 -7 17 -10t11 -19v-20q-9 -21 -32 -27l-19 6q0 1 -1 2.5t-1 2.5q0 5 -3 14t-3 14v8zM217 -66q0 13 1 20t6 14t14 9h16q40 -27 27 -40q-13 -19 -25 -19q-8 -2 -23 -2l-5 4.5t-8 8t-3 5.5zM219 590q8 26 23 33q1 0 3 1t3 1q18 -9 22 -13l9 -16 l-7 -23q-1 -2 -3 -4.5t-4 -4.5t-4 -5t-3 -6q-9 -3 -22 0q-17 17 -17 37zM221 393q0 5 2 11.5t3 10t-1 9.5q9 12 14.5 15t24.5 3l15 -10q4 -4 6 -8t4.5 -10t3.5 -8q0 -5 -2 -7q0 -16 -29 -28h-18q-17 6 -23 22zM223 74v18l6 21l3 3l3.5 3.5t4 3.5t4 3t4 3t4 2.5t4.5 1.5 t5 0.5t5 -0.5q16 -8 21 -20q3 -3 0.5 -11.5t-2.5 -9.5q0 -3 -2 -6.5l-4 -7t-3 -6.5l-12 -9l-22 -6q-12 3 -19 17zM227 240v20q8 19 17 25h14q3 -2 8.5 -8.5t7.5 -8.5q2 -5 2 -32q-9 -9 -10 -11h-28l-9 8q0 1 -1 3.5t-1 3.5zM236 756q0 14 18 37q10 4 27 0l8 -7l8 -10v-20 q-8 -14 -23 -21q-25 4 -38 21zM236 897q7 21 8 23l12 12q16 3 31 0q16 -16 20 -29l-6 -22q-5 -8 -20 -19q-7 -3 -12.5 -3t-9.5 1.5t-8 6.5t-6 8.5t-5 9.5zM375 866v19q8 24 20 30h6q13 -5 17.5 -8t8.5 -11.5t1 -23.5q-6 -11 -20 -22h-17q-9 2 -16 16zM379 238v8q5 11 16 16 h15q21 -5 28 -29v-10l-14 -14h-23q-3 1 -5.5 3t-4.5 3.5t-4 5.5t-2.5 5.5t-3 6t-2.5 5.5zM494 242q0 4 4 12q0 1 -1 3t-1 3q1 2 2.5 7t2.5 7.5t2.5 6.5t4.5 7t6 5h8q4 -1 8 -3.5l8 -5t7 -3.5l8 -23q-5 -15 -21 -31q-14 0 -20 -2q-4 2 -10 8.5t-8 8.5zM496 858q3 4 5.5 15.5 t6.5 15.5l16 10h15q16 -12 16 -25l-6 -16l-19 -18q-16 -4 -24 -2l-3 3l-2.5 2.5t-2.5 3t-2 3.5t-1 3.5t1 4.5zM614 846l13 10q2 -1 14 -4.5t18 -7.5q2 -1 5.5 -5t5.5 -5q7 -2 14.5 -10.5t-0.5 -14.5q-4 0 -12 -4q-2 0 -4 -2h-21q-22 9 -29 16q-12 19 -4 27zM621 262v25l8 16 q6 4 22 8q15 -8 23 -18q0 -2 1 -4.5t1 -3.5q0 -14 -6 -21.5t-19 -15.5h-14q-11 4 -16 14zM705 381l16 25l4 4q5 6 14 7t15 -5q7 -3 10 -13v-16q-3 -12 -12 -18l-21 -7l-16 4q-6 4 -10 19zM731 713q5 11 12.5 14.5t20.5 3.5q8 -6 11.5 -9.5t7 -11.5t3.5 -18q-7 -11 -20 -20 q-21 -4 -31 0q0 1 -1 3.5t-1 4.5q-2 6 -1.5 16.5t-0.5 16.5zM741 528q-7 19 7 47q5 1 14 11h14q11 -5 17 -15q1 -5 1 -13.5t1 -12.5q-1 -1 -3 -4l-3 -4.5t-2.5 -4t-3 -4t-3.5 -3t-4.5 -3t-5.5 -2.5q-3 0 -9 -1t-9 -1z" />
<glyph unicode="q" horiz-adv-x="1079" d="M186 508q13 14 27 20h14q17 -7 23 -22v-12q-3 -22 -27 -29q-20 3 -30 18zM203 330v18q10 20 18 25h12q12 -8 29 -29q0 -2 1 -7t1 -7q-4 -11 -12 -19h-27q-17 8 -22 19zM215 643v14q1 2 2.5 5.5t3 6t4.5 6t6 5.5q17 3 33 0q1 0 3 -1t3 -1q11 -12 11 -27q-3 -20 -29 -30 h-14q-15 9 -23 22zM283 764v14l18 23q16 3 31 0q18 -14 22 -23q-10 -27 -28 -37h-17q-3 3 -12 9.5t-12 9.5q0 1 -1 2t-1 2zM285 258v2q6 34 21 34q3 0 7 -1q18 -6 19 -6q7 -4 16 -17v-14q-8 -16 -26 -20l-19 4q-4 2 -7 5t-6 7t-5 6zM375 199l4 18q8 12 14 14q3 2 21 2 q25 -13 30 -20v-12q-10 -14 -20 -21q-10 -2 -29 -2q-17 7 -20 21zM391 848q0 6 6 12l19 8q21 0 34 -9.5t7 -27.5q0 -1 -1 -3t-1 -3l-21 -18h-18q-10 5 -19 14q0 13 -2 19zM494 158v26l8 19l8 10q6 2 27 2q4 -4 6 -4l16 -25v-6q-7 -31 -37 -37h-12q-11 7 -16 15zM543 848v8 q0 11 20 29h8q12 -4 15 -4q22 -4 22 -31q-8 -24 -37 -29q-9 0 -18.5 9.5t-9.5 17.5zM674 -279q0 3 1 9t1 8q10 17 22 22h33q3 0 5.5 -3.5t2.5 -6.5q-4 -16 -8 -24l-14 -17l-21 -6q-22 7 -22 18zM676 10v13q7 20 22 28q2 0 7 1t8 1q2 0 5.5 -1t4.5 -1q30 -18 22 -33 q-4 -6 -4 -22q-8 -8 -22 -16h-27q-10 7 -10 12zM680 -111l18 21q2 2 9 2q16 -12 24 -16l2 -2q0 -3 2 -5v-20l-8 -14q-1 0 -3 -1t-3 -1q-4 -1 -9.5 -1t-12 0.5t-9.5 0.5q-3 1 -10 12v24zM682 170q-3 18 0 33l6 14l14 14q15 0 25 -20q0 -1 1 -4.5t1 -5.5l10 -6q0 -1 1 -3.5 t1 -3.5q4 -4 4 -8v-8q-4 -13 -26 -22h-10l-15 6zM682 522q0 8 5 14.5t8 8.5t12 6q16 -4 24 -4l14 -10q2 -9 3 -14t-4 -11.5t-8 -9t-9 -6.5l-2 -2q-2 0 -7 -1t-7 -1t-6.5 1t-6.5 1l-8 4q-4 6 -4 14q-4 8 -4 10zM686 334v24q11 16 25 27h18q14 -14 19 -18v-25q-10 -20 -13 -23 q-11 -5 -24 -8l-17 8q-1 4 -4.5 9t-3.5 6zM690 688q0 34 17 45q13 3 24 0q16 -8 21 -20l-7 -25q-13 -13 -34 -18q-4 0 -6 2zM694 858l6 25l7 8q10 2 30 2q9 -9 15 -12q7 -26 -13 -41l-18 -6l-14 6q-2 1 -13 18z" />
<glyph unicode="r" horiz-adv-x="811" d="M213 246q1 2 2 5q2 6 3 8.5t4 6.5t7 6h15l20 -12q2 -2 3.5 -4.5t3 -6t3.5 -5.5v-15l-8 -14q-40 -20 -51 2q0 5 -1 15t-1 14zM217 383q1 3 2.5 8.5t3.5 10t6 8.5q2 1 6 3.5t8.5 4t8.5 0.5q15 -9 27 -25q7 -15 -13 -35q-12 0 -20 -2q0 1 -3 2q-2 1 -3 2q-16 3 -23 23z M223 657l13 31l16 6q3 1 5.5 0t5.5 -2.5t5 -1.5l11 -16v-12q-5 -17 -21 -31q-14 0 -22 -2q-1 2 -5 5l-4 3q-2 3 -2.5 6t-0.5 7t-1 7zM225 524q2 3 2 23q7 11 19 14q14 -3 28 -12q3 -6 9 -12v-15q-10 -24 -39 -24l-13 6zM227 899v14q4 10 17 19h20q7 -4 9.5 -6t5 -7.5 t2.5 -13.5q-10 -17 -25 -26q-4 0 -7.5 1t-5.5 2t-5 4l-3.5 3.5t-4 5zM233 791q3 22 19 30q5 1 10.5 -1.5t7.5 -2.5q23 -15 17 -43q-2 -2 -8.5 -5.5t-8.5 -4.5h-12q-4 0 -4 2l-3.5 2t-5.5 3.5t-5.5 4.5t-4.5 5l-2.5 5t0.5 5zM358 709q-3 13 -3.5 16.5t2.5 16t3 14.5 q7 11 15 16h16q2 -2 7.5 -6t8.5 -6.5t7 -6.5t6 -8q-3 -11 -5 -16t-6 -12.5t-11 -11t-17 -5.5h-8q-9 3 -15 9zM451 805q0 4 0.5 7.5t3 6t3.5 4.5t5 4.5t4.5 3t6.5 3.5l5 2q23 -9 31 -23v-18q-5 -8 -23 -17q-3 0 -10 -1t-10 -1q-4 4 -7 9t-5.5 11.5t-3.5 8.5zM532 848 q1 4 9 20l12 13q8 2 20 2q13 -7 19 -15q1 -2 1 -7t1 -7q-11 -32 -37 -37q-7 0 -16 6z" />
<glyph unicode="s" horiz-adv-x="784" d="M176 774q7 23 27 31l20 -6l6 -8q0 -11 2 -15q-6 -18 -24 -24h-12q-5 3 -8.5 6t-6 8.5t-4.5 7.5zM182 225q3 8 13 15q2 0 10 4h14q11 -6 17 -17q3 -13 0 -26q-6 -11 -17 -17h-14q-23 9 -23 41zM199 666v14l16 22l21 -6q8 -8 12 -14v-10q-2 -10 -17 -17h-20q-2 1 -12 11z M238 881v18q6 8 14 14l29 -6l8 -4l6 -14q-4 -21 -12 -31l-15 -8h-8l-14 6l-2 2zM266 606v12q7 20 23 31h8q14 -6 29 -33q-7 -12 -21 -26h-20q-13 3 -19 16zM291 217v16q3 4 6 7t7.5 5t6.5 3q12 -4 21 -4l6 -8q1 -5 1.5 -9t0 -6.5t-1 -4.5t-2.5 -4t-3.5 -2.5t-5 -3t-5.5 -3.5 q-17 0 -31 14zM340 545q8 24 22 33q20 0 25 -15v-18q-2 -3 -14 -15q-11 -6 -25 -2q-6 6 -8 17zM344 913v27q11 18 25 18q17 -10 24 -24v-25q-4 -8 -20 -16l-17 6q-2 4 -12 14zM393 260l8 21l9 6h14q4 0 8.5 -1.5t8 -3t5.5 -1.5q0 -4 1.5 -7.5l1.5 -3.5v-22q-3 -2 -5.5 -4.5 t-5.5 -6t-4 -4.5q-12 -4 -37 0q-4 7 -4 27zM424 455v22q13 10 31 10q2 0 6.5 -1t7.5 -1l8 -8q0 -3 1 -7.5t1 -6.5q-5 -10 -14 -19q-4 0 -12 -4l-21 4zM453 340q0 4 1 10t1 8q4 13 8 17q8 4 12 8q13 0 19 -4q4 -4 14 -19q1 -4 0 -8t-3 -8l-3 -6q-4 -4 -6 -4q-15 -15 -29 -8 q-4 0 -4 4zM461 936q3 19 20 33h4q6 2 17 2q10 -5 18 -17v-10q-5 -11 -16 -16q-1 0 -3.5 -1t-4.5 -1q-4 0 -13 1t-14 1z" />
<glyph unicode="t" horiz-adv-x="829" d="M92 1165q0 34 12 43l17 9h18l15 -7q12 -9 10 -24q-15 -33 -43 -43l-21 12zM215 1159q8 34 25 47h16q16 -9 23 -16q3 -14 0 -27q-7 -14 -31 -26q-15 4 -33 22zM313 1022q1 5 6.5 14t6.5 13q16 8 22 8q20 -10 23 -17q4 -21 2 -32q-1 -2 -2 -3t-1.5 -2t-0.5 -2q-3 -3 -10 -6 t-9 -4h-14q-16 6 -19 23q0 4 -4 8zM315 866v21q1 2 2.5 6t2.5 6.5t3.5 5.5t6.5 4q3 2 22 2q12 -4 21 -28q-4 -16 -13 -25l-14 -6h-14q-14 9 -17 14zM319 594q-2 25 5 37l12 10q2 0 4.5 -0.5l5 -1t4.5 -0.5q14 -7 23 -29v-14l-6 -14q-1 0 -3 -1q-5 -3 -7.5 -4t-7 -2.5 t-7.5 -1t-6.5 2.5t-7.5 6q-3 6 -9 12zM322 438v15l14 28q9 9 33 0l8 -16v-19q-8 -13 -29 -28q-3 4 -11.5 8t-12.5 8q0 2 -2 4zM322 1147q7 20 20 31q12 3 25 0q5 -2 10 -11.5t6 -11.5v-14l-8 -13q-2 -3 -7.5 -5.5t-7.5 -4.5h-20q-10 3 -10 10q-5 14 -8 19zM324 739 q-3 16 0 29q2 6 22 16q15 -4 23 -14l8 -20q-4 -8 -4 -11q-2 -7 -15 -16q-2 0 -10 -4l-16 6q-2 2 -4 7t-4 7zM324 1409q4 4 4 8q2 15 16 19q20 0 31 -11l8 -16v-14q-5 -17 -10 -21l-15 -6q-18 0 -24 18l-2 -2l-2 2zM338 1257v27l8 8h16q23 -8 29 -20q0 -2 1 -6t1 -6 q-2 -3 -2 -7q-12 -6 -20 -14h-17q-11 8 -16 18zM344 346l10 14q10 4 27 0q8 -4 20 -20q0 -10 2 -16q-1 -1 -4.5 -5t-4.5 -4.5t-4 -3.5t-5 -4t-5.5 -2.5t-6.5 -1.5t-7.5 -0.5t-9.5 0.5q-9 5 -13 16t1 27zM410 233q6 30 14 41q0 11 16 11h11q4 -1 7.5 -4t4.5 -5.5l3 -7.5t3 -6 q0 -3 1 -7.5t1 -6.5q-2 -3 -4.5 -8t-4.5 -8t-4.5 -6t-6.5 -5.5t-9 -3.5h-18q-5 2 -8.5 8t-5.5 8zM442 1171v27q2 5 17 19h14l10 -9l6 -6q3 -15 0 -33l-6 -6l-18 -6q-18 9 -23 14zM508 217v10q8 27 22 33q2 2 13 2q21 -8 24 -16q3 -13 0 -29l-14 -14q-10 -2 -29 -2 q-2 2 -5.5 5t-6 5.5t-4.5 5.5zM528 1161q-3 15 0 27q2 4 5 7t8.5 6t7.5 5h14q2 -1 19 -16v-21l-11 -20q-8 -4 -20 -4q-4 4 -16 8z" />
<glyph unicode="u" horiz-adv-x="1105" d="M174 772l8 19l8 6h15l14 -6q3 -3 5.5 -6.5t6 -8.5t5.5 -8v-14q-17 -17 -41 -21l-19 19q-2 6 -2 20zM178 618q-7 30 10 50l15 6q6 0 18 -4l8 -17q3 -17 0 -30q-2 -6 -11 -13l-9 -6h-21q-5 3 -10 14zM184 887q0 6 2 10q0 6 4 15.5t9 9.5q7 5 16 2q1 -1 10 -4.5t13 -8.5 q2 -8 2 -24l-11 -13l-20 -10q-14 6 -25 23zM188 522q7 0 17 10h16q23 -12 23 -28q-3 -12 -13 -25l-12 -6l-18 6q-5 5 -9.5 12t-7.5 16.5t4 14.5zM221 352l6 8l19 9q9 2 16 -9l14 -26l-6 -15q-20 -10 -30 -10q-12 8 -15.5 16t-3.5 27zM291 240v14q4 18 20 25h15q13 -6 18 -17 v-18q-1 -6 -5 -10t-7 -6t-9 -5l-8 -4q-1 0 -3.5 1t-4.5 1q-10 8 -16 19zM406 211v16q18 23 26 29q17 -3 25 -14l6 -19l-8 -16q-20 -13 -35 -8zM526 221q4 11 23 25h14q11 -9 17 -15v-18l-15 -16q-9 -9 -22 -4l-8 6zM641 252q4 10 7 15t10 8.5t18 3.5q13 -10 18 -17 q3 -9 0 -22q-5 -10 -20 -21q-6 -2 -21 -2q-19 6 -12 35zM719 336v14l6 17l5 5t5 5.5t5.5 5.5t7.5 4l6 -4l16 -14q2 -4 2 -11v-12l-8 -18q-4 -6 -25 -11q-4 2 -7.5 5t-7 7.5t-5.5 6.5zM752 496q9 19 18 24h27l10 -8v-33q-7 -15 -23 -24h-14l-8 6l-8 8q-2 8 -2 27zM756 618 l12 21l16 8h17q12 -8 16 -16v-15q-6 -15 -18 -24q-12 -12 -25 -10l-14 10q-4 8 -4 26zM756 741q0 17 4 25l-4 6l12 23q3 10 14 10q20 -9 25 -14q2 -5 2 -33q-3 -8 -5 -12t-5 -9.5t-7 -9t-10 -6.5l-18 6q-6 12 -8 14zM760 899l8 21q10 13 29 16l20 -12q5 -13 2 -31l-12 -12 q-13 -6 -23 -9l-12 6t-8 7.5t-4 13.5z" />
<glyph unicode="v" horiz-adv-x="1136" d="M176 913q2 8 2 21l4 8q9 11 29 21q7 1 27 -9l6 -8v-20q-9 -23 -39 -33q-22 4 -29 20zM203 788l12 25l4 8q2 0 6 4h19q3 -1 6 -3.5t5 -4t4 -5t3 -5.5t3 -6.5t3 -5.5v-13q-1 -2 -4 -8.5t-4 -11.5q-4 -2 -12 -10q-19 -2 -37 12q-9 18 -8 24zM248 649l4 17l18 16q15 0 23 -6 t18 -21v-14q-13 -17 -39 -27l-18 7q-15 15 -6 28zM281 485v19q11 27 28 31q3 0 9 -4t8 -5l10 -14l10 -12l-6 -23q-5 -7 -14 -10q-7 0 -11 -4l-20 6q-1 0 -2.5 1t-3 2.5l-3 3t-2 3.5t-1.5 3.5t-2 2.5zM324 356q-4 18 4 31q1 1 1 4.5t1 5.5l10 13q6 4 14 4q7 -4 17.5 -15.5 t15.5 -15.5q5 -11 2 -27q-1 -1 -3.5 -5.5t-4.5 -6.5q-19 -6 -25 -7t-24 5zM373 221q-2 4 -1 10t2 9.5t2.5 8.5t2.5 9l14 23h23q14 -14 18 -27q0 -3 -1 -8t-1 -8q-1 -2 -2.5 -5.5t-1.5 -4.5v-5q4 -11 1.5 -16t-11.5 -10q-26 9 -35 14zM475 180q-6 25 12 62q3 2 17 2 q3 -1 6 -3t6 -5l4.5 -4.5t4 -5.5t3.5 -5v-33q-1 -3 -4.5 -8t-3.5 -6q-1 0 -2 -1t-2 -1q-4 0 -12.5 -4t-14.5 -2q-8 6 -14 14zM553 313v15q1 1 2.5 5.5t2 6.5t2.5 4.5t4 4.5t5 3q1 3 7.5 1t7.5 -2t7.5 -3.5l6.5 -3.5l14 -14v-13q0 -1 -1 -3.5t-1 -4.5q-9 -12 -20 -16h-6 q-1 0 -4 1t-5 1q-1 1 -10 4q-2 4 -12 14zM612 455q3 6 15 18h8q12 6 18 6q18 0 18.5 -15.5t-5.5 -29.5l-15 -14q-3 0 -10 -1t-10 -1t-6 0.5t-5 2.5t-3.5 3t-2 4t-1.5 4.5t-1 6v5.5v5.5v5.5zM649 578l10 16q15 10 21 12q8 0 16 -8q2 -8 2 -29q0 -1 -3.5 -5.5t-4.5 -8.5 q-1 0 -3 -1t-3 -1q-2 0 -7.5 -1t-8.5 -1q-2 0 -5 1t-4 1q-14 6 -10 25zM692 707q-5 32 29 57q13 -3 24 -14q0 -1 7 -15l-7 -22q-13 -21 -34 -21q-11 3 -19 15zM735 862l6 8l17 9q17 0 30 -17v-14l-8 -17l-14 -6q-4 -1 -8.5 0t-9 3t-7.5 3q-10 15 -6 31zM782 932v26 q15 25 23 29h8q4 -2 7 -5.5t6 -9t5 -7.5v-23q-12 -12 -22 -27q-4 0 -10.5 3.5t-10.5 3.5z" />
<glyph unicode="w" horiz-adv-x="1689" d="M199 702v31q11 14 22 21h15q13 -7 16 -17v-18q-10 -29 -33 -35q-4 2 -20 18zM211 862v25l8 16q12 6 14 8l19 -8q4 -3 7.5 -11t4.5 -9v-15q-8 -21 -22 -28l-23 6q0 2 -1.5 5t-3.5 6.5t-3 4.5zM217 559q-3 19 0 41q7 8 21 12q11 0 26 -18v-23l-10 -18q-11 -8 -21 -8 q-10 3 -16 14zM219 430q-2 5 0.5 14t-0.5 11q7 14 19 20q5 0 8 0.5t6.5 -1t5.5 -2.5t5 -3.5t4.5 -4.5t4 -4.5l4.5 -4.5v-23q-14 -17 -32 -20l-17 8zM252 276v25q1 1 3 5.5t3.5 6.5t4.5 4t7 2l13 7q8 -4 13.5 -8.5t9 -9.5t7.5 -13v-8q-3 -3 -8 -13q-6 -7 -19 -9.5t-16 -4.5 q-11 3 -18 16zM344 221v12q3 9 4.5 12.5t6.5 8t12 4.5l20 -10l14 -17q0 -1 1 -2t1 -2q-9 -18 -16 -22q-8 -2 -27 -2q-6 3 -16 18zM471 215q-3 12 0 27q8 11 23 22q22 0 36 -28q0 -20 -28 -37q-6 -1 -16 3t-13 5q0 1 -1 3.5t-1 4.5zM606 231q2 11 19 37l12 8h20q10 -4 19 -22 v-14l-8 -15q-1 -2 -6 -6.5t-7 -7.5q-19 -3 -34 0q-7 3 -15 20zM719 324v24q4 16 29 25q4 0 6 -2q7 0 14.5 -7.5t11.5 -15.5q0 -2 4 -10q0 -9 -6.5 -19t-16 -17t-18.5 -7q-6 0 -8 2q-4 0 -4 4zM750 481v21q9 18 22 22h31q10 -3 16 -22q0 -6 -3 -12t-8.5 -13.5t-6.5 -9.5 q-5 -2 -10 -3t-10.5 0t-9.5 2.5t-9.5 3.5t-7.5 3zM756 815v16l6 19q4 5 11.5 8t8.5 4h11l14 -6l8 -8v-21l-2.5 -5t-2.5 -6t-2.5 -6l-2.5 -5q0 -2 -4 -6q-17 -4 -29 -2q-9 5 -16 18zM766 657v35q6 13 15.5 17t27.5 4q11 -6 18 -19v-16q-7 -20 -20 -31q-15 -6 -23 -4.5 t-18 14.5zM778 905v19q1 3 4.5 8t3.5 6q2 2 7.5 4.5t7.5 5.5q4 -2 10.5 -5t7.5 -3l8 -8v-27q-2 -2 -8 -8.5t-8 -9.5h-25q-2 10 -8 18zM858 336v24q3 10 5 14.5t6.5 9.5t11.5 7q25 0 32 -22q0 -1 1 -2.5l2 -3t2 -3.5v-12l-7 -12l-4 -4l-24 -13h-15q-6 4 -10 17zM942 225v23 q1 1 4 5.5t4 8.5l17 8l20 -8q4 -2 12 -10l9 -16q0 -5 -2 -5q-1 -4 -4.5 -7.5t-6 -5t-9 -4.5t-7.5 -3q-5 -1 -11 0t-12.5 3t-9.5 3q-4 4 -4 8zM1094 197v28q7 7 10 13q16 8 22 8q4 0 7.5 -1t5.5 -1.5t5 -3.5l4 -4t3.5 -4.5t2.5 -4.5t2.5 -5.5l2.5 -4.5v-8q-7 -15 -29 -29h-20 q-6 1 -16 17zM1221 246v14q13 18 22 23h21q10 -10 12 -11l10 -20v-19q-1 -4 -4 -6.5t-5.5 -3.5t-6.5 -3l-6 -3h-11l-24 12zM1303 362q3 23 24 35h21q23 -15 16 -28q-12 -42 -41 -35q-20 8 -20 28zM1317 502l8 16l8 10q5 1 13 5l12 6q13 -6 24 -25v-8q-4 -8 -13.5 -18 t-22 -16.5t-21.5 3.5l-6 8q-2 6 -2 19zM1323 645v12l12 23v10q6 9 15 15q4 0 6 2l26 -25l7 -18q-4 -11 -9 -19l-20 -12h-25q-10 7 -12 12zM1329 772q6 18 6 19q0 12 33 12l14 -17v-14q-3 -17 -18 -29l-18 -6q-24 8 -17 35zM1335 879v18q9 22 17 27h12q20 -10 25 -23v-16 q-8 -17 -19 -21h-18q-11 4 -17 15z" />
<glyph unicode="x" horiz-adv-x="1196" d="M203 193l8 8q5 2 31 2q2 -3 9.5 -12t10.5 -15q-7 -9 -35 -22l-14 6q-12 16 -10 33zM221 913q-2 7 2 23q2 3 7.5 5.5t7.5 4.5l20 -8q4 -4 4 -6q6 -19 -14 -33q-11 0 -15 -2q-2 2 -12 16zM266 248v35l8 16q10 3 21 0q2 -1 6 -5t6 -5q10 -3 12 -8q9 -9 13 -11q3 -8 0 -14 l-1.5 -3.5t-2.5 -4.5t-2.5 -4.5t-3.5 -5t-4 -4t-5 -3t-6 -1.5t-6.5 0t-7.5 3h-14zM276 858q2 2 5 6.5t5.5 8t6 6t8.5 2.5h6l17 -7q2 -5 2 -28q-5 -10 -16.5 -17t-18.5 0q-9 3 -12 15q0 5 -3 14zM313 371q0 5 2.5 8.5t5 5t8.5 3.5t7 3q8 2 26 2q23 -15 17 -33q-4 -4 -8 -6 t-10.5 -5t-10.5 -5h-26l-9 6q-2 4 -2 21zM334 764l6 6l16 8l21 -6l10 -14v-15q-4 -15 -20 -24h-15q-8 4 -16 16q-5 13 -2 29zM377 463v29q3 6 14.5 12.5t14.5 9.5q10 0 14 2q5 -5 14 -8l8 -14v-11q-10 -26 -36 -34h-11q-5 1 -18 14zM410 629q-6 28 8 49q10 2 35 2l16 -16 v-19q-5 -24 -31 -33h-16q-3 2 -5 4.5t-4 6.5zM516 535q0 37 16 53q2 2 8.5 5.5t8.5 4.5h18q11 -5 15.5 -12t9.5 -21l-6 -20q-6 -9 -15 -15q-3 -3 -11.5 -6t-12.5 -6h-12q-13 5 -19 17zM635 655q3 9 14 17h31l16 -6q9 -9 9 -13q-2 -3 -5 -7t-5.5 -7t-5.5 -7t-5.5 -7t-6 -6 t-7.5 -5q-1 0 -3 -1t-3 -1h-13l-14 6q-5 7 -2 37zM647 465q2 6 2 12q0 4 2 4l13 21q24 6 38 -15v-16q-9 -12 -16.5 -17t-23.5 -5q-3 2 -8 8t-7 8zM698 756v2q1 3 2.5 8t2.5 8.5t2.5 7.5t3 7t4 6t5.5 5.5t7 4.5q9 0 29 -12l10 -15v-20l-12 -10q-4 -8 -11 -13q-8 -2 -28 -2 q-3 1 -5.5 4t-3.5 5t-3.5 7.5t-2.5 6.5zM702 362q5 13 13 19t24 12q8 -3 13.5 -7t7 -7t6.5 -12v-11q-8 -8 -10 -12l-19 -8q-12 0 -18 -2q-12 6 -12 16zM752 254q0 8 3 22t3 21l16 8h21q3 -4 8.5 -12t7.5 -10v-15q-6 -12 -6 -14q-5 -6 -15.5 -9t-13.5 -5q-2 1 -6 2t-6 2 t-4.5 2t-4.5 3t-3 5zM758 870q4 19 12 27q5 2 33 2q10 -10 12 -16v-15q-3 -7 -18 -22q-8 -4 -25 0q-4 3 -6 6.5t-4.5 9.5t-3.5 8zM791 182q-7 13 14 27q13 3 29 0l12 -12q4 -8 4 -23q-14 -24 -31 -24h-10l-8 6l-4 12t-6 14zM813 932v22q2 6 12 13h19q8 -5 16 -15q0 -1 1 -3 t1 -3q-1 -3 0.5 -4.5t-0.5 -4t-1.5 -3.5t-2.5 -3t-3 -2.5t-3.5 -2.5t-4 -2t-4 -2l-3.5 -2l-23 6z" />
<glyph unicode="y" horiz-adv-x="1101" d="M164 788q2 3 5.5 13.5t8.5 16t12 5.5l7 4q2 -1 5.5 -2.5t5.5 -2t4.5 -2t4.5 -3.5l6 -16q0 -25 -18 -43l-15 -6l-8 4q-8 3 -10 8q-1 2 -2 7t-2.5 9t-3.5 8zM164 918v16q10 20 24 29l9 -4.5t10.5 -5t8 -5.5t7.5 -8v-14l-6 -15l-20 -14h-17l-8 6q-7 14 -8 15zM172 657v2 q3 3 8.5 11.5t7.5 11.5l15 6l12 -6l14 -20v-11q-11 -22 -34 -22q-19 0 -19 18q0 2 -4 10zM176 520v27q6 6 6 8q4 1 11 1t10 1l16 6q25 -12 17 -35q-15 -15 -21 -18q-29 -6 -39 10zM199 399v11q10 19 34 26h13l12 -14q2 -3 1.5 -7t-1 -6t-2 -6t-2.5 -6q-7 -10 -21 -20 q-3 -2 -6.5 -1t-6 2t-5 2.5t-4.5 2.5q-2 0 -2 2zM225 -197l6 9q5 2 25 2q7 -7 10 -13v-18l-2 -4q-12 -6 -14 -8q-11 0 -17 2l-2 2l-6 14v14zM262 289l12 24q3 1 7.5 3t9 3t8.5 0q4 0 7.5 -2.5t5.5 -4.5t6 -7.5l4 -5.5v-20l-13 -15l-16 -8q-11 -2 -25 8q-2 3 -2.5 12t-3.5 13 zM303 -242q1 2 6 27q7 10 19 16h18q4 -1 6.5 -4t3.5 -5.5t3 -6.5l3 -6q-1 -3 -3 -12t-5 -14.5t-8 -10.5q-12 0 -16 -2q-3 1 -5.5 2.5t-5.5 3t-4 2.5t-5.5 4t-6.5 6zM356 225v19q14 14 17 16q16 4 41 -6q2 -2 2 -4q6 -6 6 -12q2 -3 1 -6.5t-2 -5.5t-2.5 -5.5t-2.5 -5.5 l-21 -14h-20q-2 0 -8 6zM424 -260q8 30 29 43h14l14 -10l8 -21q0 -5 -3 -11t-3 -9l-28 -15q-15 5 -23 9zM473 233q11 14 29 21q8 1 16.5 -3t13.5 -11t5 -15q-4 -15 -11 -22l-16 -8l-18 8q-4 4 -7.5 8.5t-6.5 11.5t-5 10zM537 -227q2 3 5 9.5t6 11t7 7.5h27q3 -2 16 -16v-16 l-8 -17l-21 -10q-12 4 -18 8zM586 244v16q3 6 16 19q15 3 29 0q8 -6 16 -17v-20q-5 -9 -22 -17h-15q-1 1 -5 2.5t-5.5 2t-4 2t-4 3t-3 4t-2.5 5.5zM647 -137q5 9 23 22q4 0 7 -1.5t8 -4.5t7 -4q0 -3 10 -20v-17q-4 -11 -18 -18q-22 0 -27 2l-8 6q-2 6 -2 35zM715 0 q8 24 22 31q3 1 6.5 0t5.5 -1.5t5.5 -2t5.5 -2.5l8 -17v-26q-9 -23 -41 -23q-19 6 -12 41zM733 121v14q3 19 21 27h6q6 0 18 -6l15 -21v-14q-7 -22 -33 -27q-15 0 -23 15zM739 291q7 20 23 31h20l17 -23v-25q-5 -12 -17 -18h-20q-12 4 -17 12q0 1 -2.5 6t-3.5 9t0 8z M752 442v17l6 24l14 13q15 4 25 -4l14 -33v-23q-8 -12 -14 -16q-4 -2 -27 -2q-8 2 -13 9t-5 15zM758 618v17q0 1 1 4t1 4q1 1 2 4.5t2 5.5l8 6h16q14 -7 15 -8l4 -18l10 -15v-14q-5 -9 -18 -16h-19q-6 2 -10.5 7t-6.5 9.5t-5 13.5zM768 895q13 30 25 37h14l12 -6q3 -2 8 -17 v-14q-2 -7 -14 -16q-5 0 -25 -5l-10 5q-2 2 -5.5 8t-4.5 8zM780 782q4 9 17 17q12 0 18 -4t12 -13v-20q-5 -13 -15.5 -19.5t-23.5 0.5l-6 9q-2 10 -2 30z" />
<glyph unicode="z" horiz-adv-x="956" d="M209 283q7 20 18 34q10 2 25 2l14 -14q9 -17 2 -35t-24 -18h-19q-19 10 -16 31zM217 893v18q0 4 2 4q7 11 25 25h20q19 -5 19 -29q-12 -20 -39 -34q-20 9 -27 16zM272 426q16 32 35 45h21l10 -16q0 -3 1 -8.5t1 -8.5l-12 -24q-5 -7 -25 -15q-16 3 -29 13q-2 4 -2 14z M311 287q12 13 29 20h2l14 -6q4 -2 6.5 -5.5t5 -8.5t3.5 -6q2 -10 2 -29q-8 -8 -25 -14q-4 0 -16 4q-5 0 -13 8q-8 32 -8 37zM356 530q0 22 19 37q4 2 12 1.5t12 0.5q4 -3 7 -6.5t5.5 -8t4.5 -7.5v-15q-4 -7 -7 -10t-6.5 -5t-13.5 -5q-27 0 -33 18zM367 901v19q0 1 1 3t1 3 q21 21 26 24l19 -8q13 -10 18 -20v-15l-12 -20q-2 -1 -23 -8q-4 0 -22 6q-4 12 -8 16zM453 283q9 22 32 32q2 0 7.5 1t7.5 1q10 -7 13 -13.5t3 -24.5q-24 -19 -35 -21q-22 3 -28 25zM463 635q-1 6 2.5 15t3.5 12l12 22q1 0 3.5 1t4.5 1q4 4 7 4q11 3 21.5 -6t10.5 -20v-9 l-10 -20q-19 -12 -31 -14l-18 6zM500 901v21q19 31 55 24q2 0 2 -2q2 -2 4.5 -6.5t3.5 -5.5q1 -5 0 -9.5t-3 -8.5t-3 -7q-10 -7 -12 -12q-4 -4 -12 -8h-7q-8 4 -14 4q-6 2 -14 10zM553 768l4 16q1 1 3 4t2.5 4t2.5 3.5t3 3l3 1.5t4.5 1.5t5.5 1t7 0.5q9 -4 22 -31 q3 -13 -12 -20l-25 -11q-12 7 -20 27zM571 244v28q2 2 7 8t9.5 9.5t10.5 5.5q1 -1 4 -3.5t5 -4.5t3.5 -5t1.5 -6q9 -27 9 -38q-14 -11 -31 -11q-11 6 -19 17zM621 918v20l6 8q2 0 18 5t27 3q0 -2 4 -6q7 -4 10 -18q-4 -15 -18.5 -24.5t-34.5 -4.5q-3 1 -5 3.5t-4 7t-3 6.5z M643 276q5 12 16 27l19 10q5 0 11.5 -6.5t8.5 -7.5v-16q-3 -10 -8.5 -15.5t-17.5 -13.5h-15q-14 5 -14 22z" />
<glyph unicode="{" horiz-adv-x="729" d="M154 858v25l10 14q4 2 22 2q10 -7 15 -14q3 -13 0 -25q-5 -8 -17 -14h-18q-9 3 -12 12zM231 764v8q6 12 17 19h10q1 -1 6.5 -4t7 -4t5.5 -5t3 -7t-1 -9l-21 -19q-13 -7 -27 21zM244 881q-7 43 12 49h18q14 -7 17 -19v-10q-4 -21 -23 -31h-14l-4 2zM274 147v23l4.5 4.5 l6 6t5.5 4.5t6.5 4.5t6.5 2.5t8 1q8 -4 13 -9q3 -2 5.5 -7t4.5 -7l-8 -23q0 -1 1 -4t1 -4q0 -4 -4 -8h-33q-9 5 -17 16zM276 670q-10 20 11 41q11 3 20 0l10 -9q4 -7 2.5 -19t-6.5 -17l-24 -9zM281 283q12 28 20 36q3 1 6.5 0t5.5 -1.5t4.5 -2.5t3.5 -3l3.5 -3.5l3.5 -3.5 q3 -16 0 -29q-4 -9 -21 -22q-10 0 -18 8q-2 3 -8 21zM287 999v21q10 20 14 22q1 0 3 1t3 1h17q16 -8 16 -30q-9 -23 -23 -29q-8 0 -12 -2q-11 6 -18 16zM293 1165v6q2 5 3.5 13t2.5 10q10 10 16 12q14 0 31 -20v-27q-4 -10 -16 -17.5t-23 -4.5l-8 6zM297 1290q2 8 2 21 q0 4 2 4q8 4 12 8q3 1 6.5 1t8 -0.5t6.5 -0.5q13 -7 18 -16q-3 -13 -12 -25q-26 -10 -29 -4zM299 401v21q7 13 16 18q22 0 27 -2q12 -10 10.5 -25t-12.5 -26q-12 -4 -21 -4q-8 2 -20 18zM299 543v26q6 12 18 21q17 7 29 -8q1 -3 1 -7.5t-0.5 -8t0.5 -8t3 -7.5q0 -1 -3.5 -8 t-8.5 -11q-2 -1 -6 -3.5t-8.5 -4t-8.5 -0.5q-11 5 -14 15q-2 2 -2 4zM311 1430q0 48 21 55l24 -6q6 -12 9 -15v-26q-2 -8 -15 -17l-18 -6q-2 1 -6 2.5t-6 2.5t-5 3.5t-4 6.5zM315 29v12l9 16q7 3 14 9h20q3 -1 13 -11q1 -4 1 -8.5t-0.5 -9.5t-0.5 -8q-2 -2 -2 -4 q-12 -6 -15 -9q-3 -1 -10.5 0t-11.5 0q-8 0 -17 13zM358 1579q6 7 9 14l14 6h10q21 -14 21 -22v-8q-15 -22 -33 -27l-10 6q-8 14 -11 31zM451 1628v23l22 26q14 8 25 -6l2 -2q0 -2 4 -6v-27q-1 -3 -3.5 -5.5l-4 -4t-5 -3.5t-5 -3t-6 -3t-5.5 -3h-16z" />
<glyph unicode="|" horiz-adv-x="630" d="M229 1602v26q1 2 3 7.5t4 9t6 6.5l12 6q15 -5 20 -10l9 -15q3 -14 0 -28q-4 -11 -27 -23q-12 0 -27 21zM231 1325v27q7 22 27 22q20 -5 41 -26v-21q-2 -2 -5 -5.5t-5.5 -6t-5.5 -4.5q-5 -2 -33 -2q-12 6 -19 16zM233 715v16l7 19l6 6q5 2 12 2.5t10 1.5q2 -2 8.5 -5 t8.5 -5q5 -10 8 -13v-22q-9 -14 -23 -23h-14l-12 6q-3 2 -4.5 4.5t-3.5 6.5zM233 1466q2 2 5.5 9.5t5.5 9.5l10 16h8q25 -8 31 -20v-21q-7 -18 -35 -18q-1 1 -6 3t-8 3.5t-6.5 4.5t-4.5 6t0 7zM236 866q0 22 18 37q15 3 29 0l10 -6l6 -8v-10q-11 -27 -35 -35l-20 6 q-4 4 -8 16zM236 1038q3 18 14 29h14q7 -2 14.5 -16t10.5 -17q-4 -19 -15 -26q-13 -4 -26 0l-2 4q-4 5 -5 14.5t-5 11.5zM236 1210q5 11 22 19h8q10 -2 21 -10l8 -17v-4q-8 -19 -16 -27q-10 -2 -29 -2q-10 0 -13 14.5t-1 26.5zM242 391q4 10 9.5 15t16.5 12q28 -6 37 -23 q11 -5 -10 -33q-5 -5 -14 -8q-13 0 -21 -2q-2 3 -14 15q-2 5 -2.5 13.5t-1.5 10.5zM244 565q8 17 20 19q22 -6 33 -23q0 -2 1 -6.5t1 -7.5l-8 -17q-15 -10 -19 -14q-5 -2 -20 2l-6 6q-5 18 -2 41zM246 80v12l6 14q4 4 29 19q4 -2 16 -2q10 -14 14 -29l-6 -16q-12 -6 -14 -8 q-9 0 -15 -2h-16q-8 3 -14 12zM256 -20q9 13 23 22q22 -3 28 -27q-14 -32 -39 -26q-12 0 -12 28v3zM260 233q4 11 16 17q0 2 5 2h14q8 -3 18 -23v-20q-2 -4 -3.5 -8.5t-2 -6.5t-2 -4.5t-4 -4t-6.5 -3t-10 -4.5h-9q-1 0 -3 1t-3 1q-16 8 -10 53z" />
<glyph unicode="}" horiz-adv-x="735" d="M199 1653q-3 21 14 30q12 -4 18 -4q17 -17 5 -34q-15 -10 -19 -9q-12 8 -18 17zM242 39v27q2 7 16 18h8q17 0 23 -18v-19q-4 -12 -27 -22q-14 6 -20 14zM248 1552v25q10 17 22 22q19 -3 31 -18q3 -13 0 -25q-5 -10 -18 -20q-27 -7 -35 16zM285 166q4 12 4 18q0 11 2 17 l8 10h14q14 -7 19 -14v-25q-7 -10 -21 -20q-11 -6 -26 14zM291 301v12q8 20 20 23h11q10 -7 13 -11t9 -20q-5 -10 -22 -22h-15q-4 0 -6.5 2t-4 4t-3 6.5t-2.5 5.5zM291 426v20l12 29q4 2 12.5 1.5t12.5 0.5l5.5 -4.5t8 -8t2.5 -7.5v-23q-5 -8 -25 -18h-16q-8 3 -12 10z M291 598l8 16q0 6 13.5 7.5t19.5 -0.5q3 -1 5.5 -2.5t4 -3.5t4 -4.5l4.5 -4.5q7 -33 -24 -51h-15q-8 8 -12 10q-9 23 -8 33zM295 1456q0 13 12 19q4 0 8 4q18 -6 27 -21q0 -1 1 -3.5t1 -4.5q0 -18 -22 -29q-11 -6 -17 0t-8 14t-2 21zM301 1313q0 4 2 6l6 14l17 8q4 -4 16 -8 l14 -14v-21l-8 -16q-12 -6 -14 -8h-15q-4 4 -4 6q-7 11 -14 33zM303 1133q-4 12 0 36l8 9h23q10 -11 10 -33q-3 -4 -20 -21q-14 -5 -21 9zM307 1034l23 17h16l8 -7q4 -12 8 -16v-14q-15 -22 -28 -29q-7 -2 -19 6q-2 5 -3 15t-3 14q0 10 -2 14zM340 893l6 22l8 9h21 q16 -12 16 -25q0 -8 -6 -15t-10.5 -9.5t-14.5 -6.5q-11 4 -20 25zM344 692q0 20 21 37h22q9 -2 16 -16v-15l-3 -6t-4.5 -8t-6.5 -8q-6 0 -22 -4q-12 4 -23 20zM424 795v20q5 18 16 25h19q10 -5 18 -16.5t6 -22.5l-8 -13q-2 -2 -20 -14q-2 -1 -7 0t-6.5 1.5t-5.5 3t-6 3.5z " />
<glyph unicode="~" horiz-adv-x="823" d="M182 741q3 18 23 31h8q16 -11 16 -29q-6 -25 -36 -18q-6 2 -11 16zM254 791q2 4 4.5 7.5t7 7t8.5 3.5t9 -4l12 -12q0 -11 2 -15q-3 -8 -10 -12q-11 -2 -31 2q-2 3 -2 23zM356 750q5 7 15 14q6 -2 13.5 -6.5t14.5 -11t7 -11.5q2 -6 2 -14l-23 -19q-29 5 -29 48zM465 721 q13 20 31 14q13 -3 16 -16q-4 -20 -14 -25q-6 -1 -9 -0.5t-7.5 3t-6.5 3.5q-13 8 -10 21zM532 752v22q12 14 27 14q21 -4 27 -14v-12q-6 -12 -17 -19q-17 -4 -28 0z" />
<glyph unicode="&#xa0;" />
<glyph unicode="&#xa1;" horiz-adv-x="622" d="M233 -20q9 18 17 24q2 2 2 4l2 6q4 9 6 9q2 1 6 0t6 0q7 0 7 -3q2 -3 7.5 -7t6.5 -5l6 -10v-27q-8 -14 -10 -14q-19 -9 -37 -4q-19 8 -19 27zM252 125q3 17 5 23t5 9.5t12 10.5q4 2 12.5 -0.5t12.5 -1.5l8 -6q1 -4 4 -10t5 -12t1 -11q-8 -23 -26 -23q-19 -6 -33 2z M252 303l6 25q10 14 31 14q15 -6 20 -18v-17q-2 -19 -16 -22h-21q-14 3 -20 18zM258 696q1 2 5 5t5 6q0 4 4 4q8 0 11 6q4 -2 8 -2h4q8 -4 14 -4q8 -6 13 -21q-5 -15 -23 -24h-4q-4 0 -8 -4q-4 1 -12.5 5t-12.5 5q-1 2 -3 7.5t-2 7.5t1 9zM264 578q2 3 1.5 9t0.5 11 q3 11 17 18q17 -5 34 -22q5 -9 2 -14q-3 -17 -16 -23q-6 0 -8 -2q-9 5 -23 8zM264 1120q0 2 1 8t1 9q1 1 7 5.5t8 8.5q20 4 24 4l17 -12l6 -8v-13q-6 -23 -35 -30l-21 6zM266 424v29q9 6 13 18h14q6 -2 9.5 -4t6 -4t3 -2.5t2.5 -4.5t3 -5v-15q-6 -14 -14 -20l-16 -4 q-1 1 -10 4t-11 8z" />
<glyph unicode="&#xa3;" horiz-adv-x="1210" d="M166 188q-2 3 -0.5 10.5t0.5 10.5q10 16 43 24q6 0 10 -4l14 -16v-8q-2 -5 -5 -8.5t-5 -5.5t-5.5 -5t-6.5 -6q-14 -4 -31 -4q-1 1 -7 4.5t-7 7.5zM182 702q4 8 4 15q9 16 27 12q5 -2 12.5 -10.5t12.5 -11.5v-13q-5 -16 -23 -26q-8 0 -16 4q-4 0 -4 2q-4 5 -13 28z M281 209v20q1 1 2 5t2 6q18 12 20 14q25 -3 37 -27v-18q-6 -10 -29 -19l-22 5q-1 1 -10 14zM285 686q-12 36 24 49h19q22 -6 14 -47v-8l-10 -6q-5 0 -16.5 1t-16.5 1zM401 463q-6 27 15 51l16 10q1 -1 3 -2t3.5 -1h3.5t4 -1q5 0 9.5 -4.5t9 -11t6.5 -8.5v-17l-8 -20 q-2 -3 -10.5 -10t-10.5 -9q-10 0 -16 -2l-6 4h-8q0 5 -5 12t-6 9zM406 201q6 24 22 43q4 0 16 4q15 -6 21 -11.5t12 -19.5q0 -8 -2 -12q0 -12 -12.5 -19.5t-26.5 -9.5q-10 0 -26 8zM408 311q1 3 1.5 14t2.5 17q15 15 22 18q8 0 12 2q4 -4 9 -4l12 -18q2 -6 2 -14 q-9 -17 -23 -25q-3 0 -8 -1t-8 -1q-16 4 -22 12zM408 659q0 1 2 9t4 12l12 18q14 10 20 11q13 -3 21 -23q0 -2 1 -6t1 -6q6 -12 -4 -41l-16 -8q-9 -2 -25 2l-8 6q-1 6 -4 14.5t-4 11.5zM414 805q0 3 1 9t1 9l6 15q4 2 12 10q11 0 17 2l12 -6q8 -5 13 -16.5t3 -20.5 q-12 -38 -45 -31l-8 4zM422 946q0 33 10 43q0 8 21 8h6q16 -13 22 -30v-13q-1 -1 -4 -10l-8 -6l-12 -4t-15 -4q-1 1 -6.5 4t-9.5 6t-4 6zM428 1108q0 29 33 55h16l15 -14v-10q0 -5 2 -14.5t2 -14.5l-4 -10q-7 -2 -15.5 -12.5t-11.5 -12.5q-8 4 -12 4h-4q0 3 -7 9.5t-8 7.5z M467 1251q7 26 41 43q13 -4 22 -22q0 -3 -4 -15l-14 -18q-5 -2 -29 -8q-1 2 -4.5 4.5t-5 4t-3.5 5t-3 6.5zM547 1364q2 12 16 29q15 10 29 10l18 -17q0 -17 -7.5 -26t-24.5 -19h-19q-12 4 -12 23zM551 684q-2 7 -1 11t3 9.5t2 8.5l10 6l-2 2h2h6q3 -1 8 -1t8.5 -1t6.5 -4 l12 -17q0 -6 2 -10q-2 -7 -6.5 -11.5t-8.5 -6.5t-13 -6q-21 7 -23 8q0 1 -1 3t-1 3q-4 4 -4 6zM567 217q4 8 4 14l15 17l12 4q16 0 23.5 -15.5t-0.5 -29.5q-12 -8 -17 -8q-18 0 -31 8q0 1 -1 2.5t-2.5 3.5t-2.5 4zM649 698v11q10 19 29 24q4 1 8.5 -1t9.5 -6t9 -5l6 -16 q0 -11 -2 -15q-13 -9 -13 -14q-8 -6 -30 -6q-4 4 -9 14.5t-8 13.5zM678 1386q1 1 4 6.5t5 8t5.5 6.5t8 6t8.5 2q15 0 21.5 -5.5t10.5 -18.5q0 -1 -1 -3.5t-1 -3.5q-10 -14 -37 -20q-1 0 -2.5 1t-3.5 1t-4 -2q0 1 -1 2t-1 2q-4 0 -6 2zM696 203q-3 13 0 22l0.5 9.5t5.5 13.5 q2 0 6.5 4t6.5 4q12 2 15.5 1.5t12.5 -5.5l13 -21v-16q-4 -4 -4 -6q-2 -2 -2 -8l-21 -11h-10q-2 2 -10.5 6t-12.5 7zM797 246q4 8 4 12l12 16l16 7q1 0 5 -1t6 -1l12 -9q4 -6 8 -18q2 -15 -6 -39q-2 -2 -8 -5.5t-8 -4.5h-15q-5 1 -16 12q0 1 -1 6t-2.5 7.5t-4.5 4.5 q0 9 -2 13zM813 1335v6q4 8 4 13q3 11 12 14q2 0 2 2q19 0 29 -4q1 -1 4.5 -5t5 -7t0.5 -8q-2 -12 -12.5 -21.5t-23.5 -9.5q-17 17 -21 20zM872 1241v14q1 5 7 13t8 12l24 6q17 -3 23 -20q-1 -2 -1.5 -10t-2.5 -11q0 -2 -1 -5.5t-1 -4.5q-8 -8 -13 -8q-4 0 -8 -2q-4 2 -16 2 q-10 5 -19 14zM897 248l6 16q1 0 4 1q16 5 23.5 5.5t23.5 -6.5l13 -14v-17q-9 -15 -13.5 -19t-23.5 -15h-10q-13 6 -17 12q3 19 -6 37zM905 1108q-6 12 2 27l11 8h16q27 -9 27 -27v-4l-7 -10l-12 -6q-3 -3 -14.5 -0.5t-14.5 2.5q0 1 -4 4.5t-4 5.5z" />
<glyph unicode="&#xa5;" horiz-adv-x="1146" d="M201 1319v18q8 15 18 23q2 0 5 -0.5l6 -1t6 -0.5q9 -6 18 -15q2 -4 4 -11.5t2 -8.5q-2 -12 -12.5 -18.5t-22.5 -4.5q-4 0 -8 -2q-14 17 -16 21zM276 1167q-13 22 5 52q5 3 9 4t8 -0.5t7 -3t7 -5.5t6 -5.5t6 -6.5q6 -21 -13 -37l-12 -6h-12zM344 1071l4 14q1 3 5 8t5 9 q2 0 5 1t4 1h4q5 0 20 -12l8 -21q0 -2 -1 -6t-1 -6q-5 -7 -24 -17q-6 2 -19 2l-8 11q0 10 -2 16zM434 963q5 15 12 20q17 5 43 -14l5 -8v-21q0 -1 -2 -3.5t-3 -4.5l-7 -3.5t-7 -3t-7.5 -1.5t-8.5 0q-2 0 -10 4q-1 2 -11 12q-4 12 -4 23zM469 217l8 14l10 7q2 -1 5 -2 t5.5 -1.5t5.5 -2t5.5 -3t5 -3.5t4.5 -5q0 -2 4 -10v-12l-10 -15q-2 0 -14 -4l-15 8q0 1 -2 7t-4 8q-1 3 -2.5 5.5l-3 5t-2.5 3.5zM481 696l8 21q3 3 23 8l8 -6q1 0 3 -1t3 -1l11 -12q0 -9 2 -13q-2 -11 -15 -24q-10 -2 -26 -2q-13 8 -15 12q-1 2 -1 8.5t-1 9.5zM483 836 l9 18l14 6q21 0 35 -18q1 -2 1.5 -5t1 -5t1.5 -3q-2 -4 -2 -10q-4 -9 -8 -13.5t-9.5 -7.5t-15.5 -5q-8 0 -23 14q-8 13 -4 29zM487 295v12l15 27l12 10h14q2 -5 9 -12l8 -8q1 -2 0.5 -5.5t-1 -5t-1.5 -5t-2 -5.5l-21 -16q-5 -1 -13 1t-13 1zM487 403v17q0 1 1.5 5.5t0.5 6.5 v2q3 5 15 12l14 -4l23 -18q1 -1 2 -4.5t2 -5.5v-4q0 -12 -6.5 -16.5t-19.5 -7.5q-2 -1 -3 -1h-4q-20 10 -25 18zM487 545v18q13 33 39 27q1 -1 3 -2.5t3 -2.5t3.5 -2t5.5 -1l4 -13v-14l-6 -14q-37 -20 -50 0q-2 2 -2 4zM559 903q-10 3 -10 12.5t5 18t9 12.5q0 4 2.5 7.5 t6.5 7t6 6.5h16q1 -1 9 -7t11.5 -11.5t3.5 -12.5q5 -9 -2 -23q-20 -20 -34 -20l-4 6q-2 -2 -7 -2q-2 0 -5.5 3t-6.5 3zM637 1018v12q0 3 2 8.5t2 8.5l14 14q3 1 6.5 1t6 -0.5t5.5 -2l5 -2.5t5.5 -3t4.5 -3t2 -3.5l2 -5t2 -5.5t2 -5l-6 -18q-6 -8 -20 -15h-13q-8 4 -10.5 6.5 t-9.5 12.5zM688 1096q-1 4 0 11.5t0 10.5v23q0 1 1 3.5t1 4.5q2 1 5.5 4t6.5 5t7 3l22 -6q2 -2 14 -20q3 -4 0.5 -13t-2.5 -10q-3 -20 -24 -29q-3 -1 -27 4q0 5 -4 9zM760 1208q-1 11 8 39l8 8q2 0 4.5 1t3.5 1q12 3 23 -4l16 -14q0 -1 1 -3t1 -3q-4 -29 -20 -41q-2 0 -4 -2 q-14 -3 -31 4zM834 1317q0 2 1.5 5t3 5t4 4.5l3.5 3.5q12 4 16 8q5 -1 10.5 -3.5t11 -6t7.5 -4.5l4 -12l-6 -17l-15 -8l-6 -8q-7 -1 -15.5 2.5t-12.5 3.5q-4 8 -4 13q0 1 -1.5 6t-0.5 8z" />
<glyph unicode="&#xa7;" horiz-adv-x="1097" d="M238 -43q4 8 4 10q0 12 10 29h14l29 -21l6 -16q-4 -8 0 -12q-8 -19 -20 -23q-5 0 -7 -2q-4 0 -6 -2q-8 4 -12 4q-4 2 -6.5 5.5t-5.5 9t-4 6.5q0 8 -2 12zM254 715q-10 30 12 49q3 0 9.5 1t9.5 1q16 -11 24 -33q0 -12 -12 -24q-12 -4 -14 -4q-19 2 -29 10zM262 858 q-12 20 2 45l12 12h19l18 -12q5 -20 4 -24l-4 -4q-15 -15 -28 -19q-2 1 -6.5 0t-6.5 0q-2 2 -10 2zM266 1473v12q4 17 21 26h20l17 -10q6 -12 6 -20q-11 -28 -45 -25l-9 4q-2 2 -2 6zM270 586q-2 10 -0.5 15t7 14t6.5 12q10 10 24 6l17 -17q0 -2 1 -6t1 -6t-1 -7t-1 -7 q-9 -11 -31 -15q-15 0 -23 11zM285 -190q1 2 2.5 4.5t2 4.5t1 5.5t-1.5 5.5l12 12q2 1 4 1h5t5 1q6 -2 17.5 -10t15.5 -10q3 -5 8 -23q1 -4 -1 -10.5t-1 -9.5q-11 -17 -20 -21h-23q-22 7 -26 27v23zM287 1325v18q7 14 8 15l14 10l6 -6h9q1 -2 5 -7t6.5 -9t2.5 -7 q1 -2 -0.5 -6t0.5 -6l-14 -16q-3 1 -10.5 -1t-10.5 -1q-4 1 -6.5 3.5t-5 6.5t-4.5 6zM311 995v6q0 14 8 25q3 0 3 4l12 8q30 -10 37 -32q0 -26 -15 -35q-1 0 -2.5 -0.5l-4.5 -1.5t-5 -2h-16l-15 4q-8 16 -2 24zM313 1597q-3 15 1 24.5t18 20.5q2 1 5.5 1t6.5 0.5t6 1.5 q5 -5 17 -9l6 -8l4 -14q-7 -14 -12 -19l-25 -10q-2 2 -8 2q-4 2 -10 2q-2 1 -9 8zM354 465q-1 7 0.5 16.5t1.5 12.5q4 10 17 18h10l8 -4l8 -6l9 -19v-4q0 -10 -9.5 -19.5t-19.5 -13.5l-14 5zM358 1188q-7 21 0 37q1 0 11 10q4 4 16 4l12 -4l17 -16v-17q-3 -5 -7.5 -8.5 t-10.5 -6.5t-9 -5h-18zM412 1696q0 1 1 4.5t1 5.5q5 22 24 25q16 0 33 -17q6 -19 -2.5 -29t-28.5 -18q-1 0 -5 1.5t-6 2.5t-5 3t-4.5 4t-1.5 5zM422 -229q6 14 16 28q5 0 13 4q8 -4 14 -4l20 -20l7 -25q-5 -15 -5 -18q-10 -10 -14 -10q-4 -3 -17.5 -0.5t-15.5 2.5 q-18 13 -18 28v15zM444 1098q0 2 1 5t1 5t-2 4q1 1 2.5 4.5t2.5 5.5t2.5 4.5t3.5 4.5t4.5 3t5.5 1q4 -1 24 -11l11 -14l8 -6l-6 -19q-2 -1 -6 -3.5t-7 -4t-7.5 -2.5t-8.5 0l-22 10zM453 389q0 40 22 51q2 0 7 -1t7 -1q30 -24 15 -55q-5 -5 -15 -8q-3 -1 -8 0t-8 0 q-2 2 -4 2.5t-5 0.5t-5 1zM522 1729l4 12q7 13 20 13t24 -7t16 -14q-4 -6 0 -19q-3 -6 -15 -18q-20 -2 -30 2l-9 10q-2 0 -6 4zM535 1008q0 18 7.5 33t22.5 8q4 0 4 -2q8 -5 17 -23q5 -5 2 -18l-13 -13h-12l-2 -2q-16 4 -22 10q0 3 -4 7zM537 305q1 9 16 33l10 6q2 -1 5 -2 t5 -1.5t5 -2t5 -3t4.5 -3.5t4.5 -4q0 -7 4 -15q-1 -4 -3 -7.5t-5 -7t-4 -5.5q-3 -1 -7 -2t-6.5 -1.5t-7.5 -1t-8 0.5l-14 6q-4 8 -4 10zM592 -223q10 25 26 41h15q6 -1 11 -5.5t10 -11t8 -8.5q0 -8 4 -16q-2 -2 -2 -6v-7q-18 -36 -54 -24q-11 5 -18 20v17zM623 926v8l10 18 l8 6l10 9l25 -11l6 -12v-14q-2 -6 -3.5 -8.5t-3.5 -6t-5 -5t-8 -3.5h-19zM631 227q0 8 3.5 13.5t12 12.5t10.5 9h11q15 -10 20 -20q2 -23 -18 -43q-7 0 -15 -4q-16 7 -22 12v4q-2 6 -2 16zM649 1649v24q0 5 4 13q0 4 2 7t3 4t5 4t5 3l14 -4l10 -8l13 -17v-18 q-16 -21 -27 -21q-5 -1 -12 0.5t-9 1.5zM668 -82l2.5 5t2.5 6t2.5 6l3 6t4 5.5t5.5 4.5h17l18 -10l6 -11l6 -14l-6 -20l-12 -9q-4 0 -11.5 -1.5t-12 -0.5t-9.5 6l-8 7q-1 0 -3.5 2.5t-4.5 3.5v14zM690 68q0 2 1 6.5t1 7.5q14 18 25 22h10q6 -4 10.5 -9.5t5.5 -7.5t7 -13 q0 -15 -13 -31l-16 -8q-2 2 -7 2.5t-9 1.5t-7 4l-6 8q0 11 -2 17zM690 512q-10 6 -10.5 14t5.5 21t7 16l8 4h5q8 -4 10 -4q7 -4 16 2q4 -4 12 -8v-22l-6 -15q-4 -2 -12 -10q-4 0 -10.5 -1t-9.5 -1t-15 4zM692 791q4 12 4 16q8 17 29 27q14 -6 25 -17v-24q-12 -18 -21 -23 h-16q-15 5 -21 21zM709 649q-1 2 0 5t2.5 7t1.5 7l2.5 5t3 5t3.5 5t5 5h10q10 -5 18.5 -16.5t8.5 -24.5l-4 -8q-4 0 -8 -4q-2 -1 -4.5 -1t-4.5 0.5t-4.5 -0.5t-3.5 -3q-1 1 -7.5 3t-10.5 5.5t-8 9.5zM711 1561q2 22 14 34h12l8 -6q11 0 17 -18v-23l-6 -12q-14 -4 -16 -3.5 t-19 3.5q-2 4 -4 6v10zM731 1427q0 3 6 27q19 14 39 4l10 -12q10 -20 -4 -37q-2 0 -6 -4q-2 0 -9.5 1t-10.5 2l-9 3t-10 6q0 1 -1 2.5t-2.5 3.5t-2.5 4z" />
<glyph unicode="&#xa8;" horiz-adv-x="821" d="M172 1315v14q3 3 8.5 11.5t7.5 11.5h17q22 -16 22 -45q-4 -7 -28 -21q-11 7 -19 10q-5 14 -8 19zM530 1325l7 23q2 2 8 5.5t8 4.5h20q18 -12 21 -27q-4 -8 -4 -12q-9 -14 -37 -14q-16 7 -23 20z" />
<glyph unicode="&#xa9;" horiz-adv-x="1611" d="M166 844q-2 8 2 24q10 10 27 17q23 -7 30 -25v-18q-11 -18 -18 -23q-11 -3 -33 6q-5 14 -8 19zM174 741q8 20 14 23h23l14 -23v-16l-8 -10q-9 -6 -18 -4q-15 10 -25 30zM178 956v13q7 20 37 37h6q13 -8 23 -21v-22l-6 -9l-19 -10q-6 -2 -14 -10q-16 0 -27 22zM209 621v22 q8 16 24 29q9 0 11 2q13 -4 22.5 -14t5.5 -23l-6 -12l-2 -2l-26 -17q-1 1 -4.5 1t-4.5 1l-6 3t-7.5 4t-6.5 6zM213 1098q2 2 5.5 8t4.5 8q1 0 14.5 3.5t20.5 2.5l6 -3l6 -3t5 -3t4.5 -4.5t1.5 -6.5t-2 -8q-16 -20 -35 -25q-22 9 -29 16q0 9 -2 15zM246 1202q-2 9 6 25l12 14 h8q14 -3 27 -16v-17l-14 -14q-16 -3 -31 0zM330 528v19q8 19 20 22l25 -12q11 -15 12 -23t-10 -22l-12 -6q-16 4 -25 4q-3 2 -6 9t-4 9zM348 1266v8q8 8 10 14l13 12q2 2 8 1t7.5 -1t7 -2.5t7.5 -3.5q7 -8 11 -18q-6 -14 -14 -21t-23 -12q-19 6 -27 23zM444 436v21 q8 15 23 24h20q4 -5 15 -8q9 -19 8 -27q-19 -14 -27 -14q-10 -3 -12 -8q-4 -4 -7.5 -5.5t-6.5 1t-5 4t-5 6.5t-3 6zM506 1407l6 18q9 14 12 15h4q15 4 41 -6q6 -12 9 -15v-16q-1 -1 -4.5 -6t-4.5 -8q-10 -5 -14 -9h-20l-15 9zM565 406v26q4 4 4 6l25 17q23 3 47 0l12 -6 l9 -17q-2 -5 -7 -15.5t-7.5 -15.5t-8 -12t-12.5 -12h-25q-31 9 -37 29zM637 1032v23l4 4q3 2 10 10t11 8q2 0 6 1t6 1q19 -12 16 -27t-20 -28q-3 0 -19 -4zM641 963q16 -3 27 -17v-26q-15 -11 -25 -11q-15 10 -16 24.5t14 29.5zM664 831q0 5 4 9q3 1 8 4.5t6 3.5q18 4 27 -8 l6 -15v-8q-6 -14 -31 -22l-14 12zM674 1464q0 9 8 25l6 6q17 3 29 0q7 -5 10 -7.5t5.5 -8.5t2.5 -15l-8 -14q-14 -11 -31 -8q-1 1 -6 4t-8 4zM711 1130v15q7 14 16 16q7 0 25 -20v-11q-8 -12 -15 -14q-5 -1 -11.5 2.5t-8.5 3.5zM754 379q6 24 28 27q7 1 23 -9q0 -1 3.5 -5.5 t4.5 -8.5v-23q-1 -4 -4.5 -7t-5.5 -4.5t-7.5 -3.5t-7.5 -3q-4 0 -22 6q-4 6 -8 18t-4 13zM766 805q9 3 14 8h11q13 -10 22 -25q-2 -9 -20 -18h-15q-18 6 -12 35zM807 1133v14q12 15 29 29q18 -7 24 -15q3 -9 0 -18l-8 -13q-6 -4 -14 -4q-25 -11 -31 7zM831 1464q3 26 23 37 h20q17 -3 23 -22v-13q-4 -14 -31 -24h-10q-14 4 -25 22zM868 799q0 5 9 18h14q11 -3 18 -16v-15q-3 -7 -10 -10h-4l-16 8l-2 2t-2 2.5t-2.5 2.5t-2.5 2q0 1 -1 3t-1 3zM909 408q8 20 21 28l14 -6q14 -14 17 -20l16 -19q-5 -10 -17.5 -19t-25.5 -12q-1 0 -3 1t-3 1 q-12 9 -15.5 18t-3.5 28zM987 1468q16 15 31 15l18 -8l11 -11q6 -14 -2.5 -26t-22.5 -19h-14q-13 6 -21 21.5t0 27.5zM1014 440q12 20 26 27h7q12 -3 24 -12l6 -15q0 -1 -1 -3q-5 -10 -8.5 -15t-11 -9.5t-18.5 -4.5q-2 1 -5 2t-5 2t-4.5 2.5t-4.5 3t-3.5 4t-2.5 5t-0.5 6 t1.5 7.5zM1135 500q-3 11 0 24q9 14 14 17h10q10 -5 14 -8.5t6.5 -10t2.5 -18.5q-10 -13 -25 -17q-16 7 -22 13zM1139 1374q9 12 14 17q3 2 7.5 1.5t6.5 -1.5l6 -3t5 -2q16 -12 20 -22q2 -2 2 -8v-13l-10 -14q-16 -8 -23 -8q-18 3 -26 14q-2 12 -2 39zM1212 625q1 1 2.5 4.5 t2.5 5.5t3 4.5t4 4.5t5 3l16 6q0 -2 4 -2q2 -2 7.5 -7t9 -9t6.5 -8q0 -21 -17 -31l-2 -2q-16 -8 -24 -10q-26 16 -12 30q-1 1 -2.5 5.5t-2.5 5.5zM1237 1255q5 14 20 21q5 1 13.5 -2t11.5 -4l14 -15v-14q-10 -17 -22 -24h-21l-14 14q-5 12 -2 24zM1284 768v20q8 14 25 17 q20 -10 22 -12q0 -1 1 -3.5t1 -3.5v-12q-11 -11 -30 -16l-11 6zM1303 1083q4 5 8 23l14 10q33 -5 33 -31q0 -7 -1.5 -12.5t-6 -10t-7 -6.5t-8.5 -7q-6 0 -18 8zM1315 897v16q1 2 3.5 8.5t5.5 10.5t7 8h15l14 -8q1 -2 3.5 -6t3 -5.5t1.5 -5.5t0 -6q-1 -4 -6.5 -11.5 t-7.5 -10.5l-4 -2h-25q-7 4 -10 12z" />
<glyph unicode="&#xab;" horiz-adv-x="1058" d="M176 758q6 8 17 14h16q9 -4 20 -22v-15q-5 -11 -16 -16h-25q-13 6 -15 15.5t3 23.5zM219 831q0 23 23 37h10q8 -8 12 -10q9 -23 8 -29q-2 -1 -5 -5t-5 -5q-6 -4 -18 -8q-3 -1 -5.5 0t-6 3t-5.5 3q0 1 -1.5 4t-3.5 6t-3 4zM233 635q0 2 5 22l16 13h27q2 -3 14 -15 q0 -1 -1 -3t-1 -3l4 -8q-1 -1 -2.5 -5t-2 -5.5t-2 -4.5t-2.5 -4l-3 -3t-4.5 -3t-5.5 -1.5t-7 -0.5q-24 0 -35 21zM291 881v12q-4 25 31 37q3 0 6 -1t6 -3l4.5 -3t4 -4t3.5 -4v-14q-7 -14 -14 -16l-19 -13q-10 -6 -18 2q-1 0 -4 7zM297 530v11q8 8 10 12q4 1 10.5 4t8.5 4 q2 0 7 1t9 0.5t8 -3.5l6 -14q-1 -3 -3 -11.5t-4.5 -15t-6.5 -10.5q-14 -4 -26 -0.5t-15 14.5zM588 741q1 3 3 8t4 8.5t5 6.5q2 1 6 3.5t5.5 3t6.5 1.5t7 0t4 -2.5l4 -3t4 -3.5t4 -3l6 -17q-6 -24 -37 -24q-4 1 -8.5 4.5t-5.5 3.5q-2 2 -8 14zM647 639v14q8 17 19 23h14 q7 -3 16 -17v-12q-3 -6 -4.5 -9.5t-4.5 -8t-8 -6.5t-11 -2q-2 0 -5 1t-4 1q-2 2 -12 16zM668 811q-3 10 0 23q0 10 12.5 19.5t21.5 0.5l13 -12v-21l-7.5 -13.5t-9 -8.5t-14.5 -2q-9 3 -16 14zM696 547v8q2 2 2 6q10 11 27 17q12 0 25 -15v-24l-7 -7q-6 -2 -28 -2 q-12 6 -19 17zM733 897v6l19 25l14 6q13 -3 25 -12q2 -4 2 -13l-3 -6t-2.5 -5.5t-2.5 -4.5t-4 -4t-4.5 -3t-6.5 -3h-10q-2 1 -9 3t-11 4t-7 7z" />
<glyph unicode="&#xad;" d="M154 743v13q4 10 20 22l23 6h12q15 0 22 -22v-12q-3 -5 -7.5 -9.5t-8 -7.5t-9.5 -7t-9 -7q-3 0 -10 1t-9 1q-18 3 -24 22zM293 743v15l12 14l19 8h18q2 0 2 -2q4 -4 8 -16v-25q-3 -8 -11 -13.5t-17 -2.5q-4 4 -9 4q-12 6 -22 18zM408 748v10q5 11 28 22h19q10 -4 18 -16 q0 -2 1 -4.5t1 -3.5q-1 -3 -1 -8t-1 -7q-4 -4 -4 -6l-12 -8h-21q-17 7 -28 21z" />
<glyph unicode="&#xae;" horiz-adv-x="1634" d="M160 860v14q1 1 3.5 8t5 11t7.5 6q6 0 17.5 -4t11.5 -8l8 -17v-10q-8 -8 -10 -12q-13 -4 -17 -8q-18 8 -26 20zM184 1020v33l21 16h10q4 -4 9 -8.5t10 -10t8 -8.5q2 -4 2 -22l-8 -16q-21 -11 -37 -7l-13 17q0 1 -1 3t-1 3zM190 684q-1 4 -1.5 8.5t-0.5 7.5t2 6.5t3 5.5 t4 5t4.5 4t5 4t4.5 4q2 2 8 2q22 0 31 -18v-27q-10 -16 -27 -22q-24 7 -33 20zM256 571v9l14 20q2 2 6 2q12 3 23 0q13 -5 23 -22q-2 -14 -19 -31q-1 0 -3 -1t-3 -1q-3 0 -9 1t-9 1q-17 6 -23 22zM256 1194v14q0 1 2.5 5.5t3.5 6t3.5 6t4.5 6t5.5 4.5t6 2t7.5 -1 q8 -4 20 -20q3 -15 0 -31l-20 -12q-2 1 -25 6zM365 492q-2 9 12 30q12 6 18 -4l19 -22v-17l-17 -8l-24 6q-7 14 -8 15zM377 1352v8q2 3 4 5.5t3.5 4.5t5 3t5 1.5t5.5 1t5.5 0.5h7h7.5q5 -2 12 -12q0 -23 -29 -29q-15 3 -26 17zM455 455l16 14h14q9 -4 19 -23q-2 -10 -12 -22 q-3 -1 -10 -4.5t-11 -3.5q-1 1 -6 5.5t-8 7.5t-6 7.5t-2 9t6 9.5zM528 1446q0 9 11 20q9 4 26 0q12 -6 17 -16v-14q-2 -10 -17 -17h-12q-1 0 -4 1t-4 1q-4 4 -8 4q-9 14 -9 21zM578 389v2q3 10 6 15.5t10.5 11t17.5 2.5q12 -6 23 -19q0 -1 1 -4t1 -4q0 -9 -5 -13.5t-17 -7 t-13 -3.5q-14 0 -24 20zM668 1485v24q2 8 16 19h10q10 -2 25 -10q5 -14 8 -19v-8q-7 -13 -11 -17t-16 -12q-12 -2 -26 8zM676 1163q0 5 3 10.5t8 9.5t11 5l15 -6q5 -5 2 -15q-2 -4 -8 -8.5t-7 -5.5q-19 -4 -24 10zM686 1034q0 2 4 6l15 15l3 -2t4 -2.5t3.5 -2.5t3.5 -3.5 t3 -3.5t2.5 -4t1.5 -4.5t0.5 -5t-1.5 -5.5l-4 -8q-3 -13 -21 -13q-6 3 -11 14.5t-3 18.5zM692 768q7 13 19 10l12 -8q1 -3 -0.5 -8.5t-1.5 -7.5q0 -7 -9.5 -11.5t-17.5 0.5q-7 7 -2 25zM698 848q19 9 27 6q4 -6 4 -20q-3 -8 -8 -11q-5 -5 -14 -2q-12 7 -9 27zM698 922v10 q11 16 25 16q1 0 3.5 -1t4.5 -1l6 -14q1 -3 0 -6t-3 -7l-3 -6l-12 -8q-4 0 -7.5 0.5t-5.5 3t-3 3.5t-3 5t-2 5zM702 342v18q1 2 4.5 8.5t4.5 10.5l14 10q3 1 5.5 0t6 -3.5t4.5 -2.5q8 0 12.5 -18t4.5 -31l-10 -8q-4 0 -13.5 -1t-13.5 -1l-16 10q0 1 -1.5 4t-1.5 4zM717 1196 q-6 12 0 21q2 2 4 2q16 4 24 -2q0 -21 -12 -21q-6 -3 -16 0zM795 938q-6 19 14 33q11 2 25 -8q13 -19 -15 -33h-10q-9 3 -14 8zM801 1501q0 5 8 21q12 12 20 12l5 -2.5t5.5 -2.5t5.5 -2.5t5 -4.5l4 -6v-17q-1 -5 -14 -18l-19 -6q-6 3 -11.5 13t-8.5 13zM844 336v2 q9 24 26 35h11q10 -10 12 -11l16 -30q-3 -13 -16 -19q-15 -3 -33 0l-10 6zM850 854l6 12q3 2 18 2q9 -5 11 -10v-14q-3 -6 -11 -10h-14l-6 6q0 6 -4 14zM856 1018q4 4 16 8h15q11 -6 8 -22l-8 -7q-1 0 -4 -1t-4 -1h-13q-9 6 -10.5 10t0.5 13zM868 1176q4 2 17 2q18 -9 4 -23 q-15 -4 -23.5 3t2.5 18zM891 1141q1 3 10 12h14q9 -6 10.5 -14t-5.5 -15l-15 -6q-4 3 -6 6t-4.5 9.5t-3.5 7.5zM897 780q0 11 8 11h19q16 -16 -6 -31h-9q-2 0 -4.5 1t-3.5 1q-7 8 -4 18zM911 1067q3 0 6 0.5t5.5 1t3.5 0.5q8 -3 8 -10q0 -27 -21 -27q-7 5 -8.5 11t0 11 t6.5 13zM956 1483v16q11 15 19 17q14 -5 25 -15t6 -24q-7 -10 -15 -13q-6 0 -18 4zM999 379v20l13 15l8 4q4 0 8 2q11 -7 25 -25v-16q-6 -12 -13 -15.5t-24 -3.5q-10 5 -17 19zM1071 1430q0 27 2 32q2 3 7.5 6.5t6.5 4.5h17l14 -9q8 -18 2.5 -31t-20.5 -18q-23 6 -29 15z M1120 444v21q5 8 16 9.5t19 -5.5l12 -14v-11q-3 -13 -16 -16h-21q-10 10 -10 16zM1176 1368l6 31l8 6q7 0 19 -5.5t14 -6.5q0 -6 1 -12.5t2 -10t0.5 -7.5t-4 -7.5t-10.5 -7.5q-3 0 -9 -1t-9 -1q-11 6 -14 14q0 4 -4 8zM1192 506q0 28 18 37h13q8 -2 15 -12.5t3 -18.5 q-2 -5 -5 -7.5t-10 -6l-9 -4.5q-16 -3 -25 12zM1260 606q4 3 20 31q6 2 16 2l4 -4l25 -29q0 -6 -3 -11t-11 -10t-10 -6t-11 -6h-14q-10 7 -13 13.5t-3 19.5zM1266 1272q-2 10 -0.5 14.5t10.5 16.5q4 2 24 2q7 -2 12 -8.5t5 -12.5q-3 -17 -21 -29h-12q-9 4 -18 17zM1315 707 v16q0 6 6.5 14t13.5 11h8q16 -7 20.5 -14.5t4.5 -28.5q-6 -9 -6 -15q-7 -5 -37 -2q-6 4 -10 19zM1327 1159q9 22 14 29q8 2 21 2q9 -7 18 -25v-10q-6 -13 -14 -18l-20 -7q-5 5 -11 5q-11 8 -8 24zM1352 844l12 41q2 0 2 2l10 4q4 0 9 -2t8.5 -5t3.5 -7q1 -3 2.5 -7l3 -8 t2.5 -6v-18q-2 -4 -19 -21q-4 -2 -16 -2q-14 11 -18 29zM1356 995v21q4 4 4 6q4 4 14 4q23 -4 37 -22v-21q-5 -9 -15.5 -14.5t-23.5 -1.5q-5 5 -10 15.5t-6 12.5z" />
<glyph unicode="&#xaf;" horiz-adv-x="696" d="M158 1286v21q6 15 22 12l19 -8q1 -2 3.5 -7.5t2.5 -7.5q2 -11 -8 -24q-10 -3 -23 0q-5 0 -16 14zM254 1305q2 3 4 7.5t3 7t4 6t7 5.5h13q10 -4 22 -20v-2q2 -4 2 -11q6 -12 0 -18q-2 -2 -4 -2q-21 -4 -33 -2q-9 5 -16 18q0 7 -2 11zM352 1298v21q4 8 10 12h13 q7 -3 18 -14q0 -7 1 -10t-1.5 -7.5t-3.5 -6t-5 -5t-5 -4.5q-3 -2 -8 -1.5t-6 3.5q-3 0 -5 2t-5 6zM430 1298v15q1 1 3.5 7.5t4.5 9.5t6 5q4 1 7.5 0t7.5 -3l6 -3q2 -2 6 -5t7 -6t5 -7v-19q-7 -10 -11.5 -12t-18.5 -2q-1 0 -3.5 1t-3.5 1l-8 4q-3 9 -8 14z" />
<glyph unicode="&#xb0;" horiz-adv-x="673" d="M145 1329v19q0 3 4 6.5t7 3.5q12 0 18 -2q2 -4 4 -12.5t4 -12.5l-4 -6q-12 -6 -22 -6zM145 1417q0 11 7 20t18 9q4 0 12 -14q0 -17 -2 -27q-17 -3 -28 0q-7 5 -7 12zM170 1282q0 14 10 21h8q8 -4 19 -19v-16l-17 -6q-6 0 -10 4t-5.5 6.5t-4.5 9.5zM188 1487q12 37 35 20 l6 -16q0 -9 -10 -16t-18 0zM256 1251l16 9h9l10 -17v-14q-6 -12 -17 -12q-2 2 -6 2l-10 6q-6 8 -2 26zM281 1511q-2 2 -1 7t2 7t3.5 6.5t3.5 6.5q2 0 6 4q3 1 5.5 0t5.5 -3t5 -3q2 -2 8 -14q0 -5 -4 -13q-4 0 -8 -4q-4 0 -8 -4q-10 -2 -18 10zM330 1243q2 9 14 17h8 q15 0 17 -18t-12 -19h-5h-14q-12 16 -8 20zM365 1518q5 14 30 14q11 -8 11 -23l-7 -18q-7 -5 -17.5 -1t-10.5 11zM399 1270v20q2 5 11 10q3 0 7.5 1.5t6.5 1.5q12 -6 12 -17v-14q-4 -12 -16 -12.5t-21 10.5zM418 1475l14 14h12q1 -2 2.5 -3.5t3.5 -2.5t3 -2q5 -9 0 -23 q-7 -7 -21 -4l-12 12q-2 4 -2 9zM436 1356v22q2 1 17 8h7.5h6.5t4.5 -0.5t5 -2l3.5 -3.5t3 -6v-12q-2 -5 -5 -8.5t-9.5 -9.5t-7.5 -7q-18 9 -25 19z" />
<glyph unicode="&#xb2;" horiz-adv-x="776" d="M150 1430v14l10 10q3 0 8 1t8 1q21 0 21 -24q0 -5 -4 -9l-21 -8q-12 4 -18 8q0 3 -4 7zM184 1530l13 6q5 0 22 -12q1 -3 -1.5 -6.5t-2.5 -6.5q-1 -1 -1.5 -3.5t-1 -4.5t-2 -5t-3.5 -5h-14q-21 21 -9 37zM186 903v17q2 6 13 18q2 0 6.5 1t7.5 1q1 0 5.5 -3.5t8.5 -4.5 q0 -4 4 -12q1 -5 -4 -21l-10 -6l-14 -4q-10 0 -17 14zM250 1556v13l4 10q2 0 8 6h8q11 -2 19 -14v-12q-4 -8 -16 -11.5t-19 2.5q0 2 -4 6zM256 1010q0 2 2 2q1 8 16 22q3 0 9 1t8 1q6 -4 14 -16v-21l-16 -14l-21 6l-8 6q0 5 -4 13zM289 905q3 3 8 17l14 4q3 0 10.5 -3 t12.5 -3q0 -1 -1 -3.5t-1 -3.5q17 -25 -10 -32h-21q-12 7 -12 24zM324 1071v8l6 19q4 0 8 4h20q7 -10 8.5 -14.5t-1.5 -18.5q-3 -1 -7.5 -5t-7.5 -5h-12q-3 1 -14 12zM338 1567q1 2 2.5 7.5t3.5 8.5t6 4h19q4 -2 12 -10q-4 -8 -4 -14q-8 -4 -10 -4l-7 -7h-8q-1 0 -4.5 2 t-5 3t-3 4t-1.5 6zM383 1151v25l14 12q1 0 4.5 1t4.5 1q19 -7 22 -21q-1 -3 0 -9t0 -9q-16 -12 -27 -10q-8 0 -18 10zM406 934l20 10q14 -5 23 -18q3 -12 0 -23l-7 -10l-16 -10q-12 8 -18 10q-7 7 -8 14t0 11t6 16zM446 1524q0 2 5 12l-5 8q0 2 1.5 6t1.5 6l12 5h14 q9 -7 14 -21q1 -7 1 -9t-4 -7.5t-5 -7.5q-2 0 -7.5 -2.5t-7.5 -2t-9 1.5zM453 1237q4 25 16 33h12l11 -8q0 -1 1 -4.5t1 -4.5q0 -2 -1 -7.5t-1 -8.5l-11 -8q-2 0 -10 -4l-5 2.5l-5 2.5t-4.5 3t-3.5 4zM485 1438q-1 5 1.5 11.5t2.5 8.5q17 26 31 17q2 -2 8 -2l9 -11v-8 q-7 -29 -33 -29q-18 12 -19 13zM489 1331v25q12 12 15 16q4 0 20 -4q1 -2 7 -11.5t6 -15.5l4 -12q-8 -3 -15 -10q-2 0 -7.5 -1t-8.5 -1q-8 0 -21 14zM504 897q-1 3 0 7t1.5 6.5t2 6t2.5 5.5l8 8q8 4 10 6h15q14 -11 18 -18v-19q-1 -3 -4 -6t-7 -5.5t-7 -2.5q-1 -1 -5 -2 t-6 -2q-2 1 -7.5 3t-8.5 3t-6.5 3.5t-5.5 6.5z" />
<glyph unicode="&#xb3;" horiz-adv-x="802" d="M135 1001v11q3 2 12 20h9l12 -6l6 -25q0 -4 -2 -6q0 -2 -4 -6l-12 -6q-1 0 -5 1.5t-5.5 2.5t-3 3.5t-1.5 6.5zM150 1520l6 10q6 2 18 10q23 -4 25 -14v-15q-19 -13 -29 -8l-5 -1q-5 -2 -5 1l2 2q-3 1 -12 15zM166 909q0 4 2 6q-2 2 -2 9q0 1 1 2q4 5 5.5 7t5 4.5t8 3.5 t11.5 1q13 -6 18 -20q0 -2 -1 -4.5t-2.5 -6.5t-2.5 -6q-3 -4 -6 -6t-9.5 -4.5t-7.5 -3.5q-4 4 -8 4q-2 2 -6 2zM190 1573q9 18 31 24q16 -10 17 -16v-14q-3 -6 -17 -11h-14q-1 0 -2 1t-2.5 2t-3.5 2zM242 868q6 21 20 31q2 0 6.5 -1t7.5 -1q0 -1 5 -6q1 0 3 -1t3 -1 q0 -3 4 -15q-2 -3 -4 -9t-4 -9l-9 -6q-10 0 -16 2q-2 0 -10 4zM274 1608v10q17 14 21 16q4 -4 6 -4q2 -2 6 -2l6 -8v-21q-3 -4 -7 -6.5t-11 -4.5t-10 -3zM342 852v16q12 23 37 15q3 0 5.5 -2.5t4.5 -5.5t2 -5v-20q-4 -4 -6 -4t-5.5 -2.5t-4.5 -3.5h-23q-7 6 -10 12z M350 1595l4 9h11q8 4 10 8q2 -2 10.5 -6.5t11.5 -10.5v-16q-7 -8 -18 -14h-10l-5.5 5.5t-5.5 6t-3.5 4.5t-3.5 6.5t-1 7.5zM367 1237q-3 2 -0.5 11.5t2.5 11.5l8 8l18 -6l13 -19q0 -3 -5 -8q0 -20 -30 -8zM428 1538v14q9 7 23 13q2 -2 6 -0.5t6 0.5l8 -6q0 -3 1 -8.5t1 -8.5 l-10 -14h-25q-3 7 -10 10zM432 1331q0 25 19 31q4 0 6.5 -1.5t6 -4.5t5.5 -4q1 -2 0 -5.5t0 -5.5q2 -2 2 -10q-7 -12 -29 -12q-8 8 -10 12zM434 893l4 12q0 4 6 13q2 1 4 2.5t3.5 3.5t3.5 4.5t4 3.5q2 0 10 4q16 -3 23 -21v-12q0 -1 -1.5 -3t-1.5 -3q-4 -7 -12 -10 q-2 0 -4 -1l-5 -2.5l-5 -2.5q-23 6 -29 12zM444 1188v22q1 2 3.5 6.5t4.5 7.5t5 5q31 -8 35 -29q0 -6 -13 -16q-1 0 -2 -1t-2 -1q-1 -1 -2.5 -1t-1.5 -1q-17 -6 -27 8zM465 1491q3 11 16 18l17 -6q6 -9 6 -16l-6 -12q-2 0 -5.5 -1t-5.5 -1q-16 8 -16 12zM471 1440q4 0 6 2 q1 0 3 1t3 1q8 -3 21 -21v-8q-3 -6 -7.5 -9t-8 -4t-13.5 -3q-10 10 -4 41zM496 987v17l12 22q4 0 16 4q20 -9 25 -18v-19q-2 -9 -10 -14.5t-17 -5.5q-12 0 -26 14zM508 1120q0 3 1 8.5t1 8.5q14 14 18 16h17q2 -2 6.5 -6t7.5 -6q0 -29 -16 -41q-3 0 -10 -1t-11 -1 q-7 3 -14 22z" />
<glyph unicode="&#xb4;" horiz-adv-x="612" d="M188 1276q-3 15 0 27q1 3 15 10h6q24 -12 27 -15v-12l-7 -16q-2 -2 -7 -4t-7 -4l-20 6zM242 1393q8 24 22 30h15l14 -8q2 -2 4 -7.5t2 -6.5v-15q-5 -11 -25 -24q-18 3 -25 8.5t-7 22.5z" />
<glyph unicode="&#xb9;" horiz-adv-x="745" d="M162 1348q3 9 12 20q1 0 2 -1t2 -1l6 6h11q14 -11 14 -22l-4 -9l-4 -8q-4 -1 -11.5 -1t-11.5 -1q-7 4 -16 17zM215 1430l14 16q2 0 6.5 -1t6.5 -1q14 -7 14 -21q-3 -9 -14 -20l-23 6zM291 1497q4 12 10 16q2 0 5.5 1.5t6.5 1.5q18 -7 21 -17q0 -3 -2.5 -9.5t-1.5 -10.5 q-3 -5 -21 -11q-10 5 -14 11t-4 18zM383 1532q1 2 2.5 7t2.5 8.5t2.5 7.5t4.5 6.5t6 3.5l7 4q22 -6 22 -15q2 -2 3 -4.5t0.5 -5.5t-1.5 -6t-1.5 -6.5t-0.5 -5.5q-7 -10 -18 -10h-9q-2 0 -8 -3l-10 9q0 2 -1 5.5t-1 4.5zM399 897q0 2 1 6t1 6q0 12 7.5 21.5t19.5 9.5 q13 0 27 -22v-15q0 -8 -3.5 -17.5t-11 -16t-16.5 -1.5l-14 6q-11 11 -11 23zM408 1133q4 4 4 10l10 10h8l16 -6l15 -21v-12q-4 -5 -13 -8t-10 -4q-3 2 -8.5 3.5t-9.5 3.5t-6 5zM412 1001q-1 6 4 27q4 2 8 10q12 2 22 -4q1 -2 11 -12q0 -2 1 -6t1 -6v-11q0 -1 -1 -3t-1 -3 q-10 -5 -13 -8q-21 0 -32 16zM418 1397v16q3 9 4.5 14.5t5.5 12t9 10.5t12 6h10q10 -5 16 -14q-5 -25 -6 -27l-4 -4q-2 -2 -2 -8l-14 -12q-15 0 -23 -9q-2 2 -4 2v7q0 2 -4 6zM420 1270q0 5 10 20l14 8l15 -4q1 0 2.5 -1t3.5 -2.5t4 -2.5q0 -2 1 -6t1 -6l-1.5 -6t-3 -8.5 t-5.5 -4.5l-12 -6h-17q-5 0 -8.5 6t-3.5 13z" />
<glyph unicode="&#xbb;" horiz-adv-x="1058" d="M190 551q-6 6 7 33l12 6q12 -3 20 -21v-14q-17 -13 -39 -4zM207 940q11 22 14 25q4 2 10 2l17 -17q0 -5 3 -13.5t3 -12.5q-4 -11 -21 -15q-7 2 -10.5 4t-7.5 7t-4 12zM254 641q2 3 5.5 8.5t5 8t5.5 6t9 2.5t14 -2q7 -7 10 -13q0 -6 4 -18q-3 -8 -20 -25q-6 2 -17 2l-8 6 q-4 18 -8 25zM254 838v8q7 17 18 24h15l18 -16q2 -2 2 -16l-6 -9l-25 -8q-11 2 -22 17zM307 723v20q6 18 23 29q8 0 10 -4q15 -12 22 -29q1 -4 0 -8t-3 -8.5t-3 -7.5q-16 -8 -24 -8q-20 9 -25 16zM598 983v8q1 1 2.5 5t2.5 5.5t3.5 5t5 3t6.5 -1.5q11 -4 14 -12.5t3 -24.5 q-10 -10 -19 -10q-11 5 -16 16q0 4 -2 6zM604 481v8q5 8 23 17q12 5 21.5 -3.5t4.5 -23.5q-14 -14 -24 -14q-1 1 -8 3.5t-10.5 5t-6.5 7.5zM649 889q-3 8 0 16q1 1 3 5t3.5 6t5 5t7.5 5q9 0 20 -15q4 -15 -2 -26q-1 -1 -3.5 -2.5l-5 -3t-5.5 -2.5h-8q-4 1 -6.5 2.5t-5 5 t-3.5 4.5zM659 543v12q13 32 39 25l11 -11v-20q-8 -16 -17 -23q-9 -3 -18 0q-10 6 -15 17zM702 831q0 8 9 13q15 4 26 -15v-8q-7 -10 -10 -10q-7 0 -12.5 4t-6.5 6t-6 10zM713 627v18q7 13 18 19h19q13 -6 18 -17v-20q-6 -9 -25 -17q-16 0 -30 17zM750 752v16q5 10 14 16 q1 0 3 1t3 1q2 0 6 -1t6 -1q7 -7 13 -10q1 -3 4 -8.5t4 -9t0 -8.5q-1 -3 -7.5 -6.5t-7.5 -4.5h-28q-10 7 -10 15z" />
</font>
</defs>
</svg>
