<?xml version="1.0" standalone="no"?>
<!DOCTYPE svg PUBLIC "-//W3C//DTD SVG 1.1//EN" "http://www.w3.org/Graphics/SVG/1.1/DTD/svg11.dtd" >
<svg xmlns="http://www.w3.org/2000/svg">
<metadata></metadata>
<defs>
<font id="aracne_regular_italicregular" horiz-adv-x="1095" >
<font-face units-per-em="2048" ascent="1638" descent="-410" />
<missing-glyph horiz-adv-x="507" />
<glyph horiz-adv-x="2048" />
<glyph horiz-adv-x="2048" />
<glyph unicode="&#xd;" horiz-adv-x="2048" />
<glyph unicode=" "  horiz-adv-x="507" />
<glyph unicode="&#x09;" horiz-adv-x="507" />
<glyph unicode="&#xa0;" horiz-adv-x="507" />
<glyph unicode="!" horiz-adv-x="331" d="M31 37q9 47 49 47q0 2 16 2v-2l6 2q28 0 31 -10q-4 0 -4 -2l10 -21v-4q-9 -69 -80 -69q-38 0 -28 57zM66 213q6 50 16 143t12 113q-4 0 -2 2h4q-7 12 2 137q-4 0 -4 4t4 4v52h4l-4 8l8 59q8 48 9 64h2q-3 10 -6 10q6 12 6 14q20 174 22 187h4l-2 6l11 78q0 7 6 16 q-4 5 -2 12l8 35l-2 6q7 23 8 23q0 4 -2 4q15 47 18 90l15 90q27 49 82 49q32 -24 20 -139l-20 -63q0 -5 4 -5q-16 -41 -19 -73l-6 -45q0 -4 -4 -4l2 -7l-4 -26q0 -4 -4 -4l4 -6q-5 -5 -6 -5l4 -8l-6 -14q2 -4 2 -14q0 -5 -4 -5l2 -8l-4 -28q-3 -13 -6 -13l2 -16l-9 -62 q-2 -6 2 -14l-4 -6v-23h-4l2 -8l-8 -61q0 -13 2 -17l-6 -14q0 -4 4 -4l-6 -14v-82q0 -2 -4 -2q-3 -172 -12 -236h-2q4 -18 -2 -65l-7 -45l-6 -15q4 -4 -2 -69q-3 -24 -51 -52l-21 -4q-49 0 -40 70z" />
<glyph unicode="&#x22;" horiz-adv-x="438" d="M186 1231q0 2 7 6q0 71 10 111q-2 2 -2 6q2 2 4 2l-2 10l8 47q0 2 2 2l-2 4l2 21l4 12q-3 3 0 10v2q0 7 4 11l-2 4l2 4q0 2 -2 2l4 8q0 23 2 25h2q-7 10 -4 18v6q3 8 45 14v3q41 0 47 -21q0 -2 4 -2l-6 -14l-6 -43q0 -2 -4 -2l4 -4l-4 -17q0 -4 -4 -8q5 -5 2 -8 q0 -2 -4 -6q0 -4 4 -4l-6 -11l2 -10q-4 -4 -4 -6l2 -10q0 -4 -4 -4v-25q-1 -5 -4.5 -27t-7.5 -39q2 -2 2 -10q-5 -5 -5 -6l3 -4q0 -2 -5 -2l2 -41q-15 -41 -40 -41q-17 0 -39 25q-10 0 -10.5 2.5t3.5 7.5q0 2 -4 2zM338 1223l2 6q0 2 -2 2q0 2 4 6v14v16v14.5t0.5 15.5 t1.5 14t2.5 14t3.5 11.5t4 11.5q-4 4 -4 6q2 2 6 2l-4 10l8 47q0 2 5 2l-5 4l2 21l7 12q-5 5 -2 10v2q0 8 6 11l-4 4l4 4q0 2 -4 2l6 8q-3 22 0 25h4q-9 9 -6 18v6q3 8 47 14v3q38 0 47 -21q0 -2 2 -2l-4 -14l-6 -43q0 -2 -4 -2l4 -4l-4 -17q0 -4 -4 -8q5 -5 2 -8 q0 -2 -4 -6q0 -4 4 -4l-7 -11l3 -10q-5 -5 -5 -6l2 -10q0 -4 -4 -4v-25q-1 -5 -4.5 -27t-7.5 -39q2 -2 2 -10q-4 -4 -4 -6l2 -4q0 -2 -4 -2v-41q-15 -41 -41 -41q-17 0 -39 25q-7 1 -8 4z" />
<glyph unicode="#" horiz-adv-x="1597" d="M47 299q6 49 64 49q5 5 100 14l8 -2l86 7q2 0 2 -5l19 5h49q4 0 16 4q4 -4 12 -4h17q6 0 14 4q8 -4 15 -4h14q7 0 10 8q-2 6 -2 10h4l-4 41l6 8l-4 6q4 4 6 4q10 152 17 197q-4 8 -2 10h4q-4 12 -4 37h4l-2 8l6 41l-2 19l-19 -4h-10q-4 0 -4 4l-8 -4h-121q-7 0 -19 -4 q-4 4 -12 4l-8 -4q-8 4 -14 4q-12 -4 -13 -4l2 4l-10 -4h-96l-18 -5v5q-10 -5 -11 -5l-8 5q-10 -5 -14 -5q-42 25 -39 50q7 7 59 45l19 -4h55q17 0 27 -5q30 5 32 5h84q5 0 17 4q4 -4 14 -4l37 4v-4q2 0 2 4l20 -4h29l19 4v-4q8 4 14 4q14 166 16 221h4l-2 8q0 2 4 2 q-2 32 11 127v4l2 23l4 16v8q3 9 0 15l4 12v10l4 19v8l4 14v14q16 0 25 37q-4 0 -4 4l10 4q2 0 2.5 -1.5t-0.5 -2.5l10 4q42 0 45 -61q-4 -45 -2 -53h-4l2 -8v-2q0 -5 -4 -5l2 -8q-3 -26 -10 -51q-8 -73 -8 -123h-5q2 -6 2 -45q0 -2 -4 -2q4 -32 -14 -178q4 -8 2 -10h23 q4 0 4 -4l6 4h8q4 0 4 -4l8 4h17q4 0 4 -4l8 4h23q5 0 75 4l-2 -4l11 4q8 0 12 -4q12 4 16 4h4q2 0 2.5 -1.5t-0.5 -2.5l9 4q13 0 221 6l2 6q0 12 -2 12l14 60q-2 6 -2 12q0 2 4 2v27q0 4 4 4l-2 8l6 49q4 4 6 4l-4 8l4 27q3 8 0 14l5 9q0 2 -3 2q0 1 0.5 2t1 2.5t1.5 3.5 l2 4q6 86 20 199q15 3 33 40l18 5h6q40 -21 31 -82q5 0 2 -6h-4q3 -13 6 -13q0 -8 -4 -8q-16 -147 -16 -190l-6 -23v-10l-2 -25q-5 -10 -5 -12v-16l-4 -15q0 -18 -2 -26h-2l2 -7q-1 -11 -6 -26q0 -4 2 -4l-6 -19l-2 -14h6q13 0 15 2l16 -2h22l19 2l-2 -2l10 2h8q4 0 2 -2 l8 2h23l23 4q2 -1 4.5 -2t3.5 -1.5t2 -0.5q8 4 16 4v-4l6 4h31l37 4v-4l6 4h45l23 4l8 -4l20 4v-4q19 8 29 8l-2 -4l8 4q30 -10 33 -28q-5 -10 -10 -22t-7.5 -19t-3.5 -8q-26 -9 -26 -13l-37 4h-23q-5 0 -55 -4v4l-188 -14l-21 4h-63l-33 -170v-8l-1 -4q-1 -3 -1.5 -5.5 t-1 -6t-0.5 -5v-2.5l-4 -18l-8 -61q0 -5 -5 -5q-4 -4 2 -4l-4 -14v-22h-4l2 -9v-6q0 -4 -4 -4l2 -6l-6 -21l2 -18l-6 -6q3 -11 2 -12q12 0 16 4q54 -4 62 -4h74q4 0 14 -5q10 5 14 5h47q5 0 5 -5l8 5h45q5 0 8 8q21 -8 43 -8h4l23 4l6 -4q12 4 18 4q32 -13 29 -27 q-4 0 -4 -2h8l-2 -16q-11 0 -23 -37l-8 -2l-6 2q0 -6 -6 -6l-12 4q-3 -1 -6.5 -2t-5.5 -1.5t-3 -0.5l-18 4l-12 -4v4l-7 -4h-8q-4 0 -4 4l-8 -4h-10l-19 4q-3 -8 -10 -8v8q-4 0 -4 -4l-19 4h-40q-5 0 -5 2l-6 -2h-59q-4 0 -4 2l-8 -2q-2 0 -2 2l-9 -2h-106l-6 -41v-17l-2 -6 v-14l-4 -4q2 -6 2 -12q-8 -49 -11 -134q-3 -27 -45 -55q-29 6 -43 14t-12 17q-4 8 -2 10q0 4 4 4q3 52 0 64q6 6 6 14l-2 6l4 8v37l2 8v7q0 4 2 4l2 36l9 54h-9q-4 0 -16 -4q-8 4 -12 4l-27 -4q-20 4 -27 4q-8 -4 -10 -4v4l-8 -4h-29q-8 0 -8 6q-12 -6 -22 -6h-60q-4 0 -4 4 l-6 -4q-4 0 -4 4l-6 -4h-131l-21 -4l2 4l-10 -4q-4 4 -8 4l-2 -4q0 -1 4 -13l-6 -6q4 -36 4 -37q-4 -4 -6 -4q2 -31 -11 -119q3 -18 3 -22h-5q10 -26 7 -47h-5q3 -9 3 -13q-6 -35 -50 -59q-45 12 -45 21q2 0 2 2q-5 0 -8 12l6 45q2 3 -2 14q6 6 6 10q-4 11 -2 13h4l-4 6 q1 12 2.5 26t3.5 30.5t3 25.5h4l-4 6l4 31v18h2v6l8 58h-133q-7 0 -19 -4q-6 0 -2 4l-18 -4h-4q-6 0 -2 4l-11 -4h-18l-37 -5v5l-37 -9l-8 4q-71 -14 -98 -14q-20 7 -31 39zM559 367h64q4 0 16 4l6 -4l17 4q36 -4 49 -4q2 0 6 4l67 -9q10 5 17 5v-5l10 5q8 0 18 -5 q5 1 12.5 2t12 2t8.5 1h15q4 0 4 -5l8 5h82q4 22 8 22l-2 19l4 26q3 34 18 96l-4 7q6 9 6 16v2q2 5 -2 16q7 11 9 11v18l2 4q0 4 2 4q-1 5 -1.5 6.5t1.5 6.5t2 6v6q12 39 28 137q-25 -2 -55 -2h-29l-26 -4l-4 4l-144 -12q-8 4 -10 4l-22 -4l-4 8l-19 -8q-4 0 -4 4l-37 -4 h-51q-6 0 -14 -4q-8 4 -15 4h-12v-4l-14 -129q-4 0 -4 -5q9 0 6 -10z" />
<glyph unicode="$" horiz-adv-x="1013" d="M27 256l4 6q-7 0 -4 35q15 41 39 51q2 7 16 10l8 -4q8 4 10 4q44 -47 35 -102q19 -98 123 -168q53 -19 98 -29q1 0 4 0.5t10 1.5t15 2l14 -4q8 4 17 4q-2 12 -2 23q13 94 20 229h4l-4 7l10 67l-2 23l7 6q-1 2 -2 4.5t-1.5 3t0.5 2.5q0 4 5 4q0 56 2 68h2v8l14 106 q1 2 0.5 3t-2.5 1l4 7q-2 6 -2 12q0 2 4 2l-2 20q2 7 5.5 22t4.5 17q-55 80 -125 156q-38 49 -77 156h4q-10 38 -7 104h5q0 2 -5 2l9 21v4q3 7 -2 12q28 105 125 195q95 77 176 92l12 10q6 63 0 63q6 6 6 11q2 15 19 100q1 0 36 41q23 10 29 10h8q16 0 31 -53l-6 -12l2 -8 l-6 -15q1 -2 2 -4.5t1.5 -3.5t0.5 -2h-4l2 -8q-6 -31 -10 -41q0 -41 -2 -55h47q2 0 2.5 -1.5t-0.5 -3.5l10 5l4 -5q1 0 6 5q95 -15 170 -84q65 -103 45 -246l-6 -2l2 -8q-33 -17 -33 -27h-14q-23 1 -33 10.5t-8 26.5q-9 0 -6 8l6 47q21 147 -158 191l-6 -5h-8q-4 0 -4 5 l-6 -5q-2 1 -5.5 2t-5.5 2t-4 1l-6 -9v-8q-2 -8 -2 -51l-4 -14l4 -17l-12 -53v-8q-3 -19 -8 -19q-4 -4 2 -4l-51 -215q0 -4 2 -4l-7 -18l-4 -33q0 -4 -4 -4l2 -6q0 -4 -4 -4q0 -4 4 -4l-6 -19l-8 -55q0 -4 -4 -4q2 -4 2 -11l-16 -81q26 -16 157 -150l82 -139l27 -84 q5 -43 -4 -117q0 -2 -4 -2q2 -6 2 -12q-12 -27 -19 -27l2 -6q-23 -63 -135 -156q-149 -73 -192 -73l-7 -45q0 -5 -4 -5q1 -1 4 -32h-4l2 -6v-5q0 -4 -4 -4q4 -25 -4 -78v-8q0 -2 -4 -2q6 -18 6 -30q-32 -17 -32 -25h-13q-4 0 -4 2l-6 -2h-4q-4 0 -4 2l-6 -2h-17 q-13 0 -10 61l6 9q-4 8 -2 14v8q0 2 4 2q0 22 2 53h2l-2 33q0 4 4 4v19l7 18h-82q-5 0 -5 4q-4 0 -4 -4q-72 0 -155 68q0 1 -5 6.5t-20 21t-29 29.5q-57 71 -63 123q-11 37 -16 45zM375 1141q-18 -140 86 -256q-2 -4 39 -51l8 59q0 2 2 2v12l4 6q0 5 -2 5q15 62 23 118v4 q0 2 4 2q1 2 0.5 3.5t-2.5 1.5l6 20q0 8 -2 12q9 41 14 41q0 4 -4 4q6 27 12 27q0 2 -4 2q9 50 16 61q0 3 -4 3l9 20l2 14q0 11 -2 15l4 8l-4 6q4 4 6 4v64q-143 -59 -170 -127q-4 -4 -41 -80zM502 86q3 -8 8 -8q125 40 178 96q26 26 42 52t22.5 53t4 54t-13.5 57.5t-29 61 t-44 66.5q3 27 -105 115h-4l-2 -4l2 -15q0 -4 -4 -4l2 -18l-6 -37v-27h-4l4 -6q-3 -14 -6 -14v-27l-10 -82v-18h-5l5 -6l-2 -21q-2 -2 -7 -2l4 -8l-10 -74l-6 -55h-2q-3 -31 2 -31q0 -4 -6 -10q-3 -59 -8 -88z" />
<glyph unicode="%" horiz-adv-x="856" d="M94 950q15 101 90 125q49 21 70 21q110 0 131 -115v-31q-12 -88 -115 -147l-45 -10q-146 34 -131 157zM129 59q14 33 23 33q0 4 -5 4q131 315 168 377q0 4 -4 4q39 79 39 88q-4 0 -4 4q8 0 23 54q8 14 14 14l-4 6q18 49 27 49l-5 6q27 53 103 242q30 52 100 266 q8 0 29 68l53 110q31 16 31 25h26q5 0 5 -2l6 2h4q32 -20 26 -55q-5 -27 -77 -170q-30 -56 -70 -178l-377 -873q-24 -70 -33 -70v-20q-18 -43 -51 -43v4l-8 -4h-4q-41 24 -35 59zM160 926q28 -54 73 -54q0 -4 5 -4q66 18 75 86q-9 68 -59 68l-18 2q-39 -7 -53.5 -25 t-18.5 -57v-16h-4zM506 453q3 16 31 65q35 72 135 72q126 0 135 -152q0 -6 -16 -43q-72 -96 -160 -96l-31 6q-109 38 -94 148zM582 442q-9 -49 57 -67q67 0 94 65q2 2 -2 2q6 46 -43 80v-2l-16 2h-19q-50 0 -71 -59v-21z" />
<glyph unicode="&#x26;" horiz-adv-x="806" d="M16 131l2 4q0 8 11 8q3 3 -9 11q0 4 3 4v16l6 35q6 47 65 168q20 41 69 115.5t89 119.5q28 39 53 66v6q-55 256 -31 442q4 11 -2 11l7 16q7 37 10 49.5t10 38.5t14.5 42.5t18.5 31.5q3 33 76 88q44 20 75 20q11 -2 19.5 -3t16.5 -2.5t13 -2.5t9 -2t5 -2t1 -2q12 4 14 4 q61 -27 86 -88q38 -57 23 -197q-15 -122 -219 -407l-58 -68q30 -230 86 -342q52 -98 64 -104q34 34 65 119h4l-4 6q9 45 27 45q3 6 10 6q48 -16 45 -35q18 -41 -12 -65h4q-3 -15 -8 -15v-6q-4 -19 -21 -33h9v-2q-20 -35 -35 -43q-2 -10 -19 -34l-2 -5l-4 5q-4 -11 -12 -19 q0 -11 69 -86v-20q0 -5 -4 -5l2 -8q0 -13 -41 -16l-4 4q-12 -4 -16 -4q-59 53 -74 74q-107 -88 -151 -88h-9q-3 -24 -129 -39q-1 0 -4.5 0.5t-10 1.5t-13.5 2l-2 -6h-6q-67 0 -125 49q-27 34 -45 90h-2q6 39 -7 39l9 10q-4 2 -11 2zM182 362q-25 -40 -44 -80.5t-30 -87 t-5 -81.5t39 -58.5t94 -23.5q89 0 241 104v4q0 4 -59 99l-33 73q-49 127 -61 244q-73 -67 -142 -193zM350 1094q0 -50 4 -66q0 -4 -2 -4q-6 -119 8 -133l-6 -10q11 -47 19 -113h6q7 14 74 102q48 75 102 179q5 0 20 43l-4 6q10 16 13 16l-2 8l4 31q12 94 -54 166 q-24 12 -47 12q-71 0 -112 -133q-4 0 -21 -86l2 -18h-4z" />
<glyph unicode="'" horiz-adv-x="239" d="M186 1231q0 2 7 6q0 71 10 111q-2 2 -2 6q2 2 4 2l-2 10l8 47q0 2 2 2l-2 4l2 21l4 12q-3 3 0 10v2q0 7 4 11l-2 4l2 4q0 2 -2 2l4 8q0 23 2 25h2q-7 10 -4 18v6q3 8 45 14v3q41 0 47 -21q0 -2 4 -2l-6 -14l-6 -43q0 -2 -4 -2l4 -4l-4 -17q0 -4 -4 -8q5 -5 2 -8 q0 -2 -4 -6q0 -4 4 -4l-6 -11l2 -10q-4 -4 -4 -6l2 -10q0 -4 -4 -4v-25q-1 -5 -4.5 -27t-7.5 -39q2 -2 2 -10q-5 -5 -5 -6l3 -4q0 -2 -5 -2l2 -41q-15 -41 -40 -41q-17 0 -39 25q-10 0 -10.5 2.5t3.5 7.5q0 2 -4 2z" />
<glyph unicode="(" horiz-adv-x="403" d="M86 598q2 0 2 4q0 10 2 16l8 66l-2 18q1 0 6 5l-2 22l4 6q-2 0 -2.5 1.5t0.5 2.5q14 106 37 199q-2 0 -2.5 1t0.5 3l43 141q53 164 207 326q43 46 82 55q26 0 29 -37l-4 -8q2 0 2 -2v-4q-17 -35 -37 -55q-102 -117 -154 -215q-26 -72 -43 -105l2 -16q-7 0 -28 -80 q1 0 0 -3t-3 -7.5t-2 -5.5l-4 -35l-4 -6h4l-8 -27l-6 -37q0 -8 -6 -14q4 -9 2 -16l-8 -66l-6 -8q4 0 4 -2l-4 -35l-7 -6q5 0 5 -4l-3 -15l-6 -18q6 0 6 -19l-2 -12l-6 -8h4l-6 -14l2 -19q-4 0 -4 -4q3 0 6 -24h-6q0 -87 6 -134l-4 -8q8 -40 2 -96q30 -170 45 -170 q21 -81 35 -86l-4 -16v-4q6 0 6 6l8 -2q0 -9 -12 -9q-4 -4 2 -4q-9 -45 -20 -45h-4q-8 0 -5 8q-4 0 -4 -4q-4 0 -16 4l-6 -4l-6 4l-21 -4q-3 17 -8 17q-17 0 -20 43q-43 121 -50 155q-22 128 -16 410z" />
<glyph unicode=")" horiz-adv-x="438" d="M33 27l6 2q3 -6 6 -6v20q18 6 59 86q14 0 97 170q6 55 26 96l-2 8q22 48 45 134h-8q12 24 17 24q0 4 -5 4l7 19l-2 14h4l-2 8q5 31 12 31l-2 18l2 15q0 4 4 4l-2 6l4 35q0 2 4 2l-2 8l8 66l6 16q-2 4 -2 14l6 37v27h5l-5 6l5 35q2 7 -2 12q4 4 6 4q-3 80 -9 80l5 16 q-6 28 -15 105q-20 93 -90 215q-16 20 -22 55v4q0 2 4 2l-2 8q9 37 37 37q35 -9 65 -55q110 -162 119 -326l4 -141q-4 -4 -6 -4q-7 -203 -21 -203l2 -6l-4 -22q-1 -1 -1 -3t1 -2l-4 -18l-8 -66q-4 -12 -8 -16q0 -4 4 -4q-73 -285 -133 -410q-12 -29 -90 -155 q-15 -43 -31 -43q-4 0 -14 -17l-19 4l-8 -4l-6 4q-8 -4 -15 -4q0 4 -4 4q-3 -8 -10 -8h-4q-8 0 -8 45q2 0 6 4q-10 0 -10 9z" />
<glyph unicode="*" horiz-adv-x="573" d="M172 1237q3 31 84 84l47 37q0 10 -63 55q-40 35 -37 45l2 27q35 47 51 47q20 0 78 -55q3 20 6 20l-2 8l2 19q0 4 4 4l-2 8q17 27 45 41q-4 -4 0 -4q4 7 12 10h4q41 -30 35 -78h-4l2 -8l-6 -43q3 -6 8 -6q104 84 123 84h4q15 -31 25 -31l-2 -10q0 -4 -4 -4l2 -6 q-15 -43 -137 -127v-4q48 -56 104 -133q-17 -37 -26.5 -50.5t-22.5 -13.5q-47 0 -94 86h-9v-59l-18 -11l2 -8v-4q-21 -21 -51 -24q1 1 -2 3t-10 5t-17 6q-3 23 -18 41l8 10l6 49q-34 -24 -53 -49q4 0 4 -4l-10 -2h-37q-31 16 -31 29q6 9 6 12q-4 4 -8 4z" />
<glyph unicode="+" horiz-adv-x="700" d="M82 694v4q3 18 61 64q11 -4 11 -8l6 4l16 -4q4 0 4 4l17 -4h49q6 0 2 -4l12 4l14 -2l10.5 -1.5t4.5 -0.5q2 0 6 4l16 -4h21q6 38 6 88h4q-2 2 -2 45h4l-2 8l4 24q0 5 4 5l-2 8v4q3 12 39 51v-8h4q3 22 21 22q32 0 32 -65h-4l2 -8v-4q0 -5 -4 -5l2 -6v-4l-6 -14 q2 -6 2 -12h-4l4 -7q-5 -42 -2 -63h-4q3 -9 0 -55h4l27 4v-4q8 4 10 4q4 0 4 -4q41 7 170 10v-2l55 10q24 -21 27 -37l-4 -8l2 -18q-3 -11 -25 -33l-6 4q-1 0 -4 -0.5t-8.5 -1.5t-11.5 -2l-17 4l-8 -4q-6 0 -2 4l-20 -4h-27q-5 0 -33 -4q-8 4 -10 4l-25 -4v4q-11 -8 -39 -8 h-26q-10 0 -14 -2q-6 2 -13 2q-4 -2 -10 -2l-14 -201q0 -8 -27 -35l-6 4h-4l-17 -10q-7 0 -49 33q4 6 6 22l-2 19h4l-2 8l13 86q6 53 -4 70l-41 4q-12 -4 -19 -4l2 4q-2 0 -6 -4l-14 4h-58q-4 0 -4 2q-15 -3 -18 -6q-59 6 -68 18q-4 -4 -6 -4z" />
<glyph unicode="," horiz-adv-x="407" d="M0 4q0 4 4 4q0 1 -1 5t-1 7q9 69 72 97l8 -4l27 8q39 -23 52 -54t7 -79q0 -4 -4 -4q0 -4 2 -4q-38 -107 -74 -127q0 -22 -35 -25q-3 -8 -10 -8q-24 9 -24 14l6 8q-24 0 -21 33q-4 0 -4 4q7 15 23 39.5t22 38.5q-28 9 -45 47h-4z" />
<glyph unicode="-" horiz-adv-x="669" d="M139 715q3 10 8 10l7 -4q2 0 6 4q4 0 8 -4q84 8 170 8q1 0 3 -0.5t7 -1.5l10 -2q12 4 13 4q4 0 4 -4l18 4h78q4 0 4 -4l6 4h33l23 -4q8 4 18 4h4q6 0 14 -4l9 4l6 -4q4 0 4 4l16 -4q9 1 18.5 2t14.5 1.5t8 0.5v-4q12 6 29 6h10q15 0 21 -43h4q-6 -40 -39 -49q-4 0 -4 -2 l-27 2h-74q-4 0 -4 4l-8 -4h-25q-4 0 -16 4q-4 -4 -14 -4q-2 0 -10 4q-5 0 -5 -4l-18 4l-18 -4q-3 1 -6 3l-5 1l-14 -4q-8 0 -8 4l-45 -4h-15q-14 0 -96 4q-8 -4 -14 -4q-2 1 -5 2l-4.5 1.5t-2.5 0.5l-7 -4q-4 0 -4 4l-69 -6q-62 8 -64 31t47 47z" />
<glyph unicode="." horiz-adv-x="290" d="M14 59q18 78 84 78q0 4 15 4q43 0 55 -61l-4 -31q-24 -35 -68 -59l-18 4h-27q-43 30 -37 65z" />
<glyph unicode="/" horiz-adv-x="559" d="M8 59q14 33 23 33q0 4 -4 4q142 333 168 377q0 4 -2 4q36 79 36 88q-4 0 -4 4q6 0 25 54q8 14 12 14l-4 6q21 49 27 49l-4 6q32 62 104 242q32 56 98 266q10 0 31 68l53 110q31 16 31 25h25q4 0 4 -2l8 2h4q31 -22 25 -55q-5 -23 -78 -170q-30 -56 -70 -178l-375 -873 q-27 -70 -32 -70v-20q-21 -43 -54 -43v4l-8 -4h-4q-41 24 -35 59z" />
<glyph unicode="0" horiz-adv-x="862" d="M59 276q2 21 9 21q-9 76 0 190l4 9q-2 4 -2 14l2 10q0 4 4 4l-2 8l4 37q0 4 4 4q1 1 0.5 3t-2.5 2l20 100l-2 6q1 2 2 5.5t2 4.5v17q2 4 2 10q4 4 0 4q9 41 17 41q0 2 -4 2q35 123 55 186q-3 2 -1.5 4t5.5 5l-2 6q23 44 31 78h4q0 4 -4 4l16 41q-2 0 -2 4q4 0 17 16l-3 8 q18 25 43 74q83 132 185 188q8 0 63 25q65 6 76 6q11 -11 80 -14l49 -31q4 4 6 4q81 -111 103 -211q7 -38 20 -59l27 -174l-6 -6l4 -9q-4 -4 -6 -4l2 -45h-5l5 -6l-9 -51q0 -4 -4 -4q0 -4 4 -4l-6 -15v-22q-15 -84 -22 -84l2 -8q-9 -74 -19 -74q2 -6 2 -12 q-42 -194 -77 -295q-37 -89 -74 -142q-67 -73 -139 -114q-94 -64 -185 -64q-113 0 -217 90q-54 51 -45 111q-3 0 -18 63q3 3 4 3q0 9 -17 40zM156 410q0 -53 4 -107q24 -155 37 -178q79 -70 168 -70q21 0 127 56q88 65 126 137q60 115 72 203l-2 8q11 11 25 78q-3 7 0 10 q6 41 10 41l-2 8v2q3 20 18 35q-8 0 -8 6v4q0 4 4 4q-2 4 -2 10l23 78q-3 7 0 17q0 5 8 36l-6 19l6 6q0 4 -4 4l6 19l4 26q0 2 4 2q-4 32 -4 99h2q-10 92 -22 129q-24 71 -56 133q-49 74 -82 82q-4 0 -4 -4q-45 10 -67 10h-11q-103 -56 -112 -84q-12 -4 -39 -45q2 0 2 -4 q-36 -39 -88 -158q0 -4 4 -4q-9 -45 -18 -45l2 -8q-15 -37 -19 -37l2 -6l-22 -64q0 -4 4 -4q-20 -70 -35 -96l4 -6l-2 -9l-8 -12q6 0 6 -6q-4 -6 -10 -23l-4 -28q-9 -82 -19 -82l2 -8l-2 -11q0 -4 -4 -4q0 -4 4 -4l-8 -24l-4 -27v-37h-4l2 -8l-2 -25v-22z" />
<glyph unicode="1" horiz-adv-x="671" d="M88 782l6 15q0 8 -6 8l86 113q19 11 98 112q173 194 334 330q6 0 47 14q6 -3 4 -8l11 4q8 -4 28 -33l-4 -8v-2q18 -4 21 -53l-2 -12q0 -5 -4 -5q4 -16 4 -20l-11 -20q9 0 9 -9q-13 -12 -15 -20l-4 -45l-6 -6q2 -6 2 -13h-4q0 -4 4 -4q-10 -20 -10 -43q-12 -31 -14 -49 l-5 -20q0 -4 -4 -4v-15q-3 -13 -6 -10v-12q-22 -136 -22 -138v-14h-4l2 -8q0 -11 -15 -29q1 -2 2 -4.5t1.5 -3.5t0.5 -2q-6 -6 -8 -12q0 -21 -2 -23l-10 -33l4 -8q-1 -1 -3 -5t-3 -6.5t-2.5 -6.5t-1 -7.5t1.5 -7.5q-8 -16 -8 -20q-14 -77 -11 -94q-8 -5 -8 -10l-2 -23l-4 -6 q2 -6 2 -12h-4v-19q-19 -89 -25 -196h-2l-6 -78l-6 -13l-10 -88h-4l4 -26l-8 -6q-3 -21 4 -21q-18 -64 -60 -61l-4 8q-18 -6 -26 -6q-22 3 -13 59q-8 0 -2 27h4q-3 0 4 53t25 162q-1 5 0 19.5t4 58.5h4l-2 8q33 190 33 192v19h4v8q0 4 6 10q3 28 -2 37l10 23v8q3 8 0 14l7 6 q-3 9 0 17q0 2 1 2.5t3 -0.5l-4 8q4 4 6 4v22q0 2 1.5 3t2.5 0q1 2 0.5 3t-2.5 1l32 122q2 25 31 185l6 8q0 2 -2 2q8 24 8 35q5 10 5 12q2 18 2 31h4v8l4 33q1 4 4.5 8.5t3.5 5.5q-2 6 -2 12l6 11q-125 -113 -317 -340q-78 -93 -78 -101v-12q-8 3 -31 -27q-27 -12 -55 -14 q-24 0 -33 51z" />
<glyph unicode="2" horiz-adv-x="876" d="M14 20l6 54l76 133q68 136 187 280q51 76 114 144q337 408 342 444q13 38 23 105v6q3 66 -39 133q-33 39 -88 39h-14q-5 0 -5 4l-6 -4h-4q-4 0 -4 4q-4 -4 -49 -10l2 4q-76 -12 -164 -70q-75 -53 -100 -112q-9 -60 -45 -60v4l-6 -4h-15q-31 14 -28 39q9 47 20 61 q-4 9 -2 11q71 127 109 127q5 13 88 57q33 20 135 47q0 -4 4 -4q3 5 8 8h4q6 0 2 -4l10 4q7 0 31 -4l12 4l-2 -4q3 0 7 4q89 3 129 -26q44 0 100 -144q0 -16 8 -65h-4q2 -6 2 -41h-4l4 -6l-6 -37q-6 -55 -49 -142q0 -5 -133 -176q-37 -58 -109 -139q-38 -49 -190 -221 l-76 -96q-43 -78 -82 -136q-68 -121 -68 -131h2q13 3 13 -2q4 0 4 4l18 -4h60q4 0 4 -2l6 2l59 2q4 0 4 -4l7 4h26q4 0 4 -4q8 4 10 4q9 3 9 -2l24 4l92 2q72 -1 125 -2.5t89.5 -4t54 -6t16.5 -7.5q19 -14 16 -53q-4 -18 -34 -41q0 4 -2 4q0 -8 -9 -8l-8 4q-8 -4 -14 -4 q0 8 -6 8h-21q-7 -2 -32 2q-5 0 -5 -4l-59 6l-6 -2q-7 1 -17 1q-17 2 -16 3q-4 0 -6 -2l-14 2h-50q-4 0 -4 4q-8 -4 -10 -4q-26 -1 -48.5 -2t-32.5 -2h-11l-6 2q-8 -4 -15 -4h-8q-4 0 -4 4q-4 0 -4 -4l-24 4h-41l-15 -4q-6 2 -14 2h-49q-10 0 -10 -4l-21 4l-61 -2 q-7 0 -15 -4q-58 0 -82 30z" />
<glyph unicode="3" horiz-adv-x="1013" d="M25 178q3 38 55 41q30 0 51 -69q47 -63 139 -89q76 -12 176 -12q75 0 191 45q97 57 121 121q29 32 69 154v4q24 238 -106 299q3 13 -51 22q-37 16 -64 19q-40 -22 -104 -31q-4 0 -4 4l-60 -6q-55 3 -49 53q6 34 74 58l8 -5q144 26 184 52q138 117 144 159q40 52 43 84 q0 4 -4 4q9 39 16 50q-4 8 -2 14q0 4 4 4q0 142 -41 160q-13 29 -186 47l-15 -4q-22 3 -22 8l-74 -8v4q-10 0 -65 -14v4q-62 -23 -181 -113q-10 -2 -28 -2q-39 0 -33 51q25 55 174 137q90 37 147 37h15q4 0 4 2q4 0 4 -2l25 2h18q4 0 4 -2q4 0 4 2q216 -15 256 -47 q109 -58 88 -274q-21 -157 -133 -287l-69 -68v-4q102 -40 159 -155q34 -107 25 -181l-4 -26q-3 -8 0 -14l-4 -17l2 -6l-4 -6q3 -8 0 -17q0 -4 -2 -4q-4 -4 0 -4q-38 -133 -56 -133v-4q0 -2 4 -2q-70 -131 -166 -178q-68 -47 -86 -47q0 4 -4 4q-3 -14 -202 -41l-23 4 q-198 0 -219 37q4 0 4 2h-4l-6 -2l-84 51l-39 59q-20 41 -14 76z" />
<glyph unicode="4" horiz-adv-x="833" d="M76 555q33 38 98 143q41 62 78 107q20 38 123 156q151 173 192 225q84 120 191 233h8l-2 -8l10 4h21q8 0 8 -22h4l8 4l2 -6q-7 -53 -14 -191q0 -4 -4 -4v-25l-29 -202v-17l-4 -14v-10q-2 -8 -2 -19l-4 -22l-2 -8v-15l-4 -14v-4l-2 -27h-2l2 -6l-4 -4q3 -40 0 -82 q-7 -7 -7 -14l-2 -11q0 -12 2 -16l-6 -14q0 -18 2 -43l-4 -8l2 -9q0 -4 -4 -4l2 -16l-6 -12q27 0 27 -5l8 5h29l18 4q0 -8 20 -19q7 -28 7 -63l-54 -33q-4 0 -2 2l-10 -2h-8q-2 0 0 2l-10 -2h-19l-16 2l-4 -16q0 -13 2 -17l-4 -8q-3 -68 -9 -113q8 0 5 -45h-5q6 -15 3 -41 l-15 -100q0 -10 2 -14l-4 -6v-25h-4l4 -47v-6q-6 -41 -53 -53q-26 0 -37 10t-8 30q0 48 6 91l4 24q0 11 -2 15l6 16q0 2 -4 10l6 8l-4 6l6 9q0 102 2 137q2 0 6 4q-8 0 -8 6q8 53 4 78q6 6 6 14v19q5 0 5 4l-9 4h-22q-6 0 -14 -4q-8 4 -15 4q-22 0 -26 -4q-129 14 -205 14v4 q-4 0 -4 -4l-45 4h-17q-4 0 -4 4l-8 -4h-29q-90 0 -137 27q0 -4 -4 -4q-10 10 -6 14v12q-8 0 0 15q-2 6 -2 12zM207 580h43q8 0 18 -5l19 5q23 -1 47 -2t37.5 -2t19.5 -1l-2 -4q2 0 6 4l17 -4h28q4 0 4 -4l9 4h6q4 0 4 -4q4 0 4 4l18 -4h41q2 0 2 -2l9 2q4 0 4 -2l24 2h64 q7 0 10 8q0 9 -2 23q6 6 6 10l-4 8q5 5 6 5q-4 41 4 88l4 41q3 8 0 14l4 12l2 25h3q-3 9 0 12l4 55l6 27l-2 16q6 9 6 13q-2 4 -2 14h4l-2 8l2 23v20l4 8q-2 4 -2 15l10 4q-1 2 -2 4.5t-1.5 3.5t-0.5 2l12 49l-2 23l6 8q-4 8 -4 10h4l-2 6v4q0 4 5 4q-1 4 -2 8.5t-1.5 7.5 l-1 6t-0.5 5h5l-3 6v13q4 4 7 4l-4 6l6 8l-4 6l6 17q-2 4 -2 10h-4q-71 -109 -248 -295l-187 -242q-56 -83 -65 -110z" />
<glyph unicode="5" horiz-adv-x="925" d="M27 195q5 0 20 18q22 6 25 14h6q4 0 4 -4l8 4q4 0 4 -4l6 4q35 0 47 -92q27 -67 66 -67q33 -16 131 -25q121 0 234 82q114 108 172 289l12 43l6 53q21 157 -33 260q-12 0 -12 25q-10 0 -27 32q-18 13 -69 37l-9 -4l-38 14l-9 -4l-10 9h-29q-17 0 -71 4q-134 -21 -230 -68 q0 4 -4 4q0 -8 -8 -8h-6q-40 27 -37 59q-4 0 -4 4l4 9q-2 4 -2 14h4l-2 8l6 37l4 6l-8 4q18 86 29 113q-4 10 -1.5 21.5t6.5 20.5l5 9q-2 4 -2 10q4 26 10 37q-3 26 0 41q1 2 3 9.5t6 20t8 26.5l-2 8q6 20 8 20v8q18 60 26 60q1 0 43 22q2 0 2 -4q11 8 23 8v-4q13 8 25 8 h110l25 -4q3 6 65 15l4 4h23q52 0 92 6l8 -2l60 6l22 -4l27 8q0 -8 6 -8h25q4 0 16 4l6 -4q36 4 41 4h8q24 -7 33 -33v-4h-4l2 -8q0 -6 -12 -6l6 -10q-30 -41 -84 -41q-6 0 -2 4l-17 -4q-8 0 -12 4q-28 -4 -37 -4h-2q-6 0 -2 4q-17 -6 -35 -8l-22 4l-8 -4l-7 4l-8 -4 q-6 0 -6 4q-51 -2 -188 -21l-15 4q-20 -4 -26 -4v4q-12 -6 -19 -6q0 2 -4 2l-2 -6l-12 4q-2 0 -2 -4l-17 4q-9 -1 -18.5 -2t-14.5 -1.5t-8 -0.5q-8 4 -10 4q-15 -71 -18 -100v-4q0 -4 -2 -4v-7q-1 -3 -2 -9.5t-2 -8.5v-18q-9 -54 -15 -54q0 -2 4 -2l-10 -45l-2 -10 q0 -4 -4 -4l2 -8v-4q0 -2 -4 -2q0 -5 4 -5l-16 -45q4 -8 4 -14q185 37 203 37v-4l8 4q10 0 10 -4q1 0 2.5 0.5t5 1.5t6.5 2q86 0 226 -51q51 -48 63 -86q15 0 49 -88q-2 -7 15 -72l8 -74l-6 -8v-65h-4l2 -9v-10q-4 -4 -7 -4l5 -6l-19 -96v-4q-5 -6 -47 -119 q-10 -10 -59 -111q-49 -68 -121 -131q-59 -50 -221 -90q-2 0 -9 -0.5t-21.5 -1.5t-29.5 -2l-37 4q0 -4 -4 -4v6q-4 0 -6 -2q-72 8 -131 33h-4l-12 -4q3 3 -33 22q0 -4 -4 -4q-59 35 -74 107q-21 83 -18 86z" />
<glyph unicode="6" horiz-adv-x="862" d="M76 283q-13 84 2 288q39 160 96 287q44 115 166 270q57 71 147 146q12 15 54 37q85 67 196 106q26 -15 29 -28l-4 -29q-20 -33 -103 -72q-163 -91 -321 -293q-82 -131 -135 -280q-7 0 -13 -37q57 63 76 63l-4 7l10 4q-4 -4 0 -4q49 49 80 49h15q0 9 39 18v-4q27 12 63 14 q0 4 4 4h16q13 -2 18.5 -3.5t4.5 -4.5l10 4h4q7 0 4 -8q5 0 5 4l59 -10l6 4q142 -44 188 -141q0 -7 11 -29l-4 -8q5 0 20 -43l-6 -8q6 0 6 -31h-4q8 -55 -4 -147h-4q4 -9 2 -11q-9 -55 -14 -55q-4 -4 2 -4q-9 -39 -19 -49q0 -2 4 -2q-50 -152 -133 -232q-5 0 -47 -39 q-65 -42 -137 -57h-4l-8 4q-8 -4 -11 -4l-16 4q-8 -4 -10 -4v4q-4 0 -4 -4q-53 6 -50 12q-2 0 -6 -4q-40 14 -66 24.5t-38.5 19.5t-11.5 16q-95 68 -150 178q2 7 -10 78zM152 471q-9 -167 14 -252q104 -174 215 -174h16q6 0 2 -4l11 4q12 -3 12 -6q93 0 184 98 q76 112 90 166q-2 6 -2 16q8 0 11 7q0 4 -5 4l21 73l4 68h2q9 64 -33 162q-41 59 -84 74v4l-8 -4q-25 14 -102 26l-8 -4l-25 4q-101 -12 -143 -45q-117 -97 -131 -151q-24 -47 -41 -66z" />
<glyph unicode="7" horiz-adv-x="933" d="M172 1329l6 10q-4 0 -4 4q43 43 72 52l39 -2q12 0 12 4l18 -4l115 -4q4 0 4 -5l8 5h4q3 0 3 -5l8 5l59 -3l19 3v-3l6 3q42 -3 39 -9l10 4l86 -4l20 4l-2 -4q9 3 43 6l-2 -4l10 4q4 0 0 -4l97 9v-2q21 6 28 6q4 0 4 -4l19 4l8 -2q6 0 14 -4q8 4 11 4v-4l12 4q4 0 4 -4 l19 4l24 -2l23 -5q10 5 18 5q4 -16 8.5 -32t6 -22.5t1.5 -7.5q-3 -18 -188 -317q-103 -207 -119 -228q-156 -302 -223 -450q-30 -76 -102 -205h-4l4 -6q-16 -23 -50 -115q-14 -33 -41 -33q-14 -2 -30 -2q-15 3 -21 27q-8 0 -8 6l8 27v22q31 43 56 111q71 118 145 307 q49 83 57 121q22 40 33 51v8q26 48 217 410l133 219v2l-18 2q-11 0 -19 -4l-22 4l-27 -2v4l-26 -8q-6 0 -2 4q-136 -8 -189 -8q-88 6 -137 6l-10 -2q-6 0 -2 4q-1 0 -13 -4l-247 23z" />
<glyph unicode="8" horiz-adv-x="757" d="M33 244l6 18l4 27q0 4 2 4q4 4 0 4q34 119 102 211q38 71 154 190q53 56 61 56l3 12q-81 81 -109 156q-77 151 -74 206h-4q0 5 4 5v24q15 100 125 201q141 78 254 78l19 -4h14q162 0 186 -148q7 -51 4 -86q-12 -93 -139 -285q-68 -83 -135 -145l-2 -6q106 -69 166 -205 q38 -78 41 -221q-3 -27 2 -27q-21 -146 -127 -246q-9 0 -35 -26q-44 -29 -141 -55q4 4 -2 4q-4 -11 -74 -17q-4 0 -8 4q-28 -4 -37 -4h-25q-64 0 -143 54q-73 73 -76 100q-5 0 -14 102h2q0 19 -4 19zM139 281q0 -101 25 -129q54 -78 168 -78l18 4v-4l45 8v-4q94 19 144 69 q21 18 59 89l16 71q-2 4 -2 10h4q-3 82 -28 156q-21 75 -115 174q-31 31 -47 51q-76 -69 -150 -151l3 -6q-124 -154 -140 -260zM279 1180q-9 -62 49 -166q28 -73 86 -137l43 -37q66 60 137 174q26 51 39 51l-4 8l2 2q42 86 47 109q12 88 -41 129q-24 18 -135 18 q-135 0 -217 -137z" />
<glyph unicode="9" horiz-adv-x="870" d="M143 1001h2l-2 35q21 166 162 277q69 58 201 94q0 4 108 16q0 -4 4 -4q3 8 9 8h22q84 -3 84 -14l8 4q76 -30 111 -56t31 -52q22 -28 22 -33q0 -4 -4 -4l2 -47h-4l2 -8q0 -9 -6 -15q0 -4 4 -4q-11 -33 -22 -102l-3 -21q-2 -2 -4 -2q0 -4 2 -4l-6 -27q-2 -19 -39 -170 q-3 -79 -12 -137q0 -10 2 -14l-4 -6l2 -21h-4l2 -6v-10q-4 -4 -6 -4q0 -4 4 -4l-14 -74q-3 -24 0 -31q-6 -6 -6 -10q-1 -4 -11 -109l2 -6l-6 -14v-8q-2 -7 2 -15q-6 -6 -6 -20q-3 -3 0 -29h-4l2 -8l-10 -80q-3 -8 0 -14l-4 -12v-19l-4 -8v-20q-1 -1 -2 -3t-2 -2l2 -8l-2 -4 q0 -2 -3 -2l3 -8l-5 -27l-2 -37h-4l4 -6l-2 -8q0 -2 -4 -2l4 -8l-10 -64q-16 -29 -41 -37q-3 -8 -10 -8h-14q-10 0 -7 8l-6 -4q-36 13 -33 37h-4l7 19l6 41q4 4 6 4l-4 8l8 61v23q0 4 4 4l-2 18l2 11q0 4 4 4l-2 8l14 102q0 4 5 4q-6 6 -3 45h5l-2 9v2q0 4 4 4q0 4 -4 4 q8 19 8 29l-2 16q2 2 6 2l2 76h4l-4 6l10 41v27h4l-4 6q0 4 4 4q4 4 -2 4l8 37l13 92v22l6 9q-4 8 -2 14h4q-4 13 -2 47h-4q-20 -33 -121 -96q-3 -22 -178 -37v4q-2 0 -2 -4q-69 3 -66 12l-8 -4q-93 0 -170 139q2 8 -14 45q-12 64 -9 129zM244 1014q-12 -95 49 -189 q65 -53 121 -53q20 -4 26 -4q50 0 152 57q-4 0 -4 2q1 0 5 2l13 6.5t19 8.5v4h-9q0 -4 -4 -4v4q3 6 11 6l6 -2q78 63 121 190q11 25 30 105q4 4 -2 4q9 33 10 33l-2 8l7 18l-2 7q10 23 10 30q5 34 -17 53t-73 23q-13 0 -18.5 2t-4.5 6l-8 -4q-4 0 -4 4q-4 0 -4 -4l-21 4 q-53 -3 -69 -8l-7 4q-102 -10 -181 -59.5t-118 -128.5q-27 -80 -30 -80l2 -37z" />
<glyph unicode=":" horiz-adv-x="276" d="M25 59q18 78 84 78q0 4 14 4q43 0 55 -61l-4 -31q-24 -35 -68 -59l-18 4h-27q-42 29 -36 65zM106 694q7 34 18.5 54t45.5 43q4 0 16 4l7 -4q8 4 14 4q31 -30 41 -51t6 -50q-27 -59 -55 -59q-3 -8 -35 -8v4l-8 -4q-32 0 -50 67z" />
<glyph unicode=";" horiz-adv-x="366" d="M0 4q0 4 4 4l-1 4t-1 8q9 69 72 97l8 -4l27 8q39 -23 52 -54t7 -79q0 -4 -4 -4q0 -4 2 -4q-38 -107 -74 -127q0 -22 -35 -25q-3 -8 -10 -8q-24 9 -24 14l6 8q-24 0 -21 33q-4 0 -4 4q7 15 23 39.5t22 38.5q-28 9 -45 47h-4zM100 676l6 33q9 58 107 73q46 -34 43 -59 q5 0 2 -18v-9q-35 -65 -68 -65q0 -8 -8 -8h-4q-63 0 -78 53z" />
<glyph unicode="&#x3c;" horiz-adv-x="608" d="M88 641l4 23q0 4 4 4l-4 6l2 4q3 31 60 59q2 0 153 121q8 0 133 76q4 0 4 -4l19 4h24q31 -19 25 -60q-28 -28 -162 -104q-37 -34 -123 -88v-4q59 -29 285 -119q20 -20 20 -29l-6 -8q4 -8 2 -14v-4q-41 -35 -47 -37q-22 0 -153 55q-209 78 -236 115q-4 0 -4 4z" />
<glyph unicode="=" horiz-adv-x="720" d="M80 582v4q3 8 12 8l-4 6q4 11 45 31q4 4 6 4l6 -4q3 8 11 8h14q4 0 4 -4q8 4 10 4l15 -4q4 0 4 4q1 0 2.5 -0.5l4.5 -1.5t5 -2q45 3 51 6l6 -2l9 2q4 -2 14 -2l8 2q4 -2 10 -2q6 2 13 2v-2l6 2h14q10 0 16 -2l7 2l8 -2l14 2l19 -2l8 2l8 -2l16 2v-2l9 2h14q4 0 4 -2l8 2 q5 0 15 0.5t27.5 1.5t31.5 2q37 -3 37 -6l8 2h29q4 0 4 -2l8 2h12q40 0 43 -41q-3 -10 -8 -10q7 -14 4 -19q-41 -23 -45 -30q-38 3 -59 12q-12 -4 -13 -4v4l-8 -4q-24 0 -24 6l-9 -2h-18q-59 0 -78 -8q-4 0 -4 4q-6 0 -6 -4q-50 4 -55 4h-37q-44 0 -211 -14q0 5 -35 20 q-9 15 -6 27zM111 764q9 46 53 55q11 0 29 15l8 -5q9 9 18 9l2 -9l8 5h13q2 0 2 -5l8 5q4 0 14 -5l8 5q8 0 48 -9l8 4q8 -4 10 -4q4 0 4 4l18 -4h15l22 4q8 -4 19 -4l12 4v-4q6 6 59 9l37 -5q10 5 15 5v-5l6 5h26q7 0 15 4q8 -4 14 -4h27l18 4v-4l8 4q21 -13 39 -15v-12 q-21 -74 -47 -74l-8 4l-12 -4q-11 8 -21 8h-22l-37 -4v4l-8 -4h-15q-4 0 -4 4l-6 -4h-94q-2 0 -2 4q-13 -8 -31 -8v4l-6 -4h-12q-11 0 -11 4l-18 -4h-31q-2 0 -2 4l-8 -4h-18q-7 0 -15 4q-2 -1 -5 -2l-4.5 -1.5t-2.5 -0.5q-5 0 -29 4l-73 -8q-37 24 -37 31h-4z" />
<glyph unicode="&#x3e;" horiz-adv-x="573" d="M111 465l6 6l-4 8q3 33 90 68q126 67 207 125l26 22q-2 0 -2 4l-8 -4q-15 0 -178 82q-33 3 -33 10q-2 0 -2 -4q-55 8 -78 25.5t-16 46.5q0 2 4 2l-4 8q17 33 71 33q70 -22 281 -111l27 -10q0 2 4 2q0 -3 73 -37q-2 -6 11 -16l-6 -8q9 0 6 -35q-210 -153 -391 -240 q-3 -5 -31 -18q-32 6 -51 31q2 2 -2 10z" />
<glyph unicode="?" horiz-adv-x="841" d="M104 1192q2 2 3.5 5t3 7t2.5 6q0 2 -4 2q13 98 131 174q139 74 305 74h41l22 4q82 -12 121 -20l8 2q66 -15 123 -96q52 -112 37 -213q-29 -110 -78 -172q-79 -114 -190 -177q-137 -110 -166 -186q-30 -23 -84 -211l4 -8q-14 -45 -18 -66q0 -22 2 -51q-3 -22 -31 -41h-21 q-3 -20 -22 -26l-29 18l6 8h-8l2 19l-8 14q3 8 10 8q0 2 -4 10q4 10 10 33q0 17 -2 21q8 32 11 32v9l2 12q24 185 176 375q59 64 135 114q158 131 164 183q12 12 30 65q0 4 -4 4q6 27 13 27l-13 59l4 7q-12 73 -63 106q1 1 -0.5 3t-6 5.5t-11.5 7.5q-4 -4 -7 -4q0 1 -2 3 t-7.5 3.5t-13 3.5t-18.5 4t-24 4t-29 5h-86q-216 0 -305 -111q-6 -18 -18 -30q4 0 4 -5q-23 -30 -56 -47q-31 0 -28 33h-4l-2 -6h-7zM231 23h2l-2 6l2 4q10 0 13 22q6 0 22 23l23 10q18 -3 18 -6l6 4q33 -32 29 -57l-4 -23q3 -7 0 -10q-30 -27 -66 -27h-4q-6 0 -2 4l-8 -4 q-5 0 -22 17l4 6q-14 20 -11 31z" />
<glyph unicode="@" horiz-adv-x="901" d="M29 86l2 10h8l-2 -10h-8zM29 168l2 10h8l4 35h-8q7 17 8 33l-4 10l4 27h6l2 20h-6l4 23h6l2 16q-9 0 -6 37l2 6q0 4 4 4q0 4 -4 4q9 47 13 47v13q3 8 8 8q0 -4 4 -4q3 27 8 32q-3 1 -7 3t-5 2v6h12l2 8h-8l6 41q3 6 8 6q0 -2 4 -2l-2 18v2h13l2 13l-9 -4h-4v4 q65 195 160 284q17 14 47 48q122 73 213 73q4 -2 14 -2q5 0 5 2q115 -9 125 -28l8 4h4q92 -66 127 -156q40 -93 43 -248h-4l2 -8l-8 -57q-43 -172 -66 -172q-13 -31 -80 -88q-18 -9 -61 -9h-4q-44 0 -82 78q-58 -94 -121 -94q-79 0 -88 131q3 76 0 100l6 23l2 45 q26 114 63 160q45 51 82 51h4q112 0 146 -100q15 0 24 -123q-3 -18 0 -33q-4 -8 -4 -10l-2 -37h-4l-6 4v-16q-4 0 -8 -11l4 -8l-4 -6q9 -57 16 -57q42 0 82 108q9 47 15 47l-3 8l3 25q5 27 -17 223l-8 -4l-27 68q-57 106 -172 106q-6 0 -14 4q-8 -4 -14 -4h-9q-4 0 -4 4 l-6 -4h-22q-58 -6 -131 -55q-110 -121 -158 -322q-1 -1 -0.5 -2.5t2.5 -1.5l-21 -77v-9l-8 -47q0 -6 2 -10l-6 -16l-2 -37h-2v-11l-2 -8v-14l-4 -4l2 -6l-6 -49q-2 -7 2 -15q-4 -4 -6 -4q0 -32 6 -82q-6 -6 -6 -10q5 0 8 -74q8 -41 14.5 -68t16.5 -58.5t22 -51.5t30 -40 t40.5 -31t53.5 -18t69 -7l12 4l-2 -4q143 30 166 69q78 60 96 195q16 16 39 16q41 0 49 -32q-2 -13 -5.5 -23t-11.5 -31t-16 -47q-6 0 -18 -41q-60 -87 -94 -114q-52 -49 -166 -70q-47 -6 -51 -10l-4 4l-11 -4l-6 4l-18 -4q-147 0 -226 110q2 7 -14 33q3 8 -20 37 q-3 35 -13 45l4 6q-7 0 -16 41l6 8q-21 96 -18 109h8v6q3 18 -8 18l8 13l2 6l-8 -4q-1 2 -2 4.5t-1.5 3.5t-0.5 2l8 27q-7 0 -10 12zM68 463l2 10h6l-2 -10h-6zM88 535q2 -6 2 -13h4l2 13h-8zM412 494q-22 -147 18 -187q44 26 86 117q24 57 29 65l-4 9q7 10 10 10l-4 6 q8 19 20 31q3 37 -47 90l-8 -4l-10 6h-15q-22 0 -59 -82q-9 -33 -12 -33q0 -4 4 -4z" />
<glyph unicode="A" horiz-adv-x="1046" d="M2 18q7 70 49 119l-2 6l39 64l-4 8q78 153 166 344q13 13 67 137q5 0 70 121q3 7 88 174q-4 0 -4 4q12 12 59 115q132 285 162 285q3 0 15 4q58 0 55 -101q32 -192 35 -372l53 -414l33 -127h-4q14 -60 16 -86l27 -82l-4 -6q9 -18 24 -123q4 0 10 -18q0 -2 -4 -2l4 -9 l-4 -22l-4 -6q6 0 2 -4q-21 -24 -57 -27q-8 0 -8 6l-9 -2h-2q-34 21 -28 59q-4 0 -4 5q0 2 4 2q-7 15 -51 245q-37 155 -48 250h-41q-10 0 -10 -4l-18 4h-45q-7 0 -15 -4q-8 4 -14 4h-31q-10 0 -18 -4l-23 4h-39q-8 0 -16 -4q-14 3 -14 8l-6 -4q-4 0 -4 4l-9 -4q-4 0 -4 4 l-6 -4h-14q-4 0 -4 4l-9 -4q-44 8 -51 8q0 -11 -61 -124l-125 -271q-48 -91 -55 -96l4 -8q-14 -14 -17 -23q8 -16 -38 -40q-2 -2 -8 -4l-5 -3h-10q-10 0 -14 2q-6 -2 -13 -2zM397 655h4q5 0 5 4l24 -4q15 0 23 4q32 -4 41 -4h104l16 4v-4l9 4h49q4 0 4 3q37 -3 37 -7 q8 4 14 4q0 34 -8 97h4q-25 120 -31 239q-4 0 -4 4h4q-10 118 -20 179v6h-8q-46 -101 -103 -203l2 -8z" />
<glyph unicode="B" horiz-adv-x="911" d="M2 70l2 43h4l-2 6l12 43q4 4 -2 4q8 44 15 59q-3 7 0 17h2l-2 6l16 94q-2 4 -2 8q5 0 14 19l-4 8q6 6 6 14q0 2 -4 2q9 41 13 41l-2 6l4 19l10 67q4 4 0 4l4 19l10 90q2 4 2 8v8q0 4 2 4l2 50l11 32l-2 29l6 23l4 18l-2 20q6 11 2 11l6 14l-2 18l6 19v31l6 8v59l8 4 l-2 19q8 54 19 86q0 18 2 24l6 27q-2 2 -2 8l4 4v29l6 27l2 57q4 0 4 2q-9 0 -6 8l2 17l8 22q-4 9 -2 18v3q0 6 29 16q3 24 158 45v-2q4 2 10 2q44 0 145 -14l7 4q113 -18 196 -86l45 -68q-3 -28 10 -33l-6 -8q11 -11 11 -51h-5l2 -8l-2 -15q0 -8 -6 -14l4 -6 q-18 -73 -104 -162q-4 0 -37 -33l-41 -28q89 -15 172 -121q61 -85 64 -205q-3 -18 4 -29l-6 -18l-2 -33q-27 -187 -111 -280q-78 -122 -227 -189q-6 0 -68 -16q-8 4 -10 4q-24 -8 -33 -8v4q-4 0 -4 -4q-62 4 -70 4h-4q-8 0 -16 -4l-23 4l-57 -4q-2 0 -2 4l-27 -4h-141 q-48 0 -39 80zM109 96q4 -9 2 -16q4 0 4 4q19 -8 41 -8l18 4l6 -4l8 4q8 -2 11 -3.5t2 -4.5q18 6 37 8v-4l8 4q4 0 24 -4l62 8q28 -4 45 -4q124 18 170 67q103 86 106 115q61 67 70 125q-4 8 -4 10q5 0 14 19q0 4 -4 4l6 16l19 94q-9 0 -9 9l7 6q-1 2 -2 4.5t-1.5 3.5 t-0.5 2h4q-9 105 -64 176q-49 49 -113 64q-4 0 -4 -2q-48 10 -59 10l-18 -4v4q-2 0 -2 -4l-15 4q-47 -8 -71 -8l2 4q-47 -12 -127 -25h-11l-6 2q0 -7 -55 -16l-14 -101l-2 -36h-3v-11l-4 -16l-2 -57l-10 -37v-10h-2q-3 -33 2 -33l-8 -19l-4 -28q0 -2 -2 -2q0 -4 2 -4l-4 -19 l-4 -33q-4 -4 -7 -4l5 -6q-2 -7 -6 -22t-5 -17l4 -6q-3 -8 -6 -8l-2 -43l-4 -29l-12 -72q4 -4 4 -8q-8 -8 -8 -12q3 -11 2 -12q-8 0 -8 -6q2 -6 2 -13h-4zM219 860q91 21 115 21q4 0 4 -2q57 9 61 20h4l5 -4q90 31 186 96q50 44 82 94l26 58q15 104 -122 153q-4 0 -33 11 q-4 0 -4 -4q-18 3 -29 8l-10 -4q-26 11 -86 14q-8 0 -51 -6v4q-77 -23 -91 -23l-2 -4q0 -10 2 -14q0 -2 -4 -2l-6 -100l-8 -29q4 -8 2 -14h-4q0 -5 4 -5q-28 -142 -31 -161l4 -6q-6 -6 -6 -15q-2 -6 2 -14q0 -4 -4 -4v-19z" />
<glyph unicode="C" d="M84 487q-6 34 0 121l4 8q-2 6 -2 13q3 24 10 24q0 4 -2 4l4 19l8 49q35 242 238 506q175 166 320 166q34 3 34 8l21 -4h45q100 -9 182 -31q17 -14 72 -39q22 -25 22 -26l-6 -41q-16 -19 -33 -19v4l-8 -4h-4q-85 60 -244 60q0 4 -14 4q-20 -4 -26 -4v4q-54 0 -160 -41 q-129 -88 -144 -129q-119 -155 -125 -207q-40 -84 -55 -137q-4 0 -4 -4l-4 -33q0 -4 -4 -4l2 -9l-21 -92q-2 -5 3 -14l-9 -35l-2 -2q-3 -41 0 -72h-4q0 -48 4 -84h-4q6 -136 141 -292q129 -97 277 -97q166 0 322 170q6 0 26 17q12 -3 12 -8l7 4h16l6 -4q0 4 4 4l15 -19 q-7 -11 -7 -14q10 0 7 -12l-7 -9q4 -8 2 -10q-107 -110 -165 -137q-68 -39 -103 -39q-13 -11 -96 -20v4l-8 -4h-37q-113 12 -121 20l-10 -4q-153 48 -217 117q2 6 -39 41q-139 199 -119 333z" />
<glyph unicode="D" horiz-adv-x="1075" d="M35 72q6 6 6 10l-4 6l6 8l-2 21h6l4 24v19h2q0 14 -8 14q12 10 12 23q0 6 -8 6l6 8l2 10h-8v4h8q3 75 2 82h4q3 39 -6 39l4 6l2 4h-4l-2 -6q-7 0 -4 6q3 0 13 13v2h-9v8h9l6 35h-11v12l7 -4h4l-2 6h4q-3 25 -8 25l4 8v8q3 3 0 39q4 19 10 29q-7 0 -4 10l8 35v24l6 19 q0 4 -4 4l6 16v27q3 6 6 6v43l25 166l8 31l-4 8l6 6l-2 22h4q0 2 -4 2l10 37l4 25q0 4 2 4q0 2 -2 2l23 113q-2 10 -2 24l6 15l-2 8q0 1 6 10q0 39 4 59q0 9 -6 9q12 35 8 61q9 49 45 49q3 17 47 25l19 -4q4 0 4 4l25 -4h45q6 0 34 4l7 -4q8 4 16 4v-4l6 4l16 -4l7 4l6 -4 q4 0 4 4q61 -6 61 -11l6 5q5 0 5 -5q2 0 2 5q152 -18 262 -68q184 -123 225 -252q42 -135 33 -215q3 0 0 -6h-2q2 -41 -2 -96l-9 -58q-12 -90 -20 -90q-4 -4 2 -4l-6 -24q-2 -7 2 -15q-78 -265 -131 -356q-83 -110 -221 -164q-162 -76 -262 -76l2 4q-23 -3 -23 -8l-18 4 q-44 -8 -64 -8h-10l-10 8q0 -8 -9 -8h-16q-8 0 -12 4q-6 0 -6 -4l-27 4h-35q-4 0 -4 4l-8 -4h-18q-8 0 -5 8l-10 -4h-8q-6 0 -2 4l-4 -4q-58 3 -58 15l-8 -5q-26 0 -20 95zM131 63q0 -1 3.5 -2.5t11 -3t18.5 -3t27 -3t35 -3t42.5 -3t50.5 -2.5q83 6 93 6l8 -4q8 4 12 4t4 -4 q53 0 242 82q111 66 149 156q37 100 43 100l-4 6l64 205l-4 6q10 52 22 96l-4 9l8 20q19 144 -32 317q-15 47 -60 95q-111 120 -201 129q-44 18 -104 30q-2 0 -6 -4q-63 13 -135 13h-66q-4 0 -4 4l-8 -4h-27l-24 4l2 -27l-6 -33q0 -10 2 -12l-4 -12v-6q0 -5 -3 -5v-14 l-6 -35q-4 -4 0 -4l-4 -18l-4 -35q0 -4 -4 -4l2 -6l-6 -51q-5 -5 -6 -5q1 -5 1.5 -9.5t1 -7.5t1 -5.5t0.5 -3.5q-8 -3 -8 -8l-2 -9q0 -10 2 -14l-13 -31l2 -22q0 -4 -6 -10q0 -7 2 -11q-15 -56 -24 -125l2 -8l-6 -14l-6 -43q0 -4 -5 -14q-3 -31 3 -31q-13 -36 -7 -55 l-12 -19l8 -2q-3 -4 -4.5 -10t2.5 -8l-6 -19l-2 -12l-2 -37h-4q0 -4 4 -4q-6 -17 -7 -26.5t1 -45.5h-4l4 -6l-17 -158h-2q4 -23 2 -28h-4l4 -6l-12 -148l2 -14h-4l2 -6z" />
<glyph unicode="E" horiz-adv-x="989" d="M27 45q2 6 2 12v11h2q0 4 -2 4l6 24l22 164l6 14q-4 23 -2 33h2v41q7 7 7 19v22l6 19v22q0 4 4 4l-2 43l6 17l-2 20h4l-2 8v4q10 72 10 133h4l-2 9q0 4 4 4l-2 6l4 37q0 4 4 4l-2 6q0 4 5 4q-5 13 -5 18t5 13q-3 6 -3 14q3 8 7 8q0 58 2 70q4 8 4 10q0 12 -4 12l8 25 l6 57q2 7 -2 15q6 6 6 14q2 6 -2 14q5 5 6 5q0 24 -4 36l8 23q0 10 -2 14q7 21 8 27q0 6 -4 14q7 7 7 15q4 22 2 41l8 20q-4 8 -4 10h4q0 2 -4 2q12 45 16 45q0 4 -4 4l6 25l4 25q3 6 -6 6l6 18l-2 14q30 46 39 46l43 14q31 -15 31 -19l26 5l70 2l52.5 1.5t23.5 0.5v-4l6 4 q4 0 4 -4l8 4l6 -4q12 4 13 4v-4q2 0 2 4q8 0 8 -4l22 4q118 -4 140 -4h20l21 4q15 -9 41 -9h53l18 5v-5q10 5 11 5l8 -5q10 5 14 5l8 -5l6 5l9 -5l22 5q34 -12 31 -37q10 0 10 -9q-14 -9 -29 -38q-10 0 -10 -9h-26l-11 -4v8l-8 -4h-37q-2 0 -2 4l-8 -4l-18 4l-9 -4l-6 4 l-22 -4q-4 0 -4 4l-21 -8q-63 6 -106 8l-7 -4q-4 0 -4 4l-18 -4l-12 4q-2 0 -2 -4l-90 9q-77 -5 -89 -5q-2 0 -10 -4q-8 4 -16 4q-2 0 -2 -4l-21 4h-6q-6 0 -14 -4l-8 4q-11 0 -27 -8q-8 4 -14 4h-4q-8 0 -17 -36l4 -9q-4 -4 -6 -4q0 -4 4 -4l-6 -16l-4 -33l-8 -25 q0 -2 4 -2q-11 -34 -6 -45l-6 -8q4 -8 2 -14q0 -4 -4 -4l4 -6l-6 -37q-2 -9 2 -21l-7 -12q-12 -136 -20 -168v-14q-1 -5 -2 -9.5t-2 -11.5t0 -11.5t4 -4.5l-6 -19l-8 -53h82q4 0 16 -4q13 8 39 8h22q4 0 4 -4l9 4h37q2 0 2 -4q21 8 98 8h16q7 0 15 4l20 -8l23 4q6 0 2 -4 l22 4h2q17 0 33 -4q45 3 61 8q4 -4 15 -4l18 4q27 -17 35 -41v-4q0 -4 -18 -10l4 -8q-3 -10 -29 -27l-12 4q-37 -3 -37 -6l-19 2h-12q-23 0 -41 -2q-4 2 -10 2q-4 -2 -19 -2v2l-8 -2h-20q-4 0 -4 2q-6 -3 -47 -6l-4 4l-21 -4q-2 0 -10 4q-98 -10 -158 -10q-6 0 -14 -4l-6 4 q-12 -4 -13 -4v4l-8 -4q-4 0 -4 4q-47 -8 -72 -8v-4q-9 -119 0 -119v-4h-8l-12 -88v-27h-4l4 -6l-6 -31l2 -18h-4l4 -6q-4 -4 -6 -4l2 -19v-4q0 -4 -4 -4l2 -6q0 -4 -4 -4l2 -8q-5 -35 -2 -56q-2 -2 -3.5 -4.5t-2.5 -3.5t-1 -2l2 -18l-6 -9q0 -6 2 -12l-8 -33l-2 -10 q0 -10 2 -14l-6 -17v-6q-3 -8 4 -8l10 4l4 -4q12 4 15 4l-2 -4l10 4q4 0 0 -4l10 4q7 -1 8 -4q39 8 88 8q52 0 76 -8q36 4 43 4h37q8 0 12 -4l9 4q3 0 8 -0.5t14 -1.5t17 -2l34 4l6 -4q3 0 7 4q34 -3 34 -6q21 6 66 6l-2 -4l10 4h41q4 0 0 -4l10 4h23q6 0 2 -4l8 4 q4 -4 8 -4q2 0 6 4l17 -4h8q7 0 35 4q14 0 33 -31q-3 -22 -25 -32q-3 -27 -31 -27l-8 4l-20 -6q-14 2 -39 2h-33q-4 0 -4 4l-6 -4q-14 0 -54 4q-86 -4 -106 -4q-6 0 -12 -2q-35 3 -35 6l-27 -4h-127q-4 0 -4 4l-6 -4h-68q-30 0 -57 -2l2 2q-21 -6 -26 -6v4l-9 -4h-4 q-6 0 -14 4q-11 -5 -37 -8v4l-6 -4q-28 3 -55 55z" />
<glyph unicode="F" horiz-adv-x="925" d="M47 53l10 74q2 5 -2 16q6 6 6 15q0 6 -2 12l4 6v19l5 8q-2 4 -2 14l2 6q0 4 4 4l-2 9l4 40l6 74h4l-2 6q11 114 15 166.5t1 52.5l4 9q-2 4 -2 10h4q-4 8 -2 10q8 105 9 150h4l-4 8l8 61l6 15q1 2 0.5 3t-2.5 1q7 22 8 30l-2 19h4q0 4 -4 4l6 16l6 45q3 8 0 17q3 10 9 10 q-1 4 -2 11t-2 11t-1 7l9 26l-2 15l6 8q-4 8 -2 14h4l-4 8l12 93l2 20l2 8l16 164q21 55 31 55q4 0 4 -4l17 4h12q6 0 14 -4q12 4 17 4v-4l6 4q45 0 131 7v-3q29 8 94 11q2 0 2 -4l21 4q37 0 200 12h70q4 0 4 -4q4 0 4 4q24 -8 80 -8h29q71 0 65 -45l6 -11q-1 -2 -4 -8.5 t-4 -8t-4 -6.5t-4.5 -6.5t-4.5 -4t-6 -3.5t-7 -2t-9 -1q-172 8 -225 8l-12 -4q-8 4 -15 4l-18 -4v4q-44 -13 -141 -13h-62q-4 0 -16 -4q-6 0 -2 4q-12 0 -33 -8q-2 0 -2 4q-82 -6 -145 -6v-4q-2 -6 2 -14q-7 -7 -7 -17q-1 -1 3 -10q-7 -7 -7 -14v-31h-4q2 -4 2 -10l-4 -8 q4 -24 4 -27l-6 -6l4 -6q-6 -9 -6 -17q2 -4 2 -10h-4l4 -8l-6 -33q0 -4 -4 -4l4 -6l-8 -49q0 -10 2 -10l-6 -21l-10 -84q-3 -8 0 -14l-7 -17v-6q-3 -10 0 -10l-4 -21l-8 -55l6 4h107q4 0 4 -4l8 4h4q4 0 4 -4l6 4q12 -4 13 -4q8 4 10 4v-4l8 4q4 0 4 -4l6 4l27 -4q4 0 4 4 q27 -8 80 -8h4q4 0 4 -2l8 2q2 0 2 -2q4 0 4 2l27 -2h47q12 0 12 2l19 -2h43q30 0 53 2l6 -2l8 2q52 0 52 -61q-27 -37 -66 -37q3 8 -6 8h-6q-10 0 -14 -4q-5 0 -9 4q-69 -2 -139 -8q-42 3 -53 8q-2 0 -6 -4q-40 6 -105 6v4q-4 0 -4 -4q-50 4 -55 4h-29l-24 -4q-8 4 -17 4 h-4q-4 0 -16 -4q-8 4 -15 4l-14 -4q0 4 -4 4q0 -6 -6 -6q-8 -206 -27 -360q0 -3 4 -11q-4 -4 -6 -4l2 -18l-6 -41l2 -23q-6 -9 -6 -10l2 -8l-4 -6q3 -22 0 -31h-4l4 -6l-19 -121l3 -16h-5l5 -9l-3 -4q0 -4 -4 -4l4 -6l-4 -27q-3 -27 -41 -36v-4h-2q3 8 -2 8q-12 -4 -14 -4 q3 8 -4 8q0 -6 -14 -12q-28 0 -19 73z" />
<glyph unicode="G" horiz-adv-x="1064" d="M70 475q0 4 2 4v8l2 7v16l4 6q-7 14 -4 19h4l-4 8q4 4 6 4q0 8 -4 8l10 43l10 70q0 4 2 4v10l13 82l2 18l8 49l2 11q0 4 4 4l-2 8q9 33 12 33q0 4 -4 4q15 37 19 37l-5 8q2 11 13 29q-4 0 -4 4q5 0 32 80q44 97 103 159q59 94 153 138q88 55 121 55q3 20 185 41v-4l8 4 q155 0 246 -60q0 -5 18 -32q-3 -31 -39 -50l-22 5q-10 -5 -11 -5q3 23 -98 50q-62 10 -76 10q-6 0 -6 -4l-22 4q-33 0 -121 -10v4q-162 -57 -207 -113q-140 -152 -152 -217q-12 0 -59 -182l-10 -64q0 -2 -4 -2l4 -8q-6 -6 -6 -10q2 -6 2 -13q-7 0 -7 -6v-12q-2 0 -2 -2 q7 0 4 -12l-6 -8q0 -3 4 -3l-12 -40q0 -25 -2 -33l-4 -35l-6 -23q0 -14 4 -14l-6 -18l-4 -29q-1 -7 2 -76l-4 -6q9 -129 49 -229q36 -74 86 -97q23 -14 71 -26q-3 -6 35 -6h56q4 0 16 4q2 0 2.5 -1t-0.5 -3l53 10v-4q109 27 148 78q4 0 37 36q52 47 94 119l18 56v8l25 73 l4 29q0 4 4 4l-2 8l2 15q0 4 4 4l-4 37q4 4 6 4v37l4 28l-2 9q-40 -9 -49 -9l-22 4l-9 -4q-2 0 -2 4l-18 -4h-53q-7 0 -15 4q-8 -4 -14 -4h-23q-4 0 -4 4q-4 0 -4 -4l-16 4h-62q-1 0 -1 2t1 3l-10 -5l-20 5q-2 -1 -5 -2t-5 -2t-3 -1l2 5l-10 -5h-51q-31 15 -49 46l8 20l2 16 q4 0 31 15q1 0 4.5 -0.5t10 -1.5t13.5 -2l9 4l12 -4q0 8 6 8h19q8 -3 8 -8q6 0 6 4l65 -8l7 8q5 -1 7.5 -4t0.5 -4l10 4q2 0 2.5 -1.5t-0.5 -2.5q11 8 18 8q0 -8 7 -8q12 4 14 4h10v4h10q9 -3 7 -8l30 8q12 -4 13 -4q36 8 41 8q11 -8 22 -8h4l14 12h23q44 0 57 -8l9 4 q28 -4 34 -8t0 -15q11 0 17 -14h-4l8 -23q-10 -16 -12 -28q4 -11 2 -13h-4l4 -8v-4l-9 -16q9 -3 9 -8t-4 -5q-4 -4 2 -4q0 -6 -5 -6q-3 -76 -6 -96l-18 -45l4 -6q-9 -21 -12 -21l4 -6q-12 -35 -15 -35q0 -2 5 -2q-15 -98 -187 -270q-110 -88 -186 -88q-3 -10 -139 -16v4 q-5 0 -5 -4q-31 3 -30 8l-11 -4q-127 27 -184 90q-51 60 -65 112q-4 0 -13 35q4 0 4 2q-7 4 -22 82q-6 0 -2 4q0 4 4 4q-12 46 -12 158q-2 0 -2 4z" />
<glyph unicode="H" horiz-adv-x="1040" d="M51 37l4 6q-2 4 -2 14h4q1 1 0.5 2.5t-2.5 1.5l6 19l-4 6q6 9 6 16l-2 15q4 4 7 4l-2 18l8 56q0 10 -2 14q0 4 4 4l-2 18l8 56v18h2v8l4 27l-2 20q6 9 6 17q-3 19 0 29h4l-2 8v6q1 4 1.5 10t0.5 12t0.5 15.5t1.5 17.5h4q-3 9 0 45h2l-2 8l2 7q0 4 2 4v8q10 109 17 155 l-2 7l6 18l-2 23q5 12 8 28l-2 17h4l-2 6l6 41q0 8 6 14q-4 10 -2 12h4l-4 6l2 17l2 45h5l-2 6v6q0 4 4 4l-2 9q6 41 10 129h4l-4 36l6 9l-2 18q0 4 4 4q2 27 2 51l4 15v26h2v8l4 33l6 78q3 27 50 33h26q21 -12 15 -55l-5 -33v-19q-4 0 -4 -4l9 -4l-7 -6q-12 -123 -8 -131 q-2 -2 -6 -2l-8 -135q0 -2 -4 -2q-3 -59 0 -68q-6 -6 -6 -14l-2 -4l2 -19h-4q0 -22 4 -22l-7 -19v-10q-3 -12 0 -18l-6 -21q-1 -21 -8 -90l8 2h88q11 0 15 -2q6 2 12 2q33 1 70.5 2t57.5 1.5t30 0.5q1 0 2.5 0.5t5 1.5t6.5 2q12 -4 18 -4h13q5 0 33 4l8 -4l6 4q28 -4 33 -4 q12 0 12 4l25 -4h63q4 0 4 -4l8 4h15q4 0 4 -4l6 4h12l23 -4l6 4l16 -4q24 4 29 4q0 4 -4 4l20 88q-1 3 0 11t2.5 13.5t-0.5 6.5l6 18l5 33q3 33 18 101q4 0 4 4l-8 2q9 18 12 18l-4 8v4q4 11 6 11l-2 18l4 19q0 4 4 4l-4 8l11 65q8 61 4 86l8 33l4 31q0 8 -2 14l6 15l4 36 q13 19 41 19h8q47 0 35 -82q0 -2 -4 -2l2 -21q-6 -29 -14 -161h-4l2 -9l-11 -77q-17 -104 -32 -170q0 -3 4 -11q-7 -17 -11 -32v-5q-2 -8 3 -18q-9 -18 -23 -104h-4l2 -7l-2 -16q0 -4 -4 -4q0 -2 4 -2l-8 -18l-6 -50q0 -10 2 -14l-4 -6q-16 -94 -29 -191l-10 -65l-7 -60 q-3 -6 -6 -26l2 -6l-2 -8q-9 -103 -6 -187q-29 -29 -47 -29h-14q-4 0 -4 5l-9 -5h-8q-4 0 -14 19v4l4 6q-6 0 -12 53q4 4 6 4q-3 57 0 66h4q-7 20 2 68l43 315q0 2 4 2q4 4 -2 4l8 37l4 33q3 8 -4 8q-10 0 -10 -4l-20 4h-66q-4 0 -4 2q-4 0 -4 -2l-43 2h-41l-23 4 q-4 0 -4 -4l-18 4l-27 -4v4l-6 -4h-12q-5 0 -33 4q-8 -4 -14 -4v4l-9 -4l-14 4q-8 -4 -10 -4v4q-41 -3 -41 -6q-6 2 -12 2q-31 -2 -48 -2v2l-8 -2h-106q-4 0 -4 2q-4 0 -4 -2l-19 2h-6l-8 -2l-2 -72l-4 -6q2 -4 2 -10h-4q2 -6 2 -12q-27 -256 -25 -285q-4 -4 -6 -4l2 -19 l-12 -96q-3 -8 0 -14l-4 -4l-6 -64l-7 -51q-8 -11 -32 -18q-4 4 -13 4q-3 -8 -10 -8q-25 22 -37 57z" />
<glyph unicode="I" horiz-adv-x="262" d="M6 35l4 24q3 9 0 15l4 6l11 108q1 1 2 3t2 2q0 42 14 108q1 -1 4 2q-8 0 -3 11q1 2 1 3v13l4 6q-2 4 -2 10l6 8q-3 6 0 15h4l-4 6l15 69q2 10 2 27l8 31q0 2 2 8t2.5 9.5t1 9.5t-1.5 8l6 8q0 4 -4 4l6 16v19h4l-2 6q0 4 4 4l-4 6l6 23q0 4 4 4q-2 4 -2 10q16 124 25 162 v18q5 8 6.5 22t0.5 25l-1 10q3 4 4 3l12 73l19 101v20q4 4 8 19v18h4l-4 6q0 4 4 4v8q10 55 4 82q0 1 3.5 6t4.5 9l-2 14h5q-7 34 2 51q0 6 6 12q0 3 0.5 9.5t1.5 20t2 26.5l4 6l2 22l43 17l22 -2q17 0 17 -78l-4 -25l6 -10v-4q-1 -3 -4 -8t-4 -6l2 -8q0 -3 -4 -3l-13 -155 l-4 -6l-2 -23v-6q0 -4 -4 -4l2 -6l-6 -37q0 -4 -4 -4v-6l-2 -11q0 -4 -4 -4l4 -8l-8 -35q-23 -129 -35 -233h-4l4 -6l-4 -8q0 -5 -2 -5l2 -8l-8 -30v-25h-2v-8q0 -4 -5 -4l5 -7q-4 -4 -7 -4l5 -8l-41 -207l-5 -43h-4v-8l-8 -47q-2 -6 -2 -31l-6 -8q-15 -134 -18 -213 q-7 -7 -7 -8l4 -8q-17 -28 -34 -35l-29 2q-2 0 -2 4l-8 -4q-15 0 -27 35z" />
<glyph unicode="J" d="M51 455l15 94q37 102 63 102l4 -4q12 4 14 4q26 -23 29 -63l-6 -2q9 -17 -8 -31q4 -8 4 -10h-4q2 -6 2 -13l-10 -32q4 -12 4 -13h-4l6 -14l-6 -6q9 -215 30 -215h-4q27 -93 105 -123q37 -22 172 -37q4 0 4 4q4 0 16 -4q133 0 236 68q75 41 123 133l38 74v14q20 24 35 78 q-1 2 -2 4.5t-1.5 3.5t-0.5 2q3 31 10 31q4 4 0 4q9 20 33 133q-3 19 0 37q0 3 8 22q0 2 -4 2l6 21v29q7 10 7 12h-4l6 6l-9 10q9 9 17 41q0 25 2 35l6 33q0 4 2 4q-3 7 0 10q0 2 1.5 12t0.5 15.5t-6 5.5v8l8 -4l2 8q-3 10 -8 10q7 8 8 23q0 10 -2 14l4 8l-6 25l4 12 q-6 0 -6 6q4 8 12 13q0 4 -4 4l6 10q2 45 13 129q-9 0 0 150q-5 0 -2 32q26 29 63 29q18 -18 21 -33q9 0 12 -37q4 0 0 -4l-6 -37v-14l-4 -6q6 -27 0 -150l-4 -22q-5 -30 -5 -70h-4l4 -30q-6 -6 -6 -15q4 -32 2 -37l-8 -61q0 -4 -4 -4l4 -27q-9 -41 -14 -41l4 -8q0 -2 -4 -2 q-3 -41 2 -41l-6 -18l-10 -68q-2 -6 2 -14l-7 -15l-6 -41q-9 -73 -18 -73l4 -9l-6 -8q0 -6 4 -6l-23 -86v-6q-41 -139 -110 -242q-110 -113 -201 -141q-3 -16 -172 -43h-33q-4 0 -4 4q-2 0 -2 -4q-257 35 -254 55q-91 31 -137 150q-25 74 -31 227l6 17q-8 0 -8 6z" />
<glyph unicode="K" horiz-adv-x="1075" d="M-2 33v10l4 4l-2 8l10 88l2 25l4 12l-2 8q4 8 4 17v12h2q4 4 0 4l5 21q37 197 45 270v2l4 4l-2 6l2 8l4 27l-4 2l4 8v4q14 92 10 123l6 15v4q2 6 -2 14l6 10q-4 11 -2 13h4l-4 8q6 6 6 10q-4 0 -4 2h4l-2 8l2 23q0 4 4 4l-2 6q0 4 5 4q-3 19 -5 19l7 26l8 56q0 4 4 4 l-2 8l6 51l2 23l2 6v12h2l-2 6q1 3 2 9t2 11t2 7l2 22v2l6 35q10 83 7 176h4l-4 21q0 4 4 4v39q2 0 24 22q5 0 15 13l8 -5l4 7q31 -3 57 -39v-4q0 -5 -4 -5q3 -12 6 -12l-6 -16l2 -17l-6 -8l4 -51q0 -2 -2 -2q-2 -6 -2 -49h-4q5 -19 -4 -96l-10 -64q0 -7 -7 -14q4 -8 2 -15 l-10 -81q-2 -7 2 -15q-6 -9 -6 -14l-10 -72q0 -4 -4 -4l2 -6l-10 -72q0 -6 6 -6q0 6 59 41q111 88 234 170q179 127 399 311q3 0 53 47q16 13 23 13q3 35 88 41q16 0 22 -45q-3 -34 -67 -74q-334 -275 -365 -297q-44 -38 -129 -88l-229 -170l-2 -4q74 -54 346 -299 q8 0 162 -160q121 -86 164 -141v-19q-3 -22 -43 -49h-27q-27 0 -88 64q-85 65 -191 182l-194 176q-98 85 -144 131l-71 51q-12 -4 -13 -4q0 4 -4 4l-4 -24l2 -21h-4q0 -4 4 -4l-3 -8t-5 -12q0 -11 2 -17q-7 -13 -8 -24q0 -13 4 -13q-5 -9 -8 -21.5t-5 -25t-3.5 -25 t-2.5 -23.5t-2.5 -19.5t-4 -14t-5.5 -6.5q0 -4 4 -4l-6 -14q0 -11 2 -17l-8 -32l-2 -11l2 -18h-4q0 -4 4 -4l-8 -27l-14 -96q0 -10 2 -14q-7 -17 -9 -27l3 -18h-5l5 -7q-15 -53 -31 -53q0 4 -4 4q0 -10 -8 -10v2q-12 -6 -23 -6q-34 12 -43 33h-2z" />
<glyph unicode="L" horiz-adv-x="940" d="M25 76l14 162h4l-4 12q14 91 47 350v27q6 9 6 12q0 2 -4 2l6 18l12 86q2 7 -2 15q7 7 7 14l4 23q0 10 -2 14l4 8l-2 6l8 31q0 4 -4 4l6 19q8 56 15.5 104.5t10.5 68.5t3 21l6 8q-2 6 -2 13q0 2 4 2l-2 18l6 45q3 9 0 15l10 32v25q0 1 1 6l3.5 17.5t5.5 25.5l-2 8 q15 96 49 96q19 0 19 9q36 0 51 -64q-19 -73 -22 -96l4 -6q-6 -9 -6 -13q-1 -17 -2 -32.5t-2 -23.5t-1 -9l-8 -16q4 -11 8 -11l-8 -26l-4 -33v-19l-8 -4q-5 -34 -17.5 -105t-15.5 -97l-10 -86v-27h-4q0 -2 4 -2l-12 -55l-17 -113l2 -16h-4l4 -9q-11 -105 -20 -170 q0 -6 2 -12l-6 -20q-12 -104 -8 -119l-7 -8l5 -6l-7 -9l2 -63l-4 -6q3 -9 0 -17h27q12 0 12 -4l17 4h90q4 0 4 -4l6 4h14q4 0 4 -4q4 0 4 4q102 4 113 4h31q4 0 0 -4q2 0 6 4l125 -10l20 2q27 -2 60 -2q30 0 100 6v-4l8 4h15l20 -16q4 2 10 2q18 -27 25 -27q-10 -30 -27 -59 l-8 4l-12 -6h-4q-4 0 -2 2l-109 -10l-22 4h-74q-4 0 -4 4l-6 -4h-9q-4 0 -4 4l-8 -4q-17 0 -63 6q-4 0 -6 -2l-17 2h-45q-2 0 -14 4l-6 -4l-17 4q-8 -4 -10 -4q-4 0 -4 4l-19 -4h-206q-45 0 -80 -2q-28 0 -37 51q-5 0 -14 27z" />
<glyph unicode="M" horiz-adv-x="1153" d="M-12 47v6q0 4 4 4l-2 9l8 28q0 6 -2 12q4 11 6 11q1 1 0.5 2.5t-2.5 1.5q9 42 14 49l-4 6q15 15 27 92v4l4 15v14l4 27q0 4 2 4v8q26 78 57 207v8l-2 16h4q1 1 0.5 2.5t-2.5 1.5q14 32 17 70l4 27l6 14q-2 6 -2 12q9 27 10 29q0 4 -2 4l4 19l17 114q3 21 10 47 q-2 12 1.5 34t8.5 34q0 4 -4 4l8 27l2 6l-2 22q6 15 11 15q0 32 -5 32q7 15 29 132v18q2 2 4 2v27l6 41l6 22q0 4 -2 4q6 20 7 37q5 0 53 23h4q40 -37 41 -37q7 -34 88 -160q3 -3 43 -82q51 -73 184 -244q168 165 307 344q0 7 39 52q33 56 103 104q17 10 28 10 q48 -20 39 -96q4 0 4 -55h-4q4 -15 -2 -105h-4l2 -32l-4 -7q3 -9 0 -12h-2l2 -6l-4 -35q-2 -6 2 -14q-6 -6 -6 -15q-3 -8 2 -8l-6 -18l-4 -23l2 -16h-4l4 -8q-4 -4 -6 -4l4 -9l-2 -10l-13 -155h-2l2 -29q-9 -35 -10 -35q0 -4 2 -4q0 -1 -0.5 -2t-1.5 -3.5t-2 -4.5v-51h-4 l2 -9l-4 -24q0 -13 2 -17q0 -4 -4 -4l2 -16q-12 -83 -27 -381q-4 0 -4 -4q12 0 6 -141q-41 -41 -51 -41l-18 -4q-40 24 -37 57l18 418q2 2 4 2v18l7 27q-2 6 -2 10l4 4v23q3 21 6 106l6 12q-2 4 -2 11h4l-4 8l4 18q0 4 4 4q-3 3 0 60h4q-2 6 -2 41h4l-4 6l2 14q0 4 4 4 q-7 13 -4 19l21 178q-3 7 0 10h2l-2 8q0 4 2 4v7q3 31 4 54.5t1 33.5t-1 10l6 6q-7 18 -4 33h-6q-6 -18 -78 -107l-103 -118q-70 -64 -112 -119q-11 0 -31 -33q-68 -68 -104 -68q-26 0 -115 142q-56 69 -131 174q-44 91 -70 127l-10 -37l-4 -41q-3 -16 2 -16l-8 -25 l-25 -168q0 -8 -6 -14q4 -8 4 -15h-4l2 -8l-10 -45q0 -2 4 -2l-6 -14l-23 -127l-6 -15q0 -4 4 -4q-18 -64 -24 -118h-2v-7l-2 -18q0 -4 -2 -4q0 -4 2 -4q-8 -45 -41 -166l2 -8l-6 -33q-2 -8 -2 -27l-11 -55l-4 -27q0 -2 -4 -2l2 -8q-6 -14 -10 -14q0 -4 4 -4 q-12 -55 -21 -64q12 0 3 -18l2 -6q-24 -58 -27 -58q-30 -6 -37 -6h-35q-10 10 -24 41z" />
<glyph unicode="N" horiz-adv-x="933" d="M-12 47q23 107 59 215l12 86l7 14q-3 6 -3 15v4q14 14 21 47q0 4 -4 4l6 19v4q2 6 -2 14l16 23q24 143 33 163q-3 20 0 29h4l-2 8v4q0 2 4 2l-2 9v4q0 4 4 4l-2 8v2q3 8 8 8q0 2 -4 2q27 136 35 201l10 74l7 14l-2 8l6 15l-4 8q19 40 28 119q4 4 6 4q0 2 -4 2 q13 42 21 86l6 51q0 4 4 4l-2 6q3 21 9.5 31t31.5 26h8q4 0 0 -4l10 4q96 -21 93 -49q6 0 79 -98q50 -86 136 -215q50 -107 155 -242v4q0 4 -2 4l4 19v14h2v8q19 214 37 351l6 18q-4 9 -2 19l6 45q2 5 -2 16l6 6q0 9 -2 23l7 10q-3 24 2 41q30 59 57 59q57 -9 51 -51l-4 -8 q-3 -23 4 -23l-6 -18l-4 -23v-37h-4l4 -6l-8 -18q0 -4 4 -4l-8 -27l-2 -24q-3 -10 0 -17l-7 -14q0 -8 3 -14l-5 -9q0 -4 5 -4l-9 -24l-16 -197q2 -4 2 -10h-4l2 -8q0 -4 -4 -4l2 -19l-8 -55v-37h-4q4 -42 -2 -170q0 -4 -5 -4v-19l-4 -41l-2 -36h-4l4 -9q-2 -2 -6 -2l4 -8 q0 -4 -4 -4l-6 -135l-4 -8l-4 -88h-4q0 -4 4 -4l-8 -21q4 -8 4 -10h-4q2 -4 2 -10q-6 -62 -9 -68h-2q2 -4 2 -33h-4q7 -18 7 -22h-5l2 -6l-10 -13l4 -8q-15 -47 -26 -47h-82q-9 3 -12 18q11 33 18.5 106.5t5.5 96.5l6 4q0 4 -2 4l4 19v14h2v45l6 8q-3 27 0 62h5l-5 63l9 19 q21 147 -4 147q-62 121 -62 123q-46 46 -90 129l-192 299q-57 100 -66 100l-45 -198l-6 -37l-6 -45q0 -4 -4 -4l2 -6l-9 -64q-3 -8 0 -14q-24 -96 -32 -160q0 -3 -7 -10q4 -11 0 -37q0 -4 -4 -4l2 -8q-28 -152 -41 -189q0 -4 3 -4l-5 -18v-8l-24 -80l6 -4l-6 -19l-6 -51 l-11 -45q2 0 3 -1.5t0 -2.5q-5 0 -46 -133q4 -21 -4 -33l4 -8l-6 -6q4 -11 2 -13q-33 -45 -63 -45v4l-8 -4h-9q-29 23 -32 37z" />
<glyph unicode="O" horiz-adv-x="1110" d="M86 596h2l-2 6l8 49q2 10 -2 19l8 22q12 88 31 180q0 5 -4 5l6 18l4 27q0 4 4 4q2 2 -2 2q45 158 101 246l-2 6q49 106 127 163q57 63 100 66q5 0 24 8v-4q25 14 99 14q4 -4 8 -4q5 11 16 17q4 0 4 -4q14 3 17 8q2 0 10 -4q86 4 98 4h21q58 0 94 -31v4q50 -9 102 -51 q60 -34 113 -178q19 -74 19 -76l-7 -10q8 0 11 -60h-4q9 -34 6 -73h-4l4 -6l-2 -9q0 -4 -4 -4l4 -8l-2 -6q0 -4 -5 -4q6 -6 3 -41h-5l5 -6l-3 -4l-4 -9q7 0 4 -8v-10h-6v-18q0 -5 -4 -5l4 -6l-2 -12q0 -2 -4 -2l2 -8v-4q-4 -4 -6 -4l4 -7v-4q-3 -12 -6 -12l2 -18l-8 -56h-8 q-2 -9 2 -18q-39 -133 -62 -197q0 -2 2 -2q-12 -41 -16 -41q0 -4 4 -4q-59 -151 -92 -207q-61 -86 -84 -106q-130 -112 -229 -137q-36 -14 -82 -17q-15 3 -15 8q-2 0 -2 -4q-212 35 -209 56q-142 115 -163 270q-26 194 -23 297zM178 598q9 -238 35 -350q20 -56 76 -115 q52 -67 137 -67q0 -5 68 -11q82 0 219 107q81 78 104 137l8 4q-2 4 -2 10l25 49v9q12 0 47 133q15 0 61 235l11 52q0 6 -2 12q4 10 10 41l6 41q0 4 4 4l-4 29q4 8 5 27t-1 20l4 8v22q2 0 2 4q-7 0 -4 7l2 16l4 6q-7 0 -16 105q-1 0 -45 102q-9 3 -14 22q-42 51 -160 78 q-9 0 -6 8l-7 -4q-22 3 -22 7q-4 0 -4 -3l-45 3h-25q-26 -11 -33 -11l-4 4q-169 -43 -172 -55q-11 0 -80 -72q-65 -115 -124 -276l4 -8q-6 -27 -11 -27q0 -2 2 -2q-9 -41 -12 -41q0 -4 4 -4l-8 -18l-8 -60q0 -8 -6 -14q4 -8 4 -10l-8 -27q-4 -4 2 -4l-6 -19l-11 -84v-20h-4z " />
<glyph unicode="P" horiz-adv-x="925" d="M35 49q0 4 4 4l-2 8l2 15q0 2 4 2l-4 8l12 80q0 8 -2 12q0 4 4 4l-2 19v4q4 4 6 4l-4 6l19 182l6 39v23q0 4 4 4v24l4 39v19h4q0 4 -4 4l6 16q0 11 -2 15l6 22q2 2 -2 2l6 19v8q3 10 -2 10l6 18l5 31q3 8 0 17q4 8 4 14l2 2q0 10 -2 14l4 8q-2 4 -2 15q0 4 4 4l-2 6l4 29 q9 56 6 86l2 8q-3 3 0 12q2 0 2 4l-4 4q9 33 10 33q-2 4 -2 10l6 19q0 19 2 29h2l-2 6l13 80l-2 20l6 10l-2 23h4q0 4 -4 4l6 10v33l6 12l-2 8l6 15q0 6 -2 12l6 20q2 7 -2 15l6 14q0 10 -2 14q0 5 4 5l-2 18l4 31q3 19 23 22q3 32 63 35q4 11 82 14q4 0 4 -4l41 9 q5 -5 9 -5l24 5l-2 -5l8 5h19q50 0 88 -9l6 4l55 -10l6 2q159 -25 211 -82q75 -56 103 -139q7 0 10 -96h-4l4 -6l-6 -47q-18 -130 -176 -267q-72 -54 -160 -82q-85 -39 -270 -39l-7 5q-2 -1 -5 -2t-4.5 -2t-2.5 -1l2 5q-1 0 -6 -5l-94 11q0 -4 -4 -4l2 -7l-2 -14 q0 -10 -4 -10v-19l-4 -38q-5 -5 -7 -5l5 -8l-19 -159q-3 -19 6 -19l-6 -18q-11 -93 -14.5 -126.5t0.5 -41.5q0 -5 -6 -11q3 -25 0 -40q0 -3 -4 -3l2 -8l-5 -24q-3 -25 5 -25l-7 -18l-4 -31q-17 -27 -75 -41q-33 11 -27 45q-4 0 -4 4zM215 764q0 -10 121 -19q239 15 242 35 q135 50 141 90q45 36 104 154l4 29l4 14v12h3q0 87 -35 140q-7 0 -25 24q-43 55 -184 82q-61 3 -117 14l-67 -8v4l-7 -4l-6 4q-12 -4 -14 -4v4l-8 -4h-54l-18 -2v2q-13 -3 -16 -20q-3 -6 2 -6l-6 -19l-5 -33q-2 -6 2 -14q-6 -6 -6 -14q-2 -7 2 -15q-3 -8 -6 -8q0 -41 -2 -51 l-6 -43q0 -4 -4 -4l2 -8v-6q-5 -5 -6 -5l4 -6l-4 -30q-3 -6 0 -15q-4 -8 -4 -10q-3 -10 0 -16l-8 -41l-2 -11q0 -10 2 -14l-5 -6v-14q0 -4 -2 -4q0 -30 -10 -115z" />
<glyph unicode="Q" horiz-adv-x="1173" d="M84 573q5 5 6 5l2 67h2v6l10 109l25 78h-4q15 47 20 47l-4 8q16 26 66 143l-4 8q104 224 149 244q79 94 164 123q3 9 72 27q2 0 2 -4l8 4h27q10 0 14 2q4 -2 10 -2q3 10 60 16h4l20 -4l8 4q8 -4 11 -4l6 8l96 -20q19 -3 84 -62q88 -82 123 -162q40 -84 55 -202 q21 -175 6 -283l-6 -41v-14q0 -2 -2 -2v-21l-6 -41q-27 -184 -47 -184v-18q-4 0 -19 -37l2 -6q-100 -202 -172 -256l-16 -17l-2 -6q82 -146 100 -164q0 -3 23 -47q4 -8 2 -10h-4q9 -25 6 -35l-27 -29q-15 -12 -22 -12v4q-2 -1 -5 -2l-4.5 -1.5t-2.5 -0.5q-40 22 -82 105 l-66 124q-10 5 -14 5q-6 -9 -142 -56l-6 4q-13 -8 -43 -8h-49q-84 0 -96 12l-8 -4q-128 51 -195 121q-7 0 -65 94q-49 108 -52 189q-6 59 -12 184q-3 0 -6 14zM178 571q5 -45 8 -174q10 0 13 -86q58 -175 151 -221q90 -37 156 -37q6 2 12 2l12 -2q180 35 183 60q8 0 8 4 q-35 96 -111 190q-33 54 -30 64v4q29 45 63 45h12q23 -20 60 -86q68 -74 90 -148q55 49 106 148q65 121 74 192q4 4 -2 4l6 19l4 33q0 4 4 4l-2 8q6 14 11 14l-5 6l5 23q0 4 4 4q-5 18 -2 41h4l-4 6l10 72v24h4q3 176 -18 275q-54 162 -109 215q-83 65 -127 65q0 4 -12 4 h-92q-167 -28 -220 -83q-92 -95 -135 -205l-90 -217l2 -9q-26 -77 -35 -114l4 -6q-6 -9 -6 -13q3 -18 -6 -125z" />
<glyph unicode="R" horiz-adv-x="827" d="M12 47l4 27q0 12 -2 12l6 18l7 54v18h2v8l8 58q0 4 2 4v10q0 4 2 4v19l6 40q0 5 2 5q4 4 0 4q9 43 12 43q0 4 -4 4l6 18q0 4 -4 4l9 19l12 88q3 12 0 33q3 3 6 18l-2 6l4 8q0 2 -4 2l8 27l2 8q0 11 -2 15l6 12l-2 16l6 19q0 4 -4 4l8 24l15 111q3 15 0 31q5 9 8 26l8 58 v24h4l-4 6q21 194 37 305l6 15q0 4 -4 4q0 1 3 9.5t5 12.5q0 11 -4 11q15 98 51 98q12 12 131 18l7 -2q4 0 4 2q192 -18 311 -61q86 -41 113 -162l8 -88l-4 -14l2 -6q-68 -188 -160 -265q-111 -91 -268 -129l-8 5q-44 -13 -56 -13v4q-4 -4 -16 -4l108 -123 q144 -211 187 -305q120 -188 117 -209l-2 -16q-15 -30 -39 -39h-11q-4 0 -4 4q-15 -6 -22 -6q-11 4 -109 174q-135 238 -207 328q-73 88 -123 135v4h-8l-18 -125l2 -18h-4l4 -9q-2 -2 -6 -2l4 -8l-6 -37q0 -4 -4 -4l4 -6l-4 -27l-11 -43h4q-9 -24 -10 -24q0 -4 2 -4l-6 -27 v-4q-3 -10 0 -10l-4 -19l-10 -79q-2 -6 -2 -17q-5 -16 -5.5 -33.5t1.5 -27t4 -9.5l-6 -10v-37q-21 -69 -62 -69q-15 3 -18 18q-12 0 -14 4t3 11q-6 0 -6.5 3.5t2 8.5t2.5 6q-9 0 -6 6zM203 780q6 0 10 -2q152 0 264 56q119 47 185 159q0 4 -5 4q33 46 45 88q15 105 -47 164 q-123 60 -209 60q-52 14 -106 14l-8 -2q-4 2 -15 2h-14l-27 -2q0 2 -2 2q-9 -17 -18 -78v-8q-4 -4 -6 -4l4 -8l-2 -6q0 -5 -4 -5l2 -8v-4q0 -4 -4 -4l2 -6l-10 -78l2 -20q0 -4 -4 -4v-56l-7 -8l-2 -34l-1.5 -25.5t-0.5 -10.5q0 -4 -2 -4l-2 -34z" />
<glyph unicode="S" horiz-adv-x="897" d="M45 305l2 19l2 36q29 29 45 29q57 -9 51 -57h-2q38 -182 121 -226q35 -15 174 -36q112 0 187 57q89 65 104 162q22 161 -53 260q-8 30 -92 90q-10 14 -121 84q-136 124 -164 209q-42 56 -51 180q4 0 4 4q-9 0 -6 6l4 29q0 10 -2 16q4 11 14 11l-8 10q15 95 119 168 q18 30 186 100q83 14 111 14v-4l6 4q106 -8 145 -32q95 -59 129 -166v-66l-6 -14q4 0 4 -4q-26 -33 -47 -33q-47 0 -41 51q-12 75 -47 90q-28 49 -96 70q-31 0 -70 2q-109 0 -258 -119q-35 -50 -49 -100q1 -11 1.5 -25.5t1 -24.5t1.5 -16h-2q12 -71 82 -178q52 -66 125 -114 q7 -5 23 -16.5t31.5 -22.5t31.5 -21l100 -90q68 -89 92 -180q9 -106 4 -148l-4 -22q0 -11 2 -15q-41 -122 -90 -165q-104 -97 -227 -123q-13 0 -49 -8v4l-8 -4h-25q-117 9 -137 22l-8 -4q-32 9 -86 33l-4 -4q-56 41 -56 47q-66 75 -69 139q-7 0 -25 92z" />
<glyph unicode="T" horiz-adv-x="1060" d="M193 1389q21 21 53 24q8 0 12 -4q2 0 6 4l17 -4h30q7 0 19 4l4 -4q2 0 14 4l21 -4l20 4l-2 -4q2 0 6 4q1 0 5.5 -0.5t12.5 -1.5t17.5 -2t24.5 -2.5t30 -3.5q8 4 11 4l18 -4q2 1 5 2l4.5 1.5t2.5 0.5v-4l8 4q43 2 84 2q82 -6 109 -6v-4q4 0 4 4l27 -4h14q7 0 31 8h71l23 2 l39 -6l6 4q6 -1 11.5 -2t8 -1.5t3.5 -0.5l73 6q50 0 47 -43q2 0 2 -2v-4q-3 -8 -12 -8l4 -6l-10 -17q4 0 4 -4q-21 -3 -33 -12q-4 0 -4 4l-6 -4h-29q-11 0 -55 -23q-2 -1 -5 -2l-4.5 -1.5t-2.5 -0.5q-84 8 -135 8l2 2l-11 -2l-6 2q-4 0 -6 -2q-34 3 -43 6q-4 0 -4 -4l-18 4 h-19q0 -4 -6 -10q10 -61 8 -73l-12 -29q8 -8 2 -70h-4q7 -10 4 -39q0 -4 -4 -4l2 -8q0 -2 -4 -2l2 -8q0 -9 -6 -15q6 -45 -8 -59q0 -115 -19 -162q0 -4 4 -4q-20 -54 -37 -178l-8 -51q0 -11 2 -15l-6 -14l-4 -37q0 -4 -4 -4l2 -6l-2 -12l-6 -21q3 -9 2 -10l-6 -20 q4 -9 2 -11h-4l4 -8l-6 -12q-5 -57 -5 -60l-6 -47q-4 -4 -6 -4l4 -8q-6 -6 -6 -10l4 -6q-6 -9 -6 -13l2 -16h-4l2 -8v-8q0 -2 -4 -2l2 -9l-6 -37v-43h-4l2 -8q-8 -45 -4 -94q-6 -6 -6 -14h4q-3 -32 -74 -47q3 8 -4 8q-3 -12 -10 -12h-4q-11 0 -11 83h4l-4 9l15 100l-2 18h4 l-2 9l4 24q0 11 -2 15l4 8q0 31 4 51q0 2 4 2q0 4 -4 4l10 37q4 28 4 61l8 27l-4 6l6 8q-4 8 -2 15q0 4 5 4l-5 8l7 39q3 34 12 61q-2 15 4 52h4l-4 8l2 6q0 4 4 4l-4 6l12 84q0 4 4 4l-2 8v2q0 5 4 5q4 4 -2 4q3 20 11 20l-2 8q0 2 6 23q0 4 -4 4q14 34 20 80q-4 0 -4 4h4 q-2 33 27 352q-6 66 -13 66h-28q-9 0 -17 -4q-4 0 -4 4l-22 -4q-24 0 -152 8h-12q-4 0 -4 4l-8 -4q-4 0 -4 4l-7 -4h-43q-6 0 -14 4q-8 -4 -14 -4q-31 14 -38 21.5t1 21.5l-10 -4q-4 16 -4 37z" />
<glyph unicode="U" horiz-adv-x="1103" d="M72 451h4l-2 8l4 28q3 21 -4 21q0 6 2 6q1 15 8 64l2 24v23q6 9 6 12q-4 8 -4 10h4q1 2 0.5 3t-2.5 1q11 36 6 47q6 9 6 17q3 27 0 33q7 7 7 14l4 22v27q6 0 6 6v12h2q0 5 -2 5l6 24l6 45v15l12 51q-2 6 -2 12l9 2l-5 21q10 17 13 32q-4 9 -2 11q3 0 12 12l-6 14 q12 20 20 47l-4 8q0 5 4 5q2 2 -2 10q14 65 15 71h4q-4 9 -2 11q15 69 18 69q1 2 0.5 3t-2.5 1q6 49 66 74h4q34 0 43 -41l-4 -6v-18q-13 -29 -13 -33t4 -4q-15 -68 -20 -68l2 -8q-13 -63 -19 -78q3 -10 7 -10q-9 -43 -17 -43q-1 -1 -0.5 -2.5t2.5 -1.5l-6 -19l-20 -114h-4 l4 -8q0 -5 -4 -5l2 -6q0 -4 -4 -4l2 -8l-5 -10q0 -25 -2 -33l-2 -23q0 -4 -4 -4l2 -8q0 -4 -4 -4q0 -2 4 -2q-1 -2 -2.5 -5.5t-2 -5t-1 -4t0 -5.5t1.5 -7q-8 -19 -8 -32v-19h-4l4 -8q0 -2 -4 -2v-27q0 -2 -8 -30q-4 -4 2 -4q0 -3 -4 -11q-3 -60 -2 -69l-6 -9q-7 -86 -7 -159 h-2l6 -47l-4 -9q6 -86 31 -141q73 -113 156 -113q-1 -1 1.5 -2.5t8 -2.5t13.5 -1.5t20 -1.5q4 0 4 4l18 -4h37q101 9 146 37q17 0 129 92q13 13 38 54q-3 0 6 13t21 33.5t14 32.5l-4 9q6 14 11 14l-2 8q21 24 36 107q8 0 17 41q0 4 -2 4q24 78 37 129q-2 6 -2 12h4l-4 25 l4 8q-4 8 -2 14h4q0 4 -4 4q10 27 14 33l-8 4q14 38 14 51l-2 8q0 5 4 5l-2 18l12 84q2 10 2 41l7 10l-7 17l5 10v28l6 13l4 133l6 6q-4 11 -2 16q0 4 4 4q-7 58 2 148q13 0 25 27q21 6 26 6q0 -4 4 -4q3 12 6 12q22 -12 41 -35v-2l-2 -8q7 0 4 -6v-4q0 -5 -4 -5 q-3 -65 4 -65l-2 -8l-4 -27q-3 -8 0 -14l-4 -8q3 -6 0 -15q-2 0 -2 -4q6 0 6 -28l-6 -21q-9 -139 -6 -166h-4q2 -4 2 -10q-6 -6 -6 -10l6 -4l-4 -9v-10l-2 -22q-1 -2 -1.5 -5t-1 -5t-1.5 -3l2 -6q-4 -12 -4 -14l6 -4q-18 -75 -27 -78q8 -3 8 -8l-6 -37l-4 -47l-14 -60l2 -8 l-27 -74q0 -4 4 -4q-25 -88 -49 -151q2 -4 2 -10q-3 -38 -59 -138q-6 -46 -131 -159q-149 -101 -240 -101q-2 0 -10 -4q-4 0 -4 4q-25 -2 -55 -10l-9 4l-12 -4q-2 0 -2 4l-18 -4l-19 4l-12 -4v4q-2 0 -2 -4q-100 0 -201 78q-91 94 -100 293q3 35 -2 80z" />
<glyph unicode="V" horiz-adv-x="1107" d="M182 1319q0 4 4 4l-2 6q5 29 15.5 42t36.5 13q0 5 12 5q9 -3 6 -9l8 4h4q22 0 31 -61q0 -4 -4 -4q9 -15 18 -86q34 -145 56 -270q13 -21 51 -328h-4q25 -119 28 -242q2 0 2 -4h-2q9 -107 23 -176l-2 -8h8q51 111 102 203l-2 8q86 154 199 385q79 137 82 166q8 0 20 37 l117 239q27 64 35 64l-2 8q14 14 14 22q-2 4 -2 11q9 18 53 36h13q8 0 12 -4l12 4l11 -14q-23 -83 -52 -119l2 -8l-36 -61l2 -8q-74 -144 -166 -345q-13 -17 -66 -137q-6 0 -71 -121q0 -7 -89 -174q5 0 5 -4q-13 -13 -62 -114q-94 -209 -131 -259q-35 -30 -41 -30 q-58 0 -55 100q-34 205 -37 375l-53 414l-31 125h4q-15 53 -18 86l-27 79l6 9q-12 25 -29 122q-2 0 -8 19z" />
<glyph unicode="W" horiz-adv-x="1314" d="M186 1352q6 14 17 14h10q3 21 31 43l16 -2q4 2 10 2q15 -3 15 -10q-2 0 -6 -4q6 -9 18 -76l-4 -8q7 -13 4 -19h-4q0 -13 8 -84h-4q4 -19 2 -28h-2q5 -21 8 -123l-2 -8q11 -55 14 -119q10 -46 13 -129q4 0 4 -2q-4 -4 -6 -4q14 -98 20 -285h-4q0 -44 10 -86l-4 -8 q2 -4 2 -17h-4q10 -127 2 -166h4q45 117 88 207q24 40 37 84h4l-2 8q18 43 27 43v5l-4 10q8 4 10 4v4q2 6 -2 14q6 6 6 15l-2 8q5 0 10 8q0 4 -4 4q41 87 56 148q32 48 45 112q3 0 18 27h14l-4 6l2 10h6l-2 -10h5q3 10 10 10q2 0 2 -4q28 3 31 12q21 0 30 -96q6 0 6 -28 q-4 0 -4 -5q7 -4 31 -104l55 -186q2 -18 2 -31h-4q30 -114 43 -195h4q41 142 47 142h3q4 4 0 4q3 22 10 33q-4 8 0 24q0 4 4 4l-4 8q15 31 20 33l-4 8q12 21 12 29q-2 4 -2 10q15 27 41 117h2q0 2 -2 2q14 52 25 74l-4 8q10 29 14 29q-2 6 -2 12l6 12l-2 8q15 37 19 37 q0 2 -2 2q12 35 12 41q-4 9 -2 11q10 3 10 8q2 12 2 22q8 11 8 21q1 2 0.5 3t-2.5 1l13 49v2h-3v-6h-6v8q3 8 9 8q-4 -4 0 -4l2 8l-5 11q2 0 7.5 12t7.5 24h4l4 23q0 2 -4 2q15 53 29 78v4h-5v-8h-4q0 7 11 22v19q7 0 10 10v14q6 41 29 64v4q-7 0 -7 6l9 4q6 0 2 -4 q35 14 47 14q3 -8 8 -8q0 4 4 4q3 -7 0 -10h8l2 6h8q-3 -6 7 -16q-11 -4 -11 -8q0 -5 4 -5q-6 -6 -6 -10l4 -8q-6 -6 -6 -10l2 -6l-22 -54l2 -6v-4q-21 -90 -29 -98l4 -6q-8 0 -26 -84h-4q0 -4 4 -4q-11 -53 -47 -158q0 -2 4 -2q-6 -25 -24 -87.5t-31.5 -110.5t-12.5 -48 q-9 -38 -14 -43q-4 -4 2 -4q-12 -43 -17 -43q0 -2 4 -2l-51 -158q-3 -17 -8 -24q0 -4 2 -4q-6 -27 -10 -27q0 -2 4 -2q-21 -98 -25 -98q0 -4 2 -4q-16 -68 -34 -95q0 -4 4 -4l-15 -45l2 -8q-12 -31 -24 -31q-3 -31 -49 -43q0 -8 -11 -8q-39 9 -36 39q-10 0 -19 74h4 q-21 204 -59 317q-17 100 -70 291h-4q-9 -34 -22 -57q2 -6 2 -13q-9 -5 -35 -75v-9q-34 -70 -64 -168q-9 0 -55 -112q-6 0 -18 -53l-1 -4q-1 -3 -5 -11l-8 -16t-10.5 -22.5t-12.5 -26.5q-32 -50 -78 -140q-12 -15 -45 -24h-12l-9 6h-2l-10 -2q2 2 -12 16q4 4 6 4 q-7 68 -8 91h4q-2 61 -8 100l4 6q-6 27 -6 29l6 8l-6 211l2 6q-6 100 -4 106q4 8 4 11q-6 0 -6 49q4 0 4 4q-11 0 -11 82q-7 26 -10 78h4q-14 77 -14 123h2q-15 70 -18 211h2l-7 67h5q-5 10 -2 37h4q-6 30 -11 115z" />
<glyph unicode="X" horiz-adv-x="1081" d="M-12 49q0 4 4 4l-2 6v4q40 45 168 234q63 69 67 88q113 140 250 330q-50 88 -194 393q-83 179 -80 197h4l-2 6l4 8q-10 0 -10 14l6 8q-4 8 -4 11q28 22 28 28h29l10 4v-6l8 2q9 -20 17 -20q21 0 80 -146q62 -135 110 -235q-1 -4 27 -59q21 -57 47 -97h4q151 210 219 287 q15 12 76 100q5 0 94 95q55 79 101 88h18q47 -33 51 -52h-4l2 -8v-4q-43 -29 -106 -115q-20 -14 -158 -170q4 0 4 -4q-13 -13 -248 -321q108 -164 289 -582q4 0 45 -80l-6 -14q6 -3 6 -8l-6 -4q-12 4 -16 4l6 -12v-3q-5 -8 -54 -30q-50 0 -135 223q-10 0 -86 180 q-17 17 -84 166q-13 10 -28 53h-9q-18 -18 -59 -73q-30 -35 -102 -131l-203 -267q-61 -103 -113 -141l-6 4q-30 -6 -33 -6q-13 0 -16 33h2z" />
<glyph unicode="Y" horiz-adv-x="1107" d="M195 1399q9 26 16 26h4q4 0 4 -4q8 4 10 4l15 -4q2 1 5 2l4.5 1.5t2.5 0.5l8 -12l6 4q27 -27 113 -207q29 -41 100 -196q35 -61 107 -221q4 0 63 77q116 140 228 304q29 23 149 202q9 0 49 64q16 22 23 22h4q4 0 4 -4l6 4h17q23 -29 20 -55q0 -8 -41 -64q-2 -8 -61 -81 q-117 -170 -238 -318q-47 -74 -160 -205q-30 -48 -35 -77q-4 -32 -8 -44l2 -8l-8 -24q0 -4 4 -4l-6 -21l-4 -29l-4 -4l2 -6l-2 -14q0 -4 -2 -4q-4 -4 0 -4l-4 -19l-10 -73q0 -2 -1.5 -3.5t-3.5 -1.5l2 -8l-20 -151v-15q-5 -16 -6 -24v-27h-2v-8l-8 -96h-4l2 -6 q-9 -64 -52 -64q0 -4 -4 -4q-38 0 -32 70h4l-2 8v4l6 14q-4 8 -2 15v4q4 4 6 4q-1 2 -2 4.5t-1.5 3.5t-0.5 2q4 51 8.5 98t7.5 75.5t4 35.5l17 113q0 4 4 4q-2 6 -2 12l10 41l-4 6l8 23v4q2 6 -2 14l6 6l-2 25v2q4 4 6 4l-4 6q0 4 4 4l-2 8l6 41q6 31 10 41 q-103 220 -172 340q0 15 -36 88l-99 174q-39 45 -30 105z" />
<glyph unicode="Z" horiz-adv-x="1089" d="M8 66q20 33 64 84q15 30 82 110q4 15 118 150q53 68 174 198q76 87 121 150q22 15 90 110q42 42 209 252q97 105 105 129q44 47 59 68q-4 0 -4 2l-8 -2h-47q-13 0 -13 -4l-16 4h-108q-5 0 -5 2l-8 -2q-16 2 -28 2q-9 0 -9 -2l-36 2h-21q-75 0 -106 8q-50 -4 -68 -4h-23 l-26 -4v4q-10 -3 -41 -6v2l-6 -2q-4 0 -4 2q-4 0 -4 -2l-25 2h-27q-10 0 -14 -2q-69 0 -78 61v4q6 37 78 52v-4l8 4q32 -7 45 -7q64 3 78 3q6 -3 10 -3q9 3 13 3q2 0 2 -3l67 7v-4q4 0 4 4q3 0 11 -4q4 0 12.5 0.5t23.5 1.5t29 2q7 0 82 -7q1 0 16 3l17 -3l8 3q22 -3 20 -7 l9 4h20q21 0 51 3q14 -7 27 -7h133q6 0 18 4q4 -4 9 -4l10 4q20 -3 39 -22q19 -6 16 -19q-4 -4 -12 -36q4 -16 4 -23l-8 -4q0 -4 4 -4q-3 -22 -82 -111q-3 -15 -115 -133q-5 -11 -78 -92q0 -9 -57 -78q-53 -77 -108 -129q0 -9 -187 -233q-24 -19 -96 -115q-43 -44 -102 -115 q4 0 4 -4q-24 -17 -58 -65q-30 -23 -73 -105q-12 0 -23 -33q4 -4 8 -4q12 4 13 4l-2 -4q2 0 6 4q5 -2 6 -4q1 0 6.5 0.5t18 1.5t26.5 2q24 -1 47.5 -2t36 -1.5t16.5 -0.5l11 4l4 -4l10 4l6 -4l8 4q13 -3 13 -8l47 8l6 -4l4 4q36 -8 80 -8l33 4v-4l8 4h14q8 -3 8 -8l6 4 q83 3 88 8q13 -3 13 -8l8 4h25q4 0 4 -4l8 4h88l47 4l-2 -4q2 0 6 4l23 -4h26q34 -21 37 -36v-5q-15 -55 -39 -55q0 -2 -4 -10l-16 4h-8l-21 -4l2 4l-8 -4q-6 0 -2 4l-10 -4l-10 2l-7.5 1.5t-3.5 0.5q-4 0 -8 -4l-25 4h-45q-4 0 -16 -4l-4 4l-23 -4l-4 4l-12 -4l-6 4 q-12 -4 -19 -4h-2q-6 0 -2 4l-10 -4h-2q-6 0 -2 4l-10 -4h-60l-18 -4v4l-6 -4h-31q-6 0 -14 -4q-13 3 -13 8q-8 -4 -10 -4q-17 0 -143 4l-8 -4l-9 4q-6 0 -6 -4l-139 8q-29 -6 -29 -12q-8 4 -10 4q-8 -4 -10 -4v4q-20 -6 -23 -12q-11 8 -37 8q-2 0 -14 -4q-4 4 -12 4 q-1 0 -13 -4q-6 0 -32 26q-11 0 -23 56z" />
<glyph unicode="[" horiz-adv-x="628" d="M12 -2q6 4 17 29q-3 0 -6 10q9 4 9 7q0 1 -3 1l6 27l12 84l-2 18q12 0 6 41l6 6l-4 8q0 4 6 13l15 170q6 6 6 14q-2 4 -2 10l6 8q-4 0 -4 5l2 14l4 6h-4l6 12q-2 4 -2 15l10 67l-2 19q5 0 8 24l-2 23q6 9 6 10l3 39l6 24q1 3 -2 41l6 21q0 48 10 70q-4 0 -4 24l6 12l-4 7 l6 8q-4 8 -2 14v4l4 8h-4q4 31 8 93q4 0 4 4q-4 8 -2 14l11 70l6 26q-4 0 0 29l6 8h-4l6 19l20 147v27q4 0 4 4h-4l7 10v22l12 89q20 26 53 26h49l21 4q-1 -1 -0.5 -2.5t2.5 -1.5q4 4 6 4h16l6 -4q4 4 7 4h65l6 -4q4 4 6 4h29l6 -4l2 4q101 -8 146 -8q39 0 51 -37l-6 -8 q16 0 16.5 -10.5t-4.5 -22.5l-72 -22h-10l-16 4q-4 -4 -6 -4l-7 4q-4 0 -16 -4q-84 6 -102 12q0 -5 -17 -8q-36 4 -41 4h-41q-26 0 -57 -8l-6 4v-19l-4 -32v-27q-4 0 -4 -2q-2 -7 2 -16l-6 -15l2 -18l-7 -8q2 0 3.5 -1.5t1.5 -3.5l-7 -14l4 -6l-6 -12h4l-12 -56q-2 -6 2 -14 l-6 -14l-4 -37q-2 -15 -12 -53q2 -6 2 -37q-4 0 -4 -4l4 -6l-6 -9q0 -2 4 -18l-4 -19l-25 -274l-6 -10l4 -8l-6 -11v-26q0 -9 -6 -15q4 -8 2 -14v-8l-6 -6q4 0 4 -4l-4 -27q-3 -18 -15 -18l-4 -25h4l2 14h8l-6 -53v-18q-4 0 -4 -11l-2 -12h-12l-2 -6h12v-31q-4 -2 -16 -2v-8 l8 4h4q-2 -6 2 -14l-6 -8q3 -21 0 -33l-4 -35l-6 -6q4 0 4 -4l-2 -23h-8l-2 -8h8v-2h-8l-7 -37l-6 -26q16 -3 13 -23q0 -1 -1 -2t-2.5 -3.5t-3.5 -4.5q4 0 4 -4l-2 -11h-8l2 11h-8q-3 -19 10 -19v-4h-8l-2 -14q4 0 4 4q6 0 6 -8q0 -6 -8 -6v6h-4v-4q4 -11 10 -11 q0 -8 -6 -14l4 -8l-6 -6q4 -12 4 -13l-8 -18q2 0 10 -4q2 0 10 4l9 -4l8 4q5 0 8 -6l25 2q5 0 8 -6l24 6l23 -2h14l19 2q0 -2 4 -2q31 2 49 2l18 -2l6 2q11 0 17 -2q37 3 47 6l4 -6q6 0 6 6q19 0 19 -6q38 -7 30 -31l7 -4q-20 -45 -127 -63l-9 4q-28 -4 -32 -4h-35 q-9 0 -15 -3q-6 3 -14 3h-18q-20 0 -64 -3q0 3 -4 3v-3q-18 0 -55 3q-6 0 -6 -7q-7 0 -31 7v-3q-27 3 -29 3q-17 0 -41 61zM135 182q2 -6 2 -18h4l2 18h-8zM145 201l5 24h8q0 -4 -4 -4q-2 -2 2 -2l-6 -18h-5zM174 489h4l2 15h-4z" />
<glyph unicode="\" horiz-adv-x="569" d="M186 1354q6 34 41 55h4l7 -2q0 2 4 2h26q0 -9 29 -25l20 -110q0 -68 9 -68q12 -213 24 -266l39 -242l-4 -6q7 0 10 -49l-4 -6q4 0 10 -14q0 -54 7 -54q0 -4 -5 -4q0 -5 15 -88q-4 0 -4 -4q17 -54 61 -377q-4 0 -4 -4q5 0 14 -33q-6 -35 -53 -59h-4l-6 4v-4q-34 0 -43 43 l6 20q-6 0 -12 70l-133 873q-9 113 -21 178q-36 157 -33 170z" />
<glyph unicode="]" horiz-adv-x="643" d="M0 0l6 4l-2 6q3 19 41 25q0 6 18 6q0 -6 9 -6l2 6q9 -3 49 -6q4 2 14 2l8 -2l19 2q16 0 47 -2q4 0 4 2l18 -2h15l22 2l27 -6q0 6 6 6l27 -2q3 6 8 6l6 -4l8 4q8 -4 10 -4q12 4 13 4v18q0 1 4 13l-2 6l4 8q-2 4 -2 14q5 0 12 11v4h-2v-6q-8 0 -8 6q3 8 10 8q0 -4 2 -4 l2 14h-6v4q9 0 12 19h-6l-2 -11h-8l2 11q0 4 4 4q-2 6 -2 10q3 20 19 23l-2 26l6 37h-6v2h6l2 8h-6l2 23q0 4 4 4l-2 6l4 35l8 33l-2 8l6 14h2l8 -4v8q-10 0 -14 2l8 21v10h10l2 6h-10l2 12q0 11 -4 11l8 18l6 53h7l-2 -14h4l4 25q-11 0 -8 18l4 27q0 4 2 4v14l4 14v15l6 26 q-3 6 1 14.5t1 14.5l53 274l-2 19q8 11 8 18v9l2 6q0 4 -2 4q6 26 13 37q0 25 4 53l4 37q3 8 0 14q2 8 4.5 25t4 30.5t1.5 14.5h2q-2 6 2 18q-3 6 0 14q0 5 2 5v8l4 18v15l4 16q0 2 -2 2l7 27l4 32l8 19l-8 -4q-31 8 -54 8h-41q-9 0 -41 -4q-18 3 -18 8q-18 -6 -106 -12 q-4 4 -13 4l-10 -4q-4 0 0 4l-20 -4h-13l-63 22l-2 8q1 11 2 14t5.5 7t14.5 4l-2 8q21 37 60 37q45 0 149 8l-2 -4l10 4h29q6 0 2 -4l10 4h68q4 0 0 -4l10 4h18q2 0 3 -1.5t0 -2.5q2 0 6 4l14 -4h49q32 0 49 -26l-12 -89l-8 -22q4 -8 2 -10h-4q0 -4 4 -4l-8 -27l-21 -147 l2 -19h-4l2 -8q-4 -29 -8 -29l2 -26l-10 -70l-6 -14q0 -4 4 -4q-15 -46 -21 -93h-4l4 -8v-4l-6 -14l2 -8q-5 -9 -2 -19q-9 -24 -12 -24l4 -9q-1 -5 -5.5 -26t-8.5 -35l2 -21l-15 -41l2 -24l-10 -39q0 -4 2 -10l-6 -23q-3 -24 0 -24l-6 -19l-10 -67q0 -9 -6 -15q3 -11 2 -12 h-5l5 -6l-2 -14q0 -5 -5 -5l2 -8q0 -4 -6 -10q0 -10 2 -14l-28 -170v-13l-2 -8v-6l-6 -33q-3 -8 0 -8l-5 -18l-12 -84v-27l-4 -4l6 -4q-7 -10 -8 -10q3 -24 6 -29q-40 -61 -57 -61q-2 0 -29 -3v3q-25 -7 -29 -7q0 7 -8 7q-38 -3 -55 -3v3q-4 0 -4 -3q-43 3 -62 3h-20 q-8 0 -14 -3q-6 3 -15 3h-32q-9 0 -33 4l-8 -4q-106 18 -109 63zM395 219q4 0 6 2q-4 0 -4 4h9l-5 -24h-4zM397 164h2q0 8 7 18h-7zM449 489h4l2 15h-4z" />
<glyph unicode="^" horiz-adv-x="559" d="M176 1276q40 54 98 174q12 0 39 59q27 15 45 15h4q5 0 5 -2l8 2q58 -40 119 -144q43 -70 41 -77q-3 -10 6 -19l-4 -27q-14 -17 -37 -28q-4 0 -4 4l-9 -4h-6q-4 0 -4 4l-8 -4q-2 0 -2 4l-8 -4q-11 0 -8 18l-9 -4q-35 87 -90 148q-12 -12 -67 -134q-23 -33 -43 -47l-6 2 l-15 -6q-31 4 -40.5 21t-4.5 49z" />
<glyph unicode="_" horiz-adv-x="1067" d="M-6 -47q3 10 86 10h33q6 0 14 4q4 0 4 -4l14 4q64 0 166 13v-5q2 0 2 5l154 6l-2 -4l98 12v-4l8 4h29q4 0 4 -4l8 4h4q5 0 5 -4l6 4l8 -4q2 0 2 4l20 -4h19q33 0 61 -4q70 6 133 8v-4q16 8 50 8q8 -3 8 -8q-6 -23 -25 -23l-12 8l-531 -16v4q-53 -9 -344 -24h-4 q-18 0 -18 10v4z" />
<glyph unicode="`" horiz-adv-x="403" d="M197 1417v4q3 29 51 64q2 2 6 2h27q77 -93 202 -207q14 -30 11 -33q-3 -40 -58 -49q0 4 -4 4q0 -8 -8 -8h-6q-24 0 -33 27q-6 0 -86 77q-76 61 -102 119z" />
<glyph unicode="a" horiz-adv-x="1046" d="M2 18q7 70 49 119l-2 6l39 64l-4 8q78 153 166 344q13 13 67 137q5 0 70 121q3 7 88 174q-4 0 -4 4q12 12 59 115q132 285 162 285q3 0 15 4q58 0 55 -101q32 -192 35 -372l53 -414l33 -127h-4q14 -60 16 -86l27 -82l-4 -6q9 -18 24 -123q4 0 10 -18q0 -2 -4 -2l4 -9 l-4 -22l-4 -6q6 0 2 -4q-21 -24 -57 -27q-8 0 -8 6l-9 -2h-2q-34 21 -28 59q-4 0 -4 5q0 2 4 2q-7 15 -51 245q-37 155 -48 250h-41q-10 0 -10 -4l-18 4h-45q-7 0 -15 -4q-8 4 -14 4h-31q-10 0 -18 -4l-23 4h-39q-8 0 -16 -4q-14 3 -14 8l-6 -4q-4 0 -4 4l-9 -4q-4 0 -4 4 l-6 -4h-14q-4 0 -4 4l-9 -4q-44 8 -51 8q0 -11 -61 -124l-125 -271q-48 -91 -55 -96l4 -8q-14 -14 -17 -23q8 -16 -38 -40q-2 -2 -8 -4l-5 -3h-10q-10 0 -14 2q-6 -2 -13 -2zM397 655h4q5 0 5 4l24 -4q15 0 23 4q32 -4 41 -4h104l16 4v-4l9 4h49q4 0 4 3q37 -3 37 -7 q8 4 14 4q0 34 -8 97h4q-25 120 -31 239q-4 0 -4 4h4q-10 118 -20 179v6h-8q-46 -101 -103 -203l2 -8z" />
<glyph unicode="b" horiz-adv-x="911" d="M2 70l2 43h4l-2 6l12 43q4 4 -2 4q8 44 15 59q-3 7 0 17h2l-2 6l16 94q-2 4 -2 8q5 0 14 19l-4 8q6 6 6 14q0 2 -4 2q9 41 13 41l-2 6l4 19l10 67q4 4 0 4l4 19l10 90q2 4 2 8v8q0 4 2 4l2 50l11 32l-2 29l6 23l4 18l-2 20q6 11 2 11l6 14l-2 18l6 19v31l6 8v59l8 4 l-2 19q8 54 19 86q0 18 2 24l6 27q-2 2 -2 8l4 4v29l6 27l2 57q4 0 4 2q-9 0 -6 8l2 17l8 22q-4 9 -2 18v3q0 6 29 16q3 24 158 45v-2q4 2 10 2q44 0 145 -14l7 4q113 -18 196 -86l45 -68q-3 -28 10 -33l-6 -8q11 -11 11 -51h-5l2 -8l-2 -15q0 -8 -6 -14l4 -6 q-18 -73 -104 -162q-4 0 -37 -33l-41 -28q89 -15 172 -121q61 -85 64 -205q-3 -18 4 -29l-6 -18l-2 -33q-27 -187 -111 -280q-78 -122 -227 -189q-6 0 -68 -16q-8 4 -10 4q-24 -8 -33 -8v4q-4 0 -4 -4q-62 4 -70 4h-4q-8 0 -16 -4l-23 4l-57 -4q-2 0 -2 4l-27 -4h-141 q-48 0 -39 80zM109 96q4 -9 2 -16q4 0 4 4q19 -8 41 -8l18 4l6 -4l8 4q8 -2 11 -3.5t2 -4.5q18 6 37 8v-4l8 4q4 0 24 -4l62 8q28 -4 45 -4q124 18 170 67q103 86 106 115q61 67 70 125q-4 8 -4 10q5 0 14 19q0 4 -4 4l6 16l19 94q-9 0 -9 9l7 6q-1 2 -2 4.5t-1.5 3.5 t-0.5 2h4q-9 105 -64 176q-49 49 -113 64q-4 0 -4 -2q-48 10 -59 10l-18 -4v4q-2 0 -2 -4l-15 4q-47 -8 -71 -8l2 4q-47 -12 -127 -25h-11l-6 2q0 -7 -55 -16l-14 -101l-2 -36h-3v-11l-4 -16l-2 -57l-10 -37v-10h-2q-3 -33 2 -33l-8 -19l-4 -28q0 -2 -2 -2q0 -4 2 -4l-4 -19 l-4 -33q-4 -4 -7 -4l5 -6q-2 -7 -6 -22t-5 -17l4 -6q-3 -8 -6 -8l-2 -43l-4 -29l-12 -72q4 -4 4 -8q-8 -8 -8 -12q3 -11 2 -12q-8 0 -8 -6q2 -6 2 -13h-4zM219 860q91 21 115 21q4 0 4 -2q57 9 61 20h4l5 -4q90 31 186 96q50 44 82 94l26 58q15 104 -122 153q-4 0 -33 11 q-4 0 -4 -4q-18 3 -29 8l-10 -4q-26 11 -86 14q-8 0 -51 -6v4q-77 -23 -91 -23l-2 -4q0 -10 2 -14q0 -2 -4 -2l-6 -100l-8 -29q4 -8 2 -14h-4q0 -5 4 -5q-28 -142 -31 -161l4 -6q-6 -6 -6 -15q-2 -6 2 -14q0 -4 -4 -4v-19z" />
<glyph unicode="c" d="M84 487q-6 34 0 121l4 8q-2 6 -2 13q3 24 10 24q0 4 -2 4l4 19l8 49q35 242 238 506q175 166 320 166q34 3 34 8l21 -4h45q100 -9 182 -31q17 -14 72 -39q22 -25 22 -26l-6 -41q-16 -19 -33 -19v4l-8 -4h-4q-85 60 -244 60q0 4 -14 4q-20 -4 -26 -4v4q-54 0 -160 -41 q-129 -88 -144 -129q-119 -155 -125 -207q-40 -84 -55 -137q-4 0 -4 -4l-4 -33q0 -4 -4 -4l2 -9l-21 -92q-2 -5 3 -14l-9 -35l-2 -2q-3 -41 0 -72h-4q0 -48 4 -84h-4q6 -136 141 -292q129 -97 277 -97q166 0 322 170q6 0 26 17q12 -3 12 -8l7 4h16l6 -4q0 4 4 4l15 -19 q-7 -11 -7 -14q10 0 7 -12l-7 -9q4 -8 2 -10q-107 -110 -165 -137q-68 -39 -103 -39q-13 -11 -96 -20v4l-8 -4h-37q-113 12 -121 20l-10 -4q-153 48 -217 117q2 6 -39 41q-139 199 -119 333z" />
<glyph unicode="d" horiz-adv-x="1075" d="M35 72q6 6 6 10l-4 6l6 8l-2 21h6l4 24v19h2q0 14 -8 14q12 10 12 23q0 6 -8 6l6 8l2 10h-8v4h8q3 75 2 82h4q3 39 -6 39l4 6l2 4h-4l-2 -6q-7 0 -4 6q3 0 13 13v2h-9v8h9l6 35h-11v12l7 -4h4l-2 6h4q-3 25 -8 25l4 8v8q3 3 0 39q4 19 10 29q-7 0 -4 10l8 35v24l6 19 q0 4 -4 4l6 16v27q3 6 6 6v43l25 166l8 31l-4 8l6 6l-2 22h4q0 2 -4 2l10 37l4 25q0 4 2 4q0 2 -2 2l23 113q-2 10 -2 24l6 15l-2 8q0 1 6 10q0 39 4 59q0 9 -6 9q12 35 8 61q9 49 45 49q3 17 47 25l19 -4q4 0 4 4l25 -4h45q6 0 34 4l7 -4q8 4 16 4v-4l6 4l16 -4l7 4l6 -4 q4 0 4 4q61 -6 61 -11l6 5q5 0 5 -5q2 0 2 5q152 -18 262 -68q184 -123 225 -252q42 -135 33 -215q3 0 0 -6h-2q2 -41 -2 -96l-9 -58q-12 -90 -20 -90q-4 -4 2 -4l-6 -24q-2 -7 2 -15q-78 -265 -131 -356q-83 -110 -221 -164q-162 -76 -262 -76l2 4q-23 -3 -23 -8l-18 4 q-44 -8 -64 -8h-10l-10 8q0 -8 -9 -8h-16q-8 0 -12 4q-6 0 -6 -4l-27 4h-35q-4 0 -4 4l-8 -4h-18q-8 0 -5 8l-10 -4h-8q-6 0 -2 4l-4 -4q-58 3 -58 15l-8 -5q-26 0 -20 95zM131 63q0 -1 3.5 -2.5t11 -3t18.5 -3t27 -3t35 -3t42.5 -3t50.5 -2.5q83 6 93 6l8 -4q8 4 12 4t4 -4 q53 0 242 82q111 66 149 156q37 100 43 100l-4 6l64 205l-4 6q10 52 22 96l-4 9l8 20q19 144 -32 317q-15 47 -60 95q-111 120 -201 129q-44 18 -104 30q-2 0 -6 -4q-63 13 -135 13h-66q-4 0 -4 4l-8 -4h-27l-24 4l2 -27l-6 -33q0 -10 2 -12l-4 -12v-6q0 -5 -3 -5v-14 l-6 -35q-4 -4 0 -4l-4 -18l-4 -35q0 -4 -4 -4l2 -6l-6 -51q-5 -5 -6 -5q1 -5 1.5 -9.5t1 -7.5t1 -5.5t0.5 -3.5q-8 -3 -8 -8l-2 -9q0 -10 2 -14l-13 -31l2 -22q0 -4 -6 -10q0 -7 2 -11q-15 -56 -24 -125l2 -8l-6 -14l-6 -43q0 -4 -5 -14q-3 -31 3 -31q-13 -36 -7 -55 l-12 -19l8 -2q-3 -4 -4.5 -10t2.5 -8l-6 -19l-2 -12l-2 -37h-4q0 -4 4 -4q-6 -17 -7 -26.5t1 -45.5h-4l4 -6l-17 -158h-2q4 -23 2 -28h-4l4 -6l-12 -148l2 -14h-4l2 -6z" />
<glyph unicode="e" horiz-adv-x="989" d="M27 45q2 6 2 12v11h2q0 4 -2 4l6 24l22 164l6 14q-4 23 -2 33h2v41q7 7 7 19v22l6 19v22q0 4 4 4l-2 43l6 17l-2 20h4l-2 8v4q10 72 10 133h4l-2 9q0 4 4 4l-2 6l4 37q0 4 4 4l-2 6q0 4 5 4q-5 13 -5 18t5 13q-3 6 -3 14q3 8 7 8q0 58 2 70q4 8 4 10q0 12 -4 12l8 25 l6 57q2 7 -2 15q6 6 6 14q2 6 -2 14q5 5 6 5q0 24 -4 36l8 23q0 10 -2 14q7 21 8 27q0 6 -4 14q7 7 7 15q4 22 2 41l8 20q-4 8 -4 10h4q0 2 -4 2q12 45 16 45q0 4 -4 4l6 25l4 25q3 6 -6 6l6 18l-2 14q30 46 39 46l43 14q31 -15 31 -19l26 5l70 2l52.5 1.5t23.5 0.5v-4l6 4 q4 0 4 -4l8 4l6 -4q12 4 13 4v-4q2 0 2 4q8 0 8 -4l22 4q118 -4 140 -4h20l21 4q15 -9 41 -9h53l18 5v-5q10 5 11 5l8 -5q10 5 14 5l8 -5l6 5l9 -5l22 5q34 -12 31 -37q10 0 10 -9q-14 -9 -29 -38q-10 0 -10 -9h-26l-11 -4v8l-8 -4h-37q-2 0 -2 4l-8 -4l-18 4l-9 -4l-6 4 l-22 -4q-4 0 -4 4l-21 -8q-63 6 -106 8l-7 -4q-4 0 -4 4l-18 -4l-12 4q-2 0 -2 -4l-90 9q-77 -5 -89 -5q-2 0 -10 -4q-8 4 -16 4q-2 0 -2 -4l-21 4h-6q-6 0 -14 -4l-8 4q-11 0 -27 -8q-8 4 -14 4h-4q-8 0 -17 -36l4 -9q-4 -4 -6 -4q0 -4 4 -4l-6 -16l-4 -33l-8 -25 q0 -2 4 -2q-11 -34 -6 -45l-6 -8q4 -8 2 -14q0 -4 -4 -4l4 -6l-6 -37q-2 -9 2 -21l-7 -12q-12 -136 -20 -168v-14q-1 -5 -2 -9.5t-2 -11.5t0 -11.5t4 -4.5l-6 -19l-8 -53h82q4 0 16 -4q13 8 39 8h22q4 0 4 -4l9 4h37q2 0 2 -4q21 8 98 8h16q7 0 15 4l20 -8l23 4q6 0 2 -4 l22 4h2q17 0 33 -4q45 3 61 8q4 -4 15 -4l18 4q27 -17 35 -41v-4q0 -4 -18 -10l4 -8q-3 -10 -29 -27l-12 4q-37 -3 -37 -6l-19 2h-12q-23 0 -41 -2q-4 2 -10 2q-4 -2 -19 -2v2l-8 -2h-20q-4 0 -4 2q-6 -3 -47 -6l-4 4l-21 -4q-2 0 -10 4q-98 -10 -158 -10q-6 0 -14 -4l-6 4 q-12 -4 -13 -4v4l-8 -4q-4 0 -4 4q-47 -8 -72 -8v-4q-9 -119 0 -119v-4h-8l-12 -88v-27h-4l4 -6l-6 -31l2 -18h-4l4 -6q-4 -4 -6 -4l2 -19v-4q0 -4 -4 -4l2 -6q0 -4 -4 -4l2 -8q-5 -35 -2 -56q-2 -2 -3.5 -4.5t-2.5 -3.5t-1 -2l2 -18l-6 -9q0 -6 2 -12l-8 -33l-2 -10 q0 -10 2 -14l-6 -17v-6q-3 -8 4 -8l10 4l4 -4q12 4 15 4l-2 -4l10 4q4 0 0 -4l10 4q7 -1 8 -4q39 8 88 8q52 0 76 -8q36 4 43 4h37q8 0 12 -4l9 4q3 0 8 -0.5t14 -1.5t17 -2l34 4l6 -4q3 0 7 4q34 -3 34 -6q21 6 66 6l-2 -4l10 4h41q4 0 0 -4l10 4h23q6 0 2 -4l8 4 q4 -4 8 -4q2 0 6 4l17 -4h8q7 0 35 4q14 0 33 -31q-3 -22 -25 -32q-3 -27 -31 -27l-8 4l-20 -6q-14 2 -39 2h-33q-4 0 -4 4l-6 -4q-14 0 -54 4q-86 -4 -106 -4q-6 0 -12 -2q-35 3 -35 6l-27 -4h-127q-4 0 -4 4l-6 -4h-68q-30 0 -57 -2l2 2q-21 -6 -26 -6v4l-9 -4h-4 q-6 0 -14 4q-11 -5 -37 -8v4l-6 -4q-28 3 -55 55z" />
<glyph unicode="f" horiz-adv-x="925" d="M47 53l10 74q2 5 -2 16q6 6 6 15q0 6 -2 12l4 6v19l5 8q-2 4 -2 14l2 6q0 4 4 4l-2 9l4 40l6 74h4l-2 6q11 114 15 166.5t1 52.5l4 9q-2 4 -2 10h4q-4 8 -2 10q8 105 9 150h4l-4 8l8 61l6 15q1 2 0.5 3t-2.5 1q7 22 8 30l-2 19h4q0 4 -4 4l6 16l6 45q3 8 0 17q3 10 9 10 q-1 4 -2 11t-2 11t-1 7l9 26l-2 15l6 8q-4 8 -2 14h4l-4 8l12 93l2 20l2 8l16 164q21 55 31 55q4 0 4 -4l17 4h12q6 0 14 -4q12 4 17 4v-4l6 4q45 0 131 7v-3q29 8 94 11q2 0 2 -4l21 4q37 0 200 12h70q4 0 4 -4q4 0 4 4q24 -8 80 -8h29q71 0 65 -45l6 -11q-1 -2 -4 -8.5 t-4 -8t-4 -6.5t-4.5 -6.5t-4.5 -4t-6 -3.5t-7 -2t-9 -1q-172 8 -225 8l-12 -4q-8 4 -15 4l-18 -4v4q-44 -13 -141 -13h-62q-4 0 -16 -4q-6 0 -2 4q-12 0 -33 -8q-2 0 -2 4q-82 -6 -145 -6v-4q-2 -6 2 -14q-7 -7 -7 -17q-1 -1 3 -10q-7 -7 -7 -14v-31h-4q2 -4 2 -10l-4 -8 q4 -24 4 -27l-6 -6l4 -6q-6 -9 -6 -17q2 -4 2 -10h-4l4 -8l-6 -33q0 -4 -4 -4l4 -6l-8 -49q0 -10 2 -10l-6 -21l-10 -84q-3 -8 0 -14l-7 -17v-6q-3 -10 0 -10l-4 -21l-8 -55l6 4h107q4 0 4 -4l8 4h4q4 0 4 -4l6 4q12 -4 13 -4q8 4 10 4v-4l8 4q4 0 4 -4l6 4l27 -4q4 0 4 4 q27 -8 80 -8h4q4 0 4 -2l8 2q2 0 2 -2q4 0 4 2l27 -2h47q12 0 12 2l19 -2h43q30 0 53 2l6 -2l8 2q52 0 52 -61q-27 -37 -66 -37q3 8 -6 8h-6q-10 0 -14 -4q-5 0 -9 4q-69 -2 -139 -8q-42 3 -53 8q-2 0 -6 -4q-40 6 -105 6v4q-4 0 -4 -4q-50 4 -55 4h-29l-24 -4q-8 4 -17 4 h-4q-4 0 -16 -4q-8 4 -15 4l-14 -4q0 4 -4 4q0 -6 -6 -6q-8 -206 -27 -360q0 -3 4 -11q-4 -4 -6 -4l2 -18l-6 -41l2 -23q-6 -9 -6 -10l2 -8l-4 -6q3 -22 0 -31h-4l4 -6l-19 -121l3 -16h-5l5 -9l-3 -4q0 -4 -4 -4l4 -6l-4 -27q-3 -27 -41 -36v-4h-2q3 8 -2 8q-12 -4 -14 -4 q3 8 -4 8q0 -6 -14 -12q-28 0 -19 73z" />
<glyph unicode="g" horiz-adv-x="1064" d="M70 475q0 4 2 4v8l2 7v16l4 6q-7 14 -4 19h4l-4 8q4 4 6 4q0 8 -4 8l10 43l10 70q0 4 2 4v10l13 82l2 18l8 49l2 11q0 4 4 4l-2 8q9 33 12 33q0 4 -4 4q15 37 19 37l-5 8q2 11 13 29q-4 0 -4 4q5 0 32 80q44 97 103 159q59 94 153 138q88 55 121 55q3 20 185 41v-4l8 4 q155 0 246 -60q0 -5 18 -32q-3 -31 -39 -50l-22 5q-10 -5 -11 -5q3 23 -98 50q-62 10 -76 10q-6 0 -6 -4l-22 4q-33 0 -121 -10v4q-162 -57 -207 -113q-140 -152 -152 -217q-12 0 -59 -182l-10 -64q0 -2 -4 -2l4 -8q-6 -6 -6 -10q2 -6 2 -13q-7 0 -7 -6v-12q-2 0 -2 -2 q7 0 4 -12l-6 -8q0 -3 4 -3l-12 -40q0 -25 -2 -33l-4 -35l-6 -23q0 -14 4 -14l-6 -18l-4 -29q-1 -7 2 -76l-4 -6q9 -129 49 -229q36 -74 86 -97q23 -14 71 -26q-3 -6 35 -6h56q4 0 16 4q2 0 2.5 -1t-0.5 -3l53 10v-4q109 27 148 78q4 0 37 36q52 47 94 119l18 56v8l25 73 l4 29q0 4 4 4l-2 8l2 15q0 4 4 4l-4 37q4 4 6 4v37l4 28l-2 9q-40 -9 -49 -9l-22 4l-9 -4q-2 0 -2 4l-18 -4h-53q-7 0 -15 4q-8 -4 -14 -4h-23q-4 0 -4 4q-4 0 -4 -4l-16 4h-62q-1 0 -1 2t1 3l-10 -5l-20 5q-2 -1 -5 -2t-5 -2t-3 -1l2 5l-10 -5h-51q-31 15 -49 46l8 20l2 16 q4 0 31 15q1 0 4.5 -0.5t10 -1.5t13.5 -2l9 4l12 -4q0 8 6 8h19q8 -3 8 -8q6 0 6 4l65 -8l7 8q5 -1 7.5 -4t0.5 -4l10 4q2 0 2.5 -1.5t-0.5 -2.5q11 8 18 8q0 -8 7 -8q12 4 14 4h10v4h10q9 -3 7 -8l30 8q12 -4 13 -4q36 8 41 8q11 -8 22 -8h4l14 12h23q44 0 57 -8l9 4 q28 -4 34 -8t0 -15q11 0 17 -14h-4l8 -23q-10 -16 -12 -28q4 -11 2 -13h-4l4 -8v-4l-9 -16q9 -3 9 -8t-4 -5q-4 -4 2 -4q0 -6 -5 -6q-3 -76 -6 -96l-18 -45l4 -6q-9 -21 -12 -21l4 -6q-12 -35 -15 -35q0 -2 5 -2q-15 -98 -187 -270q-110 -88 -186 -88q-3 -10 -139 -16v4 q-5 0 -5 -4q-31 3 -30 8l-11 -4q-127 27 -184 90q-51 60 -65 112q-4 0 -13 35q4 0 4 2q-7 4 -22 82q-6 0 -2 4q0 4 4 4q-12 46 -12 158q-2 0 -2 4z" />
<glyph unicode="h" horiz-adv-x="1040" d="M51 37l4 6q-2 4 -2 14h4q1 1 0.5 2.5t-2.5 1.5l6 19l-4 6q6 9 6 16l-2 15q4 4 7 4l-2 18l8 56q0 10 -2 14q0 4 4 4l-2 18l8 56v18h2v8l4 27l-2 20q6 9 6 17q-3 19 0 29h4l-2 8v6q1 4 1.5 10t0.5 12t0.5 15.5t1.5 17.5h4q-3 9 0 45h2l-2 8l2 7q0 4 2 4v8q10 109 17 155 l-2 7l6 18l-2 23q5 12 8 28l-2 17h4l-2 6l6 41q0 8 6 14q-4 10 -2 12h4l-4 6l2 17l2 45h5l-2 6v6q0 4 4 4l-2 9q6 41 10 129h4l-4 36l6 9l-2 18q0 4 4 4q2 27 2 51l4 15v26h2v8l4 33l6 78q3 27 50 33h26q21 -12 15 -55l-5 -33v-19q-4 0 -4 -4l9 -4l-7 -6q-12 -123 -8 -131 q-2 -2 -6 -2l-8 -135q0 -2 -4 -2q-3 -59 0 -68q-6 -6 -6 -14l-2 -4l2 -19h-4q0 -22 4 -22l-7 -19v-10q-3 -12 0 -18l-6 -21q-1 -21 -8 -90l8 2h88q11 0 15 -2q6 2 12 2q33 1 70.5 2t57.5 1.5t30 0.5q1 0 2.5 0.5t5 1.5t6.5 2q12 -4 18 -4h13q5 0 33 4l8 -4l6 4q28 -4 33 -4 q12 0 12 4l25 -4h63q4 0 4 -4l8 4h15q4 0 4 -4l6 4h12l23 -4l6 4l16 -4q24 4 29 4q0 4 -4 4l20 88q-1 3 0 11t2.5 13.5t-0.5 6.5l6 18l5 33q3 33 18 101q4 0 4 4l-8 2q9 18 12 18l-4 8v4q4 11 6 11l-2 18l4 19q0 4 4 4l-4 8l11 65q8 61 4 86l8 33l4 31q0 8 -2 14l6 15l4 36 q13 19 41 19h8q47 0 35 -82q0 -2 -4 -2l2 -21q-6 -29 -14 -161h-4l2 -9l-11 -77q-17 -104 -32 -170q0 -3 4 -11q-7 -17 -11 -32v-5q-2 -8 3 -18q-9 -18 -23 -104h-4l2 -7l-2 -16q0 -4 -4 -4q0 -2 4 -2l-8 -18l-6 -50q0 -10 2 -14l-4 -6q-16 -94 -29 -191l-10 -65l-7 -60 q-3 -6 -6 -26l2 -6l-2 -8q-9 -103 -6 -187q-29 -29 -47 -29h-14q-4 0 -4 5l-9 -5h-8q-4 0 -14 19v4l4 6q-6 0 -12 53q4 4 6 4q-3 57 0 66h4q-7 20 2 68l43 315q0 2 4 2q4 4 -2 4l8 37l4 33q3 8 -4 8q-10 0 -10 -4l-20 4h-66q-4 0 -4 2q-4 0 -4 -2l-43 2h-41l-23 4 q-4 0 -4 -4l-18 4l-27 -4v4l-6 -4h-12q-5 0 -33 4q-8 -4 -14 -4v4l-9 -4l-14 4q-8 -4 -10 -4v4q-41 -3 -41 -6q-6 2 -12 2q-31 -2 -48 -2v2l-8 -2h-106q-4 0 -4 2q-4 0 -4 -2l-19 2h-6l-8 -2l-2 -72l-4 -6q2 -4 2 -10h-4q2 -6 2 -12q-27 -256 -25 -285q-4 -4 -6 -4l2 -19 l-12 -96q-3 -8 0 -14l-4 -4l-6 -64l-7 -51q-8 -11 -32 -18q-4 4 -13 4q-3 -8 -10 -8q-25 22 -37 57z" />
<glyph unicode="i" horiz-adv-x="262" d="M6 35l4 24q3 9 0 15l4 6l11 108q1 1 2 3t2 2q0 42 14 108q1 -1 4 2q-8 0 -3 11q1 2 1 3v13l4 6q-2 4 -2 10l6 8q-3 6 0 15h4l-4 6l15 69q2 10 2 27l8 31q0 2 2 8t2.5 9.5t1 9.5t-1.5 8l6 8q0 4 -4 4l6 16v19h4l-2 6q0 4 4 4l-4 6l6 23q0 4 4 4q-2 4 -2 10q16 124 25 162 v18q5 8 6.5 22t0.5 25l-1 10q3 4 4 3l12 73l19 101v20q4 4 8 19v18h4l-4 6q0 4 4 4v8q10 55 4 82q0 1 3.5 6t4.5 9l-2 14h5q-7 34 2 51q0 6 6 12q0 3 0.5 9.5t1.5 20t2 26.5l4 6l2 22l43 17l22 -2q17 0 17 -78l-4 -25l6 -10v-4q-1 -3 -4 -8t-4 -6l2 -8q0 -3 -4 -3l-13 -155 l-4 -6l-2 -23v-6q0 -4 -4 -4l2 -6l-6 -37q0 -4 -4 -4v-6l-2 -11q0 -4 -4 -4l4 -8l-8 -35q-23 -129 -35 -233h-4l4 -6l-4 -8q0 -5 -2 -5l2 -8l-8 -30v-25h-2v-8q0 -4 -5 -4l5 -7q-4 -4 -7 -4l5 -8l-41 -207l-5 -43h-4v-8l-8 -47q-2 -6 -2 -31l-6 -8q-15 -134 -18 -213 q-7 -7 -7 -8l4 -8q-17 -28 -34 -35l-29 2q-2 0 -2 4l-8 -4q-15 0 -27 35z" />
<glyph unicode="j" d="M51 455l15 94q37 102 63 102l4 -4q12 4 14 4q26 -23 29 -63l-6 -2q9 -17 -8 -31q4 -8 4 -10h-4q2 -6 2 -13l-10 -32q4 -12 4 -13h-4l6 -14l-6 -6q9 -215 30 -215h-4q27 -93 105 -123q37 -22 172 -37q4 0 4 4q4 0 16 -4q133 0 236 68q75 41 123 133l38 74v14q20 24 35 78 q-1 2 -2 4.5t-1.5 3.5t-0.5 2q3 31 10 31q4 4 0 4q9 20 33 133q-3 19 0 37q0 3 8 22q0 2 -4 2l6 21v29q7 10 7 12h-4l6 6l-9 10q9 9 17 41q0 25 2 35l6 33q0 4 2 4q-3 7 0 10q0 2 1.5 12t0.5 15.5t-6 5.5v8l8 -4l2 8q-3 10 -8 10q7 8 8 23q0 10 -2 14l4 8l-6 25l4 12 q-6 0 -6 6q4 8 12 13q0 4 -4 4l6 10q2 45 13 129q-9 0 0 150q-5 0 -2 32q26 29 63 29q18 -18 21 -33q9 0 12 -37q4 0 0 -4l-6 -37v-14l-4 -6q6 -27 0 -150l-4 -22q-5 -30 -5 -70h-4l4 -30q-6 -6 -6 -15q4 -32 2 -37l-8 -61q0 -4 -4 -4l4 -27q-9 -41 -14 -41l4 -8q0 -2 -4 -2 q-3 -41 2 -41l-6 -18l-10 -68q-2 -6 2 -14l-7 -15l-6 -41q-9 -73 -18 -73l4 -9l-6 -8q0 -6 4 -6l-23 -86v-6q-41 -139 -110 -242q-110 -113 -201 -141q-3 -16 -172 -43h-33q-4 0 -4 4q-2 0 -2 -4q-257 35 -254 55q-91 31 -137 150q-25 74 -31 227l6 17q-8 0 -8 6z" />
<glyph unicode="k" horiz-adv-x="1075" d="M-2 33v10l4 4l-2 8l10 88l2 25l4 12l-2 8q4 8 4 17v12h2q4 4 0 4l5 21q37 197 45 270v2l4 4l-2 6l2 8l4 27l-4 2l4 8v4q14 92 10 123l6 15v4q2 6 -2 14l6 10q-4 11 -2 13h4l-4 8q6 6 6 10q-4 0 -4 2h4l-2 8l2 23q0 4 4 4l-2 6q0 4 5 4q-3 19 -5 19l7 26l8 56q0 4 4 4 l-2 8l6 51l2 23l2 6v12h2l-2 6q1 3 2 9t2 11t2 7l2 22v2l6 35q10 83 7 176h4l-4 21q0 4 4 4v39q2 0 24 22q5 0 15 13l8 -5l4 7q31 -3 57 -39v-4q0 -5 -4 -5q3 -12 6 -12l-6 -16l2 -17l-6 -8l4 -51q0 -2 -2 -2q-2 -6 -2 -49h-4q5 -19 -4 -96l-10 -64q0 -7 -7 -14q4 -8 2 -15 l-10 -81q-2 -7 2 -15q-6 -9 -6 -14l-10 -72q0 -4 -4 -4l2 -6l-10 -72q0 -6 6 -6q0 6 59 41q111 88 234 170q179 127 399 311q3 0 53 47q16 13 23 13q3 35 88 41q16 0 22 -45q-3 -34 -67 -74q-334 -275 -365 -297q-44 -38 -129 -88l-229 -170l-2 -4q74 -54 346 -299 q8 0 162 -160q121 -86 164 -141v-19q-3 -22 -43 -49h-27q-27 0 -88 64q-85 65 -191 182l-194 176q-98 85 -144 131l-71 51q-12 -4 -13 -4q0 4 -4 4l-4 -24l2 -21h-4q0 -4 4 -4l-3 -8t-5 -12q0 -11 2 -17q-7 -13 -8 -24q0 -13 4 -13q-5 -9 -8 -21.5t-5 -25t-3.5 -25 t-2.5 -23.5t-2.5 -19.5t-4 -14t-5.5 -6.5q0 -4 4 -4l-6 -14q0 -11 2 -17l-8 -32l-2 -11l2 -18h-4q0 -4 4 -4l-8 -27l-14 -96q0 -10 2 -14q-7 -17 -9 -27l3 -18h-5l5 -7q-15 -53 -31 -53q0 4 -4 4q0 -10 -8 -10v2q-12 -6 -23 -6q-34 12 -43 33h-2z" />
<glyph unicode="l" horiz-adv-x="940" d="M25 76l14 162h4l-4 12q14 91 47 350v27q6 9 6 12q0 2 -4 2l6 18l12 86q2 7 -2 15q7 7 7 14l4 23q0 10 -2 14l4 8l-2 6l8 31q0 4 -4 4l6 19q8 56 15.5 104.5t10.5 68.5t3 21l6 8q-2 6 -2 13q0 2 4 2l-2 18l6 45q3 9 0 15l10 32v25q0 1 1 6l3.5 17.5t5.5 25.5l-2 8 q15 96 49 96q19 0 19 9q36 0 51 -64q-19 -73 -22 -96l4 -6q-6 -9 -6 -13q-1 -17 -2 -32.5t-2 -23.5t-1 -9l-8 -16q4 -11 8 -11l-8 -26l-4 -33v-19l-8 -4q-5 -34 -17.5 -105t-15.5 -97l-10 -86v-27h-4q0 -2 4 -2l-12 -55l-17 -113l2 -16h-4l4 -9q-11 -105 -20 -170 q0 -6 2 -12l-6 -20q-12 -104 -8 -119l-7 -8l5 -6l-7 -9l2 -63l-4 -6q3 -9 0 -17h27q12 0 12 -4l17 4h90q4 0 4 -4l6 4h14q4 0 4 -4q4 0 4 4q102 4 113 4h31q4 0 0 -4q2 0 6 4l125 -10l20 2q27 -2 60 -2q30 0 100 6v-4l8 4h15l20 -16q4 2 10 2q18 -27 25 -27q-10 -30 -27 -59 l-8 4l-12 -6h-4q-4 0 -2 2l-109 -10l-22 4h-74q-4 0 -4 4l-6 -4h-9q-4 0 -4 4l-8 -4q-17 0 -63 6q-4 0 -6 -2l-17 2h-45q-2 0 -14 4l-6 -4l-17 4q-8 -4 -10 -4q-4 0 -4 4l-19 -4h-206q-45 0 -80 -2q-28 0 -37 51q-5 0 -14 27z" />
<glyph unicode="m" horiz-adv-x="1153" d="M-12 47v6q0 4 4 4l-2 9l8 28q0 6 -2 12q4 11 6 11q1 1 0.5 2.5t-2.5 1.5q9 42 14 49l-4 6q15 15 27 92v4l4 15v14l4 27q0 4 2 4v8q26 78 57 207v8l-2 16h4q1 1 0.5 2.5t-2.5 1.5q14 32 17 70l4 27l6 14q-2 6 -2 12q9 27 10 29q0 4 -2 4l4 19l17 114q3 21 10 47 q-2 12 1.5 34t8.5 34q0 4 -4 4l8 27l2 6l-2 22q6 15 11 15q0 32 -5 32q7 15 29 132v18q2 2 4 2v27l6 41l6 22q0 4 -2 4q6 20 7 37q5 0 53 23h4q40 -37 41 -37q7 -34 88 -160q3 -3 43 -82q51 -73 184 -244q168 165 307 344q0 7 39 52q33 56 103 104q17 10 28 10 q48 -20 39 -96q4 0 4 -55h-4q4 -15 -2 -105h-4l2 -32l-4 -7q3 -9 0 -12h-2l2 -6l-4 -35q-2 -6 2 -14q-6 -6 -6 -15q-3 -8 2 -8l-6 -18l-4 -23l2 -16h-4l4 -8q-4 -4 -6 -4l4 -9l-2 -10l-13 -155h-2l2 -29q-9 -35 -10 -35q0 -4 2 -4q0 -1 -0.5 -2t-1.5 -3.5t-2 -4.5v-51h-4 l2 -9l-4 -24q0 -13 2 -17q0 -4 -4 -4l2 -16q-12 -83 -27 -381q-4 0 -4 -4q12 0 6 -141q-41 -41 -51 -41l-18 -4q-40 24 -37 57l18 418q2 2 4 2v18l7 27q-2 6 -2 10l4 4v23q3 21 6 106l6 12q-2 4 -2 11h4l-4 8l4 18q0 4 4 4q-3 3 0 60h4q-2 6 -2 41h4l-4 6l2 14q0 4 4 4 q-7 13 -4 19l21 178q-3 7 0 10h2l-2 8q0 4 2 4v7q3 31 4 54.5t1 33.5t-1 10l6 6q-7 18 -4 33h-6q-6 -18 -78 -107l-103 -118q-70 -64 -112 -119q-11 0 -31 -33q-68 -68 -104 -68q-26 0 -115 142q-56 69 -131 174q-44 91 -70 127l-10 -37l-4 -41q-3 -16 2 -16l-8 -25 l-25 -168q0 -8 -6 -14q4 -8 4 -15h-4l2 -8l-10 -45q0 -2 4 -2l-6 -14l-23 -127l-6 -15q0 -4 4 -4q-18 -64 -24 -118h-2v-7l-2 -18q0 -4 -2 -4q0 -4 2 -4q-8 -45 -41 -166l2 -8l-6 -33q-2 -8 -2 -27l-11 -55l-4 -27q0 -2 -4 -2l2 -8q-6 -14 -10 -14q0 -4 4 -4 q-12 -55 -21 -64q12 0 3 -18l2 -6q-24 -58 -27 -58q-30 -6 -37 -6h-35q-10 10 -24 41z" />
<glyph unicode="n" horiz-adv-x="933" d="M-12 47q23 107 59 215l12 86l7 14q-3 6 -3 15v4q14 14 21 47q0 4 -4 4l6 19v4q2 6 -2 14l16 23q24 143 33 163q-3 20 0 29h4l-2 8v4q0 2 4 2l-2 9v4q0 4 4 4l-2 8v2q3 8 8 8q0 2 -4 2q27 136 35 201l10 74l7 14l-2 8l6 15l-4 8q19 40 28 119q4 4 6 4q0 2 -4 2 q13 42 21 86l6 51q0 4 4 4l-2 6q3 21 9.5 31t31.5 26h8q4 0 0 -4l10 4q96 -21 93 -49q6 0 79 -98q50 -86 136 -215q50 -107 155 -242v4q0 4 -2 4l4 19v14h2v8q19 214 37 351l6 18q-4 9 -2 19l6 45q2 5 -2 16l6 6q0 9 -2 23l7 10q-3 24 2 41q30 59 57 59q57 -9 51 -51l-4 -8 q-3 -23 4 -23l-6 -18l-4 -23v-37h-4l4 -6l-8 -18q0 -4 4 -4l-8 -27l-2 -24q-3 -10 0 -17l-7 -14q0 -8 3 -14l-5 -9q0 -4 5 -4l-9 -24l-16 -197q2 -4 2 -10h-4l2 -8q0 -4 -4 -4l2 -19l-8 -55v-37h-4q4 -42 -2 -170q0 -4 -5 -4v-19l-4 -41l-2 -36h-4l4 -9q-2 -2 -6 -2l4 -8 q0 -4 -4 -4l-6 -135l-4 -8l-4 -88h-4q0 -4 4 -4l-8 -21q4 -8 4 -10h-4q2 -4 2 -10q-6 -62 -9 -68h-2q2 -4 2 -33h-4q7 -18 7 -22h-5l2 -6l-10 -13l4 -8q-15 -47 -26 -47h-82q-9 3 -12 18q11 33 18.5 106.5t5.5 96.5l6 4q0 4 -2 4l4 19v14h2v45l6 8q-3 27 0 62h5l-5 63l9 19 q21 147 -4 147q-62 121 -62 123q-46 46 -90 129l-192 299q-57 100 -66 100l-45 -198l-6 -37l-6 -45q0 -4 -4 -4l2 -6l-9 -64q-3 -8 0 -14q-24 -96 -32 -160q0 -3 -7 -10q4 -11 0 -37q0 -4 -4 -4l2 -8q-28 -152 -41 -189q0 -4 3 -4l-5 -18v-8l-24 -80l6 -4l-6 -19l-6 -51 l-11 -45q2 0 3 -1.5t0 -2.5q-5 0 -46 -133q4 -21 -4 -33l4 -8l-6 -6q4 -11 2 -13q-33 -45 -63 -45v4l-8 -4h-9q-29 23 -32 37z" />
<glyph unicode="o" horiz-adv-x="1110" d="M86 596h2l-2 6l8 49q2 10 -2 19l8 22q12 88 31 180q0 5 -4 5l6 18l4 27q0 4 4 4q2 2 -2 2q45 158 101 246l-2 6q49 106 127 163q57 63 100 66q5 0 24 8v-4q25 14 99 14q4 -4 8 -4q5 11 16 17q4 0 4 -4q14 3 17 8q2 0 10 -4q86 4 98 4h21q58 0 94 -31v4q50 -9 102 -51 q60 -34 113 -178q19 -74 19 -76l-7 -10q8 0 11 -60h-4q9 -34 6 -73h-4l4 -6l-2 -9q0 -4 -4 -4l4 -8l-2 -6q0 -4 -5 -4q6 -6 3 -41h-5l5 -6l-3 -4l-4 -9q7 0 4 -8v-10h-6v-18q0 -5 -4 -5l4 -6l-2 -12q0 -2 -4 -2l2 -8v-4q-4 -4 -6 -4l4 -7v-4q-3 -12 -6 -12l2 -18l-8 -56h-8 q-2 -9 2 -18q-39 -133 -62 -197q0 -2 2 -2q-12 -41 -16 -41q0 -4 4 -4q-59 -151 -92 -207q-61 -86 -84 -106q-130 -112 -229 -137q-36 -14 -82 -17q-15 3 -15 8q-2 0 -2 -4q-212 35 -209 56q-142 115 -163 270q-26 194 -23 297zM178 598q9 -238 35 -350q20 -56 76 -115 q52 -67 137 -67q0 -5 68 -11q82 0 219 107q81 78 104 137l8 4q-2 4 -2 10l25 49v9q12 0 47 133q15 0 61 235l11 52q0 6 -2 12q4 10 10 41l6 41q0 4 4 4l-4 29q4 8 5 27t-1 20l4 8v22q2 0 2 4q-7 0 -4 7l2 16l4 6q-7 0 -16 105q-1 0 -45 102q-9 3 -14 22q-42 51 -160 78 q-9 0 -6 8l-7 -4q-22 3 -22 7q-4 0 -4 -3l-45 3h-25q-26 -11 -33 -11l-4 4q-169 -43 -172 -55q-11 0 -80 -72q-65 -115 -124 -276l4 -8q-6 -27 -11 -27q0 -2 2 -2q-9 -41 -12 -41q0 -4 4 -4l-8 -18l-8 -60q0 -8 -6 -14q4 -8 4 -10l-8 -27q-4 -4 2 -4l-6 -19l-11 -84v-20h-4z " />
<glyph unicode="p" horiz-adv-x="925" d="M35 49q0 4 4 4l-2 8l2 15q0 2 4 2l-4 8l12 80q0 8 -2 12q0 4 4 4l-2 19v4q4 4 6 4l-4 6l19 182l6 39v23q0 4 4 4v24l4 39v19h4q0 4 -4 4l6 16q0 11 -2 15l6 22q2 2 -2 2l6 19v8q3 10 -2 10l6 18l5 31q3 8 0 17q4 8 4 14l2 2q0 10 -2 14l4 8q-2 4 -2 15q0 4 4 4l-2 6l4 29 q9 56 6 86l2 8q-3 3 0 12q2 0 2 4l-4 4q9 33 10 33q-2 4 -2 10l6 19q0 19 2 29h2l-2 6l13 80l-2 20l6 10l-2 23h4q0 4 -4 4l6 10v33l6 12l-2 8l6 15q0 6 -2 12l6 20q2 7 -2 15l6 14q0 10 -2 14q0 5 4 5l-2 18l4 31q3 19 23 22q3 32 63 35q4 11 82 14q4 0 4 -4l41 9 q5 -5 9 -5l24 5l-2 -5l8 5h19q50 0 88 -9l6 4l55 -10l6 2q159 -25 211 -82q75 -56 103 -139q7 0 10 -96h-4l4 -6l-6 -47q-18 -130 -176 -267q-72 -54 -160 -82q-85 -39 -270 -39l-7 5q-2 -1 -5 -2t-4.5 -2t-2.5 -1l2 5q-1 0 -6 -5l-94 11q0 -4 -4 -4l2 -7l-2 -14 q0 -10 -4 -10v-19l-4 -38q-5 -5 -7 -5l5 -8l-19 -159q-3 -19 6 -19l-6 -18q-11 -93 -14.5 -126.5t0.5 -41.5q0 -5 -6 -11q3 -25 0 -40q0 -3 -4 -3l2 -8l-5 -24q-3 -25 5 -25l-7 -18l-4 -31q-17 -27 -75 -41q-33 11 -27 45q-4 0 -4 4zM215 764q0 -10 121 -19q239 15 242 35 q135 50 141 90q45 36 104 154l4 29l4 14v12h3q0 87 -35 140q-7 0 -25 24q-43 55 -184 82q-61 3 -117 14l-67 -8v4l-7 -4l-6 4q-12 -4 -14 -4v4l-8 -4h-54l-18 -2v2q-13 -3 -16 -20q-3 -6 2 -6l-6 -19l-5 -33q-2 -6 2 -14q-6 -6 -6 -14q-2 -7 2 -15q-3 -8 -6 -8q0 -41 -2 -51 l-6 -43q0 -4 -4 -4l2 -8v-6q-5 -5 -6 -5l4 -6l-4 -30q-3 -6 0 -15q-4 -8 -4 -10q-3 -10 0 -16l-8 -41l-2 -11q0 -10 2 -14l-5 -6v-14q0 -4 -2 -4q0 -30 -10 -115z" />
<glyph unicode="q" horiz-adv-x="1173" d="M84 573q5 5 6 5l2 67h2v6l10 109l25 78h-4q15 47 20 47l-4 8q16 26 66 143l-4 8q104 224 149 244q79 94 164 123q3 9 72 27q2 0 2 -4l8 4h27q10 0 14 2q4 -2 10 -2q3 10 60 16h4l20 -4l8 4q8 -4 11 -4l6 8l96 -20q19 -3 84 -62q88 -82 123 -162q40 -84 55 -202 q21 -175 6 -283l-6 -41v-14q0 -2 -2 -2v-21l-6 -41q-27 -184 -47 -184v-18q-4 0 -19 -37l2 -6q-100 -202 -172 -256l-16 -17l-2 -6q82 -146 100 -164q0 -3 23 -47q4 -8 2 -10h-4q9 -25 6 -35l-27 -29q-15 -12 -22 -12v4q-2 -1 -5 -2l-4.5 -1.5t-2.5 -0.5q-40 22 -82 105 l-66 124q-10 5 -14 5q-6 -9 -142 -56l-6 4q-13 -8 -43 -8h-49q-84 0 -96 12l-8 -4q-128 51 -195 121q-7 0 -65 94q-49 108 -52 189q-6 59 -12 184q-3 0 -6 14zM178 571q5 -45 8 -174q10 0 13 -86q58 -175 151 -221q90 -37 156 -37q6 2 12 2l12 -2q180 35 183 60q8 0 8 4 q-35 96 -111 190q-33 54 -30 64v4q29 45 63 45h12q23 -20 60 -86q68 -74 90 -148q55 49 106 148q65 121 74 192q4 4 -2 4l6 19l4 33q0 4 4 4l-2 8q6 14 11 14l-5 6l5 23q0 4 4 4q-5 18 -2 41h4l-4 6l10 72v24h4q3 176 -18 275q-54 162 -109 215q-83 65 -127 65q0 4 -12 4 h-92q-167 -28 -220 -83q-92 -95 -135 -205l-90 -217l2 -9q-26 -77 -35 -114l4 -6q-6 -9 -6 -13q3 -18 -6 -125z" />
<glyph unicode="r" horiz-adv-x="827" d="M12 47l4 27q0 12 -2 12l6 18l7 54v18h2v8l8 58q0 4 2 4v10q0 4 2 4v19l6 40q0 5 2 5q4 4 0 4q9 43 12 43q0 4 -4 4l6 18q0 4 -4 4l9 19l12 88q3 12 0 33q3 3 6 18l-2 6l4 8q0 2 -4 2l8 27l2 8q0 11 -2 15l6 12l-2 16l6 19q0 4 -4 4l8 24l15 111q3 15 0 31q5 9 8 26l8 58 v24h4l-4 6q21 194 37 305l6 15q0 4 -4 4q0 1 3 9.5t5 12.5q0 11 -4 11q15 98 51 98q12 12 131 18l7 -2q4 0 4 2q192 -18 311 -61q86 -41 113 -162l8 -88l-4 -14l2 -6q-68 -188 -160 -265q-111 -91 -268 -129l-8 5q-44 -13 -56 -13v4q-4 -4 -16 -4l108 -123 q144 -211 187 -305q120 -188 117 -209l-2 -16q-15 -30 -39 -39h-11q-4 0 -4 4q-15 -6 -22 -6q-11 4 -109 174q-135 238 -207 328q-73 88 -123 135v4h-8l-18 -125l2 -18h-4l4 -9q-2 -2 -6 -2l4 -8l-6 -37q0 -4 -4 -4l4 -6l-4 -27l-11 -43h4q-9 -24 -10 -24q0 -4 2 -4l-6 -27 v-4q-3 -10 0 -10l-4 -19l-10 -79q-2 -6 -2 -17q-5 -16 -5.5 -33.5t1.5 -27t4 -9.5l-6 -10v-37q-21 -69 -62 -69q-15 3 -18 18q-12 0 -14 4t3 11q-6 0 -6.5 3.5t2 8.5t2.5 6q-9 0 -6 6zM203 780q6 0 10 -2q152 0 264 56q119 47 185 159q0 4 -5 4q33 46 45 88q15 105 -47 164 q-123 60 -209 60q-52 14 -106 14l-8 -2q-4 2 -15 2h-14l-27 -2q0 2 -2 2q-9 -17 -18 -78v-8q-4 -4 -6 -4l4 -8l-2 -6q0 -5 -4 -5l2 -8v-4q0 -4 -4 -4l2 -6l-10 -78l2 -20q0 -4 -4 -4v-56l-7 -8l-2 -34l-1.5 -25.5t-0.5 -10.5q0 -4 -2 -4l-2 -34z" />
<glyph unicode="s" horiz-adv-x="897" d="M45 305l2 19l2 36q29 29 45 29q57 -9 51 -57h-2q38 -182 121 -226q35 -15 174 -36q112 0 187 57q89 65 104 162q22 161 -53 260q-8 30 -92 90q-10 14 -121 84q-136 124 -164 209q-42 56 -51 180q4 0 4 4q-9 0 -6 6l4 29q0 10 -2 16q4 11 14 11l-8 10q15 95 119 168 q18 30 186 100q83 14 111 14v-4l6 4q106 -8 145 -32q95 -59 129 -166v-66l-6 -14q4 0 4 -4q-26 -33 -47 -33q-47 0 -41 51q-12 75 -47 90q-28 49 -96 70q-31 0 -70 2q-109 0 -258 -119q-35 -50 -49 -100q1 -11 1.5 -25.5t1 -24.5t1.5 -16h-2q12 -71 82 -178q52 -66 125 -114 q7 -5 23 -16.5t31.5 -22.5t31.5 -21l100 -90q68 -89 92 -180q9 -106 4 -148l-4 -22q0 -11 2 -15q-41 -122 -90 -165q-104 -97 -227 -123q-13 0 -49 -8v4l-8 -4h-25q-117 9 -137 22l-8 -4q-32 9 -86 33l-4 -4q-56 41 -56 47q-66 75 -69 139q-7 0 -25 92z" />
<glyph unicode="t" horiz-adv-x="1060" d="M193 1389q21 21 53 24q8 0 12 -4q2 0 6 4l17 -4h30q7 0 19 4l4 -4q2 0 14 4l21 -4l20 4l-2 -4q2 0 6 4q1 0 5.5 -0.5t12.5 -1.5t17.5 -2t24.5 -2.5t30 -3.5q8 4 11 4l18 -4q2 1 5 2l4.5 1.5t2.5 0.5v-4l8 4q43 2 84 2q82 -6 109 -6v-4q4 0 4 4l27 -4h14q7 0 31 8h71l23 2 l39 -6l6 4q6 -1 11.5 -2t8 -1.5t3.5 -0.5l73 6q50 0 47 -43q2 0 2 -2v-4q-3 -8 -12 -8l4 -6l-10 -17q4 0 4 -4q-21 -3 -33 -12q-4 0 -4 4l-6 -4h-29q-11 0 -55 -23q-2 -1 -5 -2l-4.5 -1.5t-2.5 -0.5q-84 8 -135 8l2 2l-11 -2l-6 2q-4 0 -6 -2q-34 3 -43 6q-4 0 -4 -4l-18 4 h-19q0 -4 -6 -10q10 -61 8 -73l-12 -29q8 -8 2 -70h-4q7 -10 4 -39q0 -4 -4 -4l2 -8q0 -2 -4 -2l2 -8q0 -9 -6 -15q6 -45 -8 -59q0 -115 -19 -162q0 -4 4 -4q-20 -54 -37 -178l-8 -51q0 -11 2 -15l-6 -14l-4 -37q0 -4 -4 -4l2 -6l-2 -12l-6 -21q3 -9 2 -10l-6 -20 q4 -9 2 -11h-4l4 -8l-6 -12q-5 -57 -5 -60l-6 -47q-4 -4 -6 -4l4 -8q-6 -6 -6 -10l4 -6q-6 -9 -6 -13l2 -16h-4l2 -8v-8q0 -2 -4 -2l2 -9l-6 -37v-43h-4l2 -8q-8 -45 -4 -94q-6 -6 -6 -14h4q-3 -32 -74 -47q3 8 -4 8q-3 -12 -10 -12h-4q-11 0 -11 83h4l-4 9l15 100l-2 18h4 l-2 9l4 24q0 11 -2 15l4 8q0 31 4 51q0 2 4 2q0 4 -4 4l10 37q4 28 4 61l8 27l-4 6l6 8q-4 8 -2 15q0 4 5 4l-5 8l7 39q3 34 12 61q-2 15 4 52h4l-4 8l2 6q0 4 4 4l-4 6l12 84q0 4 4 4l-2 8v2q0 5 4 5q4 4 -2 4q3 20 11 20l-2 8q0 2 6 23q0 4 -4 4q14 34 20 80q-4 0 -4 4h4 q-2 33 27 352q-6 66 -13 66h-28q-9 0 -17 -4q-4 0 -4 4l-22 -4q-24 0 -152 8h-12q-4 0 -4 4l-8 -4q-4 0 -4 4l-7 -4h-43q-6 0 -14 4q-8 -4 -14 -4q-31 14 -38 21.5t1 21.5l-10 -4q-4 16 -4 37z" />
<glyph unicode="u" horiz-adv-x="1103" d="M72 451h4l-2 8l4 28q3 21 -4 21q0 6 2 6q1 15 8 64l2 24v23q6 9 6 12q-4 8 -4 10h4q1 2 0.5 3t-2.5 1q11 36 6 47q6 9 6 17q3 27 0 33q7 7 7 14l4 22v27q6 0 6 6v12h2q0 5 -2 5l6 24l6 45v15l12 51q-2 6 -2 12l9 2l-5 21q10 17 13 32q-4 9 -2 11q3 0 12 12l-6 14 q12 20 20 47l-4 8q0 5 4 5q2 2 -2 10q14 65 15 71h4q-4 9 -2 11q15 69 18 69q1 2 0.5 3t-2.5 1q6 49 66 74h4q34 0 43 -41l-4 -6v-18q-13 -29 -13 -33t4 -4q-15 -68 -20 -68l2 -8q-13 -63 -19 -78q3 -10 7 -10q-9 -43 -17 -43q-1 -1 -0.5 -2.5t2.5 -1.5l-6 -19l-20 -114h-4 l4 -8q0 -5 -4 -5l2 -6q0 -4 -4 -4l2 -8l-5 -10q0 -25 -2 -33l-2 -23q0 -4 -4 -4l2 -8q0 -4 -4 -4q0 -2 4 -2q-1 -2 -2.5 -5.5t-2 -5t-1 -4t0 -5.5t1.5 -7q-8 -19 -8 -32v-19h-4l4 -8q0 -2 -4 -2v-27q0 -2 -8 -30q-4 -4 2 -4q0 -3 -4 -11q-3 -60 -2 -69l-6 -9q-7 -86 -7 -159 h-2l6 -47l-4 -9q6 -86 31 -141q73 -113 156 -113q-1 -1 1.5 -2.5t8 -2.5t13.5 -1.5t20 -1.5q4 0 4 4l18 -4h37q101 9 146 37q17 0 129 92q13 13 38 54q-3 0 6 13t21 33.5t14 32.5l-4 9q6 14 11 14l-2 8q21 24 36 107q8 0 17 41q0 4 -2 4q24 78 37 129q-2 6 -2 12h4l-4 25 l4 8q-4 8 -2 14h4q0 4 -4 4q10 27 14 33l-8 4q14 38 14 51l-2 8q0 5 4 5l-2 18l12 84q2 10 2 41l7 10l-7 17l5 10v28l6 13l4 133l6 6q-4 11 -2 16q0 4 4 4q-7 58 2 148q13 0 25 27q21 6 26 6q0 -4 4 -4q3 12 6 12q22 -12 41 -35v-2l-2 -8q7 0 4 -6v-4q0 -5 -4 -5 q-3 -65 4 -65l-2 -8l-4 -27q-3 -8 0 -14l-4 -8q3 -6 0 -15q-2 0 -2 -4q6 0 6 -28l-6 -21q-9 -139 -6 -166h-4q2 -4 2 -10q-6 -6 -6 -10l6 -4l-4 -9v-10l-2 -22q-1 -2 -1.5 -5t-1 -5t-1.5 -3l2 -6q-4 -12 -4 -14l6 -4q-18 -75 -27 -78q8 -3 8 -8l-6 -37l-4 -47l-14 -60l2 -8 l-27 -74q0 -4 4 -4q-25 -88 -49 -151q2 -4 2 -10q-3 -38 -59 -138q-6 -46 -131 -159q-149 -101 -240 -101q-2 0 -10 -4q-4 0 -4 4q-25 -2 -55 -10l-9 4l-12 -4q-2 0 -2 4l-18 -4l-19 4l-12 -4v4q-2 0 -2 -4q-100 0 -201 78q-91 94 -100 293q3 35 -2 80z" />
<glyph unicode="v" horiz-adv-x="1107" d="M182 1319q0 4 4 4l-2 6q5 29 15.5 42t36.5 13q0 5 12 5q9 -3 6 -9l8 4h4q22 0 31 -61q0 -4 -4 -4q9 -15 18 -86q34 -145 56 -270q13 -21 51 -328h-4q25 -119 28 -242q2 0 2 -4h-2q9 -107 23 -176l-2 -8h8q51 111 102 203l-2 8q86 154 199 385q79 137 82 166q8 0 20 37 l117 239q27 64 35 64l-2 8q14 14 14 22q-2 4 -2 11q9 18 53 36h13q8 0 12 -4l12 4l11 -14q-23 -83 -52 -119l2 -8l-36 -61l2 -8q-74 -144 -166 -345q-13 -17 -66 -137q-6 0 -71 -121q0 -7 -89 -174q5 0 5 -4q-13 -13 -62 -114q-94 -209 -131 -259q-35 -30 -41 -30 q-58 0 -55 100q-34 205 -37 375l-53 414l-31 125h4q-15 53 -18 86l-27 79l6 9q-12 25 -29 122q-2 0 -8 19z" />
<glyph unicode="w" horiz-adv-x="1314" d="M186 1352q6 14 17 14h10q3 21 31 43l16 -2q4 2 10 2q15 -3 15 -10q-2 0 -6 -4q6 -9 18 -76l-4 -8q7 -13 4 -19h-4q0 -13 8 -84h-4q4 -19 2 -28h-2q5 -21 8 -123l-2 -8q11 -55 14 -119q10 -46 13 -129q4 0 4 -2q-4 -4 -6 -4q14 -98 20 -285h-4q0 -44 10 -86l-4 -8 q2 -4 2 -17h-4q10 -127 2 -166h4q45 117 88 207q24 40 37 84h4l-2 8q18 43 27 43v5l-4 10q8 4 10 4v4q2 6 -2 14q6 6 6 15l-2 8q5 0 10 8q0 4 -4 4q41 87 56 148q32 48 45 112q3 0 18 27h14l-4 6l2 10h6l-2 -10h5q3 10 10 10q2 0 2 -4q28 3 31 12q21 0 30 -96q6 0 6 -28 q-4 0 -4 -5q7 -4 31 -104l55 -186q2 -18 2 -31h-4q30 -114 43 -195h4q41 142 47 142h3q4 4 0 4q3 22 10 33q-4 8 0 24q0 4 4 4l-4 8q15 31 20 33l-4 8q12 21 12 29q-2 4 -2 10q15 27 41 117h2q0 2 -2 2q14 52 25 74l-4 8q10 29 14 29q-2 6 -2 12l6 12l-2 8q15 37 19 37 q0 2 -2 2q12 35 12 41q-4 9 -2 11q10 3 10 8q2 12 2 22q8 11 8 21q1 2 0.5 3t-2.5 1l13 49v2h-3v-6h-6v8q3 8 9 8q-4 -4 0 -4l2 8l-5 11q2 0 7.5 12t7.5 24h4l4 23q0 2 -4 2q15 53 29 78v4h-5v-8h-4q0 7 11 22v19q7 0 10 10v14q6 41 29 64v4q-7 0 -7 6l9 4q6 0 2 -4 q35 14 47 14q3 -8 8 -8q0 4 4 4q3 -7 0 -10h8l2 6h8q-3 -6 7 -16q-11 -4 -11 -8q0 -5 4 -5q-6 -6 -6 -10l4 -8q-6 -6 -6 -10l2 -6l-22 -54l2 -6v-4q-21 -90 -29 -98l4 -6q-8 0 -26 -84h-4q0 -4 4 -4q-11 -53 -47 -158q0 -2 4 -2q-6 -25 -24 -87.5t-31.5 -110.5t-12.5 -48 q-9 -38 -14 -43q-4 -4 2 -4q-12 -43 -17 -43q0 -2 4 -2l-51 -158q-3 -17 -8 -24q0 -4 2 -4q-6 -27 -10 -27q0 -2 4 -2q-21 -98 -25 -98q0 -4 2 -4q-16 -68 -34 -95q0 -4 4 -4l-15 -45l2 -8q-12 -31 -24 -31q-3 -31 -49 -43q0 -8 -11 -8q-39 9 -36 39q-10 0 -19 74h4 q-21 204 -59 317q-17 100 -70 291h-4q-9 -34 -22 -57q2 -6 2 -13q-9 -5 -35 -75v-9q-34 -70 -64 -168q-9 0 -55 -112q-6 0 -18 -53l-1 -4q-1 -3 -5 -11l-8 -16t-10.5 -22.5t-12.5 -26.5q-32 -50 -78 -140q-12 -15 -45 -24h-12l-9 6h-2l-10 -2q2 2 -12 16q4 4 6 4 q-7 68 -8 91h4q-2 61 -8 100l4 6q-6 27 -6 29l6 8l-6 211l2 6q-6 100 -4 106q4 8 4 11q-6 0 -6 49q4 0 4 4q-11 0 -11 82q-7 26 -10 78h4q-14 77 -14 123h2q-15 70 -18 211h2l-7 67h5q-5 10 -2 37h4q-6 30 -11 115z" />
<glyph unicode="x" horiz-adv-x="1081" d="M-12 49q0 4 4 4l-2 6v4q40 45 168 234q63 69 67 88q113 140 250 330q-50 88 -194 393q-83 179 -80 197h4l-2 6l4 8q-10 0 -10 14l6 8q-4 8 -4 11q28 22 28 28h29l10 4v-6l8 2q9 -20 17 -20q21 0 80 -146q62 -135 110 -235q-1 -4 27 -59q21 -57 47 -97h4q151 210 219 287 q15 12 76 100q5 0 94 95q55 79 101 88h18q47 -33 51 -52h-4l2 -8v-4q-43 -29 -106 -115q-20 -14 -158 -170q4 0 4 -4q-13 -13 -248 -321q108 -164 289 -582q4 0 45 -80l-6 -14q6 -3 6 -8l-6 -4q-12 4 -16 4l6 -12v-3q-5 -8 -54 -30q-50 0 -135 223q-10 0 -86 180 q-17 17 -84 166q-13 10 -28 53h-9q-18 -18 -59 -73q-30 -35 -102 -131l-203 -267q-61 -103 -113 -141l-6 4q-30 -6 -33 -6q-13 0 -16 33h2z" />
<glyph unicode="y" horiz-adv-x="1107" d="M195 1399q9 26 16 26h4q4 0 4 -4q8 4 10 4l15 -4q2 1 5 2l4.5 1.5t2.5 0.5l8 -12l6 4q27 -27 113 -207q29 -41 100 -196q35 -61 107 -221q4 0 63 77q116 140 228 304q29 23 149 202q9 0 49 64q16 22 23 22h4q4 0 4 -4l6 4h17q23 -29 20 -55q0 -8 -41 -64q-2 -8 -61 -81 q-117 -170 -238 -318q-47 -74 -160 -205q-30 -48 -35 -77q-4 -32 -8 -44l2 -8l-8 -24q0 -4 4 -4l-6 -21l-4 -29l-4 -4l2 -6l-2 -14q0 -4 -2 -4q-4 -4 0 -4l-4 -19l-10 -73q0 -2 -1.5 -3.5t-3.5 -1.5l2 -8l-20 -151v-15q-5 -16 -6 -24v-27h-2v-8l-8 -96h-4l2 -6 q-9 -64 -52 -64q0 -4 -4 -4q-38 0 -32 70h4l-2 8v4l6 14q-4 8 -2 15v4q4 4 6 4q-1 2 -2 4.5t-1.5 3.5t-0.5 2q4 51 8.5 98t7.5 75.5t4 35.5l17 113q0 4 4 4q-2 6 -2 12l10 41l-4 6l8 23v4q2 6 -2 14l6 6l-2 25v2q4 4 6 4l-4 6q0 4 4 4l-2 8l6 41q6 31 10 41 q-103 220 -172 340q0 15 -36 88l-99 174q-39 45 -30 105z" />
<glyph unicode="z" horiz-adv-x="1089" d="M8 66q20 33 64 84q15 30 82 110q4 15 118 150q53 68 174 198q76 87 121 150q22 15 90 110q42 42 209 252q97 105 105 129q44 47 59 68q-4 0 -4 2l-8 -2h-47q-13 0 -13 -4l-16 4h-108q-5 0 -5 2l-8 -2q-16 2 -28 2q-9 0 -9 -2l-36 2h-21q-75 0 -106 8q-50 -4 -68 -4h-23 l-26 -4v4q-10 -3 -41 -6v2l-6 -2q-4 0 -4 2q-4 0 -4 -2l-25 2h-27q-10 0 -14 -2q-69 0 -78 61v4q6 37 78 52v-4l8 4q32 -7 45 -7q64 3 78 3q6 -3 10 -3q9 3 13 3q2 0 2 -3l67 7v-4q4 0 4 4q3 0 11 -4q4 0 12.5 0.5t23.5 1.5t29 2q7 0 82 -7q1 0 16 3l17 -3l8 3q22 -3 20 -7 l9 4h20q21 0 51 3q14 -7 27 -7h133q6 0 18 4q4 -4 9 -4l10 4q20 -3 39 -22q19 -6 16 -19q-4 -4 -12 -36q4 -16 4 -23l-8 -4q0 -4 4 -4q-3 -22 -82 -111q-3 -15 -115 -133q-5 -11 -78 -92q0 -9 -57 -78q-53 -77 -108 -129q0 -9 -187 -233q-24 -19 -96 -115q-43 -44 -102 -115 q4 0 4 -4q-24 -17 -58 -65q-30 -23 -73 -105q-12 0 -23 -33q4 -4 8 -4q12 4 13 4l-2 -4q2 0 6 4q5 -2 6 -4q1 0 6.5 0.5t18 1.5t26.5 2q24 -1 47.5 -2t36 -1.5t16.5 -0.5l11 4l4 -4l10 4l6 -4l8 4q13 -3 13 -8l47 8l6 -4l4 4q36 -8 80 -8l33 4v-4l8 4h14q8 -3 8 -8l6 4 q83 3 88 8q13 -3 13 -8l8 4h25q4 0 4 -4l8 4h88l47 4l-2 -4q2 0 6 4l23 -4h26q34 -21 37 -36v-5q-15 -55 -39 -55q0 -2 -4 -10l-16 4h-8l-21 -4l2 4l-8 -4q-6 0 -2 4l-10 -4l-10 2l-7.5 1.5t-3.5 0.5q-4 0 -8 -4l-25 4h-45q-4 0 -16 -4l-4 4l-23 -4l-4 4l-12 -4l-6 4 q-12 -4 -19 -4h-2q-6 0 -2 4l-10 -4h-2q-6 0 -2 4l-10 -4h-60l-18 -4v4l-6 -4h-31q-6 0 -14 -4q-13 3 -13 8q-8 -4 -10 -4q-17 0 -143 4l-8 -4l-9 4q-6 0 -6 -4l-139 8q-29 -6 -29 -12q-8 4 -10 4q-8 -4 -10 -4v4q-20 -6 -23 -12q-11 8 -37 8q-2 0 -14 -4q-4 4 -12 4 q-1 0 -13 -4q-6 0 -32 26q-11 0 -23 56z" />
<glyph unicode="{" horiz-adv-x="544" d="M100 723v8l6 6h-4q3 23 23 37q119 52 119 60q27 0 61 110q-4 0 -4 4q8 23 4 31l12 27h-4q0 2 11 24q0 6 -2 12q4 15 10 60l10 69q13 90 57 162q48 97 146 142h18q8 0 82 4l43 -54q-3 -39 -96 -39q0 3 -4 3q-24 -9 -51 -29q-35 -24 -72 -141h2q-9 -45 -12 -48h4 q0 -7 -6 -16q0 -6 2 -10l-19 -115l-2 -4l-6 -18q4 0 4 -2q-19 -79 -43 -150q-56 -95 -125 -129q20 -34 35 -115l-4 -8q7 0 4 -37q-4 0 -4 -4q4 0 4 -33q-6 -6 -6 -10l2 -8l-4 -6q4 0 4 -4q-3 -27 -12 -56q0 -6 2 -12l-6 -20l-7 -41v-27q-4 0 -4 -4q-2 -2 2 -10q0 -4 -6 -13 q-3 -225 19 -225q-3 -19 24 -32.5t86 -22.5q0 4 2 4q0 -8 13 -8q13 -29 18 -29q0 -4 -4 -4q-2 -3 2 -18q-39 -33 -62 -33q-65 9 -65 14q-75 0 -96 43q-39 45 -45 195q4 0 4 2q-6 0 -2 4v4q4 44 2 63l6 7q-3 37 2 73q0 4 6 13l-8 4l6 16l4 37l6 8h-4l6 19v53q4 0 4 4 q3 90 -2 90l4 8h-2q-6 48 -49 88l-6 -2h-4q-12 5 -29 29z" />
<glyph unicode="|" horiz-adv-x="204" d="M-33 -311l6 35q3 11 0 20l7 10l12 154q4 4 6 4q4 75 16 154q4 0 4 4q-12 0 0 20q-2 3 -1.5 8t1 6.5t2.5 5.5t3 5q-3 9 -3 16l7 10q-3 9 0 21h4l-2 8l16 98q4 28 4 41q8 23 10 39l4 31q3 12 3 20l1 2.5t2 4.5t1.5 4.5t0 4t-2.5 1.5l6 24l2 27h2v8q0 6 4 6l-2 11l4 30 q0 4 4 4v17q24 188 33 227v27q5 12 7.5 32t2.5 33.5v14.5q0 6 2 6q2 18 7.5 52.5t6.5 47.5l25 143l2 31q4 6 8 25v24h4l-2 11q3 6 6 6l-4 10q13 92 9 117l10 20l-2 21h4q-3 19 4 69l6 23q0 11 6 76l6 10l2 30l45 23h23q15 0 12 -109l-4 -34l4 -17v-4q-5 -16 -8 -20l4 -11 q-4 -4 -6 -4l-18 -219l-4 -10l-3 -31l-2 -10q0 -4 -4 -4l2 -10l-10 -52q0 -3 -1 -4t-3 0l2 -12l-4 -14q0 -4 -2 -4v-11l-8 -51q-32 -213 -45 -329h-4l4 -11q-3 -14 -6 -14v-12l-7 -45l-2 -35h-4l2 -10q-4 -7 -6 -7l2 -10l-4 -4l2 -10l-49 -295l-6 -62h-4v-10l-13 -65 q-2 -12 -2 -45l-4 -11q-24 -194 -30 -301q-7 -11 -7 -14l3 -10q-15 -35 -35 -49h-29q-2 0 -2 6l-6 -6q-19 4 -27 47z" />
<glyph unicode="}" horiz-adv-x="593" d="M59 -16q6 8 11 18q-2 0 -2 4q1 0 24 29q12 0 12 8q5 0 5 -4q118 18 124 55q21 0 80 225q-2 6 -2 13l6 10q0 4 -4 4l9 27l6 41l-2 20q6 9 6 12q0 24 4 56q0 4 4 4l-4 6l6 8q0 6 -2 10q9 33 12 33q0 4 -4 4q9 37 17 37l-3 8q43 87 68 115q-63 34 -90 129q-6 62 0 150 q0 2 4 2l-2 18l2 4q7 58 10 115q6 6 6 10q-2 6 -2 16h4q-5 5 -2 48h5q-5 88 -18 119t-58 51q-4 0 -4 -3q-46 0 -67.5 9.5t-20.5 29.5l59 54q74 -4 82 -4h18q92 -48 107 -142q22 -80 10 -162l-10 -69q-1 -8 -2 -29t-2 -31l-4 -12q2 -12 2 -24h-2l2 -27q-9 -21 -4 -31 q0 -4 -4 -4q3 -110 28 -110q0 -7 103 -60q17 -17 14 -37h-4l2 -6v-8q-24 -24 -37 -29h-4l-6 2q-58 -42 -72 -88h-4l2 -8q-9 0 -27 -90q0 -4 2 -4l-14 -53q4 -9 2 -19h-4l2 -8l-4 -37v-16l-6 -4q2 -6 2 -13q-5 -37 -18 -73l2 -7q-15 -37 -17 -63v-4q-4 -4 -6 -4q0 -2 4 -2 q-47 -149 -96 -195q-34 -43 -111 -43q0 -5 -67 -14q-27 0 -56 33z" />
<glyph unicode="~" horiz-adv-x="778" d="M80 588h4l-2 6l6 41q11 22 23 59q56 81 102 101q37 16 47 16q4 0 2 -2l10 2h19q76 0 196 -172q38 -23 45 -23h11q52 24 55 33q10 23 16 23l-2 8v2q0 4 4 4q-2 6 -2 49q5 0 7 2q-7 0 -7 8h2v13l46 51q6 2 12 2q48 -3 45 -25q2 -6 2 -12l-6 -10q5 0 12 -10l-2 -4 q0 -10 -10 -23l2 -18q-15 -113 -137 -185v4q-34 -18 -52 -18q-4 2 -14 2q-6 -2 -12 -2v2l-6 -2q-103 47 -111 84q-9 0 -74 92q-28 31 -71 31q-71 -44 -80 -119q3 -15 0 -33q-2 0 -27 -22h-33l-6 4q-4 -4 -6 -4q4 4 -2 4l4 6q-13 16 -10 35z" />
<glyph unicode="&#xa1;" horiz-adv-x="276" d="M68 2l4 31q1 6 1.5 14.5t1 21.5t1.5 23q0 4 4 4l-2 19l4 28q4 28 4 54q0 2 4 2l-2 18l4 23q0 7 6 16q3 41 -2 41l6 16l15 105q0 10 -2 14q0 4 4 4l4 121h4q-2 6 -2 41l6 8v49h2l2 97h2l-2 6l4 26l2 158h4q-2 6 -2 45h4l-4 8l2 6q0 5 5 5l-5 8l2 8q0 2 5 2q0 4 -5 4l9 19 l4 36l6 9l-8 4q10 10 22 73q26 33 74 33l37 -33l-4 -8l6 -10l-6 -8l4 -6q-16 -52 -21 -72l2 -14q-6 -6 -6 -15q0 -4 4 -4l-8 -18q-13 -108 -16 -363l-6 -8l2 -47q0 -4 -4 -4v-84h-5l3 -8l-15 -117q-2 -2 -6 -2l4 -8q-15 -71 -18 -97q0 -2 4 -10q-6 -6 -6 -14l-6 -39l2 -20 l-7 -9l2 -8q0 -5 -6 -14q-4 -99 -10 -152q-21 -41 -57 -41q3 8 -6 8l-13 -8h-8q-25 3 -22 33zM178 1294l2 4q0 5 4 5l-4 6l2 4q6 42 64 69q6 -2 12 -2l6 2q34 -15 43 -55l-2 -6h-4l6 -18q-14 -33 -37 -46h-10q-64 0 -82 37z" />
<glyph unicode="&#xa2;" horiz-adv-x="1138" d="M80 477q-3 40 2 121l6 8q-3 9 -0.5 23t6.5 14q0 4 -2 4l6 19l6 49q35 242 232 506q168 165 307 165q31 3 31 9l18 -4h56v2l59 127q35 17 39 28h28q2 0 3 -1.5t0 -2.5l10 4h6q33 -26 27 -63q0 -10 -50 -113q29 -8 41 -10q10 -13 68 -41q22 -25 20 -27l-4 -41 q-15 -18 -32 -18l2 4l-11 -4h-4q-44 36 -123 51q-31 -67 -77 -199l-414 -964q107 -76 231 -76q163 0 310 170q8 0 24 16q10 -3 10 -8l9 4h14l6 -4q0 4 4 4l14 -18q-6 -6 -6 -14q10 0 0 -21q2 -4 2 -10q-102 -110 -159 -137q-68 -39 -99 -39q-15 -12 -92 -21l2 4l-10 -4h-37 q-104 12 -113 21l-8 -4q-87 25 -135 57q-15 -35 -20 -35l2 -20q-23 -51 -64 -51v4l-8 -4h-4q-45 26 -39 67q14 39 25 39q4 4 -2 4l30 72l-30 24q-131 195 -113 334zM170 436q6 -109 88 -231q91 213 125 272q0 6 -4 6q43 93 43 101q-4 0 -4 4q6 0 24 59q16 19 19 19l-4 8 q21 53 28 53l-4 8q28 58 119 277q35 56 111 286h-6q-20 -4 -27 -4l2 4q-51 0 -154 -41q-122 -88 -137 -129q-111 -149 -121 -206q-34 -72 -53 -138q-2 0 -2 -4l-6 -32q0 -5 -4 -5l2 -8l-21 -92q0 -10 2 -14l-8 -33v-4q-5 -37 -2 -72h-4q-2 -44 2 -84h-4z" />
<glyph unicode="&#xa3;" horiz-adv-x="911" d="M2 668q6 0 21 18q11 0 47 19l36 -5q8 0 22.5 1t38 2t44.5 2v18l2 27q3 10 6 10l-2 18l6 45q1 5 15 70q-2 4 -2 10h4q0 4 -4 4l16 78v8q4 11 2 11q6 40 10 40l-2 9q41 151 47 151q0 2 -4 2q12 38 33 62q-4 0 -4 2q10 0 22 35q105 135 289 135q13 0 25 -6l8 4 q65 -12 145 -101h4l-6 -18q9 -4 10 -15.5t-2 -23.5q-26 -33 -49 -33l-16 -4q-64 98 -176 98h-10q-27 -8 -33 -8v4q-83 -27 -127 -77q-28 -36 -62 -156h-4q-1 -1 -0.5 -2.5t2.5 -1.5q-15 -46 -18 -78l4 -6q-5 -7 -14 -35q0 -10 2 -14q-5 -17 -9.5 -41.5t-5.5 -28.5 q0 -6 -4 -14q3 -8 0 -17l-4 -28q0 -4 -2 -4q-3 -25 2 -25l-6 -21l-4 -28l2 -19h-4q0 -4 4 -4l-8 -18v-4q76 -6 108 -6q2 0 2 4l21 -4h24q14 0 50 -4q12 4 18 4l-2 -4q2 0 6 4q36 -4 45 -4l12 4q12 -1 35 -9l21 5q9 -1 17.5 -2t13 -2t6.5 -1l28 9q30 -9 40.5 -17t6.5 -20 q-13 -10 -22 -45l-39 -13l-6 4l-10 -4q-24 4 -27 4q-9 0 -21 -4q-32 4 -38 4h-33q-4 0 -4 5q-2 -1 -5 -2t-5 -2t-3 -1l-8 5l-10 -5v5l-6 -5q-10 1 -19.5 2t-14.5 2t-7 1l-23 -5q-5 1 -16 3t-16 2l-23 -5q-25 5 -27 5t-32 -5q-35 5 -41 5q-8 -59 -2 -74l-7 -8q3 -42 0 -60h-4 q2 -2 0.5 -24.5t-4.5 -32.5q3 -34 0 -49h-4l2 -8l-2 -15v-37h-4q0 -4 4 -4q-26 -126 -69 -194q-5 0 -5 -4v-4q12 -1 20.5 -3t12 -3.5t2.5 -2.5q2 0 6 4q35 -8 162 -14q24 4 29 4l14 -4q20 4 27 4v-4l8 4l25 -4l32 4q11 0 19 -4q54 4 61 4h113q12 0 16 2q40 0 31 -69 q-15 -26 -45 -33q0 -4 -4 -4l-35 4l-16 -4l-9 4l-18 -4q-34 3 -45 8q-11 -5 -43 -8l-8 4l-23 -4h-26q-2 0 -2 4l-9 -4l-26 4l-6 -4q-12 4 -17 4h-4q-8 0 -12 -4q-12 4 -17 4q-8 -4 -10 -4v4l-8 -4h-4q-2 0 -2 4q-2 -1 -5 -2l-4.5 -1.5t-2.5 -0.5q-48 3 -48 8l-8 -4 q-6 0 -14 4q-8 -4 -14 -4q-81 13 -88 14q-5 0 -5 -4l-18 4h-55q-7 0 -15 -4l-12 4l-24 -4q-42 0 -33 64q41 53 63 53q33 46 58 92q0 2 -4 2l16 45q0 4 -4 4l14 37q-7 40 8 55l-2 47l4 9v14.5v12v9t0.5 8t1.5 5.5t2 5.5t3 4.5q-3 6 -3 10h3v45h4v52h4q-3 18 0 45h-4 q-29 -7 -76 -11v2q-6 -3 -37 -6v4l-59 -12q-32 28 -23 68z" />
<glyph unicode="&#xa4;" horiz-adv-x="714" d="M80 481l2 17l10 10h-8v6q94 76 94 86q-10 31 -16 115q22 58 41 92q-12 0 -56 74q-6 0 -14 14l6 12q-7 0 -10.5 3t-1.5 8q0 4 4 4l-2 18q6 41 25 41l12 4q19 -3 29 -10l8 4q51 -71 61 -105h4q4 12 121 41l-2 -4l10 4q33 0 78 -26h6q3 14 99 86q8 4 18 4q42 -20 39 -39v-6 q-6 -39 -98 -119h-4v-4q13 -29 16 -44.5t0 -33.5q0 -4 -2 -4q0 -4 2 -4q-6 -24 -6 -37q-6 -31 -27 -61l62 -101l2 -18q-12 -27 -33 -51l-2 -4h-12q-41 0 -62 61l-18 23q-68 -56 -131 -56v4l-7 -4q-26 0 -96 31q-76 -82 -98 -82q-28 0 -43 51zM244 705q18 -119 61 -119 q79 0 144 92l18 47q-3 11 -2 12q4 0 4 4q-12 0 -12 7l2 8l4 8q-9 0 -23 33q-38 14 -65 14q-106 -27 -115 -78q-7 0 -16 -28z" />
<glyph unicode="&#xa5;" horiz-adv-x="1032" d="M195 1399q9 26 16 26h4q4 0 4 -4q8 4 10 4l15 -4q2 1 5 2l4.5 1.5t2.5 0.5l8 -12l6 4q27 -27 113 -207q29 -41 100 -196q35 -61 107 -221q4 0 63 77q116 140 228 304q29 23 149 202q9 0 49 64q16 22 23 22h4q4 0 4 -4l6 4h17q23 -29 20 -55q0 -8 -41 -64q-2 -7 -61 -81 q-117 -170 -238 -318q-7 -10 -23 -32t-32.5 -44t-32.5 -43q2 2 4 2q4 0 0 -4l10 4h37q0 -2 -2 -4l6 4h17l6 -4q8 4 12 4h2l4 -4l6 4v-4l4 4l7 -4q4 1 9 2l7.5 1.5t3.5 0.5l-2 -4q8 8 14 8h7q7 0 4 -45h2q-6 -38 -21 -47l-4 -4l-10 4h-33q-2 0 -2 2l-4 -2h-12q-4 0 -6 2 q-2 -2 -7 -2q-4 0 -6 2q-2 0 -2 -2l-8 2l-8 -2q-2 2 -6 2l-6 -2q-5 0 -5 2l-20 -2h-6q-27 0 -45 2q-2 -2 -6 -2q-2 2 -7 2l-2 -2q-2 0 -2 2l-2 -2q-30 -48 -35 -77q-4 -32 -8 -44v-2h35q4 0 4 -4l6 4h33l25 -4q8 4 16 4h4q5 0 17 -4l6 4l8 -4q2 0 2 4l16 -4q9 1 18.5 2 t14.5 1.5t8 0.5v-4q15 6 31 6h10q18 0 21 -43h4q-6 -40 -41 -49q-4 0 -4 -4l-27 4h-74q-2 0 -2.5 1t0.5 3l-8 -4h-26q-9 0 -13 4q-12 -4 -18 -4q-4 0 -8 4l-4 -4l-19 4l-18 -4q-8 4 -11 4l-16 -4q-4 0 -6 2l2 -6l-2 -14q0 -4 -2 -4q-4 -4 0 -4l-4 -19l-10 -73 q0 -2 -1.5 -3.5t-3.5 -1.5l2 -8l-20 -151v-15q-5 -16 -6 -24v-27h-2v-8l-8 -96h-4l2 -6q-9 -64 -52 -64q0 -4 -4 -4q-38 0 -32 70h4l-2 8v4l6 14q-4 8 -2 15v4q4 4 6 4q-1 2 -2 4.5t-1.5 3.5t-0.5 2q4 51 8.5 98t7.5 75.5t4 35.5l17 113q0 4 4 4q-2 6 -2 12l10 41l-4 6l4 12 l-68 4q-12 -4 -16 -4l-8 4l-11 -4q-2 0 -2.5 1.5t0.5 2.5l-71 -8q-61 11 -63.5 33t46.5 45q3 12 11 12l8 -4q2 0 2 4q2 0 10 -4q84 8 168 8q2 0 4 -2l6 37q6 31 10 41l-22 47h-12q-2 0 -2 2l-4 -2h-13q-4 0 -6 2q-2 -2 -8 -2q-4 0 -6 2v-2l-10 2l-9 -2q-2 2 -6 2l-6 -2 q-4 0 -4 2l-23 -2h-6q-27 0 -45 2q-2 -2 -8 -2q-2 2 -6 2l-2 -2q-2 0 -2 2l-37 -6q-10 3 -16 8.5t-8 12t-1 13.5t5 15t9 15t11 14q0 10 4 10l4 -4q2 0 2 4l4 -4q41 8 82 8q1 0 2 -0.5t3.5 -1.5t4.5 -2q4 4 7 4q4 0 0 -4l10 4h39q0 -2 -2 -4l6 4h6q-46 97 -107 205 q0 15 -36 88l-99 174q-39 45 -30 105z" />
<glyph unicode="&#xa6;" horiz-adv-x="247" d="M-6 -47l6 27l10 73q0 4 2 4v6l4 27q0 6 4 14q-3 7 0 17l1 3q1 3 1 6l1 3l4 21v16l4 12v15q0 8 2 8l4 45q3 22 10 62t8 48q-2 5 1 15l3 10l-2 8q0 4 2 4l4 70q21 68 48 68q16 0 34 -41q12 0 7 -15q0 -4 2 -4q0 -2 -4 -10q-4 -61 -17 -168q0 -4 -8 -23q4 -8 2 -10 q0 -4 -4 -4l2 -18l-10 -78q-4 -4 -6 -4l4 -6l-4 -33l-9 -25q4 -9 2 -16v-4l-6 -17l2 -6q-3 -9 -2 -10l-6 -16v-41h-4q7 -14 2 -39q-4 -18 -49 -27v-4q-38 0 -41 33q0 4 -4 4zM131 948l8 27l11 74q0 4 2 4l-2 6l4 26l4 15v14l4 12q0 2 -2 2l6 21v16q1 2 1.5 5t1 5t1.5 3 l-2 14q3 8 4 8l4 43q3 30 19 113q-2 1 0 12t2 12v9q0 4 2 4l4 69q18 68 45 68q16 0 37 -41q11 0 6 -14q-1 -1 -1 -3t1 -2q0 -6 -2 -12l-19 -166q0 -4 -6 -22q2 -4 2 -10q0 -5 -4 -5l2 -18l-12 -78q0 -4 -4 -4l4 -6l-6 -35l-6 -22q3 -6 0 -19v-4q0 -3 -7 -14l5 -6l-7 -9 q0 -4 5 -4l-7 -14q0 -35 -2 -41h-4q7 -13 2 -41q-3 -17 -47 -25l-2 -4q-38 0 -41 33q0 4 -4 4z" />
<glyph unicode="&#xa7;" horiz-adv-x="667" d="M-41 -47q22 22 33 22q44 -6 41 -43h-2q35 -136 100 -163q36 -12 135 -23q82 3 142 51q67 49 73 123q9 125 -51 197q-10 26 -72 65q-7 7 -98 58q-84 72 -117 122h-2v3q-9 14 -12 28q-38 44 -47 135l4 4q-2 -2 -6 5l2 22q3 5 -2 10q2 6 2 11l2 6q9 72 86 131q12 23 141 82 q30 7 84 16v-4l4 4l62 -6q-14 14 -41 31q-12 12 -98 57q-107 88 -132 154q-36 44 -45 135q2 0 2 4q-8 0 -4 4v23q3 6 0 12q3 8 11 8l-7 6q6 71 84 131q11 22 140 82q80 17 86 17l-2 -3l6 3q79 -3 112 -21q75 -41 105 -121q0 -21 4 -49q-4 -4 -4 -10l4 -4q-21 -27 -37 -27 q-38 -3 -35 39q-12 57 -39 66q-27 34 -75 49h-54q-75 -3 -194 -101q-29 -48 -35 -77q3 -38 8 -50h-4q12 -53 72 -131q39 -48 98 -84l68 -41l82 -63q54 -63 73 -133q11 -73 8 -113v-29q-21 -92 -61 -129q-68 -74 -170 -102q-2 0 -6.5 -0.5l-13.5 -1.5t-19 -2l2 2l-6 -4h-20 q-42 0 -58 2q33 -27 62 -41q32 -24 67 -41l78 -66q55 -64 76 -135q14 -90 6 -129q0 -6 4 -10q-24 -91 -65 -129q-70 -76 -168 -100q-10 0 -37 -9v5l-6 -5h-19q-95 3 -108 11l-6 -2q-47 13 -66 20q-2 -2 -4 -2q-43 27 -43 35q-51 54 -57 100q-6 0 -21 72v41zM152 559l6 -49 h-2q6 -26 39 -86q37 -10 133 -21q79 3 141 52q47 34 64 77t10 111q-11 36 -33 45q-23 34 -74 49h-53q-86 -3 -195 -98q-27 -41 -36 -80z" />
<glyph unicode="&#xa8;" horiz-adv-x="614" d="M174 1317l4 6q-3 6 0 16q60 60 94 60h15q27 -9 40 -21.5t11 -27.5q7 0 4 -33h-4l2 -8q-3 -32 -76 -60h-14q-39 0 -74 54q2 6 -2 14zM479 1335q6 43 72 64h29q32 -17 51 -62l-6 -16l-4 -27q-37 -49 -74 -49q-75 9 -66 76q-5 0 -2 14z" />
<glyph unicode="&#xa9;" horiz-adv-x="1398" d="M76 543l6 6q-4 11 4 26l-8 5q6 18 10 18l-2 6v4q6 45 12 45v19l6 43q10 10 19 59q35 97 96 221q81 118 146 189q125 101 192 125q16 16 184 37q3 -1 5 -2t3.5 -2t2.5 -1q4 0 4 5l18 -5h29q101 0 219 -36q125 -34 266 -265q44 -76 76 -200l-2 -6q0 -5 -4 -5q6 -15 6 -36 q-1 -3 -3 -6q-1 -4 -1 -5q6 -3 6 -8q0 -4 -4 -4l4 -37l-6 -22l-2 -6l2 -27h-4q0 -4 1 -7l1 -3q-15 -60 -19 -60q2 -2 2 -10q-64 -114 -88 -152q-79 -108 -190 -202q-121 -83 -211 -92q-35 -11 -43 -19q-4 0 -4 4q-12 -8 -57 -16q0 4 -5 4q0 -6 -6 -6l-8 2q-2 -7 -35 -10 q0 4 -4 4q0 -9 -6 -9l-8 5q-7 -1 -117 -15v4l-6 -4h-64q-2 0 -14 -4q-146 29 -174 45q-78 21 -147 131q-27 34 -56 129h4l-16 45l2 9q-6 0 -12 92zM184 541q0 -1 25 -107q7 -25 27 -69q53 -103 120 -123q33 -11 62 -25l10 4l37 -16q6 0 6 4l16 -4h25q4 0 4 -2l25 6l16 -4 q48 3 53 8q2 -1 4.5 -2t4 -1.5t2.5 -0.5q27 8 36 8l19 -4q8 6 40.5 14.5t74.5 12.5q16 12 96 28q86 36 112 49l74 60q170 174 189 291q0 18 2 43h4q0 103 -23 141q-36 118 -96 199q-28 24 -47 59q-43 43 -86 78q-51 51 -131 51q0 4 -6 4q-5 0 -5 -4q-40 6 -86 6v4 q-2 0 -2 -4q-4 2 -12 4q-28 -4 -33 -4v4q-35 -4 -47 -10l-8 4q-92 -12 -160 -63q-92 -54 -133 -129q-16 -14 -63 -82q-39 -59 -90 -181q-5 0 -23 -59q-4 0 -4 -4l-4 -25l-4 -16v-14v-4q-3 -19 -10 -19l4 -6q0 -4 -4 -4q0 -4 4 -4l-9 -25q-4 -24 -4 -67h-2zM438 582 q3 15 6 82q44 325 234 413q54 13 88 15q131 0 176 -60l-8 -47q0 -6 -21 -18h-41q3 13 -110 28q-88 0 -154 -118q-10 0 -57 -136l-10 -77q-15 -114 69 -195q57 -31 97 -31q64 0 137 82q9 6 14 6q67 0 64 -39l-4 -30q-85 -107 -218 -107q-209 0 -262 232z" />
<glyph unicode="&#xab;" horiz-adv-x="911" d="M88 641l4 23q0 4 4 4l-4 6l2 4q3 31 60 59q2 0 153 121q8 0 133 76q4 0 4 -4l19 4h24q31 -19 25 -60q-28 -28 -162 -104q-37 -34 -123 -88v-4q59 -29 285 -119q20 -20 20 -29l-6 -8q4 -8 2 -14v-4q-41 -35 -47 -37q-22 0 -153 55q-209 78 -236 115q-4 0 -4 4zM438 672 l4 20q0 4 4 4l-4 9l2 4q3 32 62 59q2 0 153 121q5 0 132 74q4 0 4 -2l18 2h27q30 -18 24 -60q-30 -30 -162 -102q-43 -38 -124 -88v-4q60 -29 288 -119q14 -18 15.5 -22.5t-2.5 -14.5q4 -8 2 -14v-4q-40 -37 -47 -37q-25 0 -156 55q-209 78 -236 115q-4 0 -4 4z" />
<glyph unicode="&#xac;" horiz-adv-x="1116" d="M90 655v7q6 39 35 49q21 18 35 18h4q4 0 4 -4l6 4q46 -3 43 -8l10 4l13 -4l8 4l6 -4q12 4 14 4l11 -4q12 4 14 4l-2 -4q2 0 6 4l16 -4l4 4l19 -4h143q6 0 76 4l-2 -4l10 4q1 0 3.5 -0.5l7.5 -1.5l10 -2l8 4q6 0 2 -4l39 4h29l20 4v-4q8 4 10 4q47 0 68 6q2 0 2 -4 q72 6 76 8l6 -4q28 4 30 4l-2 -4l11 4q6 0 2 -4q12 4 14 4q6 0 21 0.5t44 1.5t56 2q39 0 33 -125h-4q2 -6 2 -12l-9 -24q0 -4 5 -4q-15 -61 -27 -97q0 -4 4 -4l-8 -26l-4 -25l2 -23q-6 -9 -6 -12q3 -18 0 -37q-49 -37 -93 -37q-21 21 -18 41l4 9q4 4 -2 4l10 32q-3 6 0 15v8 q2 2 4 2q0 4 -2 4q4 18 13 64.5t18 85.5q0 2 -4 2l8 22v37l-416 -18h-49l-37 -4v4l-6 -4h-18q-4 0 -4 4l-8 -4h-125q-4 0 -4 4q-5 0 -5 -4l-36 4h-60q-6 0 -14 -4q-8 4 -14 4q-1 0 -13 -4q-23 1 -34 8.5t-9 21.5q-4 0 -4 4z" />
<glyph unicode="&#xad;" horiz-adv-x="669" d="M139 715q3 10 8 10l7 -4q2 0 6 4q4 0 8 -4q84 8 170 8q1 0 3 -0.5t7 -1.5l10 -2q12 4 13 4q4 0 4 -4l18 4h78q4 0 4 -4l6 4h33l23 -4q8 4 18 4h4q6 0 14 -4l9 4l6 -4q4 0 4 4l16 -4q9 1 18.5 2t14.5 1.5t8 0.5v-4q12 6 29 6h10q15 0 21 -43h4q-6 -40 -39 -49q-4 0 -4 -2 l-27 2h-74q-4 0 -4 4l-8 -4h-25q-4 0 -16 4q-4 -4 -14 -4q-2 0 -10 4q-5 0 -5 -4l-18 4l-18 -4q-3 1 -6 3l-5 1l-14 -4q-8 0 -8 4l-45 -4h-15q-14 0 -96 4q-8 -4 -14 -4q-2 1 -5 2l-4.5 1.5t-2.5 0.5l-7 -4q-4 0 -4 4l-69 -6q-62 8 -64 31t47 47z" />
<glyph unicode="&#xae;" horiz-adv-x="1398" d="M76 543l6 6q-4 11 4 26l-8 5q6 18 10 18l-2 6v4q6 45 12 45v19l6 43q10 10 19 59q35 97 96 221q81 118 146 189q125 101 192 125q16 16 184 37q3 -1 5 -2t3.5 -2t2.5 -1q4 0 4 5l18 -5h29q101 0 219 -36q125 -34 266 -265q44 -76 76 -200l-2 -6q0 -5 -4 -5q6 -15 6 -36 q-1 -3 -3 -6q-1 -4 -1 -5q6 -3 6 -8q0 -4 -4 -4l4 -37l-6 -22l-2 -6l2 -27h-4q0 -4 1 -7l1 -3q-15 -60 -19 -60q2 -2 2 -10q-64 -114 -88 -152q-79 -108 -190 -202q-121 -83 -211 -92q-35 -11 -43 -19q-4 0 -4 4q-12 -8 -57 -16q0 4 -5 4q0 -6 -6 -6l-8 2q-2 -7 -35 -10 q0 4 -4 4q0 -9 -6 -9l-8 5q-7 -1 -117 -15v4l-6 -4h-64q-2 0 -14 -4q-146 29 -174 45q-78 21 -147 131q-27 34 -56 129h4l-16 45l2 9q-6 0 -12 92zM184 541q0 -1 25 -107q7 -25 27 -69q53 -103 120 -123q33 -11 62 -25l10 4l37 -16q6 0 6 4l16 -4h25q4 0 4 -2l25 6l16 -4 q48 3 53 8q2 -1 4.5 -2t4 -1.5t2.5 -0.5q27 8 36 8l19 -4q8 6 40.5 14.5t74.5 12.5q16 12 96 28q86 36 112 49l74 60q170 174 189 291q0 18 2 43h4q0 103 -23 141q-36 118 -96 199q-28 24 -47 59q-43 43 -86 78q-51 51 -131 51q0 4 -6 4q-5 0 -5 -4q-40 6 -86 6v4 q-2 0 -2 -4q-4 2 -12 4q-28 -4 -33 -4v4q-35 -4 -47 -10l-8 4q-92 -12 -160 -63q-92 -54 -133 -129q-16 -14 -63 -82q-39 -59 -90 -181q-5 0 -23 -59q-4 0 -4 -4l-4 -25l-4 -16v-14v-4q-3 -19 -10 -19l4 -6q0 -4 -4 -4q0 -4 4 -4l-9 -25q-4 -24 -4 -67h-2zM510 438l2 4 q9 58 18.5 120.5t13.5 91t7 38.5q10 72 18.5 146t14 117t8.5 63q6 47 98 47h19q168 0 206 -96q11 -37 11 -56l-6 -32q-15 -113 -162 -185q-25 -3 -25 -10q90 -122 148 -235l-4 -37q-6 -41 -72 -41h-8q-25 23 -129 207l-29 32l-14 -100q-7 -84 -9 -96q-3 -20 -43 -47h-22 q-47 0 -41 69zM664 782q60 6 112 43q33 45 37 64q6 51 -45 51q-15 9 -88 18l-2 -4q-2 -39 -14 -172z" />
<glyph unicode="&#xaf;" horiz-adv-x="1187" d="M184 1333q3 35 29 41q0 6 37 27q24 -4 29 -4l12 4l-2 -4l10 4q7 -1 8 -4q32 2 55 8q3 0 3 -4l86 6v-2q4 2 10 2q8 0 8 -2l25 2h86l22 4q4 0 4 -4l17 4h4l22 -4l8 4q3 0 11 -4q3 0 8 0.5t14.5 1.5t18.5 2q14 -1 29 -2t23 -1.5t11 -0.5l25 4l8 -4l12 4q6 0 33 -6q4 2 14 2 v-2l8 2h25q10 0 16 -2l7 2q26 -3 26 -6l19 4h73q4 0 4 -4l19 6q4 0 4 -2l18 2h11q24 0 32 -2l86 6q36 -6 33 -37q0 -8 6 -8q-3 -24 -24 -33q0 4 -2 4l-4 -8q4 0 4 -4q-27 -10 -39 -10l-27 4q-8 -4 -10 -4q-21 3 -21 8q-11 -8 -28 -8h-45q-2 0 -2 4l-9 -4h-45q-4 0 -4 4 l-37 -8q-10 3 -10 8l-6 -4h-27q-6 0 -14 -4l-8 4l-8 -4q-15 3 -15 8q-4 0 -4 -4l-24 4h-13q-6 0 -14 -4q-8 4 -14 4h-21q-4 0 -12 -4q-25 3 -25 8l-6 -4q-4 0 -4 4l-18 -4h-64q-2 0 -2 4q-2 -1 -5 -2l-4.5 -1.5t-2.5 -0.5q-2 0 -64 -4l-16 4q-4 0 -4 -4l-18 4h-5 q-6 0 -14 -4q-4 0 -4 4l-23 -4l-32 4q-12 -4 -13 -4v4q-5 -5 -55 -8q-3 1 -6.5 2t-5 1.5t-2.5 0.5l-43 -8l-6 4q-27 -6 -54 -6l-6 2q0 -7 -8 -7l-8 5q-2 0 -2 -5q-44 0 -64 33z" />
<glyph unicode="&#xb0;" horiz-adv-x="417" d="M184 1325v10q27 55 47 64q81 69 146 69q5 5 6 5q53 0 102 -82q-3 -12 0 -33q-12 -77 -96 -137q-18 -7 -24 -7l-17 3l-6 -3q-4 0 -4 3l-19 -3h-10l-8 3q0 -7 -6 -7h-8q-115 35 -103 115zM283 1321q27 -27 43 -27q40 0 55 64q3 17 -14 31q-9 0 -29 -13q0 4 -4 4 q-45 -45 -49 -45z" />
<glyph unicode="&#xb1;" horiz-adv-x="1013" d="M90 764q13 27 64 67q5 -2 7.5 -4.5t0.5 -3.5l8 4l14 -4q2 0 6 4l15 -4h49q4 0 4 -4q8 4 10 4q8 -1 15.5 -2t11 -1.5t4.5 -0.5q4 0 4 4l19 -4h20q6 37 6 88h4q-5 5 -2 45h4l-2 9l2 24q4 4 6 4l-4 8q15 30 41 56l-2 -9h4q3 23 23 23q33 0 33 -66h-4l2 -8v-4q-4 -4 -7 -4 l5 -6v-4l-7 -14q2 -6 2 -13h-4l4 -6q-6 -28 -2 -63h-4q4 -11 -2 -56h4l29 4l-2 -4l12 4q2 0 2.5 -1.5t-0.5 -2.5q48 8 172 11v-3l56 11q19 -16 26 -37l-4 -8v-19q0 -11 -22 -33l-9 5q-1 0 -3.5 -1t-7.5 -2t-11 -2l-18 5l-7 -5q-4 0 -4 5l-18 -5h-27q-5 0 -33 -4q-8 4 -10 4 l-24 -4v4q-11 -8 -39 -8h-27q-10 0 -16 -2q-4 2 -11 2q-6 -2 -12 -2l-12 -200q-3 -6 -27 -33l-6 4h-4l-16 -12q-9 0 -52 32q8 7 9 25l-2 16h4l-2 8l10 87q8 52 -2 69l-43 4q-12 -4 -17 -4v4q-4 0 -4 -4l-16 4h-57q-4 0 -2 2q-19 -3 -19 -6q-57 6 -70 19q0 -5 -4 -5zM98 414 q0 12 6 12l9 -4q4 0 4 4q2 0 10 -4q95 6 170 6q8 0 18 -2q6 2 15 2q4 0 2 -2l20 2h78q4 0 2 -2l8 2h33l21 -2q6 2 20 2h4q10 0 12 -2l11 2l4 -2q4 0 6 2l14 -2q23 2 43 2l-2 -2q15 6 31 6h10q15 0 21 -45h4q-6 -38 -39 -47q-2 0 -6 -4l-25 4h-74q-4 0 -4 2l-8 -2h-24 q-11 0 -17 2q-2 -2 -14 -2q-6 0 -10 2q-5 0 -5 -2l-18 2l-18 -2q-6 2 -11 2l-14 -2q-8 0 -8 2l-45 -2h-15q-55 0 -96 2q-4 -2 -14 -2q-6 2 -12 2l-7 -2q-4 0 -4 2l-71 -6q-40 6 -54 18.5t-3 28t42 31.5z" />
<glyph unicode="&#xb4;" horiz-adv-x="466" d="M172 1247l18 33q166 118 265 207h26q4 0 2 -2q38 -33 35 -64v-4q-45 -60 -135 -119q-106 -77 -111 -77q-15 -27 -36 -27h-7q-8 0 -8 8q-4 0 -4 -4q-48 9 -45 49z" />
<glyph unicode="&#xb6;" horiz-adv-x="940" d="M135 983h2v6q0 4 2 4l2 25v6l4 14q-3 6 0 15q12 85 121 227q4 0 76 66q109 62 203 71q59 18 108 21q6 -2 11 -2q24 3 30 6l8 -4q70 3 74 14q21 -3 21 -6l6 4q9 -3 6 -8l8 4h49q46 -3 74.5 -8t43 -13.5t13.5 -19.5q10 0 7 -29l-35 -151q2 -4 2 -15q-7 -10 -8 -10 q0 -4 2 -4l-13 -76l-2 -2v-24h-2v-17l-10 -49q0 -4 2 -4l-16 -78q0 -4 4 -4l-8 -16l-5 -41v-23q0 -4 -4 -4v-33l-6 -39q-3 -8 0 -14l-2 -6l-2 -21q0 -6 -2 -6l-2 -24l-8 -60q0 -2 -2 -2v-8l-2 -6q0 -4 2 -4l-4 -17l-4 -24q-4 -21 -11 -39q0 -2 4 -2l-6 -16l-4 -35 q-4 -4 -6 -4l4 -31l-16 -61l2 -23l-6 -12v-19l-4 -6l2 -16l-7 -8q5 -10 3 -15v-2q0 -4 -5 -4l5 -6l-9 -45q0 -4 -4 -4l4 -6q0 -4 -4 -4l2 -7v-8q-2 -2 -6 -2l4 -6l-6 -14l2 -9l-6 -16q4 -8 4 -10l-6 -6q4 -11 2 -15v-4q0 -4 -4 -4l2 -6l-12 -86l-9 -39q3 -3 0 -20l-16 -17 h-6l-6 2q0 -1 -0.5 -2t-1.5 -3.5t-2 -4.5q-27 0 -41 33q-5 0 -8 12l6 14q0 5 -4 5l6 16q9 59 20 96q-6 0 -6 8l14 93l5 20q-3 6 0 14l4 21l4 65q0 4 4 4q0 5 -2 11q13 72 14 82l6 34q0 5 2 5l-2 6q1 8 6 24q-3 2 -0.5 11t2.5 10l-4 4l4 6l7 45q0 2 2 2v14l8 39q0 2 -2 2 l4 19l4 22l-33 -6q-4 4 -12 4h-10l-13 -8l-8 8h-10l-2 -4q0 -10 4 -10l-25 -121l2 -6l-4 -21q-2 -8 -2 -18q-8 -36 -22 -131h-4l2 -6v-2q0 -4 -4 -4q2 -6 2 -11q-3 -24 -13 -24l5 -6l-7 -45q0 -4 -4 -4q-1 -1 -0.5 -3t2.5 -2l-14 -57q0 -19 -2 -29q0 -4 -1.5 -11.5t-2.5 -13 t0 -5.5l-4 -17l-2 -24l-6 -51h-3q3 -6 3 -35l-9 -6q3 -10 0 -13l-16 -14h-25q-2 0 -2 4l-8 -4q-11 4 -20 49l8 25l2 24q0 2 2 2v9l2 10q0 4 2 4q0 4 -2 4q6 24 6 47l4 6v15l8 41q0 4 -2 4l15 67l-2 8q25 115 32 168l7 9q-3 6 0 26q0 8 6 14l-4 7q0 4 4 4q2 2 -2 10l8 35 l-2 6l4 6l-2 8l6 15l-4 6q6 6 6 10l-4 6q6 6 6 14l-2 15q6 6 6 16h-14q-10 0 -10 -4l-19 4h-33q-6 0 -14 -4q-11 5 -45 8q-2 0 -6 -4q-68 0 -207 45q-119 55 -156 137q-6 27 -6 35h2q-6 35 -6 76zM213 993q9 -123 39 -123q62 -65 194 -86l15 -8l24 4h2q5 -5 5 -8q2 1 4.5 2 t3.5 1.5t2 0.5q30 -3 30 -6l9 2h30q4 0 4 -2l7 2l14 -2l6 2q14 -3 14 -6l31 6q6 -2 10 -2l5 6v21l4 12l-2 6l6 12q0 7 -2 13l6 18q0 4 -4 4l6 19l6 37q3 15 0 34q4 11 8 29l-2 16l8 25q0 4 -2 10q4 8 4 10q-2 4 -2 11h4l-4 6q1 13 9 28q-3 6 -3 15q0 1 0.5 4.5t1 5t1 4 t2.5 3.5t4 1l-4 8q8 64 10 148h4q-3 9 0 35h2q0 4 -2 4q5 19 6 26v15q2 4 2 10h-2l-14 -2q-7 0 -13 2q-115 -9 -206 -31q-106 -30 -189 -125q-71 -89 -80 -163q-8 -19 -10 -33q4 -8 4 -10q-6 -6 -6 -11zM737 776h4q3 0 15 4q4 -4 8 -4l12 4l-2 -4l10 4h37q0 11 -2 15l4 6 q-3 7 0 10q0 4 2 4q2 31 2 57l7 19l-3 20l9 17q0 2 -4 10q9 35 12 35l-2 8l2 6q0 10 2 10v15q4 16 10 61h4q0 14 -4 14l6 17l4 35l9 37q-2 4 -2 14q7 10 10 10l-4 6q21 76 24 113h2q0 2 -2 2q6 17 8 47q-1 0 -3 0.5t-4.5 1t-8 1t-10.5 1.5q-3 0 -15 -4q-20 4 -28 4h-39 q0 -6 6 -6q0 -2 -6 -14l2 -15q0 -1 -0.5 -2t-1.5 -3.5t-2 -4.5l-6 -137l-4 -6l2 -8q0 -2 -4 -2q-3 -63 -2 -66l-7 -21l-2 -14v-20l-2 -6v-9l-8 -41q0 -4 2 -4l-4 -16l-18 -137q-4 -19 -11 -31q4 -8 2 -14h-4l4 -9v-2z" />
<glyph unicode="&#xb7;" horiz-adv-x="276" d="M106 694q7 34 18.5 54t45.5 43q4 0 16 4l7 -4q8 4 14 4q31 -30 41 -51t6 -50q-27 -59 -55 -59q-3 -8 -35 -8v4l-8 -4q-32 0 -50 67z" />
<glyph unicode="&#xb8;" horiz-adv-x="358" d="M-39 -289l12 86q24 -6 37 -6q41 0 56 64q3 16 -15 30h-6v2q-49 -6 -55 27q-3 3 6 37q29 42 100 151l47 19h90q-55 -79 -59 -84l-59 -84q30 -24 55 -66q-3 -12 0 -32q-12 -78 -96 -138q-15 -6 -25 -6l-16 2l-6 -2q-4 0 -4 2l-19 -2h-8l-8 2q0 -6 -6 -6h-9z" />
<glyph unicode="&#xb9;" horiz-adv-x="1013" d="M113 1079q13 13 0 17l73 86q15 8 84 88q141 144 283 252q3 0 43 12q7 -3 4 -6l8 2q7 0 29 -25l-4 -6v-2q11 0 20 -41v-8q0 -4 -4 -4q4 -12 4 -17l-6 -14q7 0 4 -6q-7 -7 -10 -16l-2 -35l-6 -4q2 -4 2 -11h-2q0 -2 2 -2q-8 -19 -8 -34q-3 -9 -13 -54q-2 -2 -6 -2l4 -6v-4 q-4 -11 -6 -8v-10q-11 -86 -16 -105l2 -10h-2v-6q0 -6 -10 -23q2 -4 2 -8t-4 -8q-3 -15 -3 -19l-6 -24v-6l-6 -15q0 -8 2 -10q-3 -13 -6 -16q-8 -55 -8 -72l-4 -8v-19l-4 -4q2 -4 2 -8h-4l4 -6l-4 -8q-10 -73 -13 -152h-4v-59q-6 -6 -6 -8q-6 -37 -8 -68h-4l4 -20 q-9 -16 0 -21q-15 -50 -51 -47l-4 6q-15 -6 -23 -6q-17 3 -14 47q-5 0 -2 21h2q-6 0 18 163q-1 0 -1 2t0.5 8t0.5 12t1 17.5t1 20.5h4l-2 6l15 113l8 34v15h4l-4 6q0 2 6 8q0 25 -2 29l8 16v4q3 8 -2 13l4 6v12q0 2 4 2l-2 6q0 2 4 2v17q0 4 2 4q0 2 -2 2l25 92q0 32 20 143 l7 4q0 1 -2 2t-3 2l7 13v12q4 8 4 10q2 14 2 25h2l-2 4l6 27q0 7 6 10q-4 8 -4 10q6 3 6 8q-97 -77 -272 -262q-60 -65 -66 -78q4 -4 2 -6q-7 0 -26 -22q-20 -10 -50 -13q-21 3 -32 41z" />
<glyph unicode="&#xba;" horiz-adv-x="466" d="M168 1321q25 63 45 72q83 80 143 80q0 4 4 4q50 0 97 -93q-4 -22 -2 -38q-12 -91 -93 -154q-17 -10 -26 -10l-12 4l-9 -4q-4 0 -4 4l-16 -4h-10l-9 4q0 -8 -6 -8h-8q-111 42 -94 143zM262 1305q29 -29 41 -29q38 0 53 70q3 20 -14 34q-10 0 -27 -14q3 6 -2 6 q-45 -51 -49 -51z" />
<glyph unicode="&#xbb;" horiz-adv-x="940" d="M104 426l7 6l-5 8q5 30 91 66q142 79 209 127l24 20q-2 0 -2 4l-8 -4q-15 0 -178 82q-33 3 -33 13q-2 0 -2 -5q-102 15 -96 64l2 6q0 4 4 4l-4 6q21 35 73 35q67 -24 279 -110l27 -13q4 4 6 4q-1 -1 3 -3.5t13.5 -7.5t22.5 -11t32 -15q0 -7 11 -18l-7 -8q10 0 7 -33 q-208 -152 -392 -240q-3 -6 -28 -20q-35 9 -51 31q0 1 -1 2.5t-2 4.5t-2 5zM473 465l6 6l-4 8q3 32 88 68q134 72 209 125l25 22q-2 0 -2 4l-9 -4q-15 0 -178 82q-30 3 -30 10q-5 0 -5 -4q-55 8 -78 25.5t-16 46.5q0 2 4 2l-4 8q20 33 72 33q71 -21 283 -111l26 -10q0 2 4 2 q0 -2 74 -37q-2 -6 8 -16l-6 -8q8 0 8 -35q-211 -154 -393 -240q-3 -7 -29 -18q-35 6 -51 31q2 2 -2 10z" />
<glyph unicode="&#xbf;" horiz-adv-x="933" d="M14 258h4l-2 8v8q0 2 4 2q1 2 0.5 3.5t-2.5 1.5l7 18q0 10 -2 14q15 58 20 58l-4 6q18 45 33 67q-4 0 -4 5q2 0 55 96q57 74 102 110q0 3 72 60q11 9 45 28q45 42 141 93q111 70 113 77q81 92 90 160q-2 4 -2 10h4q-7 37 -4 50h2l-6 20l4 8h-4l6 8q-10 17 -10 23 q6 6 6 10l-6 4q6 15 12 15l-2 8q9 18 14 18l-2 6q3 17 41 31q67 -22 58 -82q7 0 4 -41l-8 -18q10 0 4 -70h-4q4 -8 4 -10q-9 -41 -17 -41v-16l-43 -70q-67 -104 -157 -148l-209 -133q-163 -125 -189 -206q-15 -18 -59 -127q0 -5 4 -5l-6 -18l-8 -61q0 -84 32 -127 q79 -111 228 -111l8 4q2 0 2 -4q31 3 41 6l6 -2q119 21 162 55q91 88 125 197q4 0 4 2q0 6 -2 12q9 27 12 27l-4 6q7 10 10 10q4 -2 11 -2l2 23q3 6 10 6q4 -2 10 -2q3 10 23 10q39 -39 45 -67q-16 -13 -62 -138l-45 -65q-89 -109 -180 -146q-64 -16 -211 -32l-8 4 q-4 0 -4 -4q-20 2 -37 8q-8 -4 -10 -4q-121 27 -160 78q-55 43 -78 104q-41 80 -29 172zM694 1386q3 32 31 68l6 -4l37 8q58 -46 55 -72q-3 -6 -8 -6l4 -8l-2 -4q-36 -31 -80 -47h-8q-5 0 -31 29q4 0 4 4q-11 0 -8 32z" />
<glyph unicode="&#xc0;" horiz-adv-x="1071" d="M2 18q7 70 49 119l-2 6l39 64l-4 8q78 153 166 344q13 13 67 137q5 0 70 121q3 7 88 174q-4 0 -4 4q12 12 59 115q132 285 162 285q3 0 15 4q58 0 55 -101q32 -192 35 -372l53 -414l33 -127h-4q14 -60 16 -86l27 -82l-4 -6q9 -18 24 -123q4 0 10 -18q0 -2 -4 -2l4 -9 l-4 -22l-4 -6q6 0 2 -4q-21 -24 -57 -27q-8 0 -8 6l-9 -2h-2q-34 21 -28 59q-4 0 -4 5q0 2 4 2q-7 15 -51 245q-37 155 -48 250h-41q-10 0 -10 -4l-18 4h-45q-7 0 -15 -4q-8 4 -14 4h-31q-10 0 -18 -4l-23 4h-39q-8 0 -16 -4q-14 3 -14 8l-6 -4q-4 0 -4 4l-9 -4q-4 0 -4 4 l-6 -4h-14q-4 0 -4 4l-9 -4q-44 8 -51 8q0 -11 -61 -124l-125 -271q-48 -91 -55 -96l4 -8q-14 -14 -17 -23q8 -16 -38 -40q-2 -2 -8 -4l-5 -3h-10q-10 0 -14 2q-6 -2 -13 -2zM397 655h4q5 0 5 4l24 -4q15 0 23 4q32 -4 41 -4h104l16 4v-4l9 4h49q4 0 4 3q37 -3 37 -7 q8 4 14 4q0 34 -8 97h4q-25 120 -31 239q-4 0 -4 4h4q-10 118 -20 179v6h-8q-46 -101 -103 -203l2 -8zM455 1706l2 4q3 29 53 64q0 4 4 4h27q67 -85 202 -207q13 -29 13 -35q-6 -38 -60 -47q0 4 -4 4q-3 -8 -8 -8h-8q-20 0 -29 26q-6 0 -90 78q-76 57 -102 117z" />
<glyph unicode="&#xc1;" horiz-adv-x="1050" d="M2 18q7 70 49 119l-2 6l39 64l-4 8q78 153 166 344q13 13 67 137q5 0 70 121q3 7 88 174q-4 0 -4 4q12 12 59 115q132 285 162 285q3 0 15 4q58 0 55 -101q32 -192 35 -372l53 -414l33 -127h-4q14 -60 16 -86l27 -82l-4 -6q9 -18 24 -123q4 0 10 -18q0 -2 -4 -2l4 -9 l-4 -22l-4 -6q6 0 2 -4q-21 -24 -57 -27q-8 0 -8 6l-9 -2h-2q-34 21 -28 59q-4 0 -4 5q0 2 4 2q-7 15 -51 245q-37 155 -48 250h-41q-10 0 -10 -4l-18 4h-45q-7 0 -15 -4q-8 4 -14 4h-31q-10 0 -18 -4l-23 4h-39q-8 0 -16 -4q-14 3 -14 8l-6 -4q-4 0 -4 4l-9 -4q-4 0 -4 4 l-6 -4h-14q-4 0 -4 4l-9 -4q-44 8 -51 8q0 -11 -61 -124l-125 -271q-48 -91 -55 -96l4 -8q-14 -14 -17 -23q8 -16 -38 -40q-2 -2 -8 -4l-5 -3h-10q-10 0 -14 2q-6 -2 -13 -2zM397 655h4q5 0 5 4l24 -4q15 0 23 4q32 -4 41 -4h104l16 4v-4l9 4h49q4 0 4 3q37 -3 37 -7 q8 4 14 4q0 34 -8 97h4q-25 120 -31 239q-4 0 -4 4h4q-10 118 -20 179v6h-8q-46 -101 -103 -203l2 -8zM733 1536q0 6 19 35q178 128 262 207h26q4 0 4 -4q38 -32 35 -64l-2 -4q-43 -60 -133 -117q-107 -78 -110 -78q-14 -26 -39 -26h-7q-9 0 -6 8q-4 0 -4 -4q-51 9 -45 47z " />
<glyph unicode="&#xc2;" horiz-adv-x="1058" d="M2 18q7 70 49 119l-2 6l39 64l-4 8q78 153 166 344q13 13 67 137q5 0 70 121q3 7 88 174q-4 0 -4 4q12 12 59 115q132 285 162 285q3 0 15 4q58 0 55 -101q32 -192 35 -372l53 -414l33 -127h-4q14 -60 16 -86l27 -82l-4 -6q9 -18 24 -123q4 0 10 -18q0 -2 -4 -2l4 -9 l-4 -22l-4 -6q6 0 2 -4q-21 -24 -57 -27q-8 0 -8 6l-9 -2h-2q-34 21 -28 59q-4 0 -4 5q0 2 4 2q-7 15 -51 245q-37 155 -48 250h-41q-10 0 -10 -4l-18 4h-45q-7 0 -15 -4q-8 4 -14 4h-31q-10 0 -18 -4l-23 4h-39q-8 0 -16 -4q-14 3 -14 8l-6 -4q-4 0 -4 4l-9 -4q-4 0 -4 4 l-6 -4h-14q-4 0 -4 4l-9 -4q-44 8 -51 8q0 -11 -61 -124l-125 -271q-48 -91 -55 -96l4 -8q-14 -14 -17 -23q8 -16 -38 -40q-2 -2 -8 -4l-5 -3h-10q-10 0 -14 2q-6 -2 -13 -2zM397 655h4q5 0 5 4l24 -4q15 0 23 4q32 -4 41 -4h104l16 4v-4l9 4h49q4 0 4 3q37 -3 37 -7 q8 4 14 4q0 34 -8 97h4q-25 120 -31 239q-4 0 -4 4h4q-10 118 -20 179v6h-8q-46 -101 -103 -203l2 -8zM528 1501v15q43 59 99 174q12 0 39 59q25 14 47 14h2q4 0 4 -2l8 2q65 -43 121 -143q44 -71 41 -78q0 -6 4 -18l-4 -27q-14 -19 -37 -29q-2 0 -2.5 2t0.5 3l-8 -5h-8 q-2 0 -3 2t0 3l-8 -5q-2 0 -2.5 2t0.5 3l-10 -5q-9 0 -6 19l-10 -4q-34 89 -90 147q-15 -19 -68 -133q-19 -32 -43 -47l-6 2l-10 -6q-59 6 -50 55z" />
<glyph unicode="&#xc3;" horiz-adv-x="1064" d="M2 18q7 70 49 119l-2 6l39 64l-4 8q78 153 166 344q13 13 67 137q5 0 70 121q3 7 88 174q-4 0 -4 4q12 12 59 115q132 285 162 285q3 0 15 4q58 0 55 -101q32 -192 35 -372l53 -414l33 -127h-4q14 -60 16 -86l27 -82l-4 -6q9 -18 24 -123q4 0 10 -18q0 -2 -4 -2l4 -9 l-4 -22l-4 -6q6 0 2 -4q-21 -24 -57 -27q-8 0 -8 6l-9 -2h-2q-34 21 -28 59q-4 0 -4 5q0 2 4 2q-7 15 -51 245q-37 155 -48 250h-41q-10 0 -10 -4l-18 4h-45q-7 0 -15 -4q-8 4 -14 4h-31q-10 0 -18 -4l-23 4h-39q-8 0 -16 -4q-14 3 -14 8l-6 -4q-4 0 -4 4l-9 -4q-4 0 -4 4 l-6 -4h-14q-4 0 -4 4l-9 -4q-44 8 -51 8q0 -11 -61 -124l-125 -271q-48 -91 -55 -96l4 -8q-14 -14 -17 -23q8 -16 -38 -40q-2 -2 -8 -4l-5 -3h-10q-10 0 -14 2q-6 -2 -13 -2zM397 655h4q5 0 5 4l24 -4q15 0 23 4q32 -4 41 -4h104l16 4v-4l9 4h49q4 0 4 3q37 -3 37 -7 q8 4 14 4q0 34 -8 97h4q-25 120 -31 239q-4 0 -4 4h4q-10 118 -20 179v6h-8q-46 -101 -103 -203l2 -8zM451 1538h4l-2 8l4 39q6 9 22 57q54 79 101 99q32 16 45 16q4 0 4 -4l6 4h18q78 0 191 -168q33 -20 45 -20h10q49 21 49 30q16 23 19 23l-2 6v4l4 4q-3 9 0 45q4 0 4 5 q-9 0 -6 8h4l-4 6v4l47 49l12 4q44 -6 41 -24q1 -2 2 -4.5t1.5 -4t0.5 -2.5q-6 -9 -6 -12q7 0 10 -10v-2q-4 -13 -12 -23l2 -18q-15 -112 -133 -178v4q-36 -19 -47 -19q-8 4 -15 4q-2 -1 -4.5 -2t-3.5 -1.5t-2 -0.5v4l-8 -4q-99 49 -107 82q-6 0 -69 90q-24 27 -70 27 q-69 -42 -78 -113q3 -15 0 -32q-1 0 -3.5 -2.5t-9.5 -8.5t-13 -12h-33l-6 4q0 -4 -4 -4q0 4 -2 4l4 8q-13 16 -10 31z" />
<glyph unicode="&#xc4;" horiz-adv-x="1024" d="M2 18q7 70 49 119l-2 6l39 64l-4 8q78 153 166 344q13 13 67 137q5 0 70 121q3 7 88 174q-4 0 -4 4q12 12 59 115q132 285 162 285q3 0 15 4q58 0 55 -101q32 -192 35 -372l53 -414l33 -127h-4q14 -60 16 -86l27 -82l-4 -6q9 -18 24 -123q4 0 10 -18q0 -2 -4 -2l4 -9 l-4 -22l-4 -6q6 0 2 -4q-21 -24 -57 -27q-8 0 -8 6l-9 -2h-2q-34 21 -28 59q-4 0 -4 5q0 2 4 2q-7 15 -51 245q-37 155 -48 250h-41q-10 0 -10 -4l-18 4h-45q-7 0 -15 -4q-8 4 -14 4h-31q-10 0 -18 -4l-23 4h-39q-8 0 -16 -4q-14 3 -14 8l-6 -4q-4 0 -4 4l-9 -4q-4 0 -4 4 l-6 -4h-14q-4 0 -4 4l-9 -4q-44 8 -51 8q0 -11 -61 -124l-125 -271q-48 -91 -55 -96l4 -8q-14 -14 -17 -23q8 -16 -38 -40q-2 -2 -8 -4l-5 -3h-10q-10 0 -14 2q-6 -2 -13 -2zM397 655h4q5 0 5 4l24 -4q15 0 23 4q32 -4 41 -4h104l16 4v-4l9 4h49q4 0 4 3q37 -3 37 -7 q8 4 14 4q0 34 -8 97h4q-25 120 -31 239q-4 0 -4 4h4q-10 118 -20 179v6h-8q-46 -101 -103 -203l2 -8zM489 1550l5 6q-2 4 -2 17q57 57 94 57h14q56 -14 53 -47q7 0 4 -33h-4l2 -8q-3 -31 -75 -59h-15q-38 0 -73 53q0 5 -3 14zM795 1569q6 40 69 61h31q32 -14 51 -59l-6 -19 l-4 -24q-37 -49 -74 -49q-74 9 -65 73q-5 0 -2 17z" />
<glyph unicode="&#xc5;" horiz-adv-x="1077" d="M2 18q7 70 49 119l-2 6l39 64l-4 8q78 153 166 344q13 13 67 137q5 0 70 121q3 7 88 174q-4 0 -4 4q12 12 59 115q132 285 162 285q3 0 15 4q58 0 55 -101q32 -192 35 -372l53 -414l33 -127h-4q14 -60 16 -86l27 -82l-4 -6q9 -18 24 -123q4 0 10 -18q0 -2 -4 -2l4 -9 l-4 -22l-4 -6q6 0 2 -4q-21 -24 -57 -27q-8 0 -8 6l-9 -2h-2q-34 21 -28 59q-4 0 -4 5q0 2 4 2q-7 15 -51 245q-37 155 -48 250h-41q-10 0 -10 -4l-18 4h-45q-7 0 -15 -4q-8 4 -14 4h-31q-10 0 -18 -4l-23 4h-39q-8 0 -16 -4q-14 3 -14 8l-6 -4q-4 0 -4 4l-9 -4q-4 0 -4 4 l-6 -4h-14q-4 0 -4 4l-9 -4q-44 8 -51 8q0 -11 -61 -124l-125 -271q-48 -91 -55 -96l4 -8q-14 -14 -17 -23q8 -16 -38 -40q-2 -2 -8 -4l-5 -3h-10q-10 0 -14 2q-6 -2 -13 -2zM397 655h4q5 0 5 4l24 -4q15 0 23 4q32 -4 41 -4h104l16 4v-4l9 4h49q4 0 4 3q37 -3 37 -7 q8 4 14 4q0 34 -8 97h4q-25 120 -31 239q-4 0 -4 4h4q-10 118 -20 179v6h-8q-46 -101 -103 -203l2 -8zM578 1602q27 62 45 71q81 78 141 78q3 6 4 6q52 0 98 -94q-2 -10 -2 -37q-12 -92 -94 -156q-13 -8 -25 -8l-14 4l-6 -4q-4 0 -4 4l-16 -4h-13l-6 4q0 -8 -8 -8h-6 q-59 22 -81.5 57t-12.5 87zM670 1583q29 -29 43 -29q36 0 51 72q3 23 -12 35q-13 0 -27 -14q3 6 -2 6q-45 -51 -51 -51z" />
<glyph unicode="&#xc6;" horiz-adv-x="1351" d="M6 49q101 190 258 526q15 20 152 291q243 423 256 441l-2 8q17 31 47 41q18 18 61 18h4q6 -3 4 -8l41 8l7 -4l8 4q8 -4 10 -4l8 4q4 0 4 -4q44 8 140 8h45q4 0 4 -4l8 4q2 0 2 -4l8 4h37q12 0 12 2l17 -2h45l22 2q37 -3 37 -6l8 4h37q35 -15 41.5 -23.5t1.5 -31.5 l-53 -45l-21 2l-16 -2q-40 3 -37 6l-8 -4h-59q-9 0 -13 4q-12 -4 -16 -4q-2 0 -2.5 1t0.5 3l-10 -4q-2 0 -2.5 1t0.5 3l-21 -4h-65l-19 -2v2l-8 -2h-31q-72 0 -129 -8l-6 4q-2 -1 -5 -2l-4.5 -1.5t-2.5 -0.5q0 -102 -13 -185l5 -8q-12 -14 -5 -28q-14 -56 -16 -78l-14 -115 q-3 -16 0 -31q-5 -12 -8 -28l-5 -29q-3 -16 0 -31q-5 -12 -8 -28l-6 -41q-2 -6 2 -17q-6 -6 -6 -12q11 -8 29 -8h8q4 0 16 4l4 -4q12 4 19 4l-2 -4l10 4q6 0 10 -4l10 4l17 -4l29 4l12 -4l24 4q1 0 13 -4q12 4 16 4l-2 -4l10 4q1 0 3.5 -0.5l7.5 -1.5l10 -2l10 4q4 -4 12 -4 q18 0 21 8l18 -4q21 0 25 4q28 -4 35 -4h28l6 -4l4 4q20 -14 26.5 -25.5t2.5 -27.5q-30 -43 -82 -43h-30q-7 0 -15 -4q-37 3 -37 6l-8 -2h-6q-4 0 -4 2l-8 -2h-19q-10 0 -14 2q-4 -2 -14 -2h-4q-5 0 -5 2l-6 -2h-67q-7 0 -15 -4q-8 4 -16 4h-25l-36 -4v4q-27 -5 -33.5 -19 t-1.5 -45l-8 -22q0 -4 4 -4l-7 -19l-6 -37q0 -10 2 -14l-6 -14v-5q0 -8 6 -8q-6 -11 -2 -22q-6 -6 -6 -11l8 -4q-3 -8 -6 -8l-4 -88q-8 -31 -8 -33l4 -8l-6 -8q2 -8 2 -9t-4 -7q4 -22 -2 -50l78 -14l8 4l14 -4q2 0 10 4q28 -4 35 -4h15q12 0 12 4l18 -4h51q7 0 15 4l8 -4 q8 4 14 4q4 0 4 -4l7 4h32l21 2v-2l6 2h4q65 0 125 13l2 -9l8 4h23q35 -30 35 -45q-27 -43 -48 -43q-3 -8 -24 -8q-71 0 -172 -14q-8 4 -10 4q-1 0 -4.5 -0.5t-11 -1.5t-15.5 -2q-4 0 -4 4l-25 -4h-100q-6 0 -14 -4q-12 4 -17 4h-6l-18 -4v4q-5 0 -5 -4l-139 14l-8 -4 q-38 21 -35 35q-4 0 -4 4q5 38 2 55q6 43 19 43l2 21q10 79 8 96q0 2 4 2v37l10 72v24h4l-4 8l2 11q0 4 4 4l-2 8l2 10q0 4 4 4l-4 6l6 35q2 10 2 39q1 2 2 5t2 4.5t1 2.5q-7 7 -31 13l-6 -4h-13q-8 0 -32 4q-12 -4 -13 -4l-6 4q-12 -4 -16 -4t-4 4q-168 -9 -168 -21 q-4 -20 -78 -162q-4 0 -31 -55l-129 -270q-3 -1 -24 -33q-15 0 -15 -4q-34 0 -44.5 13t-6.5 42zM393 627h4q48 0 119 8l6 -4q36 4 43 4h56q2 0 2.5 -1.5t-0.5 -2.5q12 4 14 4v6q2 6 -2 14l1 2.5t1.5 4.5t1.5 5t1.5 5.5t1 4.5t-0.5 3.5t-2 1.5l8 27l12 88l-2 26h5l-3 6l3 19 q0 4 4 4l-2 8v6q2 16 16 82v27l6 18q0 2 -4 2l8 27l4 27q1 5 1.5 13t1 20t1.5 22h4l-4 6l2 23q4 22 2 41q7 7 7 16l-7 4q-58 -113 -202 -356z" />
<glyph unicode="&#xc7;" d="M84 487q-6 34 0 121l4 8q-2 6 -2 13q3 24 10 24q0 4 -2 4l4 19l8 49q35 242 238 506q175 166 320 166q34 3 34 8l21 -4h45q100 -9 182 -31q17 -14 72 -39q22 -25 22 -26l-6 -41q-16 -19 -33 -19v4l-8 -4h-4q-85 60 -244 60q0 4 -14 4q-20 -4 -26 -4v4q-54 0 -160 -41 q-129 -88 -144 -129q-119 -155 -125 -207q-40 -84 -55 -137q-4 0 -4 -4l-4 -33q0 -4 -4 -4l2 -9l-21 -92q-2 -5 3 -14l-9 -35l-2 -2q-3 -41 0 -72h-4q0 -48 4 -84h-4q6 -136 141 -292q129 -97 277 -97q166 0 322 170q6 0 26 17q12 -3 12 -8l7 4h16l6 -4q0 4 4 4l15 -19 q-7 -11 -7 -14q10 0 7 -12l-7 -9q4 -8 2 -10q-107 -110 -165 -137q-68 -39 -103 -39q-13 -11 -96 -20v4l-8 -4h-2q-23 -33 -95 -134q33 -26 56 -65q-2 -8 -2 -33q-9 -76 -95 -137q-15 -6 -24 -6l-16 2l-7 -2q-4 0 -4 2l-18 -2h-10l-9 2q-3 -6 -8 -6h-8l-10 4l10 86 q27 -6 41 -6q38 0 53 63q3 20 -14 31h-6l2 2q-52 -6 -60 26q0 3 9 37q73 109 100 146q-37 6 -41 10l-10 -4q-153 48 -217 117q2 6 -39 41q-139 199 -119 333z" />
<glyph unicode="&#xc8;" horiz-adv-x="956" d="M27 45q2 6 2 12v11h2q0 4 -2 4l6 24l22 164l6 14q-4 23 -2 33h2v41q7 7 7 19v22l6 19v22q0 4 4 4l-2 43l6 17l-2 20h4l-2 8v4q10 72 10 133h4l-2 9q0 4 4 4l-2 6l4 37q0 4 4 4l-2 6q0 4 5 4q-5 13 -5 18t5 13q-3 6 -3 14q3 8 7 8q0 58 2 70q4 8 4 10q0 12 -4 12l8 25 l6 57q2 7 -2 15q6 6 6 14q2 6 -2 14q5 5 6 5q0 24 -4 36l8 23q0 10 -2 14q7 21 8 27q0 6 -4 14q7 7 7 15q4 22 2 41l8 20q-4 8 -4 10h4q0 2 -4 2q12 45 16 45q0 4 -4 4l6 25l4 25q3 6 -6 6l6 18l-2 14q30 46 39 46l43 14q31 -15 31 -19l26 5l70 2l52.5 1.5t23.5 0.5v-4l6 4 q4 0 4 -4l8 4l6 -4q12 4 13 4v-4q2 0 2 4q8 0 8 -4l22 4q118 -4 140 -4h20l21 4q15 -9 41 -9h53l18 5v-5q10 5 11 5l8 -5q10 5 14 5l8 -5l6 5l9 -5l22 5q34 -12 31 -37q10 0 10 -9q-14 -9 -29 -38q-10 0 -10 -9h-26l-11 -4v8l-8 -4h-37q-2 0 -2 4l-8 -4l-18 4l-9 -4l-6 4 l-22 -4q-4 0 -4 4l-21 -8q-63 6 -106 8l-7 -4q-4 0 -4 4l-18 -4l-12 4q-2 0 -2 -4l-90 9q-77 -5 -89 -5q-2 0 -10 -4q-8 4 -16 4q-2 0 -2 -4l-21 4h-6q-6 0 -14 -4l-8 4q-11 0 -27 -8q-8 4 -14 4h-4q-8 0 -17 -36l4 -9q-4 -4 -6 -4q0 -4 4 -4l-6 -16l-4 -33l-8 -25 q0 -2 4 -2q-11 -34 -6 -45l-6 -8q4 -8 2 -14q0 -4 -4 -4l4 -6l-6 -37q-2 -9 2 -21l-7 -12q-12 -136 -20 -168v-14q-1 -5 -2 -9.5t-2 -11.5t0 -11.5t4 -4.5l-6 -19l-8 -53h82q4 0 16 -4q13 8 39 8h22q4 0 4 -4l9 4h37q2 0 2 -4q21 8 98 8h16q7 0 15 4l20 -8l23 4q6 0 2 -4 l22 4h2q17 0 33 -4q45 3 61 8q4 -4 15 -4l18 4q27 -17 35 -41v-4q0 -4 -18 -10l4 -8q-3 -10 -29 -27l-12 4q-37 -3 -37 -6l-19 2h-12q-23 0 -41 -2q-4 2 -10 2q-4 -2 -19 -2v2l-8 -2h-20q-4 0 -4 2q-6 -3 -47 -6l-4 4l-21 -4q-2 0 -10 4q-98 -10 -158 -10q-6 0 -14 -4l-6 4 q-12 -4 -13 -4v4l-8 -4q-4 0 -4 4q-47 -8 -72 -8v-4q-9 -119 0 -119v-4h-8l-12 -88v-27h-4l4 -6l-6 -31l2 -18h-4l4 -6q-4 -4 -6 -4l2 -19v-4q0 -4 -4 -4l2 -6q0 -4 -4 -4l2 -8q-5 -35 -2 -56q-2 -2 -3.5 -4.5t-2.5 -3.5t-1 -2l2 -18l-6 -9q0 -6 2 -12l-8 -33l-2 -10 q0 -10 2 -14l-6 -17v-6q-3 -8 4 -8l10 4l4 -4q12 4 15 4l-2 -4l10 4q4 0 0 -4l10 4q7 -1 8 -4q39 8 88 8q52 0 76 -8q36 4 43 4h37q8 0 12 -4l9 4q3 0 8 -0.5t14 -1.5t17 -2l34 4l6 -4q3 0 7 4q34 -3 34 -6q21 6 66 6l-2 -4l10 4h41q4 0 0 -4l10 4h23q6 0 2 -4l8 4 q4 -4 8 -4q2 0 6 4l17 -4h8q7 0 35 4q14 0 33 -31q-3 -22 -25 -32q-3 -27 -31 -27l-8 4l-20 -6q-14 2 -39 2h-33q-4 0 -4 4l-6 -4q-14 0 -54 4q-86 -4 -106 -4q-6 0 -12 -2q-35 3 -35 6l-27 -4h-127q-4 0 -4 4l-6 -4h-68q-30 0 -57 -2l2 2q-21 -6 -26 -6v4l-9 -4h-4 q-6 0 -14 4q-11 -5 -37 -8v4l-6 -4q-28 3 -55 55zM375 1706l2 4q3 29 53 64q0 4 4 4h25q70 -84 205 -207q12 -27 12 -35q-6 -38 -60 -47q0 4 -4 4q-3 -8 -8 -8h-8q-20 0 -29 26q-6 0 -90 78q-76 57 -102 117z" />
<glyph unicode="&#xc9;" horiz-adv-x="948" d="M27 45q2 6 2 12v11h2q0 4 -2 4l6 24l22 164l6 14q-4 23 -2 33h2v41q7 7 7 19v22l6 19v22q0 4 4 4l-2 43l6 17l-2 20h4l-2 8v4q10 72 10 133h4l-2 9q0 4 4 4l-2 6l4 37q0 4 4 4l-2 6q0 4 5 4q-5 13 -5 18t5 13q-3 6 -3 14q3 8 7 8q0 58 2 70q4 8 4 10q0 12 -4 12l8 25 l6 57q2 7 -2 15q6 6 6 14q2 6 -2 14q5 5 6 5q0 24 -4 36l8 23q0 10 -2 14q7 21 8 27q0 6 -4 14q7 7 7 15q4 22 2 41l8 20q-4 8 -4 10h4q0 2 -4 2q12 45 16 45q0 4 -4 4l6 25l4 25q3 6 -6 6l6 18l-2 14q30 46 39 46l43 14q31 -15 31 -19l26 5l70 2l52.5 1.5t23.5 0.5v-4l6 4 q4 0 4 -4l8 4l6 -4q12 4 13 4v-4q2 0 2 4q8 0 8 -4l22 4q118 -4 140 -4h20l21 4q15 -9 41 -9h53l18 5v-5q10 5 11 5l8 -5q10 5 14 5l8 -5l6 5l9 -5l22 5q34 -12 31 -37q10 0 10 -9q-14 -9 -29 -38q-10 0 -10 -9h-26l-11 -4v8l-8 -4h-37q-2 0 -2 4l-8 -4l-18 4l-9 -4l-6 4 l-22 -4q-4 0 -4 4l-21 -8q-63 6 -106 8l-7 -4q-4 0 -4 4l-18 -4l-12 4q-2 0 -2 -4l-90 9q-77 -5 -89 -5q-2 0 -10 -4q-8 4 -16 4q-2 0 -2 -4l-21 4h-6q-6 0 -14 -4l-8 4q-11 0 -27 -8q-8 4 -14 4h-4q-8 0 -17 -36l4 -9q-4 -4 -6 -4q0 -4 4 -4l-6 -16l-4 -33l-8 -25 q0 -2 4 -2q-11 -34 -6 -45l-6 -8q4 -8 2 -14q0 -4 -4 -4l4 -6l-6 -37q-2 -9 2 -21l-7 -12q-12 -136 -20 -168v-14q-1 -5 -2 -9.5t-2 -11.5t0 -11.5t4 -4.5l-6 -19l-8 -53h82q4 0 16 -4q13 8 39 8h22q4 0 4 -4l9 4h37q2 0 2 -4q21 8 98 8h16q7 0 15 4l20 -8l23 4q6 0 2 -4 l22 4h2q17 0 33 -4q45 3 61 8q4 -4 15 -4l18 4q27 -17 35 -41v-4q0 -4 -18 -10l4 -8q-3 -10 -29 -27l-12 4q-37 -3 -37 -6l-19 2h-12q-23 0 -41 -2q-4 2 -10 2q-4 -2 -19 -2v2l-8 -2h-20q-4 0 -4 2q-6 -3 -47 -6l-4 4l-21 -4q-2 0 -10 4q-98 -10 -158 -10q-6 0 -14 -4l-6 4 q-12 -4 -13 -4v4l-8 -4q-4 0 -4 4q-47 -8 -72 -8v-4q-9 -119 0 -119v-4h-8l-12 -88v-27h-4l4 -6l-6 -31l2 -18h-4l4 -6q-4 -4 -6 -4l2 -19v-4q0 -4 -4 -4l2 -6q0 -4 -4 -4l2 -8q-5 -35 -2 -56q-2 -2 -3.5 -4.5t-2.5 -3.5t-1 -2l2 -18l-6 -9q0 -6 2 -12l-8 -33l-2 -10 q0 -10 2 -14l-6 -17v-6q-3 -8 4 -8l10 4l4 -4q12 4 15 4l-2 -4l10 4q4 0 0 -4l10 4q7 -1 8 -4q39 8 88 8q52 0 76 -8q36 4 43 4h37q8 0 12 -4l9 4q3 0 8 -0.5t14 -1.5t17 -2l34 4l6 -4q3 0 7 4q34 -3 34 -6q21 6 66 6l-2 -4l10 4h41q4 0 0 -4l10 4h23q6 0 2 -4l8 4 q4 -4 8 -4q2 0 6 4l17 -4h8q7 0 35 4q14 0 33 -31q-3 -22 -25 -32q-3 -27 -31 -27l-8 4l-20 -6q-14 2 -39 2h-33q-4 0 -4 4l-6 -4q-14 0 -54 4q-86 -4 -106 -4q-6 0 -12 -2q-35 3 -35 6l-27 -4h-127q-4 0 -4 4l-6 -4h-68q-30 0 -57 -2l2 2q-21 -6 -26 -6v4l-9 -4h-4 q-6 0 -14 4q-11 -5 -37 -8v4l-6 -4q-28 3 -55 55zM573 1536q0 6 19 35q178 128 262 207h27q4 0 4 -4q38 -32 35 -64l-2 -4q-46 -60 -136 -117q-104 -78 -108 -78q-14 -26 -39 -26h-6q-9 0 -6 8q-5 0 -5 -4q-51 9 -45 47z" />
<glyph unicode="&#xca;" horiz-adv-x="929" d="M27 45q2 6 2 12v11h2q0 4 -2 4l6 24l22 164l6 14q-4 23 -2 33h2v41q7 7 7 19v22l6 19v22q0 4 4 4l-2 43l6 17l-2 20h4l-2 8v4q10 72 10 133h4l-2 9q0 4 4 4l-2 6l4 37q0 4 4 4l-2 6q0 4 5 4q-5 13 -5 18t5 13q-3 6 -3 14q3 8 7 8q0 58 2 70q4 8 4 10q0 12 -4 12l8 25 l6 57q2 7 -2 15q6 6 6 14q2 6 -2 14q5 5 6 5q0 24 -4 36l8 23q0 10 -2 14q7 21 8 27q0 6 -4 14q7 7 7 15q4 22 2 41l8 20q-4 8 -4 10h4q0 2 -4 2q12 45 16 45q0 4 -4 4l6 25l4 25q3 6 -6 6l6 18l-2 14q30 46 39 46l43 14q31 -15 31 -19l26 5l70 2l52.5 1.5t23.5 0.5v-4l6 4 q4 0 4 -4l8 4l6 -4q12 4 13 4v-4q2 0 2 4q8 0 8 -4l22 4q118 -4 140 -4h20l21 4q15 -9 41 -9h53l18 5v-5q10 5 11 5l8 -5q10 5 14 5l8 -5l6 5l9 -5l22 5q34 -12 31 -37q10 0 10 -9q-14 -9 -29 -38q-10 0 -10 -9h-26l-11 -4v8l-8 -4h-37q-2 0 -2 4l-8 -4l-18 4l-9 -4l-6 4 l-22 -4q-4 0 -4 4l-21 -8q-63 6 -106 8l-7 -4q-4 0 -4 4l-18 -4l-12 4q-2 0 -2 -4l-90 9q-77 -5 -89 -5q-2 0 -10 -4q-8 4 -16 4q-2 0 -2 -4l-21 4h-6q-6 0 -14 -4l-8 4q-11 0 -27 -8q-8 4 -14 4h-4q-8 0 -17 -36l4 -9q-4 -4 -6 -4q0 -4 4 -4l-6 -16l-4 -33l-8 -25 q0 -2 4 -2q-11 -34 -6 -45l-6 -8q4 -8 2 -14q0 -4 -4 -4l4 -6l-6 -37q-2 -9 2 -21l-7 -12q-12 -136 -20 -168v-14q-1 -5 -2 -9.5t-2 -11.5t0 -11.5t4 -4.5l-6 -19l-8 -53h82q4 0 16 -4q13 8 39 8h22q4 0 4 -4l9 4h37q2 0 2 -4q21 8 98 8h16q7 0 15 4l20 -8l23 4q6 0 2 -4 l22 4h2q17 0 33 -4q45 3 61 8q4 -4 15 -4l18 4q27 -17 35 -41v-4q0 -4 -18 -10l4 -8q-3 -10 -29 -27l-12 4q-37 -3 -37 -6l-19 2h-12q-23 0 -41 -2q-4 2 -10 2q-4 -2 -19 -2v2l-8 -2h-20q-4 0 -4 2q-6 -3 -47 -6l-4 4l-21 -4q-2 0 -10 4q-98 -10 -158 -10q-6 0 -14 -4l-6 4 q-12 -4 -13 -4v4l-8 -4q-4 0 -4 4q-47 -8 -72 -8v-4q-9 -119 0 -119v-4h-8l-12 -88v-27h-4l4 -6l-6 -31l2 -18h-4l4 -6q-4 -4 -6 -4l2 -19v-4q0 -4 -4 -4l2 -6q0 -4 -4 -4l2 -8q-5 -35 -2 -56q-2 -2 -3.5 -4.5t-2.5 -3.5t-1 -2l2 -18l-6 -9q0 -6 2 -12l-8 -33l-2 -10 q0 -10 2 -14l-6 -17v-6q-3 -8 4 -8l10 4l4 -4q12 4 15 4l-2 -4l10 4q4 0 0 -4l10 4q7 -1 8 -4q39 8 88 8q52 0 76 -8q36 4 43 4h37q8 0 12 -4l9 4q3 0 8 -0.5t14 -1.5t17 -2l34 4l6 -4q3 0 7 4q34 -3 34 -6q21 6 66 6l-2 -4l10 4h41q4 0 0 -4l10 4h23q6 0 2 -4l8 4 q4 -4 8 -4q2 0 6 4l17 -4h8q7 0 35 4q14 0 33 -31q-3 -22 -25 -32q-3 -27 -31 -27l-8 4l-20 -6q-14 2 -39 2h-33q-4 0 -4 4l-6 -4q-14 0 -54 4q-86 -4 -106 -4q-6 0 -12 -2q-35 3 -35 6l-27 -4h-127q-4 0 -4 4l-6 -4h-68q-30 0 -57 -2l2 2q-21 -6 -26 -6v4l-9 -4h-4 q-6 0 -14 4q-11 -5 -37 -8v4l-6 -4q-28 3 -55 55zM420 1501v15q37 54 98 174q10 0 37 59q25 14 47 14h4q2 0 2 -2l8 2q65 -43 121 -143q44 -71 41 -78q0 -9 6 -18l-4 -27q-17 -19 -39 -29q-1 0 -1 2t1 3l-10 -5h-8q-2 0 -2.5 2t0.5 3l-8 -5q-2 0 -2.5 2t0.5 3l-9 -5 q-11 0 -8 19l-10 -4q-34 89 -90 147q-17 -22 -66 -133q-23 -33 -43 -47l-8 2l-10 -6q-56 6 -47 55z" />
<glyph unicode="&#xcb;" horiz-adv-x="954" d="M27 45q2 6 2 12v11h2q0 4 -2 4l6 24l22 164l6 14q-4 23 -2 33h2v41q7 7 7 19v22l6 19v22q0 4 4 4l-2 43l6 17l-2 20h4l-2 8v4q10 72 10 133h4l-2 9q0 4 4 4l-2 6l4 37q0 4 4 4l-2 6q0 4 5 4q-5 13 -5 18t5 13q-3 6 -3 14q3 8 7 8q0 58 2 70q4 8 4 10q0 12 -4 12l8 25 l6 57q2 7 -2 15q6 6 6 14q2 6 -2 14q5 5 6 5q0 24 -4 36l8 23q0 10 -2 14q7 21 8 27q0 6 -4 14q7 7 7 15q4 22 2 41l8 20q-4 8 -4 10h4q0 2 -4 2q12 45 16 45q0 4 -4 4l6 25l4 25q3 6 -6 6l6 18l-2 14q30 46 39 46l43 14q31 -15 31 -19l26 5l70 2l52.5 1.5t23.5 0.5v-4l6 4 q4 0 4 -4l8 4l6 -4q12 4 13 4v-4q2 0 2 4q8 0 8 -4l22 4q118 -4 140 -4h20l21 4q15 -9 41 -9h53l18 5v-5q10 5 11 5l8 -5q10 5 14 5l8 -5l6 5l9 -5l22 5q34 -12 31 -37q10 0 10 -9q-14 -9 -29 -38q-10 0 -10 -9h-26l-11 -4v8l-8 -4h-37q-2 0 -2 4l-8 -4l-18 4l-9 -4l-6 4 l-22 -4q-4 0 -4 4l-21 -8q-63 6 -106 8l-7 -4q-4 0 -4 4l-18 -4l-12 4q-2 0 -2 -4l-90 9q-77 -5 -89 -5q-2 0 -10 -4q-8 4 -16 4q-2 0 -2 -4l-21 4h-6q-6 0 -14 -4l-8 4q-11 0 -27 -8q-8 4 -14 4h-4q-8 0 -17 -36l4 -9q-4 -4 -6 -4q0 -4 4 -4l-6 -16l-4 -33l-8 -25 q0 -2 4 -2q-11 -34 -6 -45l-6 -8q4 -8 2 -14q0 -4 -4 -4l4 -6l-6 -37q-2 -9 2 -21l-7 -12q-12 -136 -20 -168v-14q-1 -5 -2 -9.5t-2 -11.5t0 -11.5t4 -4.5l-6 -19l-8 -53h82q4 0 16 -4q13 8 39 8h22q4 0 4 -4l9 4h37q2 0 2 -4q21 8 98 8h16q7 0 15 4l20 -8l23 4q6 0 2 -4 l22 4h2q17 0 33 -4q45 3 61 8q4 -4 15 -4l18 4q27 -17 35 -41v-4q0 -4 -18 -10l4 -8q-3 -10 -29 -27l-12 4q-37 -3 -37 -6l-19 2h-12q-23 0 -41 -2q-4 2 -10 2q-4 -2 -19 -2v2l-8 -2h-20q-4 0 -4 2q-6 -3 -47 -6l-4 4l-21 -4q-2 0 -10 4q-98 -10 -158 -10q-6 0 -14 -4l-6 4 q-12 -4 -13 -4v4l-8 -4q-4 0 -4 4q-47 -8 -72 -8v-4q-9 -119 0 -119v-4h-8l-12 -88v-27h-4l4 -6l-6 -31l2 -18h-4l4 -6q-4 -4 -6 -4l2 -19v-4q0 -4 -4 -4l2 -6q0 -4 -4 -4l2 -8q-5 -35 -2 -56q-2 -2 -3.5 -4.5t-2.5 -3.5t-1 -2l2 -18l-6 -9q0 -6 2 -12l-8 -33l-2 -10 q0 -10 2 -14l-6 -17v-6q-3 -8 4 -8l10 4l4 -4q12 4 15 4l-2 -4l10 4q4 0 0 -4l10 4q7 -1 8 -4q39 8 88 8q52 0 76 -8q36 4 43 4h37q8 0 12 -4l9 4q3 0 8 -0.5t14 -1.5t17 -2l34 4l6 -4q3 0 7 4q34 -3 34 -6q21 6 66 6l-2 -4l10 4h41q4 0 0 -4l10 4h23q6 0 2 -4l8 4 q4 -4 8 -4q2 0 6 4l17 -4h8q7 0 35 4q14 0 33 -31q-3 -22 -25 -32q-3 -27 -31 -27l-8 4l-20 -6q-14 2 -39 2h-33q-4 0 -4 4l-6 -4q-14 0 -54 4q-86 -4 -106 -4q-6 0 -12 -2q-35 3 -35 6l-27 -4h-127q-4 0 -4 4l-6 -4h-68q-30 0 -57 -2l2 2q-21 -6 -26 -6v4l-9 -4h-4 q-6 0 -14 4q-11 -5 -37 -8v4l-6 -4q-28 3 -55 55zM381 1550l4 6q-2 4 -2 17q54 57 92 57h14q57 -15 54 -47q7 0 4 -33h-4l2 -8q-3 -31 -76 -59h-14q-37 0 -72 53q0 8 -2 14zM684 1569q6 39 72 61h28q34 -15 52 -59l-7 -19l-4 -24q-37 -49 -71 -49q-77 9 -68 73q-5 0 -2 17z " />
<glyph unicode="&#xcc;" horiz-adv-x="294" d="M6 35l4 24q3 9 0 15l4 6l11 108q1 1 2 3t2 2q0 42 14 108q1 -1 4 2q-8 0 -3 11q1 2 1 3v13l4 6q-2 4 -2 10l6 8q-3 6 0 15h4l-4 6l15 69q2 10 2 27l8 31q0 2 2 8t2.5 9.5t1 9.5t-1.5 8l6 8q0 4 -4 4l6 16v19h4l-2 6q0 4 4 4l-4 6l6 23q0 4 4 4q-2 4 -2 10q16 124 25 162 v18q5 8 6.5 22t0.5 25l-1 10q3 4 4 3l12 73l19 101v20q4 4 8 19v18h4l-4 6q0 4 4 4v8q10 55 4 82q0 1 3.5 6t4.5 9l-2 14h5q-7 34 2 51q0 6 6 12q0 3 0.5 9.5t1.5 20t2 26.5l4 6l2 22l43 17l22 -2q17 0 17 -78l-4 -25l6 -10v-4q-1 -3 -4 -8t-4 -6l2 -8q0 -3 -4 -3l-13 -155 l-4 -6l-2 -23v-6q0 -4 -4 -4l2 -6l-6 -37q0 -4 -4 -4v-6l-2 -11q0 -4 -4 -4l4 -8l-8 -35q-23 -129 -35 -233h-4l4 -6l-4 -8q0 -5 -2 -5l2 -8l-8 -30v-25h-2v-8q0 -4 -5 -4l5 -7q-4 -4 -7 -4l5 -8l-41 -207l-5 -43h-4v-8l-8 -47q-2 -6 -2 -31l-6 -8q-15 -134 -18 -213 q-7 -7 -7 -8l4 -8q-17 -28 -34 -35l-29 2q-2 0 -2 4l-8 -4q-15 0 -27 35zM35 1706l2 4q3 29 53 64q0 4 4 4h25q60 -75 205 -207q12 -27 12 -35q-6 -38 -60 -47q0 4 -4 4q-3 -8 -8 -8h-8q-20 0 -29 26q-6 0 -90 78q-37 28 -63 57.5t-39 59.5z" />
<glyph unicode="&#xcd;" horiz-adv-x="276" d="M6 35l4 24q3 9 0 15l4 6l11 108q1 1 2 3t2 2q0 42 14 108q1 -1 4 2q-8 0 -3 11q1 2 1 3v13l4 6q-2 4 -2 10l6 8q-3 6 0 15h4l-4 6l15 69q2 10 2 27l8 31q0 2 2 8t2.5 9.5t1 9.5t-1.5 8l6 8q0 4 -4 4l6 16v19h4l-2 6q0 4 4 4l-4 6l6 23q0 4 4 4q-2 4 -2 10q16 124 25 162 v18q5 8 6.5 22t0.5 25l-1 10q3 4 4 3l12 73l19 101v20q4 4 8 19v18h4l-4 6q0 4 4 4v8q10 55 4 82q0 1 3.5 6t4.5 9l-2 14h5q-7 34 2 51q0 6 6 12q0 3 0.5 9.5t1.5 20t2 26.5l4 6l2 22l43 17l22 -2q17 0 17 -78l-4 -25l6 -10v-4q-1 -3 -4 -8t-4 -6l2 -8q0 -3 -4 -3l-13 -155 l-4 -6l-2 -23v-6q0 -4 -4 -4l2 -6l-6 -37q0 -4 -4 -4v-6l-2 -11q0 -4 -4 -4l4 -8l-8 -35q-23 -129 -35 -233h-4l4 -6l-4 -8q0 -5 -2 -5l2 -8l-8 -30v-25h-2v-8q0 -4 -5 -4l5 -7q-4 -4 -7 -4l5 -8l-41 -207l-5 -43h-4v-8l-8 -47q-2 -6 -2 -31l-6 -8q-15 -134 -18 -213 q-7 -7 -7 -8l4 -8q-17 -28 -34 -35l-29 2q-2 0 -2 4l-8 -4q-15 0 -27 35zM244 1536q0 8 18 35q178 128 262 207h25q4 0 4 -4q40 -34 37 -64l-2 -4q-46 -62 -135 -117q-104 -78 -111 -78q-14 -26 -37 -26h-8q-7 0 -4 8q-4 0 -4 -4q-51 9 -45 47z" />
<glyph unicode="&#xce;" horiz-adv-x="333" d="M47 35l4 24v15l2 6l10 108q5 5 7 5q0 42 14 108q2 -2 2 2q-3 0 -4 1.5t0 4t2 4.5l2 4q-2 7 2 19v10l6 8q-3 6 0 15h2l-2 6l12 69q4 22 3 27q2 12 10 31l2 20q3 9 0 15l6 8q0 4 -4 4l8 16l-2 19h4v6q0 4 2 4l-2 6l4 23l4 4v10q17 124 25 162l-2 18q5 8 7 22t2 25l-1 10 q0 2 1.5 3t2.5 0l10 73l21 101v20q4 4 8 19v18h2l-2 6q0 4 4 4l-2 8q11 60 6 82l6 15v14h4q-7 17 0 51q0 5 7 12q0 3 0.5 9.5t1.5 20t2 26.5l4 6l2 22l43 17l22 -2q20 0 17 -78l-2 -25l4 -10v-4l-6 -14v-8q0 -3 -2 -3l-15 -155l-4 -6v-29l-4 -4v-6l-6 -37q0 -4 -4 -4l2 -6 l-2 -11q0 -4 -4 -4l2 -8l-8 -35q-33 -216 -35 -233h-2l2 -6l-2 -8q0 -5 -4 -5l4 -8l-8 -30v-25h-5l3 -8q0 -4 -5 -4l2 -7q-4 -4 -6 -4l4 -8l-41 -207l-4 -43h-4l2 -8l-8 -47q-4 -12 -4 -31l-6 -8q-12 -106 -16 -213q-7 -7 -7 -8l2 -8q-14 -27 -32 -35l-29 2q-2 0 -2 4l-8 -4 q-15 0 -27 35zM129 1501v15q40 54 98 174q12 0 39 59q25 14 45 14h4q4 0 4 -2l9 2q63 -43 121 -143q40 -70 38 -78q0 -7 7 -18l-5 -27q-17 -19 -36 -29q-2 0 -2.5 2t0.5 3l-11 -5h-6q-2 0 -2.5 2t0.5 3l-10 -5q-2 0 -2.5 2t0.5 3l-8 -5q-9 0 -6 19l-11 -4q-35 89 -90 147 q-16 -16 -67 -133q-23 -33 -43 -47l-7 2l-12 -6q-56 6 -47 55z" />
<glyph unicode="&#xcf;" horiz-adv-x="325" d="M47 35l4 24v15l2 6l10 108q5 5 7 5q0 42 14 108q2 -2 2 2q-3 0 -4 1.5t0 4t2 4.5l2 4q-2 7 2 19v10l6 8q-3 6 0 15h2l-2 6l12 69q4 22 3 27q2 12 10 31l2 20q3 9 0 15l6 8q0 4 -4 4l8 16l-2 19h4v6q0 4 2 4l-2 6l4 23l4 4v10q17 124 25 162l-2 18q5 8 7 22t2 25l-1 10 q0 2 1.5 3t2.5 0l10 73l21 101v20q4 4 8 19v18h2l-2 6q0 4 4 4l-2 8q11 60 6 82l6 15v14h4q-7 17 0 51q0 5 7 12q0 3 0.5 9.5t1.5 20t2 26.5l4 6l2 22l43 17l22 -2q20 0 17 -78l-2 -25l4 -10v-4l-6 -14v-8q0 -3 -2 -3l-15 -155l-4 -6v-29l-4 -4v-6l-6 -37q0 -4 -4 -4l2 -6 l-2 -11q0 -4 -4 -4l2 -8l-8 -35q-33 -216 -35 -233h-2l2 -6l-2 -8q0 -5 -4 -5l4 -8l-8 -30v-25h-5l3 -8q0 -4 -5 -4l2 -7q-4 -4 -6 -4l4 -8l-41 -207l-4 -43h-4l2 -8l-8 -47q-4 -12 -4 -31l-6 -8q-12 -106 -16 -213q-7 -7 -7 -8l2 -8q-14 -27 -32 -35l-29 2q-2 0 -2 4l-8 -4 q-15 0 -27 35zM80 1550l4 6q-2 4 -2 17q57 57 94 57h14q57 -15 54 -47q7 0 4 -33h-4l2 -8q-3 -31 -76 -59h-14q-39 0 -74 53q0 8 -2 14zM385 1552q-3 0 0 17q6 40 70 61h28q36 -16 54 -59l-7 -19l-4 -24q-37 -49 -73 -49q-77 9 -68 73z" />
<glyph unicode="&#xd0;" horiz-adv-x="1024" d="M-98 664q6 46 51 55q10 0 27 14l8 -4q11 8 18 8l2 -8l6 4h13q4 0 4 -4l6 4q4 0 16 -4l6 4q7 0 41 -6l23 160l8 31l-4 8l6 6l-2 22h4q0 2 -4 2l10 37l4 25q0 4 2 4q0 2 -2 2l23 113q-2 10 -2 24l6 15l-2 8q0 1 6 10q0 39 4 59q0 9 -6 9q12 35 8 61q9 49 45 49q3 16 45 25 l17 -4q4 0 4 4l24 -4h43q5 0 33 4l6 -4q8 4 15 4v-4l8 4l14 -4l6 4l7 -4q4 0 4 4q57 -6 57 -11l8 5q4 0 4 -5q2 0 2 5q149 -18 252 -68q177 -125 215 -252q39 -132 29 -215q3 0 0 -6h-2q2 -41 -2 -96l-8 -58q-12 -90 -21 -90q-4 -4 2 -4l-6 -24q-2 -7 2 -15 q-70 -259 -127 -356q-80 -110 -215 -164q-155 -76 -252 -76l2 4q-20 -3 -20 -8l-19 4q-41 -8 -61 -8h-8l-13 8q0 -8 -6 -8h-16q-4 0 -12 4q-5 0 -5 -4l-26 4h-35q-4 0 -4 4l-6 -4h-19q-7 0 -4 8l-10 -4h-6q-6 0 -2 4l-4 -4q-58 3 -58 15l-6 -5q-23 0 -20 95q6 6 6 10l-4 6 l6 8l-2 21h8l4 24l-2 19h4q0 14 -10 14q12 10 12 23q0 6 -8 6l6 8l2 10h-6v4h6q1 18 2 37.5t1.5 30t0.5 14.5h2q3 39 -4 39l4 6l2 4h-4l-2 -6q-7 0 -4 6q3 0 13 13v2h-9v8h9l6 35h-11v12l7 -4h4l-2 6h4q-3 25 -8 25l4 8v8q3 3 0 39q4 18 10 29q-7 0 -4 10l8 35v24l6 19 q0 4 -4 4l4 12l-6 -2h-18q-11 0 -15 2q-4 -2 -10 -2q-17 0 -31 2l-67 -6q-13 7 -22 13t-12.5 10t-2.5 6h-4zM127 63q-1 -3 18.5 -6.5t61 -7t100.5 -6.5q82 6 88 6l8 -4q8 4 15 4q4 0 4 -4q48 0 231 82q106 66 144 156q37 100 43 100l-4 6l61 205l-4 6q10 52 22 96l-4 9l9 20 q18 137 -29 317q-15 47 -57 95q-108 120 -193 129q-40 18 -100 30q-2 0 -6 -4q-60 13 -129 13h-64q-4 0 -4 4l-8 -4h-25l-24 4l2 -27l-7 -33q0 -9 3 -12l-2 -4t-1.5 -3.5t-1 -2.5t-0.5 -2v-6q0 -5 -2 -5v-14l-6 -35q-4 -4 0 -4l-4 -18l-4 -35q0 -4 -4 -4l2 -6l-6 -51 q-5 -5 -6 -5q1 -5 1.5 -9.5t1 -7.5t1 -5.5t0.5 -3.5q-8 -3 -8 -8l-2 -9q0 -10 2 -14l-13 -31l2 -22q0 -4 -6 -10q0 -7 2 -11q-15 -56 -24 -125l2 -8l-6 -14l-4 -37q2 -2 10 -2q2 1 5 2l4.5 1.5t2.5 0.5v-4q10 5 59 8l37 -4q8 4 15 4v-4l8 4h24q7 0 19 4q4 -4 12 -4h25l22 4 l-2 -4l8 4q19 -12 39 -14q-7 -37 -20.5 -60.5t-28.5 -23.5l-6 2q-6 -2 -12 -2q-12 6 -23 6h-22l-37 -4v4l-6 -4h-17q-4 0 -4 4l-6 -4h-92q-4 0 -4 4q-9 -6 -23 -6v-2q-2 -5 2 -16l-12 -19l8 -2q-3 -4 -4.5 -10t2.5 -8l-6 -19l-2 -12l-2 -37h-4q0 -4 4 -4q-6 -17 -7 -26.5 t1 -45.5h-4l4 -6l-17 -158h-2q4 -23 2 -28h-4l4 -6l-12 -148l2 -14h-4l2 -6z" />
<glyph unicode="&#xd1;" horiz-adv-x="952" d="M-12 47q23 107 59 215l12 86l7 14q-3 6 -3 15v4q14 14 21 47q0 4 -4 4l6 19v4q2 6 -2 14l16 23q24 143 33 163q-3 20 0 29h4l-2 8v4q0 2 4 2l-2 9v4q0 4 4 4l-2 8v2q3 8 8 8q0 2 -4 2q27 136 35 201l10 74l7 14l-2 8l6 15l-4 8q19 40 28 119q4 4 6 4q0 2 -4 2 q13 42 21 86l6 51q0 4 4 4l-2 6q3 21 9.5 31t31.5 26h8q4 0 0 -4l10 4q96 -21 93 -49q6 0 79 -98q50 -86 136 -215q50 -107 155 -242v4q0 4 -2 4l4 19v14h2v8q19 214 37 351l6 18q-4 9 -2 19l6 45q2 5 -2 16l6 6q0 9 -2 23l7 10q-3 24 2 41q30 59 57 59q57 -9 51 -51l-4 -8 q-3 -23 4 -23l-6 -18l-4 -23v-37h-4l4 -6l-8 -18q0 -4 4 -4l-8 -27l-2 -24q-3 -10 0 -17l-7 -14q0 -8 3 -14l-5 -9q0 -4 5 -4l-9 -24l-16 -197q2 -4 2 -10h-4l2 -8q0 -4 -4 -4l2 -19l-8 -55v-37h-4q4 -42 -2 -170q0 -4 -5 -4v-19l-4 -41l-2 -36h-4l4 -9q-2 -2 -6 -2l4 -8 q0 -4 -4 -4l-6 -135l-4 -8l-4 -88h-4q0 -4 4 -4l-8 -21q4 -8 4 -10h-4q2 -4 2 -10q-6 -62 -9 -68h-2q2 -4 2 -33h-4q7 -18 7 -22h-5l2 -6l-10 -13l4 -8q-15 -47 -26 -47h-82q-9 3 -12 18q11 33 18.5 106.5t5.5 96.5l6 4q0 4 -2 4l4 19v14h2v45l6 8q-3 27 0 62h5l-5 63l9 19 q21 147 -4 147q-62 121 -62 123q-46 46 -90 129l-192 299q-57 100 -66 100l-45 -198l-6 -37l-6 -45q0 -4 -4 -4l2 -6l-9 -64q-3 -8 0 -14q-24 -96 -32 -160q0 -3 -7 -10q4 -11 0 -37q0 -4 -4 -4l2 -8q-28 -152 -41 -189q0 -4 3 -4l-5 -18v-8l-24 -80l6 -4l-6 -19l-6 -51 l-11 -45q2 0 3 -1.5t0 -2.5q-5 0 -46 -133q4 -21 -4 -33l4 -8l-6 -6q4 -11 2 -13q-33 -45 -63 -45v4l-8 -4h-9q-29 23 -32 37zM322 1538h4l-2 8l4 39q6 9 22 57q54 79 101 99q32 16 45 16q4 0 4 -4l6 4h18q76 0 189 -168q33 -20 45 -20h12q49 21 49 30q13 23 19 23l-4 6v4 q4 4 6 4q-2 6 -2 45q4 0 4 5q-7 0 -4 8h2l-2 6v4l47 49q8 4 10 4q46 -6 43 -24q1 -2 2 -4.5t1.5 -4t0.5 -2.5q-6 -9 -6 -12q5 0 8 -10v-2q-6 -17 -10 -23l2 -18q-15 -112 -133 -178v4q-36 -19 -47 -19q-12 4 -17 4q-8 -4 -10 -4v4l-8 -4q-97 48 -105 82q-10 0 -69 90 q-27 27 -72 27q-69 -42 -78 -113q3 -15 0 -32q-1 0 -24 -23h-33l-6 4q0 -4 -4 -4q0 4 -4 4l6 8q-13 16 -10 31z" />
<glyph unicode="&#xd2;" horiz-adv-x="1064" d="M86 596h2l-2 6l8 49q2 10 -2 19l8 22q12 88 31 180q0 5 -4 5l6 18l4 27q0 4 4 4q2 2 -2 2q45 158 101 246l-2 6q49 106 127 163q57 63 100 66q5 0 24 8v-4q25 14 99 14q4 -4 8 -4q5 11 16 17q4 0 4 -4q14 3 17 8q2 0 10 -4q86 4 98 4h21q58 0 94 -31v4q50 -9 102 -51 q60 -34 113 -178q19 -74 19 -76l-7 -10q8 0 11 -60h-4q9 -34 6 -73h-4l4 -6l-2 -9q0 -4 -4 -4l4 -8l-2 -6q0 -4 -5 -4q6 -6 3 -41h-5l5 -6l-3 -4l-4 -9q7 0 4 -8v-10h-6v-18q0 -5 -4 -5l4 -6l-2 -12q0 -2 -4 -2l2 -8v-4q-4 -4 -6 -4l4 -7v-4q-3 -12 -6 -12l2 -18l-8 -56h-8 q-2 -9 2 -18q-39 -133 -62 -197q0 -2 2 -2q-12 -41 -16 -41q0 -4 4 -4q-59 -151 -92 -207q-61 -86 -84 -106q-130 -112 -229 -137q-36 -14 -82 -17q-15 3 -15 8q-2 0 -2 -4q-212 35 -209 56q-142 115 -163 270q-26 194 -23 297zM178 598q9 -238 35 -350q20 -56 76 -115 q52 -67 137 -67q0 -5 68 -11q82 0 219 107q81 78 104 137l8 4q-2 4 -2 10l25 49v9q12 0 47 133q15 0 61 235l11 52q0 6 -2 12q4 10 10 41l6 41q0 4 4 4l-4 29q4 8 5 27t-1 20l4 8v22q2 0 2 4q-7 0 -4 7l2 16l4 6q-7 0 -16 105q-1 0 -45 102q-9 3 -14 22q-42 51 -160 78 q-9 0 -6 8l-7 -4q-22 3 -22 7q-4 0 -4 -3l-45 3h-25q-26 -11 -33 -11l-4 4q-169 -43 -172 -55q-11 0 -80 -72q-65 -115 -124 -276l4 -8q-6 -27 -11 -27q0 -2 2 -2q-9 -41 -12 -41q0 -4 4 -4l-8 -18l-8 -60q0 -8 -6 -14q4 -8 4 -10l-8 -27q-4 -4 2 -4l-6 -19l-11 -84v-20h-4z M455 1706l2 4q3 29 53 64q0 4 4 4h27q67 -85 202 -207q13 -29 13 -35q-6 -38 -60 -47q0 4 -4 4q-3 -8 -8 -8h-8q-20 0 -29 26q-6 0 -90 78q-76 57 -102 117z" />
<glyph unicode="&#xd3;" horiz-adv-x="1056" d="M86 596h2l-2 6l8 49q2 10 -2 19l8 22q12 88 31 180q0 5 -4 5l6 18l4 27q0 4 4 4q2 2 -2 2q45 158 101 246l-2 6q49 106 127 163q57 63 100 66q5 0 24 8v-4q25 14 99 14q4 -4 8 -4q5 11 16 17q4 0 4 -4q14 3 17 8q2 0 10 -4q86 4 98 4h21q58 0 94 -31v4q50 -9 102 -51 q60 -34 113 -178q19 -74 19 -76l-7 -10q8 0 11 -60h-4q9 -34 6 -73h-4l4 -6l-2 -9q0 -4 -4 -4l4 -8l-2 -6q0 -4 -5 -4q6 -6 3 -41h-5l5 -6l-3 -4l-4 -9q7 0 4 -8v-10h-6v-18q0 -5 -4 -5l4 -6l-2 -12q0 -2 -4 -2l2 -8v-4q-4 -4 -6 -4l4 -7v-4q-3 -12 -6 -12l2 -18l-8 -56h-8 q-2 -9 2 -18q-39 -133 -62 -197q0 -2 2 -2q-12 -41 -16 -41q0 -4 4 -4q-59 -151 -92 -207q-61 -86 -84 -106q-130 -112 -229 -137q-36 -14 -82 -17q-15 3 -15 8q-2 0 -2 -4q-212 35 -209 56q-142 115 -163 270q-26 194 -23 297zM178 598q9 -238 35 -350q20 -56 76 -115 q52 -67 137 -67q0 -5 68 -11q82 0 219 107q81 78 104 137l8 4q-2 4 -2 10l25 49v9q12 0 47 133q15 0 61 235l11 52q0 6 -2 12q4 10 10 41l6 41q0 4 4 4l-4 29q4 8 5 27t-1 20l4 8v22q2 0 2 4q-7 0 -4 7l2 16l4 6q-7 0 -16 105q-1 0 -45 102q-9 3 -14 22q-42 51 -160 78 q-9 0 -6 8l-7 -4q-22 3 -22 7q-4 0 -4 -3l-45 3h-25q-26 -11 -33 -11l-4 4q-169 -43 -172 -55q-11 0 -80 -72q-65 -115 -124 -276l4 -8q-6 -27 -11 -27q0 -2 2 -2q-9 -41 -12 -41q0 -4 4 -4l-8 -18l-8 -60q0 -8 -6 -14q4 -8 4 -10l-8 -27q-4 -4 2 -4l-6 -19l-11 -84v-20h-4z M643 1536q0 6 19 35q178 128 262 207h26q4 0 4 -4q38 -32 35 -64l-2 -4q-43 -60 -133 -117q-107 -78 -111 -78q-14 -26 -38 -26h-7q-9 0 -6 8q-4 0 -4 -4q-51 9 -45 47z" />
<glyph unicode="&#xd4;" horiz-adv-x="1067" d="M86 596h2l-2 6l8 49q2 10 -2 19l8 22q12 88 31 180q0 5 -4 5l6 18l4 27q0 4 4 4q2 2 -2 2q45 158 101 246l-2 6q49 106 127 163q57 63 100 66q5 0 24 8v-4q25 14 99 14q4 -4 8 -4q5 11 16 17q4 0 4 -4q14 3 17 8q2 0 10 -4q86 4 98 4h21q58 0 94 -31v4q50 -9 102 -51 q60 -34 113 -178q19 -74 19 -76l-7 -10q8 0 11 -60h-4q9 -34 6 -73h-4l4 -6l-2 -9q0 -4 -4 -4l4 -8l-2 -6q0 -4 -5 -4q6 -6 3 -41h-5l5 -6l-3 -4l-4 -9q7 0 4 -8v-10h-6v-18q0 -5 -4 -5l4 -6l-2 -12q0 -2 -4 -2l2 -8v-4q-4 -4 -6 -4l4 -7v-4q-3 -12 -6 -12l2 -18l-8 -56h-8 q-2 -9 2 -18q-39 -133 -62 -197q0 -2 2 -2q-12 -41 -16 -41q0 -4 4 -4q-59 -151 -92 -207q-61 -86 -84 -106q-130 -112 -229 -137q-36 -14 -82 -17q-15 3 -15 8q-2 0 -2 -4q-212 35 -209 56q-142 115 -163 270q-26 194 -23 297zM178 598q9 -238 35 -350q20 -56 76 -115 q52 -67 137 -67q0 -5 68 -11q82 0 219 107q81 78 104 137l8 4q-2 4 -2 10l25 49v9q12 0 47 133q15 0 61 235l11 52q0 6 -2 12q4 10 10 41l6 41q0 4 4 4l-4 29q4 8 5 27t-1 20l4 8v22q2 0 2 4q-7 0 -4 7l2 16l4 6q-7 0 -16 105q-1 0 -45 102q-9 3 -14 22q-42 51 -160 78 q-9 0 -6 8l-7 -4q-22 3 -22 7q-4 0 -4 -3l-45 3h-25q-26 -11 -33 -11l-4 4q-169 -43 -172 -55q-11 0 -80 -72q-65 -115 -124 -276l4 -8q-6 -27 -11 -27q0 -2 2 -2q-9 -41 -12 -41q0 -4 4 -4l-8 -18l-8 -60q0 -8 -6 -14q4 -8 4 -10l-8 -27q-4 -4 2 -4l-6 -19l-11 -84v-20h-4z M528 1501v15q43 59 99 174q12 0 39 59q25 14 47 14h2q4 0 4 -2l8 2q65 -43 121 -143q43 -71 41 -78q0 -6 4 -18l-4 -27q-14 -19 -37 -29q-2 0 -2.5 2t0.5 3l-8 -5h-8q-2 0 -3 2t0 3l-8 -5q-2 0 -2.5 2t0.5 3l-10 -5q-9 0 -6 19l-10 -4q-35 89 -90 147q-15 -19 -68 -133 q-19 -32 -43 -47l-6 2l-10 -6q-59 6 -50 55z" />
<glyph unicode="&#xd5;" horiz-adv-x="1067" d="M86 596h2l-2 6l8 49q2 10 -2 19l8 22q12 88 31 180q0 5 -4 5l6 18l4 27q0 4 4 4q2 2 -2 2q45 158 101 246l-2 6q49 106 127 163q57 63 100 66q5 0 24 8v-4q25 14 99 14q4 -4 8 -4q5 11 16 17q4 0 4 -4q14 3 17 8q2 0 10 -4q86 4 98 4h21q58 0 94 -31v4q50 -9 102 -51 q60 -34 113 -178q19 -74 19 -76l-7 -10q8 0 11 -60h-4q9 -34 6 -73h-4l4 -6l-2 -9q0 -4 -4 -4l4 -8l-2 -6q0 -4 -5 -4q6 -6 3 -41h-5l5 -6l-3 -4l-4 -9q7 0 4 -8v-10h-6v-18q0 -5 -4 -5l4 -6l-2 -12q0 -2 -4 -2l2 -8v-4q-4 -4 -6 -4l4 -7v-4q-3 -12 -6 -12l2 -18l-8 -56h-8 q-2 -9 2 -18q-39 -133 -62 -197q0 -2 2 -2q-12 -41 -16 -41q0 -4 4 -4q-59 -151 -92 -207q-61 -86 -84 -106q-130 -112 -229 -137q-36 -14 -82 -17q-15 3 -15 8q-2 0 -2 -4q-212 35 -209 56q-142 115 -163 270q-26 194 -23 297zM178 598q9 -238 35 -350q20 -56 76 -115 q52 -67 137 -67q0 -5 68 -11q82 0 219 107q81 78 104 137l8 4q-2 4 -2 10l25 49v9q12 0 47 133q15 0 61 235l11 52q0 6 -2 12q4 10 10 41l6 41q0 4 4 4l-4 29q4 8 5 27t-1 20l4 8v22q2 0 2 4q-7 0 -4 7l2 16l4 6q-7 0 -16 105q-1 0 -45 102q-9 3 -14 22q-42 51 -160 78 q-9 0 -6 8l-7 -4q-22 3 -22 7q-4 0 -4 -3l-45 3h-25q-26 -11 -33 -11l-4 4q-169 -43 -172 -55q-11 0 -80 -72q-65 -115 -124 -276l4 -8q-6 -27 -11 -27q0 -2 2 -2q-9 -41 -12 -41q0 -4 4 -4l-8 -18l-8 -60q0 -8 -6 -14q4 -8 4 -10l-8 -27q-4 -4 2 -4l-6 -19l-11 -84v-20h-4z M422 1538h4l-2 8l4 39l21 57q55 80 100 99q37 16 45 16q4 0 4 -4l8 4h19q75 0 188 -168q33 -20 45 -20h10q52 21 52 30q13 23 18 23l-4 6v4q4 4 6 4q-2 6 -2 45q4 0 4 5q-7 0 -4 8h2l-2 6v4l47 49q8 4 10 4q46 -6 43 -24q1 -2 2 -4.5t1.5 -4t0.5 -2.5q-6 -9 -6 -12 q5 0 8 -10v-2q-6 -17 -10 -23l2 -18q-15 -112 -133 -178v4q-36 -19 -49 -19q-8 4 -14 4q-8 -4 -11 -4v4l-8 -4q-96 47 -104 82q-11 0 -70 90q-27 27 -72 27q-68 -41 -77 -113q3 -15 0 -32q-1 0 -27 -23h-31l-8 4q0 -4 -4 -4q0 4 -2 4l4 8q-11 18 -8 31z" />
<glyph unicode="&#xd6;" horiz-adv-x="1075" d="M86 596h2l-2 6l8 49q2 10 -2 19l8 22q12 88 31 180q0 5 -4 5l6 18l4 27q0 4 4 4q2 2 -2 2q45 158 101 246l-2 6q49 106 127 163q57 63 100 66q5 0 24 8v-4q25 14 99 14q4 -4 8 -4q5 11 16 17q4 0 4 -4q14 3 17 8q2 0 10 -4q86 4 98 4h21q58 0 94 -31v4q50 -9 102 -51 q60 -34 113 -178q19 -74 19 -76l-7 -10q8 0 11 -60h-4q9 -34 6 -73h-4l4 -6l-2 -9q0 -4 -4 -4l4 -8l-2 -6q0 -4 -5 -4q6 -6 3 -41h-5l5 -6l-3 -4l-4 -9q7 0 4 -8v-10h-6v-18q0 -5 -4 -5l4 -6l-2 -12q0 -2 -4 -2l2 -8v-4q-4 -4 -6 -4l4 -7v-4q-3 -12 -6 -12l2 -18l-8 -56h-8 q-2 -9 2 -18q-39 -133 -62 -197q0 -2 2 -2q-12 -41 -16 -41q0 -4 4 -4q-59 -151 -92 -207q-61 -86 -84 -106q-130 -112 -229 -137q-36 -14 -82 -17q-15 3 -15 8q-2 0 -2 -4q-212 35 -209 56q-142 115 -163 270q-26 194 -23 297zM178 598q9 -238 35 -350q20 -56 76 -115 q52 -67 137 -67q0 -5 68 -11q82 0 219 107q81 78 104 137l8 4q-2 4 -2 10l25 49v9q12 0 47 133q15 0 61 235l11 52q0 6 -2 12q4 10 10 41l6 41q0 4 4 4l-4 29q4 8 5 27t-1 20l4 8v22q2 0 2 4q-7 0 -4 7l2 16l4 6q-7 0 -16 105q-1 0 -45 102q-9 3 -14 22q-42 51 -160 78 q-9 0 -6 8l-7 -4q-22 3 -22 7q-4 0 -4 -3l-45 3h-25q-26 -11 -33 -11l-4 4q-169 -43 -172 -55q-11 0 -80 -72q-65 -115 -124 -276l4 -8q-6 -27 -11 -27q0 -2 2 -2q-9 -41 -12 -41q0 -4 4 -4l-8 -18l-8 -60q0 -8 -6 -14q4 -8 4 -10l-8 -27q-4 -4 2 -4l-6 -19l-11 -84v-20h-4z M489 1550l5 6q-2 4 -2 17q57 57 94 57h14q56 -14 53 -47q7 0 4 -33h-4l2 -8q-3 -31 -75 -59h-15q-38 0 -73 53q0 5 -3 14zM795 1569q6 40 69 61h31q32 -14 51 -59l-6 -19l-4 -24q-37 -49 -74 -49q-74 9 -65 73q-5 0 -2 17z" />
<glyph unicode="&#xd7;" horiz-adv-x="587" d="M80 477q106 118 180 182q-96 74 -149 146l2 16q35 53 63 53q24 -17 78 -77q36 -24 80 -68h4q3 10 72 76l82 74h10q4 0 4 -5l6 5h4q22 -16 25 -58q-27 -35 -60 -57q-8 -13 -90 -92q46 -55 178 -160q3 -10 5.5 -18.5t4 -12t1.5 -4.5q-9 -47 -48 -47l-6 4q-8 -4 -16 -4 q-59 29 -191 170l3 4h-5q-3 -14 -32 -31q0 -3 -68 -65l-51 -59q-20 -13 -37 -13h-10q-20 3 -29.5 9.5t-7.5 17.5v4q2 0 6 4q-8 0 -8 6z" />
<glyph unicode="&#xd8;" horiz-adv-x="1081" d="M86 596h2l-2 6l8 49q2 10 -2 19l8 22q12 88 31 180q0 5 -4 5l6 18l4 27q0 4 4 4q2 2 -2 2q45 158 101 246l-2 6q49 106 127 163q57 63 100 66q5 0 24 8v-4q25 14 99 14q4 -4 8 -4q5 11 16 17q4 0 4 -4q14 3 17 8q2 0 10 -4q86 4 98 4h21q14 0 20 -2l25 51q36 17 39 31h28 q7 0 7 -6l8 6h4q32 -25 29 -66q-3 -8 -23 -53q35 -17 59 -39q60 -34 113 -178q19 -74 19 -76l-7 -10q8 0 11 -60h-4q9 -34 6 -73h-4l4 -6l-2 -9q0 -4 -4 -4l4 -8l-2 -6q0 -4 -5 -4q6 -6 3 -41h-5l5 -6l-3 -4l-4 -9q7 0 4 -8v-10h-6v-18q0 -5 -4 -5l4 -6l-2 -12q0 -2 -4 -2 l2 -8v-4q-4 -4 -6 -4l4 -7v-4q-3 -12 -6 -12l2 -18l-8 -56h-8q-2 -9 2 -18q-39 -133 -62 -197q0 -2 2 -2q-12 -41 -16 -41q0 -4 4 -4q-59 -151 -92 -207q-61 -86 -84 -106q-130 -112 -229 -137q-36 -14 -82 -17q-15 3 -15 8q-2 0 -2 -4q-126 20 -182 37q-9 -22 -12 -22v-23 q-20 -51 -62 -51v4l-8 -4h-4q-46 27 -43 70q20 36 29 36q0 5 -4 5q15 33 22 55q-93 96 -108 219q-26 194 -23 297zM178 598q9 -238 35 -350q11 -30 43 -78q102 237 129 285q4 4 -4 4l45 102q-4 0 -4 4q6 0 24 60q10 16 15 16l-2 8q21 56 26 56l-2 8q41 80 121 274 q33 64 113 303q6 0 24 49q-18 3 -18 7q-4 0 -4 -3l-45 3h-25q-26 -11 -33 -11l-4 4q-169 -43 -172 -55q-11 0 -80 -72q-65 -115 -124 -276l4 -8q-6 -27 -11 -27q0 -2 2 -2q-9 -41 -12 -41q0 -4 4 -4l-8 -18l-8 -60q0 -8 -6 -14q4 -8 4 -10l-8 -27q-4 -4 2 -4l-6 -19l-11 -84 v-20h-4zM334 92q39 -26 92 -26q0 -5 68 -11q82 0 219 107q81 78 104 137l8 4q-2 4 -2 10l25 49v9q12 0 47 133q15 0 61 235l11 52q0 6 -2 12q4 10 10 41l6 41q0 4 4 4l-4 29q4 8 5 27t-1 20l4 8v22q2 0 2 4q-7 0 -4 7l2 16l4 6q-7 0 -16 105q-1 0 -45 102q-9 3 -14 22 q-21 27 -68 48l-19 -39q-31 -61 -79 -203z" />
<glyph unicode="&#xd9;" horiz-adv-x="1099" d="M72 451h4l-2 8l4 28q3 21 -4 21q0 6 2 6q1 15 8 64l2 24v23q6 9 6 12q-4 8 -4 10h4q1 2 0.5 3t-2.5 1q11 36 6 47q6 9 6 17q3 27 0 33q7 7 7 14l4 22v27q6 0 6 6v12h2q0 5 -2 5l6 24l6 45v15l12 51q-2 6 -2 12l9 2l-5 21q10 17 13 32q-4 9 -2 11q3 0 12 12l-6 14 q12 20 20 47l-4 8q0 5 4 5q2 2 -2 10q14 65 15 71h4q-4 9 -2 11q15 69 18 69q1 2 0.5 3t-2.5 1q6 49 66 74h4q34 0 43 -41l-4 -6v-18q-13 -29 -13 -33t4 -4q-15 -68 -20 -68l2 -8q-13 -63 -19 -78q3 -10 7 -10q-9 -43 -17 -43q-1 -1 -0.5 -2.5t2.5 -1.5l-6 -19l-20 -114h-4 l4 -8q0 -5 -4 -5l2 -6q0 -4 -4 -4l2 -8l-5 -10q0 -25 -2 -33l-2 -23q0 -4 -4 -4l2 -8q0 -4 -4 -4q0 -2 4 -2q-1 -2 -2.5 -5.5t-2 -5t-1 -4t0 -5.5t1.5 -7q-8 -19 -8 -32v-19h-4l4 -8q0 -2 -4 -2v-27q0 -2 -8 -30q-4 -4 2 -4q0 -3 -4 -11q-3 -60 -2 -69l-6 -9q-7 -86 -7 -159 h-2l6 -47l-4 -9q6 -86 31 -141q73 -113 156 -113q-1 -1 1.5 -2.5t8 -2.5t13.5 -1.5t20 -1.5q4 0 4 4l18 -4h37q101 9 146 37q17 0 129 92q13 13 38 54q-3 0 6 13t21 33.5t14 32.5l-4 9q6 14 11 14l-2 8q21 24 36 107q8 0 17 41q0 4 -2 4q24 78 37 129q-2 6 -2 12h4l-4 25 l4 8q-4 8 -2 14h4q0 4 -4 4q10 27 14 33l-8 4q14 38 14 51l-2 8q0 5 4 5l-2 18l12 84q2 10 2 41l7 10l-7 17l5 10v28l6 13l4 133l6 6q-4 11 -2 16q0 4 4 4q-7 58 2 148q13 0 25 27q21 6 26 6q0 -4 4 -4q3 12 6 12q22 -12 41 -35v-2l-2 -8q7 0 4 -6v-4q0 -5 -4 -5 q-3 -65 4 -65l-2 -8l-4 -27q-3 -8 0 -14l-4 -8q3 -6 0 -15q-2 0 -2 -4q6 0 6 -28l-6 -21q-9 -139 -6 -166h-4q2 -4 2 -10q-6 -6 -6 -10l6 -4l-4 -9v-10l-2 -22q-1 -2 -1.5 -5t-1 -5t-1.5 -3l2 -6q-4 -12 -4 -14l6 -4q-18 -75 -27 -78q8 -3 8 -8l-6 -37l-4 -47l-14 -60l2 -8 l-27 -74q0 -4 4 -4q-25 -88 -49 -151q2 -4 2 -10q-3 -38 -59 -138q-6 -46 -131 -159q-149 -101 -240 -101q-2 0 -10 -4q-4 0 -4 4q-25 -2 -55 -10l-9 4l-12 -4q-2 0 -2 4l-18 -4l-19 4l-12 -4v4q-2 0 -2 -4q-100 0 -201 78q-91 94 -100 293q3 35 -2 80zM455 1706l2 4 q3 29 53 64q0 4 4 4h27q67 -85 202 -207q13 -29 13 -35q-6 -38 -60 -47q0 4 -4 4q-3 -8 -8 -8h-8q-20 0 -29 26q-6 0 -90 78q-76 57 -102 117z" />
<glyph unicode="&#xda;" horiz-adv-x="1120" d="M72 451h4l-2 8l4 28q3 21 -4 21q0 6 2 6q1 15 8 64l2 24v23q6 9 6 12q-4 8 -4 10h4q1 2 0.5 3t-2.5 1q11 36 6 47q6 9 6 17q3 27 0 33q7 7 7 14l4 22v27q6 0 6 6v12h2q0 5 -2 5l6 24l6 45v15l12 51q-2 6 -2 12l9 2l-5 21q10 17 13 32q-4 9 -2 11q3 0 12 12l-6 14 q12 20 20 47l-4 8q0 5 4 5q2 2 -2 10q14 65 15 71h4q-4 9 -2 11q15 69 18 69q1 2 0.5 3t-2.5 1q6 49 66 74h4q34 0 43 -41l-4 -6v-18q-13 -29 -13 -33t4 -4q-15 -68 -20 -68l2 -8q-13 -63 -19 -78q3 -10 7 -10q-9 -43 -17 -43q-1 -1 -0.5 -2.5t2.5 -1.5l-6 -19l-20 -114h-4 l4 -8q0 -5 -4 -5l2 -6q0 -4 -4 -4l2 -8l-5 -10q0 -25 -2 -33l-2 -23q0 -4 -4 -4l2 -8q0 -4 -4 -4q0 -2 4 -2q-1 -2 -2.5 -5.5t-2 -5t-1 -4t0 -5.5t1.5 -7q-8 -19 -8 -32v-19h-4l4 -8q0 -2 -4 -2v-27q0 -2 -8 -30q-4 -4 2 -4q0 -3 -4 -11q-3 -60 -2 -69l-6 -9q-7 -86 -7 -159 h-2l6 -47l-4 -9q6 -86 31 -141q73 -113 156 -113q-1 -1 1.5 -2.5t8 -2.5t13.5 -1.5t20 -1.5q4 0 4 4l18 -4h37q101 9 146 37q17 0 129 92q13 13 38 54q-3 0 6 13t21 33.5t14 32.5l-4 9q6 14 11 14l-2 8q21 24 36 107q8 0 17 41q0 4 -2 4q24 78 37 129q-2 6 -2 12h4l-4 25 l4 8q-4 8 -2 14h4q0 4 -4 4q10 27 14 33l-8 4q14 38 14 51l-2 8q0 5 4 5l-2 18l12 84q2 10 2 41l7 10l-7 17l5 10v28l6 13l4 133l6 6q-4 11 -2 16q0 4 4 4q-7 58 2 148q13 0 25 27q21 6 26 6q0 -4 4 -4q3 12 6 12q22 -12 41 -35v-2l-2 -8q7 0 4 -6v-4q0 -5 -4 -5 q-3 -65 4 -65l-2 -8l-4 -27q-3 -8 0 -14l-4 -8q3 -6 0 -15q-2 0 -2 -4q6 0 6 -28l-6 -21q-9 -139 -6 -166h-4q2 -4 2 -10q-6 -6 -6 -10l6 -4l-4 -9v-10l-2 -22q-1 -2 -1.5 -5t-1 -5t-1.5 -3l2 -6q-4 -12 -4 -14l6 -4q-18 -75 -27 -78q8 -3 8 -8l-6 -37l-4 -47l-14 -60l2 -8 l-27 -74q0 -4 4 -4q-25 -88 -49 -151q2 -4 2 -10q-3 -38 -59 -138q-6 -46 -131 -159q-149 -101 -240 -101q-2 0 -10 -4q-4 0 -4 4q-25 -2 -55 -10l-9 4l-12 -4q-2 0 -2 4l-18 -4l-19 4l-12 -4v4q-2 0 -2 -4q-100 0 -201 78q-91 94 -100 293q3 35 -2 80zM633 1536q0 8 18 35 q178 128 262 207h27q4 0 4 -4q38 -32 35 -64l-2 -4q-43 -60 -133 -117q-107 -78 -111 -78q-14 -26 -39 -26h-6q-9 0 -6 8q-4 0 -4 -4q-51 9 -45 47z" />
<glyph unicode="&#xdb;" horiz-adv-x="1110" d="M72 451h4l-2 8l4 28q3 21 -4 21q0 6 2 6q1 15 8 64l2 24v23q6 9 6 12q-4 8 -4 10h4q1 2 0.5 3t-2.5 1q11 36 6 47q6 9 6 17q3 27 0 33q7 7 7 14l4 22v27q6 0 6 6v12h2q0 5 -2 5l6 24l6 45v15l12 51q-2 6 -2 12l9 2l-5 21q10 17 13 32q-4 9 -2 11q3 0 12 12l-6 14 q12 20 20 47l-4 8q0 5 4 5q2 2 -2 10q14 65 15 71h4q-4 9 -2 11q15 69 18 69q1 2 0.5 3t-2.5 1q6 49 66 74h4q34 0 43 -41l-4 -6v-18q-13 -29 -13 -33t4 -4q-15 -68 -20 -68l2 -8q-13 -63 -19 -78q3 -10 7 -10q-9 -43 -17 -43q-1 -1 -0.5 -2.5t2.5 -1.5l-6 -19l-20 -114h-4 l4 -8q0 -5 -4 -5l2 -6q0 -4 -4 -4l2 -8l-5 -10q0 -25 -2 -33l-2 -23q0 -4 -4 -4l2 -8q0 -4 -4 -4q0 -2 4 -2q-1 -2 -2.5 -5.5t-2 -5t-1 -4t0 -5.5t1.5 -7q-8 -19 -8 -32v-19h-4l4 -8q0 -2 -4 -2v-27q0 -2 -8 -30q-4 -4 2 -4q0 -3 -4 -11q-3 -60 -2 -69l-6 -9q-7 -86 -7 -159 h-2l6 -47l-4 -9q6 -86 31 -141q73 -113 156 -113q-1 -1 1.5 -2.5t8 -2.5t13.5 -1.5t20 -1.5q4 0 4 4l18 -4h37q101 9 146 37q17 0 129 92q13 13 38 54q-3 0 6 13t21 33.5t14 32.5l-4 9q6 14 11 14l-2 8q21 24 36 107q8 0 17 41q0 4 -2 4q24 78 37 129q-2 6 -2 12h4l-4 25 l4 8q-4 8 -2 14h4q0 4 -4 4q10 27 14 33l-8 4q14 38 14 51l-2 8q0 5 4 5l-2 18l12 84q2 10 2 41l7 10l-7 17l5 10v28l6 13l4 133l6 6q-4 11 -2 16q0 4 4 4q-7 58 2 148q13 0 25 27q21 6 26 6q0 -4 4 -4q3 12 6 12q22 -12 41 -35v-2l-2 -8q7 0 4 -6v-4q0 -5 -4 -5 q-3 -65 4 -65l-2 -8l-4 -27q-3 -8 0 -14l-4 -8q3 -6 0 -15q-2 0 -2 -4q6 0 6 -28l-6 -21q-9 -139 -6 -166h-4q2 -4 2 -10q-6 -6 -6 -10l6 -4l-4 -9v-10l-2 -22q-1 -2 -1.5 -5t-1 -5t-1.5 -3l2 -6q-4 -12 -4 -14l6 -4q-18 -75 -27 -78q8 -3 8 -8l-6 -37l-4 -47l-14 -60l2 -8 l-27 -74q0 -4 4 -4q-25 -88 -49 -151q2 -4 2 -10q-3 -38 -59 -138q-6 -46 -131 -159q-149 -101 -240 -101q-2 0 -10 -4q-4 0 -4 4q-25 -2 -55 -10l-9 4l-12 -4q-2 0 -2 4l-18 -4l-19 4l-12 -4v4q-2 0 -2 -4q-100 0 -201 78q-91 94 -100 293q3 35 -2 80zM500 1501v15 q37 54 98 174q10 0 37 59q25 14 47 14h4q2 0 2 -2l8 2q64 -42 123 -143q41 -72 39 -78q0 -9 6 -18l-4 -27q-17 -19 -39 -29q-2 0 -2 2t2 3l-10 -5h-8q-2 0 -2 2t2 3l-10 -5q-2 0 -2.5 2t0.5 3l-9 -5q-11 0 -8 19l-10 -4q-35 89 -90 147q-17 -22 -66 -133q-23 -33 -43 -47 l-8 2l-10 -6q-56 6 -47 55z" />
<glyph unicode="&#xdc;" horiz-adv-x="1116" d="M72 451h4l-2 8l4 28q3 21 -4 21q0 6 2 6q1 15 8 64l2 24v23q6 9 6 12q-4 8 -4 10h4q1 2 0.5 3t-2.5 1q11 36 6 47q6 9 6 17q3 27 0 33q7 7 7 14l4 22v27q6 0 6 6v12h2q0 5 -2 5l6 24l6 45v15l12 51q-2 6 -2 12l9 2l-5 21q10 17 13 32q-4 9 -2 11q3 0 12 12l-6 14 q12 20 20 47l-4 8q0 5 4 5q2 2 -2 10q14 65 15 71h4q-4 9 -2 11q15 69 18 69q1 2 0.5 3t-2.5 1q6 49 66 74h4q34 0 43 -41l-4 -6v-18q-13 -29 -13 -33t4 -4q-15 -68 -20 -68l2 -8q-13 -63 -19 -78q3 -10 7 -10q-9 -43 -17 -43q-1 -1 -0.5 -2.5t2.5 -1.5l-6 -19l-20 -114h-4 l4 -8q0 -5 -4 -5l2 -6q0 -4 -4 -4l2 -8l-5 -10q0 -25 -2 -33l-2 -23q0 -4 -4 -4l2 -8q0 -4 -4 -4q0 -2 4 -2q-1 -2 -2.5 -5.5t-2 -5t-1 -4t0 -5.5t1.5 -7q-8 -19 -8 -32v-19h-4l4 -8q0 -2 -4 -2v-27q0 -2 -8 -30q-4 -4 2 -4q0 -3 -4 -11q-3 -60 -2 -69l-6 -9q-7 -86 -7 -159 h-2l6 -47l-4 -9q6 -86 31 -141q73 -113 156 -113q-1 -1 1.5 -2.5t8 -2.5t13.5 -1.5t20 -1.5q4 0 4 4l18 -4h37q101 9 146 37q17 0 129 92q13 13 38 54q-3 0 6 13t21 33.5t14 32.5l-4 9q6 14 11 14l-2 8q21 24 36 107q8 0 17 41q0 4 -2 4q24 78 37 129q-2 6 -2 12h4l-4 25 l4 8q-4 8 -2 14h4q0 4 -4 4q10 27 14 33l-8 4q14 38 14 51l-2 8q0 5 4 5l-2 18l12 84q2 10 2 41l7 10l-7 17l5 10v28l6 13l4 133l6 6q-4 11 -2 16q0 4 4 4q-7 58 2 148q13 0 25 27q21 6 26 6q0 -4 4 -4q3 12 6 12q22 -12 41 -35v-2l-2 -8q7 0 4 -6v-4q0 -5 -4 -5 q-3 -65 4 -65l-2 -8l-4 -27q-3 -8 0 -14l-4 -8q3 -6 0 -15q-2 0 -2 -4q6 0 6 -28l-6 -21q-9 -139 -6 -166h-4q2 -4 2 -10q-6 -6 -6 -10l6 -4l-4 -9v-10l-2 -22q-1 -2 -1.5 -5t-1 -5t-1.5 -3l2 -6q-4 -12 -4 -14l6 -4q-18 -75 -27 -78q8 -3 8 -8l-6 -37l-4 -47l-14 -60l2 -8 l-27 -74q0 -4 4 -4q-25 -88 -49 -151q2 -4 2 -10q-3 -38 -59 -138q-6 -46 -131 -159q-149 -101 -240 -101q-2 0 -10 -4q-4 0 -4 4q-25 -2 -55 -10l-9 4l-12 -4q-2 0 -2 4l-18 -4l-19 4l-12 -4v4q-2 0 -2 -4q-100 0 -201 78q-91 94 -100 293q3 35 -2 80zM471 1536v14l2 6v17 q54 57 92 57h15q56 -14 53 -47q7 0 4 -33h-4l2 -8q-3 -31 -76 -59h-14q-39 0 -74 53zM774 1569q6 39 72 61h28q34 -15 52 -59l-6 -19l-5 -24q-37 -49 -71 -49q-77 9 -68 73q-5 0 -2 17z" />
<glyph unicode="&#xdd;" horiz-adv-x="1099" d="M195 1399q9 26 16 26h4q4 0 4 -4q8 4 10 4l15 -4q2 1 5 2l4.5 1.5t2.5 0.5l8 -12l6 4q27 -27 113 -207q29 -41 100 -196q35 -61 107 -221q4 0 63 77q116 140 228 304q29 23 149 202q9 0 49 64q16 22 23 22h4q4 0 4 -4l6 4h17q23 -29 20 -55q0 -8 -41 -64q-2 -8 -61 -81 q-117 -170 -238 -318q-47 -74 -160 -205q-30 -48 -35 -77q-4 -32 -8 -44l2 -8l-8 -24q0 -4 4 -4l-6 -21l-4 -29l-4 -4l2 -6l-2 -14q0 -4 -2 -4q-4 -4 0 -4l-4 -19l-10 -73q0 -2 -1.5 -3.5t-3.5 -1.5l2 -8l-20 -151v-15q-5 -16 -6 -24v-27h-2v-8l-8 -96h-4l2 -6 q-9 -64 -52 -64q0 -4 -4 -4q-38 0 -32 70h4l-2 8v4l6 14q-4 8 -2 15v4q4 4 6 4q-1 2 -2 4.5t-1.5 3.5t-0.5 2q4 51 8.5 98t7.5 75.5t4 35.5l17 113q0 4 4 4q-2 6 -2 12l10 41l-4 6l8 23v4q2 6 -2 14l6 6l-2 25v2q4 4 6 4l-4 6q0 4 4 4l-2 8l6 41q6 31 10 41 q-103 220 -172 340q0 15 -36 88l-99 174q-39 45 -30 105zM633 1536q0 8 18 35q178 128 262 207h27q4 0 4 -4q38 -32 35 -64l-2 -4q-43 -60 -133 -117q-107 -78 -111 -78q-14 -26 -39 -26h-6q-9 0 -6 8q-4 0 -4 -4q-51 9 -45 47z" />
<glyph unicode="&#xdf;" horiz-adv-x="1046" d="M-2 -74l4 33q0 3 -1 8t-1 8l8 21l-4 4q0 8 4 8l2 43l4 35l6 14q-2 6 -1 21.5t6 62.5h4l-2 9q3 14 10 14q-4 13 -2 47l8 4l-2 8l6 56q3 21 12 51q-3 13 -0.5 25.5t7 26l4.5 13.5v17h2q2 2 0 2l4 18v23h2v4l4 18v19l6 4l-2 6l10 78q4 32 4 49q8 22 9 33l-3 6l5 8q0 8 -2 10 q2 4 4 12l2 25l4 16l-2 7l6 18l0.5 4.5t1 13.5t0.5 19q4 8 4 12q0 2 -2 2q9 32 25 127l-5 6l9 23l2 26q3 3 6 3l-4 12q0 1 7 30t13 48l-4 6q45 134 107 196q7 17 90 76q15 0 39 17q0 -5 4 -5q0 8 26 11l15 -4l32 8v-4l13 4q38 0 149 -15l8 5q104 -20 170 -68q31 -22 31 -25 q44 -44 53 -92q12 -30 9 -71h-4l4 -7l-2 -14q0 -3 -3 -8.5t-4 -7.5l2 -6q-18 -76 -108 -166q-8 0 -37 -33q-33 -23 -41 -31q91 -15 178 -125q63 -86 66 -211q-3 -18 4 -28q0 -1 -6 -19v-33q-27 -196 -115 -290q-82 -123 -238 -193q-8 0 -67 -18q-2 1 -4.5 2t-3.5 1.5t-2 0.5 q-24 -8 -37 -8l2 4q-4 0 -4 -4q-70 4 -72 4h-4q-8 0 -20 -4l-21 4l-61 -4l-9 4q-21 -9 -32 -9v5q-2 0 -2 -5l-19 5h-41q-5 5 -35 12l-4 24q4 0 4 5q-9 0 -6 8v2q6 41 47 41q0 4 4 4q1 0 2.5 -0.5t4 -1.5t4.5 -2q28 4 34 4h7l18 -4q3 8 8 8h6l13 -8l6 4q16 -3 16 -8l10 4 q1 0 4 -0.5l9 -1.5l12 -2l64 8q32 -4 49 -4q125 20 174 69q107 88 110 119q63 69 72 129q-2 2 -2 10q3 0 12 19q0 4 -4 4l8 18q4 24 8.5 48.5t6.5 35t2 13.5q-11 0 -2 14q-2 4 -2 12h4q-12 109 -68 180q-46 49 -115 66q-6 0 -6 -4q-43 12 -59 12l-19 -4v4q-4 0 -4 -4l-14 4 q-41 -8 -74 -8v4q-30 -11 -114 -22q0 -5 -13 -11q-10 0 -10 4q-4 0 -90 -12l-16 41l4 27q3 17 166 57q4 0 2 -2q60 9 63 21h4l6 -3q88 29 191 99q45 38 88 96l27 59q15 106 -129 158q-10 0 -31 12q-6 0 -6 -4q-25 3 -31 6l-8 -2q-33 13 -92 15q-16 0 -52 -8v4 q-34 -5 -62 -18.5t-47 -29.5t-38 -42.5t-30 -47.5t-27 -55q0 -2 4 -2l-11 -35v-6q-12 -37 -14 -37l2 -8l-4 -25q0 -4 -4 -4l4 -8l-2 -6q0 -4 -4 -4l2 -8l-2 -19q0 -4 -4 -4q0 -2 4 -2l-14 -63q0 -4 -5 -4l5 -7l-21 -108l-2 -14q0 -5 -4 -5l4 -6l-6 -37v-36h-4q0 -4 2 -4 l-6 -19v-4l-2 -43h-4q0 -4 4 -4l-11 -37l-4 -27q0 -10 4 -10l-8 -18l-8 -70l-6 -16l2 -6q-1 -3 -2.5 -5.5t-2.5 -4.5t-1 -3q1 -2 2 -4.5t1.5 -3.5t0.5 -2h-4q-4 -4 2 -4q-5 -14 -8 -30t-6 -36t-7 -36q0 -5 2 -5l-4 -18l-4 -29q0 -4 -4 -4l2 -8l-12 -92q0 -4 -6 -4l2 -43 q-4 -4 -4 -15q-3 -3 0 -12q-4 -4 -4 -10l2 -8l-4 -4v-19l-7 -37q0 -2 4 -14q-4 -4 -6 -4l2 -19l-8 -55q-9 -16 -28 -28q-33 3 -33 8l-6 -4q-20 0 -29 28z" />
<glyph unicode="&#xe0;" horiz-adv-x="1071" d="M2 18q7 70 49 119l-2 6l39 64l-4 8q78 153 166 344q13 13 67 137q5 0 70 121q3 7 88 174q-4 0 -4 4q12 12 59 115q132 285 162 285q3 0 15 4q58 0 55 -101q32 -192 35 -372l53 -414l33 -127h-4q14 -60 16 -86l27 -82l-4 -6q9 -18 24 -123q4 0 10 -18q0 -2 -4 -2l4 -9 l-4 -22l-4 -6q6 0 2 -4q-21 -24 -57 -27q-8 0 -8 6l-9 -2h-2q-34 21 -28 59q-4 0 -4 5q0 2 4 2q-7 15 -51 245q-37 155 -48 250h-41q-10 0 -10 -4l-18 4h-45q-7 0 -15 -4q-8 4 -14 4h-31q-10 0 -18 -4l-23 4h-39q-8 0 -16 -4q-14 3 -14 8l-6 -4q-4 0 -4 4l-9 -4q-4 0 -4 4 l-6 -4h-14q-4 0 -4 4l-9 -4q-44 8 -51 8q0 -11 -61 -124l-125 -271q-48 -91 -55 -96l4 -8q-14 -14 -17 -23q8 -16 -38 -40q-2 -2 -8 -4l-5 -3h-10q-10 0 -14 2q-6 -2 -13 -2zM397 655h4q5 0 5 4l24 -4q15 0 23 4q32 -4 41 -4h104l16 4v-4l9 4h49q4 0 4 3q37 -3 37 -7 q8 4 14 4q0 34 -8 97h4q-25 120 -31 239q-4 0 -4 4h4q-10 118 -20 179v6h-8q-46 -101 -103 -203l2 -8zM455 1706l2 4q3 29 53 64q0 4 4 4h27q67 -85 202 -207q13 -29 13 -35q-6 -38 -60 -47q0 4 -4 4q-3 -8 -8 -8h-8q-20 0 -29 26q-6 0 -90 78q-76 57 -102 117z" />
<glyph unicode="&#xe1;" horiz-adv-x="1050" d="M2 18q7 70 49 119l-2 6l39 64l-4 8q78 153 166 344q13 13 67 137q5 0 70 121q3 7 88 174q-4 0 -4 4q12 12 59 115q132 285 162 285q3 0 15 4q58 0 55 -101q32 -192 35 -372l53 -414l33 -127h-4q14 -60 16 -86l27 -82l-4 -6q9 -18 24 -123q4 0 10 -18q0 -2 -4 -2l4 -9 l-4 -22l-4 -6q6 0 2 -4q-21 -24 -57 -27q-8 0 -8 6l-9 -2h-2q-34 21 -28 59q-4 0 -4 5q0 2 4 2q-7 15 -51 245q-37 155 -48 250h-41q-10 0 -10 -4l-18 4h-45q-7 0 -15 -4q-8 4 -14 4h-31q-10 0 -18 -4l-23 4h-39q-8 0 -16 -4q-14 3 -14 8l-6 -4q-4 0 -4 4l-9 -4q-4 0 -4 4 l-6 -4h-14q-4 0 -4 4l-9 -4q-44 8 -51 8q0 -11 -61 -124l-125 -271q-48 -91 -55 -96l4 -8q-14 -14 -17 -23q8 -16 -38 -40q-2 -2 -8 -4l-5 -3h-10q-10 0 -14 2q-6 -2 -13 -2zM397 655h4q5 0 5 4l24 -4q15 0 23 4q32 -4 41 -4h104l16 4v-4l9 4h49q4 0 4 3q37 -3 37 -7 q8 4 14 4q0 34 -8 97h4q-25 120 -31 239q-4 0 -4 4h4q-10 118 -20 179v6h-8q-46 -101 -103 -203l2 -8zM733 1536q0 6 19 35q178 128 262 207h26q4 0 4 -4q38 -32 35 -64l-2 -4q-43 -60 -133 -117q-107 -78 -110 -78q-14 -26 -39 -26h-7q-9 0 -6 8q-4 0 -4 -4q-51 9 -45 47z " />
<glyph unicode="&#xe2;" horiz-adv-x="1058" d="M2 18q7 70 49 119l-2 6l39 64l-4 8q78 153 166 344q13 13 67 137q5 0 70 121q3 7 88 174q-4 0 -4 4q12 12 59 115q132 285 162 285q3 0 15 4q58 0 55 -101q32 -192 35 -372l53 -414l33 -127h-4q14 -60 16 -86l27 -82l-4 -6q9 -18 24 -123q4 0 10 -18q0 -2 -4 -2l4 -9 l-4 -22l-4 -6q6 0 2 -4q-21 -24 -57 -27q-8 0 -8 6l-9 -2h-2q-34 21 -28 59q-4 0 -4 5q0 2 4 2q-7 15 -51 245q-37 155 -48 250h-41q-10 0 -10 -4l-18 4h-45q-7 0 -15 -4q-8 4 -14 4h-31q-10 0 -18 -4l-23 4h-39q-8 0 -16 -4q-14 3 -14 8l-6 -4q-4 0 -4 4l-9 -4q-4 0 -4 4 l-6 -4h-14q-4 0 -4 4l-9 -4q-44 8 -51 8q0 -11 -61 -124l-125 -271q-48 -91 -55 -96l4 -8q-14 -14 -17 -23q8 -16 -38 -40q-2 -2 -8 -4l-5 -3h-10q-10 0 -14 2q-6 -2 -13 -2zM397 655h4q5 0 5 4l24 -4q15 0 23 4q32 -4 41 -4h104l16 4v-4l9 4h49q4 0 4 3q37 -3 37 -7 q8 4 14 4q0 34 -8 97h4q-25 120 -31 239q-4 0 -4 4h4q-10 118 -20 179v6h-8q-46 -101 -103 -203l2 -8zM528 1501v15q43 59 99 174q12 0 39 59q25 14 47 14h2q4 0 4 -2l8 2q65 -43 121 -143q44 -71 41 -78q0 -6 4 -18l-4 -27q-14 -19 -37 -29q-2 0 -2.5 2t0.5 3l-8 -5h-8 q-2 0 -3 2t0 3l-8 -5q-2 0 -2.5 2t0.5 3l-10 -5q-9 0 -6 19l-10 -4q-34 89 -90 147q-15 -19 -68 -133q-19 -32 -43 -47l-6 2l-10 -6q-59 6 -50 55z" />
<glyph unicode="&#xe3;" horiz-adv-x="1064" d="M2 18q7 70 49 119l-2 6l39 64l-4 8q78 153 166 344q13 13 67 137q5 0 70 121q3 7 88 174q-4 0 -4 4q12 12 59 115q132 285 162 285q3 0 15 4q58 0 55 -101q32 -192 35 -372l53 -414l33 -127h-4q14 -60 16 -86l27 -82l-4 -6q9 -18 24 -123q4 0 10 -18q0 -2 -4 -2l4 -9 l-4 -22l-4 -6q6 0 2 -4q-21 -24 -57 -27q-8 0 -8 6l-9 -2h-2q-34 21 -28 59q-4 0 -4 5q0 2 4 2q-7 15 -51 245q-37 155 -48 250h-41q-10 0 -10 -4l-18 4h-45q-7 0 -15 -4q-8 4 -14 4h-31q-10 0 -18 -4l-23 4h-39q-8 0 -16 -4q-14 3 -14 8l-6 -4q-4 0 -4 4l-9 -4q-4 0 -4 4 l-6 -4h-14q-4 0 -4 4l-9 -4q-44 8 -51 8q0 -11 -61 -124l-125 -271q-48 -91 -55 -96l4 -8q-14 -14 -17 -23q8 -16 -38 -40q-2 -2 -8 -4l-5 -3h-10q-10 0 -14 2q-6 -2 -13 -2zM397 655h4q5 0 5 4l24 -4q15 0 23 4q32 -4 41 -4h104l16 4v-4l9 4h49q4 0 4 3q37 -3 37 -7 q8 4 14 4q0 34 -8 97h4q-25 120 -31 239q-4 0 -4 4h4q-10 118 -20 179v6h-8q-46 -101 -103 -203l2 -8zM451 1538h4l-2 8l4 39q6 9 22 57q54 79 101 99q32 16 45 16q4 0 4 -4l6 4h18q78 0 191 -168q33 -20 45 -20h10q49 21 49 30q16 23 19 23l-2 6v4l4 4q-3 9 0 45q4 0 4 5 q-9 0 -6 8h4l-4 6v4l47 49l12 4q44 -6 41 -24q1 -2 2 -4.5t1.5 -4t0.5 -2.5q-6 -9 -6 -12q7 0 10 -10v-2q-4 -13 -12 -23l2 -18q-15 -112 -133 -178v4q-36 -19 -47 -19q-8 4 -15 4q-2 -1 -4.5 -2t-3.5 -1.5t-2 -0.5v4l-8 -4q-99 49 -107 82q-6 0 -69 90q-24 27 -70 27 q-69 -42 -78 -113q3 -15 0 -32q-1 0 -3.5 -2.5t-9.5 -8.5t-13 -12h-33l-6 4q0 -4 -4 -4q0 4 -2 4l4 8q-13 16 -10 31z" />
<glyph unicode="&#xe4;" horiz-adv-x="1024" d="M2 18q7 70 49 119l-2 6l39 64l-4 8q78 153 166 344q13 13 67 137q5 0 70 121q3 7 88 174q-4 0 -4 4q12 12 59 115q132 285 162 285q3 0 15 4q58 0 55 -101q32 -192 35 -372l53 -414l33 -127h-4q14 -60 16 -86l27 -82l-4 -6q9 -18 24 -123q4 0 10 -18q0 -2 -4 -2l4 -9 l-4 -22l-4 -6q6 0 2 -4q-21 -24 -57 -27q-8 0 -8 6l-9 -2h-2q-34 21 -28 59q-4 0 -4 5q0 2 4 2q-7 15 -51 245q-37 155 -48 250h-41q-10 0 -10 -4l-18 4h-45q-7 0 -15 -4q-8 4 -14 4h-31q-10 0 -18 -4l-23 4h-39q-8 0 -16 -4q-14 3 -14 8l-6 -4q-4 0 -4 4l-9 -4q-4 0 -4 4 l-6 -4h-14q-4 0 -4 4l-9 -4q-44 8 -51 8q0 -11 -61 -124l-125 -271q-48 -91 -55 -96l4 -8q-14 -14 -17 -23q8 -16 -38 -40q-2 -2 -8 -4l-5 -3h-10q-10 0 -14 2q-6 -2 -13 -2zM397 655h4q5 0 5 4l24 -4q15 0 23 4q32 -4 41 -4h104l16 4v-4l9 4h49q4 0 4 3q37 -3 37 -7 q8 4 14 4q0 34 -8 97h4q-25 120 -31 239q-4 0 -4 4h4q-10 118 -20 179v6h-8q-46 -101 -103 -203l2 -8zM489 1550l5 6q-2 4 -2 17q57 57 94 57h14q56 -14 53 -47q7 0 4 -33h-4l2 -8q-3 -31 -75 -59h-15q-38 0 -73 53q0 5 -3 14zM795 1569q6 40 69 61h31q32 -14 51 -59l-6 -19 l-4 -24q-37 -49 -74 -49q-74 9 -65 73q-5 0 -2 17z" />
<glyph unicode="&#xe5;" horiz-adv-x="1077" d="M2 18q7 70 49 119l-2 6l39 64l-4 8q78 153 166 344q13 13 67 137q5 0 70 121q3 7 88 174q-4 0 -4 4q12 12 59 115q132 285 162 285q3 0 15 4q58 0 55 -101q32 -192 35 -372l53 -414l33 -127h-4q14 -60 16 -86l27 -82l-4 -6q9 -18 24 -123q4 0 10 -18q0 -2 -4 -2l4 -9 l-4 -22l-4 -6q6 0 2 -4q-21 -24 -57 -27q-8 0 -8 6l-9 -2h-2q-34 21 -28 59q-4 0 -4 5q0 2 4 2q-7 15 -51 245q-37 155 -48 250h-41q-10 0 -10 -4l-18 4h-45q-7 0 -15 -4q-8 4 -14 4h-31q-10 0 -18 -4l-23 4h-39q-8 0 -16 -4q-14 3 -14 8l-6 -4q-4 0 -4 4l-9 -4q-4 0 -4 4 l-6 -4h-14q-4 0 -4 4l-9 -4q-44 8 -51 8q0 -11 -61 -124l-125 -271q-48 -91 -55 -96l4 -8q-14 -14 -17 -23q8 -16 -38 -40q-2 -2 -8 -4l-5 -3h-10q-10 0 -14 2q-6 -2 -13 -2zM397 655h4q5 0 5 4l24 -4q15 0 23 4q32 -4 41 -4h104l16 4v-4l9 4h49q4 0 4 3q37 -3 37 -7 q8 4 14 4q0 34 -8 97h4q-25 120 -31 239q-4 0 -4 4h4q-10 118 -20 179v6h-8q-46 -101 -103 -203l2 -8zM578 1602q27 62 45 71q81 78 141 78q3 6 4 6q52 0 98 -94q-2 -10 -2 -37q-12 -92 -94 -156q-13 -8 -25 -8l-14 4l-6 -4q-4 0 -4 4l-16 -4h-13l-6 4q0 -8 -8 -8h-6 q-59 22 -81.5 57t-12.5 87zM670 1583q29 -29 43 -29q36 0 51 72q3 23 -12 35q-13 0 -27 -14q3 6 -2 6q-45 -51 -51 -51z" />
<glyph unicode="&#xe6;" horiz-adv-x="1351" d="M6 49q101 190 258 526q15 20 152 291q243 423 256 441l-2 8q17 31 47 41q18 18 61 18h4q6 -3 4 -8l41 8l7 -4l8 4q8 -4 10 -4l8 4q4 0 4 -4q44 8 140 8h45q4 0 4 -4l8 4q2 0 2 -4l8 4h37q12 0 12 2l17 -2h45l22 2q37 -3 37 -6l8 4h37q35 -15 41.5 -23.5t1.5 -31.5 l-53 -45l-21 2l-16 -2q-40 3 -37 6l-8 -4h-59q-9 0 -13 4q-12 -4 -16 -4q-2 0 -2.5 1t0.5 3l-10 -4q-2 0 -2.5 1t0.5 3l-21 -4h-65l-19 -2v2l-8 -2h-31q-72 0 -129 -8l-6 4q-2 -1 -5 -2l-4.5 -1.5t-2.5 -0.5q0 -102 -13 -185l5 -8q-12 -14 -5 -28q-14 -56 -16 -78l-14 -115 q-3 -16 0 -31q-5 -12 -8 -28l-5 -29q-3 -16 0 -31q-5 -12 -8 -28l-6 -41q-2 -6 2 -17q-6 -6 -6 -12q11 -8 29 -8h8q4 0 16 4l4 -4q12 4 19 4l-2 -4l10 4q6 0 10 -4l10 4l17 -4l29 4l12 -4l24 4q1 0 13 -4q12 4 16 4l-2 -4l10 4q1 0 3.5 -0.5l7.5 -1.5l10 -2l10 4q4 -4 12 -4 q18 0 21 8l18 -4q21 0 25 4q28 -4 35 -4h28l6 -4l4 4q20 -14 26.5 -25.5t2.5 -27.5q-30 -43 -82 -43h-30q-7 0 -15 -4q-37 3 -37 6l-8 -2h-6q-4 0 -4 2l-8 -2h-19q-10 0 -14 2q-4 -2 -14 -2h-4q-5 0 -5 2l-6 -2h-67q-7 0 -15 -4q-8 4 -16 4h-25l-36 -4v4q-27 -5 -33.5 -19 t-1.5 -45l-8 -22q0 -4 4 -4l-7 -19l-6 -37q0 -10 2 -14l-6 -14v-5q0 -8 6 -8q-6 -11 -2 -22q-6 -6 -6 -11l8 -4q-3 -8 -6 -8l-4 -88q-8 -31 -8 -33l4 -8l-6 -8q2 -8 2 -9t-4 -7q4 -22 -2 -50l78 -14l8 4l14 -4q2 0 10 4q28 -4 35 -4h15q12 0 12 4l18 -4h51q7 0 15 4l8 -4 q8 4 14 4q4 0 4 -4l7 4h32l21 2v-2l6 2h4q65 0 125 13l2 -9l8 4h23q35 -30 35 -45q-27 -43 -48 -43q-3 -8 -24 -8q-71 0 -172 -14q-8 4 -10 4q-1 0 -4.5 -0.5t-11 -1.5t-15.5 -2q-4 0 -4 4l-25 -4h-100q-6 0 -14 -4q-12 4 -17 4h-6l-18 -4v4q-5 0 -5 -4l-139 14l-8 -4 q-38 21 -35 35q-4 0 -4 4q5 38 2 55q6 43 19 43l2 21q10 79 8 96q0 2 4 2v37l10 72v24h4l-4 8l2 11q0 4 4 4l-2 8l2 10q0 4 4 4l-4 6l6 35q2 10 2 39q1 2 2 5t2 4.5t1 2.5q-7 7 -31 13l-6 -4h-13q-8 0 -32 4q-12 -4 -13 -4l-6 4q-12 -4 -16 -4t-4 4q-168 -9 -168 -21 q-4 -20 -78 -162q-4 0 -31 -55l-129 -270q-3 -1 -24 -33q-15 0 -15 -4q-34 0 -44.5 13t-6.5 42zM393 627h4q48 0 119 8l6 -4q36 4 43 4h56q2 0 2.5 -1.5t-0.5 -2.5q12 4 14 4v6q2 6 -2 14l1 2.5t1.5 4.5t1.5 5t1.5 5.5t1 4.5t-0.5 3.5t-2 1.5l8 27l12 88l-2 26h5l-3 6l3 19 q0 4 4 4l-2 8v6q2 16 16 82v27l6 18q0 2 -4 2l8 27l4 27q1 5 1.5 13t1 20t1.5 22h4l-4 6l2 23q4 22 2 41q7 7 7 16l-7 4q-58 -113 -202 -356z" />
<glyph unicode="&#xe7;" d="M84 487q-6 34 0 121l4 8q-2 6 -2 13q3 24 10 24q0 4 -2 4l4 19l8 49q35 242 238 506q175 166 320 166q34 3 34 8l21 -4h45q100 -9 182 -31q17 -14 72 -39q22 -25 22 -26l-6 -41q-16 -19 -33 -19v4l-8 -4h-4q-85 60 -244 60q0 4 -14 4q-20 -4 -26 -4v4q-54 0 -160 -41 q-129 -88 -144 -129q-119 -155 -125 -207q-40 -84 -55 -137q-4 0 -4 -4l-4 -33q0 -4 -4 -4l2 -9l-21 -92q-2 -5 3 -14l-9 -35l-2 -2q-3 -41 0 -72h-4q0 -48 4 -84h-4q6 -136 141 -292q129 -97 277 -97q166 0 322 170q6 0 26 17q12 -3 12 -8l7 4h16l6 -4q0 4 4 4l15 -19 q-7 -11 -7 -14q10 0 7 -12l-7 -9q4 -8 2 -10q-107 -110 -165 -137q-68 -39 -103 -39q-13 -11 -96 -20v4l-8 -4h-2q-23 -33 -95 -134q33 -26 56 -65q-2 -8 -2 -33q-9 -76 -95 -137q-15 -6 -24 -6l-16 2l-7 -2q-4 0 -4 2l-18 -2h-10l-9 2q-3 -6 -8 -6h-8l-10 4l10 86 q27 -6 41 -6q38 0 53 63q3 20 -14 31h-6l2 2q-52 -6 -60 26q0 3 9 37q73 109 100 146q-37 6 -41 10l-10 -4q-153 48 -217 117q2 6 -39 41q-139 199 -119 333z" />
<glyph unicode="&#xe8;" horiz-adv-x="956" d="M27 45q2 6 2 12v11h2q0 4 -2 4l6 24l22 164l6 14q-4 23 -2 33h2v41q7 7 7 19v22l6 19v22q0 4 4 4l-2 43l6 17l-2 20h4l-2 8v4q10 72 10 133h4l-2 9q0 4 4 4l-2 6l4 37q0 4 4 4l-2 6q0 4 5 4q-5 13 -5 18t5 13q-3 6 -3 14q3 8 7 8q0 58 2 70q4 8 4 10q0 12 -4 12l8 25 l6 57q2 7 -2 15q6 6 6 14q2 6 -2 14q5 5 6 5q0 24 -4 36l8 23q0 10 -2 14q7 21 8 27q0 6 -4 14q7 7 7 15q4 22 2 41l8 20q-4 8 -4 10h4q0 2 -4 2q12 45 16 45q0 4 -4 4l6 25l4 25q3 6 -6 6l6 18l-2 14q30 46 39 46l43 14q31 -15 31 -19l26 5l70 2l52.5 1.5t23.5 0.5v-4l6 4 q4 0 4 -4l8 4l6 -4q12 4 13 4v-4q2 0 2 4q8 0 8 -4l22 4q118 -4 140 -4h20l21 4q15 -9 41 -9h53l18 5v-5q10 5 11 5l8 -5q10 5 14 5l8 -5l6 5l9 -5l22 5q34 -12 31 -37q10 0 10 -9q-14 -9 -29 -38q-10 0 -10 -9h-26l-11 -4v8l-8 -4h-37q-2 0 -2 4l-8 -4l-18 4l-9 -4l-6 4 l-22 -4q-4 0 -4 4l-21 -8q-63 6 -106 8l-7 -4q-4 0 -4 4l-18 -4l-12 4q-2 0 -2 -4l-90 9q-77 -5 -89 -5q-2 0 -10 -4q-8 4 -16 4q-2 0 -2 -4l-21 4h-6q-6 0 -14 -4l-8 4q-11 0 -27 -8q-8 4 -14 4h-4q-8 0 -17 -36l4 -9q-4 -4 -6 -4q0 -4 4 -4l-6 -16l-4 -33l-8 -25 q0 -2 4 -2q-11 -34 -6 -45l-6 -8q4 -8 2 -14q0 -4 -4 -4l4 -6l-6 -37q-2 -9 2 -21l-7 -12q-12 -136 -20 -168v-14q-1 -5 -2 -9.5t-2 -11.5t0 -11.5t4 -4.5l-6 -19l-8 -53h82q4 0 16 -4q13 8 39 8h22q4 0 4 -4l9 4h37q2 0 2 -4q21 8 98 8h16q7 0 15 4l20 -8l23 4q6 0 2 -4 l22 4h2q17 0 33 -4q45 3 61 8q4 -4 15 -4l18 4q27 -17 35 -41v-4q0 -4 -18 -10l4 -8q-3 -10 -29 -27l-12 4q-37 -3 -37 -6l-19 2h-12q-23 0 -41 -2q-4 2 -10 2q-4 -2 -19 -2v2l-8 -2h-20q-4 0 -4 2q-6 -3 -47 -6l-4 4l-21 -4q-2 0 -10 4q-98 -10 -158 -10q-6 0 -14 -4l-6 4 q-12 -4 -13 -4v4l-8 -4q-4 0 -4 4q-47 -8 -72 -8v-4q-9 -119 0 -119v-4h-8l-12 -88v-27h-4l4 -6l-6 -31l2 -18h-4l4 -6q-4 -4 -6 -4l2 -19v-4q0 -4 -4 -4l2 -6q0 -4 -4 -4l2 -8q-5 -35 -2 -56q-2 -2 -3.5 -4.5t-2.5 -3.5t-1 -2l2 -18l-6 -9q0 -6 2 -12l-8 -33l-2 -10 q0 -10 2 -14l-6 -17v-6q-3 -8 4 -8l10 4l4 -4q12 4 15 4l-2 -4l10 4q4 0 0 -4l10 4q7 -1 8 -4q39 8 88 8q52 0 76 -8q36 4 43 4h37q8 0 12 -4l9 4q3 0 8 -0.5t14 -1.5t17 -2l34 4l6 -4q3 0 7 4q34 -3 34 -6q21 6 66 6l-2 -4l10 4h41q4 0 0 -4l10 4h23q6 0 2 -4l8 4 q4 -4 8 -4q2 0 6 4l17 -4h8q7 0 35 4q14 0 33 -31q-3 -22 -25 -32q-3 -27 -31 -27l-8 4l-20 -6q-14 2 -39 2h-33q-4 0 -4 4l-6 -4q-14 0 -54 4q-86 -4 -106 -4q-6 0 -12 -2q-35 3 -35 6l-27 -4h-127q-4 0 -4 4l-6 -4h-68q-30 0 -57 -2l2 2q-21 -6 -26 -6v4l-9 -4h-4 q-6 0 -14 4q-11 -5 -37 -8v4l-6 -4q-28 3 -55 55zM375 1706l2 4q3 29 53 64q0 4 4 4h25q70 -84 205 -207q12 -27 12 -35q-6 -38 -60 -47q0 4 -4 4q-3 -8 -8 -8h-8q-20 0 -29 26q-6 0 -90 78q-76 57 -102 117z" />
<glyph unicode="&#xe9;" horiz-adv-x="948" d="M27 45q2 6 2 12v11h2q0 4 -2 4l6 24l22 164l6 14q-4 23 -2 33h2v41q7 7 7 19v22l6 19v22q0 4 4 4l-2 43l6 17l-2 20h4l-2 8v4q10 72 10 133h4l-2 9q0 4 4 4l-2 6l4 37q0 4 4 4l-2 6q0 4 5 4q-5 13 -5 18t5 13q-3 6 -3 14q3 8 7 8q0 58 2 70q4 8 4 10q0 12 -4 12l8 25 l6 57q2 7 -2 15q6 6 6 14q2 6 -2 14q5 5 6 5q0 24 -4 36l8 23q0 10 -2 14q7 21 8 27q0 6 -4 14q7 7 7 15q4 22 2 41l8 20q-4 8 -4 10h4q0 2 -4 2q12 45 16 45q0 4 -4 4l6 25l4 25q3 6 -6 6l6 18l-2 14q30 46 39 46l43 14q31 -15 31 -19l26 5l70 2l52.5 1.5t23.5 0.5v-4l6 4 q4 0 4 -4l8 4l6 -4q12 4 13 4v-4q2 0 2 4q8 0 8 -4l22 4q118 -4 140 -4h20l21 4q15 -9 41 -9h53l18 5v-5q10 5 11 5l8 -5q10 5 14 5l8 -5l6 5l9 -5l22 5q34 -12 31 -37q10 0 10 -9q-14 -9 -29 -38q-10 0 -10 -9h-26l-11 -4v8l-8 -4h-37q-2 0 -2 4l-8 -4l-18 4l-9 -4l-6 4 l-22 -4q-4 0 -4 4l-21 -8q-63 6 -106 8l-7 -4q-4 0 -4 4l-18 -4l-12 4q-2 0 -2 -4l-90 9q-77 -5 -89 -5q-2 0 -10 -4q-8 4 -16 4q-2 0 -2 -4l-21 4h-6q-6 0 -14 -4l-8 4q-11 0 -27 -8q-8 4 -14 4h-4q-8 0 -17 -36l4 -9q-4 -4 -6 -4q0 -4 4 -4l-6 -16l-4 -33l-8 -25 q0 -2 4 -2q-11 -34 -6 -45l-6 -8q4 -8 2 -14q0 -4 -4 -4l4 -6l-6 -37q-2 -9 2 -21l-7 -12q-12 -136 -20 -168v-14q-1 -5 -2 -9.5t-2 -11.5t0 -11.5t4 -4.5l-6 -19l-8 -53h82q4 0 16 -4q13 8 39 8h22q4 0 4 -4l9 4h37q2 0 2 -4q21 8 98 8h16q7 0 15 4l20 -8l23 4q6 0 2 -4 l22 4h2q17 0 33 -4q45 3 61 8q4 -4 15 -4l18 4q27 -17 35 -41v-4q0 -4 -18 -10l4 -8q-3 -10 -29 -27l-12 4q-37 -3 -37 -6l-19 2h-12q-23 0 -41 -2q-4 2 -10 2q-4 -2 -19 -2v2l-8 -2h-20q-4 0 -4 2q-6 -3 -47 -6l-4 4l-21 -4q-2 0 -10 4q-98 -10 -158 -10q-6 0 -14 -4l-6 4 q-12 -4 -13 -4v4l-8 -4q-4 0 -4 4q-47 -8 -72 -8v-4q-9 -119 0 -119v-4h-8l-12 -88v-27h-4l4 -6l-6 -31l2 -18h-4l4 -6q-4 -4 -6 -4l2 -19v-4q0 -4 -4 -4l2 -6q0 -4 -4 -4l2 -8q-5 -35 -2 -56q-2 -2 -3.5 -4.5t-2.5 -3.5t-1 -2l2 -18l-6 -9q0 -6 2 -12l-8 -33l-2 -10 q0 -10 2 -14l-6 -17v-6q-3 -8 4 -8l10 4l4 -4q12 4 15 4l-2 -4l10 4q4 0 0 -4l10 4q7 -1 8 -4q39 8 88 8q52 0 76 -8q36 4 43 4h37q8 0 12 -4l9 4q3 0 8 -0.5t14 -1.5t17 -2l34 4l6 -4q3 0 7 4q34 -3 34 -6q21 6 66 6l-2 -4l10 4h41q4 0 0 -4l10 4h23q6 0 2 -4l8 4 q4 -4 8 -4q2 0 6 4l17 -4h8q7 0 35 4q14 0 33 -31q-3 -22 -25 -32q-3 -27 -31 -27l-8 4l-20 -6q-14 2 -39 2h-33q-4 0 -4 4l-6 -4q-14 0 -54 4q-86 -4 -106 -4q-6 0 -12 -2q-35 3 -35 6l-27 -4h-127q-4 0 -4 4l-6 -4h-68q-30 0 -57 -2l2 2q-21 -6 -26 -6v4l-9 -4h-4 q-6 0 -14 4q-11 -5 -37 -8v4l-6 -4q-28 3 -55 55zM573 1536q0 6 19 35q178 128 262 207h27q4 0 4 -4q38 -32 35 -64l-2 -4q-46 -60 -136 -117q-104 -78 -108 -78q-14 -26 -39 -26h-6q-9 0 -6 8q-5 0 -5 -4q-51 9 -45 47z" />
<glyph unicode="&#xea;" horiz-adv-x="929" d="M27 45q2 6 2 12v11h2q0 4 -2 4l6 24l22 164l6 14q-4 23 -2 33h2v41q7 7 7 19v22l6 19v22q0 4 4 4l-2 43l6 17l-2 20h4l-2 8v4q10 72 10 133h4l-2 9q0 4 4 4l-2 6l4 37q0 4 4 4l-2 6q0 4 5 4q-5 13 -5 18t5 13q-3 6 -3 14q3 8 7 8q0 58 2 70q4 8 4 10q0 12 -4 12l8 25 l6 57q2 7 -2 15q6 6 6 14q2 6 -2 14q5 5 6 5q0 24 -4 36l8 23q0 10 -2 14q7 21 8 27q0 6 -4 14q7 7 7 15q4 22 2 41l8 20q-4 8 -4 10h4q0 2 -4 2q12 45 16 45q0 4 -4 4l6 25l4 25q3 6 -6 6l6 18l-2 14q30 46 39 46l43 14q31 -15 31 -19l26 5l70 2l52.5 1.5t23.5 0.5v-4l6 4 q4 0 4 -4l8 4l6 -4q12 4 13 4v-4q2 0 2 4q8 0 8 -4l22 4q118 -4 140 -4h20l21 4q15 -9 41 -9h53l18 5v-5q10 5 11 5l8 -5q10 5 14 5l8 -5l6 5l9 -5l22 5q34 -12 31 -37q10 0 10 -9q-14 -9 -29 -38q-10 0 -10 -9h-26l-11 -4v8l-8 -4h-37q-2 0 -2 4l-8 -4l-18 4l-9 -4l-6 4 l-22 -4q-4 0 -4 4l-21 -8q-63 6 -106 8l-7 -4q-4 0 -4 4l-18 -4l-12 4q-2 0 -2 -4l-90 9q-77 -5 -89 -5q-2 0 -10 -4q-8 4 -16 4q-2 0 -2 -4l-21 4h-6q-6 0 -14 -4l-8 4q-11 0 -27 -8q-8 4 -14 4h-4q-8 0 -17 -36l4 -9q-4 -4 -6 -4q0 -4 4 -4l-6 -16l-4 -33l-8 -25 q0 -2 4 -2q-11 -34 -6 -45l-6 -8q4 -8 2 -14q0 -4 -4 -4l4 -6l-6 -37q-2 -9 2 -21l-7 -12q-12 -136 -20 -168v-14q-1 -5 -2 -9.5t-2 -11.5t0 -11.5t4 -4.5l-6 -19l-8 -53h82q4 0 16 -4q13 8 39 8h22q4 0 4 -4l9 4h37q2 0 2 -4q21 8 98 8h16q7 0 15 4l20 -8l23 4q6 0 2 -4 l22 4h2q17 0 33 -4q45 3 61 8q4 -4 15 -4l18 4q27 -17 35 -41v-4q0 -4 -18 -10l4 -8q-3 -10 -29 -27l-12 4q-37 -3 -37 -6l-19 2h-12q-23 0 -41 -2q-4 2 -10 2q-4 -2 -19 -2v2l-8 -2h-20q-4 0 -4 2q-6 -3 -47 -6l-4 4l-21 -4q-2 0 -10 4q-98 -10 -158 -10q-6 0 -14 -4l-6 4 q-12 -4 -13 -4v4l-8 -4q-4 0 -4 4q-47 -8 -72 -8v-4q-9 -119 0 -119v-4h-8l-12 -88v-27h-4l4 -6l-6 -31l2 -18h-4l4 -6q-4 -4 -6 -4l2 -19v-4q0 -4 -4 -4l2 -6q0 -4 -4 -4l2 -8q-5 -35 -2 -56q-2 -2 -3.5 -4.5t-2.5 -3.5t-1 -2l2 -18l-6 -9q0 -6 2 -12l-8 -33l-2 -10 q0 -10 2 -14l-6 -17v-6q-3 -8 4 -8l10 4l4 -4q12 4 15 4l-2 -4l10 4q4 0 0 -4l10 4q7 -1 8 -4q39 8 88 8q52 0 76 -8q36 4 43 4h37q8 0 12 -4l9 4q3 0 8 -0.5t14 -1.5t17 -2l34 4l6 -4q3 0 7 4q34 -3 34 -6q21 6 66 6l-2 -4l10 4h41q4 0 0 -4l10 4h23q6 0 2 -4l8 4 q4 -4 8 -4q2 0 6 4l17 -4h8q7 0 35 4q14 0 33 -31q-3 -22 -25 -32q-3 -27 -31 -27l-8 4l-20 -6q-14 2 -39 2h-33q-4 0 -4 4l-6 -4q-14 0 -54 4q-86 -4 -106 -4q-6 0 -12 -2q-35 3 -35 6l-27 -4h-127q-4 0 -4 4l-6 -4h-68q-30 0 -57 -2l2 2q-21 -6 -26 -6v4l-9 -4h-4 q-6 0 -14 4q-11 -5 -37 -8v4l-6 -4q-28 3 -55 55zM420 1501v15q37 54 98 174q10 0 37 59q25 14 47 14h4q2 0 2 -2l8 2q65 -43 121 -143q44 -71 41 -78q0 -9 6 -18l-4 -27q-17 -19 -39 -29q-1 0 -1 2t1 3l-10 -5h-8q-2 0 -2.5 2t0.5 3l-8 -5q-2 0 -2.5 2t0.5 3l-9 -5 q-11 0 -8 19l-10 -4q-34 89 -90 147q-17 -22 -66 -133q-23 -33 -43 -47l-8 2l-10 -6q-56 6 -47 55z" />
<glyph unicode="&#xeb;" horiz-adv-x="954" d="M27 45q2 6 2 12v11h2q0 4 -2 4l6 24l22 164l6 14q-4 23 -2 33h2v41q7 7 7 19v22l6 19v22q0 4 4 4l-2 43l6 17l-2 20h4l-2 8v4q10 72 10 133h4l-2 9q0 4 4 4l-2 6l4 37q0 4 4 4l-2 6q0 4 5 4q-5 13 -5 18t5 13q-3 6 -3 14q3 8 7 8q0 58 2 70q4 8 4 10q0 12 -4 12l8 25 l6 57q2 7 -2 15q6 6 6 14q2 6 -2 14q5 5 6 5q0 24 -4 36l8 23q0 10 -2 14q7 21 8 27q0 6 -4 14q7 7 7 15q4 22 2 41l8 20q-4 8 -4 10h4q0 2 -4 2q12 45 16 45q0 4 -4 4l6 25l4 25q3 6 -6 6l6 18l-2 14q30 46 39 46l43 14q31 -15 31 -19l26 5l70 2l52.5 1.5t23.5 0.5v-4l6 4 q4 0 4 -4l8 4l6 -4q12 4 13 4v-4q2 0 2 4q8 0 8 -4l22 4q118 -4 140 -4h20l21 4q15 -9 41 -9h53l18 5v-5q10 5 11 5l8 -5q10 5 14 5l8 -5l6 5l9 -5l22 5q34 -12 31 -37q10 0 10 -9q-14 -9 -29 -38q-10 0 -10 -9h-26l-11 -4v8l-8 -4h-37q-2 0 -2 4l-8 -4l-18 4l-9 -4l-6 4 l-22 -4q-4 0 -4 4l-21 -8q-63 6 -106 8l-7 -4q-4 0 -4 4l-18 -4l-12 4q-2 0 -2 -4l-90 9q-77 -5 -89 -5q-2 0 -10 -4q-8 4 -16 4q-2 0 -2 -4l-21 4h-6q-6 0 -14 -4l-8 4q-11 0 -27 -8q-8 4 -14 4h-4q-8 0 -17 -36l4 -9q-4 -4 -6 -4q0 -4 4 -4l-6 -16l-4 -33l-8 -25 q0 -2 4 -2q-11 -34 -6 -45l-6 -8q4 -8 2 -14q0 -4 -4 -4l4 -6l-6 -37q-2 -9 2 -21l-7 -12q-12 -136 -20 -168v-14q-1 -5 -2 -9.5t-2 -11.5t0 -11.5t4 -4.5l-6 -19l-8 -53h82q4 0 16 -4q13 8 39 8h22q4 0 4 -4l9 4h37q2 0 2 -4q21 8 98 8h16q7 0 15 4l20 -8l23 4q6 0 2 -4 l22 4h2q17 0 33 -4q45 3 61 8q4 -4 15 -4l18 4q27 -17 35 -41v-4q0 -4 -18 -10l4 -8q-3 -10 -29 -27l-12 4q-37 -3 -37 -6l-19 2h-12q-23 0 -41 -2q-4 2 -10 2q-4 -2 -19 -2v2l-8 -2h-20q-4 0 -4 2q-6 -3 -47 -6l-4 4l-21 -4q-2 0 -10 4q-98 -10 -158 -10q-6 0 -14 -4l-6 4 q-12 -4 -13 -4v4l-8 -4q-4 0 -4 4q-47 -8 -72 -8v-4q-9 -119 0 -119v-4h-8l-12 -88v-27h-4l4 -6l-6 -31l2 -18h-4l4 -6q-4 -4 -6 -4l2 -19v-4q0 -4 -4 -4l2 -6q0 -4 -4 -4l2 -8q-5 -35 -2 -56q-2 -2 -3.5 -4.5t-2.5 -3.5t-1 -2l2 -18l-6 -9q0 -6 2 -12l-8 -33l-2 -10 q0 -10 2 -14l-6 -17v-6q-3 -8 4 -8l10 4l4 -4q12 4 15 4l-2 -4l10 4q4 0 0 -4l10 4q7 -1 8 -4q39 8 88 8q52 0 76 -8q36 4 43 4h37q8 0 12 -4l9 4q3 0 8 -0.5t14 -1.5t17 -2l34 4l6 -4q3 0 7 4q34 -3 34 -6q21 6 66 6l-2 -4l10 4h41q4 0 0 -4l10 4h23q6 0 2 -4l8 4 q4 -4 8 -4q2 0 6 4l17 -4h8q7 0 35 4q14 0 33 -31q-3 -22 -25 -32q-3 -27 -31 -27l-8 4l-20 -6q-14 2 -39 2h-33q-4 0 -4 4l-6 -4q-14 0 -54 4q-86 -4 -106 -4q-6 0 -12 -2q-35 3 -35 6l-27 -4h-127q-4 0 -4 4l-6 -4h-68q-30 0 -57 -2l2 2q-21 -6 -26 -6v4l-9 -4h-4 q-6 0 -14 4q-11 -5 -37 -8v4l-6 -4q-28 3 -55 55zM381 1550l4 6q-2 4 -2 17q54 57 92 57h14q57 -15 54 -47q7 0 4 -33h-4l2 -8q-3 -31 -76 -59h-14q-37 0 -72 53q0 8 -2 14zM684 1569q6 39 72 61h28q34 -15 52 -59l-7 -19l-4 -24q-37 -49 -71 -49q-77 9 -68 73q-5 0 -2 17z " />
<glyph unicode="&#xec;" horiz-adv-x="294" d="M6 35l4 24q3 9 0 15l4 6l11 108q1 1 2 3t2 2q0 42 14 108q1 -1 4 2q-8 0 -3 11q1 2 1 3v13l4 6q-2 4 -2 10l6 8q-3 6 0 15h4l-4 6l15 69q2 10 2 27l8 31q0 2 2 8t2.5 9.5t1 9.5t-1.5 8l6 8q0 4 -4 4l6 16v19h4l-2 6q0 4 4 4l-4 6l6 23q0 4 4 4q-2 4 -2 10q16 124 25 162 v18q5 8 6.5 22t0.5 25l-1 10q3 4 4 3l12 73l19 101v20q4 4 8 19v18h4l-4 6q0 4 4 4v8q10 55 4 82q0 1 3.5 6t4.5 9l-2 14h5q-7 34 2 51q0 6 6 12q0 3 0.5 9.5t1.5 20t2 26.5l4 6l2 22l43 17l22 -2q17 0 17 -78l-4 -25l6 -10v-4q-1 -3 -4 -8t-4 -6l2 -8q0 -3 -4 -3l-13 -155 l-4 -6l-2 -23v-6q0 -4 -4 -4l2 -6l-6 -37q0 -4 -4 -4v-6l-2 -11q0 -4 -4 -4l4 -8l-8 -35q-23 -129 -35 -233h-4l4 -6l-4 -8q0 -5 -2 -5l2 -8l-8 -30v-25h-2v-8q0 -4 -5 -4l5 -7q-4 -4 -7 -4l5 -8l-41 -207l-5 -43h-4v-8l-8 -47q-2 -6 -2 -31l-6 -8q-15 -134 -18 -213 q-7 -7 -7 -8l4 -8q-17 -28 -34 -35l-29 2q-2 0 -2 4l-8 -4q-15 0 -27 35zM35 1706l2 4q3 29 53 64q0 4 4 4h25q60 -75 205 -207q12 -27 12 -35q-6 -38 -60 -47q0 4 -4 4q-3 -8 -8 -8h-8q-20 0 -29 26q-6 0 -90 78q-37 28 -63 57.5t-39 59.5z" />
</font>
</defs>
</svg>
