<?xml version="1.0" encoding="utf-8"?>
<!-- Generator: Adobe Illustrator 21.1.0, SVG Export Plug-In . SVG Version: 6.00 Build 0)  -->
<svg version="1.1" id="Layer_1" xmlns="http://www.w3.org/2000/svg" xmlns:xlink="http://www.w3.org/1999/xlink" x="0px" y="0px"
	 viewBox="0 0 296.2 83.7" style="enable-background:new 0 0 296.2 83.7;" xml:space="preserve">
<style type="text/css">
	.st0{fill:#FFFFFF;}
</style>
<path class="st0" d="M61.7,53.5c0.4,0,0.3-1.5,0.3-2c0.1-0.8,0-1.7,0-2.5c0-0.7,0.4-1.4,0.4-2c-0.1,0-0.2,0-0.2,0
	c0-0.2,0.2-0.7,0.3-1c0.1-1.4-0.2-0.1-0.3-0.4c-0.1-0.5,0-1.1,0-1.6c0-0.5-0.2-0.2-0.2-0.8c0-0.1-0.7-1-0.7-1.1
	c-0.2-0.4-0.3-1.9-1.2-1.9c-0.5,0-0.7-0.6-1-0.9c-0.5-0.6-0.7-0.5-1.5-0.6c-0.5-0.1-0.8-0.3-1-0.5c-0.2-0.1-1.4,0.4-1.4-0.1
	c0-0.4-3.6-1.7-4-1.8c0.1,0-1.4-0.8-1.4-0.6c0-0.2-1.9-0.3-1.9-0.5c0,0.3-5-0.7-5.3-0.8c-0.5-0.1-0.6-0.1-1.1-0.3
	c0,0-1.2-0.7-1.2-0.7c-0.6-0.1-2.2,0.3-2.3-0.2c-0.2,0.1-0.5,0.2-0.7,0.2c-0.1-0.5-0.9,0-0.9-0.3c0-0.2-3.7-0.2-4.2-0.3
	c-0.6,0-3.5,0.2-3.5-0.7c0-0.1-1.2-0.7-1.2-1.2c0-1.2,1.5-2.1,2.6-2.7c0.2-0.1,0.2-0.3,0.5-0.4c0.6-0.1,0.3-0.3,0.6-0.5
	c0.3-0.2,1.6-0.3,1.7-0.5c1.2-0.3,2.7-0.4,4-0.5c1.3-0.1,2.6,0,3.8,0c0.8,0,1.4-0.2,1.7,0.5c0.2,0.4,0.6,0.5,0.8,0.7
	c0.4,0.5-0.6,0.2,0.5,0.7c0.4,0.6,0.7,1.2,0.9,1.8c0.2,0.6,0,1,0.7,1c0.6,0.1,1.3,0.1,1.9,0c0.1,0-0.1-0.2,0.1-0.2
	c0.3,0,0.7,0,1.1,0c0.5,0,1.4-0.2,1.5,0.2c2.1-0.2,4.1-0.2,6.3-0.2c0.7,0,3.7,0,3.8,0.5c0.3-0.1,0.6-0.2,0.9-0.2
	c0.1,0.2,0.2,0.3,0.5,0.2c0.1-0.6,1-0.1,1.4,0c0-0.1,0-0.2,0-0.2c0.7,0.1,1.4,0.2,2.1,0.2c0.1-0.6,0.7,0,1.2-0.2
	c0.4-0.1,0.5-0.5,0.7-0.7c0.1-1.3-1.4-1.5-1.4-2.4c0-0.3-0.2-0.1-0.2-0.6c0-0.5-0.2-0.6-0.2-0.8c0-0.2,0-0.3,0-0.5
	c0-0.5-0.2,0-0.2-0.2c-0.2-0.8-0.5-0.9-0.6-1.6c-0.1-0.5-0.8-1.4-1.3-1.4c-0.2,0-1.2-0.8-1.2-1.2c0-0.8-1.1-0.7-1.4-0.9
	c-0.6-0.8-1.6-1.6-2.3-1.6c-0.3,0.1-0.5-0.1-0.5-0.5c-0.5-0.2-0.9-0.3-1.4-0.5c-0.1,0-0.3-0.2-0.8-0.2c-0.1,0-0.4-0.2-0.6-0.2
	c-0.5-0.2,1.4,0-0.6-0.3c-0.6-0.1-1.2-0.2-1.8-0.3c-0.9-0.1-0.9-0.6-1.8-0.6c-0.5,0-1.1-0.2-2-0.2c-0.2,0,0-0.2-0.3-0.2
	c-0.5,0-1.1,0-1.6,0c-0.6,0-1.2-0.2-2.1-0.2c-1,0-2.1-0.4-3.1-0.5c-0.8-0.1-1.5-0.1-2.3-0.1c-0.4,0-0.8,0-1.1,0.1
	c-0.5,0.1-0.2,0.3-0.3,0.3c-0.7,0.2-1.3-0.2-1.6-0.2c0.1,0-0.4,0.2-0.6,0.2c-0.4,0-1,0.2-1-0.2c-0.1,0-0.9,0.7-0.9,0
	c-0.6,0.2-0.6,0.3-1.2,0c0.1,0.3-4.2,0.7-5.1,0.7c-0.3,0-0.7,0.3-1.3,0.4c-0.5,0.1-0.8,0.5-0.9,0.1c-0.7,0.1-1.4,0.2-2.1,0.2
	c-0.3,0.5-0.1,0.5-0.5,0.5c-0.7,0-1.4,0-2,0c0,0-0.7,0.2-1.1,0.2c-0.3,0,0,0.2-0.1,0.2c-0.3,0-0.7,0-1,0c-0.2,0-0.2,0.2-0.3,0.3
	c-0.2,0.3-0.5,0-0.8,0.1c-0.4,0.5-0.8,0.9-1.3,1.4c-0.3,0.3-0.6,0.6-0.8,0.9c-0.2,0-0.3,0-0.5,0c-0.6,0.7-1,1-1.6,1.5
	c-0.5,0.4-0.8,1-1.2,1.5c-0.9,0.7-1.9,1.8-1.9,2.8c0,0.6-0.5,0.9-0.7,1.2c-0.2,1-0.6,1.6-0.8,2.7c0,0.1-0.5,1.3-0.5,1.3
	c-0.2,0-0.1,1.2-0.2,1.5c-0.2,0.9-1.2,5.3-0.2,5.6C7.1,38.8,7,39,7,39.3c0.5-0.1,0.4,1.1,0.5,1.4c0.5,0.2,0.7,0.4,1,0.8
	c0.5,0.9,1.2,0.8,1.7,1.5c0.5,0.6,0.7,0.3,1.1,0.8c0.3,0.5,0.4,0.4,1,0.4c0.5,0,2.4,0.8,2.3,1.4c1,0,1.9-0.3,2.9-0.4
	c0.7,0,1.4,0.4,1.7,0.4c0.7,0,1.5,0.5,2.1,0.5c0.8,0,0.8,0.5,1.5,0.5c0.1,0,0.4-0.5,0.4-0.1c0,0.3,1,0.1,1.2,0.1c0.3,0,0.6,0,0.9,0
	c0.4,0,0.1,0.2,0.2,0.2c0.6,0.1,1.3,0.5,1.8,0.5c0.4,0,0.8,0.2,0.9,0.2c0.5,0,1,0.2,1.2,0.2c1.6,0,3.6,0.5,5.5,0.6
	c1.4,0.1,2.7-0.1,3.9,0.4c1,0.5,1.1,0.8,2.3,1.2c0.7,0.2,1.3,0,1.3,0.9c0,0.4,0,1-0.2,1.4c-0.6,0.9-1.7,1.4-2.7,1.6
	c0,0-0.6,0.4-0.6,0.4c0,0-0.8,0.4-0.7,0.4c-0.5,0.1-1.1,0-1.6,0c-0.5,0-0.2,0.2-0.8,0.2c-1.4,0-2.2-0.2-3.4-0.3
	c-1.3-0.1-3.4-0.1-3.9-0.2c-0.5-0.1-0.7-0.5-0.7-0.5c-0.5-0.3-1.1-0.4-1.5-0.9c-0.2-0.3-0.8-0.6-0.8-0.9c0-0.5-0.5-0.2-0.5-0.7
	c0-0.9-0.5-1.2-0.5-2.3c0-1.1-1.9-1.1-2.7-1.2c-0.6-0.1-2.6,0.1-2.7,0.6c-0.3-0.1-0.6-0.2-0.9-0.2c0.1,0.5-1.1,0.4-1.4,0.5
	c0-0.1,0-0.2,0-0.2c-0.6-0.1-0.7,0.2-1.4,0c0,0.6-2.3,0-2.6,0c-0.1,0.3-0.2,0.3-0.2,0c-0.4,0-0.9,0.6-0.9,0c-0.6,0.1-1.9,0.1-2.3,0
	c-0.5-0.1-0.6,0.2-1.2,0.1c-0.6-0.2-0.6,0.2-1.2,0.1c0-0.3,0.2-0.3-0.5,0c-0.1-0.2-1-0.5-1.6-0.2c-0.6,0.3-3-0.1-3,0.3
	c0,0.1-0.8,0.2-0.9,0.4c0,0.3-0.4,1.6,0.1,1.6c0.2,0,0.2,0,0.1,0.2c0,0.8,0.7,0,0.2,0.9c0.8,0.4,0.8,1.7,0.9,2.3
	c0,0.1,0.2,0,0.2,0.5c0,0.2,0.2,0.8,0.5,1.1c0.2,0.3,0.4,0.8,0.5,1.2c0.5,0.1,0.7,0.3,0.6,0.8c0.4,1.8,0.2,0.1,0.4,0.6
	c0.3,1.3,1.3,2.2,2.3,3c0.4,0.7,0.5,0.2,0.9,0.8c0.4,0.7,1.6,0.6,2.3,0.8c0.9,0.2,1.9,0.4,2.8,0.6c0.5,0.1,1.3,0.5,1.6,0.5
	c0.3,0,2.6,0.7,2.6,0.8c0,0.3,2.6,1.1,2.6,1.2c0,0.5,4.6,0.6,5.4,0.6c0.9,0,6-0.5,6.1,0.5c0.8-0.1,1.7-0.2,2.6-0.1
	c0.8,0,1.6,0.4,2.1,0.1c0,0.1,0,0.2,0,0.2c0.2,0,0.4-0.1,0.5-0.2c0.3,0.1,0.6,0.2,0.9,0.2c0-0.3,0-0.2,0.2-0.2
	c0.1,0.2,0.2,0.3,0.5,0.2c0.3-0.1-0.1-0.3,0.2-0.2c0,0.1,0,0.2,0,0.2c1.4-0.2,3.8-0.6,4.2-0.7c0.4-0.1,0.4-0.5,0.5-0.5
	c1.8-0.2,2.1-0.6,3.7-1.2c0.1,0-0.2-0.2,0.1-0.2c0.3,0,0.5,0.1,0.9,0c0.4-0.1,1.1-0.6,1.1-0.6c0-0.3,0.9,0,1.2-0.1
	c0,0,0.1-0.3,0.3-0.4c0.6-0.2,0.3,0.3,0.8,0.1c0.1-0.4,2.1-0.5,2.1-0.8c0-0.2,0.9-0.4,1.3-0.4c0.1,0,0.7-0.6,1.1-0.7
	c0.3-0.2,0.7-0.7,1.2-0.9c0.5-0.3,1-0.7,1.2-1.2c0.2-0.4,0.6-0.4,0.6-0.7c0-0.5,1.2-0.9,1.2-1.7c0-0.5,0.7-0.4,0.7-0.9
	c-0.1-0.3,0.1-0.4,0.5-0.5c0.1-0.4,0.2-0.8,0.2-1.2C61.4,54.9,61.8,54,61.7,53.5z M61.9,29.2c0.4-0.1,0.7-0.3,0.9-0.5
	c-0.2,0.7-0.3,0.7-0.9,0.9C61.9,29.5,61.9,29.4,61.9,29.2z M54.9,25c0,0,0.1-0.1,0.1-0.1c0.5-0.7,0.9-1.3,1.7-1.8
	c0.6-0.3,1.1-1.9,1.7-1.9c0.7,0,0.6,0.1,0.2,0.5c-0.2,0.3-0.3,0.5-0.5,0.8c-0.5,0.6-0.4,0-0.8,0.3c-0.4,0.6-0.8,0.6-1.1,1.1
	c-0.2,0.4-1.5,1.3-1.7,1.4C54.5,25.3,54.7,25.1,54.9,25z M51.6,28c0,0.3,0.1,0.5-0.2,0.5c0.1-0.5,0.3-0.8,0.7-0.9
	C52,27.8,51.8,27.9,51.6,28z M53.7,26.2c0-0.2,0-0.3,0-0.5c0.3,0.1,0.2,0,0.5,0.2C54,26,53.9,26.1,53.7,26.2z M46.2,17.5
	c0.1,0.5-0.8,1-0.9,0.5C45.6,17.8,45.9,17.7,46.2,17.5z M45.3,25c0.4,0.1,0.7,0,0.8-0.4c0.2-0.5,1.1-0.5,1.1-0.9
	c0,0.1,1.6-1.3,1.6-1.3c0.5,0,0.4-0.7,0.8-0.7c-0.1,0,0.7-0.9,0.8-1.1c0.4-0.5,0.7-0.3,1.2-0.9c0.3-0.4,1.7-1.9,2.2-0.7
	c0.3,0.7-1.5,1.8-2,2.3c-0.2,0.2-0.5,0.8-0.7,0.9c-0.2,0-0.3,0-0.5,0c-0.2,0.3-0.3,0.7-0.7,0.7c-1,0-1.7,1.5-2.3,1.7
	c-1.5,0.5-2.2,2.1-3.8,2.5C43.6,26.2,45.1,26,45.3,25z M43.7,19.6C43.4,19.8,43.9,19.3,43.7,19.6c0.2-0.4,0.5-0.6,0.9-0.7
	c-0.3,0.4-0.5,1.1-1.2,0.9C43.6,19.6,43.4,19.8,43.7,19.6z M41.8,21c0.1,0,0.2,0,0.2,0c0.2,0.1-0.4,0.4-0.5,0.5
	C41.6,21.3,41.7,21.2,41.8,21z M40.2,22.9c-0.5-0.1-0.2,0-0.5-0.2C40.2,22.8,39.9,22.6,40.2,22.9z M11.4,33.2
	c-0.1,0.5-0.6,0.3-0.8,0.8c-0.2,0.6-0.8,0.5-1.1,1.1c-0.2,0.3-1.3,1.5-1.6,1.6c0-1.1,0.1-1.4,0.9-1.9c0.1-0.1,0.3-0.4,0.3-0.4
	c0.5-0.1,0.8-0.1,1.2-0.6c0.3-0.5,0.7-0.3,1.1-0.8c0.3-0.4,0.6-0.9,1-1C12.2,32.6,11.8,32.8,11.4,33.2z M17.5,30.4
	c0.4-0.1,0.7-0.1,0.7,0.2C17.8,30.8,17.7,30.6,17.5,30.4z M20.1,29.2c-0.3,0.2-0.9,0.8-1.2,0.7c0.2-0.6,1.1-1.5,1.6-1.6
	C20.4,28.6,20.2,28.9,20.1,29.2z M27.1,23.8C26.9,24,26.9,24,26.8,24c-0.5,0.4-1.1,0.8-1.7,1.1c-0.9,0.4,0,0.3-0.4,0.6
	c-0.4,0.1-0.7,0.4-1.2,0.5c0,0.2,0,0.3,0,0.5c-0.4,0.1-0.8,0.3-1.1,0.5c-0.6,0.4-1,1.2-1.7,1.1c0.3-0.4,0.5-0.8,0.9-1.1
	c0.3-0.2,0.4-0.5,0.7-0.5c0.3,0,0.4-0.5,0.7-0.7c0.1-0.1,0.9-0.9,1.2-0.9c0.4,0,0.7-0.3,1-0.6c0.2-0.2,0.4-0.5,0.6-0.8
	c0.2,0,0.3,0,0.5,0c0.1-0.4,0.3-0.6,0.7-0.9c0.2-0.1,0.4-0.3,0.5-0.5c0.2,0,0.3,0,0.5,0c0.4-0.3-0.4-0.2,0.4-0.6
	c0.4-0.3,0.7-0.6,1.2-0.8c0.3-0.3-0.3-0.3,0.3-0.6c0.5-0.2,1-0.6,1.4-1c0.4-0.3,1.4-1.7,1.7-1.8c0.4-0.1,2.1-0.9,2.2-0.2
	c-0.6,0.4-1.4,0.9-1.6,1.4c-0.5,0.2-0.7,0.1-0.8,0.6c-0.1,0.4-0.6,0.3-0.6,0.5c0,0-2.2,1.8-2.4,1.9c-0.2,0-0.2-0.1-0.3,0.2
	c-0.2,0.6-0.7,0.4-1.2,0.8c-0.2,0.1-0.5,0.4-0.5,0.6C27.8,23.2,27.2,23.6,27.1,23.8z M38,43c0.5,0.1,0.2,0,0.5,0.2
	C38,43.1,38.3,43.3,38,43z M7,51.9c-0.7-0.1-1.8,1.9-2.3,2.4c-0.1,0.1-0.5,0.6-0.6,0.6c-0.7,0,0.5-1.1,0.6-1.2
	c0.5-0.6,0.9-1.3,1.4-1.9c0.2,0,0.3,0,0.5,0c0.1-0.4,0.4-0.8,0.7-1.1C7.6,50.4,7.9,50,8.4,50C8,50.7,7.2,51.1,7,51.9z M10.5,57.7
	c-0.1,0-0.2,0-0.2,0c0.1-0.9,0.7-1.3,0.9-2.1c0.6-0.2,0.6-0.8,1.2-0.7C12.1,56.1,11,56.7,10.5,57.7z M12.8,54.2
	c-0.2,0.2,0,0.1-0.2,0.2c0-0.2,0-0.3,0-0.5c0.3,0.1,0.2,0,0.5,0.2C13,54.2,12.9,54.2,12.8,54.2z M22.9,65.4
	C23.5,65.1,22.7,65.7,22.9,65.4c-0.2,0.2,0,0.1-0.2,0.2c-0.5-0.7,0.8-1.4,1.2-2.1C24.3,64.2,23.4,65.2,22.9,65.4z M30.8,65.4
	C30.3,65.2,30.8,64.6,30.8,65.4L30.8,65.4z M31.7,64C32,63.8,31.6,64.5,31.7,64c-0.1,0.4-0.2,0.8-0.7,0.7c0.2-0.4,0.4-1.1,0.9-0.9
	C31.8,64,32,63.9,31.7,64z M32.2,63.6c-0.1,0-0.2,0-0.2,0c0.2-0.7,0.8-1.2,1.4-1.4C33,62.6,32.6,63.1,32.2,63.6z M34.5,61.2
	c-0.3,0.1-0.4,0.2-0.7,0.2c0.2-0.3,0.4-0.5,0.7-0.7C34.5,60.9,34.5,61.1,34.5,61.2z M38.2,56.7c0.1,0,0.2,0.1,0.3,0.1
	c-0.1,0.4-0.4,0.4-0.7,0.5c0,0.2,0,0.3,0,0.5c-0.2,0-0.3,0-0.5,0c-0.7,0.8-1.6,2.5-2.6,2.8c0.2-0.4,0.6-0.8,0.7-0.9
	c0.3-0.4,0.7-0.7,1-1.1c0.4-0.7,0.5-0.3,0.8-0.9c0.2-0.3,0.1-0.7,0.5-0.7c0.4,0,0.6-0.7,0.9-1c0.2-0.2,1.1-1.2,1.2-0.4
	C39.8,55.5,38.1,56.6,38.2,56.7z M41.8,39.7c-0.6-0.2-1.2,1.2-1.7,1.6c-0.2,0.1-0.6,0.8-0.6,0.3c0-1.2,2.6-1.7,2.6-3.1
	c0-0.1,1.2-1.1,1.4-1.6c0.2-0.3,0.5,0.4,0.5-0.2c0-0.4,0.2-0.2,0.5-0.2c0.6,0-0.7,0.9-0.9,1C42.9,38.2,42.2,38.9,41.8,39.7z
	 M43.4,51.4c0-0.7,0.3-1.2,0.6-1.7c0.3-0.4,0.5-0.2,0.8-0.9c0.5,0,0.8,0.1,0.9,0.5C45.1,49.1,44.1,51.2,43.4,51.4z M49.5,44.2
	c-0.1,0-0.2,0-0.2,0c0.1-0.5,0.3-0.8,0.7-0.9C49.9,43.6,49.7,43.8,49.5,44.2z M53.9,40c-0.3-0.1-1.4,1-1.8,1.4
	c-0.5,0.5-1.3,1.7-1.9,1.9c0.3-1.2,1.2-1.4,1.7-2.5c0.3-0.6,0.4-0.8,1-1.1c0.3-0.2,0.5-0.4,0.6-0.8c0.4,0.1,0.6,0.3,0.9,0.5
	C54.3,39.5,54.1,39.7,53.9,40z M56,60.1C55.6,59.9,56,59.2,56,60.1L56,60.1z M56.3,59.4c0.2-0.3,0.1-0.5,0.5-0.5
	C56.9,59,56.3,59.3,56.3,59.4z M60.7,44.6c-0.6-0.5-1.1-1,0-1.4C60.7,43.7,60.7,44.2,60.7,44.6z M153.2,64c0.3,0,0.1-1.5,0.1-1.7
	c0-1.5,0.2-2.6,0.2-3.9c0.4-0.1,0.5-1.7,0.5-2.2c0-1.2,0.7-2.8,0.7-3.9c0-0.1,0.2-0.7,0.2-0.9c0-0.1,0.2,0.2,0.2-0.1
	c0-0.3,0-0.7,0-1c0,0.1,0.4-0.9,0.4-0.9c0,0,0.4-0.9,0.4-0.8c0-0.3,0-0.6,0-0.9c0-0.3,0.2,0,0.2-0.1c0.2-0.5,0-0.6,0.2-1.2
	c0-0.1,0.2,0.1,0.2-0.1c0-0.4,0-0.8,0-1.2c0-0.2,0.1-0.9,0.2-1c0.4-0.7,0.7-1.2,0.9-2.4c0.1-0.9,0.9-1.8,0.5-2.5
	c0.5-0.1,1.2-3.5,0.9-4c0.1-0.1,0.3-0.5,0.3-0.5c0,0,0.4-0.8,0.4-0.7c0-0.2,0-0.3,0-0.5c0-0.5,0.2,0,0.2-0.2
	c0.1-0.2,0.2-0.8,0.2-0.8c0-1.1,0.2-1.3,0.2-2.3c0-0.1,0.2-0.5,0.2-0.9c0-0.2,0.2-0.3,0.2-0.8c0-0.3,0.2-1.9,0.4-1.9
	c0.4,0,0.4-1.9,0.7-1.9c0,0,0.6-1.8,0.6-1.9c0-0.3,0.3-0.3,0.3-0.8c0.1-0.5,0.1-1,0.2-1.5c-0.5-0.1,0.2-0.6,0.2-1.1
	c0-0.8,0.2-0.5,0.4-1.1c0.3-0.9-1.1-1.2-1.8-1.1c-0.9,0.1-1.8,0.4-2.7,0.7c-0.3,0.1-0.5,0.1-0.8,0.1c-0.4,0-0.1,0.2-0.2,0.2
	c-1,0.1-2.1-0.2-3,0c-0.1,0,0.3,0.2-0.4,0.3c-0.5,0.1-1,0-1.5,0c-0.7-0.1-1.5-0.3-2.2-0.3c-0.6,0-1.2,0-1.8,0c-0.1,0-0.4,0-0.5,0
	c-0.4-0.8-0.3-0.2-0.9-0.5c0,0,0-0.1,0-0.1c0-0.3-0.1-0.3-0.6-0.2c-0.3,0-0.8,0.1-1.1-0.1c-0.7,0.1-1.3,0.4-1.6,0.9
	c-0.1,0.2-0.2-0.2-0.2,0.1c0,0.2,0.1,0.6,0,0.8c0,0.1-0.5,0.5-0.5,0.6c0,0.6-0.3,0.9-0.3,1.7c0,0.6-0.1,1.2-0.1,1.8
	c0,0.2-0.2-0.3-0.4,0.6c0,0.2-0.4,1.1-0.5,1.1c0,0-0.6,2-0.6,2.1c0,0.5-0.1,0.6-0.2,1c-0.1,0.2-0.2-0.2-0.2,0.1c0,0.2,0,0.5,0,0.8
	c-0.1,0.4-0.1-1.2-0.3,0.7c0,0.2,0,1.4-0.3,1.4c-0.1,0-0.4,0.7-0.4,0.9c0,0.4-0.8,4.3-0.8,4.3c-0.3,0-0.3,1.9-0.5,1.9
	c0,0-0.6,2-0.7,2.2c-0.1,0.4-0.3,1.8-0.6,1.8c0,0.2,0.1,0.4,0.2,0.5c-0.1,0.3-0.2,0.6-0.2,0.9c0.2,0.1,0.4,0.1,0,0.2
	c0.3,0.2,0,2,0,2.5c0,0.7-0.5,1.2-0.5,1.9c0,0.9-0.2,1.5-0.2,2.5c0,0.1-0.5,1.5-0.7,1.5c0.2,0.6,0.4,0.6-0.2,0.9
	c-0.1,0.7-0.1,1.4-0.2,2.1c0,0.4-0.1,1-0.3,1.4c0,0-0.1,0-0.1,0c-0.3,0-0.3,0.2-0.2,0.6c0,0.2,0,1.2-0.3,1.2c-0.3,0-0.1,1-0.1,1.3
	c0,0.8-0.5,1.1-0.5,1.8c0,0.3-0.4,1.4-0.5,2.1c0,0.1-0.5,0.9-0.7,0.9c0.1,0.2,0.2,0.5,0.2,0.7c-0.8,0.2,1.1,0.8,1.4,0.9
	c0.1-0.8,1.4-0.1,1.9-0.2c0.2-0.2,0.3-0.3,0.5-0.5c0.2,0.1,0.5,0.2,0.7,0.2c0.1-0.5,1-0.2,1.4-0.2c0.5,0,1.7-0.3,2.1-0.2
	c0.1,0.7,1.5,0,1.6,0c0,0.5,1.9,0.2,2.4,0.2c0.5,0,0.5,0,0.8,0.2c0.4,0.2,0.4-0.1,0.6-0.2c0.6-0.2,0.3,0.3,0.9,0.2
	c0-0.1,0-0.2,0-0.2c0.7,0.1,1.4,0.2,2.1,0.2c-0.1-0.5,1-0.3,1.3-0.3c0.4,0,0.9-0.1,1.3-0.1C152.9,64.8,152.9,64,153.2,64z M160.5,21
	c1.3-0.4,0.3,1.1-0.5,0.9C160.2,21.6,160.4,21.4,160.5,21z M138.3,63.8c-0.3-0.1-0.2,0-0.5-0.2c0.1-0.1,0.3-0.1,0.5-0.2
	C138.3,63.5,138.3,63.7,138.3,63.8z M139,48.8c-0.1,0-0.2,0-0.2,0c0.1-1.2,0.9-1,1.4-1.4C139.8,47.9,139.4,48.4,139,48.8z
	 M153.3,37.4c0.5-0.2,0.8-0.1,0.7-0.7c0.3,0.1,0.2,0,0.5,0.2C154,37.2,153.2,38.5,153.3,37.4z M155.1,36.5c-0.2,0-0.3,0-0.5,0
	c0.4-1.1,1.8-1.5,2.6-2.4c0.2-0.2,0.3-0.4,0.5-0.7c0.2,0,0.3,0,0.5,0c0,0,0.1-0.4,0.2-0.5C158,34.6,156,35.1,155.1,36.5z M156.1,21
	c0.5,0.1,1.2-0.9,1.6-1.3c0.5-0.5,1.2-0.4,0.3,0.2c-1,0.7-1.4,1.8-2.6,2C155.6,21.7,155.8,21.3,156.1,21z M154.9,22
	c0.1,0,0.2,0,0.2,0c-0.3,0.4-0.5,0.8-0.9,0.9C154.4,22.6,154.7,22.3,154.9,22z M153.3,23.6C152.8,23.8,153.5,23.3,153.3,23.6
	c0.2-0.2,0-0.1,0.2-0.2c0.2,0.5-0.7,0.9-1.2,0.9C152.6,23.9,152.9,23.8,153.3,23.6z M144.4,35.1c0,0.2,0,0.3,0,0.5
	c-0.5,0.1-0.6,0.2-0.7,0.7c-0.1,0-0.3-0.1-0.4-0.1c-0.1-0.2,2-2.2,2-2.2c0.6,0-0.1-0.5,0.5-0.5c0.7,0,0.9-1.4,1.5-1.4
	c-0.1,0,0.4-0.6,0.6-0.6c0.4-0.2,0.6-0.8,0.9-0.8c0.3,0,0.5-0.3,0.7-0.5c0.3-0.7,1.1-1,1.6-1.6c0.1-0.1,0.4-0.2,0.5-0.2
	c0.2,0,0.3,0,0.5,0c0.2-0.3,0.3-0.7,0.7-0.7c0.3,0,0.2-0.2,0.5-0.4c0.1-0.1,0.2-0.3,0.2-0.5c0.5-0.1,0.9-0.3,1.2-0.6
	c0.5-0.4,0.7-1,1.3-1.3c0.4-0.2,1.3-1.1,1.7-1.1c0.2,0.1,0.3,0,0.2-0.2c0-0.4,0.5-0.3,0.8-0.5c0.4-0.3,0.6-0.8,1-0.9
	c-0.6,0.7-1.2,1.4-1.9,2.1c-0.2,0-0.3,0-0.5,0c0,0.2,0,0.3,0,0.5c-0.7,0.1-1.2,0.5-1.7,0.9c-0.1,0.2-0.2,0.3-0.2,0.5
	c-0.2,0-0.3,0-0.5,0c0,0.2,0,0.3,0,0.5c-0.3,0.1-0.5,0.2-0.8,0.4c-0.3,0.2-1.1,0.4-1.1,0.8c0,0.3-1.2,0.9-1.7,1.3
	c-0.1,0.1-0.2,0.2-0.2,0.1c-0.3,0.6-0.8,0.6-1.2,1.1c-0.2,0.2-0.3,0.5-0.4,0.8c-0.3,0-0.7,0.2-1,0.3c-0.6,0.3-1.2,0.8-1.6,1.4
	c-0.4,0.5-0.6,0.2-0.8,0.7c-0.1,0.1-0.3,0.5-0.3,0.6c-0.2,0-0.3,0-0.5,0c-0.2,0.4-0.5,0.8-0.7,1.2C144.7,35.1,144.6,35.1,144.4,35.1
	z M145.3,57.5c-0.3-0.1-0.2,0-0.5-0.2c0.1-0.1,0.3-0.1,0.5-0.2C145.3,57.2,145.3,57.3,145.3,57.5z M147.2,55.6
	c-0.8-0.1-0.8,1.2-1.6,1.2c0.3-0.5,0.3-0.8,0.9-0.9c0.1-0.2,0.1-0.5,0.3-0.6c0.6-0.2,0.1-0.4,0.7-0.7c0.3-0.1,0.5-0.3,0.7-0.7
	c0.2-0.5,0.8-0.7,1.3-0.9c0.6-0.3,0.5-0.8,1.2-0.9C149.8,53.6,148.1,54.2,147.2,55.6z M152.1,54.9c-0.3,0.3-0.9,0.8-1.4,1.3
	c-0.8,1-0.4,0.1-0.9,0.5c-0.2,0.3-0.3,0.6-0.7,0.7c0.2-0.5,1.8-2.3,2.3-2.3c0.8,0,0.4-1.1,1.2-0.9C152.5,54.7,152.4,54.6,152.1,54.9
	z M133.4,43.6c0-1,0.5-1,0.5-1.8c0-1.5,0.8-3.7,0.2-5.3c0.9-0.2-0.4-4,0.5-4.2c0-0.4-0.3-0.5-0.2-0.9c0.1-0.3,0.3,0.1,0.2-0.2
	c-0.8,0.1,0-1.4-0.6-1.4c0,0-0.4-0.6-0.4-0.6c0-0.6,0.1-0.5-0.5-0.8c-0.1-0.6-0.1-0.9-0.6-1.2c-0.9-0.7-1-1.3-1.4-2.4
	c-0.1-0.3-0.5-1-0.7-1c-0.6,0-0.5-0.2-0.8-0.5c-0.4-0.8-2.8-1.4-2.8-2.6c0-0.5-1.8-0.8-2.2-1c-0.6-0.2-0.7-0.3-1-0.9
	c-0.6-0.1-1.2-0.2-1.8-0.3c-0.9-0.2-0.8-0.8-1.8-0.8c-0.2,0-0.2-0.2-0.7-0.2c-0.5,0-1,0-1.6,0c0,0,0.1,0.2-0.1,0.2
	c-0.2,0-0.1-0.2-0.1-0.2c-1,0-2,0-3,0c0,0-1.7-0.7-1.7-0.8c0,0-1.5-0.6-1.5-0.6c-2,0-4.3-0.5-6.7,0c-1.4,0.2-2.3,0.7-3.5,1
	c0.1,0-0.7,0.4-0.7,0.3c0,0-0.6,0.4-0.7,0.4c-0.1,0-1.2,0.9-1.2,0.8c0-0.1-1.3,0.6-1.5,0.7c-0.5,0.2-0.6,0.4-0.8,0.8
	c-0.2,0.1-0.5-0.1-0.7,0c-0.3,0.5-1.2,1.6-1.9,1.4c0-0.1,0.6-0.5,0.5-0.6c-0.3-0.3-0.1-0.3,0-0.8c0,0-0.2,0.1-0.2-0.1
	c0-0.2,0.2-0.1,0.2-0.1c0.2-0.7-0.1-1.3,0.5-1.9c0-1.3,0-1.6-1.3-1.7c-0.6-0.1-1.1-0.1-1.7,0c-0.9,0.1-0.5,0.3-0.6,0.4
	c-0.5,0.1-0.9-0.1-1.4,0c-0.1,0,0.2,0.2-0.1,0.2c-0.3,0-0.5,0-0.8,0c0.1,0-0.9,0.4-0.9,0.4c0,0.3-1,0.1-1.3,0.1
	c-0.4,0-0.6,0.2-0.7,0.2c-0.2,0,0-0.2-0.3-0.2c-0.6,0-1.2,0-1.8,0c-1.2,0-2.5,0-3.7,0c-0.4,0-0.3,0-0.6,0.2
	c-0.4,0.2-1.3-0.1-1.7-0.1c-0.9-0.1-1.9,0-2.8,0.2c0.1,0.5,0.2,0.9,0.2,1.4c-0.2,0-0.8,3.3-0.8,3.7c0,0.4-0.1,0.8-0.1,1.2
	c0,0.2-0.2-0.2-0.2,0.2c0,0.4-0.2,0.5-0.2,0.6c0,0.5,0,1,0,1.5c0,0.4-0.2,0.1-0.2,0.4c0,1.1-0.7,2-0.7,3c0,1.3-0.3,2-0.5,3.4
	c0,0-0.2,0.4-0.2,0.8c0,0.2-0.2,0.2-0.2,0.7c0,0.4-0.2-0.1-0.3,0.8c0,0.4-0.1,0.9-0.1,1.3c0,0.2,0,0.4-0.1,0.6c-0.1,0-0.2,0-0.2,0
	c-0.2,0.5-0.2,0.5-0.3,1.2c0,0.4-0.4,1.4-0.4,1.5c0,1.3-0.3,2-0.5,3.4c0,0-0.2,0.1-0.2,0.5c0,0.5,0,1.1,0,1.6c0,0.6-0.2,0.9-0.2,1.8
	c0,0.2-0.2,0-0.2,0.4c0,0.4,0.1,0.9,0,1.3c0,0-0.2,0.4-0.2,0.8c0,0.3-0.2,0.1-0.2,0.6c0,0.7-0.5,1-0.2,1.6c-0.2,0.2-0.5,0.4-0.5,0.8
	c0,0.8-0.2,1.2-0.2,1.7c0,0.7-0.2,0.9-0.2,1.4c0,0.7-0.2,1.2-0.2,1.6c0,0.4,0,0.9,0,1.3c0,0.4-0.2,0.2-0.2,0.3c0,0.3,0,0.7,0,1
	c0,0.5-0.2,0.2-0.2,0.5c0,0.6-0.2,2.6-0.7,2.7c0.4,0.8-0.2,0.4-0.2,1.2c0,0.5-0.2,0.4-0.2,0.5c-0.1,1.1-0.2,2.2-0.5,3
	c-0.1,0.2-0.2-0.2-0.2,0.4c0,0.5-0.2,0.6-0.2,0.8c-0.1,0.2-0.1,1.4-0.4,1.4c0.2,0-0.6,2.8-0.6,2.9c0,1.7-0.9,2.4-0.9,4
	c0,0.3-0.2,0-0.2,0.2c0,0.4,0,0.8,0,1.2c0,0.9-0.4,1.1-0.7,1.6c-0.2,0.4-0.5,1-0.5,1.4c0.1,1.1,0.3,1.1,1.4,1.3
	c0.6,0.1,0.9,0.1,1.3-0.1c0.5-0.3,1.2,0.4,1.8,0.2c0,0-0.1-0.2,0.2-0.2c0.5,0,1,0,1.5,0c0.4,0,0.8,0,1.2,0c0.4,0,0.3,0.2,0.4,0.2
	c0.6,0.1,2.5,0.5,2.6,0.2c1.2,0.2,1.7,0.5,2.9,0.5c0.2,0,0.9-0.1,0.9,0.1c0,0.3,0.2,0,0.2-0.1c0.4,0.1,0.8,0.2,1.2,0.2
	c0.2-0.6,0.7,0,1.2,0c0.2-0.4,0.9-0.2,1.4-0.4c1.1-0.4,0.6-1.4,0.5-2.4c0.7-0.1-0.2-1.3,0.5-1.4c-0.1-0.2-0.2-0.5-0.2-0.7
	c0.1,0,0.2,0,0.2,0c-0.1-0.2-0.2-0.5-0.2-0.7c0.6-0.1,0.1-1.8,0.2-2.3c0,0,0.1,0,0.1,0c0.3,0,0.4-0.2,0.2-0.7c0-0.7,0.1-1.4,0.1-2.1
	c0-0.1,0.3-1.4,0.4-1.4c-0.2,0,0.6-1.7,0.6-1.6c0.3-0.8,0.2-1.3,0.5-2.1c0,0,0.7-1.6,0.6-1.6c0.3,0,0.4-1.6,0.7-1.6
	c0.2,0,0.7-1.9,0.8-2.2c0.1-0.9,0.2,0,0.3,0.1c0.2,0.2,0.5-0.3,0.5,0.2c0,0.6,0.1,0.6,0.7,0.7c0.5,0.7,0.7,0.7,1.5,0.9
	c0.3,0.1,0.6,0.7,0.8,1c0.5,0.5,0.2-0.6,0.7,0.5c0.6,0.1,1.2,0.1,1.8,0.2c2.3,0.2,0,0.1,0.6,0.3c0.2,0.1,0.5-0.1,0.7,0
	c0.1,0.1,0.6,0.4,0.9,0.5c-0.1,0,0.7,0.4,0.7,0.4c0,0.3,1.1,0.1,1.3,0.1c2,0,3.8,0.3,5.8,0c2.3-0.4,4.6-0.5,7-0.6
	c0.1,0,1.6-0.6,1.6-0.6c0-0.1,0.7-0.4,0.9-0.4c0.6,0,0.3-0.2,1-0.2c0.3,0,1.3-0.3,1.9-0.4c0.7-0.1,0.7-0.2,1.1-0.8
	c0.2-0.1,0.5,0.1,0.7,0c0.4-0.1-0.9-0.3,0.4-0.3c0.5,0,1,0.3,1.5,0.2c0.4-0.1,1-0.5,1.2-0.8c0.2-0.1,0.5,0.1,0.7,0
	c0.2-0.2,0.3-0.7,0.6-0.7c0.2,0,0.6,0.1,0.8,0c0.5-1,0.2-0.1,0.7-0.5c0.4-0.2,0.7-0.6,1.2-0.8c0.7-0.3,0.2-0.5,0.9-0.7
	c1-0.3,1.2-1.1,1.9-1.5c0.8-0.4,0.9-1.4,1.6-1.9c0.3-0.2,0.7-0.4,1-0.6c0.3-0.2,0-0.4,0.2-0.6c0.6-0.3,0.5-0.5,0.7-1.2
	c0.4-0.3,0.9-0.4,0.7-0.9c0.1,0,0.2,0,0.2,0c-0.3-0.6,0.7-1.6,0.8-2.3c0-0.1,0.3-1.2,0.5-1.2c0.1,0,0.6-0.9,0.6-1.2
	c0-0.1,0.6-1.1,0.6-1.1c0.2,0,0.7-1.4,0.8-1.6c0,0,0.4-0.7,0.4-0.7c0.3,0-0.2-0.5-0.1-0.7C132.8,44.9,133.4,43.6,133.4,43.6z
	 M63.5,81.3c-0.2,0-0.3,0-0.5,0C63.3,80.7,63.8,80.3,63.5,81.3z M67,65.4c0.2-0.3,0.1-0.5,0.5-0.5C67.7,65.1,67.1,65.4,67,65.4z
	 M72.2,42.5C72.4,42.3,72,43.2,72.2,42.5c-0.2,0.6-0.7,0.6-0.8,1c0,0.3-0.2,0.4-0.4,0.4c0.3-0.7,0.3-1.9,1.4-1.6
	C72.2,42.5,72.4,42.4,72.2,42.5z M76.6,20.3c0.3-0.1,0.8-1.2,1.2-1.7c0.3-0.3,0.9-0.5,0.5,0.1c-0.1,0.2-0.2,0.4-0.3,0.6
	c-0.2,0-0.3,0-0.5,0c-0.1,0.3-0.4,1.2-0.8,1.2c-0.3,0-0.3,0.9-0.8,0.9C76,21,76.3,20.7,76.6,20.3z M77.1,69.7
	c-0.5-0.1-0.5,0-0.6,0.5c-0.2,1-0.5,0.2-0.6,0.3c0.2-0.2,1.1-1,1.2-1.2c0.1-0.4,0.2-0.8,0.2-1.2c0.2,0,0.4-0.1,0.6-0.2
	c0.1-0.1,0-0.6,0.1-0.7c0.9-0.5,0.7-1.8,2.1-1.4C79.7,67.4,77.9,68.2,77.1,69.7z M79.7,50.5c0.2-0.3,0.1-0.5,0.5-0.5
	C80.3,50.1,79.7,50.5,79.7,50.5z M80.6,49.6c0.3-0.5,0.5-0.7,0.7-0.2C81.1,49.4,80.8,49.5,80.6,49.6z M82.2,65.2c-0.2,0-0.3,0-0.5,0
	c0.1-0.5,0.3-1,0.9-0.9C82.5,64.6,82.3,64.8,82.2,65.2z M85.5,45.6c-0.7,0.2-1.4,1.1-1.6,1.9c-0.5,0.1-1.4,0.4-1.5,0.8
	c-0.1,0.3-0.5,0.6-0.8,0.6c-0.3,0-0.3-0.2,0-0.2c0.3,0,0.8-1,1.1-1.4c0.5-0.5,2.5-2.5,3.1-2.4C85.7,45.1,85.6,45.3,85.5,45.6z
	 M82.9,37.4c0.5,0.1,0.2,0,0.5,0.2C82.9,37.5,83.2,37.7,82.9,37.4z M85.7,41.8C85.3,41.6,85.7,41,85.7,41.8L85.7,41.8z M85.7,24.1
	c0.3,0.9-1,1.4-1.4,2.1c-0.2,0-0.3,0-0.5,0c-0.1,0.3-0.2,0.6-0.4,0.9c-0.4,0.5-0.8,1-1.4,1.3c-0.1,0.1-0.4,0.8-0.5,0.9
	c-0.2,0-0.3,0-0.5,0c0,0.2-0.1,0.4-0.2,0.5c-0.4,0.4-0.5,0.2-0.8,0.9c-0.2,0.1-0.2,0.2-0.5,0.2c0.1-0.3,0.2-0.5,0.3-0.7
	c0.4-0.8,0.3,0,0.6-0.4c0.1-0.4,0.6-1.6,1.1-1.6c-0.1,0,0.7-1,0.9-1.1c0.1-0.1,0.9-1.1,0.9-1.1c0-0.3,0.2-0.4,0.6-0.5
	c0.7-0.4,0.6-0.4,0.8-1.1c0.2,0,0.3,0,0.5,0c0.4-0.5,0.8-0.9,1.2-1.4c0.1-0.4,0.3-0.5,0.6-0.5c0.6,0,0-0.2,0.2-0.5
	c0.4-0.1,0.7-0.3,0.9-0.5c-0.4,0.6-0.7,1-0.9,1.4c-0.5,0.4-0.5,0-0.7,0.7c-0.2,0.3-0.5-0.3-0.5,0.2C86.2,24.1,86,24.1,85.7,24.1z
	 M86.2,60.8C85.7,60.6,86.2,59.9,86.2,60.8L86.2,60.8z M88.3,39.7c-0.6,0.2-1,0.6-1.6,0.7c-0.3,0.2,0.2,0.6-0.5,0.5
	c0,0,1.3-2.2,1.2-2.1c0.3-0.5,0.9-1.3,1.4-1.4C88.5,38.2,88.3,38.9,88.3,39.7z M122.7,20.3c1.4-0.4,0.2,0.6-0.2,1
	c-0.4,0.3-1.2,0.3-1.2,0.7c0,0.3-0.6,0.6-1,0.8c-0.6,0.4-0.5,0.9-1.2,0.9c-0.4,0,0.1,0.4-0.6,0.5c-0.3,0-0.5,0.3-0.8,0.4
	c0.3-0.4,0.7-0.6,1-1c0.5-0.7,0.4,0,0.9-0.4C120.3,21.9,121.9,21.5,122.7,20.3z M121,51.2c0.2-0.3,0.1-0.5,0.5-0.5
	C121.7,50.8,121.1,51.2,121,51.2z M116.8,20.3c0.6,0.2,1.6-1.6,2.6-1.6c0.6,0-0.4,0.5-0.5,0.6c-0.5,0.4-0.9,0.9-1.6,1
	c0,0.2,0,0.3,0,0.5c-0.4,0.1-0.6,0.2-0.9,0.5c0,0-0.5,0.4-0.5,0.4c0,0.2-1.1,1.1-1.2,1.1c-0.5,0-0.7,0.8-1.2,0.9
	C114.3,22.2,116,21.7,116.8,20.3z M114.5,44.4c0.7,0.2,0.2-0.3,0.5-0.5c0.3-0.1,1.2-0.4,1.2-0.8c0,0.2,1.2-1.3,1.2-0.6
	c0,0.4-1.6,1.1-1.6,1.3c0,0.2-0.4,0.6-0.5,0.8c-0.2,0-0.3,0-0.5,0c-0.1,0.4-0.2,0.4-0.5,0.7c-0.2,0.2-0.9,0.6-1.2,0.9
	c0,0.2,0,0.3,0,0.5c-0.2,0.1-0.5,0.3-0.7,0.5c-0.2,0-0.3,0-0.5,0c-0.1,0.3,0,0.2-0.2,0.5c-0.1,0,0.1,0.3-0.2,0.2
	c-0.4,0,0.3-0.8,0.4-0.8c0.5-0.2,0.7-0.6,0.8-1C113.4,45.8,114.1,45.2,114.5,44.4z M114.2,27.3c0.2-0.3,0.4-0.5,0.7-0.7
	C115,27.1,114.7,27.3,114.2,27.3z M116.3,25.7C116.4,24.8,116.8,25.5,116.3,25.7L116.3,25.7z M106.8,24.3c0.5,0,1-1,1.6-1.2
	c0-0.2,0-0.3,0-0.5c0.2-0.1,0.5-0.1,0.6-0.3c0.1-0.3,0.8-0.9,1-1.1c0.2,0,0.3,0,0.5,0c0.2-0.2-0.2-0.1,0.4-0.5
	c0.3-0.2,1.3-1,1.3-1.2c-0.1-0.3,0.1-0.4,0.5-0.4c1.2-0.3,0-0.2,0.5-0.6c0.6-0.1,0.7-0.6,1.2-0.2c-0.3,0.5-0.9,0.8-1.3,1.3
	c-0.1,0.3-0.3,0.4-0.5,0.4c-0.6,0,0.1,0.3-0.2,0.5c-1,0.3-1.3,1-2,1.4c-0.5,0.4-3.9,3.5-4.1,2.8C106.8,25,106.3,24.3,106.8,24.3z
	 M111.4,25.5c-0.1,0-0.2,0-0.2,0c0.3-0.5,1.2-1.2,1.6-1.4C112.5,24.7,111.9,25,111.4,25.5z M112.8,28.3c-0.2,0.3-0.3,0.6-0.7,0.7
	C112.4,28.6,112.4,28.3,112.8,28.3z M111.2,29.7c0.2-0.3,0.1-0.5,0.5-0.5C111.9,29.3,111.3,29.7,111.2,29.7z M110.5,26.6
	c-0.5-0.1-0.2,0-0.5-0.2C110.5,26.6,110.2,26.4,110.5,26.6z M107.9,28.5c0.2-0.3,0.1-0.5,0.5-0.5C108.6,28.1,108,28.5,107.9,28.5z
	 M105.8,25.2c0.1,0,0.2,0,0.2,0c0.2,0.1-0.4,0.4-0.5,0.5C105.7,25.6,105.8,25.4,105.8,25.2z M90.2,35.8c0.3,0.1,0.2,0,0.5,0.2
	c-0.4,0.2-0.5,0.7-0.9,0.7C89.8,36.3,90,36.1,90.2,35.8z M104.7,51.7c-0.6,0-2.2,0.3-2.3-0.2c-0.3,0-0.7,0.2-1.1,0.2
	c-0.8,0-1.6,0-2.4,0c-0.4,0-1.6-0.4-2.3-0.5c-1.5-0.2-2.9-0.4-3.7-1.6c-0.4-0.3-0.3,0.3-0.7-0.4c-0.4-0.6-0.6-0.1-0.9-0.8
	c-0.6-0.5-1.3-0.9-1.5-1.6c-0.1-0.4-0.4-0.5-0.4-0.6c0-0.8-0.2-1-0.2-1.5c0-0.5,0.4-0.6,0-0.7c0.1-0.2,0.2-0.5,0.2-0.7
	c-0.4,0-0.1-1.4-0.2-1.9c0.1-0.1,0.3-0.5,0.3-0.5c0.3,0,0.2-1.2,0.2-1.4c0.1-0.8-0.1-1.2,0.6-1.6c0.6-0.4,1-0.5,1.2-1.2
	c0.1-0.1,0.7-0.6,0.7-0.9c0-0.7,0.7-0.7,0.7-1.2c0-0.9,1-1.3,1.6-2c0.8-1.2,1.5-1.3,2.9-1.8c0.1-0.1,0.4-0.4,0.5-0.5
	c0.1,0,0.9,0.3,0.9,0.5c0.4-0.1,0.8-0.2,1.2-0.2c0.1,0.5,3,0.2,3.7,0.2c0.4,0,1.8,0.9,1.9,0.2c1.2,0.2,2.2,0.3,3,0.7
	c0.1,0.1-0.1,0.2,0.1,0.3c0.3,0.1,0.6,0.1,0.9,0.2c0.3,0,1.1,0.6,1.1,0.6c0,0.3,1,0.3,1.2,0.4c0.1,0.2,0.1,0.5,0.3,0.6
	c0.8,0.2,0,0.2,0.4,0.6c0.3,0.1,0.7,0.2,0.8,0.5c0.6,1.5,0.4,3.1,0.2,4.6c-0.2,1.7-0.3,4-1.5,5.4C111.8,45,111,46,111,46
	c0,0.3-0.9,1.3-1.2,1.4c-0.2,0.4,0,0.9-0.7,0.9c-0.4,0-0.5,0.6-0.7,0.9c-0.3,0.3-0.3-0.2-0.7,0.4c-0.2,0.3-0.8,0.5-0.9,0.6
	c-0.6,0.2-0.7,0.1-0.9,0.7C105.2,51.1,105,51,104.7,51.7z M109.3,50c0.2-0.3,0.1-0.5,0.5-0.5C110,49.6,109.4,50,109.3,50z
	 M108.2,51.2c-0.1,0.6-1.8,1.4-2.3,1.6C106.2,52.3,107.5,51,108.2,51.2z M107.5,56.3c-1,0.3-1.3,1.4-2.3,1.6
	c0.4-0.5,0.8-0.9,1.2-1.4c0.2-0.3,0.5-0.6,0.9-0.7c0-0.2,0-0.3,0-0.5c0.3-0.2,0.9-0.9,1.2-0.9c0.7,0,0.4-1.2,1.2-1.2
	c0.4,0,0.5-0.4,0.7-0.7c0.3-0.2,0.4,0.1,0.7-0.2c0.4-0.5,0.8-1.3,1.5-1.2c-0.2,0.4-0.3,0.9-0.7,0.9c-0.5,0-0.3,0.7-0.9,0.6
	c-0.2,0-0.8,1-1,1.1c-0.5,0.3-0.6,1-1.2,1.2c-0.5,0.1-0.6,0.4-0.7,0.9C107.7,56.1,107.3,55.6,107.5,56.3z M115.4,57.3
	c-0.6-0.2-0.7,0.8-1.4,0.9c-0.3,0.2,0.4,0.5-0.2,0.5c-0.4,0-0.2,0.2-0.2,0.5c0,0.3-0.4,0.3-0.7,0.4c-0.4,0.5-0.8,1.1-1.2,1.6
	c-0.2,0.3-0.5-0.4-0.5,0.2c0,0.4-0.5,0.4-0.8,0.7c-0.5,0.4-0.4,0.2-0.4,0.8c0,0.4-0.4,0.3-0.7,0.4c-0.1,0.1-0.7,0.7-0.7,0.6
	c0,0.2-0.8,1.2-0.9,0.8c0-0.1,1.2-1.6,1.2-1.6c0.2,0,1.3-1.3,1.5-1.6c0.4-0.8,0.4-0.1,0.7-0.5c0.1-0.4,0.2-0.8,0.5-1
	c1.3-0.9,1.9-1.8,2.8-3.1c0.8-1.1,0.3-0.1,0.9-0.5c0.4-0.4-0.5-0.2,0.4-0.6c0.4-0.1,0.4-0.5,0.5-0.8c0.4-0.1,0.8-0.3,1.2-0.7
	c0.6-0.6,1-1.2,1.9-1.4c0.2-0.5,0.9-1.3,1.4-1.4c-0.5,0.9-1.5,1.8-2.1,2.3c-0.3,0.2-0.7,0.3-0.7,0.7c0,0.3-0.6,0.6-0.8,0.9
	c-0.3,0.5-0.7,0.9-1.1,1.4C115.7,57,115.2,56.6,115.4,57.3z M128.3,48.8c0.2,0.7-0.3,0.2-0.5,0.5c0,0.2,0,0.3,0,0.5
	c-0.3,0.1-0.6,0.2-0.8,0.4c-0.3,0.3-0.3,0.5-0.6,0.5c-0.6,0-0.3,0.9-0.9,0.9c-0.2,0-0.8,0.8-0.9,0.9c-0.1,0.1-0.1,0.3-0.2,0.5
	c-0.4,0.6-0.8,0.3-1.1,0.9c-0.5,1-1.7,1.4-2.4,2.3c-0.5,0.6-1,0.5-1.3,1.3c-0.2,0.4-0.5,0.5-0.9,0.7c-0.5,0.3-0.3,0.7-0.7,1
	c-0.3,0.3-0.6,0.2-0.8,0.3c-0.3,0.4-0.9,1.7-1.4,1.6c0.7-1.6,2.1-2.8,3.3-4c0.5-0.5,0.9-1,1.3-1.6c0.2,0,0.3,0,0.5,0
	c0.3-0.5,0.4-0.7,0.9-0.9c0.3-0.3,0-0.5,0.7-0.7c0.4-0.5,1.5-2.1,2.1-2.1c0.4,0,0.7-0.3,0.7-0.7c0-0.2,1.1-1.1,1.4-1.4
	c0.2,0,0.3,0,0.5,0c0-0.2,0-0.3,0-0.5c0.5-0.1,0.9-0.6,1.3-0.9c0.3-0.3,2-2.5,2.4-2.1C131,46.4,128.8,49,128.3,48.8z M54.9,25
	C54.9,25,54.9,25,54.9,25C54.9,25,54.9,25,54.9,25z M90.2,35.8C90.6,35.9,89.9,36.2,90.2,35.8L90.2,35.8z M85.5,45.6
	C85.3,45.7,85.6,45.3,85.5,45.6L85.5,45.6z M54.9,25c0,0,0.1-0.1,0.1-0.1C55,24.8,55.1,24.7,54.9,25z M109.3,50
	C109.4,49.9,109.4,50,109.3,50L109.3,50z M146.5,12.4c1.2,0,2,0.3,3,0.2c0,0-0.1-0.2,0.1-0.2c0.3,0,0,0.2,0.2,0.2c0.4,0,0.8,0,1.2,0
	c0.3,0,0,0.2,0.2,0.2c1.3,0,2.2,0.2,3.3,0.2c0.7,0,0.5,0.2,1.2,0.2c0.5,0-0.3,0.4,0.6,0.3c0.7-0.1,0.7-0.4,1.4,0c0-0.1,0-0.2,0-0.2
	c0.5,0.1,0.9,0.2,1.4,0.2c0.1-0.7,1.2,0,1.2,0c0.4,0,1-0.5,1.5-0.6c0.9-0.2,2.4-0.2,2.5-1.1c0.1-0.6,0.3-1,0.4-1.6
	c0.2-0.9-0.4-1.9-0.2-2.8c0.8-0.5,0.8-0.9,0.9-1.9c0,0,0.4-0.5,0.4-0.5c0.2,0,0.3-1.4,0.3-1.6c0,0,1-1.6,0.8-1.6
	c0.6,0-0.8-0.3-0.9-0.3c-0.6,0-1.5,0.1-1.8-0.4c-0.3,0-1.9,0.7-2.1,0c-1.2,0.1-2.3,0.2-3.5,0.2c-0.1-0.7-2.8,0.2-2.8-0.6
	c0-0.5-3.2,0.4-3.3-0.4c-0.3-0.1-1.1,0.2-1.6,0.2c-0.5,0-1.4-0.2-1.5,0.2c-0.3-0.1-0.6-0.2-0.9-0.2c-0.1,0.6-0.5,5.6-0.8,5.6
	c-0.2,0-0.4,1.6,0.1,1.6c-0.3,0.9-0.5,2-1,2.7c-0.2,0.3-0.6,0.2-0.7,0.3C146.2,11.5,145.7,12.2,146.5,12.4z M164.5,2.6
	c0.6,0.2,0.8,0.2,0.5,0.8c-0.1,0.3-0.1,1-0.3,1C164.4,4.4,164.5,2.9,164.5,2.6z M163.3,8.4c0,0-1.5,1.7-1.6,0.7
	C162.3,9,162.7,8.6,163.3,8.4z M224,13.8c2.4,0,4.7,0.1,7.1,0c2.1-0.1,4.2-0.8,6.3-0.6c0.3,0,1.7-0.1,1.7-0.5c0-0.6,0-1.1,0-1.7
	c0,0.1,0.2-0.7,0.2-0.8c0-0.1,0.2,0.1,0.2-0.1c0-0.3,0-0.6,0-0.9c0-1.1,0.4-1.3,0.5-2.3c0.1-0.5,0.4-2.6,1.1-2.8
	c-0.2-0.7,0.4-1,0.4-1.8c0-0.4,1.2-2.5,0.2-2.5c-0.9,0-1.6,0.4-2.6,0.3c-0.6,0-3-0.5-3.1,0.1c-0.3-0.2-1.1-0.5-1.2,0
	c-0.4,0.1-0.2-0.2-0.5-0.2c-0.8-0.2-0.4,0.4-1.2,0c-0.2,0.5-1.9,0-1.9,0.4c0,0-1.7,0.3-1.9,0.4c-0.2,0.1-0.5,0.4-1,0.4
	c-0.9,0-1.7-0.1-2.6-0.2c-1.2-0.2-1.8,0.1-3.2-0.1c-0.4,1-0.5,1.8-0.5,2.9c0,0.6-0.5,1.1-0.2,1.7c-0.1,0.1-0.5,0.5-0.5,0.6
	c0,0.3,0.1,1.5-0.1,1.5c-0.3,0,0.1,2.9-0.4,2.7c0.5,0.3,0,0.2,0,0.3c0,0.5-0.2,0.8-0.2,0.9C219.6,13.6,222.7,13.8,224,13.8z
	 M234.1,2.3c-0.5-0.1-0.2,0-0.5-0.2C234.1,2.2,233.9,2.1,234.1,2.3z M224.1,11c0.3,0.1,0.2,0,0.5,0.2c-0.1,0-0.2,0-0.2,0
	c0,0.1,0,0.2,0,0.2c-0.1,0-0.5,0-0.6-0.1C223.9,11.5,224.1,11,224.1,11z M287,17.3c-0.4-0.1-0.2-0.5-0.2-0.9
	c-0.5-0.1-0.8-0.4-1.4-0.3c-0.4,0.1-1,0.6-1.4,0.5c0-0.1,0-0.2,0-0.2c-0.6,0.1-1.2,0.2-1.9,0.2c0,0,0,0.3-0.2,0.2
	c0.1,0-1.1-0.4-1.3-0.4c-0.8,0-1.6,0.1-2.3,0c-0.9,0-2.9,0-3.6-0.6c-0.2-0.3,0.3-2.4-0.2-2.2c0.4-0.1,0.1-0.4,0-0.8
	c0.5-0.1-0.1-0.6,0.5-0.7c-0.1-0.2-0.2-0.5-0.2-0.7c0.2,0,0.7-2.9,0.7-3.3c-0.2,0-0.2-1.3,0.2-1.4c-0.3-0.7,0.3-0.8,0.5-1.2
	c0.2-0.4,0.1-0.8,0.1-1.3c0-0.7,0.4-1,0.3-1.6c-0.1-0.7-0.4-1.6-1.2-1.5c-0.7,0.2-1.3,0.4-2,0.4c-0.8,0-4.8-0.4-4.9,0.2
	c-0.5,0.1-0.5-0.3-0.9-0.2c0,0.1,0,0.2,0,0.2c-0.8-0.1-1.6-0.2-2.3-0.2c-0.1,0.5-2,0.2-2.6,0.2c-1.6,0-2.9,0.3-4.7,0.5
	c-0.3,0.3-0.4,1.4,0.1,1.4c0.5,0,0,1.5-0.1,1.8c-0.3,1.2-0.6,2.1-0.8,3.4c-0.2,1.9-1.2,3.6-1.4,5.5c-0.5,3.3-2.2,2.5-4.8,2.6
	c-1.1,0-1.2,0.7-2.3,0.9c-1.5,0.2-2.8-0.3-4.3-0.3c-0.7,0-1,2.5-1.1,3c0,0.1-0.2-0.2-0.2,0.1c0,0.2,0.1,0.6,0,0.8c0,0-0.7,0.9-0.7,1
	c-0.2,1.1-0.3,1.4-0.4,2.5c0,0-0.2,0.3-0.2,0.6c0,0.8,0,1.5,0,2.3c0,0.2,0.1,0.9-0.1,0.9c0,0-0.5,0.7-0.5,0.8
	c-0.1,0.5-0.4,0.4-0.2,0.9c0.2,0.6,0.8,0.4,1.3,0.4c1.3,0.1,2,0.4,3.2,0.4c1.6,0.1,3.3,0.1,4.9,0.2c-0.2,1.5-0.8,2.8-1,4.1
	c-0.2,1.1-0.3,2.2-0.4,3.3c-0.2,1.8-1.2,3.6-1.2,5.4c0,0.4-0.4,2.3-0.8,2.3c0,0-0.4,0.8-0.4,0.7c0,0.6-0.1,1.2-0.1,1.8
	c0,0.4-0.1,0.8-0.1,1.2c-0.1,0-0.2,0-0.2,0c-0.2,1.7-0.4,3.9-0.3,5.8c0,1.5,0.1,3.2,0.8,4.5c0.3,0.7,0.7,0.5,1.2,0.8
	c0.6,0.7,1.6,2.3,2.5,2.3c1,0,1.4,0.7,2.4,0.7c0.5,0,0.4-0.1,0.6,0.5c0.3,0.7,0.7,0.5,1.4,0.6c0.7,0.1,1,0.3,1.5,0.3
	c3.5,0,6.9,0,10.4,0c1.1,0,2.1,0.5,3.3,0.5c1.3,0,2.6,0,3.9,0c0.1,0,0.2,0,0.2,0c0.5-0.7,0.7-0.8,1.6-0.9c0.8-0.2,1.1,0,1.3-0.8
	c0.2-0.7,0.7-1.1,0.3-1.8c0.1,0,0.2-0.5,0.2-0.9c0-0.7,0-1.4,0-2c0-0.3,0.5-0.1,0.5-0.5c0-0.8,0.6-0.5,0.2-1.2
	c0.6,0.1,0.3-5.5,0.9-5.4c0-0.5,0-1.1-0.3-1.6c-0.4-0.9-1.8,0.4-1.7,0.4c-0.7-0.9-1.8,0.2-2.4,0.2c-0.4,0-2.7,0.8-2.8,0
	c-0.2,0.1-0.5,0.2-0.7,0.2c0.1-0.5-1.6-0.3-2-0.4c-0.4,0-0.9-0.1-1.3-0.1c-0.1-0.4-0.2-0.6-0.5-0.9c-0.1,0-0.2,0-0.2,0
	c-0.1-0.2,0.1-0.5,0-0.7c-0.1-0.1-0.3-0.3-0.3-0.8c0-0.5-0.1-1-0.1-1.6c0-0.2,0.2-0.6,0.2-0.5c0-0.3-0.3-0.9-0.2-1.6
	c0.1-1,0.1-1.9,0.2-2.9c0.1-0.7,0.9-1.3,1.1-1.9c0.3-0.8,0.2-1.9,0.3-2.7c0.1-0.7,0.2-1.4,0.2-2.1c0,0,0.3-0.1,0.4-0.5
	c0.1-0.5,0.3-0.9,0.3-1.4c-0.5-0.1,0-0.1,0-0.2c0.3-0.7,0.5-2.7,1.3-2.9c0.4-0.1,0.1-0.6,0.6-0.6c0.5,0,1.1,0,1.6,0c2,0,3.9,0,5.9,0
	c0.9,0,1.7,0,2.6-0.2c0.1,0,0.5-0.3,0.9-0.2c0.7,0,1.3,0.1,2.1,0c0.5-1.4,0.7-1.7,0.7-3.2c0-0.9,0.4-2,0.5-3
	c0.1-0.9,0.8-2.4,0.4-3.2C286.3,20.8,286.9,17.8,287,17.3z M243.3,25.2C242.8,25,243.2,24.4,243.3,25.2L243.3,25.2z M244,29.7
	c0.5,0.1,0.2,0,0.5,0.2C244,29.8,244.2,29.9,244,29.7z M250,42.5c-0.4,0.2-0.5,0.7-0.9,0.7c0.2-0.4,0.4-1.6,0.7-1.6
	C250.2,41.6,250,42.2,250,42.5z M252.6,34.6c0.3-0.3,0.4-0.3,0.5,0.2C252.7,34.7,252.8,34.8,252.6,34.6z M259.4,27.8
	c0.2-0.4,0.2-0.2,0.2,0.2c-0.3-0.1-0.2,0-0.5-0.2C259.2,27.8,259.3,27.8,259.4,27.8z M258.5,49.8c0.2-0.4,0.7-0.5,0.7-0.9
	C259.9,49.2,258.8,49.6,258.5,49.8z M258.2,9.1C259.2,9.3,258,10,258.2,9.1L258.2,9.1z M253.8,55.4
	C253.3,55.2,253.8,54.5,253.8,55.4L253.8,55.4z M253.8,33.9c-0.3,0.6-0.5-0.7,0.2-0.5C253.9,33.8,254,33.7,253.8,33.9z M255.6,53.3
	c-0.7-0.1-0.5,0.6-0.9,0.7c0.1-0.6,0.9-1.5,1.4-1.6C256,52.7,255.8,52.9,255.6,53.3z M256.6,51.9c0.2-0.3,0.1-0.5,0.5-0.5
	C257.2,51.5,256.6,51.9,256.6,51.9z M257.8,50.7c-0.2,0.4-0.2,0.2-0.2-0.2c0.3,0.1,0.2,0,0.5,0.2C257.9,50.7,257.8,50.7,257.8,50.7z
	 M257.3,30.4c-0.4,0.4-1.1,1.2-1.6,1.9c-0.2,0-0.3,0-0.5,0c-0.1,0.2-0.2,0.5-0.2,0.7c-0.2,0.1-0.2,0.2-0.5,0.2
	c0.1-0.5,0.8-1.6,1.3-1.7c0.3-0.1,0.3-0.4,0.3-0.6c0.5-0.1,0.8-0.3,1-0.8c0.2-0.4,1.4-1.7,1.8-1.5C258.7,29.3,257.9,29.6,257.3,30.4
	z M259.6,54.7c-0.2,0.1-1.2,0.8-1.2,0.3c0-0.2,0.8-0.7,1.2-0.8C259.6,54.4,259.6,54.5,259.6,54.7z M263.6,50.5
	c-0.4-0.1-2.1,1.6-2.1,1.9c0,0.1-0.6,0.4-0.8,0.8c-0.3,0.5-0.5,1.1-1.3,0.9c0.2-0.4,0.6-1.4,1.2-1.4c0.3,0,0.5-0.2,0.7-0.5
	c0-0.2,0-0.3,0-0.5c0.4,0,0.5-0.2,0.5-0.5c0-0.3,0.9-0.7,1.1-1c0.3-0.4,0.5-0.7,0.8-1.1c0.2,0,0.3,0,0.5,0c0.2-0.7,0.9-1.5,1.4-1.6
	C265.3,48.8,263.9,49.2,263.6,50.5z M267.8,32c-0.4,0.4-0.9,0.7-1.4,1c0,0.2,0,0.3,0,0.5c0,0.3-0.4,0.4-0.7,0.5
	c-0.4,0.2-0.4,0.6-0.7,0.6c-0.2-0.1-0.3,0-0.2,0.2c0,0.6-0.2,0-0.5,0.2c-0.3,0.3-0.9,0.8-1.2,1.2c-0.3,0.1-0.7-0.2-0.4-0.2
	c0.1,0,0.6-0.4,0.8-0.5c0-0.2,0-0.3,0-0.5c0.3-0.1,0.7-0.2,0.8-0.5c0.2-0.6,0.5-0.7,1.1-0.9c0.3-0.3,0-0.6,0.7-0.8
	c0.5-0.2,0.4-0.7,0.9-1c0.7-0.3,0.7-1.1,1.4-1.4c0.3-0.1,1.3-1.8,1.5-1C269.4,29.5,268.3,31.5,267.8,32z M273.4,6.5
	c0.1,0,0.2,0,0.2,0c-0.3,0.5-0.2,0.7,0,1.2c-0.4,0.1-0.8,0.3-1.2,0.5c-0.1-0.2-0.1-0.1-0.2-0.2C272.4,7.2,273,7.1,273.4,6.5z
	 M273.2,26.9c-0.4-0.1-1.3,1.1-1.6,1.6c-0.5,0.6-1,0.4-1.4,0.8c0.2-0.7,1.3-2.3,2.1-2.3c0.2,0,0.9-1,0.9-1.2c0-0.6,0.5,0.1,0.7,0.2
	C273.6,26.3,273.4,26.6,273.2,26.9z M67,65.4C67.1,65.3,67,65.4,67,65.4L67,65.4z M88.3,39.7C87.6,39.9,88.3,38.7,88.3,39.7
	L88.3,39.7z M79.7,50.5C79.7,50.3,79.7,50.5,79.7,50.5L79.7,50.5z M107.9,28.5C108,28.4,108,28.5,107.9,28.5L107.9,28.5z M27.1,23.8
	C27,23.9,26.9,24,26.8,24C26.8,24.1,27.1,23.7,27.1,23.8z M238.4,18.3c-0.1-0.5,0.5-0.6,0.3-1.3c-0.3-0.9-1-0.5-1.8-0.4
	c-0.4-0.4-0.6-0.5-1.5-0.5c-0.5,0-1,0.3-1.6,0.3c-0.8,0-1.6-0.2-2.3-0.1c-0.3,0-1.2,0.5-1.4,0.5c-0.5,0-1.9-0.3-2,0.2
	c-0.7-0.1-1-0.3-1.6,0c-0.1-0.8-2.5,0.3-2.6-0.5c-0.3,0.1-0.6,0.2-0.9,0.2c0-0.4-1.6-0.4-1.6,0c-0.2,0-0.3,0-0.4-0.2
	c-0.1-0.2-1.3,0.1-1.4,0.2c-0.4,0.9-1.1,1.9-0.7,2.8c-0.3,0-0.6,1.9-0.7,1.8c0.1,0,0.2,0,0.2,0.1c0,0.7-0.7,1.9-0.7,2.5
	c0,0.2-0.3,1.2-0.3,1.2c-0.5,0-0.2,4.7-0.7,4.7c-0.6,0-0.7,4.4-1.2,4.4c-0.6,0-0.8,3-0.8,3.5c-0.8,0.4-0.5,1.3-0.6,2.1
	c0,0.4-0.1,0.8-0.1,1.2c0.1,0.2,0.3,0,0.2,0.5c-0.4,0.2-0.3,0.6-0.4,1.1c0.1,0.5-0.1,0.7-0.5,0.8c0.1,0.3,0.2,0.6,0.2,0.9
	c-0.2,0.2-0.2-0.4-0.2,0.2c0.1,0.3-0.1,0.5-0.5,0.5c0.1,0.5,0.2,0.9,0.2,1.4c-0.7,0-0.1,1.6-0.6,1.6c0.1,0-0.6,2.2-0.6,2.4
	c0,0.2-0.2,0.2-0.2,0.7c0,0.3-0.3,1-0.3,1.6c-0.1,0.9,0.2,2.6-0.6,3c-0.1,0.5,0,1.1-0.1,1.5c-0.1,0.5,0.2,4.1-0.3,4.1
	c-0.3,0-0.3,1.6-0.5,1.6c0,0-0.5,1.8-0.8,2.1c0.1,0.8,0.2,0.9,0.9,1.2c0.5-0.6,0.5-0.9,1.3-1c0.6-0.1,1.2-0.1,1.8-0.2
	c0,0.1,0,0.2,0,0.2c0.1,0,0.5-0.6,0.7-0.1c0.1,0.2,0.8,0.1,1,0.1c0.5,0,2.3-0.3,2.3,0.2c0.4,0.1,0.5-0.4,0.9-0.2
	c0.1,0.6,1.7,0.1,2.1,0c0,0.7,1.6,0,1.9,0c0,0.1,0,0.2,0,0.2c0.5,0,0.6-0.3,1.1,0c0.5,0.2,0.3-0.3,0.8-0.2c0.2,0,0.3,0.3,0.7,0.2
	c0.1-0.4,2-0.4,2.1,0c0.5-0.2,1.8-0.4,2-1c0.1-0.3,0-0.6,0.4-0.6c0.1-0.3-0.2-0.8-0.2-1.2c0-0.5,0-1.1,0-1.6c0-0.2,0.2-0.6,0.2-0.5
	c0-0.4-0.3-0.8-0.2-1.2c0.6-0.1,0-4.4,0.8-4.4c0.2,0,0.4-1.2,0.4-1.5c0,0,0.9-2.3,1.1-2.3c0.2,0,0.2-0.5,0.2-0.7
	c0.1-0.4,0.6-1,0.6-1.1c0-0.2-0.1-0.8,0.1-0.8c-0.1,0,0.4-0.5,0.4-0.5c0.2-0.6,0.1-1.1,0.2-1.6c0-0.1,0.2-0.3,0.2-0.8
	c0-0.5,0.2-0.3,0.2-0.6c0-0.6,0.2-0.3,0.2-0.5c0-0.1,0.3-0.8,0.2-0.7c0-0.3,0-0.7,0-1c0-0.5,0.2-0.5,0.2-0.6
	c0.1-0.3,0.1-0.3,0.2-0.5c0,0,0.3-0.9,0.2-0.7c0.1-0.8,0-1.8,0-2.6c0-1.3,0.6-2.9,0.9-4.3c0.2-1.3,0.4-2.4,0.5-3.7
	c0-0.1,0.2,0,0.2-0.4c0-0.4,0.2-0.8,0.2-0.8c0.1-0.7,0.2-1.8,0-2.1c0.5,0,0.2-1.1,0.2-1.5c0-0.3,0.7-1,0.7-1.5c0-1,0.7-1.7,0.7-2.9
	c0-0.8,0.5-2,0.7-2.7C238.1,18.9,238.5,18.7,238.4,18.3z M212.4,53.8c0.1-0.5,0.8-1.6,0.9-0.7C213,53.3,212.8,53.7,212.4,53.8z
	 M217.3,64c-0.5,0-1.1,0-1.6,0c0.3-0.5,0.6-1,1.2-1.2c0-0.2,0-0.3,0-0.5c0.3-0.1,0.6-0.2,0.9-0.2c0.2-0.1-0.2-0.6,0.5-0.5
	C217.8,62.5,217.4,63.1,217.3,64z M233.4,27.6c0.4,0.1,0.4,0.4-0.1,0.6c-0.3,0-0.4,0.1-0.3,0.3c0,0.6-0.2,0-0.5,0.2
	c-0.1,0.5-1,1.3-1.4,1.4C231.9,29.3,232.7,28.4,233.4,27.6z M229.2,18.7c0.2-0.4,0.2-0.2,0.2,0.2c-0.3-0.1-0.2,0-0.5-0.2
	C229.1,18.7,229.2,18.7,229.2,18.7z M233.9,31.8c-0.5,0.4-1,1.1-1.5,1.3c-0.8,0.3,0,0.2-0.4,0.6c-0.2,0.3-0.5-0.3-0.5,0.2
	c0,0.3-1.6,1.3-1.9,1.9c-0.2,0.3-0.5-0.4-0.5,0.2c0,0.3-0.8,0.6-1.1,0.9c-0.2,0.2-0.6,0.9-0.9,0.9c-0.3,0,0,0.3-0.1,0.5
	c-0.4,0.1-0.6,0.3-1,0.5c-0.6,0.3-0.6,0.8-1.1,1.1c-0.5,0.3-4,3.7-4.2,3.5c-0.1-0.1,2.5-2.4,2.8-2.7c0.6-0.5,0.7-1.1,1.5-1.4
	c0.5-0.2,0.3-1.1,1.1-1.1c0.7,0,1.9-1.8,2.4-2.3c0.7-0.7,0.5-0.1,0.9-0.5c0.4-0.7,1-1.1,1.6-1.6c0.4-0.3-0.4-0.3,0.4-0.6
	c0.6-0.2,0.9-0.7,1.3-1.2C233,31.8,234.3,30.3,233.9,31.8z M234.1,27.6c-0.1,0-0.2,0-0.2,0c0.1-0.5,0.3-0.8,0.7-0.9
	C234.5,27,234.3,27.2,234.1,27.6z M121,51.2C121.1,51,121,51.2,121,51.2L121,51.2z M151.6,28.8c-0.1,0-0.1,0.1-0.2,0.1
	C151.6,28.8,151.6,28.8,151.6,28.8z M20.1,29.2C19.5,29.7,20.2,28.9,20.1,29.2L20.1,29.2z M202.8,32.4c0,0.5,1.2-0.1,1.4-0.1
	c0.1,0.6,1.6,0.2,1.6,0.2c0.1,0-0.1,0.2,0.1,0.2c0.3,0,0.7,0,1,0c0.5,0,1.4,0.2,1.5-0.2c0.1,0,0.6,0.2,0.7,0.2c0-0.1,0-0.2,0-0.2
	c1.4,0.3,1.6-0.5,1.6-1.6c0-0.2-0.1-1.2,0.1-1.2c0,0,0.4-0.9,0.4-0.8c0-0.8,0.1-1.7,0.2-2.7c0-0.1,0.2,0.1,0.2-0.1
	c0-0.3,0-0.6,0-0.9c0-0.2,0.5-0.2,0-0.4c0.1-1.3,0.5-2,0.5-3.1c0-0.4,0.5-0.9,0.5-1.2c0-0.7,0.5-0.8,0.5-1.5c0-0.2,0.4-0.7,0.5-1.1
	c0.1,0,0.2,0,0.2,0c0.1-0.6,0.2-1.2,0.2-1.9c-0.5-0.1,0.3-1.6-0.2-1.6c0.4-1.5-0.3-1.4-1.6-1.3c-0.7,0-1.4,0.1-2.1,0.1
	c-1.3,0.1-0.2,0.1-1.2,0.4c-1.1,0.3-0.1,0.2-0.5,0.4c-0.2,0.1-1,0.5-0.9,0.5c-0.4,0.1-1,0.2-1.2,0.2c-0.1,0-0.9,0.4-0.9,0.4
	c0,0.5-3.5,0.2-3.5,0.7c0,0.2-0.8,0.4-1,0.4c-0.2,0-0.5,0.4-0.6,0.5c-0.2,0.1-0.5-0.1-0.7,0c-0.3,0.6-0.5,0.5-1.2,0.7
	c-0.5,1-0.2,0-0.7,0.5c-0.5,0.7-0.7,0.8-1.6,0.9c-0.3,0.6-0.5,0.5-1.2,0.7c-0.4,0.6-0.5,0.7-1.2,0.9c-0.3,0.5-0.6,1.1-0.9,1.6
	c-0.2,0-0.3,0-0.5,0c0,0.2,0,0.3,0,0.5c-0.2,0.1-0.2,0.1-0.4,0.2c-0.4,0.3-0.2,0.3-0.6,0.7c-0.1,0.1-0.5,0.5-0.5,0.5
	c-0.2,0.3,0,0.4-0.3,0.8c-0.3,0.3-0.2,0.5-0.5,0.8c-0.5,0.3-0.6,0.5-0.8,1c-0.1,0.5,0,0.9-0.4,1.1c0.1,0.2,0,0.6,0,0.8
	c-0.2,0.1-0.6,0.6-0.6,1c0,0.5-0.3,0.8-0.8,1.3c-0.8,0.7-2,5-2.5,5.9c0.5-2.9,2-8.6,2.6-11.5c0.3-1.9,1-3.2,1.1-5.3
	c0-0.8,1.1-2.3,0.9-2.7c-0.5-1-2.6-0.4-3.6-0.3c-0.1-0.6-0.8,0.1-0.9-0.5c-0.3-0.1-1.6,0.6-1.6,0.1c0-0.3-0.2,0-0.2,0.1
	c-0.2-0.1-0.5-0.2-0.7-0.2c-0.1,0.6-0.9,0-0.9,0c-0.3,0-0.6,0.2-1.2,0.2c-0.7,0-1.4,0-2,0c0,0,0-0.2-0.2-0.2c0,0.1,0,0.2,0,0.2
	c-0.7,0-1.3,0.1-2,0.1c-1.8,0.1-3.5,0.2-5.3,0.3c-0.1,0.2-0.3,0.9-0.6,0.9c-0.2,0-0.1,0.8-0.1,1c0,0.3-0.5,0.5-0.5,1
	c0,0.6-0.4,0.9,0,1c0,0.9-0.5-0.1,0,0.9c-0.1,0-0.2,0-0.2,0c0,0.4,0.4,0.4,0.2,0.9c0-0.1-0.2,0.3-0.2,0.5c0,0.4-0.5,0.3-0.5,0.9
	c0,0.4,0.1,0.4-0.2,0.5c-0.1,0.5,0.2,0.6,0,1.2c0.3,0.4,0,0.3,0,0.5c-0.1,0.8-0.2,0.9-0.2,1.7c0,0.3-0.7,2.2-0.9,2.2
	c0.1,0.2,0.2,0.5,0.2,0.7c-0.7,0.1,0,1.3-0.7,1.4c0.4,0.7,0.1,1.5,0,2.3c-0.1,0.4-0.1,0.8-0.2,1.2c0,0.2-0.2-0.2-0.2,0.2
	c0,0.6-0.2,0.6-0.7,1c-0.1,0.6,0,1.4-0.5,1.6c0.1,0.5,0.2,0.9,0.2,1.4c-0.8,0,0.1,1.9,0,2.3c-0.4,0.1-0.3,2.1-0.2,2.3
	c-0.1,0-0.2,0-0.2,0c0.1,0.3,0.2,0.6,0.2,0.9c-0.1,0-0.2,0-0.2,0c0.1,0.4,0.2,0.8,0.2,1.2c-0.7-0.1-0.1,2.6-0.6,2.6
	c0.1,0-0.4,0.8-0.4,0.8c-0.1,0.6-0.5,2.2-0.6,2.2c-0.1,0-0.8,4-0.8,4.8c0,0.4-0.2,0.4-0.2,1.1c0,0.5-0.9,0.8-1,1.5
	c-0.1,0.9-0.2,1.7-0.4,2.6c-0.1,0.6-0.2,1.3-0.3,1.9c0.7,0.1,1.5,0.2,2.2,0.1c0.7-0.1,1.4-0.1,2.1-0.1c0.8,0,6.4-0.5,6.4,0
	c0.2-0.1,0.5-0.2,0.7-0.2c0.1,0.6,2.1-0.1,2.1,0.3c0,0.4,3.6,0.8,4.2,0.8c0.8-0.1,1.2-0.3,1.2-1c0-0.3,0-0.6,0-0.9
	c0-0.3,0.2,0,0.2-0.1c0.4-1.1,0.7-2.9,0.7-4c0-0.4,0.3-1.5,0.4-2.1c0-0.2,0-1.3,0.2-1.3c0.2,0,0.1-0.1,0.2-0.3
	c0.1-0.9,0.7-1.7,0.7-2.2c0-0.6,0.3-1.3,0.5-1.9c0-0.2,0.2,0.2,0.2-0.1c0-0.2-0.1-0.6,0-0.8c0-0.1,0.5-0.5,0.5-0.6
	c0-1.7,0.5-3.8,0.7-5.7c0,0,0.5-0.5,0.5-0.5c0.1-0.2,0-0.6,0-0.8c0-0.4,0.9-0.7,1.1-1.3c0.2-0.7,0.5-0.5,0.7-1.3
	c0.2-0.6,0.1-1.1,0.7-1.5c0.4-0.3,0.8-0.5,1.1-0.9c0.5-0.4,0.2,0.5,0.7-0.5c0.5-0.3,0.3,0.3,0.7-0.4c0.7-1,2.1-0.7,2.8-1.8
	c0.4-0.3,0.3,0.3,0.7-0.3c0.4-0.7,0.2-0.1,0.7-0.4c0.2-0.4,0.7-0.7,1.2-0.8c0.5-0.1,1.8-0.8,2.2-0.8c0.4,0,0.8-0.2,0.9-0.2
	c0.3,0,0.6,0,0.9,0c0.3,0,0-0.2,0.1-0.2c0.4-0.1,0.1,0.3,0.5,0.2c0.1,0-0.1-0.2,0.1-0.2c0.4,0,0.8,0,1.2,0c0.5,0,0.2-0.2,0.4-0.2
	c0.2,0,0,0.2,0.5,0.2C202,32.3,202.8,32.1,202.8,32.4z M203.5,17.3c-0.8,0.5-1,1.2-1.4,0C202.5,17.2,203.4,16.7,203.5,17.3z
	 M163.3,60.5c0.2-0.9,0.7-1.2,0.2-0.5C163.5,60.4,163.7,60.6,163.3,60.5z M164.5,56.8c-0.1,0.2,0.1,0.3-0.2,0.2
	c0.2-0.5,0.4-1.3,0.9-1.4C165.1,56.1,164.9,56.5,164.5,56.8z M173.6,30.6c0.4,0.1,0.6-0.5,1-0.8c0.3-0.2,0.5-0.4,0.7-0.7
	c0.3-0.6,0.8-0.5,1.2-1.1c0.2-0.3,0.2-0.8,0.5-0.8c0.7,0,0.3-0.1,0.7-0.5c0.2-0.1,0.3-0.2,0.5-0.2c0.1-0.3,0.2-0.6,0.5-0.8
	c0.3-0.3,0.8-1,1.2-1c0.1,0,1.5-1.5,1.8-1.9c1-1,2-2,2.9-3c0.6-0.7,1.2-1.6,2.2-1.9c0.1,0-0.1-0.3,0.2-0.2c-0.1,0,0.3,0.2,0.5,0.2
	c-0.3,0.6-0.5,1.2-0.5,1.9c-0.2,0.2-1,0.2-1.3,0.2c-0.2,0-0.7,0.8-1,0.9c-0.3,0.1-0.5,0.2-0.8,0.3c-0.1,0.1,0.1,0.6,0,0.7
	c-0.5,0.1-0.6,0.2-0.7,0.7c-0.8,0.2-1.2,0.9-1.9,1.2c-0.6,0.3-0.9,0.9-1.4,1.5c-0.1,0.3-0.2,0.4-0.5,0.3c-0.4,0-0.2,0.3-0.5,0.5
	c-0.6,0.5-1.1,1.1-1.9,1.6c-0.2,0.1-0.4,0.3-0.5,0.5c-0.3,0.6-0.4,0.3-0.8,0.7c-0.2,0.2-0.2,0.4-0.3,0.7c-0.4,0.1-0.9,0-0.9,0.5
	c0,0.4-2,1.8-2.4,2.3c-0.1,0.2-0.8,0.5-0.6,0C172.5,32.1,173.2,31.4,173.6,30.6z M171.7,18.2c1.3-0.4,0.2,0.4,0.1,0.7
	c-0.2,0.6-0.3,1.1-0.8,1.2C171.3,19.5,171.5,18.9,171.7,18.2z M171.3,33c0.9,0,0.3,0.3-0.2,0.5C171.1,33.3,171.2,33.1,171.3,33z
	 M170.3,33.9c0.5,0.1,0,0.6-0.2,0.7C170.2,34.4,170.3,34.1,170.3,33.9z M184.6,26.5c-0.3,0.2-0.3,0.6-0.7,0.6
	c-0.6,0,0.1,0.3-0.2,0.5c-1,0.2-1,0.8-1.6,1.1c-0.6,0.4-0.9,1-1.6,1.2c-0.1,0.4-0.7,1.2-1.2,1.2c-0.5,0-0.2,0.8-0.9,0.8
	c-0.5,0-1.1,0.9-1.6,1.2c-0.3,0.2-1.2,1.3-1.2,1.3c-0.8,0-0.5,0.6-1.2,1c-1.1,0.6-1.7,1.8-3,2.4c-0.3,0.1-0.7,0.3-0.7,0.7
	c0,0.2-0.3,0.1-0.5,0.1c-0.4,0-0.2,0.3-0.4,0.5c-0.6,0.4-0.9,0.8-1.6,1.4c-0.1-0.4,1.1-1.3,1.7-1.7c0.2-0.2,0.2-0.1,0.2-0.4
	c0-0.4,0.5-0.5,0.7-0.8c0.3-0.5,0.7-0.3,1.1-0.8c0.3-0.3,0.6-1,1-1c0.2,0,1.2-0.9,1.2-0.9c0,0,1.1-1.2,1.2-1.2
	c0.7-0.2,1.4-0.8,2-1.2c0.6-0.5,1.2-1,1.7-1.6c0.2-0.3,0.4,0,0.6-0.2c0.4-0.4-0.4-0.2,0.5-0.7c0.3-0.2,0.5-0.6,0.9-0.8
	c1-0.6,0-0.1,0.5-0.7c0.2-0.3,0.5,0.4,0.5-0.2c0-0.4,0.4-0.3,0.8-0.5c0.4-0.2,0.5-0.5,0.6-0.9c0.2-0.1,0.5-0.1,0.6-0.3
	c0.1-0.2,0.9-1.1,1.1-1.2c0.5-0.2,2.8-3,2.3-1.3c-0.4,0.1-0.3,0.7-0.6,1.1C185.9,25.8,185.2,26.1,184.6,26.5z M256.6,51.9
	C256.7,51.7,256.6,51.9,256.6,51.9L256.6,51.9z M56.3,59.4C56.4,59.2,56.3,59.4,56.3,59.4L56.3,59.4z M111.2,29.7
	C111.3,29.5,111.2,29.7,111.2,29.7L111.2,29.7z M292.5,23.9c-0.5,0-1-0.1-1.4-0.3c-0.5-0.2-0.8-0.5-1.2-0.8
	c-0.3-0.3-0.6-0.7-0.8-1.2c-0.2-0.5-0.3-1-0.3-1.6c0-0.6,0.1-1.1,0.3-1.6s0.5-0.9,0.8-1.2c0.3-0.3,0.7-0.6,1.2-0.8
	c0.5-0.2,0.9-0.3,1.4-0.3s1,0.1,1.4,0.3c0.5,0.2,0.8,0.5,1.2,0.8c0.3,0.3,0.6,0.7,0.8,1.2s0.3,1,0.3,1.6c0,0.6-0.1,1.1-0.3,1.6
	c-0.2,0.5-0.5,0.9-0.8,1.2c-0.3,0.3-0.7,0.6-1.2,0.8C293.5,23.8,293,23.9,292.5,23.9z M292.5,23.1c0.4,0,0.8-0.1,1.1-0.2
	c0.3-0.1,0.6-0.4,0.9-0.6c0.3-0.3,0.4-0.6,0.6-0.9c0.1-0.4,0.2-0.8,0.2-1.2s-0.1-0.9-0.2-1.2c-0.1-0.4-0.3-0.7-0.6-1
	c-0.3-0.3-0.5-0.5-0.9-0.6c-0.3-0.1-0.7-0.2-1.1-0.2c-0.4,0-0.8,0.1-1.1,0.2c-0.3,0.1-0.6,0.4-0.9,0.6c-0.3,0.3-0.4,0.6-0.6,1
	c-0.1,0.4-0.2,0.8-0.2,1.2s0.1,0.9,0.2,1.2c0.1,0.4,0.3,0.7,0.6,0.9c0.3,0.3,0.5,0.5,0.9,0.6C291.7,23,292,23.1,292.5,23.1z
	 M291,18.1h1.6c0.4,0,0.8,0.1,1.1,0.3c0.3,0.2,0.5,0.5,0.5,1c0,0.2-0.1,0.4-0.2,0.6c-0.1,0.2-0.3,0.3-0.5,0.4l0.8,1.5h-1l-0.6-1.3
	h-0.7V22h-1V18.1z M292.4,20c0.2,0,0.4-0.1,0.5-0.2c0.1-0.1,0.2-0.2,0.2-0.4c0-0.2-0.1-0.3-0.2-0.4c-0.1-0.1-0.3-0.2-0.5-0.2h-0.5
	V20H292.4z"/>
</svg>
