<?xml version="1.0" standalone="no"?>
<!DOCTYPE svg PUBLIC "-//W3C//DTD SVG 1.1//EN" "http://www.w3.org/Graphics/SVG/1.1/DTD/svg11.dtd" >
<svg xmlns="http://www.w3.org/2000/svg">
<metadata></metadata>
<defs>
<font id="mrs_lollipopfill" horiz-adv-x="716" >
<font-face units-per-em="2048" ascent="1536" descent="-512" />
<missing-glyph horiz-adv-x="500" />
<glyph horiz-adv-x="0" />
<glyph unicode="&#xd;" horiz-adv-x="2048" />
<glyph unicode=" " />
<glyph unicode="!" horiz-adv-x="681" d="M131 240q0 30 2 32v25q12 29 14 33q2 6 10 16.5t9 13.5q3 2 16 25q1 0 11.5 7.5t17.5 8.5q0 3 4 7q6 -1 29 8q2 1 8.5 1.5t9.5 2.5q6 -2 12 0q1 0 3.5 -1t3.5 -1q2 -1 6.5 1t7.5 1q2 -2 10 -2q4 0 12 4q3 -2 16 -8t19 -11l17 -8l30 -33l9 -28q0 -4 3 -16t3 -17v-43 q0 -4 -1 -11.5t-1 -10.5l-9 -23q-2 -4 -10 -12q-4 -8 -4 -11q0 -1 -1 -2t-1 -2q-1 -2 -7 -6.5t-7 -9.5q-2 -2 -8 -7.5t-9 -6.5q-2 0 -6 -4q-11 -11 -39 -21q-4 0 -8 2q-1 -1 -5.5 -2t-6.5 -2q-2 2 -10 2h-23q-2 0 -6.5 1t-7.5 1q-2 -1 -7 -1t-6 -1q-9 6 -14 6q-23 10 -35 25 q-2 0 -2 2l-16 8l-19 27q-1 2 -4.5 5.5t-5.5 6.5q-4 8 -4 29zM166 1452q0 6 3 13.5t7 7.5q13 0 17 2q4 0 10.5 1.5t11.5 1.5t10 -3q13 4 23 2q1 -3 13 -0.5t15 2.5q1 0 5 1t6 1q11 3 20 0q13 0 17 -2h16q6 -5 28 -0.5t25 4.5q15 -4 23 2l16 -4q8 0 14 -2q0 2 5 2q2 0 7 -1 t7 -1q6 0 10 2q0 -4 2 -4v-11q3 -2 0.5 -20t-2.5 -21l-4 -24q-2 -6 -2 -17v-12v-6q0 -2 -2 -17t-4 -22v-2q0 -11 -4 -31q0 -12 -2 -20q0 -4 -1 -13t-1 -12v-8q-2 -5 -2 -31q0 -3 -2 -9.5t-2 -10.5q3 -9 1 -22t-6 -19v-2q0 -7 -1 -20.5t-1 -20.5v-23q0 -3 -1 -7.5t-1 -6.5 q0 -1 1 -3t1 -3l-4 -29q0 -2 2 -6q-2 -2 -2 -4v-20q-4 -16 -2 -23q0 -8 -2 -14v-6q-1 -2 -1 -6v-7t0.5 -7t0.5 -7v-14q0 -1 -1 -4.5t-1 -4.5q0 -3 -1 -9t-1 -9t-1 -9.5t-1 -9.5q0 -27 -6 -57v-4q0 -6 -3 -17t-3 -16q0 -6 -1 -18.5t-1 -18.5q0 -2 -1 -6t-1 -6 q-1 -3 -1.5 -13.5t-2.5 -15.5v-6q0 -10 -2 -16v-14l-19 -13h-12q-6 0 -10 2q-9 -4 -13 -2h-8h-8q-21 5 -29 2h-35q-4 2 -14 2q-3 -2 -22 -2q-3 0 -10.5 -1t-10.5 -1l-22 6q-3 12 -3 43q-1 4 -1 10t0.5 13.5t0.5 11.5q0 2 -2 2q0 3 -1 8t-1 7v14q0 7 -1 15t-1 16q-2 6 -2 22 q0 15 -4 21q2 2 2 8q0 26 -2 31v32q0 9 2 13q0 5 -1 14.5t-1 15.5q0 11 -2 15q3 7 0 10q2 5 2 29q0 2 -1 6t-1 6t-1 6t-1 6v29q0 23 -4 31q0 2 1 6t1 6v14v13v14q0 1 1 3t1 3q-2 8 -2 31q-2 10 -2 30q0 27 2 33q0 1 -1 2t-1 2t1 4.5t1 4.5v2q0 2 -1 5t-1 5q-2 3 -0.5 11 t0.5 11q0 9 -2 11v55q1 2 0 6t0 6v8v19v20v21q-2 4 -2 12z" />
<glyph unicode="&#x22;" horiz-adv-x="909" d="M94 1399q1 2 2 5.5t2 4.5l-4 104l6 17l37 4l8 4q1 0 5 -1t6 -1q4 0 8 4q43 0 63 4q4 4 9 4q14 2 45 2q1 0 3 -1t3 -1q4 -4 4 -8v-24q0 -2 -1 -6t-1 -5v-39l-4 -10v-24q-4 -12 -4 -19q0 -3 -2.5 -9.5t-2.5 -10.5t-1 -18t-1 -23q2 0 0 -2q0 -1 -1 -4t-1 -5v-32 q-4 -8 -4 -11v-16t-4 -20q0 -4 -1 -13.5t-1 -13.5q-3 -5 -4 -17.5t-4 -17.5v-37q-1 -3 -2.5 -9l-2.5 -10t-3.5 -9t-5.5 -9q-16 -2 -54 -2q-2 0 -14 4q-23 0 -35 -6q-4 0 -12 4h-14l-5 4q-9 135 -12 269zM522 1315v211q0 5 4 8t11.5 3.5t13 1t15.5 0t12 -0.5q1 1 4.5 2t5.5 2 q17 0 53.5 1t56.5 1q15 8 37 4q2 0 2 -2q3 0 5.5 -3t0.5 -5v-4q-3 -3 -5 -15t-5 -16v-26q-4 -8 -4 -13q-2 -12 -2 -34l-6 -15q0 -19 -4 -26q0 -5 -1 -16.5t-1 -16.5q0 -3 -2 -9.5t-2 -9.5q0 -5 -5 -18t-4 -19q-3 -4 -4 -8.5t-1 -9.5t-1 -8q0 -13 -4 -19v-4q0 -1 -2 -15.5 t-4 -21.5q0 -5 -4 -15t-4 -15q-4 -6 -4 -21l-4 -12q0 -1 -1 -4t-1 -4q0 -11 -2 -17l-7 -20q-2 -2 -6 -2q-16 -2 -51 -2h-70q0 2 -4 6q0 127 -2 195q0 1 -0.5 2.5l-1.5 4.5t-2 5z" />
<glyph unicode="#" horiz-adv-x="2287" d="M90 389l14 31q8 19 13 24q1 2 1.5 5t1.5 6t3 6q11 15 14 28q0 1 1 3.5t1 3.5q4 5 21 32q1 4 6 11t6 10q0 2 1 5t1 5q4 4 8 10.5t8.5 14t8.5 12.5q4 6 9 19t9 18q3 2 8.5 2.5t10.5 1.5t8 4q4 -2 12 -2q1 0 3.5 -1t4.5 -1h60q4 0 12 4q59 0 90 2q8 4 27 4q0 3 5 10t5 13 l2 4q11 15 14 26l13 29q13 26 55 96q4 5 8 15q29 58 41 78q0 9 -14 18q-1 0 -3.5 1t-3.5 1h-159q-2 0 -10 4q-4 -4 -9 -4h-24l-15 6h-53q-6 6 -3.5 12.5t9 17t6.5 13.5q1 5 5.5 14.5t5.5 12.5l12 28l2 5q3 17 18 32l5 8q1 13 22 54q8 8 16 28l5 7q3 2 8 3t9 2.5t7 4.5h170 l12 4l17 -4l14 4h29q31 5 33 6h12q8 2 22 2l13 12h2q4 7 8 21l10 18q1 3 4 12.5t6 14.5q9 18 13 22q1 3 5 11.5t6 13t6 10.5t9 10q4 16 13 25l24 51q0 1 2 7t4 8q4 4 7 9.5t6.5 12.5t5.5 10q5 2 13 2.5t11 1.5h21l10 5q37 0 57 2h13q24 0 32 4q17 0 27 2h23q11 5 30 2.5 t31 1.5h55q4 -4 2 -6q0 -5 -4 -13q-5 -6 -9 -14.5t-8 -19t-7 -15.5q-7 -13 -17 -35.5t-14 -29.5q-7 -10 -13.5 -23t-13 -26.5t-12.5 -22.5l-10 -20l-21 -25q0 -6 -4 -17t-3.5 -17.5t11.5 -10.5l17 -4q2 0 6 4h57l11 -6h28q47 0 70 -2q10 0 16 -2q14 5 31 -2h123l10 -6 q1 1 4.5 2t5.5 2q2 -2 6 -2q1 0 4 1t5 1q12 2 37 2q5 2 12 12q1 4 3 8.5t4.5 8t5.5 8.5t5 8q6 10 16.5 30.5t16.5 30.5q2 1 3 5.5t3 6.5q8 11 21.5 41.5t25.5 42.5q0 1 1 4.5t1 4.5q1 6 6.5 14.5t6.5 9.5l18 41q4 4 8 12l8 7q1 0 3.5 1t3.5 1h43q16 4 22 4h64q12 0 36 1 t37 1q16 10 29 0q1 0 3 1t3 1t3 1t3 1l30 1q30 1 30 -1q-3 -12 -11.5 -31.5t-11.5 -30.5q0 -11 -11 -30.5t-13 -26.5v-2l-17 -27q0 -11 -10 -24q-6 -10 -33 -64l-18 -28l-11 -11q-3 -9 0 -18l11 -12q2 0 4 -1q1 -1 2 -1h96q8 -4 10 -4q2 -2 4 -2h25q2 0 6 -1.5t6 -1.5 q19 -3 24 -3t19 3l11 -4q35 0 53 -2q2 0 4 -2q0 -1 1 -3t1 -3q-8 -32 -31 -72q-5 -12 -22 -47q-2 -4 -2 -12q-5 -5 -11.5 -19t-11.5 -20q-2 -8 -10 -26.5t-10 -28.5q0 -2 -6 -14l-15 -23l-6 -4h-43q-16 4 -25 4q-5 0 -12.5 -2.5t-11.5 -3.5q-1 1 -4.5 2t-5.5 2l-4 -2 q-10 4 -36 3t-32 5q-18 -6 -33 0q-2 0 -6 1t-6 1h-51l-4 -4l-13 -18q-1 -5 -16 -41q-6 -12 -6 -15q0 -8 -12 -20q0 -5 -4.5 -14t-4.5 -15l-2 -4q-7 -9 -16 -35l-21 -41q-9 -18 -10 -22q0 -2 -2.5 -5.5t-3.5 -4.5q-3 -8 -10 -19v-8q8 -13 15.5 -18.5t23.5 -8.5q25 4 37 0 q2 0 6 1t6 1l16 -4h56q12 0 14 2h8q12 -4 39 -4h55q1 0 3.5 -1t4.5 -1v-14q-1 -1 -16 -37q-1 -1 -2 -5.5t-2 -6.5q-6 -16 -23 -50l-12 -26q-4 -4 -4 -8q-1 -5 -2 -10.5t-3.5 -10t-4.5 -9t-4.5 -9.5t-3.5 -8q-9 -20 -25 -43q-1 0 -4 -7l-12 -6q-41 -2 -109.5 -1.5 t-109.5 -0.5l-13 -4h-12q-8 0 -10 2q-2 0 -6 1t-5 1q-20 -3 -32 -18q-7 -26 -19 -51q-1 -1 -49 -99q-3 -5 -6 -14t-6 -14l-10 -25q-5 -19 -13 -27l-10 -22q-6 -6 -12 -6h-312l-16 6q-3 4 -3.5 7.5t0.5 9t1 7.5q12 15 18 33q0 4 5.5 10.5t5.5 10.5q3 6 9.5 22.5t10.5 25.5 t11 21t14 21q4 4 4 8q0 5 4 12t4 8l33 68q-3 13 -14.5 17t-32.5 4h-115h-41q-3 0 -9.5 2t-10.5 2h-19l-12 -4l-10 4h-50l-10 -4q-2 0 -14 4l-12 -4q-3 0 -11 4q-52 0 -79 2q-2 0 -5 1t-4 1q-6 -2 -16 -2q-9 0 -15 -4t-9 -9t-6.5 -12.5t-6.5 -11.5q-4 -4 -8 -17q-2 -6 -5 -13 t-7.5 -15t-6.5 -13l-20 -38q-6 -18 -6 -21q-22 -31 -25 -45q0 -4 -4 -8q-2 -2 -24 -47q-2 -3 -7 -11t-9 -13t-9 -7h-115q-77 0 -116 -2q-15 0 -42 1t-40 1q-8 3 0 25t14 30l14 29q0 5 1 9.5t2 8t4 8t4.5 7t5 7.5t4.5 7q1 1 10 20t16 27q1 8 15 35q14 35 35 68q4 4 4 6 q-3 4 -7.5 7t-8.5 4.5t-11 2t-11 0.5h-13.5h-12.5q-12 -4 -16 -4q-20 -2 -64 -2q-8 -4 -12 -4h-49q-2 0 -10 4q-23 0 -23 8zM784 645q0 -4 2 -6l13 -21q0 -3 3 -5t5.5 -3t7.5 -2.5t6 -1.5h23l12 4l8 -4l8 4q51 1 189.5 0.5t187.5 1.5q10 4 23 21q8 23 20 43q4 4 4 8 q2 10 11.5 24.5t11.5 20.5l12 21q1 4 3.5 10t5 10.5t5 10.5t3.5 10l14 24q1 2 5 12t7 15q7 19 27 47q0 28 -2 33l-8 8q-10 2 -31 2q-21 -1 -63 0t-62 0h-20.5t-24.5 4q-3 2 -11 0t-10 -4q-8 4 -12 4h-16q-9 0 -13 -4q-98 0 -145 -2q-2 0 -5.5 -1t-4.5 -1q-6 -2 -15 -2 q-2 2 -6 2q-15 6 -20 -4l-25 -35q-3 -5 -5.5 -10.5t-4.5 -12t-4 -10.5l-16 -33q-2 -5 -5.5 -11l-7 -12t-4.5 -12q-6 -4 -11.5 -16t-8.5 -16q-5 -11 -12 -23t-11 -21t-10 -24q-10 -20 -12 -22q-11 -11 -11 -21z" />
<glyph unicode="$" horiz-adv-x="1116" d="M98 305v23l45 43q5 2 13.5 9t13.5 9q4 3 13 11t14 10l2 2q5 11 20 18q9 6 24.5 18.5t20.5 16.5q1 0 7 6.5t8 7.5l16 13l16 -19q5 -15 23 -33q8 -7 20.5 -23t18.5 -22q5 -5 16.5 -13t16.5 -13l53 -27q12 0 24 -6q28 0 35 4q5 0 14.5 1t14.5 1q24 12 31 17t26 26l8 8 q14 14 19 27q1 4 10 22q2 5 2.5 18.5t3.5 18.5q0 15 2 25q-10 20 -6 31q-16 28 -25 53q-2 4 -2 8l-16 27q-14 14 -18 16l-4 2q-4 9 -21 18l-33 35q-14 14 -65 54q-7 5 -26.5 17.5t-33.5 22t-26 19.5l-21 22q-14 14 -22 17q-8 4 -11 10q-29 28 -36 35l-23 24q-5 5 -10.5 14 t-10.5 16.5t-12 12.5q-6 12 -15 36t-15 36q-5 25 -7 29q-2 10 -2 28q-4 4 -4 9q-3 49 0 104q0 2 1 4.5t1 3.5l9 33q1 3 1 9.5t1 9.5q2 5 7 19t9 21l10 23q11 27 27 43q4 4 10 13.5t10 13.5q33 37 54 53q6 1 13 9t9 9l21 13q41 20 61 28l12 19q2 2 2 6v29q-4 8 -4 10v67 q0 3 4 11q0 2 -0.5 11.5t0 16.5t1 15.5t3.5 13t7 4.5q6 0 10 -2q1 0 2 -0.5t3.5 -1.5t4.5 -2h23q16 0 26 -2q8 -4 23.5 -4h19.5h13l18 -6h12q2 0 16 2.5t15 -0.5l8 4h33q3 -5 6 -13.5t4 -11.5v-59q0 -1 6 -19v-55q2 -5 4.5 -8.5t6 -6.5t5.5 -5t7 -4.5t7 -3t9.5 -3.5t9.5 -4 q29 0 37 -8q5 -4 20.5 -12t22.5 -15q5 -2 11 -6t12 -9.5t10 -8.5l47 -37q6 -2 10 -10l15 -17q16 -16 28 -34q21 -21 21 -46q-17 -19 -47 -45q-5 -4 -18 -13t-19 -15l-33 -33q-25 -25 -39 -35q-4 -2 -10.5 -9t-11.5 -9h-4q-8 17 -33 43q-12 8 -16 14q-9 3 -15 12q-6 6 -24 15 q-10 0 -35 10q-25 2 -76 2q-4 -4 -8 -4q-14 -3 -29 -14l-24 -19q-8 -16 -17 -18q-3 -3 -4.5 -9t-3.5 -8q-2 -3 -3 -10t-3 -10q-5 -8 -8 -19v-47q6 -18 6 -20q0 -10 14 -41l10 -21l11 -10q1 -1 5 -7.5t7 -8.5l16 -13q2 -2 9.5 -6.5t9.5 -9.5l18 -14l14 -13l11 -6 q5 -6 17.5 -14t15.5 -10q2 -1 6.5 -3.5t8 -4.5t5.5 -5q3 -3 10.5 -6t9.5 -6l39 -22q3 -4 7.5 -7.5t11.5 -8t10 -7.5q6 -2 11 -5t10.5 -7.5t9 -7t10 -8.5t8.5 -8l9 -9l8 -8q0 -1 1 -2t1 -2q5 -10 24 -29l21 -35q0 -2 1 -5t1 -5q15 -18 24 -45q0 -4 4 -12q13 -17 13 -43 q0 -7 2 -11q3 -4 4.5 -14.5t5.5 -15.5v-6q0 -1 0.5 -46t-0.5 -45q0 -8 -3 -22.5t-3 -22.5q0 -24 -4 -34q0 -17 -19 -64l-8 -31l-4 -8q-2 -10 -4 -16.5t-5 -12.5l-4.5 -9t-6 -10.5l-7.5 -12.5l-14 -23q-3 -5 -12 -16t-13 -17q-12 -16 -28 -28l-25 -27q-4 -4 -24 -16 q-10 -10 -35.5 -21t-36.5 -22q-4 -6 -4 -17q0 -27 -2 -32q0 -13 -2 -15q3 -3 3 -6.5t-1.5 -7.5t-1.5 -6t4 -10q0 -25 -2 -37q0 -2 2 -4q0 -3 -2 -8.5t-2 -8.5q0 -25 -2 -39l-8 -8q-39 0 -50 4l-8 -4h-28q-9 0 -13 2q-9 5 -37 0q-2 2 -6 2q-31 2 -92 2q-4 4 -4 10 q-2 20 -2 62q-4 8 -4 12v107q0 1 -1 4t-1 4q-1 4 -4 7t-5.5 4t-7 3.5t-6.5 3.5h-16q-1 0 -12 3.5t-17 2.5q-5 0 -13 4t-11 5q-3 0 -15 6q-1 0 -4 1t-4 1q-6 1 -12.5 3.5t-14 6t-10.5 4.5q-22 19 -33 25q-6 3 -11.5 8.5t-9.5 9t-10 10t-9 9.5l-5 8q-4 4 -11.5 15t-12.5 16 q-4 2 -7.5 7t-5.5 8.5t-5.5 10t-4.5 8.5q-26 37 -43 76z" />
<glyph unicode="%" horiz-adv-x="2127" d="M94 1114q0 2 1 6.5t1 7.5q0 2 -1 6t-1 5q0 4 2 10.5t2 9.5q0 13 2 19q0 1 1 4t1 4q2 2 2 4q0 40 19 78q10 34 16 45q1 2 7.5 14t7.5 19q0 4 8 12l4 14l27 41q2 2 7 5t8.5 7t4.5 9q8 4 20.5 13.5t14.5 10.5l37 19q7 0 18 4.5t16 5.5q2 2 9 2.5t8 1.5q28 12 41 12 q1 0 4.5 2t5.5 2q18 2 55 2q1 0 4 1t5 1t3.5 -0.5l3 -1t3.5 -0.5h31l12 4q4 -3 11 -4t14 -2.5t12 -3.5q5 0 16 -3.5t18 -2.5q32 -16 39 -18q18 -9 50 -29q5 -5 18.5 -15.5t23 -20t13.5 -21.5l18 -27q0 -6 7 -15.5t8 -15.5q0 -2 2.5 -5.5t3.5 -4.5l12 -20q-3 -11 4 -25 q0 -6 1 -19t1 -20q4 -7 5 -16t0.5 -20t0.5 -17q4 -15 0 -29q0 -6 -0.5 -18t-0.5 -21.5t1 -17.5q0 -8 -10 -43l-8 -29q-1 -4 -4.5 -12t-3.5 -14q-9 -23 -15 -29l-6 -10l-4 -15l-12 -18q-1 -3 -3 -5.5t-5 -6t-4 -5.5q-13 -10 -19 -22l-2 -2q-4 -2 -6.5 -4.5t-6 -6.5t-5.5 -6 l-17 -12q-4 -1 -9.5 -5t-8.5 -5q-2 -1 -27 -16.5t-41 -18.5q-3 -2 -11.5 -4t-12.5 -4q-32 -8 -35 -8h-21q-15 -8 -26 -2q-27 -5 -37 2h-55l-25 4q-3 2 -10.5 2.5t-9.5 1.5q-26 10 -37 12l-13.5 4.5t-19.5 8.5q-33 15 -41 18q-5 3 -11 8t-10.5 10t-10.5 11.5t-9 9.5 q-16 28 -27 39l-16 33q-8 14 -17.5 45t-11.5 36v60q-4 8 -4 10zM260 1157q0 -10 1 -27.5t1 -23.5q1 -4 2.5 -8t1.5 -6q0 -9 10 -29l21 -23q16 -16 41 -26l27 -13q3 -1 12 -1.5t12 -2.5q4 -2 12 -2h19l8 4q8 -8 16 -4q4 3 9.5 4t10.5 1t7 1q16 4 37 21q4 8 8 12q6 3 33 21 q28 47 35 82q0 4 4 16q0 4 0.5 14t0.5 16t-1.5 14t-3.5 13q0 3 -1 8t-1 7q-6 10 -9 20l-14 27q-9 15 -24 24l-19 13q-1 0 -3.5 1t-4.5 1l-14 10h-17q-3 0 -8.5 2.5t-7.5 3.5q-5 0 -15.5 1t-15.5 1q-14 -2 -45 -2q-3 -1 -11 -3.5t-12.5 -4t-10.5 -4.5t-9 -6t-19.5 -16.5 t-23.5 -24.5q-15 -18 -25 -41q0 -3 -1 -8t-1 -7q-4 -12 -4 -14q0 -7 -4 -20.5t-4 -20.5zM600 111q18 27 18 57q17 21 19 37q7 12 16.5 34t12.5 29q4 8 4 15l10 24l8 25q1 6 4 12t7 13t6 10q3 6 6 14t6 16.5t6 14.5l12 32l17 33l10 25q3 4 5 8t4 8.5t3 7.5l12 25l7.5 15 t7.5 18q1 5 6 15t6 15q0 5 4 9q15 37 27 59q1 3 4 12.5t6 14.5l12 26l13 25l5 10t5 10.5t4.5 10.5t3.5 12q6 10 13.5 30t9.5 25q0 6 6 17t6 16q3 11 7.5 22t11.5 24t10 21q5 14 8 19v12q5 9 9 22.5t8.5 26t10.5 21.5q1 7 7 18.5t6 12.5q20 35 20 59l10 25q2 4 7.5 13.5 t7.5 16.5q5 27 20 49l17 35q0 1 1 3t1 3q4 18 8 29l16 29l12 26v4q3 6 3 13q5 8 12 26.5t12 26.5l14 31q3 0 3 2q2 0 2 2h6q12 2 37 2q4 4 22 4q10 0 14 -2q1 0 5 1t6 1q1 0 5.5 -2t6.5 -2h25l10 6q13 -1 50 -0.5t50 -1.5q6 -3 2 -10l-6 -21q0 -2 -2.5 -8t-3.5 -8l-6 -23 q-3 -19 -15 -37q-4 -8 -10 -27.5t-10 -27.5v-12q-19 -29 -19 -45q-4 -18 -8 -25l-12 -35q0 -8 -8 -24l-10 -23l-13 -26q-4 -21 -10 -29q-2 -3 -3.5 -8t-3 -11t-3.5 -10q-3 -4 -6 -13t-6 -13q0 -6 -4 -14.5t-5 -12.5q0 -7 -6 -16q-14 -28 -16 -41q-1 -1 -6 -10t-6.5 -12.5 t-4 -11t-2.5 -13.5q-3 -5 -6 -15.5t-6 -15.5l-18 -41q-7 -15 -18.5 -44.5t-18.5 -43.5q-2 -3 -3.5 -6.5t-2 -6.5t-1.5 -6.5t-3 -5.5q0 -8 -6.5 -20t-6.5 -17q-16 -33 -20 -51q0 -5 -6 -8q-10 -26 -11 -29q0 -3 -3.5 -11.5t-2.5 -14.5q-11 -19 -18 -47q-4 -8 -11 -24t-10 -23 l-10 -21q-1 -5 -5 -13.5t-5 -13.5l-8 -22q-9 -27 -15 -39q-5 -9 -12 -28.5t-12 -28.5q-5 -25 -33 -74l-8 -19q-1 -4 -4 -9t-5 -10t-3 -9l-9 -25q-8 -16 -8 -22l-20 -39q-2 2 -9 2q-1 0 -3 1t-3 1q-19 -5 -24 -2q-1 0 -2 1t-2 1q-7 -4 -22 -4h-19q-27 0 -39 -2q-6 0 -10 -4 q-64 0 -95 -2h-4q-2 0 -5.5 -1t-4.5 -1q-4 0 -12 4l-15 -7q-2 0 -12 5zM1260 367v63q0 1 3 9.5t3 13.5q0 3 2 8t2 8q0 1 1 2t1 2v23l6 20q0 4 3 12.5t3 12.5q-1 2 0 5.5t1.5 5.5t2 5.5t2.5 5.5v2q1 2 6.5 13.5t6.5 17.5l12 27l16 30q1 1 2 5.5t2 5.5q14 12 39 49l6 6t6 6.5 t6 5.5t7 4q5 2 12 10t12 11q3 2 10.5 5.5t13 7.5t9.5 9q7 5 16 9.5t20 9.5t17 8q40 10 50 14h67q7 0 15 -3t10 -3h20q8 -4 10 -4q4 -2 15 -2l14 -6l31 -10q6 -3 18.5 -7.5t18.5 -7.5l37 -20q6 -3 14 -15q2 -2 9 -5.5t9 -8.5q11 -8 21.5 -17.5t24 -24t18.5 -19.5 q2 -5 5.5 -10t8 -10t6.5 -9q2 -5 11 -14q0 -3 6 -21l6 -20q0 -12 6 -21v-14l6 -12v-105q0 -8 -3 -24.5t-3 -26.5q-4 -8 -4 -14q-6 -28 -6 -29q0 -6 -3.5 -14.5t-4.5 -12.5q0 -5 -4 -13t-5 -11l-4 -17q-2 -4 -4 -10.5t-4 -9.5q-1 -6 -10 -23q-1 -2 -4 -5t-5.5 -6.5t-3.5 -6.5 q0 -1 -1 -2t-1 -2q-9 -9 -26.5 -32t-26.5 -32q-15 -10 -22 -10q-1 0 -9 -4q-6 -4 -55 -27q-30 -10 -37 -10l-12 -6h-31q-4 -4 -15 -5.5t-20.5 -1.5t-25 0.5t-19.5 0.5l-8 -4q-8 4 -14 4h-49l-13 6h-6q-27 0 -47 10q-12 8 -18 8q-28 12 -37 21l-12 4l-31 18l-14 17 q-9 9 -23 16q-2 3 -8 15.5t-12 17.5q-11 22 -11 27v6q-2 3 -4 10t-4 10q-6 25 -14 41q-1 6 -1 16.5t-1 14.5q-3 5 -5 16.5t-5 16.5zM1417 463q-4 -43 4 -60q1 -3 1.5 -12t2.5 -14l11 -25l20 -35q20 -29 37 -41l20 -10l21 -8q3 -1 10.5 -4.5t11.5 -3.5q12 -4 19 -4q3 0 8 2 t8 2q19 0 29 2l25 6q4 0 10.5 3t9.5 3l27 12q17 17 20 19l29 31q5 5 10.5 14.5t7.5 11.5q1 5 3.5 10.5t5.5 11t4 9.5q1 3 2.5 9.5t2.5 11.5t3 10.5t4 9.5v39q-3 8 -7.5 23.5t-7.5 23.5q-5 17 -16 43q-28 28 -33 37q-12 4 -18 10q-2 1 -19 12q-4 0 -18 9q-24 12 -45 12 q-4 0 -8.5 1t-7.5 1.5t-7.5 0t-9.5 -2.5q-54 0 -108 -47q-3 -5 -13 -19t-14.5 -21t-11 -19t-10.5 -23q0 -6 -2.5 -13t-6 -15t-4.5 -13z" />
<glyph unicode="&#x26;" horiz-adv-x="1415" d="M98 492v71q2 2 3.5 7t2 12t0.5 12.5v13.5v10q5 5 5 9q3 15 12.5 41t11.5 34q0 11 8 27l9 19q4 12 10 18l4 8q4 18 22.5 44t22.5 34l18 20l9 9q0 2 1 6t1 6q14 10 16 12q5 9 12 17t19.5 19.5t15.5 14.5l6 19l6 14l-16 33q-2 4 -8 22q-8 12 -8 19l-13 31q0 5 -3 13.5 t-3 12.5l-6 25q-2 12 -2 41q-1 2 -2 5.5t-2 4.5q0 21 -2 31q0 8 -2 12q-2 3 -2 6t1 6t1 4q-3 6 2 21v12q0 18 6 33q0 3 3 8.5t3 7.5l4 19q28 63 35 76l9 9.5t11 16.5q16 24 31 39l33 31q5 7 18 15.5t17 12.5q22 13 31 15q3 1 7.5 3t7.5 3.5t7.5 3l7.5 2.5q10 0 28 7t28 7h57 q27 -11 33 -12l32 -8q11 0 17 -6l33 -17q9 -4 17.5 -9t21.5 -14t16 -11q24 -17 42.5 -46.5t26.5 -60.5q0 -1 5 -16q0 -5 3 -15.5t3 -17.5q0 -3 1 -8.5t1 -7.5q2 -6 2 -19l-4 -10v-35q0 -3 -1 -10t-1 -10q-3 -3 -3.5 -8.5t-0.5 -11.5t-2 -9q-1 -2 -3 -4l-2 -4q0 -16 -6 -31 q-1 -1 -1 -5t-1 -5l-30 -64q-14 -33 -37 -51l-13 -24q-3 -2 -12 -11.5t-16 -13.5q-8 -5 -19 -14t-19.5 -16.5t-20 -15t-21.5 -11.5q-15 -9 -21 -27q1 -4 5.5 -12t5.5 -13q0 -2 1 -6.5t1 -7.5q14 -28 20 -37q2 -2 2.5 -5t1.5 -6.5t4 -6.5q11 -32 21 -45l22 -41q0 -7 7 -17 t8 -14q5 -5 11 -14t7 -11q5 -16 15 -31.5t22 -32t18 -28.5q12 -12 35 -49q6 -6 15 -24q3 -4 22 -23h27q7 2 10 8l25 23q27 27 49 63q2 4 8.5 13.5t7.5 15.5q4 10 17.5 27t17.5 26l20 29h13q7 -2 18 -7.5t14 -6.5q13 -8 31 -15q7 -1 17.5 -8t13.5 -8q18 -6 33 -15q5 -2 14 -8 t14 -8l33 -16v-6q-7 -11 -10 -19l-6 -20q-7 -24 -21 -41q-5 -10 -17.5 -29.5t-21.5 -36t-16 -31.5l-21 -28q-2 -3 -11 -16t-16 -21.5t-14 -13.5l-12 -19q-2 0 -5.5 -1t-4.5 -1l-4 -6v-31q7 -12 24 -22q4 -2 13 -9t14 -10l27 -18q6 -2 13 -7t14.5 -10t13.5 -8q2 -1 5 -2t5 -2 t4.5 -2t3.5 -2q7 -5 16 -10.5t18 -11.5t17 -11l4 -4q-4 -6 -11 -20.5t-11 -20.5q-9 -12 -15 -24l-30 -37q-12 -17 -17 -25l-37 -35q-8 -11 -18 -12.5t-17.5 2t-19.5 11t-18 10.5q-4 3 -10 6.5t-12.5 6.5t-10.5 5q-13 15 -45 31q-3 3 -13.5 8.5t-15.5 9.5q-28 20 -39 27 l-12 12q-4 3 -33 19h-24q-3 -2 -11.5 -8t-13.5 -11q-5 -4 -12 -7.5t-17 -7t-14 -5.5q-10 -2 -47 -21q-33 -17 -70 -29q-1 0 -3.5 -1t-4.5 -1q-15 0 -43 -12q-35 0 -51 -2q-4 0 -8 -4h-33l-8 -4l-8 4h-11q-4 -1 -28 4l-27 4q-12 4 -20 4q-18 0 -60 21q-2 1 -5 2t-5 1t-5 1 t-5 2q-3 3 -6.5 5t-8 4t-6.5 3q-12 8 -18 10q-4 4 -4 5q-5 5 -16.5 13t-16.5 13q-3 3 -13.5 14.5t-15.5 18.5q-5 2 -9.5 9t-6.5 9q-16 19 -33 39q-10 7 -20 21l-15 28q-3 10 -10 25l-12 31q-5 20 -8 26q0 2 -1 7t-1 8q0 4 -3 13t-4 13q-2 8 -2 27q-4 10 -5 20.5t0 27t1 20.5 zM322 561q0 -12 2 -18q2 -5 2.5 -11.5t0.5 -13.5t1 -12q3 -3 4 -7t1 -9.5t1 -8.5q3 -7 9 -18t10.5 -20.5t6.5 -18.5q3 -6 9 -12l14 -23q12 -18 41 -47q36 -18 45 -27q12 -6 16 -6q5 -1 12 -3.5t13 -4.5t13 -3.5t12 -2.5q6 0 10 -4h39q4 4 10 4q10 2 31 2l28 14q4 4 4 6 q-4 12 -4 17q-3 5 -11 17.5t-11 19.5q-8 4 -10 8q-30 40 -37 47q-18 35 -43 66q-5 5 -12.5 18t-12.5 18q-4 8 -4 11q-2 2 -2 6q-4 15 -21 41q-6 8 -13.5 26t-8.5 21q-15 23 -25 49l-18 47q-3 6 -10 8q-1 0 -2 0.5t-2.5 1t-3.5 0.5q-1 0 -4 -1t-5 -1l-16 -8q-1 -2 -10 -14 t-11 -19q-4 -4 -7.5 -10.5t-7 -15t-5.5 -11.5q-12 -24 -12 -43l-6 -10v-45zM461 1251q3 -4 4 -9t1 -11.5t1 -9.5q12 -20 12 -35q0 -8 5.5 -15t13.5 -10h14q6 17 25 27l6 6q3 6 12 16.5t12 16.5l19 20q3 3 5.5 6.5t5.5 8.5t5 8l27 26q1 2 8.5 17.5t9.5 23.5v41q-13 29 -35 43 q-3 1 -6 1h-5.5t-5.5 1t-5 2q-10 2 -27 2q-8 -4 -10 -4q-22 -8 -33 -18l-26 -16q-17 -20 -27 -46q0 -8 -2 -12q0 -2 -4 -14q0 -1 -0.5 -33t0.5 -33z" />
<glyph unicode="'" horiz-adv-x="514" d="M96 1442q0 9 1 24.5t1 20.5q0 2 -1 5t-1 5q0 3 -0.5 12.5t-1 16t0.5 14t4.5 11t9.5 1.5q8 8 32.5 3t32.5 -3h16q8 -4 13 -4q3 -1 8.5 0t10.5 2.5t11 -0.5q4 -2 9 -1.5t12.5 2t9.5 1.5q18 2 53 2q5 -4 6 -11t0 -21t-1 -17l-5 -10v-6q0 -38 -6 -47q-2 -6 -2 -19 q0 -5 -1 -16t-1 -16q0 -2 -1 -6t-1 -5q-2 -18 -2 -51l-4 -10v-35l-6 -18q0 -17 -4 -23v-16q0 -8 -3 -26t-3 -30q-7 -7 -7 -45l-6 -22q-2 0 -6.5 1t-7.5 1l-12 -6q-24 0 -70 -1t-68 -1q-4 4 -4 8v55q0 11 -4 17q0 1 1 4t1 4v6q0 86 -4 250z" />
<glyph unicode="(" horiz-adv-x="819" d="M94 809v70q0 10 3 33.5t3 37.5l4 8q0 3 1 10.5t1 10.5q0 13 8.5 36.5t8.5 35.5q1 4 3 9t3.5 10.5t1.5 10.5l8 25l8 16v2l13 37l6 21l10 18q1 5 10 27q1 6 6.5 15.5t6.5 12.5l22 43q15 30 19 35q4 4 9 15t9 16q1 2 21 31t28 45l15 18q20 33 49 62l8 8l6 10q15 8 36 29.5 t34 29.5l14 15l18 14q4 2 10 7t9 7q4 0 6 -2q6 -6 15 -14.5t15.5 -15l14.5 -14.5t14 -15q2 -2 7.5 -6.5t10.5 -8t9 -5.5q2 -1 10.5 -10t14.5 -11q3 -1 14 -12q6 -2 14 -10q7 -4 11 -11v-4l-25 -26q-9 -15 -23 -29q-1 -1 -2.5 -2t-2.5 -2t-1 -2q-2 -5 -6 -10l-8 -10t-6 -9 q-2 -7 -15 -25l-16 -20q-4 -6 -12.5 -18t-12.5 -19q-1 -2 -4 -5.5t-4.5 -6t-1.5 -6.5q0 -1 -1 -3t-1 -3q-5 -5 -11 -17.5t-7 -13.5l-13 -25q-19 -26 -28 -55q0 -2 -2 -2l-13 -29q-2 -10 -10 -30q-3 -5 -7 -19t-7 -20q-11 -33 -14 -50q-1 -2 -2 -6t-2 -6.5t-2 -6.5t-1 -7 l-4 -8q0 -4 -1 -13t-1 -14q-2 -3 -5 -11t-5 -11q0 -4 -1 -13t-1 -14q0 -1 -3 -18.5t-7 -26.5q0 -10 -1 -29.5t-1 -28.5l-4 -10v-67l4 -9q-2 -2 -2 -6q0 -2 1 -4.5t1 -3.5q0 -11 1 -33t1 -34l4 -11q0 -5 1 -13.5t1 -12.5l4 -11q0 -16 2 -26q0 -4 2 -4q2 -4 2.5 -10t1.5 -11 t4 -8l11 -27q0 -1 1 -3.5t1 -4.5q0 -30 18 -57q0 -8 2 -14q15 -23 23 -41q2 -9 11 -22t11 -21q8 -23 27 -54q4 -6 8.5 -14t8.5 -15.5t9 -13.5q3 -4 10.5 -14.5t12 -16.5t9.5 -15.5t9 -18.5q6 -6 18 -21t19 -22q2 -2 5.5 -9t6.5 -10l19 -18q4 -8 2 -12q-6 -5 -21 -15.5 t-22 -17.5q-6 -2 -16 -10t-15 -11l-26 -18q-10 -5 -13 -8q-28 -25 -65 -51q-10 8 -27 30q-4 4 -10 14t-10 13q-9 6 -18 25t-13 24l-16 21q-3 5 -6.5 10.5t-8.5 12.5t-8 11l-49 74q0 2 -4 6q-13 18 -29 49l-12 21q-9 15 -25 51q-7 7 -20 33q-6 19 -19 35q-2 5 -6.5 18.5 t-7.5 20.5q-2 4 -4 11.5t-4 10.5q0 2 -12 31q0 6 -3 12q-1 6 -6 18t-6 19q-3 4 -4 8t-1 10.5t-1 10.5q-5 7 -9.5 20.5t-6.5 18.5q0 20 -2 30q0 3 -2.5 10t-2.5 11q0 12 -2 16v6q-4 9 -4 43q0 5 -1 14.5t-1 14.5q-4 9 -4 43z" />
<glyph unicode=")" horiz-adv-x="813" d="M100 123q0 2 1 4.5t1 3.5l17 19q23 23 26 28q0 2 2 2q21 26 29 39l8.5 8.5t8.5 10.5q5 7 15.5 24t16.5 25t16.5 25.5t16.5 25.5q4 0 4 4q1 8 10 22t9 15l18 39l6 6l6 14q3 17 13 33q6 18 8 21l4 12t6 14l10 29l3 6t3 7t0 7q0 3 3 9l4 8q2 8 2 28q10 25 12 54l4 8q0 3 1 9 t1 9v15q0 2 4 10v110q-4 8 -4 11q-2 16 -2 45q-4 8 -4 10q-2 10 -2 37q-6 18 -6 22q0 24 -4 29l-7 29q0 2 -4 11t-4 15q1 2 0 6l-2 5q-1 7 -8.5 23.5t-7.5 29.5l-4 12t-6 14l-13 35q-1 2 -2 5.5t-2 4.5l-16 43q-7 11 -10 25q-1 4 -3 8t-5.5 9t-4.5 8q0 6 -2 8q-4 5 -20 37 q-2 3 -10 14t-11 18q-6 8 -15 26l-11 22l-41 51q-5 7 -23.5 26.5t-23.5 32.5q0 8 8 16.5t16 12.5l19 14q21 25 41 37l8 8l8 10q6 5 27.5 19.5t31.5 23.5q27 -11 45 -36q2 -5 8.5 -12.5t8.5 -10.5l18 -20q4 -8 19 -23q6 -12 12 -20q19 -19 35 -48q0 -2 4 -6q7 -8 26 -37 q4 -4 9.5 -13.5t9.5 -12.5q2 -3 6.5 -16.5t9.5 -20.5l13 -25q1 -3 7 -13.5t7 -16.5q3 -10 11 -28.5t11 -27.5q11 -22 13 -24q2 -4 4 -12t4 -11q1 -3 3 -9.5t4 -11.5t5 -9q3 -5 6 -15.5t6 -15.5q0 -2 1.5 -6t1.5 -6q0 -13 4 -17v-4q1 -9 7 -27t7 -28q3 -5 5 -16.5t5 -16.5v-4 q1 -3 1 -9.5t1 -11t4 -8.5v-8q0 -3 1 -9t1 -9t4 -11q0 -18 3 -36q0 -2 1 -5t1 -4q2 -2 2 -6q0 -13 1 -35.5t1 -33.5q0 -7 4 -19q3 -71 0 -141q-4 -4 -4 -8q0 -7 -1 -20t-1 -19l-4 -11q0 -1 1 -4.5t1 -5.5q-3 -8 -3.5 -17.5t-0.5 -21t-1 -18.5q-6 -6 -6 -31q-4 -12 -4 -14 q-5 -25 -6 -27q0 -6 -3.5 -15t-4.5 -13q-6 -22 -8 -27q-3 -13 -11.5 -32.5t-11.5 -29.5q0 -2 -4 -10q-5 -9 -12 -27.5t-12 -27.5q-1 -7 -8 -20.5t-7 -14.5q-19 -39 -26 -55l-15 -19q0 -2 -4 -6q-7 -2 -13.5 -13t-8.5 -13q-4 -8 -17 -21l-24 -27q-1 -1 -2.5 -2t-2.5 -2t-1 -2 q-16 -22 -54 -53q-10 -13 -12 -14q-8 -4 -21.5 -17.5t-21.5 -17.5q-4 -4 -4 -6q-4 -9 -21 -12q-15 -15 -43 -35q-8 0 -10 4q-34 51 -47 71q-2 3 -7.5 12.5t-10.5 14.5q-7 3 -7 10q-26 43 -47 66z" />
<glyph unicode="*" horiz-adv-x="1005" d="M106 1317q-4 6 0 14l13 19l6 6q3 1 5 3t4 5t3 4l13 21l16 16l10 14t11.5 13.5t11 11.5t12.5 12.5t12 11.5l4 2h6l19 -10q13 -13 18 -14l11 -8q11 -14 32 -23l29 -26q25 -5 29 -7l4 2q2 1 3 2.5l2 3t3 3.5q0 18 -0.5 44t-0.5 45v43t1 44l4 6h109q2 1 4.5 2t3.5 1.5t2 0.5 q7 -4 18.5 -4h14.5q8 4 12 4q2 0 5 0.5t5 0.5h5t5 -1l2 -2q0 -4 1 -12.5t1 -12.5l-6 -14v-143l3.5 -7t4.5 -8t5 -6.5t6 -5t8 -1t10 4.5q3 1 12 3.5t15.5 4.5t11.5 6q4 0 8.5 1.5t9.5 3.5t9 2q2 2 6 2q20 10 55 24q6 1 16 6.5t13 6.5q2 2 8 2q3 -2 4.5 -4.5t2.5 -5.5t3 -5 v-12q14 -21 21 -45q0 -3 4.5 -9.5t5.5 -9.5q0 -3 3.5 -12t2.5 -16q0 -4 3 -14t3 -17q-7 -14 -24 -20q-23 -12 -35 -21l-19 -10l-14 -12q-3 -2 -10 -4.5t-10 -4.5q-15 -12 -33 -18q-17 -8 -10 -29q2 -5 5 -10t6 -9t7 -9.5t6 -8.5q18 -22 25 -38l3 -6t4 -6.5t5 -4.5 q3 -5 16 -26.5t17 -34.5q0 -6 -4 -6l-27 -19q-3 -2 -15.5 -6t-17.5 -10q-5 -2 -30 -17q-32 -20 -62 -30q-4 0 -6 2l-14 16q-1 2 -6.5 6.5t-6.5 7.5q-4 6 -10.5 15t-11.5 15.5t-10.5 14.5t-8.5 15q-6 6 -15.5 19t-10.5 14l-23 24l-14 10q-13 5 -20 -8q0 -11 -17 -28 q-5 -13 -16 -31q-20 -14 -33 -39l-14 -23l-23 -24q-17 -17 -41 -49h-4q-23 23 -41 32q-4 2 -11 10.5t-11 10.5q-10 5 -21 20q-5 11 -12 13q-7 5 -13 11t-15 17t-11 13q-1 4 -6 10.5t-6 9.5v6q3 4 13 24t21 29q4 4 10.5 13.5t10.5 13.5l20 23q2 5 9 12.5t8 9.5l8 17 q0 9 -1.5 13.5t-6 9t-6.5 7.5q-26 14 -45 33q-2 2 -8.5 4.5t-8.5 5.5l-14 17q-11 11 -23 16q-2 0 -6 4z" />
<glyph unicode="+" horiz-adv-x="870" d="M115 666q0 16 1 50t1 50q0 4 2 11.5t2 10.5q0 5 3 13t3 10q1 0 3 1t3 1h4q1 0 12 1t17 5q5 2 15.5 2t15.5 2q4 2 14 2q16 2 47 2q25 0 39 7q12 0 12 30v66q4 8 4 10q2 25 2 68q3 6 13 16q1 0 3 1t3 1q27 0 39 4q2 0 10 -4l10 6h105l4 -4v-133q0 -2 -4 -14q-2 -10 -2 -37 q-1 -2 -2 -5.5t-2 -4.5q2 -12 16 -19q16 0 46 -1t46 -1q2 0 10 -4h62q8 0 12 -2q7 0 12 -10v-31l-6 -10v-43l-6 -13v-73q-2 0 -2 -2q-4 -4 -6 -4q-18 0 -25 -5l-8 5h-31l-14 -5q-2 2 -8 2q-1 0 -4 -1t-4 -1q-10 0 -29.5 2.5t-28.5 2.5l-24 -15l-6 -10q0 -4 2 -12.5t2 -12.5 v-110v-45q-6 -9 -13 -13h-129q-16 0 -24 -4h-2q-6 3 -20 4.5t-19 6.5v12q0 26 1 76t1 75q0 17 -2 25l-21 23h-39h-75q-4 1 -10 1t-13.5 -0.5t-11.5 -0.5q-4 4 -4 6q0 6 -1 19.5t-1 19.5z" />
<glyph unicode="," horiz-adv-x="548" d="M92 248q0 18 2 22v2l4 35v2q2 1 4 6t4 7q6 3 13 16t8 14l16 15q13 9 17 10l18 14q4 2 12.5 4t12.5 4q4 -1 12 1t12 1q12 5 41 5q2 -1 6 -2.5t7 -3t6 -1.5q9 -3 14 -8q3 -4 12.5 -8t12.5 -8l22 -21q1 -2 6 -7.5t8 -9.5t5 -9q6 -19 16 -35q4 -16 4 -21v-16q0 -2 1.5 -21 t-1.5 -22l4 -8l-6 -21q-2 -6 -2 -21t-4 -22q0 -15 -14 -43v-6l-17 -33q-3 -13 -12 -22q-3 -7 -12.5 -18.5t-12.5 -18.5q-4 -4 -6 -4q-7 -3 -17.5 -13.5t-15.5 -13.5q-4 -2 -8 -10q-8 -2 -24 -10q-13 0 -15 -2h-18l-25 10q-4 0 -6 -2q-4 4 -6 4q-2 2 -8 2l-6 6q1 4 4.5 9.5 l3.5 5.5l10 10q1 3 5 8t5 8q10 15 13 17v6l10 22q14 27 10 31q0 6 3 18t3 17q-1 2 -4.5 5.5t-5.5 6.5q-5 0 -18 4t-21 4q-2 0 -7.5 2t-8.5 2q-1 0 -11 9.5t-16 11.5q-1 2 -11.5 10t-10.5 16v3q-8 11 -15 28v19q0 6 -2 8z" />
<glyph unicode="-" d="M94 700l4 15q0 12 1 38t1 40q0 8 4 16v29q5 0 5 4h49q2 0 14 4q32 0 93.5 0.5t112.5 0.5t95 -1l12 6h56l6 -6v-23l-6 -12q0 -23 -2 -35v-12q-4 -6 -4 -21v-59q-12 -22 -19 -25h-8h-131h-60q-24 0 -45 3q-2 0 -10 4h-112q-16 0 -41 6h-7q-1 0 -3 1t-3 1q-4 3 -2.5 13 t0.5 13z" />
<glyph unicode="." horiz-adv-x="528" d="M90 256q2 6 2.5 16t1.5 13l6 18v2q2 4 7 17t10 20q4 8 4 10q7 17 29 41q30 25 36 29q15 8 29 2q2 0 5.5 1t4.5 1h2q11 -8 29 -12q16 0 36.5 -12.5t26.5 -24.5q1 -3 8 -7.5t7 -9.5q1 -2 2.5 -4.5t2.5 -4.5t2.5 -4.5t2.5 -4.5q0 -6 6 -19.5t6 -21.5q0 -1 1 -4t1 -4 q0 -3 -1 -7.5t-1 -6.5q0 -21 -6 -39v-11q-3 -5 -7 -14.5t-5 -11.5q-4 -4 -4 -6q-4 -10 -8 -15q-10 -16 -23 -24q-2 -2 -5 -5.5t-5.5 -5.5t-6 -4.5t-7.5 -3.5q-2 0 -6 -3t-5 -3q-17 0 -20 -2h-4q-13 0 -17 -2q-1 -4 -18.5 -1t-18.5 3l-36 14l-19 17q-3 1 -5 3t-4 5t-3 4 l-6 12l-6 4q-1 1 -3 5.5t-4 5.5q-4 1 -8 9.5t-4 14.5q2 3 1.5 9.5t0.5 11.5q0 6 -4 10z" />
<glyph unicode="/" horiz-adv-x="1007" d="M49 96q0 5 6 29l11 20l22 50q5 9 10.5 25.5t7.5 21.5l17 32q2 7 7.5 18.5t6.5 14.5t7 15.5t6 19.5q4 4 4 8q6 12 16 35.5t16 34.5l9 22q2 6 10 23q0 2 3 9.5t3 12.5q5 9 13 30t16 34q0 7 5.5 18.5t6.5 16.5l14 35q4 12 16.5 36.5t16.5 36.5q1 1 4.5 13t7.5 18q0 5 4 14.5 t4 14.5q8 14 15 34q2 3 5 11.5t5 11.5q3 3 4 6.5t1.5 8.5t2.5 8l13 30q11 19 16 33q0 2 12 31q1 3 23 47q1 3 3 10t4 12t5 9q3 5 6 15.5t6 14.5l11 31l12 29q2 4 4 12t4 12q1 6 9.5 21t8.5 24l11 27q8 21 10 29q3 6 6.5 14.5t7 16.5t6.5 14q0 7 9 20q2 3 6 11t6.5 13.5 t3.5 10.5v4q2 3 7.5 13.5t8.5 16.5t6 16t3 18l16 34l2 8t3 7.5l4 7t3 7.5t2 7q0 1 1 3t1 3l35 70l6 6q23 -8 37 -10l25 -6q1 -1 22 -6q22 -13 35 -13q32 -16 53 -16q1 -1 4.5 -1t4.5 -1q4 -3 8.5 -4t9.5 -1t8 -1l19 -6q5 -8 2 -17l-13 -26l-16 -50q-3 -12 -10 -26l-17 -39 q-5 -14 -16 -33q-2 -5 -16.5 -36t-20.5 -48l-18 -37q-1 -3 -4 -7t-5.5 -9t-3.5 -10q-2 -9 -12 -26.5t-12 -27.5q-1 -4 -10 -22l-15 -29q-7 -17 -10 -33q-1 -2 -7 -18.5t-11 -24.5q-2 -4 -5.5 -14t-7.5 -14q-2 -12 -10 -31q-2 -4 -14 -33q-1 -1 -13 -32q0 -2 -1 -5.5t-1 -5.5 q-5 -6 -11 -26.5t-13 -26.5l-4 -12t-4 -15l-11 -24l-8 -21q0 -2 -1 -6.5t-1 -7.5q-8 -8 -12 -27q-7 -11 -10 -22q0 -3 -3.5 -9.5t-3.5 -9.5l-6 -16q-5 -7 -11 -23t-11 -22q-2 -2 -2 -4q-1 -6 -5.5 -15t-8 -17t-3.5 -15q-4 -8 -4 -12l-10 -21q-3 -11 -10 -22q-2 -9 -21 -56 q-3 -5 -14 -37q0 -4 -4 -12t-4 -12q-2 -2 -2 -6q-10 -10 -13 -25l-22 -45l-8 -23q-2 -4 -4.5 -11.5t-4.5 -10.5q-2 -5 -7.5 -15.5t-6.5 -17.5q0 -1 -2 -4t-2 -4l-6 -8q-4 -15 -27 -60q-3 -6 -7 -19.5t-7 -19.5q-12 -25 -14 -36l-7 -7q0 -4 -4 -4q-10 -3 -30 7q-11 7 -41 16 h-4q-32 16 -56 24h-8q-2 1 -13.5 6.5t-17.5 6.5q-3 0 -8 3t-8 3h-10z" />
<glyph unicode="0" horiz-adv-x="1206" d="M90 717q0 3 1 7.5t1 6.5q-2 6 -2 17q0 4 2 10.5t2 9.5v53q0 7 1 21.5t1 21.5q0 8 2 10q0 3 -1 8t-1 7v24q4 16 4 27q0 1 1 2t1 2q0 8 2 25t2 26q0 3 1.5 11t1.5 12q4 8 4 12v12l4 13q0 4 -2 6q2 2 2 10q0 5 2 15.5t2 15.5q0 1 1 3t1 3q4 12 4 20q4 26 8 39q4 8 4 11 q1 7 8 25t7 30q0 1 1 2t1 2q20 40 22 49l10 14l13 21q2 2 2 4l8 16q7 7 14 21q8 8 8 14l9 13l14 16q2 2 7 6.5t8.5 7.5t8.5 6.5t9 4.5q5 4 17 13.5t18 14.5q6 0 8 2q6 5 22 14t23 15q4 3 14 9l15 9q6 0 18 6.5t18 6.5q14 4 19 10q7 -1 20 0.5t17 1.5l14 6q8 0 14 -2 q24 6 27 6q4 0 12.5 1t12.5 1q6 0 10 -2h28q7 0 9 -2q4 -2 24 -2h8q4 -2 23 -2q2 0 5 -1t5 -1l2 -2q4 0 16 -1.5t19 -0.5q8 -3 21 -10t16 -9l20 -12h7l20 -12q18 -9 33 -21l30 -24q18 -14 21 -21q2 -2 4 -2q2 -2 12 -16q24 -30 39 -62q17 -17 19 -28v-2q7 -15 10 -25 q0 -6 8 -26q-1 -4 1.5 -12t2.5 -11q2 -3 2 -18q8 -24 8 -31l9 -33q2 -6 2 -16l4 -11v-28q0 -9 4 -17q0 -3 1 -8t1 -8q0 -25 8 -41q-2 -2 -2 -4l4 -23q0 -2 -2 -4q1 -2 2 -4.5t1.5 -3.5t0 -3t-1.5 -3q0 -2 1 -5t1 -5v-27q0 -15 2 -18v-11q0 -12 4 -20q0 -31 2 -37 q-2 -3 -2 -18v-13q2 -8 2 -24l-2 -4q4 -11 0 -15q0 -2 1 -4.5t1 -3.5q-3 -13 2 -31l-4 -6v-67q-1 -4 -1.5 -11.5t-2.5 -9.5q0 -2 1 -6t1 -6q-2 -4 -2 -14v-15l-4 -12q1 -5 -0.5 -11.5t-1.5 -8.5q1 -14 -4 -54l-6 -32q-4 -10 -4 -35q-4 0 -4 -4q0 -26 -11 -56q0 -3 -1 -7.5 t-1 -6.5q-6 -18 -6 -25q-3 -3 -8 -18v-2q-4 -4 -6.5 -9t-4.5 -11l-3 -9l-19 -30q-1 -1 -10.5 -15t-15.5 -20q-1 -4 -3.5 -8.5t-7 -9.5t-6.5 -7q-10 -14 -37 -41q-2 -1 -16.5 -9.5t-21.5 -12.5l-19 -17h-10q-17 -12 -19 -14q-1 -3 -5 -5.5t-9.5 -5t-7.5 -3.5q-2 0 -6.5 -2.5 t-5.5 -2.5h-15q-12 -10 -41.5 -19t-38.5 -13q-10 -4 -30 -8h-9q-18 -7 -36 -7q-13 0 -17 -2q-2 2 -6 2h-4q-4 -2 -8.5 -2t-10 1t-8.5 1h-6q-16 0 -49 11q-2 0 -4.5 1t-3.5 1q-15 6 -29 6q-3 0 -7.5 1t-6.5 1h-4q-9 7 -31 16h-8l-4 4l-31 15q-16 5 -18 8q-5 0 -13.5 5 t-13.5 5q-3 3 -14.5 9t-16.5 12q-3 5 -14 12q-16 12 -25 27l-8 8l-31 30l-10 19q-11 15 -14 31q-4 4 -4 6l-4 8q0 6 -2 10q-4 5 -7.5 16.5t-7.5 16.5q2 12 -6 35.5t-8 34.5q0 4 -2 6q-2 6 -4 19.5t-4 19.5q0 1 -2 16.5t-4 22.5q-1 2 -4 13t-3 17q2 2 -2 10l4 7q-4 8 -4 10 q0 16 -2 24q0 7 -2 22t-2 23q0 5 -2 11q1 3 1 8.5t1 7.5v6q-2 4 -2 13v20q-2 6 -2 21v6q0 4 -2 6zM367 668q2 -6 2 -19q-1 -8 1.5 -24t2.5 -21q0 -1 1 -4t1 -4q0 -31 2 -37q3 -10 0 -20q0 -3 2 -9.5t2 -9.5q-1 -3 0.5 -8.5t1.5 -7.5q4 -12 4 -17q8 -12 8 -18q4 -12 8 -16 q5 -7 13.5 -22.5t13.5 -22.5q11 -19 35 -29q13 -10 59 -25q5 0 15.5 -2t17.5 -2q6 0 8 -2h10q9 0 21 4l29 15q12 6 24 18q2 2 6 4.5t6.5 4t5.5 4t5 5.5q19 24 28 46q4 15 11 22q0 8 5 24.5t5 24.5q4 12 4 19q4 8 4 12v6q6 36 6 37q-1 4 0 10.5t0 9.5q2 3 2 21v35q0 2 1 5.5 t1 4.5q0 10 -2 14v2l6 21q-5 8 -2 20q0 1 1 3t1 3v45q0 1 -1 3.5t-1 3.5q2 23 2 67l-6 8l6 11l-6 10q3 4 3.5 7.5t-0.5 9t-1 7.5q3 13 0 27v23q-2 4 -2 12v14l2 4q-4 8 -4 11v18q0 4 -1 12.5t-1 12.5l-6 30v6q-10 35 -10 39q-2 2 -4 7.5t-4 7.5v6q-9 8 -11 16l-12 21 q-5 10 -29 32q-6 8 -39 31q-8 5 -40 10q-5 -1 -14.5 -1t-12.5 -1q-5 -1 -11 -2.5t-11.5 -3t-8.5 -2.5q-2 0 -4.5 -1t-3.5 -1q0 -4 -4 -4q-5 -1 -9 -2.5t-9 -5t-7 -5t-7.5 -6.5t-6.5 -6q-23 -15 -31 -34l-12 -23q-3 -12 -12 -18q-4 -23 -8 -31q-2 -10 -6.5 -31.5t-6.5 -32.5 l-6 -30q2 -2 2 -6l-10 -60q3 -9 0 -18v-15v-14q-1 -2 -1 -7t-1 -7v-8q-4 -6 0 -19q0 -1 -1 -3t-1 -3v-33q-3 -6 -2.5 -19.5t-1.5 -21.5q4 -15 -2 -26v-39q-4 -3 -2.5 -11.5t0.5 -11.5q4 -8 0 -24z" />
<glyph unicode="1" horiz-adv-x="952" d="M76 1083q0 2 2 2q6 19 33 39q11 11 18 25q13 18 18 20q5 6 10.5 13t10.5 12.5t11.5 12.5t10.5 12q4 2 7.5 5t6.5 6t7 5q2 2 22 29q1 0 5 4q4 0 4 2q1 3 5.5 6t6.5 6q4 8 8 12h6l15 19q4 4 8 4v2l4 8q15 15 18 21l7 7t9.5 8t8.5 7q17 22 22 31q2 4 8.5 10t8.5 10 q10 10 12 13l6 6q7 2 15 14q5 6 14.5 14.5t11.5 10.5q5 0 12.5 -1t8.5 -1q3 1 14.5 3.5t17.5 2.5h21q8 0 14 2q2 -2 4 -2h2q4 2 15 2h76q6 0 10 -2q12 4 18 4q3 1 9 0t8 0h10h4q16 2 45 2q2 -2 2.5 -5.5t1.5 -4.5v-11v-16q0 -4 2 -6q-1 -1 -2 -4.5t-2 -5.5v-21q-2 -8 -2 -24 v-23q0 -6 -2 -12q2 -2 2 -4v-13q0 -2 1 -5t1 -5q-1 -2 0.5 -6.5t1.5 -5.5q-4 -19 2 -33v-182q0 -11 -2 -15q0 -24 2 -28v-2q0 -34 -2 -41v-10v-27q4 -26 0 -41q0 -4 2 -8q0 -2 -4 -10q2 -4 1.5 -17t2.5 -20q-4 -4 -4 -19q0 -92 2 -137q0 -3 -1 -10t-1 -12v-25q0 -17 -2 -21 v-4q2 -6 2 -39q1 -2 0 -5t0 -5q0 -31 -2 -37q0 -1 1 -4t1 -4l-4 -4q2 -4 2 -10q0 -2 1 -5.5t1 -4.5q0 -2 -1 -6.5t-1 -6.5q0 -23 -2 -28v-7v-102q0 -15 -1 -44.5t-1 -45.5q0 -3 1 -11t1 -12q-1 -2 -1.5 -9.5t-2.5 -10.5v-12q0 -13 -2 -19q0 -2 2 -4q-2 -2 -2 -12v-78 q0 -8 -2 -12q-16 -5 -23 -2q-1 0 -4 -1t-4 -1l-8 4q-23 0 -27 2q-8 0 -22.5 -2t-22.5 -2q-6 0 -19.5 -1t-19.5 -1q-25 0 -30 -2h-3q-9 2 -55 2q-15 7 -10 12q0 5 -2 16.5t-2 16.5q0 3 -1 9t-1 9q-4 12 2 21q-3 9 -3 17t1.5 17t1.5 15v104q0 13 2 17v77q0 3 -1 8.5t-1 8.5 t1 8t1 8q0 2 -1 8t-1 9q4 12 0 20q5 14 0 21q2 0 1 18l-1 18q2 6 2 17q-2 8 -2 26v27q0 1 -1 4.5t-1 5.5q0 1 1 5t1 6q0 8 2 12q-3 5 -1.5 13.5t-0.5 14.5q6 16 0 31q6 13 0 25q2 4 2 10v68q0 3 1 8t1 8q-2 4 -2 16v39q-2 4 -2 13q2 4 2 12q-1 2 0 6t0 6v12q0 5 -2 9 q5 12 0 26q0 1 0.5 2.5l1 3t0.5 2.5v35q0 2 1 7t1 8q1 3 -0.5 16t0.5 14v6q-2 0 -1 16.5t1 18.5v8q-4 5 -18 15q-21 -7 -29 -21q-5 -10 -17 -18q-14 -20 -14 -21l-16 -14q-3 -5 -11.5 -12t-9.5 -8q-14 -17 -26 -27q-7 -4 -7 -6q-2 -3 -14 -15l-20 -16l-17 -20l-4 -4 q-6 -3 -10 -11l-6.5 -6.5t-7.5 -5.5l-4 -6l-11 -6q-6 0 -13.5 7t-10.5 13q-10 12 -23 21q0 4 -2 6l-22 26l-15 13l-14 14q-4 6 -9 11.5t-12 12t-10 9.5q-8 12 -10 18z" />
<glyph unicode="2" horiz-adv-x="1071" d="M94 106q1 8 1 17t-0.5 20t-0.5 17q1 2 0 5.5t0 4.5q2 6 2 14v13q0 5 1 16t1 16q0 7 2 11q0 6 2 8q-5 11 -2 24q7 24 4 47q0 4 2.5 12t2.5 11q-1 2 0.5 7t-0.5 7q9 18 14 25q8 8 10 14q2 3 5 6l5.5 5.5l5.5 5.5t5 6l4 6t7 7t7 7l23 27q8 8 21.5 25.5t19.5 23.5 q18 23 22 29l4 2q6 11 23 33q1 0 2 1t2 1q11 21 16 24l4 8q1 1 43 50q2 4 10 12q1 3 5.5 8t5.5 6q23 30 30 39l13 10l6 15l10 8q2 2 4 5.5t3.5 6t4 5t5.5 3.5q2 3 13.5 18t16.5 23q17 17 41 49q6 6 6 11l9 6q1 2 8 12.5t12 15.5q2 6 9.5 14t8.5 9l15 23q18 18 18 30 q2 5 4.5 11.5t4 11.5t4 12t3.5 13t2 14t1 16v43l-9 18q-8 32 -18 52q-1 2 -4.5 7.5t-3.5 8.5q-9 8 -31 33l-12 6l-15 6q-6 0 -14 4q-10 0 -14 4q-14 -5 -15 -4q-15 -6 -45 -6l-4 -2q-21 -14 -37 -22l-10 -9q-5 -11 -24 -34q-13 -35 -13 -54q-3 -5 -5 -17.5t-5 -17.5 q-2 -6 -3 -18t-3 -18q-8 -1 -26.5 1t-24.5 -1h-17q-3 -1 -7.5 -1t-6.5 -1q-6 -3 -10 -3q-5 3 -10 0q0 3 -5.5 1.5l-5.5 -1.5h-39q-3 0 -19 -2.5t-19 0.5q-10 3 -19 0h-2q-4 1 -5 3.5t-1.5 7t-1.5 6.5q2 10 2 35v30q6 12 2 27q2 5 1.5 18.5t2.5 18.5v20q0 9 2 13v8q2 4 2 10 q0 8 1 21t1 22q6 6 6 18q0 5 2.5 12t5.5 14t3 13q5 16 4 19q3 4 6 13t6 13q9 22 16 29q2 2 14 17t21 20q5 6 11 11t17 12t13 8q8 5 21 12.5t24 14t21 12.5q2 1 16 10q4 0 6 -2q4 2 12 2h5l8 4q0 -2 4 -2q1 0 4 1t4 1q8 0 23 1t22 1q4 2 14 2h17q4 2 16 2h15q4 0 8 2 q2 -2 4 -2q8 1 22 -0.5t19 -1.5q4 0 11 -2t11 -2q7 0 11 -2h8q43 -7 92 -35h4q11 -9 16 -16q2 0 5 -1t5 -2.5t4.5 -3t5 -4t4 -4.5t4 -4.5l3.5 -3.5l19 -14l14 -14q4 0 4 -3q4 -6 11 -13t13.5 -14t10.5 -14q16 -16 20 -26l10 -10q8 -16 17 -25q1 -4 3 -11.5t3 -14t0 -11.5 l6 -8v-12q2 -3 4 -6.5t3 -7t2.5 -7t2.5 -6.5v-14q7 -18 7 -27q0 -12 4 -20q0 -11 2 -13v-32q-2 -6 -2 -33q0 -2 -1 -6t-1 -6v-5q0 -6 -2 -8q2 -2 2 -4q0 -4 -1 -10.5t-1 -9.5q-3 -8 -9.5 -30.5t-11.5 -33.5q0 -6 -3 -17t-3 -16q-1 -2 -4 -6t-5 -6.5t-3.5 -6t-1.5 -7.5 q-8 -22 -21 -56l-18 -24q-2 -2 -2 -8q-12 -9 -19 -23q0 -2 -2 -4t-2 -4l-18 -23q-2 -9 -13 -24.5t-14 -20.5l-27 -34q0 -3 -8 -7q-3 -12 -12 -24q0 -4 -4 -8q-17 -22 -23 -35q-32 -32 -41 -47q-5 -2 -11 -10t-7 -9l-14 -16q-15 -14 -29 -27q-4 -8 -16 -24q-2 -4 -8.5 -11.5 t-8.5 -11.5q-10 -6 -16 -16l-17 -21q-19 -26 -26 -36q-8 -7 -8 -13q-13 -10 -11 -24q4 -4 7 -4q3 -3 6 -3q7 0 18 -16q15 0 21 4l6 -4l16 6q1 0 2 -1t2 -1q8 2 23 2h53q2 0 4.5 1t3.5 1q17 -4 27 0q2 0 6 -1t6 -1h12q13 0 15 -2h20q5 0 12 -2t11 -2h53q6 0 16.5 1t16.5 1 q16 -2 35 0h24q4 0 12 4q5 0 7 -2l4 2q1 0 3 -1t3 -1q12 4 18 2v-14q2 -4 2 -12q0 -9 2 -13q0 -6 -2 -10v-6v-12q-2 -2 2 -11q-4 -4 -4 -20v-84q0 -10 -2 -18q5 -10 0 -17v-39q0 -2 -2 -2q-7 -2 -24.5 0t-26.5 0h-4q-4 0 -6 -2l-9 4q-2 -2 -6 -2q-8 2 -26 2q-13 0 -21 2h-71 q-2 0 -8 1t-9 1q-1 0 -3 -1t-3 -1h-16q-4 0 -10.5 1t-10.5 1q-4 2 -12 2q-2 2 -8 2q-3 0 -10 -1t-11 -1q-15 0 -18 2q-4 -2 -15 -2q-17 0 -20 2q-5 -4 -16 0h-9q-12 -4 -18 0q-36 0 -43 -2q-5 -2 -14 2q-8 -3 -22.5 -2.5t-22.5 -1.5q-3 0 -9.5 1t-9.5 1q-10 0 -14 2 q-3 -2 -23 -2h-43h-30h-29h-14q-11 0 -15 -2h-18q-17 -4 -23 0q-2 -1 -7 -0.5t-7 -1.5h-41q-3 0 -21 6l-6 -4q-4 4 -4 6z" />
<glyph unicode="3" horiz-adv-x="1130" d="M94 508q2 2 8 2h7q12 5 24 0q6 0 16.5 1t14.5 1h24q6 2 17 2q4 0 12 -4q3 3 8 3t11 -1.5t10 -1.5q10 0 16 -2h10q6 3 19.5 2t19.5 2q1 0 2 -1q7 -1 10 -2.5t6 -5t3 -9.5q0 -3 6 -27v-8q0 -13 8 -41l14 -21q1 -1 3 -1.5t3.5 -1t3.5 -1.5t3 -2q1 -2 3 -3t5 -1.5t4 -1.5 l39 -12q16 -2 47 -2q25 0 49 12q32 20 45 37l13 16l12 21l14 32q4 8 4 9q6 6 6 14q0 2 1 6t1 6l5 15l4 6q0 6 -2 8q7 15 0 25q2 2 2 8q0 4 -1 11.5t-1 12.5l-9 23q-1 2 -4 11.5t-6 12.5l-24 29q0 2 -2 2h-3l-30 19l-4 4l-35 10h-6q-13 0 -17 4q-5 -1 -11.5 0.5t-8.5 1.5h-43 q-8 0 -24.5 2t-24.5 2q-2 2 -4 2v4q0 16 2 19v2q0 7 1.5 27.5t0.5 31.5q0 12 2 39t2 39q0 4 0.5 9t1.5 8.5t1.5 8t0.5 7.5l4 4q4 0 8 -2q2 2 6 2q13 -3 34.5 1.5t31.5 2.5h14q2 0 6 2t6 2l25 6l21 10q1 0 6 5l20 20q12 18 14 20q0 1 1.5 3.5t1.5 3.5q10 10 10 14 q10 25 10 33l6 6l4 24q0 6 3 19.5t3 19.5q0 52 -26 97q-8 4 -10 8q0 2 -5 12l-24 23q-24 20 -60 20q-1 0 -3 1t-3 1q-2 -1 -5 -1t-5 -1q-4 0 -13.5 -2t-13.5 -2q-3 0 -7.5 -1t-6.5 -1q-5 -2 -18.5 -6t-20.5 -8q-2 -6 -10 -13.5t-10 -9.5q-4 -5 -12 -12t-9 -8 q-14 -32 -16 -43l-8 -23q-2 -2 -11 -2h-32q-9 0 -26.5 -2.5t-30 -2t-21.5 6.5q-16 -4 -23 -4q-4 0 -12 -1t-12 -1q-13 -3 -29 0q-1 2 0.5 5.5t1.5 4.5v12q0 1 1 4.5t1 4.5q0 3 -1 8t-1 8q2 5 4 15.5t4 15.5q0 4 2 12t2 12q0 2 1 6t1 5q4 13 10.5 36t10.5 35l12 29 q20 41 29 51v6q7 3 10 13l12 16q11 8 21 25l14 10q2 0 6 2l7 8l22 14q22 11 25 11q20 8 26 8q20 10 27 10q16 4 24 8q1 0 3.5 -1t3.5 -1q2 0 6 4q4 -2 14 -2q14 5 23 0h18h12q12 -4 19 -4q3 0 7.5 1t6.5 1q4 -2 14 -2h29q8 0 12 2q0 2 1 2t1 -2q9 0 29 -4q3 2 12.5 0.5 t12.5 -0.5l26 -10l35 -10q1 0 6 -5h13l22 -12h4l21 -10h4q11 -11 16 -12q4 0 8 -4q8 -9 27 -25h6q18 -30 33 -39q0 -2 2 -2q2 -3 12 -17.5t15 -23.5q3 -9 7.5 -17.5t9.5 -17.5t7 -18l10 -25l7 -22q0 -6 1 -18t1 -17q2 -2 2 -6q0 -1 -1 -6.5t-1 -10.5q5 -10 0 -20 q3 -8 2.5 -21.5t1.5 -21.5q0 -4 -2 -6q0 -1 1 -3t1 -3q-1 -2 -2 -9t-2 -10q0 -14 -2 -24q0 -12 -2.5 -25t-8 -30.5t-6.5 -22.5q0 -4 -2 -4q-3 -3 -6.5 -14t-3.5 -17q-14 -36 -33 -57l-16 -19l-6 -10q-2 -1 -5.5 -4t-6.5 -5t-7 -3q-3 -4 -11 -10.5t-11 -10.5q0 -2 -1 -6 t-1 -6v-2q1 -1 2 -2.5t2 -2.5t2 -1q6 -3 15.5 -11t14.5 -10q15 -6 23 -14l27 -25q6 -6 12 -18q4 -4 14 -19l19 -20q4 -4 4 -10q7 -16 16 -29l14 -55q0 -2 1.5 -10t3.5 -13v-16q4 -8 2 -12q2 -8 2 -52q0 -2 2 -2q-2 -4 -2 -14v-12q-2 -4 -2 -13q-5 -10 -5 -30q-4 -16 -4 -25 q-4 -16 -2 -24q-5 -5 -6 -7q0 -8 -6 -20q-5 -7 -10 -31q-6 -8 -15.5 -33.5t-19.5 -35.5v-9q-4 -2 -8 -6t-6 -7t-5 -9l-4 -8t-7.5 -9t-8.5 -12q-6 -6 -14 -18l-15 -13q0 -2 -2 -2q-36 -30 -39 -32q-14 -5 -18 -13q-23 0 -43 -20q-5 0 -18 -10q-20 0 -39 -13h-11q-4 -4 -6 -4 q-6 -2 -16 -2l-14 -4l-5 -4l-24 -6q-10 0 -14 -2h-13q-3 -2 -9 -0.5t-9 0.5q-4 -2 -12 -2q-20 5 -27 2q-3 1 -11 1t-12 1q-1 0 -3.5 1t-4.5 1q-1 0 -2.5 -1t-3.5 -1q-9 5 -14 2l-6 4h-5q-11 0 -30.5 3t-28.5 3q-13 0 -16 2q-2 -2 -4 -2q-6 3 -13.5 5t-16 4t-13.5 3 q-54 9 -74 29q-24 18 -25 19q-15 0 -28 26l-15 10q-4 11 -12 19q-11 8 -18 26l-7 9q-16 32 -22 53q-4 8 -8 24q0 1 -1 3.5t-1 3.5v6l-7 12q0 6 -1 18t-1 17q0 2 -1 7t-1 7q-2 4 -2 19q0 1 1 4.5t1 5.5q-2 2 -2 4q0 5 -2 14.5t-2 14.5q0 2 -0.5 5t-1 5.5t-1 5.5t-0.5 5.5v5 t1 5t2 4.5q-2 3 -2 19z" />
<glyph unicode="4" horiz-adv-x="1271" d="M72 475v45q0 4 1 12.5t1 12.5v33q0 16 4 26q0 6 -1 22.5t-1 24.5q2 6 2 35q0 20 2 23q-1 2 0 6.5t0 7.5q0 6 -2 12q7 9 12 21t10.5 28.5t8.5 24.5l10 20q0 1 4 7.5t4 11.5q3 4 7 13t7 13q1 5 6.5 13.5t6.5 13.5h2q6 7 12.5 20t9.5 17q0 1 1 2t1 2q2 6 5 13t7.5 14.5 t6.5 11.5q4 12 6 14q5 16 23.5 42.5t23.5 45.5q2 1 5 6t5 7q26 47 33 61q2 2 5 8.5t5 8.5q8 12 8 18q4 4 7.5 9t6.5 12t5 10q7 11 10 22l14 25q7 14 13 20q4 4 4 10l20 35q8 13 10 19q0 3 7 10q-1 5 3 11t5 9q0 4 6 11t6 12q2 2 2 8l35 47q0 4 2 6l12 19h11l12 6h20 q2 2 11 2h28q6 0 10 -2l2 2q2 0 7.5 -1t7.5 -1l10 -4q26 7 45 2q10 -3 19 0q2 0 6 -2q4 4 14 4h14h25h20q4 -4 7 -4l-5 -6q-18 -38 -28 -56q-1 -2 -17 -28q-2 -3 -4 -10t-4 -9l-10 -18q-2 -2 -2 -10l-18 -27q-10 -15 -29 -53q-2 -2 -3 -4.5t-2 -4.5t-3 -3l-2 -3 q-1 -5 -6 -11t-5 -7l-26 -55q-5 -9 -14.5 -29t-14.5 -29q-5 -5 -8 -14q0 -4 -4 -10t-4 -8q0 -1 -6.5 -13.5t-8.5 -19.5q-3 -15 -12 -27l-10 -20q-1 -2 -9 -18.5t-10 -24.5q-6 -6 -12.5 -21t-9.5 -20q-2 -4 -5.5 -12t-6 -12.5t-6 -10.5t-7.5 -10q-4 -14 -8 -21l-16 -39v-6 q-2 -3 -6.5 -10t-6.5 -12q0 -2 -3 -6t-3 -5v-12l8 -8l21 -4q2 2 4 2t4 -2q8 4 10 4h21q4 0 6 2h14h15q0 -1 1.5 -1t2.5 -1q3 0 10.5 2.5t11.5 1.5q3 -2 21 -2q5 -1 30 4q3 0 5 2l8 -4h55q2 0 4.5 -1t3.5 -1h6q5 0 13 -4q8 0 12 -2q1 0 4 1t4 1l6 14v4l-4 4q0 1 1 3.5t1 3.5 t-1 3t-1 3q0 3 1 9t1 9q0 1 1 4.5t1 6.5t-2 6q3 7 3.5 20.5t2.5 19.5v5q0 22 5 39q4 2 14.5 4t15.5 4q2 0 6 4q2 0 7.5 1t7.5 1q8 3 16 0q1 0 3 0.5l4 1t4 0t3 -1.5q3 0 11 4q1 0 6 -1t8 -1q10 0 14 -4l15 4q2 0 5 -1.5t5 -0.5q3 -3 14 -0.5t13 2.5h41q4 -1 16.5 -0.5 t17.5 -1.5q0 -20 2 -23q-2 -2 -2 -6v-22v-37q0 -7 -4 -15q0 -1 1 -3.5t1 -4.5q-2 -5 -2 -35l-6 -16l4 -6q-4 -8 -4 -14l6 -7q2 0 3.5 -1t3 -2.5t3.5 -2.5q15 0 23 8q4 -1 17 -0.5t18 -1.5q1 0 3 1t3 1q2 0 5.5 -1.5t6.5 -1.5t6 3q10 -5 15 -4q2 0 10 4q6 -2 35 -2q6 -3 6 -8 q-1 -4 -0.5 -17t-1.5 -18q-2 -2 -2 -10v-28q0 -20 -2 -23v-74q0 -2 -1 -6t-1 -6q2 -2 2 -4v-17q1 -2 1 -6.5t1 -7.5v-33q0 -2 1 -6t1 -6q0 -4 -2 -8q0 -7 -2 -8q-6 -1 -45 4q-2 0 -6.5 -1t-6.5 -1q-1 0 -4.5 1t-5.5 1q-1 0 -4.5 -1t-5.5 -1q-5 0 -15.5 2t-15.5 2l-12 -6 l-10 -8v-132q-3 -6 0 -12q0 -2 -2 -18.5t2 -18.5q0 -1 -1 -3t-1 -3q0 -6 -2 -17.5t-2 -17.5q0 -17 -2 -20v-17q0 -3 -1.5 -10t-1.5 -10v-47q-2 -2 -8 -2q-4 -2 -12 -2h-10q-1 0 -2.5 -0.5t-3.5 -1t-4 -0.5h-44q-10 0 -12 -2q-12 4 -18 0h-8q-10 4 -27 0h-2q-2 0 -6 1t-6 1 h-11q-5 0 -12 1.5t-12.5 2t-12 0t-10.5 -3.5q-2 2 -6 2h-8q-2 2 -8 2q-1 0 -3.5 -1t-4.5 -1l-5 4q-1 0 -4 1t-4 1q-2 2 -2 12v13q-2 4 -2 12v12q2 18 2 55v136q0 14 2 16q0 2 -1 3.5t-1 2.5t1 2t1 2v43q-9 18 -16 23h-16h-5q-4 2 -22 2q-40 0 -47 -2q-1 0 -2 1t-2 1 q-11 0 -17 -2q-9 3 -18 0h-10q-6 4 -29 4q-4 -2 -11.5 0t-9.5 2q-6 -1 -16.5 0.5t-15.5 1.5q-1 0 -17 1.5t-18 -1.5q-2 2 -4 2q-1 0 -4 0.5t-5.5 0.5t-5.5 -1q-3 0 -11 2t-13 2q-4 0 -13 -1t-14 -1q-12 -2 -39 -2h-16h-14q-8 -3 -17 0h-8q-4 2 -27 2h-4q-6 2 -16 2 q-8 0 -12 -2q-2 0 -6.5 1t-6.5 1h-4q-6 -2 -15.5 -2.5t-12.5 -1.5q-25 0 -37 2q-11 0 -15 2h-16z" />
<glyph unicode="5" horiz-adv-x="1153" d="M94 475q2 2 2 12q0 29 2 45q0 11 2 17v16q0 14 6 23q12 4 19 4q8 0 16 -8l15 6q2 -2 4 -2q3 0 9 1t9 1q11 0 17 2h4q5 -2 28 -2h23q1 0 5 -1t7 -1q4 0 6 2q1 0 4 -1t4 -1h21q11 -4 16 2h29l8 -4q0 -2 4 -6q0 -18 2 -21q0 -2 -1 -5t-1 -5q0 -15 -2 -19v-26q2 -2 2 -6v-25 l4 -22q0 -12 7 -29.5t14 -24.5q1 -3 3 -6.5t3 -5.5t4.5 -5t4.5 -4.5t5.5 -4.5t5 -3.5t6 -4l5.5 -3.5q3 -1 26 -10q5 1 15.5 -1t15.5 -1q4 -4 6 -4h10q3 0 8.5 -1t10.5 -1t10 2h6q3 0 8.5 1t8.5 1l12 3t15 3.5t12 1.5q3 1 8.5 5t11 7t10.5 3l8 12h7q8 6 20.5 20t13.5 15l9 16 l18 43q0 5 2 12t2 11q0 2 1.5 8.5t0.5 9.5q2 5 4 15.5t2 11.5q-2 1 -1 18l1 17v26q1 6 -0.5 17t-1.5 14q-3 4 -4.5 14.5t-3.5 14.5q0 2 2 4q-8 11 -12 26q0 1 -1 3t-1 3q-1 4 -4.5 9t-3.5 6q0 3 -2.5 7.5t-3.5 6.5q0 3 -9 12q-1 1 -2 5t-2 6q-17 17 -22 20q0 2 -4 10 q-1 0 -3.5 1t-3.5 1q-10 12 -41 33l-18 12l-16 13l-25 10l-18 8q-24 5 -29 4q-23 0 -43 10h-55q-9 0 -27.5 1.5t-28.5 1.5q-16 0 -22 2h-14q-7 0 -11 2h-6q-4 -1 -29 4q-4 -2 -14 -2q-8 4 -12 2q-2 -1 -5 0.5t-5 1.5q-1 -1 -7.5 -1.5t-9.5 -2.5h-22q-27 0 -41 -6l-4 18v2 q2 8 2 47q1 7 1 23t1 24v19q-2 4 -2 22q2 4 2 10q2 6 0 18.5t0 18.5q2 4 2 15q0 4 1 9.5t1 10t-2 8.5q2 2 2 11q0 24 2 36q0 19 2 23v57q4 4 0 17q2 4 2 16l1 20.5t-1 20.5q0 20 6 35v31q4 16 4 45q0 4 2 8q-2 2 -2 6q0 35 2 41v16q0 7 2 11q0 1 1 3.5t1 4.5q5 1 17.5 0.5 t15.5 1.5q19 -6 37 0q3 0 7.5 -1t6.5 -1t5 0.5t5.5 1t4.5 0.5h12q1 0 4 -1t4 -1t5.5 1.5t6.5 0.5q3 0 11 4q1 0 2 -1t2 -1t3 -1t3 -1q5 1 15.5 -1t15.5 -1q2 2 4 2q1 0 2 -0.5t2.5 -1t3.5 -0.5l8 4h33q4 2 12 2q7 0 15 -4q8 0 14 -2q5 2 10.5 2t13 -1t11.5 -1h61q3 0 8 -1 t8 -1q1 0 4.5 1t4.5 1h26q9 0 13 2q1 0 3.5 -1t4.5 -1h16h14q11 0 15 -2q3 0 5.5 0.5t5.5 1t5 0.5h23q6 0 10 2h4q1 -1 4.5 -1t5.5 -1q1 0 4 1t5 1q3 1 13.5 1.5t16.5 2.5q1 -1 3 -1.5t3.5 0t3.5 1t3 0.5h28q2 0 17 -3t16 1h10q2 0 6 1t6 1h21q1 0 3 -1t3 -1h16h5q6 2 16 2 h61v-23v-41q0 -2 -1 -4.5t-1 -3.5q0 -2 1 -5t1 -5l-6 -18v-27q-4 -8 -4 -27q0 -10 -2 -14q0 -2 1 -4.5t1 -3.5q-5 -10 0 -17q-2 -4 -2 -12v-45q-3 -1 -8.5 -1t-7.5 -1q-3 0 -9.5 1t-9.5 1q-6 -2 -16 -2q-6 -2 -19 -2q-12 0 -14 -2l-18 4q-2 -2 -17 -2q-6 -2 -16 -2h-16 q-13 0 -19 2q-1 0 -3 -1t-3 -1q-12 3 -25 0q-24 4 -36 0q-13 0 -19 2q-5 -2 -16 -1t-17 -1h-4q-12 0 -14 2q-3 -3 -11 -3t-14 3h-39q-2 -2 -4 -2l-12 4q-1 0 -4 -1t-4 -1h-12q-2 0 -6.5 1t-6.5 1l-22 4q-2 0 -5 -0.5l-6 -1t-6 -0.5q-2 0 -6 1t-6 1q-6 0 -10 2q-15 -6 -35 0 h-16l-15 -12q0 -2 -2.5 -11t-2.5 -11.5t1 -12.5q-2 -2 -2 -10v-29q0 -12 -2 -16q0 -13 -2 -15v-47q0 -2 -1 -7.5t-1 -8.5q2 0 2 -2q0 -1 -1 -3.5t-1 -4.5q1 -2 2.5 -10t3.5 -13l19 -6q6 -6 16 -6q1 1 3 1h3.5h3.5t4 1q24 0 29 -2q2 0 6 1t6 1q4 -2 13 -2h12q6 0 8 2h6 q1 1 4.5 0t5.5 0h11h8q8 0 10 -2h10h11q1 0 4.5 1t5.5 1q1 0 3.5 -1t4.5 -1t4 2q11 -4 21 0q29 -8 41 -10h4q2 0 10 -4q4 1 14.5 -2t14.5 -3q16 -8 28 -8q24 -6 29 -8q6 0 13 -2.5t15.5 -7.5t10.5 -6q5 -5 12.5 -9t16 -8.5t14.5 -9.5l22 -18q16 -13 29 -29q9 -15 21 -27 q22 -38 26 -51l10 -27q1 -6 5.5 -17t5.5 -17q2 -5 3 -17t3 -21.5t6 -13.5q0 -1 -1 -3t-1 -3q0 -3 1 -8t1 -8q0 -6 2 -18t2 -17q-1 -2 -0.5 -4.5l1 -5t-0.5 -4.5q2 0 1 -8.5l-1 -8.5v-34q-3 -34 0 -68q0 -1 -1.5 -6t-0.5 -8q0 -3 -1 -10t-1 -11q0 -1 -1 -3t-1 -3q0 -4 -1 -15 t-1 -16q-4 -16 -4 -18q-5 -11 -4 -14q-2 -5 -3 -12t-2.5 -14.5t-3.5 -12.5q-4 -7 -8 -21.5t-4 -15.5l-12 -29q-4 -4 -4 -8q-17 -22 -19 -29q-3 -4 -12 -20t-16 -23l-23 -26q-6 -11 -31 -33q-4 -4 -10 -4l-29 -27q-2 0 -10 -4l-22 -16q-34 -18 -84 -31q-12 -4 -21 -4 q-6 -3 -17.5 -6t-15.5 -4q-20 -5 -26 -5q-16 -4 -25 -4q-3 3 -22.5 0.5t-22.5 -2.5h-12q-3 0 -10.5 -1.5t-10.5 -0.5q-11 0 -30 -2t-29 -2h-18q-11 0 -17 2q-8 0 -14 2q-3 0 -10 4t-11 4q-6 0 -20 9q-6 0 -10 2l-8 4h-9q-3 1 -5.5 3t-4.5 1q-2 0 -4.5 2t-3.5 2q-10 2 -21 10 q-9 2 -38 19q-17 10 -31 24q-13 13 -21 17q-12 8 -28 28q-25 15 -43 68q-11 16 -11 45q0 2 -1 6.5t-1 7.5v13q0 2 -1 4.5t-1 3.5q0 4 2 6q0 1 -1 3t-1 3q-3 7 0 10q0 26 2 31v4q-2 5 -2.5 15.5t-1.5 13.5q0 8 -2 14z" />
<glyph unicode="6" horiz-adv-x="1110" d="M92 567v82q4 12 4 21v18q-4 16 -4 17v63q0 4 2 6v10v11q2 6 1 15t-3 11q4 8 4 23q0 10 1 27.5t1 27.5q0 48 4 76q0 3 1 7.5t1 6.5q0 11 2 15v6q7 21 7 43q0 9 3.5 26.5l4.5 22.5q0 2 1 5t1 5q0 9 4 25q8 16 19 61.5t26 63.5q18 31 23 45q2 2 2 4q7 8 21.5 31t25.5 34 q0 3 16 19q7 5 35 28q4 0 4 2l25 17l20 16l16 6q8 8 25 15q4 0 6 2q4 3 9.5 4.5t11 2.5t8.5 3q25 5 29 4q18 12 53 12q3 0 9.5 2t10.5 2q4 2 25 2h6q9 0 18 3q7 0 19 4q2 0 5 -1t5 -1q1 0 3 1t3 1q13 -4 21 0q14 -7 24 -7q4 -2 25 -2q5 -4 19 -8.5t20 -9.5h10l20 -10 q7 0 18 -8t15 -9q21 -5 53 -32l29 -21l4 -4q0 -6 6 -6q17 -17 35 -53q14 -21 17 -43q0 -9 6 -23t6 -22q0 -5 2 -7q0 -1 -1 -3t-1 -3l4 -12q0 -4 -2 -6q2 -2 2 -10l4 -25v-27v-14q-1 -6 -1 -20t-1 -21q-3 -8 0 -16q0 -1 -1 -3t-1 -3h-25q-4 -2 -16 -2q-8 2 -29 2q-7 0 -21 1 t-20 1q-2 2 -8 2q-3 0 -8 -1t-8 -1q-2 0 -6 1t-6 1q-3 -2 -11 2q-3 0 -11 1.5t-13 0.5q-5 0 -17 4q-8 0 -14 2h-16q-8 -4 -21 0q-1 0 -3 1t-3 1h-4q-5 0 -10 8v2q0 1 1 2t1 2q0 34 -2 41v11q0 6 -2 16t-2 16t-5 11q-1 2 -4 9.5t-6 10.5l-10 20q0 3 -5.5 8.5t-13 11.5t-8.5 7 l-26 16l-13 7q-4 0 -16 4q-1 1 -7 1.5t-9 2.5h-6q-15 0 -17 -2q-3 0 -8.5 1t-7.5 1l-13 -6h-2q-6 0 -18 -4l-31 -13q-4 -3 -26 -18q-4 0 -8 -6t-8 -14t-5 -9q-8 -10 -14 -26q-5 -15 -8 -17v-4q-2 -6 -6.5 -16.5t-7.5 -20t-3 -18.5q0 -6 -3 -18t-3 -19q0 -19 -2 -29v-47 q0 -4 2 -6q-2 -2 -2 -8v-84q0 -17 -6 -29v-18q3 -6 6 -6q10 0 16 -2q0 1 1 3t1 3q4 3 23 22l16 19q15 6 31 12h4l25 8q13 4 39 8q8 0 20.5 2t20.5 3t22 -1q4 0 11 -1t12 -1q1 0 3.5 1t4.5 1q21 -5 27 -4q1 0 11.5 -1.5t12.5 1.5q9 -6 21 -2l12 -6q8 -2 21.5 -9.5t15.5 -8.5 q4 0 8.5 -1.5t8.5 -3.5t7 -3q8 -3 31 -17q6 -6 20.5 -14.5t16.5 -9.5l22 -15q7 0 7 -4q2 -2 9.5 -7.5t10.5 -10.5l8 -15q2 -4 8 -12t10 -14t7 -13q8 -6 10 -14l8 -4q0 -1 1 -4.5t1 -5.5l11 -8q0 -2 1 -6t1 -5q0 -2 1 -5t1 -5l10 -12q-1 -6 0.5 -15.5t1.5 -11.5 q12 -24 12 -47q0 -1 -0.5 -4t-0.5 -6t1 -6q0 -5 1 -14.5t1 -14.5v-47q2 -13 -2 -37q0 -1 -1 -3t-1 -3v-6q-3 -26 -10 -53l-8 -33v-17l-6 -12v-5t-1.5 -3.5t-2.5 -3.5q2 -3 0.5 -12.5t-0.5 -12.5l-7 -8v-8q-4 -4 -6 -9t-3.5 -12t-2.5 -10l-10 -12q-3 -11 -12 -19l-13 -22 q-13 -26 -30 -37q-1 -1 -7 -5t-8 -7l-7.5 -7.5t-10.5 -7.5q-14 -14 -31 -24q-3 0 -11.5 -5t-13.5 -5q-15 -15 -45 -27q-8 -4 -14 -4l-14 -4q-5 0 -29 -6q-2 0 -4.5 -1t-3.5 -1q-7 1 -19 -3.5t-16 -5.5h-12l-8 -4l-5 2q-2 0 -4.5 -1t-3.5 -1q-3 0 -14.5 -2.5t-15.5 0.5 q-10 2 -31 2q-3 0 -10 1t-11 1q-2 0 -6 -2q-18 6 -39 6l-12 7q-9 0 -29 4q-8 0 -32 12q-18 6 -21 8q-4 4 -10.5 7.5t-15.5 7.5t-13 6l-14 12q-5 0 -21 8l-8 8l-8 11l-10 6q-2 0 -4 -2l-6 4q1 0 2 1t2 1q0 4 -7 9.5t-8 6.5l-14 14q-10 13 -29 41q-7 14 -8 15q-2 2 -2 4 q-24 37 -31 63q0 1 -5 10.5t-5 12.5q2 6 -4 15.5t-6 15.5l-8 28q0 28 -13 54q0 1 -1 4t-1 4v12q-2 4 -2 23v10q-1 3 -1.5 11t-2.5 11zM326 487q0 -3 0.5 -6.5t1 -7.5t0.5 -6h2l4 -4v-6q6 -20 6 -27q4 -8 4 -12l8 -6l23 -33l18 -14q1 0 3 -1.5t3 -1.5q30 -15 37 -16 q3 -3 8.5 -4.5t12 -2.5t10.5 -3q8 -4 14 -4l15 -6q10 0 20 -7h19l6 5q3 0 8 -1t8 -1q1 0 3 1t3 1q32 -8 70 30q24 12 31 19q3 5 24 26q5 6 12.5 23t14.5 24q0 7 2 9q8 15 12 55q4 16 4 22q0 39 -4 50v6q-4 4 -4 6q-4 12 -4 18l-8 19q-2 0 -2 4q-8 5 -15 16q0 4 -4 8l-18 13 q-3 2 -9 5.5t-11 7t-9 7.5q-4 8 -12 8q-3 1 -11.5 8t-11.5 7q-3 1 -8 4t-6 4q-3 0 -8 2t-8 2l-15 6q-2 0 -4 -2q-9 6 -37 6q-2 0 -6 -4q-15 0 -18 -2h-2q-6 1 -12.5 -0.5t-9.5 -2.5t-11.5 -5t-9.5 -4l-21 -10l-4 -2l-9 -6t-9 -7t-7.5 -6.5t-8.5 -7.5t-7 -8q0 -1 -1 -3t-1 -3 q-46 -52 -61 -127v-7v-45z" />
<glyph unicode="7" horiz-adv-x="962" d="M72 1212q1 0 1.5 1.5t1 3.5t1.5 4q-3 4 -3 9t1.5 10.5t1.5 8.5q-1 3 -1 8.5t-1 8.5v14q-5 14 0 23q0 3 1 8t1 8v16q0 8 1 21.5t1 19.5q0 2 2.5 18.5t-0.5 16.5q-2 6 -2 14q2 4 2 8.5t-1 10t-1 8.5t8 8q1 0 5.5 -1.5t8.5 -0.5h33q22 0 27 2q7 0 20 -1t19 -1q14 3 28 0 q6 2 19 2q9 0 25 -1t24 -1q2 1 7 0.5t7 1.5q1 0 3 -1t3 -1t2 1t2 1q13 0 21 -2q6 2 20 2h25q5 0 17.5 -1t17.5 -1q21 -7 26 -2h17h14q1 0 4.5 1t6 1t4.5 -2q5 0 15.5 0.5t19 0.5t16.5 -1q4 0 10.5 -1t12 -1t9.5 2q5 0 16.5 1t18.5 1h68q12 2 29 0h69q20 0 23 2h6q1 0 4 -1 t4 -1q2 2 6 1.5t8 0.5q3 -3 10 -0.5t11 -3.5v-10q0 -8 -2 -12q2 -2 2 -7v-4q-2 -2 -2 -10v-31q0 -10 -2 -14q0 -2 1 -5.5t1 -4.5v-23q0 -2 -1.5 -11.5t1.5 -10.5q0 -1 -1 -3t-1 -3q0 -5 2 -7q-4 -4 -4 -16v-72q0 -8 2.5 -23.5t3.5 -19.5q-4 -8 -12 -20l-13 -31 q-1 -1 -16 -37v-6q-7 -2 -10 -12q0 -5 -2 -9.5t-7.5 -11.5t-5.5 -8v-6q-2 -5 -9.5 -22.5t-11 -26t-10.5 -21.5t-14 -22q-5 -5 -11 -17.5t-7 -13.5q0 -4 -4.5 -11.5t-5.5 -10.5q-1 -1 -5 -8t-6 -9q-4 -8 -4 -10q-1 -1 -3.5 -5.5t-4.5 -8.5t-2 -6q0 -7 -7 -16.5t-7 -14.5 q-7 -18 -15 -31v-6q-8 -12 -10 -18q0 -7 -2 -9l-10 -18q0 -1 -1 -3t-1 -3q-5 -18 -8 -25l-13 -20q0 -1 -6 -13v-12q-4 -6 -10 -17.5t-10 -17.5v-10q-15 -22 -19 -37q-14 -35 -20 -41q-5 -5 -9.5 -17.5t-7.5 -17.5l-10 -24q0 -2 -2 -4l-14 -29q0 -1 -1 -3t-1 -3q-6 -3 -6 -12 q-8 -21 -27 -56q-1 -5 -8.5 -17t-7.5 -19q-1 -2 -2 -4.5t-2.5 -5t-2.5 -5t-2.5 -4.5t-3.5 -4t-3 -6t-3 -6q0 -4 -2 -4q-6 -7 -11 -19t-10 -25t-10 -20q-4 -6 -8 -18q0 -1 -4 -13q-11 -11 -14 -28q-8 -16 -8 -19q-10 -10 -19 -10q-4 0 -9.5 -2.5t-6.5 -3.5q0 2 -2 2 q-4 0 -12.5 1t-12.5 1q-21 4 -33 0h-2q-1 0 -4 1t-4 1q-14 0 -20 -2q-3 0 -9.5 1t-9.5 1q-4 -2 -14 -2h-6q-3 1 -12.5 -0.5t-12.5 0.5q-2 2 -4 2q-2 -2 -14 -3t-17 1q-4 0 -6 2h-37q-2 2 -2 8q5 16 17 45q5 11 4 15q3 6 7 19.5t7 19.5q14 21 14 41q2 2 13 24q6 8 10 25 q2 2 2 6q4 4 6 10t4.5 15t3.5 12l11 14q5 15 6 16q1 4 6 12t6 13q0 2 4 6v10q11 22 12 27l4 4l7 14q0 9 4 11q3 5 5.5 11t4 10.5t4 11t4.5 10.5q0 3 1 5t2.5 4t2.5 3q0 10 6 22q9 9 9 17q1 4 4 9t5.5 10.5t4.5 9.5q0 4 5 11t5 13q7 11 18.5 39t20.5 41q0 5 3.5 12.5 t4.5 10.5q10 14 11 20l26 53q1 6 10 23v8l7 14q0 4 4 8q3 4 6.5 19.5t9.5 19.5q0 9 4 17q3 3 5 7t4 9t3 8l17 35q0 1 1 2t1 2q0 5 3.5 12.5t4.5 10.5l10 22q2 0 2 2q1 6 3.5 12.5t7 14t6.5 12.5q0 1 1 3.5t1 4.5q9 7 16.5 28.5t11.5 27.5q12 23 5 33q-5 0 -13 4h-51 q-5 0 -16 -1t-15 -1q-5 0 -15 -1t-15 -1q-4 2 -4 0q-6 -2 -19 -2h-18h-17q-4 0 -11.5 1t-10.5 1q-5 1 -16.5 1t-16.5 1q-28 0 -33 2h-14q-6 0 -10 2q-1 0 -4 -1t-5 -1q-1 0 -2.5 1t-3.5 1q-2 -2 -4 -2q-28 0 -33 2h-4h-18q-3 0 -9.5 1t-9.5 1q-6 -2 -16 -2q-3 1 -13 1.5 t-16 2.5l-3 -2q-3 -1 -5 0q-6 -2 -18 2q0 6 -4 26z" />
<glyph unicode="8" horiz-adv-x="1241" d="M92 494q2 2 2 4q1 5 -0.5 11.5t-1.5 8.5v17v24q0 43 4 51q2 7 2.5 25.5t5.5 26.5q-2 8 5 22q1 2 1 4v3.5t0.5 3.5t1 3.5t1.5 3.5q8 19 10 31l4 6q0 6 8 20t8 21l4 11l23 43q10 16 20 38q18 25 25 35l37 47q19 19 39 29q0 2 1 5.5t1 4.5q0 3 -1 9t-1 10q0 5 -6 13.5 t-9 10.5q-1 9 -6 19l-10.5 21t-7.5 20q0 7 -6 20.5t-6 20.5q0 12 -2 18v6v47q0 5 1 13t1.5 13t-0.5 13q4 6 4 19q0 9 4 22.5t4 18.5l6 16q2 1 3 3t1.5 5t1.5 4q3 9 12.5 25.5t10.5 19.5q33 49 37 54l7 7t9 7l6 10l27 23l14 10q1 0 3 1t3 1l29 18q9 6 18 9q3 0 9.5 3t11.5 3 q4 0 8 4q29 9 41 12q4 4 14 6t17 0q1 0 5.5 1.5t8.5 0.5q3 2 11.5 0t11.5 0q2 2 8 2h10q2 0 5.5 1t6.5 1q4 -2 19 -2q8 0 14 -2l23 -4q12 -4 34 -4q7 0 11 -2q1 0 2 0.5t2.5 1t3.5 0.5q14 -5 16 -8q6 0 15 -5t14 -5l2 2h2v-2l22 -19q11 -5 25 -16q2 -2 4 -2q11 -18 27 -21 q4 -8 26 -30q8 -12 15 -19q3 -3 7 -11.5t7 -12.5l2 -2q0 -2 12 -37q0 -6 7 -13q-1 -4 0 -10t1.5 -10.5t2 -10.5l2.5 -10v-8q2 -5 2.5 -13t1 -15.5t1.5 -15t3 -11.5v-12q1 -5 -4 -31v-6q0 -17 -6 -29q-1 -2 -1 -5.5t-0.5 -6.5t-2.5 -6q0 -5 -3 -13t-4 -10q0 -3 -3 -8.5 t-3 -9.5l-14 -21q-13 -30 -41 -47l-8 -8q-2 0 -6 -4q-3 -1 -5.5 -2.5t-4.5 -3.5l-4 -4l-4.5 -4.5l-4.5 -4.5q0 -8 -2 -10q3 -5 6 -9.5t9.5 -10t7.5 -6.5q4 -1 24 -11q1 -3 6.5 -7.5t7.5 -8.5q6 -3 15.5 -13.5t13.5 -13.5q8 -13 19 -18l6 -8q0 -3 4 -8.5t9 -10.5t7 -6 q2 -4 11 -14t12 -17l26 -41q9 -13 20 -45t15 -41q-2 -15 6 -40q2 -5 4.5 -15.5t4.5 -15.5q0 -7 3 -20.5t3 -20.5q0 -6 4 -6v-21q0 -16 2 -20v-60q-2 -5 -2 -34q0 -2 -1 -6.5t-1 -6.5q0 -4 -2 -4q2 -4 2 -8q0 -5 -2 -16.5t-2 -16.5q-4 -16 -4 -20q-7 -18 -7 -33 q1 -3 -0.5 -10t-1.5 -9q0 -6 -8 -18l-6 -20l-12 -21q-6 -6 -21 -31q-4 0 -4 -4l-24 -28q-5 -5 -16.5 -15.5t-18 -16.5t-16.5 -14t-19 -14q-6 0 -14 -8l-17 -6h-6l-10 -6q-1 0 -4 -2t-4 -2q-2 -2 -9 -2q-5 -3 -15 -7.5t-15 -7.5l-21 -8l-41 -12l-4 -2q-3 1 -6 0.5t-5 -1 t-4.5 -1t-4.5 -0.5q-16 -4 -23 -4q-2 0 -6.5 -1t-7.5 -1q-2 0 -6 -1.5t-6 -1.5q-8 -4 -15 -2q-1 0 -6.5 -1.5t-9.5 -0.5q-6 0 -10 2q-2 -2 -21 -2q-3 0 -23 -2.5t-22 0.5h-18h-7q-4 0 -12 4q-2 1 -5 -0.5t-5 0.5q-2 0 -27 5l-24 6q-11 0 -35 12q-6 -2 -14 1t-11 3 q-4 0 -12.5 2t-13.5 2q-9 0 -21 4l-20 6q-7 0 -21 9h-2q-4 8 -20.5 16t-20.5 16h-6q-16 16 -22 19q-2 1 -8.5 7.5t-12.5 6.5v8q-1 0 -4 1t-4 1q0 2 -2 2q-3 2 -8 8t-8 7l-19 20l-18 29v6q-13 13 -15 21q-4 21 -10 32q-2 4 -2 8q-2 5 -7 16t-7 17q-5 14 -9 17q1 10 -3.5 26 t-4.5 23q0 37 -4 57q0 16 -2 19zM326 506q2 -6 2 -17q0 -4 2 -11t2 -11q0 -1 1 -3.5t1 -4.5q1 -4 5 -11.5t5 -9.5q1 -8 8 -19.5t8 -15.5q1 -1 3 -2l2 -2q2 -2 5 -4.5t5.5 -5.5t3.5 -6q0 -1 3 -4t7 -6.5l4 -3.5q3 -5 8.5 -10.5t12.5 -10t14 -7.5t14 -5q4 -4 10 -7t13.5 -5.5 t11.5 -4.5q1 0 2 1.5t2 1.5q32 -14 43 -15q14 3 29 -4q28 7 33 2h6q6 2 14 2q3 0 9 1t8 1q1 0 2 1t2 1q1 1 4.5 3.5t5.5 2.5q5 0 12 7.5t13 7.5q2 0 8 4t8 4q5 1 12.5 5t11.5 5q1 3 7 4.5t8 3.5q6 6 12.5 13.5t14 16t12.5 13.5q4 4 4 7q22 39 28 51q5 5 5 10l6 25 q0 6 2 20.5t2 20.5v22q2 2 2 16q-2 5 -2 15.5t-2 15.5q0 3 -3 15t-3 18q-2 11 -19 39q0 3 -3 8.5t-3 7.5q-4 2 -10 15l-19 20h-4q-4 6 -9 12t-13.5 14t-9.5 9t-3.5 1t-3.5 1q-20 10 -22 12q-6 6 -14 6l-23 9l-4 -3l-23 7q-7 0 -22 2t-23 2q-2 0 -6 -1t-6 -1q-4 0 -12.5 -2 t-12.5 -2h-2l-26 -11l-15 -4l-10 -4q-7 -10 -18 -14q-3 -3 -8 -6t-8.5 -5t-8.5 -5.5t-8 -6.5q-15 -11 -23 -22h-4q-1 -2 -8.5 -10t-9.5 -13q-19 -25 -25 -43q-16 -21 -16 -41q-9 -12 -6 -26v-2q-6 -8 -2 -19q0 -4 -2 -10t-2 -10v-19q0 -10 -2 -14v-2zM428 1231q-2 -6 2 -17 q-5 -14 2 -57q9 -9 12 -22q3 -3 12.5 -14.5t17.5 -18t18 -8.5q2 -5 11.5 -11t16.5 -6q3 0 8.5 -3t8.5 -3q2 0 5.5 -1t6 -1.5t5 -1.5t4.5 -2.5t3 -3.5q12 4 14 4l21 6q14 0 22 10q12 6 25 6l16 13l21 10l16 20q3 2 5 5t4.5 7.5t3.5 6.5q6 6 6 10q2 4 4 9.5t3.5 10.5t3 11.5 t3.5 11.5q0 19 -2 21q0 1 1 4t1 4q-2 4 -2 12q0 25 -8 41q-1 2 -2.5 4t-2.5 3.5t-1 2.5q-17 27 -35 45q-9 2 -25 12t-18 11q-21 7 -23 8q-5 1 -11 1t-11.5 0.5t-9.5 2.5q-17 0 -23 -2q-3 0 -8.5 -1t-7.5 -1h-6q-36 -9 -57.5 -32.5t-37.5 -63.5q0 -1 -1 -4t-1 -4 q-4 -12 -4 -15z" />
<glyph unicode="9" horiz-adv-x="1163" d="M92 1008q2 6 2 22q0 23 2 27t2 10q0 17 2 20v3q-1 8 0.5 21.5t1.5 18.5q0 4 2 13.5t2 13.5l7 29q5 29 8 37q4 8 4 14q0 2 1 5t1 5q2 3 6 18t10 21q5 6 13.5 24t15.5 25q21 32 45 58q2 2 10.5 10t10.5 14l2 2l6 4l18 17l25 18q3 2 6 5t5.5 5t5 4.5t5.5 4.5l6 4q2 1 12 9.5 t15 8.5l10 5t11 7q5 5 8 5h4q14 7 26 10l25 6l14 4q7 0 17 2t16 2l19 4h30q10 5 13 0q4 3 7.5 3.5t9 -0.5t7.5 -1q8 2 23 2q4 -4 8 -4q1 0 3.5 1t4.5 1q11 -4 23 2q8 -4 22 -4q9 0 21 -4l4 -2q11 2 23 -2.5t25.5 -10t24.5 -5.5q5 -1 13 -6t12 -5t4 -2l27 -12q2 -2 4 -2 q24 -12 43 -29q11 -11 16 -12q3 -4 17 -18t20 -23q2 -2 4.5 -4t4.5 -3.5t4 -3.5t3.5 -4.5t2.5 -4.5q20 -25 26 -29v-4l23 -39l6 -6q0 -2 1 -5t1 -5q11 -32 12 -41q0 -4 4 -15.5t4 -17.5q4 -17 2 -25v-24l7 -19v-31q0 -8 2 -14q2 -1 0.5 -6t-0.5 -8q-2 -1 -0.5 -6.5t0.5 -8.5 q-2 -4 -2 -16v-14q0 -2 1.5 -5t0.5 -5q-2 -2 -2 -9v-41q0 -16 -3 -20v-16q0 -3 -1 -8t-1 -7q1 -4 0.5 -5t-1.5 -4t-1 -5v-41q0 -9 -1 -30t-1 -32q0 -2 -1 -8t-1 -10q2 -2 2 -6v-39q-2 -8 -2 -49v-19q-2 -6 -2 -18q1 -4 -0.5 -8.5t-1.5 -5.5v-17q0 -3 -1 -8t-1 -8 q1 -2 -4 -21q0 -13 -2 -16q2 -6 2 -16q-12 -38 -12 -54q0 -10 -2 -16q0 -5 -2 -14.5t-2 -14.5q0 -4 -2 -4q2 -6 2 -16l-9 -25v-2q0 -11 -4 -35q0 -6 -2 -10q0 -1 1 -3t1 -3t-3.5 -6t-4.5 -8v-15l-6 -14q0 -2 -2 -6t-2 -6q0 -4 -10 -31q-2 -6 -6.5 -17t-6.5 -16 q-4 -4 -10.5 -27t-15.5 -26q-2 -6 -8.5 -15t-8.5 -12q-6 -12 -14 -20q-5 -10 -12 -12q-10 -16 -17 -19q-2 -4 -20 -22q-5 -5 -6 -5q-3 -1 -6.5 -3t-7.5 -4.5t-7 -4.5q-1 0 -3.5 -2.5t-4.5 -3.5q-3 -1 -18.5 -8.5t-26.5 -7.5q-5 -5 -17.5 -10t-15.5 -7h-4q-20 -5 -33 -16 q-6 0 -16 -3t-16 -3q-2 0 -6.5 -1t-6.5 -1h-28l-15 -4l-4 2h-12q-2 0 -5 1t-5 1q-16 4 -25 4q-1 0 -4 -1t-4 -1q-6 2 -12 2q-4 2 -11 2h-12q-20 0 -24 2q-2 0 -6.5 1t-6.5 1q-4 0 -6 -2l-8 6q-6 -1 -27 4h-8q-13 10 -18 10q-6 0 -13 7h-12q-24 24 -41 24q-6 9 -14 12l-17 19 q-4 6 -16 14l-4 6q-4 4 -11 15t-12 16q-2 1 -6 16q-3 0 -6 5.5t-5.5 13t-4.5 10.5q0 4 -3.5 16t-2.5 19q-1 3 -1.5 7.5t-1.5 8.5t-3 8q0 6 -2.5 17.5t-2.5 17.5q2 5 -2 17v12q0 14 -4 20l4 9q-3 4 -3 13t-3 13q-2 2 -2 13v10v4q-2 5 0 10l2 2q-2 3 -2 5.5t1 5.5t1 4v8l8 8 q37 0 46 6h20h12q2 2 4 2q6 -3 17 -1t18 -1h64q8 -4 26 -4q13 -6 15 -10q0 -1 -1 -5t-1 -6q0 -1 1 -4t1 -4q0 -2 2.5 -14t-0.5 -14q4 -12 4 -21q8 -12 8 -18q0 -2 3 -6t3 -5q4 -10 14 -17.5t16.5 -10.5t22.5 -8q6 0 14 -1.5t15.5 -3t13.5 -0.5q2 0 5.5 -1t5.5 -1q4 0 6 2 q1 0 3 -1t3 -1q4 0 6 2q40 -3 70 21q10 14 16 16q2 3 6.5 13.5t9.5 15.5q0 3 3 8.5t4 7.5q1 4 5 15.5t5 17.5q0 2 1 4.5t1 3.5q0 13 4 29q0 19 2 23q0 7 1 21.5t1 21.5v51q0 6 -2 10q2 4 2 27q-3 9 -10 16q-2 1 -7.5 3t-7.5 2t-8 -1v-6q-2 0 -6 -1t-6 -1q-3 1 -7.5 -0.5 t-6.5 -1.5q-21 -9 -41 -6q-2 0 -6 -4q-8 4 -29 4q-8 0 -12 2q-4 -2 -11 -2t-20.5 1t-20.5 1q-16 0 -22 2q-7 0 -20.5 3t-22.5 3q-2 0 -43 12q-1 0 -4.5 1t-5.5 1q-8 2 -23 10.5t-22 10.5q-4 4 -14.5 9t-14.5 5q-5 1 -9.5 4.5t-9.5 8t-8 6.5q-6 2 -13.5 7l-10.5 7 q-49 40 -66 61q-10 8 -18 23v4l-25 37q-2 2 -12 28q-5 10 -11.5 31t-9.5 29q0 2 -2 6q0 1 -2.5 15.5t0.5 15.5q0 1 -6 37zM373 1059q2 -4 2 -29q2 -3 7.5 -20.5t12.5 -24.5l2 -6q6 -6 15 -18t14 -17l16 -10l23 -12q10 -10 14 -11l31 -10l39 -8q6 0 18 4q17 -4 33 12h8 q20 10 29 13q2 0 9.5 -2.5t8.5 0.5l9 8q21 10 34 37l13 16q6 3 6 8q10 19 14 25v4l2.5 7.5t2.5 8.5t1 8q2 8 2 23v14q0 9 2 15q-2 2 -2 8v12q0 19 -2 29q-8 16 -8 28l-16 23q-1 3 -3 7t-4.5 6.5t-4.5 6.5t-3 7q-2 3 -6.5 6.5t-8 5.5t-9.5 5.5t-8 4.5q-5 1 -12 4t-9 4 q-3 6 -4 6q-36 15 -51 15q-2 2 -17 2h-24q-8 -4 -29.5 -6t-30.5 -8q-16 -6 -20 -9q-4 -4 -8 -4l-8 -6q-23 -14 -25 -16q-2 -3 -8.5 -10t-11 -13t-7.5 -12q-8 -9 -12 -19l-10 -34q2 0 2 -4q-4 -8 -4 -11q-4 -12 -4 -63z" />
<glyph unicode=":" horiz-adv-x="505" d="M92 231v35l12 29q6 19 19 35q24 40 59 57q34 3 68 0q19 -11 37 -29l26 -32q21 -40 21 -66v-18l4 -9q0 -2 -2 -2q-5 -20 -8 -26l-6 -7q-6 -7 -7 -12l-18 -20l-21 -19q-18 -6 -22 -8q-9 -1 -20 -1t-26 0.5t-24 0.5q-5 3 -15 6.5t-15 6.5l-27 16l-16 16l-11 21zM106 694 q3 6 3 13q1 2 1.5 8t2.5 8q1 3 4 14.5t6 16.5q9 14 20 39l21 20l18 10q5 2 19 11q3 0 9 1t9 1q2 0 10 4h13q43 -16 71 -58q2 -8 10 -24.5t9 -18.5q2 -16 2 -47l-6 -18q-2 -9 -12.5 -26t-12.5 -21q-1 0 -3 -1t-3 -1q-4 -2 -8.5 -8t-5.5 -7q-15 -11 -27 -16q-1 0 -3.5 -1 t-4.5 -1q-27 -4 -53 -4q-8 4 -15 4q-48 7 -69 55q-10 31 -5 47z" />
<glyph unicode=";" horiz-adv-x="499" d="M94 242v24q0 4 2 13t2 12q0 9 3.5 16.5t11.5 18.5t10 14l49 49l29 14h32q4 -3 10 -7t11 -7t12 -7.5t13 -8.5q1 0 1.5 -3t3 -6t5.5 -4q10 -15 28 -51q0 -2 1 -4t2 -5t2 -5q0 -4 1 -13t1 -14q4 -8 4 -43q0 -6 -2 -16t-2 -16l-5 -27q-2 -4 -2 -16q0 -15 -6 -23 q-3 -20 -12 -37q-2 -15 -20.5 -36.5t-20.5 -24.5l-2 -3q-2 -2 -3.5 -4t-2.5 -2q-5 -3 -11 -7.5t-12.5 -10.5t-9.5 -8q-12 -6 -14 -8q-7 4 -29 8q-1 1 -13.5 9t-17.5 15q4 11 9 19q9 13 20 39l16 39q4 11 -6 30q-7 6 -22 12t-19 9l-26 24q-15 23 -21 52zM106 639q-3 40 0 86 q1 3 5.5 13.5t5.5 15.5q1 6 4 13t6.5 12t7.5 11.5t6 10.5q6 -2 13 -2l22 14q3 3 8 5t9.5 4.5t7.5 4.5q13 2 37 -2q6 0 18 -4q5 -4 23 -8q4 -2 8.5 -6.5t9 -8t8.5 -5.5q6 -3 10 -11q1 -4 6.5 -10t6.5 -10q6 -22 8 -27q4 -16 4 -22q3 -18 0 -33v-16l-6 -17q-22 -34 -55 -59 l-35 -15h-62q-14 7 -20 13q-4 4 -8.5 6.5t-10.5 5t-10 4.5l-18 21q-5 6 -9 16z" />
<glyph unicode="&#x3c;" horiz-adv-x="851" d="M88 834q18 27 43 49l16 18q4 7 10 14t15.5 15t13.5 12q3 6 11 10q4 1 6 3.5t4.5 7.5t3.5 6q20 15 25 20q22 20 53 53q14 14 16 17l17 18q3 4 12 11t12 12q4 7 14 17.5t11 12.5l20 19q6 6 6 8q10 18 33 37q3 3 7 9.5t7 8.5q37 41 58 60q4 2 12 -2l18 -17q4 -4 8.5 -7.5 t10 -7t8.5 -5.5q11 -4 33 -27q17 -21 37 -32q2 -5 11.5 -12.5t12.5 -12.5q-19 -31 -63 -72q-1 -1 -4 -5t-4 -7q0 -1 -4 -4q-2 -1 -3 -2q-7 -7 -40 -51q-38 -43 -72 -78q-9 -6 -12 -15q-1 -2 -5 -5l-4 -3q-5 0 -8 -6q-3 -8 -22 -27q-5 -10 -19 -24q-22 -22 -22 -49 q24 -31 35 -49q12 -25 14 -27q4 -3 9 -12.5t9 -12.5q4 -4 4 -6q3 -8 11.5 -20t11.5 -17q3 -11 12 -20l12 -25q6 -3 13.5 -13.5t9.5 -12.5q22 -28 23 -29l30 -45l17 -20q4 -6 14 -25l2 -4q6 -6 14.5 -18t12.5 -17q-3 -6 -13 -14t-12 -11q-16 -4 -18 -6q-8 -8 -17 -8 q-1 0 -3 -1t-3 -1q-7 -7 -21.5 -16t-19.5 -13q-4 -4 -8 -4q-7 -2 -20 -9.5t-15 -8.5q-4 -2 -11.5 -9.5t-12.5 -9.5q-1 0 -3.5 1t-3.5 1q-8 8 -8 9q-2 5 -5.5 9.5t-8 9t-6.5 7.5q-2 2 -3.5 5t-3.5 5.5t-3.5 5.5t-4 5t-4.5 4q-4 4 -9 11.5l-7 10.5l-19 23l-16 25q-7 17 -18 28 q-29 36 -47 66q-16 24 -27 35q-23 23 -41 63q-5 8 -15 22t-12 17q-28 40 -47 65q-8 8 -8 11q-1 4 -7.5 12.5t-6.5 15.5l-15 17l-12 20q-2 4 -2 13z" />
<glyph unicode="=" horiz-adv-x="847" d="M113 852q-1 25 0 75.5t0 73.5q2 7 10 15h186q3 -1 9.5 -3.5t9.5 -2.5q10 2 18 3t12.5 0.5t12.5 -1t14 -0.5q4 2 12 2h109q2 0 10 -4q74 0 113 -2q1 0 2 -0.5t3.5 -1.5t4.5 -2h18l7 -5q0 -81 -2 -122q-3 -12 -3 -19q0 -4 -4 -16q-2 -3 -9 -4t-9 -4l-10 4h-23q-9 -4 -26 0 q-2 1 -6 0t-5 0q-16 0 -64.5 -1.5t-74.5 -0.5l-12 4h-78q-2 0 -12 2.5t-11 -0.5q-4 3 -9 3.5t-11.5 -0.5t-9.5 -1h-121q-3 2 -9.5 1t-9.5 1q-10 2 -26 2zM125 641q5 8 10 10h39q2 0 10 -4h52l8 4l8 -4q20 0 62.5 -1t64.5 -1q2 0 10 -4h21q14 0 56 1.5t64 0.5q5 0 9 -4l8 4 h12q4 0 10.5 -2t10.5 -2h36l17 -6q14 0 17 -8t2 -37q-1 -22 -1 -37v-66l-8 -20q-7 0 -17 -2.5t-12 0.5h-43q-4 2 -14 2t-14 2q-3 1 -12 -0.5t-11 -1.5q-25 -5 -33 0h-96q0 1 -46 0.5l-46 -0.5l-10 6q-66 0 -99 2q-12 4 -53 4l-6 4l-4 4v43v11q3 9 3 26t1 21q-4 8 -4 10 q0 8 -1 24t-1 21z" />
<glyph unicode="&#x3e;" horiz-adv-x="862" d="M123 442q13 26 24 37l46 53q11 16 12 21l8 8q2 6 10 14q1 1 7 8.5t8 12.5q2 3 7 7t7 7l13 14.5t18 22.5q0 1 1 3t1 3q2 2 6 5t6.5 5.5t3.5 6.5q2 5 8 12t8 10l17 19q14 20 28 30v7q-4 4 -8 12q-7 7 -11.5 15.5t-10 21.5t-8.5 18q-10 10 -11 14l-16 25q-10 20 -10 25 l-19 32q-9 22 -20 33q-6 7 -31 47q0 3 -1 8t-1 7q-18 27 -25 34q-8 25 -32.5 66t-32.5 59v9q10 7 30 18.5t23 13.5l45 23q1 0 4.5 1t5.5 1l37 22q1 0 3 2t3 2q8 1 20.5 8.5t16.5 8.5q4 0 13 4t16 2l8 -6q1 -2 35 -53q9 -9 16 -23l11 -6q0 -2 1 -7t1 -7q17 -23 18 -25 q2 -4 8.5 -10t8.5 -10q3 -13 16.5 -33t15.5 -25q2 -3 6.5 -9t7 -11.5t3.5 -10.5l18 -28q7 -14 14 -21q1 -5 10 -15t9 -17q7 -17 22 -39l4.5 -9t4.5 -12l8 -20q8 -17 10 -23q0 -4 4 -8q15 -25 27 -49q8 -15 23.5 -40.5t21.5 -35.5q0 -1 2 -8.5t4 -11.5q2 0 2 -5v-8 q0 -2 -4 -6l-62 -72l-24 -24q-3 -2 -6 -8.5t-6 -8.5q-2 -2 -8.5 -7.5t-8.5 -8.5l-14 -16q-2 -3 -7.5 -7.5t-6.5 -7.5q-2 -5 -7 -10.5t-6 -7.5l-18 -16q-16 -12 -21 -25q-1 -2 -18 -25q-6 -3 -31 -28q-14 -18 -20 -23q-3 -3 -10 -10.5t-11 -9.5q-13 -15 -39 -47 q-16 -16 -22 -19q-28 -23 -31 -24q-7 -12 -22 -23q-4 2 -9.5 8t-7.5 8l-16 15l-13 22q-8 6 -22 21.5t-16 17.5q-5 7 -18 20.5t-17 22.5q-4 8 -10 11q-3 5 -13 16.5t-14 19.5z" />
<glyph unicode="?" horiz-adv-x="919" d="M90 1208q0 21 14 49l37 82q8 8 26 34.5t30 35.5l22 18q1 0 2.5 1t4.5 2t5 2q7 7 25 14q4 1 13.5 5t13.5 5q15 2 34 12q7 0 23.5 1t24.5 1q10 5 12 5q14 2 43 2h8q9 -4 41 -4l10 -5h27l10 -6h27q7 -5 26.5 -6.5t26.5 -5.5t25 -8h6q6 -4 61 -45l12 -17l17 -12q4 -7 8.5 -17 t9 -18.5t8.5 -15.5q12 -17 19 -47q1 -2 8 -23l6 -22q4 -10 4 -27l4 -10q0 -19 2 -29l-4 -20q0 -7 -1 -17.5t-1 -15.5q0 -15 -8 -43q-1 -3 -1 -11t-1 -12q-1 -3 -4.5 -13t-5 -17t-0.5 -13q-6 -8 -15 -26.5t-12 -24.5q-5 -5 -13 -17.5t-13 -17.5l-43 -43q-4 -4 -5 -4 q-5 -2 -13 -10t-13 -10l-15 -13q-3 -4 -12 -10.5t-12 -9.5l-25 -23l-32 -32q-2 -7 -12 -18t-13 -15q-28 -50 -31 -68q-10 -15 -10 -37q0 -6 -4 -22v-33q0 -6 -1.5 -14.5t-1.5 -15t3 -13.5v-6q-3 -2 -6 -2.5t-6.5 -0.5t-5.5 -1h-15q-12 -6 -31.5 -7.5t-44 -0.5t-34.5 0 q-2 0 -5 1t-4 1q-2 0 -6 -1t-6 -1q-4 4 -6 4q-2 3 -2.5 9.5t-1.5 8.5l6 15q-2 20 -2 67q0 7 2 18.5t2 16.5v37q4 7 4 35l6 18q-1 4 2 11.5t2 11.5q0 4 2 10.5t2 9.5l7 23q1 6 6.5 19.5t5.5 21.5q2 3 7.5 15.5t10.5 18.5q2 0 2 2q8 21 31 44q7 13 25.5 33.5t23.5 27.5 q5 5 15.5 17t16.5 18.5t13 18t11 24.5q1 1 3.5 4.5t4.5 6.5t2 5q2 6 2 17l8 22q6 22 6 23v26q0 13 -4 19q0 1 -1 4t-1 4q0 12 -2 18q-4 7 -8.5 18.5t-9.5 20.5t-13 15l-10 8q-14 17 -39 24l-6 4h-20.5t-24.5 -4q-6 0 -8 2l-21 -6q-1 0 -4 -1t-4 -1l-27 -12q-7 -3 -26 -17 l-10 -10q-6 -9 -15 -18q-3 -4 -7 -13.5t-7 -13.5l-4 -8q0 -16 -19 -35q-2 0 -2 -2h-12q-4 2 -19.5 7t-23.5 10q-11 0 -29.5 9t-25.5 11q-12 8 -23 8q-4 0 -4 6zM268 176q-4 27 2 39q1 2 1 7t1 7l13 27q5 20 30 45q3 2 37 25q1 -1 2 -0.5t2.5 1.5t3.5 1q4 -4 15 0q16 0 31 -6 q5 1 14.5 -3t13.5 -4q28 -17 37 -24l21 -37q2 -3 2 -11t2 -12q-1 -1 0 -3.5t0 -4.5q4 -12 0 -20q0 -32 -29 -68l-8 -8q-1 -1 -2.5 -4t-3 -5.5t-2.5 -2.5q-9 -4 -27 -17q-15 -4 -40.5 -4h-31.5q-41 18 -55 27q-4 4 -7.5 15t-6.5 14z" />
<glyph unicode="@" horiz-adv-x="1884" d="M94 686q-3 80 0 164q1 2 2 5.5t2 4.5q0 17 2 25q0 6 2 15.5t2 14.5q1 3 1.5 9.5t1.5 11t4 8.5q1 2 1 6t1 6q0 3 0.5 7t1.5 7.5t1.5 7.5t0.5 7q4 12 4 19q2 6 4 16t4 18.5t6 14.5q0 4 3.5 14.5t2.5 15.5q0 5 4 9l13 36q10 41 24 58q1 1 1 4.5t1 5.5q27 54 33 64 q5 8 14.5 21t12.5 17q1 2 26 35q4 7 9 13t14.5 15t11.5 11q15 18 33 33q25 29 43 39l33 31q18 18 59 36q50 30 70 37q5 1 11.5 4t13.5 6t12 5q12 8 20 10q1 0 9 2t12 4q4 0 6 2q12 0 31 6t30 6q8 0 12 2q5 2 15.5 2.5t13.5 1.5l10 5q5 2 17.5 2.5t17.5 3.5q9 1 37 1.5 t43 2.5q4 0 6 -2l14 4q1 0 3.5 -1t3.5 -1q3 0 8 1t8 1h84q2 0 4 -0.5t4 -1.5t4.5 -1.5t5.5 -0.5q2 0 6.5 -1t6.5 -1l12 -4q5 0 14 -1.5t14 -2t11 1.5q11 -4 33.5 -11t31.5 -10q2 0 6.5 -1t6.5 -1q32 0 45 -10q4 -1 13 -4.5t15 -3.5q2 0 6.5 -2t6.5 -2q18 -9 24 -9l19 -6 q8 -5 28 -11.5t29 -12.5q35 -15 66 -37l30 -19q2 -5 9 -8q13 -6 24 -19t22.5 -27t22.5 -21l31 -29q41 -41 49 -66q4 -4 8 -10t6 -11t5.5 -11.5t5.5 -10.5q3 -7 8 -19.5t10 -23.5t10 -18v-12q1 -2 6.5 -13.5t6.5 -17.5l12 -35l10 -35q2 -8 2 -35q4 -8 4 -12l-4 -12l6 -10v-86 l4 -9q-2 -2 -2 -6q-2 -6 -2 -18v-45l-6 -13v-26l-6 -8v-21q0 -4 -4 -12q0 -1 -1 -4t-1 -4q0 -9 -3 -26t-3 -25q-6 -18 -6 -19l-7 -20q-6 -9 -6 -21q0 -4 -2 -6q-3 -6 -9 -21.5t-11 -23.5l-2.5 -5l-2.5 -5t-1 -4q-1 -6 -4 -12.5t-8 -13.5t-7 -11q-21 -39 -82 -88 q-8 -4 -10 -4q-4 -2 -11 -6t-11.5 -6t-10.5 -5t-12 -4q-5 -1 -19 -8.5t-22 -7.5q-4 0 -12 -3t-13 -3h-45q-3 0 -10 1t-10 1q-30 10 -37 10q-5 2 -15 6.5t-16 7.5q-31 13 -49 39l-5.5 11t-7.5 12.5t-8.5 9.5t-11.5 10h-12q-3 -1 -5.5 -2t-4.5 -3t-3 -3.5t-3.5 -5t-3.5 -4.5 q-12 -19 -27 -27q-40 -40 -76 -49q-8 -4 -24 -8q-16 -11 -37 -11q-4 0 -13 -1t-14 -1l-12 -4q-15 0 -25 -2q-8 0 -12 -2q-2 -1 -5.5 0.5t-6.5 1.5q-7 0 -23 1t-24 1q-6 2 -25.5 7t-28.5 10q-6 0 -13.5 1t-8.5 1l-31 6q-2 2 -6 4q-3 3 -12 7t-13 7l-22 21q-19 9 -37 35 q-6 6 -15.5 20.5t-15.5 20.5q-7 10 -14.5 29.5t-11.5 27.5q0 14 -2 20q0 1 -1 3.5t-1 3.5q-2 5 -4.5 15t-4.5 15q-1 3 -1.5 11.5t-2.5 13.5q-4 6 -8 22q-1 6 -0.5 17.5t-0.5 21t-5 17.5v82q0 7 2 19.5t2 18.5q0 17 6 29q0 11 8 27q2 3 7 16.5t10 20.5l14 30q4 11 8 15l29 39 q5 9 21.5 21t21.5 20l27 18q4 0 8 4l22 14q5 1 17.5 6t21.5 5q3 0 5.5 1t6 2.5t5.5 2.5q9 0 27 1t26 1q5 2 9 2.5t7.5 0.5t7 -0.5t6.5 -1t7 -1t8 -0.5q12 -2 35 -2l30 -10q2 0 8.5 -1t10.5 -1l9 -4.5t11 -4.5q25 -11 41 -18q10 -7 23 -10q3 -6 10 -13q1 -1 2.5 -2t3 -1.5 t3.5 -1t3 -1.5q2 -2 6.5 -6t7.5 -7t5 -7q32 -40 51 -78q11 -13 23 -45v-21q3 -8 8 -32q4 -8 4 -15v-43q4 -8 4 -16q0 -6 1 -17t1 -16q0 -2 5.5 -19.5t6.5 -27.5q0 -2 2.5 -7l3.5 -7q8 -10 22.5 -26t20.5 -23q8 -1 24 -8t26 -7q4 0 16 -4h29l30 6q5 1 11 3.5t11.5 5t10.5 2.5 l17 12l14 12q4 6 22 29l13 16q17 31 26 60q2 2 2 8l4 24q2 4 3.5 11.5t2.5 14.5t3 11v6v111q0 12 -4 20v4q0 8 -4.5 23.5t-4.5 22.5v6q-3 4 -4.5 14.5t-3.5 13.5q-1 1 -2 3.5t-1 4.5v5t-1 6t-3.5 7.5t-5 10t-3.5 10.5l-21 41q-4 4 -9 15t-7 14q-5 6 -10.5 13.5t-11.5 15.5 t-11 14q-21 28 -59 55q-23 27 -84 58q-3 1 -10 3.5t-12 4.5t-9 6q-2 2 -8.5 3t-9.5 3l-23 8q-17 10 -31 13q-25 11 -63 26q-2 0 -6 1t-6 1q-2 1 -7.5 1.5t-9 1.5t-6.5 4h-6q-8 0 -23.5 3t-23.5 3q-68 0 -101 2h-18q-17 7 -29 0q-20 0 -30 -2q-6 0 -18 -2t-17 -2 q-10 -2 -31 -2q-8 0 -18 -5q-6 0 -16.5 -1t-14.5 -1l-12 -4q-21 0 -31 -2l-25 -6q-11 -3 -22 -10q-3 0 -8 -1t-7 -1l-65 -33l-8 -8q-11 -5 -27 -21.5t-26 -21.5q-6 -6 -16.5 -17.5t-16.5 -17.5q-5 -3 -10 -6.5t-9 -7.5t-7.5 -8t-8.5 -9l-8 -8q-2 -6 -7 -12.5t-12 -13.5 t-10 -11q-16 -27 -27 -41q-2 -3 -12 -16.5t-16 -18.5q-4 -11 -17.5 -40.5t-19.5 -47.5q-1 -6 -3.5 -13.5t-4.5 -12t-7 -13.5t-6 -12q0 -14 -2 -20l-6 -21q-4 -8 -4 -14q1 -3 -1 -9.5t-1 -9.5q0 -4 -2 -10.5t-2 -9.5v-39q-4 -8 -4 -14v-92q-3 -8 4 -21v-41q0 -12 2 -16 q4 -7 4 -33l6 -16q0 -19 6 -27q0 -5 3 -13t4 -10q9 -37 16 -47q2 -15 18 -39q3 -4 11 -19t14 -22q1 -1 1 -4.5t1 -5.5q17 -22 23 -33q7 -11 12 -14q3 -1 5.5 -3.5t4 -4.5t4 -5t4.5 -5q43 -45 88 -88q8 -8 19 -15.5t21 -13t22 -12.5t20 -13q2 -2 7.5 -4t7.5 -4l41 -18 q14 0 24 -10q17 -5 48.5 -15.5t39.5 -13.5q7 -4 21.5 -7.5t17.5 -4.5q2 -2 6 -2q7 0 16.5 -3.5t19 -6.5t15.5 -3q10 -2 31 -2h8q4 -4 14 -5.5t19 -1.5t22.5 0.5t16.5 0.5l10 -4q14 -2 51.5 -2t65.5 2q9 4 28.5 4t26.5 2q3 2 13 4.5t16 5.5q29 0 43 2l41 13q4 0 16 4 q13 0 19 2l30 6q2 2 7 2q6 1 24.5 6.5t28.5 7.5q2 2 8 2q8 6 27.5 11.5t27.5 11.5q5 4 23 8q10 4 18.5 8t14.5 7t15.5 8.5t18.5 9.5q41 14 76 37q5 0 11.5 4t15 10.5t10.5 7.5q9 -3 18 -20t9 -29q5 -5 8 -13.5t6.5 -17t9.5 -12.5q2 -1 11 -10l8 -17v-24l-6 -8 q-11 -6 -35 -22.5t-39 -24.5q-41 -21 -51 -23l-25 -10q-21 -5 -22 -6q-2 -2 -4.5 -2.5t-5.5 -1t-5 -2.5q-13 -9 -24 -9q-49 -25 -70 -28q-6 -3 -12.5 -6t-14.5 -7l-12 -6q-5 0 -14.5 -4t-14.5 -4q-6 -5 -22 -7t-23 -7q-1 0 -4 -1t-4 -1q-5 0 -13 -3t-13 -3q-7 0 -13 -3 q-13 -4 -61 -4h-35l-12 -6h-39l-10 -6q-34 0 -52 -2l-8 -4q-72 0 -84 2q-1 0 -3 1t-3 1l-8 -4q-21 0 -29 4l-39 4q-2 0 -3.5 0.5t-2.5 1t-2 0.5q-48 8 -59 8l-8 4h-7q-9 3 -18 3q-27 10 -35 10q-2 1 -5 1h-5.5t-5 0.5t-4.5 1.5t-4 3l-27 6q-6 2 -18 2q-49 21 -60 29 q-8 0 -12 2l-45 16q-8 2 -24.5 10.5t-24.5 10.5q-7 0 -13 6q-7 5 -28 16q-18 7 -49.5 28t-47.5 36l-24 16q-17 12 -23 21q-36 33 -57 53q-16 6 -23 24l-32 54q-1 3 -10 19.5t-11 25.5q-3 8 -10 22.5t-10 22.5q-4 4 -8 16q-3 3 -3 12q-11 19 -14 35q0 1 -1 3t-1 3 q-5 21 -8 25q0 5 -3 13.5t-3 13.5q-1 1 -6 22q0 1 -5 21q0 14 -2 24v8q-4 9 -5 19.5t-0.5 23t-0.5 19.5q0 1 -0.5 2.5l-1.5 4.5t-2 5zM727 729q0 -3 1 -10t1 -10q3 -4 4 -9.5t1 -12t1 -9.5q12 -24 13 -31q1 -2 5 -8t7.5 -9.5t7.5 -6.5q6 -10 23 -27q6 -1 14.5 -4t11.5 -4 q1 0 29 -6h6q10 -4 31 -4l22 6q9 6 21 6q1 0 4 1t4 1l16 6q9 7 18.5 16.5t19 20t16.5 16.5l16 33q10 15 10 31q0 2 6 20q0 69 -2 84q-1 5 -2.5 11t-3 10.5t-3 10.5t-1.5 11q-5 8 -14 31l-13 10q-4 1 -8 4t-6.5 5.5t-6.5 7t-5 6.5q-10 10 -29 14l-35 12q-9 1 -19 1h-17.5 t-17 -0.5t-15.5 -0.5q-18 -9 -33 -14q-4 -4 -14.5 -13.5t-14.5 -13.5l-18 -24q-2 -4 -7 -17t-8 -22.5t-4 -18.5q-6 -6 -6 -22q1 -4 -4 -19q0 -9 -1 -29t-1 -30z" />
<glyph unicode="A" horiz-adv-x="1335" d="M96 129q0 4 1 11.5t1 11.5l4 8q0 16 2 24q0 6 2.5 15t2.5 14q0 7 3 18t3 17q0 5 3 14t3 14q0 11 2 13q3 6 4 13.5t1 16t1 13.5q0 2 4 10q0 6 3 19.5t3 21.5q0 1 3 9.5t3 13.5q0 4 3.5 12t3.5 12q0 9 6 21q-1 7 3 20.5t3 20.5q6 24 6 28q0 5 3 14.5t3 14.5q3 4 4 8.5 t1 9.5t1 8q6 24 6 27q2 4 4.5 14t4.5 15q2 3 3.5 13.5t4.5 14.5v7q0 6 10 36q0 3 1 9.5t1 9.5q0 10 4 14q4 6 6.5 22.5t3.5 20.5q0 4 3.5 12t3.5 13q3 5 5 16.5t5 16.5q1 4 3 10.5t3 11.5t0 10q9 12 6 29q13 25 19 51q6 24 6 27l4 8q14 39 20 66q4 8 4 14q1 3 3 7l4 8t2 7 q-1 2 4 21l10 27q1 3 1.5 7.5t1.5 8.5t3 8l8 19q1 4 4.5 12t3.5 14q2 3 7 25q2 4 5 14t5 14q6 22 8 27q1 4 4 15.5t6 17.5q15 45 23 59q1 4 4.5 13.5t3.5 15.5t4 10q6 15 14 43q0 14 9 27q0 4 8 8q16 0 24 -6l13 6q32 0 43 -4q1 0 4.5 1t5.5 1q4 0 10 -2t10 -2q3 0 11 2.5 t14 3.5h96q15 0 21 -4q1 0 4 1t4 1h57l8 -4q10 -29 11 -37q10 -30 10 -35q1 -4 7 -23t11 -28q3 -6 7.5 -22t9.5 -23v-6q0 -1 6 -25q1 -3 1.5 -7.5t1.5 -8.5t3 -8q0 -7 10 -37q0 -1 1 -4t1 -4q0 -19 6 -27q0 -16 7 -23q0 -7 4 -19.5t4 -14.5q3 -6 5 -18t5 -17q0 -6 3 -17.5 t3 -17.5q3 -6 5 -18t5 -17q0 -7 4 -18.5t5 -16.5q0 -4 4 -12q0 -6 3.5 -15.5t4.5 -13.5q0 -5 3 -14t3 -14q6 -12 6 -27q5 -7 6.5 -16t3.5 -18.5t7 -16.5q0 -7 4 -20.5t4 -20.5q6 -30 6 -33q10 -20 10 -37q0 -3 8 -37q0 -3 2 -7.5t2 -6.5q0 -5 3.5 -12.5l3.5 -7.5q0 -4 1 -11 t1 -10q3 -5 4 -16.5t4 -16.5q3 -16 8 -28q0 -6 3 -16.5t3 -16.5l8 -25q0 -1 1 -3t1 -3q2 -13 13 -35q0 -2 1 -7.5t1 -8.5q4 -5 5.5 -17t4.5 -16v-2q9 -42 16 -57l19 -60q3 -7 8 -28l4.5 -13.5t3.5 -17.5q2 -7 6 -24.5t8 -26.5l9 -29q0 -5 3 -12.5t3 -9.5q0 -5 2.5 -12.5 t2.5 -12.5t-5 -10q-20 -1 -63 0t-64 0l-10 4q-19 3 -35 -2q-2 -2 -8 -2h-48q-2 0 -6.5 2t-7.5 2q-8 0 -24.5 1t-24.5 1l-14 6q-7 9 -11 29q-8 16 -10 24q-2 7 -4 20.5t-4.5 23.5t-7.5 18q-1 4 -3.5 14.5t-5 19t-6.5 13.5q1 7 -2.5 17t-3.5 14t-3.5 13.5t-2.5 14.5l-4 12 t-4 15q-7 3 -10 10q-6 2 -37 2q-8 4 -10 4q-29 0 -37 -4h-6h-99q-8 4 -10 4q-14 2 -47 2h-39q-16 0 -22 6q-2 -2 -9.5 -4.5t-11.5 -5.5t-4 -8q0 -9 -7 -29t-5 -30l-9 -19q-4 -8 -4 -14l-8 -35q0 -1 -1 -4t-1 -4q-2 -15 -10 -40t-10 -36q-7 -17 -7 -31l-6 -14q-1 -2 -0.5 -8 t-1.5 -8q-4 -1 -13 0t-13 0h-25q-8 4 -12 4q-1 1 -7.5 -1.5t-9.5 1.5q-16 4 -26 -4q-8 4 -12 4q-3 0 -11 -4h-32q0 1 -1.5 1.5l-4.5 1.5t-5 3q-25 0 -32 4q-4 -5 -24.5 -4.5t-23.5 0.5q-6 4 -6 10zM492 672q4 -12 18 -15q5 0 14.5 1.5t17 1.5t13.5 -3h20q8 5 21 5h100 q19 0 27 2q1 0 4 1t4 1q0 8 2 12q0 12 -7 32.5t-7 34.5q0 4 -2 11t-2 10q0 11 -4 27q-1 3 -2 6.5t-1 6.5v6.5t-1 6.5q0 1 -1 3t-1 3l-5 17q0 4 -2 10.5t-2 9.5q0 6 -2 13l-4 14t-2 12l-4 8q0 4 -1 13.5t-1 13.5l-10 31v18q0 4 -3 10.5t-3 10.5q0 5 -3.5 12.5l-3.5 7.5v29 l-6 18q1 2 0.5 5.5t-2 5.5t-2.5 5.5t-2 6.5v14l-2.5 5t-2.5 6t-1 7q0 5 -3 16.5t-3 18.5v21l-8 16l-19 4q-1 -1 -3 -2q-3 -1 -3 -2q-9 -18 -10 -22q-1 -9 -6 -27t-6 -27q-5 -5 -5 -6q0 -5 -1 -12.5t-1 -11.5q0 -2 -2.5 -9t-1.5 -10q0 -7 -4 -20.5t-4 -20.5q-4 -6 -4 -22 q0 -2 -1 -4.5t-1 -3.5q-4 -6 -4 -19q0 -5 -3 -14t-3 -15l-6 -16q0 -10 -7 -20l-6 -23q0 -8 -1.5 -18.5l-3 -21t-1.5 -17.5t-3 -19t-3 -20q0 -7 -4 -21.5t-4 -21.5q-4 -8 -4 -25v-6q-6 -8 -6 -27q0 -2 -3 -11.5t-1 -16.5z" />
<glyph unicode="B" horiz-adv-x="1110" d="M133 1493q4 4 8 6t7.5 3.5t10 2t9 0.5h11.5h11q4 4 9 4q53 2 159 2q1 1 2 1.5t2.5 1t3.5 1t3 1.5q86 3 176 0q2 0 12 -5q13 0 61 -8q5 0 9 -4q9 0 17 -1t18 -3.5t16 -3.5q4 -4 8 -4q19 0 29 -4q20 -3 37.5 -10t45 -24.5t29.5 -18.5l7 -7l6 -8q6 -2 16 -12q2 -4 10.5 -17 t10.5 -20q20 -40 26 -63q0 -3 4 -7v-22q6 -30 6 -31v-26q0 -1 3.5 -7.5t3.5 -11.5q-5 -10 -5 -14q-2 -16 -2 -51q0 -9 -3 -26.5t-3 -27.5q-6 -8 -6 -26l-6 -17q0 -14 -12 -37t-13 -32q0 -1 -1 -3t-1 -3q-10 -7 -18 -29.5t-16 -30.5q-2 -2 -4.5 -5t-4 -5.5t-4 -5.5t-4 -5.5 t-4 -5l-4.5 -4.5q-8 -8 -10 -14q-8 -8 -24.5 -22.5t-24.5 -22.5v-14l4 -4q9 -2 17.5 -7.5t18.5 -14t15 -11.5q13 -5 39 -23l6 -8l12 -10l19 -21q2 -4 8 -14.5t8 -17.5q1 -6 7 -18.5t7 -14.5l13 -33q2 -5 3 -15.5t3 -15.5q2 -8 2 -26q6 -12 6 -31q0 -7 3 -22t3 -23 q0 -35 -2 -51q0 -2 -4 -10v-21q0 -7 -4 -23q-1 -3 -1.5 -11t-2.5 -13q-4 -22 -10 -31q0 -4 -3.5 -10t-3.5 -10q-1 -3 -3 -7.5t-3 -8t0 -7.5l-10 -18l-4 -15q-12 -17 -27 -34l-61 -31q-1 -1 -5 -1.5t-7 -1.5t-5 -3q-3 -2 -10 -3t-10 -3q-38 -9 -49 -15q-27 0 -41 -2 q-12 -4 -16 -4q-6 0 -16 -3t-17 -3q-42 0 -60 -2q-2 0 -5 -1t-5 -1l-35 -4q-4 0 -8 -4h-147q-8 -4 -11 -4q-2 0 -6.5 1t-7.5 1q-8 2 -25 2q-4 -4 -8 -4q-2 0 -4 2q-4 -2 -10 -2q-1 0 -5 1t-7 1q-6 2 -25 2h-74q-18 0 -28 2q-2 0 -4 0.5t-3.5 1.5t-2.5 2t-2 3.5t-2 3.5 t-2 3.5t-1 3.5v43q4 8 4 27v94q0 88 2 133q0 8 3 14q0 6 -3 9q-3 19 0 39q1 2 1.5 4t0 3.5t-1 3.5t-0.5 3q0 2 5 12l-5 8q1 1 2.5 5.5t2.5 5.5v28q-4 13 -2 17q-3 4 -3 20v127q0 3 1.5 8.5t1.5 8.5q0 1 -1.5 3.5t-1.5 4.5v30q0 1 1.5 4.5t1.5 4.5q1 3 0 8t0 8q1 2 -1.5 6.5 t-1.5 7.5q-2 4 0 11.5t0 11.5q-1 3 -1 6.5t0.5 7.5t0.5 6v45q-1 36 -1 107.5t-1 107.5v99q-4 8 -4 10q-2 16 -2 51l-4 12q-1 32 -1 97t-1 96zM424 975q0 -1 1 -3t1 -3l14 -6q6 3 14 4t17 1t14 1q7 0 11 4h18q72 29 104 53q4 4 12.5 11.5t16 15t12.5 14.5l13 27q0 24 2 36 l2 9q4 17 -4 45l-6 24l-13 25q-18 42 -53 67q-30 23 -49 29l-23 6h-49h-51q-4 -4 -4 -12v-295l2.5 -7.5t1.5 -6.5t-4 -10v-29zM436 592l6 -10v-232q3 -9 9 -18l14 -15q2 -1 9 -3t9 -3t8 -2.5t9.5 -1t8.5 1t9 2.5q2 0 4.5 -1t3.5 -1h31q8 4 12 4q4 2 15 2q1 1 9.5 7t14.5 6 l33 30q20 20 23 37q3 7 8 33q0 15 2 21q0 6 4 10l-4 10q0 1 1 3t1 3t-1 3.5t-1 4.5q-2 8 -2 23q0 5 -3 12.5t-3 11.5q0 5 -3 13t-4 10l-12 20q-18 32 -31 41l-28 15q-3 1 -17 5t-22 7q-5 0 -19.5 3t-21.5 3q-3 0 -8.5 -1t-7.5 -1h-21q-2 0 -3.5 -1t-2.5 -1t-5 -1.5t-5.5 -2 t-5 -2t-5 -2.5t-3.5 -3t-3 -4t-2 -5v-31z" />
<glyph unicode="C" horiz-adv-x="1421" d="M94 705q-3 51 0 98q1 2 2 5.5t2 4.5q2 10 2 33q1 1 2 4.5t2 5.5q0 4 1 12.5t1 12.5q0 2 3.5 8.5t3.5 9.5q-1 5 2.5 16t3.5 15q0 5 3 15.5t3 15.5q10 15 10 36q2 5 5 13.5t5.5 15t6 14t6.5 13.5q4 6 22 51l17 26q9 18 14 23q13 26 18 31q8 5 18.5 24.5t14.5 24.5 q4 6 12 16t9 11q11 11 20 26q31 31 47 43q9 10 20.5 20t19.5 16.5t24 17.5t22 16q10 2 21 10q3 3 7 5t9 4t8 3q1 0 22.5 12t33.5 17q13 3 28 10q15 10 39 17q0 2 4 2q7 0 17.5 3.5l13.5 4.5q3 0 9 2t9 2t7 1.5l8 3t6 1.5q5 0 11 1.5t13.5 3.5t10.5 3q2 0 10 4q53 0 80 2 q5 0 11 1t9 1q5 -2 13.5 -2.5t11.5 -1.5q5 0 10 -1.5l10 -3t9 -1.5q6 0 18 -3t20 -3h9q2 -2 6 -2q4 -3 12 -4t12 -4q24 -12 43 -12q6 -2 17 -2q27 -13 51 -25q15 -3 27 -12q3 -2 11 -4.5t11 -4.5q3 -1 10.5 -4.5t12.5 -3.5q3 -1 6.5 -3.5l7 -5t6.5 -3.5l14 -6l48 -27 q5 -5 16.5 -11t15.5 -9q1 -1 8 -7.5t11 -12.5t2 -11q-3 -9 -10 -17.5t-15 -17t-12 -16.5l-8 -8l-37 -39l-16 -19q0 -2 -3 -5t-4 -5l-41 -41q-1 -2 -6 -7.5t-6 -8.5q0 -4 -4 -4q-2 -2 -9 -8t-9 -9q-15 -18 -31 -37l-10 -6q-5 0 -10 3.5t-7 4.5l-6 7q-6 3 -13.5 10.5 t-10.5 9.5q-13 13 -35 20q-6 3 -16 8.5t-15 8.5h-8l-29 12q-3 3 -7.5 4.5t-9 2.5t-7.5 3q-13 2 -39 13q-10 2 -68 2q-4 -4 -8 -4q-3 3 -11.5 0.5t-9.5 -2.5q-12 0 -18 -2q-1 0 -16 -5q-2 -1 -8.5 -3t-10 -3t-8 -3.5t-8.5 -6.5q-10 -3 -35 -20q-2 -2 -4 -2q-40 -40 -47 -48 l-13 -16q-11 -11 -18 -29l-25 -32q-6 -6 -12.5 -18t-7.5 -13q-1 -10 -16 -39l-5 -20q-3 -3 -6.5 -15t-1.5 -16q0 -1 -6 -19q0 -4 -1 -12t-1 -12l-4 -10v-76q4 -4 5 -10t0.5 -13.5t0.5 -11.5q4 -8 4 -10q0 -3 1 -8t1 -7l4 -8q2 -10 11 -28l4 -15q6 -9 20.5 -27t20.5 -28 q9 -14 14 -17l25 -20l4 -4q19 -21 47 -39l18 -12l23 -13h14q9 -3 25.5 -9t25.5 -9q7 0 19.5 -3t19.5 -3h51q5 0 14 1t13 1q4 2 13.5 3t13.5 3q12 4 20 4q15 0 27 6q7 1 19.5 7.5t19.5 7.5l34 18q13 10 56 29h6q5 -3 14 -17q4 -7 14.5 -20.5t14.5 -20.5q8 -9 21.5 -29.5 t21.5 -29.5q1 -1 1.5 -2.5t1.5 -3.5t3 -4q2 -3 10.5 -15t14.5 -18q3 -3 7 -10.5t7 -10.5l8 -18q1 0 3 -1t3 -1q4 -7 13 -22.5t15.5 -27t10.5 -22.5v-6l-20 -16q-2 -2 -5.5 -4t-4.5 -4l-21 -19l-22 -14l-21 -17q-14 -9 -16 -10q-8 -2 -21 -11t-20 -11q-8 -1 -20.5 -7.5 t-16.5 -7.5q-4 0 -12 -4q-6 -4 -21 -9t-22 -9q-22 -6 -23 -6t-8.5 -2t-11.5 -4q-3 -1 -10.5 -1.5t-10.5 -1.5h-6q-14 -6 -43 -6q-5 0 -16 -2t-15 -2l-18 -4q-7 -3 -18.5 -0.5t-16.5 0.5h-8q-9 6 -21 0q-6 0 -10 2h-27q-2 0 -5 -1t-5 -1q-5 2 -15.5 2.5t-13.5 1.5q-2 0 -10 4 q-3 0 -11.5 1t-12.5 1q-2 1 -33 7q-10 0 -29 8.5t-28 9.5q-6 3 -23.5 7.5t-24.5 8.5q-5 2 -15.5 6t-12.5 5q-65 30 -72 34q-10 5 -12 5l-15 10q-2 0 -4.5 1t-3.5 1l-35 22q-13 8 -32 24t-25 21q-4 2 -14 11l-41 41q-5 8 -30 39.5t-34 50.5l-18 28q-10 14 -25 58q-1 3 -4 9 t-5 11t-3 10q-3 4 -5 14t-5 15q-2 12 -10 31q0 2 -1.5 7t-1.5 7q0 3 -1 9.5t-1 9.5q0 4 -4 8q0 4 -1 13t-1 13q-4 7 -5 14.5t0 19t1 14.5z" />
<glyph unicode="D" horiz-adv-x="1142" d="M137 156q0 8 1 24.5t1 24.5q0 2 1.5 5.5t1.5 7t-3 7.5l4 8q-7 15 -4 39q0 1 1 4t1 5q2 2 0 4q0 2 -1 5t-1 5l4 12q-2 2 -2 8q0 3 1 9.5t1 9.5v76q-3 5 -4 11t-1 11v12t-1 11v84q0 16 6 28q-4 8 -4 11q0 4 4 12v266l7 14v62q0 5 3 23.5t-1 21.5q0 4 2 12t2 12v312 q-4 4 -6 10v115l-5 10v27q5 10 5 14q1 0 3 1t3 1q2 1 5.5 2t4.5 1.5t4 1t5 0.5h4.5t5 -1t5.5 -2q5 0 13 4h2q8 -3 16.5 -4t19.5 -1t17 -1h92q3 -3 9.5 -4.5t15.5 -2t16.5 -0.5t17.5 0.5t13 0.5q2 -1 5.5 -2t4.5 -2h6q40 0 58 -2q14 0 20 -4h8l25 -7q1 0 9 -1t13 -5 q13 0 37 -12q13 0 37 -8q11 0 31 -15q2 -1 7 -1.5t8.5 -2t6.5 -4.5q8 -1 16 -4t21.5 -10.5t14.5 -7.5q7 -6 19 -14.5t20 -15t17.5 -15t17.5 -17.5t14 -20q20 -25 32 -43q2 -5 8.5 -14.5t8.5 -14.5q8 -14 22 -31l4 -12q1 -3 4.5 -7t5.5 -7.5t1 -7.5q8 -15 10 -27l6 -23 q8 -20 10 -30q2 -2 2 -6q1 -3 1 -9.5t1 -9.5q1 -2 4 -7.5t3 -8.5v-8q4 -7 5.5 -20.5t4.5 -18.5v-13q2 -2 2 -8q0 -4 4 -12v-21q0 -6 3 -18t3 -18q2 -20 2 -64q0 -4 2 -6q0 -3 -1 -9.5t-1 -9.5q-2 -23 -2 -71q0 -4 -4 -8q2 -2 2 -7q0 -6 -2 -8q0 -22 -2 -32q0 -9 -2 -23.5 t-2 -22.5q-1 -3 -1.5 -7.5t-1.5 -8.5t-3 -8v-10q0 -7 -4 -19l-2 -2q0 -15 -7 -33q0 -5 -3 -12.5t-3 -9.5q-2 -9 -10 -29.5t-8 -34.5q0 -1 -1 -4t-1 -4q-9 -18 -10 -22l-7 -21q-4 -8 -12 -26.5t-12 -26.5q-4 -4 -4 -8q-2 -9 -10.5 -23.5t-10.5 -21.5q-5 -3 -12.5 -12 t-9.5 -11q-13 -22 -37 -39q-14 -22 -27 -28q-4 -1 -16 -13q-5 -5 -14.5 -10.5t-12.5 -7.5q-2 -1 -9 -4t-9 -6q-8 -8 -41 -19q-14 -5 -33 -16q-17 0 -23 -4l-30 -8q-5 0 -14 -3.5t-11 -3.5q-6 0 -18.5 -3t-18.5 -3h-45l-12 -6h-102q-8 -4 -11 -4q-18 0 -51 -1t-51 -1 q-16 0 -50 1t-50 1q-17 9 -17 29zM397 461l11 -8h6q8 -2 26 -2l27 4q3 2 8 2.5t10.5 0.5t8.5 1q4 0 6 2q24 8 49 22l24 15q6 5 13.5 12.5t16 16.5t13.5 14q10 8 21 22l18 35q3 3 13 23l8 32q5 5 6 16.5t2 14.5q4 16 4 21q0 4 2 10.5t2 9.5q2 10 2 27v51q4 8 4 12v35 q-4 16 -4 22q0 4 -1 7.5t-2.5 8l-2.5 7.5q0 37 -2 53q-4 12 -4 19t-6 23t-6 26l-13 20q-17 34 -43 54l-22 16q-2 2 -5.5 3.5t-7.5 3t-6 3.5q-4 0 -24 10l-19 9q-7 1 -24 10q-22 4 -31 8q-6 -1 -24.5 -0.5t-24.5 -1.5q-1 0 -3 -1t-3 -1q0 -2 -4 -6q0 -17 -2 -27v-12 q0 -1 -0.5 -3t-1 -3.5t0 -3.5t1.5 -4q-6 -11 -2 -29q0 -2 4 -10l-6 -13v-145l1 -64.5t-1 -64.5q-1 -4 -1.5 -15.5t-2.5 -17.5q-3 -6 -3 -14v-105q0 -10 -2 -14q-2 -1 -0.5 -6t0.5 -8q0 -5 -2 -9q4 -12 2 -26q-2 -1 -0.5 -6t0.5 -8q0 -1 -4 -13v-28q1 -5 0 -16.5t0 -16.5z " />
<glyph unicode="E" horiz-adv-x="1058" d="M137 174q-1 3 -0.5 6t1 5t1 4.5t0.5 5.5q2 74 2 227q4 12 5.5 30t1.5 32.5t-0.5 37.5t-0.5 33q1 2 5 12q2 37 2 115l4 14q2 84 2 258l4 13v37q0 2 -4 10q0 22 4 30q0 1 -1 5t-1 6q-1 6 -1.5 6t1.5 6.5t2 7.5q0 2 -4 10v39l4 11v26q-1 1 -4 10v299q4 3 11 5.5t12.5 3.5 t16 1.5t15.5 0.5h16.5h14.5q16 0 24 4h13q10 0 30.5 1t32.5 1h80l10 4h119q12 0 18 -2q1 0 4.5 1t4.5 1h63q10 0 14 -2h7q12 4 39 4h38q8 -4 13 -4q2 0 4 2q8 -4 10 -4h39q21 0 33 -2q4 0 11 -2t11 -2h21q2 -2 4 -2l2 -2q0 -11 4 -27v-25l-4 -12q0 -17 -1 -51.5t-1 -52.5 l-4 -9q0 -50 -2 -75q-4 -4 -9 -4h-57l-10 -7h-49l-13 -6h-24q-18 -11 -29 0q-12 -4 -14 -4q-18 -2 -55 -2q-34 0 -50 2q-1 0 -2 0.5t-3.5 1.5t-4.5 2h-164l-14 -8q-5 -5 -1.5 -24.5t3.5 -22.5q0 -4 1 -11.5t1 -11.5v-231q1 -3 4 -5.5t5.5 -4t7.5 -3.5t6 -3q1 0 4.5 1t5.5 1 q13 -5 27 2q25 -1 89 0.5t89 -0.5l8 -4h20q4 -4 4 -6q-1 -4 -1.5 -9.5t0 -10.5t1 -11.5t0.5 -9.5v-86q-4 -10 -4 -31l4 -12q0 -7 -3 -25t-1 -27l-18 -8h-57q-11 0 -23 4l-8 -4q-4 4 -10 4h-19q-8 -4 -10 -4q-18 0 -55 -1t-56 -1q-8 -6 -16 -14v-88v-84l-6 -13q4 -8 4 -12 v-31q0 -2 -4 -10q0 -3 3 -8t3 -8q1 0 37 -15h29q11 4 15 4t15 -4h125q23 9 37 0q21 0 55.5 3.5t55.5 3.5q20 8 39 2q1 0 4 1t4 1q23 2 69 2l9 -8l2 -7q0 -37 -2 -55v-6q-5 -10 -5 -14v-15l5 -10v-41q0 -4 -1.5 -10.5t-1.5 -9.5q0 -2 1.5 -6.5t1.5 -6.5t-1.5 -5t-2 -5.5 t-0.5 -5t1 -5.5t3 -5v-31q-3 -2 -10.5 -4t-10.5 -4h-104l-13 4h-14q-8 2 -25.5 -1.5t-25.5 1.5h-223q-19 0 -27 -4q-8 4 -12 4q-5 0 -17 -4h-53l-14 4h-58h-61h-57q-6 4 -11 14v6q0 13 -2 19q0 2 -1 5.5t-1 4.5z" />
<glyph unicode="F" horiz-adv-x="1046" d="M141 141q0 7 2 9q0 4 4 8q-2 6 -2 18q0 4 -4 8v39l4 10l-4 13v436q0 17 4 23q0 27 1 80t1 79q0 5 1.5 16t1.5 15q-2 6 0 14v4q0 7 2 11q0 22 1 67t1 68q0 14 4 20v76q0 12 1 38t1 40v178l4 16v54q7 10 12 10q13 0 19 2h24q5 -2 17 4h126h349q6 0 18.5 1t18.5 1l8 4l10 -4 l10 4h78l10 -4q4 0 11 -1t10 -1q10 -3 12 -10v-68q0 -1 1 -3.5t1 -4.5q0 -3 -1 -10.5t-1 -11.5v-91l4 -12v-20q-4 -11 -14 -11h-31q-2 0 -9.5 -3t-12.5 -3h-9q-18 -6 -53 -6q-21 0 -31 -4h-10q-19 0 -29 -2h-20q-3 -3 -16.5 -3.5t-20.5 1.5q-3 0 -7.5 1t-6.5 1q-8 0 -34.5 2 t-45 1t-29.5 -7q-5 1 -22.5 -0.5t-22.5 2.5q-2 0 -6 -1t-6 -1q-2 -2 -8 -2l-8 -10v-103q0 -2 1 -6t1 -6q4 -4 0 -8v-6q0 -1 1 -4.5t1 -4.5q0 -4 -2 -6q4 -8 4 -16q0 -6 -4 -14q-4 -89 -2 -119q0 -2 2 -2q6 -6 8 -6q6 -2 18 2h51q3 0 8.5 -2t8.5 -2q21 0 45 -3q1 0 2 -0.5 t3.5 -1.5t4.5 -2h80l10 -6h64q8 -8 8 -14q0 -8 1 -23.5t1 -23.5q0 -82 -2 -121l-6 -14q-2 -2 -8 -2h-54h-45l-10 -5q-1 0 -3.5 1.5t-4.5 1.5q-3 0 -13 -5h-53l-12 -6l-14 4q-3 0 -11 -4h-61q-2 1 -5.5 2t-4.5 2q-11 0 -19 -12q0 -1 -1 -3t-1 -3v-49q0 -25 -4 -35 q5 -14 0 -21q0 -1 1 -3t1 -3l-4 -8v-164q-1 -2 -2 -5.5t-2 -4.5q0 -2 1 -5.5t1 -4.5q0 -4 -2 -6q10 -17 0 -33v-37q0 -6 4 -10q0 -21 -4 -29l4 -10v-98l-6 -9q-1 0 -3 -1t-3 -1h-56l-10 -6h-92q-8 -4 -10 -4q-78 0 -88 2q-4 2 -17 2z" />
<glyph unicode="G" horiz-adv-x="1597" d="M92 694v27q4 4 4 10q0 17 1 52t1 51q6 21 6 38q5 10 5 11q2 8 2 28q12 41 12 43q0 3 6 21q0 4 4 12q0 2 1 8t1 9q8 16 10 24l9 23q0 9 8 22t8 21q0 4 4 8q4 6 10.5 22.5t12.5 22.5q5 6 9.5 14t9.5 17t9 14q7 14 15 22q29 40 61 68l41 41q4 5 15.5 13.5t15.5 13.5 q19 19 33 26l20 19q26 13 35 16l35 19q20 8 30 10q4 0 11 2t10 2l18 4q7 4 29 8q16 8 29 8q8 4 28 4q8 4 16.5 5.5t23.5 2.5t18 1q2 0 10 4q8 1 22 0.5t25.5 0.5t21.5 5q4 -4 9 -4h39q4 0 12 4q4 -4 10 -4t18.5 -1t18.5 -1l12 -4h15q6 0 20.5 -3.5t22.5 -3.5l14 -4 q2 0 3.5 -0.5l3 -1t3.5 -0.5q5 -1 15 -4t17 -5t16.5 -3.5t17.5 -1.5q27 -11 45 -16q2 0 4 -2q15 -6 35 -15l41 -20q2 -1 6 -3.5t7.5 -4.5t6.5 -5q5 -3 14.5 -9t17.5 -11.5t13 -11.5l12 -11l5 -2q3 -6 7 -11t11.5 -12t9.5 -9l15 -15q0 -4 2 -6q-4 -13 -31 -22l-35 -21 q-11 -11 -37 -27.5t-37 -27.5q-6 -2 -14.5 -10t-9.5 -9q-22 -18 -39 -28q-12 -4 -21 -4q-16 8 -22 14q-14 11 -33 20q-15 12 -33 15q-3 2 -8 3.5t-9 2.5t-7 4q-4 1 -16 4.5t-19 3.5q-4 0 -16 4q-30 6 -52 6q-12 1 -26 1h-24.5t-24.5 -0.5t-23 -0.5q-4 0 -12 -4h-13 q-8 -2 -22 -2q-4 -3 -14 -4t-15 -4q-2 0 -17.5 -4t-21.5 -5.5t-16.5 -6.5t-15.5 -10q-8 -4 -22.5 -16.5t-20.5 -16.5q-21 -16 -29 -27q-12 -8 -12 -16q-24 -32 -39 -45q-4 -6 -11.5 -20t-11.5 -21q0 -9 -9.5 -25t-10.5 -18q-1 -4 -3 -9t-6 -11.5t-6 -10.5q0 -3 -6 -27 l-4 -26q-2 -4 -2.5 -15t-3.5 -16q-2 -12 -2 -39q-2 -2 -2 -8q0 -4 -4 -12v-21l6 -12v-45q1 -2 2.5 -6t2.5 -6.5t1 -4.5q0 -9 6 -27t6 -28q9 -15 15 -33q4 -14 14.5 -37t11.5 -26q3 -3 7.5 -9.5t8 -11t7.5 -8.5q21 -25 35 -33q2 0 5.5 -2.5t4.5 -3.5q7 -11 16 -14 q29 -17 31 -18q42 -19 55 -23q2 0 7.5 -1t7.5 -1l16 -6q12 0 18 -2q5 0 13 -4q27 0 43 -2q2 0 10 -4h25q3 3 13 5t18.5 2t22.5 -0.5t17 -0.5q24 12 51 12q5 4 18 5.5t17 4.5q7 1 17.5 7t15.5 8l45 34q8 5 12 13q2 5 8 10l7 4q15 18 24 39q5 5 21 37q0 1 1 4t1 4q0 23 -19 29 q-7 0 -20 1t-19 1q-1 0 -3 1t-3 1t-4.5 -1t-5.5 -1l-12 4q-1 -1 -4.5 -2t-5.5 -2q-3 0 -15 4q-4 -4 -10 -4h-70l-8 8q0 7 -1 22t-1 23q0 1 -1 4t-1 4q0 3 1 8t1 8q0 35 6 41h25h338q6 0 8 2q12 5 41 5q53 0 80 2q2 0 5 1t5 1q6 2 14 -2q2 0 6.5 -1t6.5 -1q0 -1 1 -3.5 t1 -3.5q3 -17 -2 -28q-3 -6 0 -13q4 -5 0 -20q-4 -11 2 -33q-2 -2 -2 -6q-2 -35 -2 -100q0 -5 -3.5 -25t1.5 -26q0 -1 -2 -4l-3 -5v-71q0 -49 -2 -74l-4 -12v-54q0 -38 -4 -47q-2 -4 -2 -12q0 -2 0.5 -15t0 -21t-1.5 -19.5t-4.5 -17t-8.5 -5.5q-35 -2 -107 -2q-8 4 -10 4 q-18 4 -57 0q-1 0 -13 -4h-30q-7 0 -23 -4q-4 0 -8 2q-12 -6 -39 -2l-4 4q-2 4 -2 8q0 3 -1 10.5t-1 10.5q3 16 -4 33q0 3 -0.5 6t-1 4.5t-2 4t-2 3.5t-3 3t-3 2t-4 2.5l-3.5 2.5h-8q-9 -4 -32.5 -21.5t-38.5 -21.5q-2 0 -6 -2t-5 -2q-3 -1 -11 -5.5t-13 -7t-13 -5t-14 -2.5 q-4 0 -8 -4h-25l-7.5 -3.5t-12.5 -3.5q-13 0 -17 -2q-4 0 -12 -4h-26q-8 -4 -9 -4q-9 -2 -19.5 -2t-23.5 1t-20 1q-4 0 -12 4h-35l-13 6h-61l-12 7h-35q-3 3 -8.5 4.5t-13 2.5t-11.5 3l-22 6q-39 15 -45 18q-2 1 -6.5 2t-8 2t-6.5 3q-12 8 -18 8l-41 18l-25 12 q-9 3 -22.5 13t-18.5 12l-22 14q-18 12 -33 27q-12 16 -23 18q-3 3 -9 8.5t-9.5 9.5t-8 9t-7.5 10q-8 13 -15 17q-20 24 -31 45q-2 4 -7 13t-9 16t-8 12q-11 33 -25 61q-1 3 -4.5 10.5t-3.5 12.5q-12 24 -14 39q-2 3 -3.5 12.5t-4.5 13.5q-1 4 -5 14.5t-4 16.5q3 3 0 6 q-4 5 -5 12.5t-0.5 16.5t-0.5 14q0 2 -4 10z" />
<glyph unicode="H" horiz-adv-x="1402" d="M139 125q-2 19 -2 70.5t2 91.5l4 8q0 2 -4 14v47q4 8 4 13q0 20 1 62.5t1 64.5v473q5 12 5 43q2 10 2 28q0 6 -5 21q0 1 1.5 3.5t1.5 4.5q3 95 0 195q0 2 -5 12v43l5 10q0 7 1 20.5t1 20.5v45q0 35 4 43q7 1 22 0t23 0h43q13 10 26 0h27q6 -1 16.5 -0.5t19 -0.5t15.5 -5 h64l4 -6q0 -12 1 -37t1 -37l4 -10q-4 -8 -4 -29v-33q7 -15 2 -26v-14q3 -9 3.5 -19t-0.5 -24.5t-1 -20.5q2 -23 2 -70l4 -12q0 -14 1 -43t1 -43q1 -2 2 -5.5t2 -4.5q0 -5 1 -14t1 -13t4 -8q-5 -21 -4 -25q0 -8 2 -25.5t2 -25.5q2 -2 7.5 -4t10 -3.5t5.5 -4.5h80 q9 -3 23 -4.5t22.5 -1.5h28.5h24q1 0 4 1t4 1q12 4 33 4h43q6 0 14 4q2 0 7.5 -1t7.5 -1h8q2 0 4.5 1t3.5 1q4 2 6 2q6 0 36 4t36 0q4 0 6 -2q2 0 4.5 1t3.5 1q2 0 12 -2.5t13 0.5q4 0 12 12v7q0 5 -2 16t-2 16v19q7 15 4 31q0 6 -4 10v57l6 12v299q4 20 4 21q2 10 2 29 q0 11 2.5 15t12.5 9h6q53 0 82 2q14 0 20 2q3 -1 9 0.5t8 1.5t10 -4h37l12 4q4 0 16.5 0.5t21 0.5t19 -1t16 -5t5.5 -11t1 -22t1 -23l4 -8v-39q-4 -12 -4 -19v-53l4 -12v-217q0 -24 1 -73.5t1 -74.5q0 -9 -1 -28.5t-1 -28.5q0 -3 -1.5 -10.5t-0.5 -12.5q-2 -6 -2 -18v-311 q0 -1 1 -4.5t1 -4.5q0 -2 -1 -6t-1 -6q0 -29 2 -35v-6q-2 -4 -2 -10t1 -11.5t2 -13t1 -12.5v-100l6 -17l-6 -10v-133l-4 -4h-31q-8 0 -25.5 2t-27.5 2q-5 0 -21 -4l-12 4q-4 -4 -10 -4q-20 0 -23 2q-2 2 -6 2h-51q-26 0 -33 -4q-25 -3 -47 0q-4 10 -6 41q0 4 -4 12 q0 4 1.5 16.5t1.5 22t-3 14.5q1 1 2 5t2 6q-4 8 -4 12v88q10 14 0 27v82q4 7 4 30q0 2 -4 10l6 13q0 7 -2 19t-2 16q3 6 3 18t1 14v31q10 13 0 29q0 7 -1 24t-0.5 29.5t3.5 24.5q0 14 -23 22q-2 0 -4.5 -1t-3.5 -1h-20l-10 4h-7q-104 0 -155 2q-12 0 -34.5 -1t-33.5 -1h-65 q-12 0 -33 1t-31 1h-10q-8 -3 -14 -12v-39q-4 -4 -4 -12q-3 -105 -3 -217q-1 -1 -2 -5t-2 -6q-2 -37 -2 -116q-1 -1 -2 -5t-2 -6q0 -14 -1 -44t-1 -46l-2.5 -7.5t-2.5 -8.5t-1 -8v-76q-4 0 -12 -1t-14 -1t-11 2q-15 -4 -22 0q-5 0 -9 -2q-2 0 -5 1.5t-5 0.5q-8 -4 -20 0 q-2 0 -4.5 -1t-3.5 -1q-16 -2 -52.5 -1.5t-50.5 -2.5q-4 0 -6 2h-27q-4 -4 -8 -4q-18 0 -24 -2q-7 2 -15 10z" />
<glyph unicode="I" horiz-adv-x="636" d="M131 575l4 9v55q4 8 4 12q2 49 2 150q0 6 4 18q0 9 1 27t1 26t3.5 23t3.5 23v55q0 5 1 12.5t2 14.5t1 12q2 12 2 35q0 3 1 9.5t1 10.5t-2 8l4 12q2 31 2 97l4 10q0 8 1 26t1 27v39q0 10 2 14l4 27v31q0 6 4 18q0 9 1 28t1 28l4 10v33l7 4h14q6 0 8 2q8 3 18 4t21.5 1 t17.5 1q3 0 11 4h24q7 0 20 1t19 1q4 2 9.5 3t10 1.5t9.5 1.5t8 4q12 -4 18 -4q2 -1 9 -1.5t10 -2.5q0 -1 1 -2t1 -2q0 -2 1 -6t1 -6q-2 -47 -2 -144q0 -2 -4 -10q0 -5 1.5 -12t1.5 -13t-3 -12v-4q1 -1 2 -4.5t2 -5.5v-146q-4 -16 -4 -20q0 -49 -2 -74v-96q0 -11 1 -34 t1 -36q-2 -61 -2 -182l-4 -10v-25q1 -1 2 -4.5t2 -5.5q0 -12 -4 -18v-33q8 -12 0 -37q4 -8 4 -10q1 0 1 -197l-1 -196l-6 -21q-2 -2 -6 -2q-14 -2 -41 -2q-8 -4 -11 -4q-17 -2 -47.5 1t-38.5 3h-102q-6 0 -9 2.5t-5.5 7t-4.5 6.5q0 23 -2 33q0 2 -1 5t-1 5q-2 14 -2 43 l-6 13q1 3 1 20t3 25q-1 1 -2 4.5t-2 5.5q2 2 3.5 6t2.5 11t1 13t-0.5 16.5t-0.5 18t-1 21.5t-1 22q0 2 -1 5t-1 4t1 3t1 3q-4 12 -4 37v98q0 10 -4 22z" />
<glyph unicode="J" horiz-adv-x="1185" d="M92 1243v64q0 14 2 20q3 4 3 10t-1.5 14.5t-1.5 12.5q0 1 1 4.5t1 5.5v15q-4 8 -4 28v31q0 2 1 4.5t1 3.5t1 3t1 3q-2 2 -2 8q-1 3 0 5.5t2.5 5t1.5 4.5q4 4 8 4q14 0 44.5 1t46.5 1q5 3 13.5 4t15 1t17 -0.5t15.5 -0.5h92q11 0 17 -4q12 9 26 0q25 8 37 0h53q38 0 56 -2 q8 0 12 -2q2 0 5 -1t5 -1q13 0 25 -6q2 -1 8.5 -1t9.5 -1q1 0 5 -1t7 -1q5 2 9 2q39 0 59 2q3 0 10.5 -1t10.5 -1q8 2 24 2q3 3 9.5 2.5t9.5 1.5h10q21 0 62 1t61 1q10 0 22.5 -0.5t24.5 -1t22 -0.5h45l4 -6q0 -15 5 -25v-12q0 -9 1 -26t1 -25q0 -3 -2.5 -15.5t0.5 -15.5 q-5 -7 -5 -27v-59q0 -92 -2 -139v-60q0 -4 -4 -12v-21q0 -6 4 -18l-4 -8q-1 -50 -1 -151.5t-1 -151.5q-7 -18 0 -27q-4 -12 -4 -14q0 -36 -2 -52q0 -2 -4 -10v-37l-6 -12q0 -21 -2 -31q0 -3 -2 -9.5t-2 -10.5l-6 -21v-18q-2 -5 -7 -18.5t-6 -20.5l-8 -33q-4 -20 -12 -30 q-2 -2 -3 -7t-2.5 -10t-4.5 -8l-13 -20q-27 -54 -51 -78q-5 -4 -12.5 -12.5t-14.5 -14.5t-14 -10q-5 -9 -22 -17l-48 -24q-6 -3 -16.5 -5.5t-13.5 -4.5q-17 -3 -35 -13q-1 0 -14 -2t-19 -4q-2 -1 -5 -1h-6t-5.5 -0.5t-5 -1.5t-4.5 -3q-24 -2 -50 -2t-57.5 1t-48.5 1l-10 4 q-25 0 -37 2q-2 0 -10 4q-17 0 -27 2q-19 9 -27 11q-24 11 -55 26q-15 15 -23 19q-39 27 -49 34q-2 2 -7.5 8.5t-8.5 8.5q-9 9 -12 18q-3 4 -11 15.5t-15 20.5t-13 15q0 2 -1 6.5t-1 6.5q-9 9 -23 47q-8 20 -8 31q0 3 -2.5 11.5t-1.5 12.5q0 6 -3 17.5t-3 17.5q-6 24 -6 27 v26q0 3 -1.5 6t-3 7t-2.5 6v92q0 3 -2.5 11t0.5 9q-4 10 -4 31.5v26.5l4 4h56q1 0 4 -1t4 -1q6 -2 18 -2q12 4 17 4h20q4 -2 6 -2t5 1t4 1h20q2 0 10 -4q2 0 8.5 2.5t8.5 -0.5q2 -2 6 2q19 -9 20 -10v-78q4 -8 4 -13q2 -4 2 -18q1 -3 1.5 -13.5t2.5 -15.5l5 -35q0 -2 2 -7 t2 -9v-18l6 -15q0 -4 2 -8.5t6.5 -9.5t5.5 -6q12 -20 19 -25q3 -3 22 -18l19 -10q23 -17 53 -17l12 -6h59l13 6h22l29 12q6 1 25 10t28 9l10 8q17 9 31 29q11 23 12 26l17 47q0 2 1 6.5t1 6.5q0 8 2 12q4 8 4 41q6 12 6 22v62q6 6 6 41v33q4 8 4 10q0 7 1 23t1 24v39 q0 29 5 39q0 1 -1 3t-1 3q0 4 4 8v264q8 21 2 31q6 10 2 21t-13 14q-2 2 -6 2q-43 2 -133 2h-39q-3 0 -6 1t-4 1q-13 -2 -27 2h-2l-10 -4q-8 0 -26 -1t-29 -1q-2 0 -10 -4q-22 0 -29 4q-1 -1 -4.5 -2t-5.5 -2h-25l-10 4h-68q-1 0 -3.5 -1t-4.5 -1q-1 0 -4.5 1t-5.5 1h-17 l-12 -4l-76 -1q-77 0 -77 1l-15 6q0 1 -1 3t-1 3z" />
<glyph unicode="K" horiz-adv-x="1290" d="M135 305v191v65q0 5 3 18.5t-1 18.5q0 3 1 8t1 8q2 14 2 48v38q4 8 4 9v57l-4 8q0 3 2.5 12t1.5 13q1 23 1 69t1 70q-1 26 0 80t0 80v12l5 12v21q0 13 1 41t1 43q0 1 1 4t1 4q0 23 2 33v16q-7 22 0 35q0 24 -4 31v2v102q0 2 2 6l6 6q51 0 78 -2q1 0 3.5 -1t4.5 -1 q21 -3 37 2q6 0 10 -2q4 2 12 2q23 2 64 2q18 0 26 -4q1 0 3 1t3 1q18 -10 21 -20v-92q-7 -18 -2 -31q1 -2 0 -5.5t0 -4.5q3 -5 1.5 -15.5t0.5 -17.5q0 -21 -4 -29l4 -12v-31l-4 -10q-2 -50 -1 -149t-1 -148l6 -6h27l8 6q11 22 26 39q2 2 5 6t5.5 6.5t6.5 3.5q0 1 1 3.5 t1 3.5l16 22q1 2 5 6t6.5 8.5t3.5 8.5l4 4q17 15 41 55q4 5 11 15.5t13 18t12 13.5q15 12 21 31l20 22q9 9 18 21.5t18.5 27t17.5 23.5l6 10q10 9 20 27l19 22q14 24 20 31q23 27 45 55q1 1 17 23q23 23 28 33q3 3 7.5 8t7.5 8t7.5 6.5t8.5 5.5q2 1 4 3.5t3.5 5t4.5 2.5 q11 -4 26.5 -16.5t22.5 -16.5q4 -4 8.5 -7.5t11 -8t9.5 -7.5q15 -8 23 -18q4 -3 9.5 -8.5t10.5 -9.5t10 -7l25 -22l16 -13q32 -21 39 -32q0 -4 -1.5 -7t-4.5 -7t-4 -5l-18 -26q-9 -9 -21 -29q-13 -18 -16 -23q-9 -9 -15 -18l-73 -111q-4 -4 -4 -6q-24 -41 -45 -65l-21 -27 l-18 -26q-4 -8 -9 -13q-8 -13 -53 -76q-5 -11 -8 -12q-10 -20 -23 -33q-18 -18 -18 -43q0 -2 1 -7t1 -7q15 -31 27 -47q4 -4 10 -14t6 -15q1 -1 10 -10.5t11 -15.5q1 -3 2.5 -6t3.5 -6t4 -5.5t3.5 -5.5t2.5 -6q4 -5 8 -12t9 -16t7 -13q23 -23 37 -61l9 -13q12 -20 14 -22 q3 -3 7 -10.5t7 -10.5l23 -30q15 -19 20 -33l6 -10q3 -2 5.5 -5.5t4.5 -6.5t4.5 -7t4.5 -6q3 -3 7 -11.5t7 -11.5l29 -49q4 -2 8 -10q5 -4 12.5 -16t12.5 -17l4 -4q4 -11 14.5 -29t13.5 -26q3 -7 -4 -14q-3 -2 -7 -5t-7 -5.5t-7.5 -5t-8.5 -3.5q-39 -20 -50 -22 q-2 -1 -6 -3.5t-7.5 -4.5t-6.5 -5q-22 -15 -39 -22q-5 -4 -23 -8q-2 -1 -6 -4.5t-7 -5.5t-7 -3q-4 -4 -8 -4h-6q-11 6 -23 27q-2 3 -5 8t-5.5 9t-5.5 7l-13 19q-4 7 -13 19t-15.5 22t-9.5 20l-15 15q-38 63 -43 75q-25 43 -33 50l-16 18q-2 6 -12 16l-33 52q-2 3 -9.5 14.5 t-13.5 18.5t-12 12q-18 23 -37 51q-1 2 -6 7.5t-6 8.5q-7 8 -19.5 26.5t-19.5 26.5q-3 3 -6 7.5t-6 9.5t-6 8q-13 13 -17 21l-8 10q-7 5 -14 18l-19 21q-14 14 -18 22q-3 9 -15.5 12.5t-25.5 -0.5q-9 -6 -10.5 -22t-3.5 -21v-4q2 -4 2 -10v-8q-4 -11 -4 -14.5t4 -14.5 q0 -18 -4 -24l4 -13v-55q-4 -8 -4 -14q0 -2 1 -4.5t1 -3.5t1 -3.5t1 -3.5v-43q0 -27 -2 -32q1 -3 -0.5 -9t-1.5 -8q0 -4 4 -12v-25l-4 -12q-1 -43 -1 -130t-1 -132l-9 -14l-6 -7q-7 0 -10 3q-17 7 -41 -3h-61l-11 -6h-80l-8 -4q-1 1 -4.5 2t-5.5 2h-8q-6 0 -19 9q-2 2 2 14 v4q-4 8 -4 12v115q0 23 -2 33v10z" />
<glyph unicode="L" horiz-adv-x="974" d="M133 866q2 4 2 8q3 53 3.5 109t-0.5 132t-1 106l6 12v227q0 5 -4 13l6 8q1 0 4.5 1t4.5 1h69q11 0 31 -0.5t37 -0.5t33 1q5 0 15 -1t15 -1l23 -6l2 -5q0 -37 2 -55q5 -19 4 -22q0 -9 6 -21q0 -102 2 -155q0 -1 4 -13v-80v-18q0 -6 2 -8q5 -14 5.5 -41t1.5 -37v-10 q0 -3 4 -11v-38l6 -11v-121q4 -8 4 -10q-6 -9 0 -22q0 -1 -1 -4.5t-1 -4.5q4 -16 4 -26v-72l6 -12v-178l10 -8q6 -2 13.5 -2t16 1t13.5 1q3 0 11 4h4q1 -1 4.5 -2t5.5 -2q0 -2 98 -1l98 1q14 0 41 -1.5t41 -1.5l25 -8q2 -2 2 -4q0 -4 -1 -10.5t-1 -9.5v-154q4 -8 4 -12 q0 -6 -4 -10v-45q4 -8 4 -11v-45q0 -16 2 -24q0 -1 -2.5 -9.5t0.5 -9.5l-6 -12v-2l-25 -6h-57l-12 4h-45q-2 0 -6 -4q-8 4 -9 4h-24l-13 -4q-2 0 -5 1t-5 1t-6 -1t-6 -1h-55q-2 0 -6 1t-5 1h-6q-8 -2 -26 -2q-5 0 -13 4h-200l-11 -4h-43q-39 -3 -75 0q-1 0 -4.5 1t-4.5 1 q0 43 -1 127.5t-1 126.5q-4 16 -4 24q-1 46 -1 138.5t-1 138.5v176q0 8 -4 16z" />
<glyph unicode="M" horiz-adv-x="1511" d="M129 1364q0 2 1 6t1 6q2 10 2 29q0 10 2 12q2 6 2.5 17t1.5 14q0 2 -0.5 8.5t-0.5 12v11.5t2 9.5t5 3.5q1 0 5.5 1t5.5 1h6.5t6 2t5.5 2h82l8 -4h33q1 0 4 1t4 1t4 -1t4 -1h35q2 0 14 4q1 -1 5 -2t6 -2q12 0 37 -1t39 -1q2 -1 3.5 -2l3 -2t3 -2.5l3 -3t3.5 -2.5l16 -27 l4 -12q5 -6 15 -22t16 -23q4 -7 14.5 -22t14.5 -25l28 -39q5 -9 16 -26.5t13 -20.5q28 -40 39 -62q8 -16 14 -22q5 -4 10 -10.5t10 -13.5t9 -11l8 -17q5 -8 15 -18q20 -12 30 -8q9 2 17 14l18 31q1 2 10 14t11 19q0 1 1 3t1 3q5 4 32 43q1 2 5 5l4 3q11 26 20 37 q6 11 19.5 32t17.5 27l27 37q2 3 9 19t13 22q4 5 23 43q6 7 15 22.5t15 22.5q1 0 4.5 1t4.5 1q45 -2 133 -2q5 -3 11.5 -4t11 -1t12.5 0.5t12 0.5q8 4 14 4h37q30 -6 33 -6q4 1 9.5 1t12 -0.5t10.5 -0.5l5 -4v-76q-5 -5 -5 -10q-2 -31 -2 -98v-332q-1 -1 -2 -4.5t-2 -5.5 q0 -1 1 -5t1 -6q-6 -12 0 -26q3 -13 -2 -23q-2 -19 -2 -184t2 -193q0 -1 1 -3.5t1 -4.5q-5 -14 -2 -24q0 -2 1 -6.5t1 -6.5q0 -1 -1 -3.5t-1 -4.5v-37q0 -1 1 -4.5t1 -5.5q-3 -13 -0.5 -38.5t0.5 -39.5q-6 -14 2 -41q-1 -1 -1.5 -2.5t-1 -3.5t-1.5 -4v-88q-2 -29 -2 -88 q-1 -1 -1.5 -2t-1.5 -2t-3 -2q-2 0 -6 -1t-6 -1q-8 -4 -27 0q-6 -2 -20 -2h-72q-19 0 -58.5 -1t-60.5 -1q-2 0 -8 1t-10 1q-8 8 -12 10q0 2 -1 3.5t-1 2.5v117l-7 16q4 8 4 10v119q0 1 -1 3.5t-1 4.5q0 3 1.5 9.5t1 11.5t-4.5 10v27q2 3 1.5 9t0.5 9q5 8 0 16q0 5 -2 7 q-2 0 -1 55l1 55v121q0 15 -2 23q0 3 -2 8t-2 8l4 14v25q0 4 -4 12q4 8 4 10q0 10 -2 32t-2 34v68l-6 12v108q-3 10 -12 13h-15q-3 -1 -6 -4l-6 -6t-6 -6.5t-6 -4.5q-14 -7 -29 -26l-41 -39q-18 -18 -28 -33q-2 -4 -8.5 -10.5t-8.5 -10.5q-1 -5 -8 -9.5t-8 -6.5l-12 -10 q-7 -12 -25.5 -30.5l-20.5 -20.5q-1 -2 -10.5 -12t-13.5 -17q-28 -33 -45 -47h-4h-4q-30 22 -39 41q-2 2 -10.5 12t-12.5 16q0 4 -4 4q-8 6 -12 13q-14 14 -51 67q-2 5 -9.5 12.5t-9.5 12.5t-8 11t-8 9q-20 20 -35 45l-20 23q0 1 -1.5 3t-1.5 3q0 9 -8 14q-12 3 -24 0 q-11 -23 -8 -40q0 -3 4 -11l-4 -12q2 -2 2 -4t-1 -4.5t-1 -3.5q-3 -50 -3 -94v-84q-4 -8 -4 -11v-47q0 -3 1 -9t1 -9q-3 -7 -1 -23.5t-1 -23.5q0 -21 -1 -59.5t-1 -57.5v-107q0 -4 -2 -11t-2 -11t2 -10.5t2 -10.5q0 -8 -4 -20l4 -12v-86q0 -25 2 -37q0 -3 2.5 -23t-2.5 -22 v-33q0 -1 1 -3.5t1 -4.5q2 -2 2 -6v-70q0 -10 -6 -14l-2 -2h-67l-15 4l-12 -4h-65q-1 0 -13 4q-10 -4 -37 -4q-12 4 -18 4q-2 0 -6 1t-6 1l-4 4l-5 20q-2 6 -2 17q0 24 -1 74t-1 75v27l-4 10q0 34 -1 103t-1 104q0 2 -4 10q2 4 2 10q0 2 -1 6.5t-1 6.5v258l4 12v311 q0 3 -4 15v47q0 23 -2 35v16v78q0 1 -1 4t-1 4z" />
<glyph unicode="N" horiz-adv-x="1527" d="M133 158q4 8 4 14v23q-4 22 0 28q0 4 -2 11t-2 10v18l4 10q-2 2 -2 4q-3 18 0 33q0 1 1 3t1 3q-2 4 -2 27q0 1 1 4.5t1 5.5v15q0 2 -4 10l6 12v154q0 18 4 26v21q0 4 -4 12v4q1 1 2 5.5t2 6.5v37q0 3 -2 8.5t-2 8.5l6 14v139q1 1 2.5 5.5t2.5 5.5v32q-4 15 0 29v61 q-1 5 -5 13q1 -1 2.5 0.5t2.5 3.5t0 4q-8 11 0 27v36q0 3 -5 13v80q1 4 4 11t3 11v12v205q4 8 4 12v29q0 3 -4 15q4 6 5 14.5t0.5 19t0.5 15.5l4 4h14l10 -4h4q3 0 9.5 -1t9.5 -1h22q2 0 5.5 -1t5.5 -1.5t6 0.5q3 2 20 2q3 0 10 -1t11 -1t6 2h49q7 0 23 -2t24 -2 q6 -1 19.5 -1.5t19.5 -1.5h31q6 -7 15 -24.5t13 -24.5q5 -6 11 -12q1 -1 6.5 -13t11.5 -18q3 -7 13.5 -23t13.5 -26q2 -6 10 -18q2 -1 8 -13q15 -30 33 -57q15 -17 37 -61q2 -6 9 -16.5t9 -14.5l6 -8q4 -11 9 -19q1 -5 10 -18l10 -19q2 -5 10 -16.5t11 -19.5q18 -38 36 -72 l19 -37l6 -14q11 -11 23.5 -39t21.5 -39q2 -2 2 -6q3 -8 10 -19q2 -3 5 -10t6.5 -11.5t7.5 -8.5q0 -1 1 -3.5t1 -3.5q0 -5 4 -12t4 -8l12 -21q2 -2 3 -4.5t1.5 -5.5t1.5 -4q6 -8 11.5 -17.5t12.5 -25t9 -18.5q18 -26 23 -39q3 -8 14 -24.5t14 -26.5q9 -9 15 -21l2 -4l16 -14 h10q1 1 9 8t12 12q2 5 2.5 17.5t3.5 17.5l-4 8v162q1 11 1 35t1 37q0 6 2 8q-4 13 -4 38v31l6 13v71l-6 13v14l6 10v150l6 12v197q0 3 1 7.5t1 6.5v6q-3 3 -0.5 18t2.5 17q0 1 1 3t1 3l17 8q18 0 22 -4q3 0 8 2t9 2t8 -4l8 4q7 0 21.5 1t21.5 1q2 1 5.5 2t4.5 2h62 q35 0 39 -4q6 -1 17.5 -1t16.5 -1q3 -3 4 -7t2 -8.5t3 -6.5q4 -146 0 -221q0 -1 -4 -9v-159q1 -1 2 -5t2 -6v-18q-4 -10 -4 -33q0 -24 4 -28q2 -9 -1.5 -26t1.5 -26q-2 -2 -2 -8q0 -2 1.5 -8.5t0.5 -11.5q0 -1 -4 -9q4 -8 4 -14q3 -69 0 -137q0 -4 -4 -12q0 -21 4 -31 q-8 -23 0 -41q2 -5 -2 -16q6 -16 -2 -27v-21q1 -1 4 -10v-49q-4 -16 -4 -24v-261q0 -4 -3.5 -16t-3.5 -18q0 -36 -4 -45q0 -1 1 -3.5t1 -3.5v-8q-1 -1 -1.5 -3t0 -3.5t1 -3.5t0.5 -4l-6 -17l-22 -6q-17 0 -25 4q-6 0 -20.5 -1.5t-25.5 -1.5t-17 3q-12 0 -34 1t-34 1l-12 5 h-96q-5 3 -19 8q-9 9 -22 35l-37 51q-9 10 -25 39q-6 12 -8 14q-2 3 -4.5 6.5t-5 7.5t-4.5 7l-11 18q-22 33 -28 45q-2 3 -8 11t-7 12q-2 5 -5 10t-7 9.5t-6 8.5q-14 18 -33 53q-5 10 -8 13q-5 10 -23 37q-1 1 -2.5 4.5t-3.5 5.5q-7 8 -41 61q-4 11 -24 41l-27 41 q-35 58 -51 74q-2 5 -29 59q-30 27 -59 88q-2 4 -7 9t-9.5 10t-6.5 10q-9 18 -16 23q-4 8 -8 12q-4 12 -8 16l-25 4q-8 -4 -14 -14v-123q-2 -39 -2 -121q-8 -15 0 -28v-27q0 -7 -2 -22.5t-2 -24.5v-326l-7 -10q0 -22 4 -29q-1 -1 -2 -4.5t-2 -5.5q0 -67 -2 -104q-4 -4 -4 -9 l-4 -2h-29q-9 -6 -20 -6q-115 0 -172 2q-14 7 -25 2q-4 0 -4 4v15q0 12 -2 18q0 7 -4 19z" />
<glyph unicode="O" horiz-adv-x="1685" d="M92 723v94q5 10 6 31.5t2 28.5q0 4 2 8q0 2 1 6t1 6q0 27 5 37q2 2 2 6v14q4 5 5.5 16t4.5 15q2 4 4 13.5t4 13.5q11 33 14 39q2 4 8 14.5t9.5 18.5t5.5 16q5 6 9.5 16t9 18.5t10.5 14.5q13 25 14 27q16 22 18 26l19 25q3 8 15 19t15 18q2 3 5 5.5t6.5 5.5t5.5 5 q2 4 8 11.5t8 11.5q12 19 56 59q21 15 41 35q4 4 34 24q30 15 35 19q11 5 33.5 17.5t40.5 20.5t37 13l7.5 2.5t8.5 2.5t8 1q24 6 29 6q4 4 8 4q8 2 27 2q5 3 13.5 4t18 2.5t15.5 4.5h31q2 0 18 -4h59q25 0 41 -7q3 -1 10.5 -1t10.5 -1q6 -4 20.5 -5t20.5 -5h8q4 0 12.5 -1 t12.5 -1q6 -5 24 -6t25 -8q2 -2 8 -2q4 -2 12 -2q18 -11 31 -11q6 -4 18.5 -7.5t14.5 -4.5l30 -16l23 -8q11 -3 20 -13q3 0 3 -2q11 -5 35 -20t40 -21q2 -3 4.5 -5.5t6 -5t4.5 -3.5q10 -7 20 -15t20 -17.5t17.5 -16.5t19 -19t17.5 -18l18 -23q25 -38 41 -71q15 -30 23 -47 q9 -27 14 -37q0 -5 4 -9q0 -6 5 -17t5 -17l7 -13q0 -7 4 -18t4 -14q0 -7 4 -11q1 -4 1 -9t0.5 -9t1.5 -9t3 -9q2 -2 2 -13v-18q4 -12 4 -15v-131q0 -16 -4 -24q2 -2 2 -8q-2 -8 -2 -27q-2 -8 -2 -27l-4 -12v-20q-1 -3 -2.5 -6.5t-2.5 -6t-1 -4.5q-1 -3 -1 -8t-1 -9.5 t-4 -8.5q0 -18 -7 -27q0 -8 -6 -23.5t-6 -25.5q-15 -29 -18 -41q-3 -5 -17 -31q-3 -12 -8.5 -22t-16 -27t-12.5 -20q-18 -27 -26 -35q-6 -6 -18 -22.5t-19 -22.5q-4 -10 -17.5 -24.5t-17.5 -20.5q-1 -2 -2.5 -3.5l-3 -3t-3 -2.5t-3.5 -2.5t-4 -3.5l-41 -39l-33 -20 q-4 -3 -18.5 -12.5t-22.5 -12.5q-2 -1 -5.5 -3t-5.5 -3.5t-5 -2.5t-6 -1q-5 -3 -11.5 -5t-14.5 -3.5t-13 -3.5q-12 -4 -15 -4q-8 -4 -12 -4q-38 -14 -45 -15q-4 -1 -13.5 -4.5t-15.5 -3.5t-18 -5t-19 -5q-2 0 -6.5 -2.5t-7.5 -3.5h-35l-26 -11q-2 0 -6.5 -1t-6.5 -1 q-3 -1 -15 -1.5t-19 -2.5q-6 -3 -13 0q-4 0 -12 4h-14h-17.5t-21.5 4q-6 2 -17 2q-5 0 -13.5 3.5t-12.5 3.5q-14 0 -41 10q-3 1 -9.5 1t-9.5 1q-8 3 -23.5 7t-19.5 5q-23 0 -43 10q-19 10 -57 21q-6 0 -19.5 6l-13.5 6q-13 3 -33.5 18t-31.5 19l-33 19q-6 5 -18 10.5 t-15 7.5q-5 5 -12.5 10.5t-15.5 11.5t-13 11q-10 4 -19.5 16t-15.5 16q-4 2 -7 5t-7 7.5t-6 6.5q-3 7 -9.5 14t-14 14.5t-11.5 12.5q-3 3 -5.5 8t-4.5 8.5t-4.5 8.5t-5.5 8q-6 6 -11.5 21.5t-9.5 21.5l-6 10v6q-4 4 -6 8.5t-4.5 10.5t-3.5 8q-10 26 -25 61q-10 25 -10 31 q-3 4 -5 14t-5 14v9q0 6 -3.5 14t-3.5 12q-5 32 -6 33q0 19 -2 27q0 2 -4 10zM504 723q4 -12 4 -14l2 -13q3 -13 11 -30.5t11 -30.5l5 -8q5 -5 11 -17t9 -16q4 -4 11.5 -12t14 -14.5t11.5 -10.5q51 -31 82 -41q7 -4 23.5 -10t23.5 -10q2 -2 6 -2q5 0 12 -2t13.5 -4t11.5 -1 q7 -3 33 -8l6 -4h63l39 12q14 7 15 7q3 0 6 0.5t6 1.5t7 2t7 2q10 2 19.5 5t17 6t15.5 7.5t14 8.5t15 9t15 9l21 18q14 11 20 25q11 11 24.5 38l14.5 29q1 6 6.5 16t6.5 13q1 5 10.5 28t9.5 38q0 4 2 13t2 15q3 28 0 53q0 12 -6 39q0 3 -2 10.5t-2 10.5q-1 2 -1 7t-1 7 q-17 53 -31 72q-1 1 -6 10q-5 12 -20 27l-19 20q-2 5 -8.5 11t-7.5 8q-39 20 -76 45q-15 3 -27 12q-29 12 -39 14q-2 0 -4.5 1t-3.5 1q-12 2 -35 2l-12 7h-49l-10 -7h-17l-14 -6q-4 0 -11 -3t-11 -3q-5 0 -23 -6q-8 0 -10 -2l-29 -14q-14 -7 -25 -15.5t-30 -25.5t-21 -19 q-8 -8 -19 -25t-18 -24l-28 -57q-18 -37 -23 -49q-10 -29 -12 -33q0 -15 -6 -27q-3 -49 0 -96z" />
<glyph unicode="P" horiz-adv-x="1042" d="M133 1415v41q0 8 2 12q3 5 3.5 17t2.5 16q0 6 9 6q37 2 243 2q8 -4 13 -4q1 0 3.5 1t5 1t5.5 -2q8 0 12 -2h29q8 -4 10 -4q6 -2 25 -2l12 -6q4 0 11 -3t11 -3q3 1 7 0t6.5 -1.5t6 -2t5.5 -2.5q2 0 6 -2t6 -2q3 -1 8.5 -1t8.5 -1q15 -2 38 -15.5t29 -15.5q22 -18 31 -23 q6 -2 15 -8.5t12 -7.5q5 -1 11 -5t15 -11.5t10 -8.5t7.5 -7t11.5 -7l10 -8l23 -27q12 -15 24 -39q8 -8 15 -22q2 -3 3 -8.5t2.5 -9.5t4.5 -7q3 -6 8 -26t10 -27q0 -5 3 -14t3 -13t1 -11.5t1 -10.5q0 -6 5 -11v-6q0 -29 4 -41q2 -2 2 -10q0 -14 0.5 -35t0.5 -36.5v-35.5 t-1 -36q0 -15 -4 -21v-12q-2 -8 -2 -20q-1 -4 -4 -10t-3 -9q0 -18 -18 -72q0 -4 -4 -12l-10 -20l-7 -21l-22 -43q-1 -3 -4 -11t-5 -13t-5 -11t-7 -10l-5 -10t-5.5 -10t-5.5 -7q-3 -4 -11.5 -13.5t-10.5 -16.5l-17 -15q-12 -8 -18 -14q-17 -12 -35 -24l-37 -19l-18 -10 q-4 -4 -9 -4q-3 -1 -7 -2.5t-6.5 -3t-6.5 -4t-6 -3.5q-3 -1 -10.5 -1.5t-10.5 -2.5q-2 -2 -8 -2l-20 -6q-5 -3 -17.5 -5t-15.5 -3h-19q-16 -10 -28 2q-12 -2 -31 -2q-4 -4 -6 -4q-1 -3 -1 -7t0.5 -7t-0.5 -6.5t-3 -6.5q4 -12 4 -14q0 -35 -2 -51q0 -6 -2 -17t-2 -16v-61 l-6 -15v-35q0 -2 -1 -6t-1 -6q-2 -4 -2 -8q-2 -4 -2 -12l4 -7q-1 -2 -2 -5.5t-2 -4.5v-74q0 -1 -1.5 -4t-1.5 -4l-2 -2l-20 -6q-1 0 -4 1t-4 1q-15 -4 -23 -2q-2 0 -10 4h-96q-8 -4 -15 -4h-5.5t-5 1.5t-5.5 2.5q-7 0 -22.5 1t-22.5 1q-2 2 -2 6q-2 16 -2 54l-6 12v164 q-4 4 -4 10q-1 3 0.5 8t-0.5 8q0 4 -1 12.5t-1 12.5v86l-5 10l5 8v82q2 70 2 207q-2 51 -2 152q0 4 -2.5 12.5t-2.5 13.5q-2 18 -2 56v65q0 15 -4 21q8 10 0 22q4 12 4 15v81q0 5 -2 7q-2 7 -2.5 19.5t-1.5 16.5v97q-1 3 -2 5l-1.5 3t0 3t0.5 3t1 4l2 6q0 7 -3 19t-3 18z M430 981q0 -10 2 -12q2 -4 2 -25q1 -10 1 -21.5t-0.5 -25.5t-0.5 -23q0 -13 1 -37t1 -36v-6q2 -8 13 -11h24q8 4 10 4q15 3 25 3q25 8 33 10q21 7 32 16q27 18 33 27l29 35v6l18 39q0 4 1 11.5t1 10.5l11 33v57q-4 12 -4 17q-1 9 -8 23.5t-9 21.5q-6 4 -11.5 16t-8.5 16 q-4 4 -12 11.5t-14.5 14t-10.5 11.5l-29 15l-27 12q-6 0 -19 4.5t-21 3.5q-1 0 -3.5 1t-3.5 1q-20 6 -41 2q-4 0 -6 -2l-4 -20q-4 -8 -4 -15v-39v-94v-55z" />
<glyph unicode="Q" horiz-adv-x="1619" d="M96 719v133l6 12v41q4 8 4 10q3 12 3 25q0 6 2 14t2 13q8 24 8 32q0 13 4 17v6q0 6 3 16.5t3 16.5l4.5 13.5t3.5 16.5q3 7 9 27.5t12 30.5q3 5 8.5 15t7.5 13q7 18 14 27q8 6 18 25t15 24q3 5 7 10.5t9.5 11.5t8.5 9q14 14 16 18l7.5 7.5t7.5 11.5q7 5 21 20t24 21 q2 0 6 4q8 8 26.5 20.5t26.5 20.5l27 18l67 33q4 2 8 2q25 6 52 19q6 0 14.5 3t13.5 3q7 0 19.5 4t21.5 4l10 4h134l10 -4q2 -1 8 1.5t8 -1.5h58q12 -4 34 -8q3 0 15 -4q29 0 45 -2q3 -1 19 -6.5t24 -6.5q4 -2 9 -3t11.5 -1.5t9.5 -1.5l25 -8q4 -1 12.5 -5t12.5 -5 q4 0 11 -3t11 -3q3 0 6 -3q10 -2 25 -10q13 -3 24 -10q13 -5 33 -17t29 -16q4 -3 15.5 -14t19.5 -17q2 -2 6.5 -7t9 -9.5t8.5 -7.5q8 -4 11 -10q3 -5 7 -10t7.5 -8.5l8 -8t7.5 -8.5l25 -25q4 -4 31 -41q2 -5 5.5 -10.5t7 -10.5t5.5 -9q4 -6 31 -60q1 -7 7 -19.5t7 -19.5 q3 -6 7 -19.5t7 -19.5q1 -3 1.5 -11t2.5 -13q5 -8 5 -21q0 -4 3 -10.5t3 -11.5q0 -15 6 -27l-4 -8q4 -8 4 -12v-105q0 -20 -2 -30l-4 -27q0 -4 -3 -13t-3 -14l-5 -20q0 -4 -1 -14t-1 -15l-4 -12q0 -5 -1 -15t-1 -14q-1 -6 -4 -14.5t-5 -16t-3 -14.5q0 -3 -3 -9t-3 -9 q-2 -4 -4 -12t-4 -11l-13 -24q-11 -23 -16 -39q-48 -92 -51 -99q-14 -23 -21 -32q-5 -5 -11.5 -16t-8.5 -13q-7 -11 -29 -37l-14 -16q-32 -24 -47 -39q-29 -16 -41 -23q-4 0 -4 -10q0 -1 6 -23l47 -92l12 -26q15 -30 21 -37l39 -64q-1 -1 -3 -3.5t-3.5 -4.5t-4 -4t-4.5 -2 q-14 -5 -42 -18t-31 -15q-5 0 -12 -5t-11 -5q-3 0 -9 -3t-7 -3q-7 -7 -22 -14t-26 -9q-7 2 -13 8.5t-12 16t-9 12.5q-2 4 -9.5 16t-9.5 19q-5 10 -30 51q-30 40 -56 86q-9 18 -26 35q-4 0 -9.5 8t-15.5 2h-2q-8 0 -10 2l-8 -4h-93q-14 -7 -24 -2q-6 -1 -15.5 0.5t-11.5 1.5 h-61l-13 6h-12q-10 0 -26.5 3.5t-24.5 3.5q-5 4 -18 5.5t-17 4.5l-2 2q-10 0 -14 2q-3 0 -27 8q-8 0 -43 14q-1 0 -8 3.5t-10 3.5q-5 0 -15 3t-16 3l-37 18q-40 24 -59 41q-2 1 -11 7t-14 11l-18 19l-15 12q-5 3 -8 8q-18 22 -37 35l-12 17q-18 27 -27 36q-7 7 -10 19 l-20 39q-2 9 -9.5 26.5t-9.5 26.5l-12 29q0 10 -6 25.5t-6 17.5q-5 19 -6 20q0 17 -3 29q0 4 -4 8v31q0 6 -2 8q-4 8 -4 37zM418 717q3 -4 4 -8.5t1 -11t1 -9.5q0 -4 4 -12q0 -15 2 -21q0 -4 4 -8q0 -7 2 -14.5t4 -12t7 -13t6 -11.5q3 -4 7.5 -16t8.5 -19q8 -11 23 -22 l45 -35q4 -3 21 -14.5t26 -18.5q14 -2 30 -12q2 0 7.5 -1t7.5 -1q6 0 14 -4q2 -1 8 -1.5t10.5 -1.5t8.5 -4q20 0 30 -2h2l9 -4q34 -3 63 0q24 10 31 11q6 -3 12.5 -3t15.5 1.5t15 1.5q19 0 35 8l20 6q4 4 8 4l9 4l22 14q6 0 10 2q7 7 29.5 25.5t32.5 30.5q2 3 26 33q4 4 4 6 l29 57q2 8 12 29l9 24q0 9 6 26.5t6 27.5q0 4 4 12q3 52 0 110q-3 8 -3 25t-1 20l-19 50q-15 31 -30 49q-2 5 -9.5 13t-9.5 13l-2 2l-22 25q-5 2 -9 4t-8.5 6t-6.5 6.5t-7 8t-6 6.5q-6 0 -14 4q-8 7 -23 15.5t-20 12.5l-5 3q-16 7 -41 14q-7 0 -22.5 3.5t-24.5 2.5 q-4 0 -11.5 3t-8.5 3h-25q-16 0 -22 4h-4q-7 -4 -35 -4q-20 0 -57 -16h-7q-9 0 -23.5 -9.5t-23.5 -9.5q-5 -1 -18 -10l-55 -33q-4 -4 -14.5 -14t-14.5 -14q-2 -5 -5 -10t-7 -10.5t-7.5 -9.5t-8.5 -9t-7 -8l-14 -29q-7 -11 -12.5 -31.5t-8.5 -27.5v-9q0 -2 -2 -6.5t-2 -7.5 v-14q-6 -12 -6 -39q0 -5 -4 -17q-2 -23 -2 -73q-4 -4 -4 -9v-26z" />
<glyph unicode="R" horiz-adv-x="1105" d="M135 170l4 12v260l-4 11q1 4 0.5 16t1.5 16v7q-3 1 -0.5 16t2.5 18v31v109v120q0 1 -1 4.5t-1 4.5q4 20 -2 32l4 15q0 1 -1 3.5t-1 4.5q0 1 1 3.5t1 4.5q0 21 -2 25v4q2 4 2 26q2 47 2 140l4 10v22q2 51 2 152q0 2 1.5 6t1.5 6t-3 8q1 1 5 13q0 59 2 92q0 2 4 10 q0 1 -2.5 9.5t0.5 11.5q-2 10 -2 28v29q0 3 1 6.5t2.5 8.5t2.5 8q12 6 18 12q1 0 3 1t3 1h68h18.5t22.5 4h4q4 -2 25 -2q2 0 10 4l12 -4q12 7 31 0h33q9 3 12.5 3t15.5 -3q2 0 4.5 1t3.5 1q2 0 5.5 -1t5.5 -1q21 0 26 2q1 0 5 -1t6 -1q14 -2 38 -2h76l8 -4q8 0 21 -3.5 t18 -4.5q9 0 13 -2q4 -3 13.5 -4t12.5 -5q3 -1 7.5 -3t9 -3.5t8.5 -1.5q12 -8 20 -10q4 -2 10.5 -7t10.5 -7l28 -15q9 -9 23 -16q5 -10 23.5 -25.5t23.5 -25.5q3 -5 18 -25q1 -2 3.5 -4.5t4 -4.5t2.5 -4.5t1 -4.5q0 -1 1 -3.5t1 -3.5q9 -13 10 -18q0 -4 2.5 -9.5t3.5 -6.5 q7 -9 9 -31.5t8 -32.5q0 -7 3.5 -18t4.5 -15q3 -3 3.5 -8t1.5 -10.5t3 -9.5q2 -5 2.5 -15.5t1.5 -13.5q0 -6 4 -10v-76l-4 -8q-2 -20 -2 -57q-4 -8 -4 -9t-2 -15.5t-4 -21.5q-1 -2 -1 -7t-1 -7q-6 -15 -6 -29q0 -3 -2.5 -7.5t-2.5 -6.5q-1 -3 -4.5 -10.5t-3.5 -11.5 q1 -2 0 -5.5t-1.5 -5.5t-2 -5l-2.5 -5q0 -6 -2 -8l-14 -35l-15 -29q-2 -3 -4 -10.5t-4 -11.5q-15 -40 -41 -66l-28 -30q-13 -7 -13 -23l-10 -12q10 -29 31 -79t28 -69q0 -7 7 -22t8 -21q1 -2 4 -7t4.5 -8.5t1.5 -8.5l2 -4q4 -4 6 -8t3.5 -9t2.5 -8q9 -27 15 -33q1 -5 3 -11 t5 -12.5t4 -10.5q-1 -7 3 -19.5t5 -15.5q0 -2 12 -37l17 -33q-1 -1 -2 -3l-2 -3q-17 -9 -23 -10q-11 0 -30.5 -9.5t-32.5 -9.5l-15 -6q-4 0 -12 -3t-12 -3q-2 0 -11.5 -3t-15.5 -3t-10 -4l-29 -13q-1 0 -4 -1t-4 -1q-24 0 -33 33v4q-6 12 -12 26t-11.5 28t-10.5 24 q-3 3 -3 10q-7 5 -12.5 18t-5.5 23q-9 14 -18 51l-11 25q-3 5 -6 14.5t-4 12.5q-3 5 -7 16t-7 16q0 7 -6.5 21t-6.5 22q-14 34 -20 66q0 3 -4 10.5t-8 7.5q-2 2 -6 2h-48l-7.5 -2.5t-8.5 -2.5t-8 -1h-21h-26q-5 -2 -12 -12v-137q3 -67 0 -135l-5 -11q0 -2 1 -5t1 -5t-1 -4.5 t-1 -3.5l5 -12q-4 -15 -4 -20t4 -19q-5 -5 -5 -10q-1 -1 -1.5 -5.5t-2.5 -5.5q-4 -2 -13 -3t-13 -3q-7 -3 -13 0l-4 2q-7 -3 -20.5 -3t-16.5 -1q-4 0 -11.5 -2t-10.5 -2q-16 5 -21 2q-9 -4 -22 0q-4 0 -12.5 -2t-12.5 -2h-75q-8 0 -11 6q0 2 -1 9t-1 10t-2 9t-2 9zM399 829 l7 -6q4 0 12.5 -1t13.5 -1q1 -1 4.5 -2t5.5 -2h43q2 1 27 6q5 4 14.5 5t10.5 1q6 1 15.5 6.5t14.5 6.5q2 0 4.5 1t3.5 1l33 22q4 2 7 6t6.5 9.5t5.5 7.5q13 26 16 35q9 30 16 41q2 10 2 28t1 25l4 8v39q0 12 -4 20l-7 23q-17 67 -63 106q-8 2 -21 10.5t-16 10.5q-6 2 -18 10 l-21 12q-7 0 -22.5 3.5t-22.5 3.5q-4 -4 -10 -4q-21 -3 -45 -3q-10 -13 -10 -30v-33q3 -73 0 -145q-8 -10 0 -25v-16q0 -1 -2 -6.5t-1 -8.5q0 -2 1.5 -6.5t1.5 -7.5v-37q-3 -3 -3 -6q4 -8 3 -36.5t0 -35.5q-5 -10 -5 -12q-2 -8 -2 -23z" />
<glyph unicode="S" horiz-adv-x="1171" d="M100 360q-2 5 0 10t5 9t4 6q4 4 6 4l16 14q10 9 21 19.5t24 24.5t21 22l49 45q7 4 14.5 11t16 16t14.5 14h6q5 -5 11 -12.5t11.5 -14.5t10.5 -12q5 -4 19 -17.5t22 -19.5q5 -3 12 -16q12 -4 20 -12q5 -2 12.5 -8t8.5 -7q5 -1 16 -6t17 -6q4 -1 15 -6t17 -6q19 0 29 -2 q4 0 13 3t14 3q6 2 22 2l21 6q1 1 9.5 7.5t12.5 12.5q4 3 8 7t8 10t5 8q2 4 12 33v41q0 10 -4 14v8q-2 4 -2 10q-1 3 -3 7.5t-3.5 7.5t-3 7.5t-2.5 8.5q-20 28 -37 51l-41 39q-6 4 -15.5 12t-11.5 9q-6 2 -12.5 5.5t-14 8.5t-12.5 8l-20 17q-12 9 -33 20q-84 81 -94 90 q-1 2 -3.5 4t-4 3.5t-4 3.5t-3.5 4l-14 16l-14 14l-12 19l-15 28q-2 2 -14 27l-4 12t-4 15q-1 2 -3.5 7.5t-3.5 9t-2.5 8.5t-1.5 10v4q-3 5 -4 12t-1 15t-1 12l-4 10q-1 13 -1 28t0.5 34.5t0.5 29.5q1 1 2 4.5t2 5.5q0 6 1 20t1 21q2 3 5 14t6 17q2 10 6 19t10.5 19.5 t10 15.5t13 17.5t11.5 14.5q17 28 59 59q4 3 37 25q5 5 16 11t15 11q18 9 33 15q16 0 22 4q6 2 22 4t23 6l43 14q10 2 31 2q10 5 28 6.5t34.5 0.5t33.5 0l12 -7q4 0 13 -1t14 -1q1 0 23 -6q4 -1 11 -5t11 -5q10 -2 25 -10l22 -10q2 -2 6.5 -6t8 -7.5t6.5 -7.5q3 0 7.5 -1 t6.5 -1q4 -3 10 -9t10 -9q4 -4 23 -20.5t27 -27.5q2 -2 41 -45q1 -2 10.5 -13t12 -14.5t10 -13.5t11 -16t8 -15t7.5 -18q0 -7 -6 -10q-67 -66 -98 -96q-4 -4 -12.5 -10.5t-12.5 -10.5q-4 -6 -29 -26l-18 -13q-4 3 -6.5 7t-5.5 10.5t-5 9.5q-19 19 -24 29l-14 18l-56 33 q-10 2 -28 11.5t-29 12.5h-33l-12 -6h-25l-30 -14l-29 -29l-10 -22q-4 -8 -4 -10q0 -4 -2.5 -11t-2.5 -10q-1 -2 -3.5 -8.5t-2.5 -11.5l4 -9l-4 -12q4 -16 4 -24q0 -5 1.5 -10t4 -10.5t3.5 -8.5q3 -7 10 -19.5t12 -22.5t8 -20l17 -16q10 -7 31.5 -19.5t31.5 -19.5 q16 -12 27 -12q11 -6 28 -17.5t32 -21t30 -16.5q14 -6 31 -19l30 -18q20 -10 37 -27q1 -2 12 -9t11 -13q4 0 4 -5l16 -18q2 -2 5 -4.5t5.5 -4.5t5 -5t3.5 -6q2 -7 14 -19q0 -1 4 -11t4 -16q0 -4 1.5 -9t3.5 -10t3 -9q0 -4 9 -27q0 -5 1 -18t1 -19q4 -8 4 -10q5 -76 -4 -98 q0 -19 -2 -31q0 -1 -1 -4.5t-1 -5.5q-1 -6 -5.5 -18.5t-5.5 -18.5q-2 -10 -10 -35q-6 -12 -6 -29l-14 -16q-9 -23 -17 -33q-12 -23 -29 -45q-6 -10 -23.5 -25.5t-23.5 -23.5l-18 -18l-23 -15q-20 -10 -22 -12q-8 -6 -26.5 -13.5t-26.5 -15.5l-9 -4q-10 -2 -30 -10 q-3 -1 -9.5 -1t-9.5 -1q-12 -6 -16 -6q-3 0 -8 -2t-8 -2q-21 -2 -127 -2q-3 0 -8.5 1t-8.5 1q-4 3 -13.5 4t-14.5 4q-13 6 -27 10l-21 4l-18 10q-17 4 -21 7q-7 1 -19.5 9t-14.5 9l-21 16l-22 15q-4 1 -17 10l-4 4q-31 25 -57 55q-7 4 -15 15t-12 14l-16 19q-3 7 -11.5 16.5 t-11.5 13.5q-3 6 -10 13q-17 17 -31 38z" />
<glyph unicode="T" horiz-adv-x="1320" d="M72 1423q4 4 4 11l4 24q0 1 1 4.5t1.5 6t1.5 5t3 4.5t5 3q1 0 3 1t3 1h539l12 -4q17 -3 31 2l8 -4q8 4 12 4q1 0 5 -1t6 -1h6q7 5 26 -2h35q6 0 10 2q1 0 3.5 1t3.5 1q31 2 88 2h114q13 0 19 -2h14q8 2 25 2h106q6 -6 8 -6l2 -4q0 -29 -2 -43v-9v-6l-4 -12v-60l-4 -12 q-2 -25 -2 -80q-4 -4 -4 -10q0 -25 -2 -37q0 -10 -10 -10.5t-17 4.5q-5 1 -13 0.5t-13.5 0.5t-9.5 5l-15 -4q-4 0 -8 2q-9 -4 -47 -4q-12 -6 -23 -6h-51q-8 0 -12 -2q-2 0 -5 -1t-5 -1q-3 0 -11 4l-12 -4q-19 0 -24 4h-107q-8 -6 -14 -14q-2 -9 -2 -52v-47l-4 -14v-18 q1 -2 2 -6t2 -5v-108q-4 -9 -5 -18.5t0 -24.5t1 -17v-14l4 -10v-242v-237l-4 -13v-205l4 -10q0 -4 -2 -6q-6 4 -23 4q-8 0 -24 4q-1 0 -9 -4q-65 0 -98 -2q-4 0 -12 -4q-5 -1 -25 4q-2 0 -5.5 -1t-4.5 -1q-8 2 -25 2.5t-22 1.5h-21q-8 4 -12 10v199q0 6 -4 18q2 10 0 29l4 8 q1 56 0 167.5t0 166.5l4 10v33l-4 12q4 4 4 11q0 63 2 96q0 7 1 23t1 22q0 1 -1 3t-1 3v19l4 8q-4 4 -4 8v78q0 4 4 8q-8 11 0 27q-4 9 -4 27v22q4 14 2.5 21t-10.5 16q-2 0 -3.5 1t-2.5 1h-23q-4 0 -20 4l-8 -4q-12 4 -17 4h-18q-19 0 -59 1t-60 1q-13 10 -29 0l-12 4 q-1 0 -4.5 -2t-5.5 -2h-19q-7 0 -22 -1t-23 -1q-9 0 -27.5 4t-29.5 4l-6 8q0 1 1 3t1 3t-1 3t-1 3t1 4t1 5l-4 12v108q-6 6 -7 20t0.5 33t0.5 27z" />
<glyph unicode="U" horiz-adv-x="1234" d="M98 741v387q0 51 2 76q0 1 1 4.5t1 5.5q0 16 1 51t1 52l5 10q-4 5 -4 18t4 21q0 14 1 45t1 47q7 9 20 15q3 1 8.5 -1t7.5 -2q1 0 3 1t5 2t5 2h264q1 0 4.5 -1.5t5 -2.5t4 -2.5t3.5 -3.5t1 -5t-2 -6q-6 -12 0 -24q-6 -8 -2 -23q0 -2 4 -10v-49q-4 -4 -5.5 -14t-1.5 -19.5 t0.5 -24t0.5 -18.5l-6 -15v-65q0 -34 -4 -43v-25q5 -20 0 -28q-2 -23 -2 -68q0 -4 -4 -16q4 -13 0 -25q-2 -43 -2 -129l-4 -10q-3 -59 0 -119q0 -1 1 -3t1 -3q0 -2 -1 -4.5t-1 -3.5q0 -39 4 -49v-45q0 -27 6 -41q1 -2 1 -6.5t1 -6.5l18 -37q2 -4 8.5 -12t8.5 -12 q4 -8 22 -12q2 -2 6.5 -5.5t6.5 -5t6 -4t7 -4t7.5 -2.5t9.5 -2q1 0 4 -1t5 -1q9 -3 13.5 -2.5t13 2.5t13.5 2q18 0 36.5 8t29.5 19l35 24l14 25q9 12 15 24q0 2 2 7t2 8q0 4 3.5 13.5t2.5 14.5v33l6 10v60q0 11 6 20v127l6 13v69l6 17v319q0 10 4 14q-1 1 -2 5t-2 6v43l4 10 v18q-9 22 0 47q0 5 -4 13q0 5 4.5 8.5t10.5 3.5h90q1 3 35 1.5l34 -1.5h17l8 -4q20 -1 61.5 -1t63.5 -1q0 -2 1 -3.5t1 -2.5v-107q0 -1 -2 -7.5t-1.5 -7t1.5 -7.5q-5 -10 0 -17v-2q-2 -5 -2.5 -14t-1.5 -12v-80v-103q-4 -8 -4 -12q-2 -57 -2 -180l-4 -12q0 -5 2 -9 q-4 -18 -4 -88q-7 -7 -7 -43l-4 -10q0 -9 -1 -26t-1 -25l-4 -10q0 -6 -1 -18.5t-1 -18.5q0 -15 -4 -21v-6q-6 -36 -6 -43q0 -2 -1 -7.5t-1 -8.5q-2 -5 -4 -19.5t-6 -21.5q0 -4 -1 -12.5t-1 -12.5q-13 -29 -17 -47q-2 -4 -8 -22q-5 -8 -14 -31q-4 -7 -18 -31t-21 -37 q-13 -10 -19 -22q-9 -9 -24 -28t-28.5 -32.5t-29.5 -21.5q-46 -31 -57 -35q-8 -4 -24.5 -9t-24.5 -9q-8 0 -23 -6t-18 -7q-17 0 -25 -2q-2 0 -10 -4h-80q-3 0 -9 2t-9 2q-12 2 -35 2q-6 0 -10 2q-7 4 -35 4l-10 7q-6 0 -17 4t-12 4t-13.5 4t-17.5 8q-3 2 -10 3t-10 3 q-4 4 -15.5 7.5t-15.5 7.5l-8 6q-2 0 -5 1t-5 1l-13 8q-24 8 -53 24l-43 43q-7 7 -10 13l-17 20q-2 3 -7.5 11.5t-8.5 11.5q0 1 -1 3t-1 3q-1 6 -9 17t-9 18q-1 6 -6.5 16.5t-6.5 13.5q-2 6 -4 19t-4 18q0 3 -3 8.5t-3 8.5q0 7 -3 20t-3 19q0 4 -4 12v35l-6 18q0 42 -2 62 q0 2 -1.5 5t-1.5 5q2 8 -2 20q0 29 -2 45q0 27 -2 33q-2 2 -2 10z" />
<glyph unicode="V" horiz-adv-x="1245" d="M78 1479q1 3 8 6q4 0 11 1t11.5 1.5t10.5 -0.5h33q8 0 12 2q3 -3 15.5 -0.5t15.5 2.5h26l6 -4h84q5 0 20 -1.5t23 -0.5q4 -16 4 -21v-2q2 -4 4.5 -14t4.5 -14q0 -7 2 -21t2 -20q0 -3 2 -9.5t2 -9.5q4 -10 4 -45q6 -12 6 -26q0 -7 4 -15q0 -10 2 -16q0 -6 2 -17.5t2 -17.5 q0 -2 1 -6t1 -6q-1 -2 0 -6.5t0 -6.5q0 -4 2 -12t2 -12l5 -12l8 -37q3 -9 5 -18.5t3.5 -22t3.5 -21.5l4 -12q0 -8 2 -14q0 -5 1 -13t1 -12q0 -8 1.5 -17.5t3 -18.5t1.5 -17q0 -13 2 -19l4 -22q0 -5 2.5 -17t2.5 -18q4 -24 4 -35v-4q1 -4 3.5 -12.5t2.5 -11.5q0 -11 4 -27 q1 -2 0.5 -7t1.5 -7q-1 -4 1.5 -13.5t2.5 -13.5q4 -4 4 -23q0 -6 2 -17t2 -17q0 -2 1 -7.5t1 -7.5q4 -16 4 -24q0 -2 1 -4.5t1 -3.5t-1 -3.5t-1 -3.5l4 -20q0 -4 1.5 -13t1.5 -14q1 -1 1 -4.5t1 -5.5v-8q0 -15 4 -23v-6q0 -21 4 -31q2 -2 7.5 -4t8.5 -4h17l6 6l6 25q0 2 1 6 t1 6q0 11 2 15v2q0 8 4 22t4 17l2 4q0 8 4 22t4 17q2 14 11 41q0 13 14 53q3 8 6 27t8 30q0 7 4 20.5t4 14.5v4q1 3 4.5 16t6.5 19v4q0 6 3.5 17t4.5 14q0 4 2 6q8 13 8 33q2 12 10 41q7 21 7 22q0 7 6 19t6 18l10 35q1 3 3 9.5t4 11.5t5 9q1 8 9 26t8 30q1 2 4 8.5t4 11.5 q0 13 9.5 36.5t10.5 31.5q10 28 11 39q3 4 5 8t3.5 9t2 8.5t1.5 10t2 9.5q1 7 6 20.5t6 20.5l8 26q16 39 17 43q0 3 6 15q10 0 14 -2q2 2 11 2q16 0 24 2q1 0 3.5 -1t4.5 -1q1 0 3 1t3 1q10 2 23 -2q20 0 23 -2q1 0 3 1t3 1q3 -1 8.5 -1t7.5 -1q3 1 8 0t8 0h15q24 0 26 -2 q4 2 11 2h12q8 0 10 -2q2 -1 5 0t5 0q9 -5 17 -2h14h12q3 0 8.5 1t8.5 1l4 -4q2 0 2 -5l-12 -30q-4 -4 -4 -6q-1 -5 -6 -15t-5 -16q-1 -8 -3.5 -16t-5 -14t-5 -13.5t-4.5 -14.5q-2 -2 -2 -8q-2 -2 -3 -4.5t-1.5 -5.5t-1.5 -4q0 -4 -2.5 -9.5t-3.5 -6.5l-17 -54l-8 -32 q-1 -8 -10 -33q-5 -7 -8.5 -16.5t-7 -23t-5.5 -20.5q0 -10 -6 -22q-2 -6 -6.5 -24t-9.5 -27q1 -7 -2.5 -17.5t-3.5 -15.5q0 -1 -1 -3t-1 -3q0 -4 -2.5 -11.5t-2.5 -11.5l-8 -22q0 -4 -3.5 -15.5t-2.5 -15.5q0 -1 -1 -4t-1 -4q-4 -12 -4 -19q0 -2 -2 -4q-2 -10 -8 -30.5 t-8 -30.5q-4 -15 -9 -23q0 -4 2 -6q-7 -9 -10 -26q0 -5 -6 -29l-6 -21q-3 -17 -10 -26v-21q-9 -18 -11 -26l-8 -29l-6 -29q-1 -2 -3 -7.5t-3 -10t0 -8.5l-6 -13v-10l-6 -12q1 -5 -3 -14.5t-4 -10.5q-1 -5 -3 -12l-4 -14t-3 -13v-4l-4 -4q0 -12 -6 -24q-2 -4 -5 -14.5 t-5 -14.5q0 -2 -1 -4.5t-1 -3.5v-8q-15 -28 -15 -39q-10 -18 -10 -39q-12 -29 -12 -31v-4q-5 -5 -10 -25q-6 -9 -9 -18q0 -5 -4 -15t-4 -16q-10 -16 -12 -28q0 -1 -1 -3.5t-1 -3.5q-14 -36 -23 -49v-10q-2 -4 -4.5 -5.5t-5.5 -1.5t-4 -1l-4 2h-16h-17q-14 0 -20 -2 q-16 4 -47 0q-1 0 -4 1t-5 1h-37l-4 -2q-2 2 -4 2t-3.5 -1t-2.5 -1l-14 4q-1 0 -4.5 -1t-5.5 -1q-4 0 -13.5 -1.5t-17 -1.5t-10.5 3q-6 -4 -16 -4t-23.5 2t-18.5 2q-4 4 -8 4q-2 2 -6 2q-2 4 -2 12q-11 23 -12 25v4q-4 7 -13 33q0 1 -1 4.5t-1 5.5v4l-12 27q0 7 -3 21.5 t-3 19.5q0 2 -1 5.5t-1 4.5q-6 30 -6 33q-4 12 -4 20l-13 47q-3 6 -5 13.5t-4 16t-3 13.5q0 3 -1 10.5t-1 10.5q0 4 -4 12l-2 6t-1.5 6t-1 5.5t-0.5 5t-1 4.5q-1 5 -3.5 13.5t-2.5 12.5q-1 7 -3 15t-5.5 17t-4.5 15q-1 5 -3 14t-4 17.5t-5 15.5q0 3 -4 17t-4 22 q-2 5 -3.5 12.5t-3 16t-3.5 14.5l-5 21v6q-5 10 -9.5 29.5t-6.5 25.5q0 8 -6 29l-12 72l-7 30v7q0 10 -8 30l-6 25q-2 4 -2 8q0 5 -2 14t-2 13q-18 62 -20 71l-7 33q-8 24 -8 37q-5 19 -12 54.5t-10 47.5q0 4 -2 14t-2 15l-7 27q-4 16 -4 22q0 2 -2 12t0 11q0 2 -2 5.5 t-2 4.5q0 4 -1.5 17t-0.5 20q0 7 -5 25.5t-5 27.5q-2 10 -2 27z" />
<glyph unicode="W" horiz-adv-x="1599" d="M70 1473q0 2 2 2q12 4 22 4q3 1 13 1.5t16 2.5q3 -1 6.5 -1t7.5 0.5t6 0.5h21h24q28 0 35 -4q1 0 4.5 1.5t5.5 0.5h11q9 -2 20 0q0 2 2 0q2 0 4 -2q3 0 11 1t12 1h14h10q3 0 10 -1t11 -1t10 -6v-15q2 -6 2 -14q0 -2 1 -5.5t1 -4.5q0 -13 4 -33q0 -1 1 -4.5t1 -5.5 q0 -9 2 -13l5 -24q0 -8 3 -24.5t3 -26.5v-48q0 -3 1 -9t1 -9q1 -5 4 -15t4.5 -18t1.5 -16q2 -5 2 -18t2 -19q2 0 2 -4q-2 -12 2 -34t4 -30q0 -3 1 -9t1 -9q0 -5 2 -12.5t2 -10.5q0 -9 4.5 -27t4.5 -24v-14q0 -2 1 -6t1 -6q0 -7 5 -29t1 -33q0 -2 1.5 -7.5t0.5 -8.5 q0 -3 1 -9.5t1 -9.5q4 -12 4 -16q2 -2 2 -8v-10q0 -1 0.5 -7.5t-0.5 -7.5q0 -1 1 -5t1 -5q0 -4 4 -12q0 -8 3 -24.5t3 -24.5q0 -2 1 -7.5t1 -7.5q0 -3 1 -7.5t1 -6.5q5 -30 5 -33q0 -8 2 -12l2 -2q-1 -7 0.5 -19t1.5 -16q0 -2 2 -6t2 -6q-1 -5 1 -15.5t1 -15.5h18q4 2 11 4 t8 2l12 18q1 4 4.5 10t3.5 9l6 4q3 5 22.5 28t22.5 40q4 4 4 6q2 3 8.5 11t10.5 14.5t4 13.5l8 8q4 7 8.5 15t10 17.5t8.5 14.5q4 4 8 16l10 17q20 20 29 43l18 26l15 25l12 10q3 -1 5.5 -4.5t4.5 -6.5t4.5 -8l3.5 -7t5 -7t4 -10q2 -2 2 -4q6 -6 6 -16q13 -10 16 -25l8 -18 l17 -29q2 -2 2 -8q4 -4 6 -4l12 -23q1 -3 8 -13.5t7 -14.5l16 -27q4 -6 10 -16.5t10 -16.5q3 -8 16.5 -29t16.5 -34q1 -3 17 -35q8 -12 8 -21q6 -3 12.5 -12.5t11.5 -11.5q1 0 3 1l9 4.5t6 6t3 10.5q4 4 4 6q0 18 2.5 33t8 38t7.5 30v4q0 9 5.5 24.5t5.5 24.5q0 1 1 3t1 3 q0 2 -2 4l2 2q4 12 4 21q0 2 1 5t1 5t-2 2q2 2 2 4q6 12 6 29q0 2 0.5 5.5t1 6.5t0.5 6q6 25 6 39q3 9 8 39q0 7 5 24.5t3 26.5q0 1 1.5 3t1.5 3t8 41q0 2 1 6t1 5l6 34v3q6 10 8 32.5t6 32.5q-2 4 4 21q0 8 4.5 24.5t4.5 24.5q0 1 1 4t1 4q4 12 4 18q3 15 10 47q0 1 1 3.5 t1 3.5q0 3 1 7.5t1 6.5q2 5 3 11.5t1.5 14t1.5 11.5v4q0 12 6 18q0 2 1 7t1 8v6q1 7 4 21.5t5 26t2 21.5l6 13v10q0 1 2.5 6.5t4.5 8t5 3.5q2 0 5 -1t5 -1q8 4 13 2q8 1 25.5 1t25.5 1q3 0 10 1t12 1h17q3 1 7.5 1.5t6.5 1.5h23h8q12 3 24 0q2 0 9 1.5t10 0.5q5 2 13.5 1 t12.5 1q3 -4 11.5 -2.5t11.5 0.5q6 2 15.5 1.5t15.5 0.5q10 0 14 -2q1 0 2 -1t2 -1v-5q0 -10 -2 -16l-12 -49q-5 -14 -2 -21q-4 -7 -6.5 -16t-5 -21.5l-3.5 -17.5q0 -12 -6 -33t-6 -32q0 -5 -4 -21q0 -4 2 -6v-2q-5 -8 -7.5 -21t-4 -27.5t-6.5 -23.5q1 -7 -3.5 -23.5 t-3.5 -25.5q-1 -1 -6 -22q0 -13 -6.5 -38.5t-7.5 -31.5q0 -4 -2 -4q-4 -12 -4 -37l-6 -16l4 -9q-4 -4 -4 -18q0 -1 -1 -4t-1 -4l-11 -43q0 -11 2 -15q-4 -8 -4 -14q-4 -16 -4 -22q0 -2 -0.5 -4.5t-1 -4.5t-0.5 -4q-6 -12 -6 -28q-6 -22 -6 -33l-8 -21v-4q0 -4 -2.5 -14 t-1.5 -16q-2 -4 -4 -14.5t-5 -16.5v-8l-8 -50q-5 -21 -4 -26l-10 -43q-3 -7 -8 -33l-9 -39q0 -1 -1 -3t-1 -3q1 -5 0.5 -8t-1.5 -7.5t-1 -7.5q0 -4 -6 -22q-1 -5 -2 -10.5l-2 -11t-2.5 -10.5t-3 -10.5t-2.5 -10.5l-4 -23q-2 -2 -2 -6l-6 -43l-4 -10v-10q-2 -2 -2 -9 q0 -2 -1.5 -5t-1.5 -5q1 -2 3 -2q-19 -57 -19 -80v-4q-2 -4 -2 -10q0 -11 -8 -31q0 -8 -2 -10q0 -1 -1 -3t-1 -3h-107q-3 0 -7.5 -1t-6.5 -1h-4q-4 2 -16 0t-15 -2h-33h-10q-6 0 -8 -2h-4q-6 -1 -24.5 -0.5t-24.5 2.5h-17q0 1 -3 2l-3 2l-6 14q-2 0 -4.5 2.5t-4.5 6t-3.5 7 t-3 8t-2.5 5.5q-13 17 -15 30v5q-2 2 -12 22l-10 21l-13 36q-4 4 -4 11v4q-8 8 -8 16q-1 2 -3.5 8t-4.5 10.5t-6 8.5q0 2 -1 4l-2 4t-2.5 4t-2.5 4q-4 11 -9 19l-6 16v6q-2 2 -2 4q-11 13 -24 49l-13 23q-8 21 -10 29q0 4 -2.5 7t-8 7l-5.5 4h-15l-12 -18l-2 -2 q0 -4 -1.5 -8t-3.5 -8.5t-3 -6.5q-2 -2 -8 -14q-3 -9 -9 -19l-12 -20t-8 -19l-12 -24q-4 -4 -4 -11q-3 -9 -17 -30.5t-16 -36.5q0 -2 -1 -4.5t-1 -3.5q-7 -9 -12.5 -20t-12.5 -26t-10 -22l-16 -37q0 -3 -5 -8q-2 -3 -10.5 -23t-15.5 -30q-8 -4 -12 0q-3 1 -8.5 -0.5 t-6.5 0.5q-4 2 -12 2h-12q-22 -4 -62 -4h-49h-59q-5 0 -14 1t-13 1l-10 6q-4 16 -4 25q0 3 -2 8t-2 8q-5 23 -9 29q0 25 -2 30v6q0 1 -6 31v19q-1 2 -1 7t-1 7q-2 0 -2 4q0 6 -2 19.5t-2 19.5q3 3 -2 8q4 8 2 14l-2 3q1 5 -1 14t-1 14q0 2 -2 6.5t-2 6.5q0 1 -1 4t-1 5.5 t2 4.5q-2 3 -2.5 9t-1.5 7q0 6 -2 10q1 6 -0.5 16t-1.5 13l-4 35q-2 10 -2 29v4q-4 8 -9 37v12q0 7 -2 20.5t-2 20.5q0 2 -4 14v15q-2 6 -2 18q0 6 -2 18t-2 19q0 10 -4 14q-1 3 0 7.5t0 6.5l1 3t1 5t-2 3q0 8 -4 24q0 5 -1 15.5t-1 15.5q0 16 -6 31v2l-4 33q0 25 -7 36v7 q0 3 -1 11t-1 11q0 21 -6 39q0 5 -2 15.5t-2 15.5q0 1 -1 3.5t-1 4.5q4 11 -1 30.5t-5 24.5v17q0 8 -4 24q0 9 -4 21v10q-1 2 -1.5 8t-2.5 8v6q1 6 -2 16.5t-3 14.5q0 2 -1 6t-1 6q1 6 -4 31q0 2 -1 4.5t-1 3.5q0 7 2 9q0 1 -2 13.5t-4 18.5q3 12 0 21q-1 3 0 7.5t0 6.5 q-4 4 -4 14q0 1 -1.5 7t-0.5 10q-2 6 -2 16q0 14 -2 17v2q0 5 -2 14t-2 14v6q-3 9 -8 39q0 1 -1 3.5t-1 3.5z" />
<glyph unicode="X" horiz-adv-x="1353" d="M102 207q1 1 3.5 8t5 12t4.5 6q2 5 7.5 15.5t6.5 17.5q1 2 5 9t6.5 12.5t2.5 9.5q7 13 21 49q26 50 53 105q11 17 21 28l12 21q8 16 14 22l25 41l12 17l18 30q4 7 9.5 15.5t12.5 18t11 15.5l13 27l16 29q7 8 20 35q10 15 11 18q3 4 10 16.5t12 18.5q6 9 21 39q0 1 -1 3.5 t-1 4.5q0 1 1 3.5t1 4.5q0 1 -14.5 23.5t-24.5 31.5v9l-23 32q-6 6 -6 9q-3 4 -12 22t-17 25v8l-16 26q-3 3 -8 13q-2 4 -5.5 9t-6 10.5t-3.5 10.5q-3 2 -8 11q-28 50 -30 55q-4 4 -8.5 15t-6.5 14l-12 24q-5 7 -18 37q0 4 -3 4q-4 4 -9 15t-7 14q-4 6 -8 18l-12 23 q-1 7 -11 26l-14 33q0 4 -2 4q-3 5 -7 15t-5 12q-3 8 -12 23t-11 20q7 4 25 10.5t24 9.5q2 0 5.5 2t5.5 1q4 0 8 4q7 2 24.5 7.5t28 9t24.5 9.5t23 13h14q4 4 10.5 6t15.5 3.5t13 2.5l11 -8l22 -33q3 -4 10.5 -15t12.5 -16q16 -34 45 -70q9 -25 43 -67q2 -4 7 -11.5l9 -13.5 t8 -10l21 -29l12 -20q3 -12 12 -18q0 -2 1 -5t1 -4l9 -8l6 -12q3 -5 7 -12.5l8 -15t7 -13.5q10 -10 10 -19l15 -16q2 0 6 -1t6 -1q4 0 7.5 1.5t6.5 4.5t5.5 6t5 7.5t4 7.5t3.5 8t3 6l31 43q2 0 2 2q2 4 5 8.5t6 8t6.5 8t6.5 8.5q0 2 2 4q5 4 10 10.5t11.5 16.5t9.5 14l23 33 q0 4 4 4l24 32q1 0 2 2l2 3q6 15 15 24q3 3 5.5 9t4.5 8q7 7 10 16l19 31l4 8q5 7 11.5 17.5t12.5 20.5t13 17q8 5 8 17q9 -3 10 -3q4 0 11 -2t9 -2q8 1 18 -0.5t17.5 -4.5t17.5 -6.5t17 -4.5h4l4 -4q1 0 25 -6q2 -1 16 -6l41 -15q12 -6 23 -12q0 -4 2 -6l-29 -37l-16 -27 l-6 -16l-7 -12q0 -6 -4 -6q-3 -5 -16 -31.5t-23 -36.5q0 -14 -12 -23q-3 -11 -12 -29t-12 -28q-6 -6 -13.5 -23.5t-9.5 -21.5q-19 -28 -22 -41q-1 -5 -5.5 -14t-5.5 -13l-12 -22q-2 -2 -8.5 -14t-9.5 -17q0 -1 -1 -2t-1 -2q-3 -11 -13 -18q-6 -12 -18.5 -33.5t-18.5 -32.5 q-4 -4 -4 -8l-2 -2q-5 -7 -12 -23.5t-12 -23.5q-1 -2 -3.5 -5.5t-4.5 -6.5t-3 -5l-12 -16q1 -6 -12 -18v-9q14 -28 20 -34q0 -10 21 -31q0 -4 4 -8q0 -8 10 -23l12 -22q5 -15 17 -31l10 -19q13 -9 29 -43.5t18 -37.5q12 -18 33 -60q4 -8 10 -10q0 -10 8 -12q2 -9 12 -23.5 t11 -17.5q11 -26 22 -39q1 -2 3.5 -6.5t4.5 -7.5t5 -5q0 -4 2 -9.5t4.5 -9.5t6.5 -10t5 -8q3 -2 5.5 -8t4.5 -8q8 -8 19.5 -27.5t19.5 -27.5q3 -7 12 -18.5t11 -14.5q1 -2 6.5 -11.5t7.5 -15.5q4 -15 17 -30q0 -1 1 -3t1 -3q-2 -4 -9.5 -7.5t-16 -6t-17 -4t-13.5 -1.5 q-2 -1 -7.5 -3.5t-8.5 -2.5q-2 -2 -6 -2q-13 0 -23 -10q-24 0 -45 -9q-6 0 -18 -3t-15 -3l-32 -8q-1 0 -37 -6q-4 0 -6 2l-9 -4l-8 10l-6 4q-1 1 -6.5 11t-7.5 16l-8 10q-5 2 -9.5 9t-10 17t-7.5 13q0 2 -2 4q-12 16 -14 27q-5 5 -5 6l-16 24q-6 6 -15 24t-10 19l-24 37 q-2 2 -5 7t-4.5 8t-3.5 7.5t-3 8.5l-13 16q-11 22 -14 25q-4 4 -4 6q-4 9 -17 27l-12 20q-8 14 -39 66q-1 5 -14 22h-14q-2 0 -4.5 -2t-4 -4t-4 -5.5t-2.5 -4.5l-6 -12l-22 -45q-5 0 -5 -4l-8 -17q0 -2 -3.5 -6.5t-4.5 -5.5l-20 -35l-5 -10q-9 -7 -22 -29q-3 -12 -12 -18 l-4 -11q-19 -19 -25 -38q-3 -10 -10 -17q-1 -2 -10 -16q-2 -2 -4.5 -7.5t-4.5 -7.5l-14 -28q-4 -9 -14 -23.5t-13 -19.5q-12 -16 -14 -29q-1 -1 -31 -43q-4 -8 -10 -10q4 -7 -4 -10q-4 0 -12 4q-24 12 -37 14l-17 8q-6 0 -10 2q-7 7 -24 11l-35 10q-2 2 -4 2q-17 8 -23 10 q-2 0 -14 4q-1 0 -3.5 1t-4.5 1t-4 2q-4 3 -29 13q-16 4 -21 14z" />
<glyph unicode="Y" horiz-adv-x="1189" d="M59 1413v12l9 7h10q2 0 6 2l6 6q13 5 47 14q4 4 10.5 6.5t14 5t12.5 4.5q22 3 43 19q8 0 12 2l68 29h14q5 -6 19 -35l16 -37q0 -1 1 -3t1 -3q21 -26 21 -47l12 -23q0 -1 4 -9.5t4 -12.5q3 -14 14 -19q0 -4 3 -10l12 -33q1 -1 1.5 -3t1 -3.5t1.5 -3t2 -2.5q14 -28 14 -37 l15 -25q0 -4 2 -8q0 -2 4 -6q0 -6 7 -19.5t5 -21.5q6 -6 14 -18q3 -6 14 -28.5t15 -35.5q1 -3 2.5 -10.5t4 -13.5t5.5 -9l6 -14q1 -1 6.5 -6t10.5 -6q2 1 5 2t5 2l4 2t3 3t1 5v8q14 11 28.5 40t18.5 34q0 3 1.5 6.5t5 8.5t4.5 8q6 6 10 22l8 6q2 5 5 12t5.5 13t5.5 10l3 2 q0 5 2 10t5.5 11t4.5 8l16 31q6 8 12.5 20t12.5 24t12 21q1 1 3.5 7.5t6.5 8.5q5 14 8 17q1 3 11 18q5 2 10 13q1 3 3.5 7t4.5 7t4.5 6t3.5 6l17 27q4 3 6 6.5t4.5 9.5t3.5 8q4 4 8 17q5 5 12.5 16t10.5 15q24 -8 35 -17q15 -10 51 -22q4 0 4 -2l22 -13q6 -4 13 -7t15 -5.5 t13 -5.5q2 -2 8 -4t9 -4h4q16 -11 43 -23v-8q-3 -7 -8 -15t-10 -16.5t-7 -15.5l-14 -33q-11 -18 -16 -31q-11 -9 -11 -12q-3 -6 -18 -31q0 -6 -2 -13t-6.5 -14.5t-7.5 -12t-9.5 -12.5t-7.5 -9q-11 -25 -20 -39q0 -1 -1 -3t-3 -3.5t-3.5 -3t-3 -3.5t-2.5 -3l-10 -19 q-2 -2 -5 -8t-5 -8q0 -1 -1 -3t-1 -3l-6 -13l-21 -37q-7 -27 -31 -57q0 -3 -4.5 -7t-5.5 -7l-6 -15l-6 -10q0 -4 -4 -8q-12 -24 -17 -29q-4 -9 -2 -14q-5 -6 -14 -25q-6 -12 -6 -14q-1 -3 -4 -6t-4 -6q0 -5 -2.5 -10.5t-7 -12t-5.5 -8.5q-11 -15 -14 -27l-10 -20 q-1 -4 -5 -10t-5 -10q0 -2 -7 -9l-8 -20v-29v-14q-2 -4 -2 -25v-78q0 -22 -4 -26q0 -23 -2 -27q2 -3 2 -6t-1 -7t-1 -7q0 -21 -4 -25q0 -24 -2 -29q0 -1 1 -3t1 -3t-1 -4t-1 -4v-8q0 -1 1 -4t1 -4v-6q-2 -16 0 -27q0 -1 -1 -3t-1 -3q-1 -4 -0.5 -15.5t-1.5 -15.5 q0 -3 1 -7.5t1 -6.5v-53q0 -2 -1 -6.5t-1 -6.5t1 -6t1 -6q0 -8 -2 -12q0 -2 2 -4q0 -15 -2 -21q0 -1 -1 -3t-1 -3q0 -5 -1 -15.5t-1 -15.5q0 -3 -1 -9.5t-1 -10.5q2 -4 2 -19l-4 -18q-1 -2 -5.5 -2.5t-5.5 -1.5q-1 0 -4.5 -1t-5.5 -1q-4 0 -17 -1.5t-20 -0.5q-3 -3 -10 -2.5 t-12 -1.5q-3 0 -7.5 -0.5t-8.5 -0.5h-8h-8.5t-8.5 1h-6q-5 -2 -17 -2.5t-18 -2.5q-7 3 -10 0q-5 -2 -17 3q-12 -6 -24 -3q-4 4 -11 0h-4q-14 3 -30 21v18q-4 8 -4 24.5v20.5t-1 15t-1 16q5 26 0 49v13q0 8 2 12v70q0 1 -1 3t-1 3q0 2 1 6t1 6v10q3 7 0 13l1 13t-1 15 q4 8 4 27q0 10 1 28t1 27q0 1 -1 4t-1 4q0 2 1 6.5t1 6.5q0 14 4 20q-2 6 -2 16q2 4 2 15q0 6 1 16t1 17q0 10 2 16v14q0 11 2 17v16q0 2 4 6l-2 4l-23 31q-3 5 -8.5 15t-7.5 14v10q-2 2 -2 4l-14 29q-1 6 -6.5 15.5t-6.5 12.5q-11 22 -14 25q2 8 -6 20l-12 25q-4 11 -11 18 q0 2 -2 2q-8 22 -16 31v2q-2 3 -4 10.5t-4 10.5q-6 6 -10 18l-13 23q-8 12 -10 20l-10 21l-8 20q-1 4 -5.5 11.5t-5.5 11.5l-20 41l-6 14l-8 8q-3 4 -8 16.5t-9.5 18.5t-13.5 25q0 1 -1 4t-1 4l-10 18q-2 2 -4 5.5t-3 4.5q-4 18 -12 29q-4 8 -4 10q-16 21 -27 47 q-3 4 -5.5 11.5t-5.5 14.5t-7 11q-8 8 -12 27z" />
<glyph unicode="Z" horiz-adv-x="1280" d="M100 143q0 21 2 31q0 4 -2 6q0 1 1 4t1 4q0 5 -2 7q2 4 2 10q2 6 2 16q2 4 2 17q0 14 3 26v6q0 9 4 21q-2 2 -2 6q0 7 4 23t4 24q0 3 0.5 5.5t1 5.5t0.5 5q-1 3 -0.5 4.5t1.5 4t1 4.5q0 4 1 12t1 12v2q2 2 2 4q3 3 7 12t5 11q3 3 13 18q3 3 5 6t4 7l3 6q0 2 4 6 q20 31 33 47l18 25q2 2 8 14l15 23q8 8 10 14q8 6 15 16.5t14 22t14 18.5l18 27q1 1 4.5 3.5t5.5 5t3 5.5l18 25q20 25 23 28l26 39q53 71 70 88q5 5 16 21t19 24q10 20 35 51.5t34 45.5q4 8 8 12l19 23l6 8q3 11 12 20q2 5 9.5 12.5t9.5 10.5q4 8 8 10l20 29q1 1 3 2l2 2 q2 4 2 8l12 10v10q-4 2 -8.5 13.5t-14.5 11.5q-16 4 -22 4h-27q-7 2 -45 2h-39h-6q-6 2 -17 2.5t-14 1.5q-1 0 -2 1t-2 1q-4 0 -6 -2q-2 2 -8 2q-4 0 -6 -2q-5 3 -17.5 3t-17.5 3q-2 -2 -4 -2q-3 3 -20.5 0.5t-20.5 -2.5h-19q-6 0 -12 -2q-2 2 -12 2q-11 4 -21 0 q-16 0 -34 6q-17 -4 -25 0q-4 0 -6 -2q-4 2 -27 2q-22 0 -26 -2q-12 4 -21 2q-2 0 -22 5q0 1 -1 3t-1 3q0 2 -3 13t-2.5 15t3.5 13q0 7 2 21.5t2 21.5v20q0 6 2 8v8q0 1 -1 3.5t-1 3.5q1 4 0 11t0 11q0 12 2 14v5l4 36v27q0 10 2 14q15 5 18 5h21q13 0 18 -3q18 6 53 0 q6 4 23.5 4t24.5 5q11 -3 30.5 -2.5t32.5 -1.5h2h47q8 -2 23 -2q6 0 14 4h55h6q3 2 8.5 1.5t8.5 0.5h12q1 0 4.5 -1t5.5 -1q1 0 4 1t5.5 1t5.5 -2q6 2 37 2h43q2 -2 4 -2q2 1 6 1t6 1q2 0 7 -1.5t7 -0.5h15q4 0 8 2q14 0 20 -2q4 2 11 2h157q13 0 19 4q4 0 6 -2q8 -3 16 0 q1 1 4.5 1t5.5 1h37q5 0 11 2q9 -5 14 0q15 -4 20 0q4 0 9.5 -1t10 -1t7.5 2q4 -2 10 -2q15 0 21 -2q5 0 13 -1t11 -1q5 -14 0 -33q0 -1 1 -3t1 -3q-4 -6 -4 -33q0 -7 -1 -21.5t-1 -21.5q0 -4 -1 -11t-1 -12.5t2 -9.5q0 -4 -2 -6q2 -5 2 -33v-2q-2 -5 -2 -28q0 -7 -3 -22 t-3 -21q-2 -1 -5 -5l-3 -4q-14 -19 -29 -32q0 -3 -4 -7l-14 -16q-21 -21 -21 -31l-28 -30l-11 -21q-4 -3 -9 -9.5t-10.5 -13.5t-10.5 -12q0 -10 -13 -20q-3 -1 -5.5 -4.5t-5 -7.5t-3.5 -5q-14 -14 -18 -24l-9 -10q-1 -4 -3.5 -9t-6.5 -11l-6 -9l-6 -6q-9 -15 -23 -29l-4 -4 q-2 -2 -6 -5.5t-7 -6.5t-5 -6q-2 -4 -8.5 -10.5t-8.5 -10.5q0 -6 -6 -13.5t-16.5 -16t-11.5 -9.5v-6q-6 -2 -11.5 -10t-9.5 -10l-4 -4l-16 -27q-20 -22 -29 -33q-2 -6 -10 -14q-8 -4 -19 -19q0 -5 -6 -8q-4 -2 -14 -18q-2 -4 -5.5 -9t-8.5 -10.5t-7 -9.5l-16 -22 q-2 -2 -7.5 -7t-10 -9.5t-5.5 -8.5l-6 -8l-18 -17l-17 -18q-5 -10 -16 -21l-20 -22q-4 -8 -27 -31l-23 -24q-6 -4 -16 -25l4 -10q-2 -2 -2 -4q0 -1 1 -3.5t1 -4.5q1 -1 2.5 -2t2.5 -2.5t2.5 -3.5t2.5 -3q9 0 13 -2l20 4h14h19q8 0 14 -2h119q10 0 14 -2q2 1 8.5 -0.5 t8.5 -1.5q8 1 17 1t20.5 -0.5t17.5 -0.5h12q2 0 8 -0.5t10.5 -0.5t6.5 1h12h94q8 2 21 2q4 -4 33 2q22 0 26 2h6q4 0 14 2t15 2h4q12 3 23 3h4l8 -5v-2q0 -15 -2 -18v-10q4 -3 0 -18.5t-4 -18.5q1 -4 -0.5 -9t-1.5 -6q0 -3 1 -7.5t1 -6.5q0 -24 -2 -29v-10v-10q0 -2 -1 -5 t-1 -5t1 -6.5t1 -6.5q-2 -5 -2.5 -14t-1.5 -12q0 -10 -1 -32.5t-1 -31.5q-1 -2 -13 -8q-2 0 -5.5 1t-4.5 1q-3 -2 -7.5 -1.5t-6.5 -0.5h-15q-4 -2 -14 -2h-4q-8 -3 -14 0q-18 0 -21 -2h-10q-10 0 -16 -2q-4 2 -13 2h-26q-3 0 -9 1t-10 1q-2 0 -6 -2q-2 2 -4 2h-2 q-4 -2 -10 -2h-105q-2 2 -4 2h-96q-15 0 -23 4h-6q-8 -2 -23 -2.5t-20 -1.5h-16q-2 1 -10 1.5t-11 2.5q-3 0 -7.5 -0.5t-8 -0.5t-6.5 1q-3 0 -7.5 -1t-6.5 -1q-6 0 -18.5 1t-18.5 1h-19q-1 0 -3 1t-3 1q-13 -4 -20 0h-7q-16 -2 -51 -2h-45q-1 0 -3 -1t-3 -1q-2 0 -4.5 1 t-3.5 1q-33 0 -39 2q-6 -2 -21 -2q-29 0 -43 2q-6 -1 -17 0t-17 0q-2 0 -14 2.5t-15 -0.5q-2 0 -4 2l-12 -4q-8 4 -11 4z" />
<glyph unicode="[" horiz-adv-x="868" d="M135 788l4 9v106q0 15 -2 21q0 1 1 4t1 4v49q0 2 -4 10q0 17 4 25q0 174 2 262l4 8q-8 37 0 57q0 31 1 92.5t1 90.5l5 10q0 1 -1 2.5t-2 4.5t-2 5q0 2 2.5 6.5t2.5 6.5q1 10 0.5 37t1.5 36q2 4 8 5l6 1q2 0 6 1t6 1q4 0 6 -2q2 -1 9.5 1.5t9.5 -1.5h22q12 9 25 0q2 2 6 2 q1 0 4.5 -1t5.5 -1h29q17 7 49 7q2 0 10 4q21 0 31 2q4 0 12 4q5 0 13.5 -1t14 -1t9.5 2q45 0 68 2q4 0 6 2q2 0 7 -1t7 -1q4 0 12.5 -1t12.5 -1h59q15 0 21 -4q11 -1 34 -1t35 -1q2 -2 2 -6q2 -7 -1 -19.5t-3 -17.5v-168q-4 -4 -4 -10q-4 -9 2 -15q3 -6 -4 -10h-59 q-10 0 -30 -1t-32 -1q-1 0 -3.5 -1t-4.5 -1q-4 0 -8 2q-2 0 -10 -4h-90q-19 0 -33 -6.5t-14 -20.5l-9 -12q4 -6 1 -37.5t-3 -36.5q-2 -47 -2 -143l-4 -10q0 -16 2 -19q3 0 1.5 -8l-1.5 -8v-6q0 -7 -2 -9l4 -12l-4 -10q0 -13 4 -17v-40q0 -1 -1 -4.5t-1 -4.5q4 -12 0 -20v-6 q2 -2 0 -8t0 -9q2 -6 2 -16v-264q0 -14 1 -39t1 -39l4 -12l-4 -13v-18q0 -2 4 -10q0 -30 1 -89t1 -87q5 -15 5 -19v-67q0 -2 -5 -17q0 -18 -1 -52t-1 -52q7 -11 13 -11h8q3 1 5.5 2.5t5.5 4.5t5 4h68q22 0 45 -4q4 -1 5.5 -0.5t5.5 2t7 2.5h60q8 0 8 -6v-144q-4 -16 -4 -22 v-45q0 -11 -2 -15q-4 -4 -4 -6q-8 -4 -37 -4q-12 -6 -23 -6q-3 0 -9 -1t-9 -1q-4 2 -27 2q-2 0 -7.5 -3t-8.5 -3q-1 0 -7.5 -1t-11 -1.5t-6.5 0.5q-4 2 -16 2h-68q-1 0 -4 -1t-4 -1q-10 2 -33 2h-145q-33 0 -49 2q-4 0 -6.5 1.5t-4.5 4.5t-3.5 5t-3 7t-1.5 6q0 5 -1 18 t-1 19q2 49 2 148q0 4 1 13.5t1 12.5q-5 9 2 23v137q-4 16 -4 18v48q0 15 -1 47t-1 47q0 10 1 30.5t1 32.5q0 33 -1 99.5t-1 99.5v47q0 6 -2 11.5t-2 6.5z" />
<glyph unicode="\" horiz-adv-x="968" d="M53 1499q3 1 18.5 10.5t24.5 10.5q19 11 47 18q3 0 9 5t10 5q9 0 26 9.5t27 9.5q5 3 15.5 6t13.5 4q1 2 3.5 1.5t4.5 -2.5t2 -5q3 -9 16 -35l13 -33l4 -8q0 -9 6.5 -23.5t7.5 -17.5q2 -11 23 -45q2 -10 10 -25q7 -30 20 -55l17 -31q0 -7 12 -22v-6q9 -31 18 -45 q0 -5 9 -23q12 -23 28.5 -73t30.5 -74q2 -4 5 -15.5t5 -15.5q1 -2 4.5 -11t3.5 -14q10 -20 11 -24q9 -23 10 -27q2 -6 8.5 -19.5t7.5 -21.5q1 -5 6.5 -14t6.5 -14q0 -5 10 -25q0 -9 5.5 -20t6.5 -15q12 -24 14 -37q3 -3 5.5 -11t5.5 -11l6 -21l10 -20q4 -14 10.5 -29 t12.5 -30.5t10 -28.5l4 -8l12 -27q5 -22 23 -57q3 -10 7.5 -21t10 -22.5t8.5 -18.5q9 -15 19 -44.5t14 -39.5q8 -12 10 -20q0 -4 3.5 -12t3.5 -13t2 -11t5.5 -13.5t4.5 -10.5q10 -14 21 -47.5t20 -46.5q5 -23 20 -63.5t19 -55.5l8 -24q-9 -12 -21 -15l-26 -12 q-14 -3 -28.5 -8t-30 -11.5t-27.5 -9.5l-33 -12q-20 -12 -45 -12q-7 5 -12.5 11.5t-8 11t-7.5 15t-7 15.5q-6 18 -6 19q-3 4 -5 9t-4 11.5t-3 9.5q-11 22 -23 62l-16 43q-7 11 -10 22q0 5 -9 23q-3 7 -8.5 21t-7.5 20q0 6 -2 8q-6 10 -16 41l-7 24q-6 10 -12.5 30.5 t-9.5 27.5q0 9 -8.5 24.5t-10.5 20.5q-2 12 -10 31q0 5 -2 11t-5.5 14.5t-4.5 10.5q-2 3 -5 11.5t-5 11.5l-4 16l-9 17l-4 16l-8 10q0 1 1 4.5t1 4.5q-1 5 -3 10t-5 11t-4 9q-9 14 -12 31q-2 4 -8.5 16.5t-8.5 18.5q0 9 -6 18q-1 2 -7 20.5t-11 28.5q0 7 -2 11q-4 7 -8 17 t-7.5 20.5t-7.5 17.5q-3 11 -8 23t-11.5 26.5t-9.5 22.5q0 8 -12 24q0 11 -6.5 24.5t-7.5 20.5q0 1 -11 21q-11 33 -14 39q-21 42 -24 51q0 1 -1 3t-1 3l-19 39q-1 6 -7 19t-7 20q-6 9 -13 27.5t-10 23.5l-5 12.5t-5.5 13.5t-6 12.5t-7.5 10.5q1 8 -7 33q-2 6 -11.5 29.5 t-12.5 35.5l-14 35q-9 24 -11 33q0 5 -4.5 15.5t-5.5 16t6 13.5z" />
<glyph unicode="]" horiz-adv-x="825" d="M96 1608v24v17l2 2q4 1 16 4.5t19 3.5q8 0 14 6q10 0 32 1t32 1q1 1 4.5 2t5.5 2q61 2 185 4t186 4q16 -9 16 -14q2 -49 2 -147q0 -26 -2 -31q-2 -4 -2 -14q0 -72 2 -109v-45l-4 -16q0 -158 2 -187q3 -12 -4 -26q4 -6 4 -23q-3 -3 -2 -10t-2 -10v-78q0 -13 -2 -19 q6 -16 -2 -32l4 -9q-4 -12 -4 -16v-64q0 -7 -2 -20.5t-2 -20.5q0 -18 0.5 -41.5t1 -47.5t0.5 -42q1 -5 -1 -14t-1 -14q-2 -4 -2 -13v-102q-4 -20 -4 -22v-41q0 -3 -4 -15l4 -6v-16q-4 -4 -4 -8q0 -7 -1 -23t-1 -23q0 -6 -4 -10v-49q0 -6 -2.5 -16t-2.5 -15q0 -14 -2 -20v-25 q-2 -3 -0.5 -9t-1.5 -9v-37v-125q0 -4 -2 -15t-2 -16v-47q0 -1 -1 -6t-1 -10q0 -4 2 -6q0 -3 -4 -15v-26q0 -4 -1.5 -7t-5 -5t-6.5 -3t-9 -1.5t-9 -0.5h-10h-8l-8 -4q-4 0 -12.5 -1t-12.5 -1q-5 0 -30 -4.5t-31 0.5q-3 0 -6.5 -1t-5.5 -1l-170 -4l-13 -6q-33 0 -49 -2 q-1 0 -4 -1t-4 -1q-3 1 -8.5 1.5t-9.5 2.5t-7 6q-1 3 -2 14t-6 17q3 12 2.5 18t-2.5 17t-2 18q0 17 -1 52t-1 54v68q2 8 11.5 10.5t26 3t19.5 0.5q2 0 6.5 2t6.5 2q9 3 18 3q21 0 31 4q2 2 15 -0.5t18 0.5q2 0 6 -1t6 -1q9 6 14 16v61l-4 9q4 6 4 24q0 6 2 18t2 17v111 q4 8 4 41v57l4 16v56q0 4 1.5 11.5t3 13.5t1.5 13t-3 11q-5 10 2 24v105l4 12v18q0 20 -1 61t-1 62v19q4 12 4 16l-4 10q0 51 -2 78q8 17 4 55q0 3 -4 11v26q0 3 4 11v47q0 20 -1 61t-1 62q0 6 4 18v68q4 8 4 12q2 6 2 16l-10 19q-4 2 -8.5 2t-10 -1t-8.5 -1q-8 2 -27 2 q-2 0 -4.5 1t-3.5 1h-33l-10 -4l-115 -4q-2 2 -6 2q0 1 -1 4t-1 4v63q-2 33 -2 101z" />
<glyph unicode="^" horiz-adv-x="813" d="M104 1280q24 27 48 45l16 14q5 3 13.5 11.5t13.5 11.5q7 3 15 10t16.5 14.5t15.5 10.5q4 4 12 8q18 21 57 49q5 0 11 6q3 3 36 31q7 7 19 10l4 -4l20 -16q36 -18 60 -54q17 -10 28 -24q27 -27 39 -33q5 -5 15.5 -12t13.5 -10l25 -25q6 -4 13 -15.5t11 -15.5q13 -8 23 -24 q-14 -16 -56 -41q-2 -1 -5.5 -5t-6.5 -5q-15 -12 -26 -21l-17 -8l-16 14q-25 29 -41 39l-19 21l-12 16l-53 51q-22 9 -27 8q-4 -2 -11 -9t-11 -9l-45 -41l-31 -33q-30 -30 -68 -45q-1 0 -3.5 1t-4.5 1l-18 17q-13 19 -35 34q-13 10 -19 27z" />
<glyph unicode="_" horiz-adv-x="653" d="M51 -203q1 17 0.5 64.5t1.5 64.5q4 16 4 23q0 14 41 14h158q12 4 20 0h43l7 4l10 -4l12 6h90l11 -6h47l5 3q5 3 9 3q13 0 18 -12q-12 -28 0 -47l-6 -19q0 -12 -4 -18q0 -4 4 -12q0 -26 -4 -33q4 -7 0 -14q0 -3 4 -15v-16q-7 -14 -14 -16q-17 -3 -72 -3l-6 5q-14 -9 -27 0 q-4 0 -11 1t-11 1q-29 0 -87 -1t-85 -1l-12 -5h-37l-8 5q-6 -5 -21 0h-25q-2 0 -12 -5h-31q-5 1 -7 7.5t-3 7.5q0 1 -1 3t-1 3v12z" />
<glyph unicode="`" horiz-adv-x="610" d="M102 1475l4 4q29 0 41 2q3 0 11 4q43 0 63 2q4 0 8 4h21l12 -6h33q12 -6 14 -8q15 -23 21 -43q4 -8 9 -22t9 -23q0 -4 3 -11.5t3 -11.5l2 -2q2 -7 8.5 -18t8.5 -15q2 -12 10 -31q8 -11 12 -26q1 -4 5.5 -12t5.5 -13q5 -11 2 -24h-2l-21 -4q-6 -2 -16 -2q-66 0 -97 -2 q-2 2 -6 2q-21 18 -30 41q-3 5 -11.5 17.5t-11.5 20.5q-1 2 -33 50q-2 3 -7 12.5t-9 13.5l-19 33q-15 15 -20 31l-10 14q-9 7 -13 23z" />
<glyph unicode="a" horiz-adv-x="1271" d="M94 514q2 25 2 70v22q0 2 1 8t1 9q0 4 1 11t1 9q1 3 1.5 11.5t2.5 11.5v6q0 15 5 22v9t1.5 8.5t2.5 9.5q0 12 6 24q1 3 2 6.5t1.5 7t1.5 7t3 6.5q2 4 2 12l4 7l4 12q6 6 6 14l4 4l9 17q10 10 12 16l14 29l8 12l19 23q1 1 17 14t24 16q7 10 29 20t28 15q1 0 3 1t3 1l15 4 l14 10q9 3 18 9q2 1 4.5 2t5 1h5.5t6 1q9 10 22 12l29 8l2 -2l12 6h72q4 -1 12.5 -1t12.5 -1h8l31 -4h6q3 0 8 -2t8 -2q8 0 14 -6q3 -1 7 -1.5l8 -1t7.5 -1t7 -2t5.5 -2.5l23 -6q6 0 17 -5t14 -6q0 -3 6 -6q1 0 3.5 -1t4.5 -1q0 -4 2 -6l18 -12h13l2 2q0 4 6 4l8 4 q0 10 -2 16v23q0 4 2 4q14 7 27 2h8q17 3 35 -6q1 0 3 1t3 1q2 0 7.5 1t8.5 1q2 0 4.5 -0.5t4.5 -0.5t4.5 -0.5t3.5 -0.5q2 -1 8 -1.5t8 -2.5q11 3 23 0l4 4q4 0 8 -4q10 2 22 -2q7 0 11 4h4q3 0 8.5 -1t7.5 -1h18q3 -2 5 -2q1 -5 -0.5 -13.5t-1.5 -11.5q-7 -21 -7 -94 q0 -8 -2 -12q1 -2 -0.5 -8t-1.5 -7q0 -17 -2 -20q2 -2 0.5 -6t-0.5 -6q2 -1 2 -11q-2 -6 -2 -20q0 -3 -2 -8.5t-2 -8.5v-24q0 -8 -2 -12q2 -4 2 -25q-2 -6 -2 -29v-10q0 -2 1 -5.5t1 -4.5q0 -2 -1 -5.5t-1 -4.5v-15q0 -1 1 -4t1 -4q-2 -4 -2 -12v-60q0 -8 -4 -14q5 -9 2 -12 l4 -15l-6 -6l6 -32q0 -2 1 -6t1 -5v-8q3 -10 7 -20.5t9.5 -22t8.5 -18.5q0 -3 6 -6q0 -5 2 -7l18 -22q8 -8 17 -10h2l22 -9q15 -4 23 -2q2 -6 2 -16v-12v-68l-4 -8q2 -2 2 -4t-1 -4.5t-1 -3.5v-19q1 -3 -0.5 -7t-1.5 -5v-12q0 -5 -4 -9l4 -22q0 -1 -1 -2t-1 -2 q3 -8 -0.5 -21t-3.5 -18q-20 -8 -29 -8q-15 0 -21 -2h-8l-16 4q-4 -2 -27 -2q-8 4 -26 4l-13 6h-6q-4 3 -14.5 6t-15.5 6l-29 15q-7 7 -27 22q-5 5 -14 23l-12 22q-2 -2 -7 -2q-2 0 -10 4l-12 -6q-3 -3 -6 -9.5t-6 -10.5q-25 -14 -62 -39q-14 -10 -20 -11q-11 -6 -33 -15.5 t-31 -14.5h-12q0 -2 -2 -2l-12 -6q-9 0 -26 -3.5t-28 -3.5h-73q-13 0 -17 2q-8 0 -14 -2l-10 7q-4 0 -9.5 0.5t-10.5 1t-9 0.5q-12 4 -16 4q0 4 -4 4q-28 5 -35 10q-1 0 -3 -1t-3 -1q-5 2 -20.5 6.5t-22.5 7.5q-1 0 -5 3t-6 3l-4 2t-3 2.5t-2.5 3.5t-2.5 3q-31 8 -41 18 q-3 1 -5 3t-4 5t-3 4q-20 12 -39 31q-4 3 -6.5 6.5t-5.5 8.5t-5 8q-1 2 -16 22q0 2 -2 2q-20 20 -51 90q0 18 -6 33q0 1 -2 13t-4 18v6q-7 12 -7 33l-4 16v27q-4 4 -4 12zM322 543q-1 -2 -0.5 -4t1 -3.5t1 -3.5t0.5 -4q2 -6 4.5 -17t5.5 -19t8 -15q19 -38 49 -53 q2 -1 19 -12q13 -13 26 -13q15 -10 33 -10q2 0 11.5 0.5t15 0t8.5 -2.5l8 4q4 -2 10 -2l17 4q2 0 4 -2q12 5 49 23l24 22q3 1 7.5 6.5t7.5 6.5l12 10q2 3 6.5 8.5t7.5 9.5t6.5 9.5t5.5 10.5t3 11q0 4 8 20q0 2 1 6.5t1 6.5q4 8 4 14q0 8 1 24.5t1 24.5q0 2 -1.5 9t-0.5 12 q0 1 -1 3t-1 3q-2 4 -2 10v4l-6 8v6q0 1 -1 4.5t-1 4.5q-10 17 -19 28l-12 17l-8 8q-8 10 -19 16q-4 4 -12 8l-4 7q-10 7 -26 14t-21 10q-34 0 -43 6q-6 0 -18 4l-5 -2.5t-5 -2t-4.5 -1t-5 0t-5.5 1.5q-2 -1 -12.5 -3.5t-12.5 -4.5q-4 -4 -10.5 -8l-13 -8t-10.5 -8 q-4 0 -7 -2.5t-6.5 -7.5t-5.5 -7l-16 -18q-4 -6 -10 -14.5t-10.5 -16t-8.5 -14.5q0 -2 -2 -5.5t-2 -5.5q-3 -4 -4.5 -8t-2.5 -10t-1 -8q0 -6 -3 -18.5t-3 -20.5l-4 -21v-18v-12z" />
<glyph unicode="b" horiz-adv-x="1085" d="M133 1440l2 4q0 4 2 4q-2 4 -2 8q0 13 2 21l6 4q23 0 27 -2q1 0 3 1t3 1h27q0 1 3 2l3 2q2 -2 6 -2q1 0 3 1t3 1q3 -3 18 -3.5t23 3.5h4q3 -1 9.5 0t9.5 0q2 -2 6 -2q1 0 4 1t4 1q2 0 4.5 -1t3.5 -1q7 0 21.5 -1t21.5 -1h19q1 0 4.5 -1t5.5 -1q6 2 18 2q2 -2 2 -6 q0 -2 1.5 -7t1.5 -8t-1 -6q0 -8 -1 -24.5t-1 -24.5q0 -19 -2 -23q4 -8 4 -16v-39q0 -5 -1 -17t-1 -20v-39q0 -4 1 -13t1 -13q-2 -8 -2 -21q3 -5 0.5 -33t-2.5 -32q0 -2 -1 -5.5t-1 -5.5t1 -7t1 -7t-4 -14q3 0 5.5 -12t2.5 -19q0 -10 -2 -16q15 -15 31 -11h4q6 -4 21 0 q3 0 20.5 -4t26.5 -4q2 0 7.5 -1.5t8.5 -0.5q29 0 45 -4q5 1 12.5 -0.5t10.5 -1.5t10 -1t10 -1q10 0 25.5 -5t27.5 -5l29 -8q4 0 6 -2l25 -13q16 -8 24 -10q3 -3 13 -8q14 -12 24 -17q7 -11 15 -16l24 -18q4 -4 4 -7q1 -4 8 -11.5t9 -10.5q10 -7 24 -41q1 -1 2 -3l4 -7 q0 -1 2 -3.5t2 -4.5q1 -3 4 -9t4.5 -10t3 -9.5t1.5 -10.5l4 -7v-4l6 -24q0 -1 1 -3t1 -3q0 -4 1 -12.5t1 -12.5q0 -1 2 -11.5t4 -15.5v-6q1 -2 1.5 -8t2.5 -8v-21q4 -12 4 -18q0 -25 7 -35v-8v-27v-2v-16q0 -14 -2 -16v-33q0 -10 -2 -12v-9q0 -29 -13 -55q-2 -12 -10 -41 q0 -1 -1 -3t-1 -3q-3 -23 -12 -43q-9 -19 -11 -25v-4q-4 -4 -12 -20l-18 -31q-1 -1 -2 -4.5t-2 -5.5q-11 -9 -31 -37q0 -4 -4 -4q-3 -1 -5.5 -5t-4.5 -5q-3 -1 -13 -11q-3 -2 -10 -7.5t-11 -8.5t-10 -6.5t-12 -5.5q-2 0 -8 -6l-33 -13q-4 0 -16 -4h-4q-7 -7 -24.5 -12.5 t-31.5 -5.5q-4 -2 -28 -2q-8 -4 -15 -4q-2 0 -8.5 -1.5t-9.5 -0.5q-3 0 -8.5 -1.5t-7.5 -1.5q-4 0 -10 -1t-9 -1q-31 0 -37 2h-6q-3 0 -18 3t-19 0q-7 -3 -28 -3l-4 3l-33 -7q-6 0 -10 2h-17q-2 -2 -10 -2q-5 2 -13.5 2.5t-11.5 1.5q-9 3 -18 3q-4 0 -12.5 -1.5t-12.5 -1.5 h-22q-2 3 -4 3q-9 -3 -23 -3q-12 3 -22 3q-13 0 -19 4q-6 0 -16.5 -3t-13.5 -4h-9q-1 0 -3 1.5t-3 1.5q0 22 2 26v31q-2 3 -2.5 11t-1.5 11v19v61q0 7 2 11q-2 2 -2 4q0 6 2 8q-2 7 -2 13.5t1 14.5t1 13v14v16q2 22 0 41q-2 3 -2 5q2 2 2.5 6t0 10.5t-0.5 7.5q-2 2 -2 6 q0 2 1 6.5t1 6.5q0 18 -2 24q2 5 2 13.5t-1 19.5t-1 16q0 2 1 5.5t1 5.5q0 42 -2 65q0 2 1 5t1 5v11q0 2 1 6t1 6q0 8 2 10q-2 6 -2 16q-2 10 -2 31v6q2 6 2.5 17t1.5 14q0 10 -1 32t-1 32q0 8 -2 10v4q1 3 0 7.5t0 6.5q3 6 0 15v10q0 6 -2 10l4 8q0 40 -2 60v28q0 2 1 7 t1 8q0 2 -1 6t-1 6v20q0 9 4 21q0 12 2 16v19v16q2 0 2 2t-2 2q-2 4 0.5 15.5t-2.5 15.5l4 12v12q0 5 -4 13q2 4 2 14v16q0 25 2 31q0 2 -1 6t-1 6q1 2 2 6t2 5q-4 12 -4 16q0 8 -2 12q0 2 -1 6.5t-1 6.5v10q0 17 2 20q0 26 -2 31v10q-1 3 -1.5 14t-2.5 17q0 8 2 12v29v12 q0 4 -2 6q0 2 -1 6.5t-1 6.5zM420 408q6 -6 2 -15q-4 -4 0 -12l10 -8q2 0 9.5 -2t11.5 -2q2 0 7 -1t7 -1h25q3 0 9 1t9 1q30 6 31 6q4 1 17.5 4.5t22 7.5t13.5 10l8 4q7 4 10 9l13 18v8q4 3 8 13.5t6 13.5q3 4 5 8.5t4 11t3 9.5v10l6 16q0 5 1 16t1 17v39q-4 4 -4 8 q2 15 -6 39q-2 2 -2 4q0 6 -10 21v6q-20 30 -27 37q-8 8 -10 12q-25 21 -37 24q-12 2 -26 13h-5q-1 1 -8.5 1t-11.5 3q-5 -1 -20 4h-17h-20q-20 0 -27 -14q-8 -8 -8 -13v-96q0 -11 4 -31v-24q0 -8 -1 -22.5t-1 -22.5v-21q0 -3 -2.5 -12.5t0.5 -13.5q0 -26 2 -31v-27 q2 -7 -2 -22v-4z" />
<glyph unicode="c" horiz-adv-x="1024" d="M92 487v64q0 23 4 27v18q0 17 2 20v7q0 17 6 32l9 43q4 8 4 15q0 2 1 7t1 7q0 4 2 9t5.5 11t4.5 9q8 20 14 30q3 10 11 23q4 4 7 9.5t6 11.5l5 10l6 6l8 14l11 12q3 0 8 9q28 37 37 45q20 20 32 28q2 3 25 15q11 5 29 14.5t22 11.5q10 0 19 9q13 3 28 10q2 1 9 1.5 t10 2.5q12 4 18 4q7 0 15 4q3 0 8 1t8 1q3 2 8 2.5t9.5 1t7.5 2.5q1 0 4 1t4 1h10h37q5 0 16.5 -1t18.5 -1q1 0 3 -1t3 -1q1 -1 4 0t4 0q29 0 61 -16q1 0 4 -1t5 -1q10 -2 22 -8t24.5 -11.5t24.5 -7.5q1 0 5 -1t6 -1q9 -9 30.5 -25.5t30.5 -25.5q15 -8 22 -21q2 -8 11 -22 q0 -1 -1 -3t-1 -3l-19 -21l-22 -20q-9 -8 -54 -53q-17 -16 -30 -27q-2 -3 -12 -12.5t-13 -16.5l-14 -8l-10 8q-2 0 -6 3t-5 3q-2 2 -8 4.5t-8 4.5q-9 0 -21 8q-4 0 -8 4q-22 0 -26 2q-2 2 -11 2h-26q-3 0 -15 -4q-2 2 -4 2l-32 -6q-3 0 -7 -4h-10l-8 -6l-20 -9 q-30 -10 -58 -59l-16 -21q-3 -19 -12 -34v-11q-9 -16 -13 -47v-6q2 -2 2 -16q1 -6 1 -17.5t1 -17.5q-1 -1 -0.5 -3t0.5 -4t0.5 -4t-0.5 -3q4 -12 4 -19q4 -4 8.5 -14t8.5 -14l2 -3q2 -4 4 -7.5t3.5 -5t5 -4.5t4.5 -3.5t6 -3.5t6 -4q5 -5 32 -23q1 0 2.5 -1t4 -2.5t4.5 -2.5 q1 0 2 -1t2 -1q8 -2 20.5 -7t23 -8t21.5 -3h6q4 -2 11 -2q77 0 104 18l25 10q2 2 6 2l14 11q6 2 16 12l2 2t2.5 1.5t3.5 1t3 1.5q4 4 8 12q8 0 10 -4l17 -18q3 -3 7.5 -10t8.5 -9q1 -1 4 -5t4 -7q1 0 2 -1t2 -1q20 -25 25 -29q10 -16 20 -22q3 -2 6 -5.5t6 -7.5t7 -6l10 -16 q19 -19 24 -31q0 -3 -3 -6t-8 -6.5l-5 -3.5q-11 -11 -14 -12q-8 -9 -24.5 -22t-22.5 -19q-5 -3 -12.5 -9t-14 -10t-12.5 -6q-5 -4 -18 -7.5t-17 -6.5q-2 -2 -6 -2q-6 -2 -18 -8.5t-19 -8.5l-25 -8q-12 -4 -20 -4q-2 0 -4.5 -1t-3.5 -1l-19 -6q-4 2 -10 2q-20 0 -23 -2 q-5 0 -15 -2t-15 -2t-15.5 -1t-15.5 -1q-8 0 -14 -2q-2 0 -7 -2.5t-8 -2.5q-5 0 -15 3.5t-15 3.5q-4 0 -9.5 1t-9.5 1t-8 -2q-16 8 -29 8q-1 0 -3 0.5t-4 0.5t-4 0.5t-3 0.5q-6 2 -17.5 6.5t-21.5 7t-20 2.5q-3 1 -27 15l-33 22l-20 17q-3 2 -9.5 9t-11.5 9q-3 0 -9.5 9 t-10.5 11q-1 0 -1.5 1.5l-1 3t-1.5 2.5q-7 7 -13 10l-24 35q-13 23 -23 32q0 5 -2 9l-6 12q0 6 -4 10q-7 11 -16 41q-2 2 -2 4q0 5 -3.5 16t-3.5 17q-2 2 -2.5 8t-1.5 8q0 2 -1.5 8t-0.5 9q0 2 -1 5t-1 5q3 5 -2 10q0 8 -2 10z" />
<glyph unicode="d" horiz-adv-x="1087" d="M96 492q0 11 3 34t3 33v10q0 1 1 3t1 3q-1 5 0.5 13.5t1.5 11.5v2q3 4 5 14t4 13q4 12 4 20q0 11 8 35q5 9 8 23l6 18l2 4q7 7 7 23l8 8q0 4 3.5 11.5t4.5 12.5l12 21l19 22q0 11 22 33l23 23q4 6 14 8l4 8q2 0 10 4q17 17 33 25q2 1 5.5 2.5t5.5 3t3 4.5q5 2 17 9t20 9 q7 7 8 9h11l8 8q18 4 27 8q3 2 9.5 2.5t8.5 1.5h8q6 2 21 2h28q11 0 17 -2l4 2q27 0 39 2q1 0 11.5 -1.5t12.5 1.5l27 -6q14 0 20 4h9q3 7 0 10v23q2 2 2 6q-2 6 -2 21q0 2 -1 6.5t-1 7.5q0 1 1 4.5t1 5.5q0 8 2 10q-7 6 0 13q-2 4 -2 12q-2 16 -2 45q0 5 1 13.5t1 13.5 q1 2 1 6.5t-0.5 10t-0.5 7.5v12q0 2 1 6.5t1 6.5q-3 6 0 18q0 13 -2 15q2 4 2 10q0 16 2 26q-2 2 -2 4v15q2 4 1.5 12t0.5 12q0 2 -1 5.5t-1 5.5t1 6.5t1 7.5q0 10 2 14v64q0 6 1 19t1 20v8l6 4q4 0 20 4q19 -3 39 2h29q2 0 6.5 1t7.5 1h58q6 2 18 2q3 1 6 1t7.5 -0.5 t7.5 -0.5h8q2 3 12 0.5t12 -2.5l4 -4q-2 -5 -2 -33v-55q0 -10 -2 -14q2 -3 2 -5.5t-1 -5.5t-1 -4q0 -27 4 -43v-22l-4 -8q0 -1 4 -11v-30q0 -2 1 -6.5t1 -6.5v-12q2 -8 -2 -16q5 -5 5 -17q0 -27 2 -39q0 -28 2 -32v-13q-2 -5 -2 -28q0 -2 4 -6q-4 -6 -4 -21v-29 q0 -4 -1 -11.5t-1 -10.5q0 -23 2 -33v-8q2 -4 2 -14v-62q0 -2 -1 -5.5t-1 -4.5v-12q0 -3 -1 -13t-1 -14q0 -21 -3 -27q0 -20 3 -26l-3 -13q6 -12 0 -24q5 -10 5 -25v-53q0 -6 -2 -10v-8v-70q3 -10 -3 -23l5 -8q-5 -10 -5 -14v-10q3 -20 0 -39v-10q-2 -3 0 -3v-24 q-2 -8 -2 -27v-76q0 -2 -1 -6t-1 -6q0 -4 2 -8q-2 -6 -2 -20v-13q0 -12 -1 -29t-1 -26q0 -2 -1 -6t-1 -6q4 -11 0 -25q2 -6 2 -18q-1 -3 -1 -6t0.5 -7t0.5 -6t-1 -6t-1 -6q0 -12 -2 -18v-5v-12q0 -2 -4 -10v-4q-4 -4 -26 -15h-19q-33 0 -37 2q-2 0 -4.5 -1t-3.5 -1 q-4 0 -6 2q-6 -4 -21 -4h-18q-6 0 -8 -2q-1 0 -3 1t-3 1q-5 -3 -13 -3t-12 3h-33q-7 0 -22 -1t-23 -1q-10 0 -16 2h-4h-41q-3 0 -11.5 2t-11.5 2h-12q-5 -2 -14 3h-13q-3 0 -7.5 1t-6.5 1q-13 4 -22 2q-17 0 -23 4h-6q-11 0 -19 2q-2 -2 -6 -2q-12 4 -18 0q-8 3 -25.5 7 t-25.5 7q-5 0 -10 1l-10 2t-9 1l-23 12q-29 19 -34 21q-5 3 -19 8q0 4 -7.5 8.5t-8.5 8.5q-8 8 -12 10q-6 3 -23 20q-5 3 -8 8q-3 4 -9.5 13.5t-10 14.5t-7.5 13.5t-6 16.5q-3 17 -8 26q-1 2 -1 6.5t-1 6.5q-4 8 -4 10l-4 12q0 2 -1 6t-1 6v3q0 1 -2 2t-3 2q2 2 2 6 q-6 18 -6 43v39q-4 10 -4 35zM334 530q2 -4 2 -10q2 -4 2 -14v-17q3 -4 5 -9t4 -11.5t3 -9.5q1 -2 1 -8t1 -9q12 -21 15 -22q6 -6 6 -12q6 -3 6 -11q8 -7 24 -18t23 -17q2 -1 12 -3.5t18 -5t9 -3.5q1 0 19.5 -5t29.5 -5h6q2 0 6 -4q1 0 2 1t2 1q31 -5 39 -4q10 3 17 0h16 l6 4l8 16q-2 2 -2 6q-2 2 -2 11l6 14l-4 12v13q0 4 1 11t1 11q1 7 0.5 28.5t1.5 28.5q0 3 -2 3q-1 2 0.5 6t-0.5 6v10v6q5 9 0 23q2 6 2 16v19q3 9 3 14v37q0 8 -3 14v4q3 6 3 10q0 24 2 29v2l-5 6q4 6 0 23l7 8q-4 17 -27 33q-3 -1 -12.5 1.5t-12.5 -1.5q-1 0 -3 1t-3 1 h-10q-3 0 -10 -1.5t-12 -0.5q-1 0 -3.5 -1t-3.5 -1q-8 -4 -10 -4q-5 2 -13.5 -0.5t-17.5 -7t-12 -5.5q-8 0 -12 -4l-21 -14q-4 1 -7.5 -3.5t-4.5 -4.5h-4l-8 -8q-8 -4 -31 -27q-15 -19 -20 -33l-7 -6l-8 -14q0 -4 2 -4q-6 -6 -6 -11q-3 -8 -7 -25.5t-7 -27.5q0 -1 1 -3.5 t1 -4.5v-10q0 -1 -1 -4.5t-1 -4.5z" />
<glyph unicode="e" horiz-adv-x="1120" d="M94 551v20q1 1 2 5t2 6q0 57 2 86q0 4 4 12q0 4 1 13.5t1 13.5q5 5 5 8q0 7 4 21.5t4 21.5q0 4 3 11t3 11q2 5 7.5 17t6.5 18q5 11 15 27q14 22 28 43q2 1 13 18l22 29q11 24 64 65q6 8 45 31l32 16q12 3 19 3q8 3 18 6.5t14 4.5t10.5 2.5t13 2t16.5 0.5q4 2 16 2 q13 0 25.5 1t18.5 1t13 -2q2 1 6.5 1.5l9 1t5.5 1.5h41q2 -1 11 -2t11 -2h39q14 0 23 -6q6 0 19.5 -3t19.5 -3q3 -1 15.5 -8t20.5 -7q1 0 4.5 -1t4.5 -1l36 -18q6 -3 39 -25q3 -2 14.5 -14.5t18.5 -15.5l27 -29l22 -45q12 -24 13 -29l4 -8q4 -7 8.5 -18.5t8 -25t3.5 -22.5 q7 -21 4 -36q1 -2 2 -4.5t2 -4.5t1.5 -4.5t0.5 -3.5q0 -2 1.5 -10t3.5 -12q4 -5 1.5 -21.5t-1.5 -23.5q2 -6 2 -21v-27q0 -3 1 -9t1 -9q-4 -8 -4 -10q0 -7 -1.5 -22t-1.5 -21q-1 -2 -2 -5.5t-2 -6.5t-2 -3q-7 -2 -12 -2.5t-12 0t-10 0.5q-16 -6 -87 -6q-1 0 -3 -1t-3 -1 q-6 0 -8 2q-16 -4 -63 -4h-2q-5 3 -14.5 4.5t-17.5 1t-20.5 -1t-17.5 -0.5q-21 -7 -37 -2q-1 0 -3.5 1t-4.5 1h-12q-1 0 -4 -1t-5 -1q-1 0 -4.5 1t-5.5 1h-108q-55 0 -78 2q-3 0 -11 -2t-12 -2q-26 0 -30 -6q0 -1 -1 -11t-1 -11q0 -43 2 -70q1 -4 6 -15.5t6 -17.5v-4 q9 -12 20 -33q2 -2 5.5 -5t6.5 -5.5t5 -5.5q5 -2 10 -5.5t12.5 -10.5t10.5 -9q16 -5 22 -10q2 -1 5.5 -2t6.5 -1.5t7 -1t6 -1.5q6 -4 22 -8q3 -2 15.5 -3t15.5 -3q5 -1 22 -1.5t25 -2.5h8q5 1 12 2.5t9.5 1t13.5 -1.5l12 4h19l10 6q43 0 61 12q15 0 27 6q5 -1 15 2.5t14 3.5 t13 2.5t15 1.5q6 0 11.5 -17t5.5 -26q1 -2 3.5 -6t4 -8t0.5 -8q0 -4 4 -16.5t4 -16.5q6 -18 6 -22q8 -13 8 -52q-2 -4 -5.5 -6t-8.5 -4t-6 -2l-51 -24l-23 -13q-12 0 -16 -2q-5 -3 -16.5 -5t-16.5 -5q-23 0 -33 -2q-6 0 -14 -4q-10 0 -32 -1t-34 -1q-4 0 -12 -4h-24 q-6 0 -19.5 3t-19.5 3h-54l-10 6h-22q-6 2 -24.5 7.5t-32 8t-27.5 2.5q-18 12 -25 11q-4 3 -20 7.5t-19 6.5q-6 3 -26 18t-29 19q-2 4 -14 16q-1 1 -15.5 17t-19.5 24l-29 45q-19 31 -22 41l-23 56q-2 4 -2 14q-3 5 -8 17.5t-8 17.5q-1 4 -0.5 14.5t-1.5 13.5q-3 6 -3 11 q0 2 -2 12t-4 16q0 4 -1 13.5t-1 13.5v24q0 7 -4 19zM373 672l16 -23l4 -4q2 0 4 -2h11q7 3 18 -0.5t18 0.5q7 0 9 2q4 0 10.5 -0.5l13 -1t10.5 -0.5q15 0 48 -1t47 -1q48 0 71 2q5 0 16.5 1t16.5 1q8 0 16.5 1t14.5 0.5t16 -3.5q16 16 10 35v31l-6 16v14q-8 17 -12 31 q0 11 -8 27l-29 26q-21 21 -33 25q-12 0 -18 2q-2 0 -8 2.5t-8 3.5q-20 4 -35 4h-49q-8 -6 -33 -6q-22 -11 -27 -12q-6 0 -8 -2t-15.5 -11.5t-19.5 -15.5q-13 -16 -28 -25l-7 -14q-16 -16 -16 -41q-3 -4 -4 -8.5t-1 -9.5t-1 -8q-4 -20 -4 -23v-12z" />
<glyph unicode="f" horiz-adv-x="892" d="M96 737q0 2 1 6.5t1 6.5q3 11 3 14.5t-3 13.5q0 5 -1 14.5t-0.5 16.5t3.5 14q-6 17 -2 29q2 2 2 6v27l4 4h21q2 0 4.5 -1t3.5 -1q4 0 15 2t16 2q7 1 23 1t24 1h47l14 8q0 1 1 3t1 3v4v105q0 6 2.5 20t2.5 21v28l6 15v16q0 15 4 21v8q0 7 4 21.5t4 21.5q2 6 6.5 24t9.5 27 q9 27 19 41q3 4 9.5 16.5t12.5 18.5q3 9 13 16q4 6 13 18.5t13 18.5l62 62l43 22q19 14 26 14q16 11 21 11q5 1 11.5 4t8.5 4l21 6q24 6 28 6q8 4 27 4q21 8 98 8q2 0 2 -2q2 0 4 -2v-119q0 -30 -4 -38v-64q-2 -3 -8 -3.5t-8 -2.5q-6 -4 -21 -7.5t-18 -4.5l-51 -25l-27 -27 q-14 -14 -18 -24q-8 -8 -18.5 -25.5t-14.5 -23.5q-14 -19 -18 -58q0 -3 -3.5 -9.5t-3.5 -8.5v-16q0 -11 -2 -15q2 -6 -2 -18v-92q0 -13 -4 -19q4 -7 10 -11.5t7.5 -5.5t13.5 -7q20 4 31 4l6 -4q4 4 10 4q10 0 32 1t32 1q16 0 20 -4q0 -9 -2 -25.5t-2 -26.5v-30 q-6 -18 -6 -31v-22q0 -27 -4 -35v-13q0 -29 -2 -43l-6 -22q-3 -2 -5 -2q-24 0 -36 -2q-49 0 -76 -2q-3 0 -6.5 -1t-8.5 -2.5t-8 -2.5l-8 -17q-2 -25 -2 -74q0 -2 -1 -4.5t-1 -3.5q6 -14 0 -26q-2 -25 -2 -76q0 -4 -2 -20t0 -21q0 -2 1 -4.5t1 -3.5q1 -3 -0.5 -9t-1.5 -8 v-168l-4 -12v-29q0 -24 -6 -30h-68q-6 0 -8 2q-8 -4 -12 -4q-22 0 -66 -1t-65 -1q-2 0 -5.5 1t-5.5 1q-4 4 -4 6q5 10 -2 20q0 4 -1 13.5t-1 13.5v108q-2 61 -2 183l-4 127l-12 14q-5 2 -29 2h-18q-1 0 -7 1.5t-10 0.5q-6 2 -20 2h-54q-4 4 -6 4v68q0 2 1 5.5t1 4.5 q-2 4 -2 12q-1 3 0 10t0 11q0 3 -1 8.5t-1 7.5z" />
<glyph unicode="g" horiz-adv-x="1116" d="M98 520v86q3 6 4 14t1 18t1 15q0 6 3.5 17t3.5 16q0 4 4 16q0 4 1 12t1 11l8 25q1 1 3.5 5.5t4.5 6.5q0 13 8 29l19 36q3 10 8 15l31 37q18 25 28 32l21 19q9 9 28.5 22t24.5 17q7 2 21 10t22 10q1 0 3 1t3 1q18 6 19 6q3 1 11 5t13 4q4 0 11.5 3t11.5 3q2 0 5.5 1t7.5 2 t7 1q4 0 12.5 1t12.5 1h2q1 1 4.5 2t5.5 2q58 3 119 0q12 -4 18 -4l29 -6q2 -1 5.5 -2.5t6 -2t6 -1.5t5.5 0q4 0 10 -3.5t10 -3.5q13 -7 41 -17t31 -11q5 -3 11.5 -7.5t13.5 -9t12 -6.5q2 -4 9.5 -10.5t10.5 -9.5l20 -23q2 -4 9.5 -12t9.5 -14l14 -11l8 -16q12 -30 19 -41 q12 -30 12 -49q1 -2 4 -9t4 -12q2 -5 3.5 -14.5t3.5 -13.5q2 -2 2 -6q0 -6 3 -18t3 -17q0 -19 2 -29l4 -12v-17q0 -8 3 -25.5t3 -27.5v-29l6 -10v-39q4 -4 4 -8q0 -8 -2 -12l4 -8q-1 -3 -1 -7v-7t-0.5 -6.5t-1.5 -7.5t-3 -7q4 -8 4 -12v-27q0 -1 -1 -4t-1 -4t1 -4t1 -4v-46 q0 -5 -2 -16t-2 -16v-84q-3 -4 -4.5 -10.5t-3.5 -13t-4 -11.5v-23q0 -10 -3 -32.5t-3 -34.5l-6 -8v-27l-11 -31q-1 -3 -1 -10.5t-1 -11.5q-6 -24 -6 -27q0 -4 -3 -12.5t-3 -13.5q0 -1 -1 -4t-1 -5q-9 -15 -14 -30q0 -2 -1 -8.5t-1 -10.5l-13 -24q-5 -14 -16 -33 q-15 -35 -39 -62q-2 -3 -4.5 -6.5t-5.5 -7t-6 -6.5t-6.5 -7t-6.5 -7q-9 -10 -12 -13l-8.5 -8.5t-10.5 -9t-14 -8.5q-16 -13 -37 -19q-6 0 -15.5 -5.5t-14.5 -6.5q-10 0 -25.5 -5t-21.5 -11q-6 0 -17 -3.5t-16 -3.5q-24 -6 -27 -6q-4 0 -12 -1t-12 -1q-1 0 -9 -4h-92l-10 4 q-10 0 -16 2q-39 0 -50 11q-19 2 -48.5 15.5t-39.5 16.5q-4 0 -21.5 11.5t-17.5 13.5q-7 14 6.5 39.5t14.5 27.5q3 8 7.5 18.5t9.5 20.5t8 19q5 10 14 37q0 1 1 2t1 2h6q4 1 14 -4q3 -2 31 -13q8 0 21 -3.5t18 -4.5q2 0 10 -4l6 4q8 -4 15 -4h14q1 0 19 -6h38q13 0 19 4 q1 0 3.5 1t4.5 1h25q18 8 41 23q2 0 5 1t5 1l4 4l24 22q1 2 4 7t5.5 9t5.5 7q10 21 14 39l12 35v18q3 6 3 8q4 4 4 8q0 1 1 15t5 20q0 6 1 19t1 20q0 1 0.5 2t1.5 3.5t2 4.5v15q-12 16 -21 16q-9 -2 -12 -8q-4 0 -8 -4h-4l-31 -11q-4 -2 -14 -2h-35q-14 -9 -31 -2 q-2 0 -6 -1t-6 -1t-6.5 1t-7.5 1q-5 0 -13 -4q-8 4 -10 4q-20 2 -65 2q-7 0 -9 2q-11 4 -32.5 6.5t-32.5 6.5q-6 2 -24.5 8.5t-28.5 11.5q-3 0 -9 1t-10 1q-5 8 -16 15l-23 14q-4 8 -15 20t-15 19q-13 9 -15 14q-7 8 -26 47q-29 48 -29 76q0 3 -1 9.5t-1 9.5q-4 12 -4 20 q0 6 -4 14q0 5 -2 7q0 24 -2 34q-1 3 -2 7t-2 6.5t-1 5.5q0 7 -1 23t-1 24q0 2 -2 6.5t-2 7.5zM315 489l11 -20q6 -18 6 -20q12 -25 18 -31q1 0 3 -1t3 -1q4 -8 14.5 -18.5l12.5 -12.5q7 -3 15.5 -8.5t15 -9.5t14.5 -8.5t16 -6.5q3 0 6.5 -0.5t6 -0.5t6 -0.5t6.5 -0.5 q7 -4 33 -4h49q24 9 47 12q2 2 37 25q2 2 6 4.5t7.5 5.5t6.5 6.5t7 6.5t9.5 6.5t8.5 5.5l39 59q0 1 2 10.5t4 14.5q2 3 3.5 12t4.5 14v35q-6 12 -6 51l-4 11l-4 20q-2 3 -3 7.5t-1.5 9t-1.5 6.5l-11 16q-2 16 -24 47q-3 4 -8 9t-9 8.5t-9 8.5l-9 9q-30 25 -45 27 q-42 14 -53 14q-9 4 -43 4q-3 0 -9.5 -1t-9.5 -1q-30 -10 -37 -10q-7 -4 -19 -13.5t-19 -13.5q-19 -12 -31 -31l-21 -30q0 -2 -2 -2l-12 -27q-2 -3 -4 -10t-4 -10q0 -13 -12 -37q0 -23 -7 -35v-101z" />
<glyph unicode="h" horiz-adv-x="1175" d="M137 123v49q0 88 2 131q0 6 4 14v406q1 4 3 10.5t2 8.5t-1 8q-2 3 -2 20q0 2 5 12v103q0 6 -2.5 17t-2.5 18v53q0 4 1.5 9.5t1.5 9.5t-3 9l5 11q-1 4 -3 4q-6 11 0 20q0 1 1.5 3.5t1.5 4.5v58q-6 5 -2 26.5t4 26.5v164q0 4 4 12q0 95 4 107q0 4 -2 6l4 8v27q4 4 6 4h72 l12 6q49 0 72 2q18 0 30 4h56q2 0 8 -6q4 -20 2 -182q-1 -1 -2 -5t-2 -6q0 -6 -1 -21t-1 -22v-102q0 -15 -4 -21q6 -13 0 -26q0 -30 -1 -92t-1 -92q0 -3 1 -9t1 -8q0 -1 2 -5t2 -4.5t2.5 -4.5t3.5 -3.5t4 -1.5t6 1l8 4q0 4 2 4q8 6 22 19.5t19 17.5q3 1 18.5 11t26.5 11 q15 9 33 15q1 0 4 1t4 1q25 5 27 6t10.5 1.5t11.5 2.5q4 2 11 2h69q2 0 6 -1t7 -1q4 0 6 2q3 -1 10 -3.5t10 -2.5h15l24 -6q1 0 7 -3t10 -3h6q6 -3 27.5 -11t29.5 -16q4 -4 8.5 -6.5t11.5 -5t11 -4.5l26 -27l4 -4q1 -6 7.5 -14.5t7.5 -10.5q17 -41 18 -43q4 -8 4 -10l4 -8 q-2 -2 -2 -6q1 -2 4.5 -8.5t4.5 -10.5q2 -8 2 -26q12 -28 12 -41v-6q4 -6 5 -14t0.5 -17.5t0.5 -14.5q4 -4 4 -8q2 -25 2 -76l4 -8q-4 -7 -4 -15t2 -18t2 -16q2 -94 2 -280v-107q-3 -10 -8 -12h-35q-2 0 -10 4q-6 0 -20 -2t-21 -2q-20 -2 -63 -2q-8 -4 -13 -4q-15 -3 -28 2 q-7 0 -9 -2h-16q-9 0 -12 6v47l4 10q0 1 -1 4.5t-1 5.5q7 15 -2 27v14l4 9v45q-9 18 0 36q0 53 2 80q0 4 -0.5 10.5t-1 11t0.5 10t3 9.5q0 2 -1 6.5t-1 6.5q0 6 -1 19t-1 19v33q-4 16 -4 21q0 4 -1 11t-1 11q0 13 -2 21l-2 4q-1 5 -3.5 17t-5 19.5t-8.5 16.5q-18 22 -41 39 l-24 10l-21 10q-3 0 -7.5 -1.5t-6.5 -0.5q-4 2 -12 2h-21q-36 0 -45 -4q-29 0 -53 -16l-19 -12q-8 -8 -14 -8l-33 -27l-8 -10l-18 -27q-31 -54 -31 -88q0 -4 -4 -12q2 -4 2 -9q0 -1 -1 -3.5t-1 -4.5v-16q-2 -27 -2 -76q0 -2 -1 -4.5t-1 -3.5q0 -2 1 -6t1 -6t-1.5 -7.5 t-0.5 -7.5q0 -2 1 -6t1 -6q0 -6 -2 -19t-2 -22v-164q0 -3 -1 -6t-2 -4.5t-3 -3t-3.5 -2.5t-4.5 -2t-5 -2h-133q-1 -1 -4.5 -2t-5.5 -2q-4 0 -8 2q-1 0 -3.5 -1t-4.5 -1q-17 -4 -25 4l-14 -4q-19 8 -19 10z" />
<glyph unicode="i" horiz-adv-x="663" d="M115 1270v39q0 26 10 53q0 10 6 21.5t16 24.5t13 17q6 3 23 18.5t30 18.5q11 0 31.5 -3t29.5 -3t26.5 -7.5t23.5 -8.5q7 0 14 -10t12.5 -24t7.5 -17l4 -17q0 -9 3 -18l6 -23q0 -2 -2 -4q2 -8 2 -24l-6 -11v-12q-1 -3 -4 -9.5t-3 -10.5q-28 -56 -61 -64l-16 -8h-58 q-8 4 -12 4h-8l-17 8q-20 0 -49 29l-4 8q-15 19 -18 33zM119 565q0 1 1 3.5t1 4.5q-2 3 -2 5l4 10q0 1 -1 3t-1 3v164q0 2 1 6.5t1 7.5q0 1 -1 3t-1 3q2 8 2 21q0 5 1 15t1 15q1 1 1 5t1 6q0 2 -1 7.5t-1 8.5q2 4 2 16v68q0 4 1 11.5t1 11.5v28q3 7 9.5 9t16 3t15.5 3 q15 -5 16 -5h4q7 -5 19 3q1 0 4 -1.5t5 -2t5 -0.5t6 1q8 -4 29 0q13 0 25 3q4 0 12 -1.5t12 -1.5q22 0 27 5h24q0 -15 -2 -19v-12q-2 -5 -2 -16t-2 -15v-90q0 -2 -1 -6.5t-1 -7.5v-45q-4 -8 -4 -25q0 -10 -2 -14q2 0 1 -13.5l-1 -13.5q0 -10 2 -14q0 -2 -1 -6.5t-1 -6.5v-28 q0 -9 -2 -15v-10q-1 -4 -1 -13t-1 -13q0 -18 -2 -21v-37q0 -4 2 -12t0 -14v-2q0 -6 2 -18.5t2 -18.5v-6q2 -4 2 -13q1 -1 1.5 -5.5t2.5 -6.5v-6q0 -1 6 -31q2 -5 21 -43l5.5 -5.5l6.5 -6.5t7 -6t7 -4q1 0 3 -1.5t2 -3.5q8 -8 18.5 -12.5t28.5 -9t24 -6.5q0 -1 1 -3.5t1 -4.5 l4 -17q0 -6 2 -17.5t2 -17.5q0 -1 -1 -4.5t-1 -5.5q3 -15 0 -33q-4 -4 0 -8q2 -4 2 -7.5t-1 -7t-1 -5.5q0 -15 2 -21q-1 -4 -2 -9t-1 -9.5v-9.5t-1 -9q0 -6 -1 -16.5t-1 -15.5q0 -1 -1 -3.5t-1 -3.5l-12 -4q-4 0 -12 -4q-2 2 -6 2q-9 0 -15 -2h-10q-2 -1 -6 -1t-10 0.5 t-9 0.5h-36q-3 0 -9.5 2t-9.5 2h-18q-22 5 -23 4q-6 0 -24 9q-2 0 -5.5 1t-5.5 1l-20 10q-6 6 -20.5 13.5t-20.5 13.5h-6q0 1 -1 2t-1 2l-17 20q-2 4 -6.5 11t-7.5 13.5t-4 12.5l-8 23q-8 20 -8 28v4l-4.5 18t-6.5 21q0 3 -6 33l-4 31q0 8 -1 23.5t-1 23.5v31q0 4 -2.5 20 t0.5 21q-4 16 -4 26v37q0 2 -1 5t-1 5z" />
<glyph unicode="j" horiz-adv-x="671" d="M47 -139q0 6 2 8q3 11 10 22q9 10 25 39l18 37l15 23q2 4 2 14q3 4 5 13.5t5 13.5l6 12l4 14l8 23q0 5 4.5 13t4.5 13q0 1 6 23q4 8 4 10q0 9 10 39q0 2 1 5t1 5q0 17 8 41q0 2 1 6.5t1 6.5l5 14q0 2 4 14q0 42 12 72v31q4 4 4 10q2 7 1.5 24t2.5 23q3 7 4 22.5t4 22.5 q2 18 2 53l6 13v26q0 7 3 13q4 8 4 24.5v20.5v67q1 1 2 4.5t2 5.5v21q0 1 -2 7.5t-1.5 7t1.5 7.5q0 25 -2 33q9 18 2 33q7 11 -2 33q4 8 4 10v102q0 4 1 13.5t1 13.5t4 4h47q18 0 33 6l12 -4h25q1 1 4.5 2t5.5 2h98q13 -6 10 -12q0 -3 -1 -8t-1 -8q0 -1 1 -5t1 -6 q0 -37 2 -55q0 -13 -1 -39t-1 -39v-14q0 -2 -4 -10q1 -1 1 -2.5t1 -1.5q5 -12 -2 -29v-74q0 -78 -2 -119q0 -21 -4 -28v-31q0 -4 -4 -16l4 -13l-6 -14v-14q0 -7 -4 -19q0 -3 -1 -11.5t-1 -12.5q-1 -5 -1.5 -21t-2.5 -24q-2 -4 -2 -17q0 -10 -3 -31.5t-3 -33.5q-7 -11 -7 -19 q0 -7 -3 -21.5t-3 -23.5l-10 -22q-1 -2 -1.5 -10t-2.5 -11q-2 -2 -2 -6l-4 -27q-1 -1 -6 -22q-2 -3 -4 -13t-5 -14v-4q-1 -2 -3 -21t-7 -26q-4 -6 -6 -22t-6 -21q-3 -4 -4 -13.5t-4 -13.5q0 -19 -21 -61q-4 -6 -8 -18t-4 -13q-2 -2 -12 -28q-12 -25 -54 -105l-12 -22 l-18 -21q-6 -5 -13 -12t-15 -15.5t-13 -13.5l-10 -6q-15 12 -25 29l-25 35q-12 12 -28 40q-33 50 -35 54q-5 5 -25 35zM215 1327v27q0 7 3 24.5t3 26.5q5 10 35 55q34 34 61 41q1 0 12 1t17 5q5 -3 17.5 -4t19.5 -4q21 -3 55 -37q1 -9 9 -25l10 -20q1 -8 1 -17.5t-0.5 -21 t-0.5 -18.5q0 -6 -3.5 -15.5t-4.5 -13.5q-2 -2 -8 -12.5t-11 -15.5q-12 -12 -14 -15q-1 -2 -3 -3.5t-4 -2.5l-4 -2l-4 -2l-4 -2q-14 -9 -43 -21h-47q-52 21 -69 31q-4 5 -8 12t-8 15.5t-7 13.5z" />
<glyph unicode="k" horiz-adv-x="1089" d="M133 975q0 4 1 10.5t1 9.5q-4 10 -2 19v6q4 12 4 31v53q0 2 1 6t1 6q0 9 2 10q-3 9 -3 26.5t-1 21.5q0 2 1 6.5t1 7.5v8q0 2 1 5t1 5v23q0 14 2 22q-2 4 -2 17q0 22 2 26v9q-2 5 -2 15t-2 15q-3 1 -0.5 16.5t2.5 18.5q0 12 2 18v7q-3 26 0 45v10q2 4 2 16v4q0 7 2 11v12 q1 0 3.5 1t3.5 1q9 4 31 4h26q7 -3 22.5 -3t18.5 -1q2 0 7.5 1t8.5 1q2 0 9 -1t10 -1h43q12 4 14 4h12l2 2q2 -2 7.5 -1.5t7.5 -0.5q10 0 14 2q3 -1 12.5 -2t14.5 -6v-6q0 -23 2 -33v-14q2 -4 2 -13q-4 -12 -4 -34q0 -3 -2 -5q6 -6 2 -14v-26q-4 -7 0 -11v-16q0 -8 -2 -12 q3 -6 0 -13q0 -1 1 -4.5t1 -5.5q0 -1 -1 -2.5t-1 -3.5t2 -4v-4q-4 -16 0 -49q0 -2 -0.5 -8t-0.5 -11t1 -8v-16q0 -7 -2 -11q0 -1 1 -3t1 -3q0 -3 -1 -8t-1 -8v-8q4 -16 0 -35v-68q0 -5 -1 -12.5t-1 -11.5q1 -2 0.5 -6.5t1.5 -6.5q-4 -8 -4 -22.5v-18.5q0 -19 -2 -22 q0 -26 2 -31q-2 -4 -2 -14q0 -12 -3 -21l3 -4q0 -21 -3 -39v-4q3 -3 3 -8v-10v-8q-4 -12 0 -35q-4 -17 -3 -23v-24q0 -8 13.5 -14.5t23.5 -6.5l9 10q2 1 12 11q8 6 18 20l23 21q1 1 4 3t4.5 4t1.5 5l16 14q9 7 24.5 22t20.5 19q3 3 12.5 13t12.5 16l20 18l15 15q2 2 5.5 6.5 t7 8t7.5 5.5l4 3t5 5q4 8 10 11v6q8 4 10 10q5 7 16.5 19t14.5 16q5 4 16 16.5t19 16.5h8q3 -5 10.5 -9.5t16 -9.5t12.5 -8q8 -11 22 -18l14 -15l9 -4q4 -7 16.5 -17.5t13.5 -11.5q6 -6 31 -26l6 -15q0 -2 -2 -4q-4 -4 -8 -9t-6.5 -9.5t-6.5 -10.5t-7 -10q-13 -13 -21 -26 q-9 -9 -10 -12q-5 -2 -10 -11q-3 -2 -6.5 -5.5t-6 -7.5t-5 -7.5t-6 -6t-7.5 -3.5q0 -1 -1 -2.5t-1 -2.5q-8 -8 -10 -12l-33 -35q-1 -2 -5 -4.5t-5 -5.5l-9 -12l-24 -23q0 -1 -3 -2l-3 -2q-6 -11 -19 -18q-4 -7 -13.5 -17t-10.5 -12l-4 -8l-2 -2q-4 -2 -11 -2q-3 -5 -8 -19 q4 -8 4 -12q13 -8 25 -24l20 -29q5 -2 8 -12q3 -1 5 -3.5t4.5 -7t3.5 -6.5q0 -2 3.5 -5t4.5 -5q5 -11 14 -27q2 -6 6 -11.5t9 -12t8 -10.5q0 -1 4 -5q1 -5 14 -18q10 -20 39 -55l19 -25q2 -2 2 -4l8 -6q4 -21 22 -39q2 -2 2 -8l15 -15q1 0 3 -3.5t5 -4.5q10 -14 16 -28v-2 l-8 -5l-8 -8q-4 -1 -7 -3t-6.5 -5t-5.5 -4q-1 0 -4.5 -1t-5 -1.5t-4 -1.5t-4 -3t-2.5 -5q-3 -1 -18 -11q-4 -2 -103 -57h-2q-6 4 -10 14q-12 8 -12 11q-1 4 -6.5 11t-6.5 11q-7 8 -14 23q-1 1 -2.5 2t-2.5 2t-1 2q-2 2 -2 6q-6 6 -11 13t-11 17l-9 15q-11 15 -16 27l-13 16 l-22 33l-15 28q0 1 -3.5 6t-4.5 9l-16 18q-10 15 -12 19q-19 23 -25 37q-7 4 -14 18q-15 15 -35 51q-2 0 -5.5 1t-4.5 1q-4 2 -13 2q-3 -5 -8 -8q-4 0 -6 2q0 -2 -1 -5.5t-1 -4.5q0 -2 -1 -4.5t-1 -3.5q0 -2 2 -4q-4 -8 -4 -11q-2 -4 -0.5 -11t0.5 -9q5 -14 0 -21 q4 -12 4 -16t-2 -6q2 -4 2 -12v-21q2 -4 2 -10q-2 -5 -1.5 -19.5t-2.5 -19.5q4 -12 0 -18v-11q0 -1 1 -3.5t1 -4.5q-2 -2 -2 -8t2 -10q-4 -22 0 -35q0 -1 -1 -3t-1 -3v-11q0 -14 -2 -22q-3 -3 0 -6q2 -6 2 -19v-32q-4 -2 -11 -2.5t-10 -2.5q-9 3 -16 3q-4 2 -22 2q-2 0 -5 1 t-4 1q-12 0 -18 2q-4 0 -6 -2q-9 3 -19.5 3t-24 -1.5t-20.5 -1.5q-18 0 -26 -2q-43 0 -47 -2q-1 0 -7 1.5t-8 0.5q-4 -2 -14 -2q-2 0 -6.5 -1.5t-7.5 -1.5l-9 11v127q-2 6 -2 39v16v16q0 5 -2 12.5t-2 10.5v29q0 2 1 5t1 5q-2 6 -2 18v56v8q0 4 -2 6q2 2 2 10v41v16 q0 1 -1 3.5t-1 3.5q2 5 2.5 15t1.5 13q0 2 -1 8t-1 9q3 9 0 22v12q1 2 1 7.5t1 7.5v22q-2 5 0 17t0 16q0 7 -1 20.5t-1 20.5v19q6 6 -2 30q0 1 1 3.5t1 4.5q0 5 -2 7q0 2 2 4q-4 29 0 43q0 1 -1.5 5.5t-0.5 6.5q0 1 1 3t1 3t-1.5 5.5t-0.5 6.5q2 2 2 4q-2 6 -2 19v70 q0 10 -2 12z" />
<glyph unicode="l" horiz-adv-x="747" d="M115 805q2 6 2 20v78q-1 2 -0.5 4.5l1 5l1 5t0.5 4.5q0 3 -1 9t-1 9v8q6 14 0 29q2 6 2 16v31q0 17 2 20q-8 8 0 31q-2 2 -2 6v4v13q0 1 1 4.5t1 5.5q-1 1 -1 4.5t-1 5.5q2 8 2 27q0 5 -1 15.5t-1 15.5q0 1 1 3.5t1 4.5v18q0 1 1 4t1 4v33q0 6 1 19.5t1 21.5q0 17 2 21 v10q0 20 2 24q-1 3 -1 6t0.5 7t0.5 6v20q4 12 2 21q0 1 1.5 5t0.5 7q0 2 1 6t1 6q0 11 2 15v32l4 13q1 0 3 1t3 1q11 -4 19 2q0 -3 21.5 -1.5t23.5 1.5h29q8 0 22.5 3t22.5 3q16 2 55 2h22q1 0 3.5 1t3.5 1q2 -1 6.5 -1.5t8 -2t3.5 -4.5l-2 -4q0 -17 -4 -23q2 -20 2 -59 q0 -4 2 -6l-4 -6q0 -6 -1 -18.5t-1 -18.5q1 -3 0.5 -5t-1.5 -5.5t-1 -4.5q0 -10 -2 -16v-16q2 -6 2 -39q-2 -8 -2 -23l-2 -2q2 -3 1.5 -8t0.5 -8q0 -9 -2 -15q0 -1 0.5 -3t0.5 -3.5t0.5 -3.5t0.5 -4q-2 -6 -2 -37v-8q0 -1 -1 -3t-1 -3q0 -7 1 -21.5t1 -21.5q0 -2 -1 -9.5 t-1 -11.5q0 -10 -2 -14q4 -12 0 -20q4 -13 0 -21q0 -21 2 -31v-4q-2 -10 -2 -28q0 -16 -2 -19v-14q0 -19 -2 -27q0 -1 1 -4t1 -4q0 -9 -1 -26.5t-1 -26.5q0 -3 1 -8t1 -7q-2 -6 -2 -16v-16q0 -13 1 -37t1 -37v-21q0 -5 2 -13.5t2 -12.5q0 -1 1 -7t1 -7q-2 -3 -0.5 -14 t0.5 -15q0 -4 4 -12q0 -11 2 -15v-6q0 -16 2 -22q0 -11 2 -17l-2 -2q2 -14 10 -37q5 -24 17 -45q1 -1 1.5 -4t2.5 -4q0 -1 1 -4t1 -4q0 -11 14 -25q1 -2 16 -22v-2q2 -2 7 -2l6 -13q15 -7 35 -18q3 0 8.5 -3.5t7.5 -4.5l20 -9h15l16 -8q0 -1 1 -3t1 -3v-76q0 -2 -2 -4 q2 -6 2 -14t1 -23.5t1 -23.5q0 -1 -1 -3.5t-1 -4.5q-3 -9 2 -17q-6 -9 0 -18v-2q-2 -2 -2.5 -8.5t-1.5 -8.5q0 -4 -2 -6q1 -5 -1.5 -18t-0.5 -21q-2 0 -6 1t-6 1q-1 0 -5 -1t-6 -1q-42 0 -45 2h-2q-4 0 -18 1.5t-21 0.5h-12l-6 5q-14 0 -16 2h-4q-22 3 -39 10h-7 q-10 2 -26 10q-5 3 -18.5 7t-18.5 7l-6 -2q-7 7 -23.5 15.5t-23.5 15.5l-23 19q-9 6 -17 16.5t-15.5 24t-12.5 20.5q-8 15 -10 25q-5 7 -8 20l-6 20l-4 21q0 2 -1.5 6.5t-1.5 7.5l-4 6q0 11 -2 17l2 2l-8 35v12q-1 2 -1 6t-1 6q0 3 -1 11t-1 12v22q-1 2 -1.5 8.5t-2.5 8.5 v43q0 5 -2 16t-2 16v13q0 13 -2 34t-2 33v19q0 5 1.5 13t1.5 14.5t-3 13.5v61q0 1 -1.5 7t-0.5 8q2 3 -2 14z" />
<glyph unicode="m" horiz-adv-x="1556" d="M135 160q0 25 2 35v4q0 26 2 34v31q0 4 2 6q-3 6 -1.5 17t-0.5 18q2 6 2 25q0 4 -0.5 10t-1.5 10.5t-0.5 9.5t2.5 9q-2 4 -2 8q2 17 0 37q0 3 -1 9.5t-1 10.5q3 6 0 12v13q2 4 2 16v49q-3 21 0 41q0 16 2 19v8v59v19v16q0 3 1 7.5t1 6.5q-4 25 0 39q-1 3 0 11t0 12v41 q0 12 4 18q-2 3 -2 17v49q-2 2 0 2q2 6 2 33q0 5 2 15t2 17t-4 11q6 11 0 20q2 7 3 21.5t2 17.5q3 3 10 0l22 8q2 -2 6 -2q3 0 5 2q4 -2 22 -2q20 -7 35 -2q8 4 14 -2l6 6h33l21 6h12q25 -5 29 -8q2 -2 6 -2h4q4 -4 4 -14t2 -13q0 -1 -1.5 -4t-1.5 -4t0.5 -3.5t2.5 -4.5 q-6 -15 0 -27q0 -4 -4 -8v-12l6 -10q2 0 5.5 -1t4.5 -1h17q8 5 8 14l16 16l13 17q8 6 14 14q10 10 24 17l23 12q4 4 8 4q6 0 6 2q2 3 5 4t7.5 1t6.5 1q24 9 49 6q18 0 22 -2q1 0 4 1t5 1q14 -7 28 -4q13 -7 37 -10q8 0 10 -4q2 -1 9 -4t10 -6q2 0 12 -4t16 -3q3 -3 6.5 -5.5 t8 -5t6.5 -3.5q6 -10 16 -16q4 -4 7.5 -9t7 -11t6.5 -9q0 -6 8 -14q6 -36 18 -54q1 0 4 -1t5 -1t4.5 0.5t5.5 1t6 0.5l10 11v8q2 2 11.5 15.5t15.5 19.5q2 0 6 4q6 9 20 23.5t17 17.5q4 4 10 4q3 6 12 12t15 6q19 11 33 13l6 4q3 1 9.5 2t11 1.5t9.5 2.5t9 4h22q9 3 19 3.5 t24.5 -0.5t20.5 -1q8 -2 26 -2q5 -5 8 0l13 -6q7 0 10 1t10.5 -1.5t10.5 -3t10.5 -4t10 -4.5t9 -4.5t8.5 -4.5q4 -4 10.5 -9t14 -10t12.5 -9q11 -4 19 -9l8 -12q16 -13 26 -37q0 -4 2 -4q6 -11 19 -45q4 -6 8 -22l6 -25l4 -14q0 -15 -2 -17l2 -4q0 -3 1.5 -9t1.5 -10.5 t-3 -8.5l2 -5q-1 -2 0.5 -6.5t1.5 -5.5v-10v-96q0 -1 1 -4.5t1 -4.5v-4q-4 -8 -2 -12v-31q-4 -12 -4 -34q0 -1 -1 -4t-1 -5q4 -12 0 -20l4 -23q0 -2 -1 -6.5t-1 -7.5v-27q0 -5 -1.5 -13t-1.5 -14.5t3 -13.5q-2 -4 -2 -10t2 -8q-2 -4 -2 -14v-41q-4 -8 -4 -25q2 -2 2 -12v-12 v-13q0 -2 1 -7t1 -7q-4 -16 -4 -25v-47q0 -2 1 -6t1 -6l-8 -12q-5 0 -14 -1t-15 -1h-22q-4 0 -14.5 1t-16.5 1q-1 0 -3 -1t-3 -1h-2q-6 2 -16 2q-2 0 -7 1t-8 1q-6 0 -10 2q-4 0 -10.5 -2t-9.5 -2q-14 -5 -19 -2l-8 -4q-11 2 -16 3.5t-12 7.5t-7 15q0 6 2 17.5t2 17.5l4 20 q-2 8 0 19q-3 7 -3 23.5t-1 19.5q-2 7 -2 43v45q0 2 -1 4.5t-1 3.5v2q2 5 2 33v6q-2 6 -2 35q-2 10 -2 33q0 18 -2 22v19q0 5 -1 14t-1 14q-1 2 -1.5 8.5t-2.5 8.5q0 1 1 3t1 3q-2 3 -4 10.5t-4 11.5q0 5 -1.5 10t-3.5 9.5t-6.5 11t-7 10t-8.5 9.5l-8 8l-8 8l-6 6l-37 10 q-2 2 -6 2t-11 1t-10 1q-14 5 -31 -4l-18 -4l-19 -8q-18 -6 -30 -18q0 -1 -4 -5q-1 -2 -9 -12.5t-10 -17.5q-3 -5 -7 -16.5t-7 -16.5v-18q0 -15 -6 -27v-23q-2 -4 -2 -26q-1 -3 -1.5 -10.5t-2.5 -12.5v-49q-2 -6 -2 -18v-52q0 -3 -1.5 -8t-1.5 -8q4 -7 0 -14v-17q1 -2 3 -2 l-5 -8q4 -13 0 -20q0 -23 2 -33v-25q-2 -8 -2 -22l5 -6l-7 -15q0 -23 -2 -35h-4q-9 3 -20 3h-15q-2 0 -5.5 1t-6.5 1l-22 -5q-4 0 -7 3q-1 0 -3 -1.5t-3 -1.5h-57q-21 0 -25 -4q-2 2 -6 2q-6 0 -14 -4q-2 0 -7 1t-7 1t-7.5 -1t-7.5 -1q-1 0 -2 1t-2 1q0 2 -2 2v35 q-1 2 -0.5 6t-1.5 4v25q0 2 1 4t1 4q-2 3 -1.5 11.5t-0.5 13.5v18q0 18 -6 33v2q4 4 4 12v9l-4 6q0 2 4 10q-4 6 -4 24v39q2 5 2 29v10q0 1 -1 5t-1 6v55q0 11 -4 35v2q0 31 -4 45q0 6 -6 18q7 14 -7.5 39t-27.5 35q-23 16 -41 20q-2 -1 -25 5q-13 0 -18 -3q-3 3 -6 3h-4 q-10 -5 -17 -5l-10 -4l-4 -2q-28 -7 -41 -20q-4 -2 -7 -4.5t-5.5 -5t-5 -6.5t-4 -6t-3 -6.5t-2.5 -7t-3 -8t-3 -7.5v-19q0 -2 -1 -4t-2 -4.5t-1 -5.5t-3 -11t-3 -12v-26l-4 -6q3 -13 0 -25q2 -8 0 -18q0 -5 2 -7q-2 -2 -2 -6v-182q2 -4 2 -12v-82q0 -2 -1 -5.5t-1 -4.5 q2 -7 2 -46l-8 -4h-41q-10 0 -30 -1t-30 -1h-26q-3 -1 -8 0t-7 0q-1 0 -4 1t-4 1q-3 -2 -18 -2q-4 -2 -13 -2q-6 3 -14 -2q-2 2 -6 2t-12 -4q-2 2 -4 2t-5 -1t-4 -1q-8 11 -8 25z" />
<glyph unicode="n" horiz-adv-x="1167" d="M135 147q0 13 4 17v5.5t-1.5 5t-2.5 5.5v137q4 8 4 13q2 49 2 145l4 12v43q-7 18 0 27l-4 10v17q0 3 1 9t1 9q0 4 -2 6q1 1 2 6t2 7v30q0 1 -4 13q1 3 0.5 14.5t1.5 17.5q2 2 -2 11v254q4 8 14 10t22 1.5t26 0.5q1 0 2 0.5t3.5 1.5t4.5 2h27q3 1 18 1.5t18 2.5q4 2 21 2 h20l13 6q2 -2 8 -2q8 2 47 2l10 -6v-4l2 -2v-109q1 -4 4 -6.5t5.5 -3.5t6 0t6 2t6.5 2.5t5 1.5q2 4 6.5 12.5t7.5 12.5q1 1 4.5 6t4.5 8q15 27 30 33l23 20q3 2 10 5.5t12 6.5t9 7l8 4l26 8l27 4q7 4 37 4q5 0 16 3t17 3q46 3 92 0q8 -4 12 -4q15 -2 43 -14q2 0 7.5 -3 t8.5 -3q1 0 3.5 -1t3.5 -1q8 -7 16.5 -11.5t22 -11t18.5 -8.5l25 -26l16 -31l16 -27q0 -28 13 -45q1 -4 1 -11.5t1 -13.5t4 -10v-10q0 -5 1 -15t1 -14l4 -10q0 -23 2 -37q0 -1 1 -4.5t1 -5.5q2 -9 -2 -22l4 -11q0 -153 2 -229q0 -6 4 -10q-4 -8 -4 -15q-2 -6 -2 -18 q1 0 1 -65l-1 -64v-27q0 -4 -4 -16l4 -8l-4 -13q0 -6 -1 -18t-1 -18q0 -3 -1 -5t-3 -3t-4.5 -2t-6 -1.5t-6.5 -1t-7.5 -0.5h-7h-7h-6.5h-39q-13 -4 -41 -4.5t-43 -5.5q-1 1 -3 2q-3 1 -3 2h-21q-16 -5 -37 2q-4 4 -4 8v31q0 2 4 14q0 9 -6 33q0 1 2.5 9.5t-0.5 9.5q0 3 -1 9 t-1 9v98l6 13q0 21 -4 26q2 3 2 6t-1 7t-1 6v34q0 2 1 5t1 4t-1 3t-1 3q8 10 0 26q0 15 -1 42t-1 42q-6 20 -6 39q-3 6 -5.5 14.5t-5.5 16t-7 12.5q-27 31 -54 45q-22 9 -39 13h-63q-6 0 -14 -4l-19 -5q-2 -1 -31 -14t-42 -22q-13 -5 -27 -29l-10 -10q-4 -6 -7.5 -18 t-5.5 -17q0 -6 -1 -19t-1 -20q0 -19 2 -29q6 -11 2 -26q-8 -19 0 -29q-4 -12 -4 -14v-99q1 -2 2 -5.5t2 -4.5q3 -62 0 -123q0 -2 -1 -5t-1 -5q0 -4 2 -6q-2 -4 -2 -25q0 -1 1 -4t1 -4q0 -4 -4 -12q7 -13 4 -27q0 -4 -8.5 -7t-22.5 -3.5t-26 -0.5t-26.5 0.5t-16.5 0.5 q-2 -1 -9 -2t-9 -2q-4 0 -18.5 2.5t-18.5 1.5q-8 -4 -21 -4q-37 -3 -69 2q-1 0 -3 -1t-3 -1q-9 0 -9 4q-1 3 -1 7.5t-1 8t-4 6.5z" />
<glyph unicode="o" horiz-adv-x="1212" d="M94 418v141q4 8 4 10q0 19 2 27q0 4 3 14.5t1 16.5q0 5 9 32l12 50q6 18 8 22q1 3 17 35q5 7 10 16t11 22.5t9 18.5l15 15q7 6 15 16t14 19t14 18.5t16 15.5q8 4 12 8q18 20 64 48q3 2 16 9t19 13q8 5 19 8.5t22.5 7t19.5 7.5q4 4 8 4q6 -1 15 2.5t12 3.5q8 -1 21.5 2.5 t19.5 3.5q6 4 20 4q14 2 43 2q12 4 13 4l10 -4q2 0 5.5 1t4.5 1q4 0 6 -2l10 4q6 -6 28 -6t32 -4h16q3 0 10.5 -1t10.5 -1q5 -3 16 -4t16 -4l25 -8q2 -1 8.5 -5t11.5 -4q3 0 7.5 -2t9 -5.5t6.5 -4.5q28 -12 55 -37q15 -8 47 -33q3 -2 8.5 -6.5t7 -5.5t5.5 -4.5t5 -4.5 t4.5 -4t5 -5t5 -5.5t6.5 -7t7 -8.5q2 -4 10.5 -16.5t13 -21t6.5 -17.5q9 -23 9 -29q0 -3 3 -8t3 -8l4 -21q2 -3 3 -9t3 -9q10 -29 8 -39q0 -8 2 -10q3 -4 4 -10t1 -13.5t1 -11.5q0 -1 1 -4t1 -4q-2 -19 0 -29q0 -2 -1 -4.5t-1 -3.5q0 -14 -1 -39t-1 -37q0 -4 -2 -12.5 t-2 -11.5q-4 -16 -12 -56q-2 -4 -2 -12t-2 -12q-12 -47 -19 -54q-2 -2 -8 -20q-3 -3 -5 -9.5t-3.5 -13t-3.5 -8.5q-3 -3 -7 -10t-7 -10q-8 -12 -15 -19q-1 -2 -10.5 -19.5t-15.5 -23.5l-17 -22q-5 -6 -16.5 -16t-14.5 -13q-5 -4 -15 -9t-15 -9q-3 -2 -9 -6.5t-11.5 -7.5 t-10.5 -5l-9 -6t-8 -5.5t-6.5 -4t-7 -4t-7.5 -3.5t-10 -3.5t-11 -3.5l-13 -7q-6 0 -10 -2t-7 -4.5t-7 -3.5q-15 0 -23 -4q-10 0 -14 -4q-3 -3 -13 -2t-14 -2q-4 2 -12.5 -0.5t-13.5 -1.5h-23q-16 -4 -18 -4q-12 -2 -39 -2q-29 0 -43 2q-2 0 -7 2t-8 2l-36 8q-3 2 -10 2.5 t-9 1.5q-2 0 -7.5 2t-8.5 2q-27 9 -35 13l-27 12q-16 4 -24 8l-37 16q-2 1 -33 17l-12 12l-25 12q-8 8 -21.5 25t-21.5 25q-1 2 -10 16q-3 3 -39 51q-6 10 -20 51q0 3 -3.5 9.5t-3.5 9.5q0 2 -6 20q-1 2 -1 6.5t-1 6.5q0 4 -4 12zM342 526q1 -1 2 -4.5t2 -5.5q1 -4 1.5 -16 t2.5 -19q6 -6 12 -18q1 -4 4.5 -9t7 -10.5t5.5 -9.5q8 -6 14 -14l43 -23q1 -2 5 -2.5t5 -1.5q16 -9 60 -22l8 4q9 -4 25.5 -4.5t23.5 -3.5l8 4h25q2 4 10 2.5t12 -0.5q2 -2 13 1t16 5q9 0 15 6q7 6 24 15t21 12q27 27 32 34q1 8 7.5 20.5t7.5 16.5q1 5 10 27q0 4 1 12.5 t1 12.5l4 10v71l-10 31l-17 29q-1 1 -6.5 8t-7.5 12q-14 19 -24 25q-13 8 -15 12l-20 19q-15 12 -47 28q-2 0 -14 3.5t-19 2.5q-1 0 -3 0.5t-3.5 1t-3 1.5t-3 1.5t-3.5 1.5t-3 1q-24 0 -36 2q-10 -7 -19 -7q-3 -1 -11.5 -3t-15.5 -4t-12 -5l-20 -10q-26 -26 -35 -31 q-5 0 -14 -18q-18 -21 -29 -43l-12 -17q0 -2 -1 -6t-1 -6q-1 -2 -4.5 -6t-5.5 -7t-3 -7q0 -4 -3 -11.5t-3 -11.5q3 -5 0 -10q-8 -18 -4 -47v-19z" />
<glyph unicode="p" horiz-adv-x="1089" d="M135 -319q0 3 2 11.5t2.5 13t-2.5 9.5q-3 4 -0.5 21t2.5 22q0 14 1 42.5t1 43.5q0 3 4 11q0 24 -1 70.5t-1 68.5q0 2 -1 5t-1 5q0 1 1 4t1 4v146q2 1 1 39t-1 39v55l4 12v205q0 4 -4 16q0 1 1 4t1 4q0 91 2 132q0 4 2.5 9t2.5 7l-5 10q-2 45 -2 139q0 1 1 4t1 5 q0 1 -1 4.5t-1 5.5v35q0 1 0.5 3t1 3.5t1.5 3.5l2 4q0 67 2 102q0 5 4 5q21 5 22 6q3 0 9 -1t10 -1q8 4 20 4h92q18 1 51.5 1t49.5 1q10 0 16 2q1 0 3.5 -1t4.5 -1t10 4q8 -4 15 -4h18q14 -2 43 -2q7 -4 33 -4q12 -4 14 -4q4 0 8 2q2 -2 11 -2q15 -3 30 -3q35 -12 37 -12 q3 0 8.5 -2t8.5 -2q5 -2 13 -5t15 -5.5t13 -3.5q6 -3 25 -15t30 -16q5 -6 18 -15t15 -10l30 -32q4 -6 12 -20.5t13 -20.5l4 -8v-7q9 -21 35 -73q7 -22 14 -33q0 -21 2 -31q0 -4 4 -12q0 -27 2 -43l5 -10v-33l-5 -8l3 -4q0 -3 -1.5 -8.5t-1.5 -8.5v-14q0 -1 -1 -14t-5 -19 v-24q0 -6 -3 -18.5t-3 -18.5q-6 -14 -16.5 -48t-18.5 -49v-12q-1 -4 -7 -16t-7 -19l-16 -20q0 -3 -3 -6.5t-6 -7.5t-4 -7q-28 -33 -43 -41q-16 -16 -28 -22q-3 -1 -11 -8.5t-14 -8.5q-2 -5 -10 -9.5t-10 -6.5q-3 -2 -11.5 -7.5t-11.5 -8.5q-16 -8 -27 -8q-2 0 -6.5 -3 t-7.5 -4h-24q-8 -4 -11 -4q-25 -2 -73 -2q-28 -6 -31 -6h-39q-15 0 -39 -6q-8 4 -14 4h-2q-5 -4 -13 -13t-12 -12l-6 -22q0 -2 2.5 -7.5t1.5 -8.5q0 -3 -4 -15q0 -1 1 -4t1 -4q0 -2 -1 -6t-1 -6v-51q0 -1 -6 -19v-24q4 -8 4 -13v-20q0 -1 -1 -3t-1 -3q-2 -5 1 -17t3 -16v-12 q-4 -12 -4 -13v-139l-8 -20q-1 -1 -2 -3q0 -1 -0.5 -1.5t-1.5 -0.5q-15 0 -21 -2q-2 0 -6 -1t-6 -1q-17 9 -25 -2h-33q-3 0 -9 2t-9 2q-6 0 -18 -4h-21q-12 0 -18 2h-15q-5 -3 -9.5 -3.5t-12 0.5t-10.5 1q-16 8 -17 11zM383 403l10 -24q4 0 11.5 -1t11.5 -1q2 1 9 -1.5 t11 1.5l8 -4h19q8 4 10 4q8 2 25 2q5 2 21 8.5t22.5 9.5t17 9.5t19.5 13.5q16 21 40 74q0 6 3.5 18.5t3.5 17.5q0 8 2 25t2 25l-4 12q0 29 -2 41l-19 47q-13 13 -33 41q-27 20 -53 29q-9 0 -20 6.5t-13 7.5q-2 0 -6 0.5t-7.5 1t-6.5 0.5q-41 0 -59 -2q-10 -3 -13 -10v-76 v-66q0 -4 -1 -11t-1 -11q0 -2 4 -10l-6 -15v-24q-6 -12 -6 -29v-109z" />
<glyph unicode="q" horiz-adv-x="1079" d="M94 469q1 9 1 14t-0.5 14t-0.5 13q4 8 4 10q2 6 2 19q0 2 1.5 4t2.5 4.5t0 5.5q-3 2 -0.5 8t2.5 8q0 20 5 27q1 3 1 8.5t1 10t4 8.5q0 1 1 4t1 4q0 17 8 41q2 11 11.5 30t11.5 25q4 12 8 16q3 5 19 36t30 42l18 19q4 4 15 17.5t18 19.5l16 18q18 18 39 33l33 16 q16 5 55 27q24 0 29 4q6 2 16 2q8 4 11 4q8 2 26 2q9 4 20.5 5t31.5 0t26 -1q1 0 3.5 -1t4.5 -1q1 0 9 4q16 0 48.5 -1t49.5 -1l10 -4h35q6 0 16.5 -3t16.5 -3q37 0 55 -2q1 0 3.5 -1t4.5 -1q5 -2 17 -2t18 -2q3 -3 5 -11t5 -10v-86l-6 -10v-23q4 -4 4 -8q0 -41 2 -61 q0 -8 -3 -29t-3 -31v-151q1 -2 1.5 -4t1 -3.5t1.5 -2.5q-1 -1 -2 -5t-2 -6v-329q0 -19 -4 -29q0 -3 0.5 -7t1 -7t-0.5 -7t-3 -8v-137q0 -21 -4 -31q0 -3 2 -9.5t2 -10.5l-4 -14q-2 -55 -2 -164l-6 -15v-127q-3 -5 -11 -7t-10 -3q-18 -1 -38.5 -1t-46.5 0.5t-40 0.5 q-7 0 -22 -1t-23 -1q-18 2 -57 2q-4 0 -7 4t-3 8q-2 10 -2 33q1 5 1 11v12t-0.5 11.5t-0.5 12v11.5q0 4 -5 24q0 2 2 5.5t3 6.5v107q0 7 0.5 19.5t0.5 22.5t-1 19q0 27 2 37q0 6 4 10v78q-4 14 -9 25l-14 12q-8 0 -18 -4h-62q-5 3 -17.5 5t-17.5 5l-6 -4q-2 2 -6 2 q-4 4 -10 4q-12 0 -18 4h-5q-5 1 -14 2.5t-15.5 3.5t-11.5 5l-8 4q-5 0 -12.5 2t-11.5 2q-4 1 -12.5 5t-12.5 5q-7 0 -33 14q-9 0 -18 3q-13 8 -37.5 20t-34.5 18q-5 6 -16.5 22t-18.5 23q-1 4 -3 9.5t-3.5 9.5t-2.5 8.5t-1 7.5q-13 29 -16 35q0 19 -2 27q0 3 -2 9.5 t-2 10.5q-13 13 -13 58q0 6 -2.5 15.5t-3 15t3.5 14.5q-4 12 -4 16zM348 498l6 -11q0 -28 4 -36l4 -25q17 -45 44 -82q2 -2 11.5 -7.5t14.5 -10.5q4 -3 12.5 -7.5t12.5 -7.5q3 0 7.5 -2t10 -3.5t10.5 -0.5q15 -6 31 -6q2 0 14 -6h11.5h14.5t11.5 1t11.5 4t5 7v80q-4 8 -4 10 v43q4 16 4 21v178q8 19 2 27q0 1 1 3t1 3q3 5 -2 20q4 12 2 19q-10 15 -35 26h-29l-12 -6h-20q-2 -2 -7.5 -4t-7.5 -4l-53 -37q-12 -8 -14 -16l-4 -4q-6 -5 -15 -18t-10 -15q-21 -21 -21 -37q0 -3 -3 -9t-3 -10q0 -14 -2 -22q0 -6 -4 -14v-41z" />
<glyph unicode="r" horiz-adv-x="811" d="M135 223l4 10q0 5 2 7q0 10 -1 30.5t-1 32.5v35q0 4 4 16l-6 187q4 8 4 12q2 41 -2 121q4 16 4 18q0 14 -1 39t-1 37q0 10 -1 31.5t-1 31.5q-7 17 -2 29v64q0 6 4 14v49q0 1 1 3t1 3q4 2 15.5 2.5t15.5 3.5q5 -2 13.5 -0.5t13.5 -1.5q5 0 12 0.5t13.5 1t11.5 0.5l10 5h4 l10 -5q5 0 17 1t18 1l12 5q33 4 49 2q5 -2 7.5 -11t3.5 -10q-2 -2 -2 -8v-41q0 -25 -2 -37v-4q-6 -15 -3 -31l9 -8h18l6 4l11 15l6 16l16 22l2 3q5 3 14.5 11t14.5 11q1 1 6 5t8 5q1 0 5.5 2t8.5 4l19 9q12 8 18 10q0 2 2 2q4 0 6 2l31 10q4 2 12 2q8 4 13 4q74 8 74 -2 q4 -58 -5 -139q0 -2 -1 -6t-1 -6v-90q-2 -4 -2.5 -14.5t-3.5 -16.5t-12 -6q-4 1 -7.5 0t-8 -3t-7.5 -3q-4 0 -11 -4t-11 -3q-4 0 -11 -3.5t-10 -4.5q-4 0 -11 -3t-11 -3q-16 -12 -21 -12l-12 -6l-41 -27q-7 -4 -13.5 -10t-14.5 -15t-11 -12q-4 -4 -4 -6q-1 -5 -16 -20 q-14 -33 -21 -45q-10 -25 -10 -33q0 -5 -4 -13v-14q0 -14 -2 -20q-1 -3 0.5 -9.5t-0.5 -9.5q-2 -4 -2 -16q0 -5 -4 -17v-30q0 -11 -2 -13q-3 -7 -3.5 -15.5t0.5 -20t1 -15.5q0 -9 1 -27t1 -26l-6 -16q2 -31 2 -103l-7 -16q0 -2 -4 -2q-12 0 -24 -6q-20 0 -60 -4q-2 0 -12 -5 l-88 -4q-12 -4 -16 -4q-4 -2 -11 -2l-6 6v21q0 39 -2 59q10 20 -2 43z" />
<glyph unicode="s" horiz-adv-x="784" d="M98 801q0 1 2 4.5t2 5.5q1 2 1.5 7.5t1.5 9t4 6.5v4q1 5 2.5 15.5t3.5 18t6 11.5q0 10 8 22l31 64l20 16q39 32 76 43q1 0 16.5 3.5t22.5 8.5q7 0 17.5 4t15.5 5q6 0 8 2q1 0 4 1t4 1q4 0 6 2q28 0 35 4q5 0 14 1t13 1q1 0 3.5 1t4.5 1t6 -1t6 -1h19q50 0 75 -2h6 q5 -2 11.5 -3t12 -1.5t13.5 -0.5t13 -1l16 -9l6 -6q3 -30 0 -100l-4 -8q0 -2 0.5 -3.5t1 -2.5t0.5 -2q2 -4 2 -13q-3 -5 -4 -12t-1 -15t-1 -12v-10q-1 -1 -2 -4.5t-2 -5.5v-21l-4 -4h-80q-1 0 -4.5 -1t-5.5 -1q-8 -4 -13 -4q-4 -2 -10 -2q-3 -1 -7.5 -4.5t-8.5 -5.5t-8 -2 l-27 -21q-3 -4 -7.5 -15.5t-6.5 -16.5q-1 -3 -1 -9.5t-1 -11t-4 -8.5q2 -8 2 -27q4 -6 4 -16.5v-13.5q20 -24 37 -37q2 -2 6.5 -3.5t5.5 -2.5q9 -12 22 -15q18 -9 23 -14l24 -12l12 -12q13 -11 21 -15l10 -14l13 -15l12 -26q0 -3 1 -8t1 -7q6 -15 6 -43q1 -1 1.5 -2.5 t1 -4.5t1.5 -5v-43q0 -14 -4 -20q0 -11 -1 -35t-1 -35q-3 -4 -4 -8.5t-1 -11t-1 -9.5t-4 -9.5t-5 -11.5t-3 -9l-13 -27q-7 -8 -18 -31q-7 -8 -18 -24q-5 -1 -12.5 -8t-8.5 -7l-20 -12q-12 -5 -27 -16q-2 0 -5.5 -1t-4.5 -1l-9 -7q-10 -6 -16 -6h-2q-6 -5 -19.5 -9.5 t-17.5 -6.5h-16q-5 0 -14.5 -4t-14.5 -4q-8 -4 -24 -4q-14 0 -39 -1t-39 -1q-2 0 -4.5 -1t-3.5 -1q-4 -1 -9 0.5t-6 1.5q-13 0 -40 1t-40 1q-3 1 -11 4t-13 6h-2q0 1 -1 2t-1 2q-2 10 -1.5 28t-0.5 29q0 3 -4 11q0 5 2 14.5t2 13.5q0 13 -2 19q0 2 1 6.5t1 8t-2 7.5 q0 8 2 12q-1 1 -1.5 3t-1 5t-1.5 5v30q7 15 0 27v43q0 1 1 4.5t1 5.5q0 7 -2 9q0 3 4.5 5t12 2.5t14.5 0t15 -1t11 -0.5h55q1 1 13 4.5t18 7.5q5 0 14 3.5t11 4.5l20 12l16 21v25q0 14 -4 20l-4 18q-13 19 -43 41q-6 6 -19.5 15.5t-17.5 13.5q-2 0 -6 1t-6 1l-12 10 q-6 0 -27 11q-3 4 -15.5 15.5t-15.5 20.5q-5 7 -24 39q0 4 -2 4q-18 18 -22 61t1 81z" />
<glyph unicode="t" horiz-adv-x="829" d="M55 1233l4 12v39q1 3 4.5 5t6.5 3.5t7.5 3t6.5 2.5q2 0 10 -4q18 11 35 2q7 5 16 2q2 0 5.5 1t5.5 1q7 0 21.5 1.5t21.5 1.5q2 -1 5.5 -3t5 -2.5t4 -0.5t5.5 1q19 19 8 66q4 8 4 10q1 4 1 8.5t0.5 8.5t1 8.5t1.5 9t3 8.5v35q0 14 6 41l4 4h45q6 2 22 2q6 0 14 1.5t15 1.5 t14 -3h48q8 4 10 4q2 2 6 2q6 0 18 -4q4 4 15 4q12 0 18 2q7 0 10 -6q2 -10 1.5 -27.5t0.5 -27.5q-4 -17 -2 -21q0 -2 -1 -4.5t-1 -3.5q0 -63 2 -92q2 -9 17 -16q20 1 59.5 0t58.5 0q4 0 11 -2t10 -2h14l9 -9q5 -38 2 -84l-5 -10v-94q2 -5 1.5 -17t1.5 -18q-5 -7 -7 -9.5 t-7 -5.5t-13 -3q-13 0 -37.5 -0.5t-45 -0.5t-38.5 1q-2 2 -4 2q-13 -3 -27 -13q-2 -3 -2 -8t-1.5 -10t-4.5 -8q0 -6 1 -19t1 -18q0 -6 4 -10q-4 -12 -4 -17v-18q0 -3 -1 -9t-1 -9q0 -1 -1 -4.5t-1 -4.5q-2 -18 -2 -51q0 -35 2 -53q-4 -4 -4 -12q0 -7 1 -17t2 -20.5t1 -18.5 l-4 -12q0 -24 1 -74t1 -76q4 -8 4 -12q4 -50 4 -71q1 -4 7 -18t6 -21q0 -5 4 -13l16 -26q5 -6 14 -25q12 -12 15 -14l28 -15q2 -1 35 -12q20 -8 31 -6q4 -4 4.5 -12t3.5 -11q0 -2 -4 -14q4 -4 4 -10q0 -2 -1.5 -6t-2.5 -8q0 -18 1 -58.5t1 -60.5q-1 -2 -2 -5.5t-1.5 -5 t-1 -4t0.5 -4.5q0 -17 -8 -28l-15 -6q-4 0 -6 2l-8 -5q-31 -2 -102 -2q-2 1 -5 2t-5 2t-5 2t-6 1q-2 -1 -4.5 -0.5t-4.5 1.5t-4.5 2t-4.5 1q-4 0 -11.5 1t-11.5 1q-67 30 -98 61q-12 10 -39 53q-5 5 -6 5q-3 4 -11.5 18.5t-15.5 21.5q-1 4 -4.5 15t-3.5 18q0 12 -6 30t-6 28 q0 3 -1 6t-2.5 6.5t-2.5 5.5q0 10 -1.5 43.5t-0.5 52.5q0 15 -1 47.5t-1 49.5l-5 153q0 8 1 26t1 27q0 2 2 6.5t3 6.5v94q0 4 4 12v86q7 14 4 25q0 2 -2 2q-9 18 -15 26q-3 1 -14.5 2t-17.5 3q-4 1 -6 0.5t-6 -2.5t-7 -3h-24q-1 0 -11 5h-61q-3 -1 -6 -1t-7 0.5t-6 0.5t-6 4 q-2 61 -2 182z" />
<glyph unicode="u" horiz-adv-x="1105" d="M92 719q0 4 4 8v76q0 18 4 26v64q4 8 4 10q2 27 2 76l7 10h6q25 2 74 2q7 0 23.5 -1t23.5 -1q10 2 32 2h72q4 -4 8 -12q-2 -4 -2 -8q5 -11 -2 -25v-31q-4 -8 -4 -12q4 -9 4 -49q0 -4 -4 -8l4 -8q-4 -12 -4 -19v-186q0 -8 -2 -12q0 -1 1 -4t1 -5l4 -77q1 -2 6 -27 q3 -3 3.5 -8.5t0.5 -11.5t2 -9l7 -26q2 -2 4.5 -5t4 -5t4 -4.5t4 -5t3.5 -5.5l4 -6q9 -12 27 -19q2 0 31 -12l30 -10q12 -4 21 -4q10 2 30 2q9 6 25 6l29 14q3 4 7 7.5t11 6.5t10 5l15 14q14 11 20 25l8 12q1 3 1 6v5t1 4.5t2 4.5q3 6 3 11q0 14 4 22q0 9 4.5 28.5t3.5 27.5 q4 16 4 18q1 2 1 7t1 7q0 5 4 13v20q0 6 -3 18.5t-3 20.5l4 12v164l4 10q-5 5 0 19q0 3 -1.5 21.5t1.5 19.5q-4 4 -4 10q-2 10 -2 35q3 8 5.5 12.5t6.5 7t9.5 3.5t15.5 1q9 0 26 0.5t31 0.5t27 -1q10 0 30 1t29 1h51l11 -10v-92l-4 -10v-74q-5 -10 -5 -12q-2 -12 -2 -39 q0 -9 -2 -23t-2 -24v-103q-1 -2 -1.5 -4t-1 -3.5t-1.5 -2.5q0 -51 -2 -76q0 -2 -4 -10v-61q-6 -11 -6 -45v-9q0 -2 -4 -10v-35q-2 -12 -13 -34v-21l-20 -41l-12 -27q-2 -3 -8 -10.5t-7 -11.5q0 -1 -1 -2t-1 -2l-34 -37q-48 -32 -76 -51q-4 -3 -16 -8t-19 -9q-9 1 -19 -1.5 t-23 -7t-20 -5.5q-8 -2 -24 -10q-5 0 -15.5 -1t-15.5 -1q-8 -4 -10 -4q-6 0 -17.5 -0.5t-21 -0.5t-18.5 1q-8 4 -41 4h-23q-12 4 -16 4l-31 8q-6 4 -18 4q-5 0 -13 4q-2 -2 -4 -2h-2q-7 2 -20.5 6t-20.5 6t-16 7.5t-15 13.5q-3 3 -11 8t-11 8q-1 1 -25 19q-33 12 -59 65 q-10 17 -29 64q-4 6 -8 18q-1 3 -1.5 10.5t-2.5 10.5q-10 15 -10 49l-6 12v33q0 2 -3.5 12.5t-3.5 16.5q0 11 -1 33t-1 34q-1 1 -4 10l-4 109q0 2 -1 4.5t-1 3.5q2 8 2 49q-5 20 -4 23z" />
<glyph unicode="v" horiz-adv-x="1136" d="M57 1014l4 4l7 4q37 0 55 2h76q6 0 19 2t20 2l8 -4q3 3 11.5 2t14.5 2h33q4 0 10 -6q2 -5 4 -21.5t7 -23.5q2 -4 4 -12.5t4 -12.5l6 -22q0 -1 2 -8.5t4 -12.5q-1 -5 2.5 -14.5t3.5 -13.5q0 -1 3 -9.5t3 -13.5l7 -20q4 -5 8 -23l4 -8v-14q0 -12 6 -21q0 -5 3 -16t3 -17 l12 -24q1 -1 2 -8.5t3 -12.5q6 -12 6 -24q1 -3 2.5 -6.5t2.5 -6t2 -6t1 -6.5t2 -8t2 -8l8 -23q0 -4 6 -22q0 -5 3 -17.5t3 -19.5q1 -3 3 -6.5t2 -5.5l6 -25q0 -1 1 -10t5 -13v-6q0 -11 6.5 -30t7.5 -21q0 -8 14 -22h17q16 12 16 34q2 5 5.5 11.5t6 12t5.5 12t4 11.5 q0 1 2 4.5t2 4.5q-1 6 2.5 15t3.5 11q0 3 1 6.5t2 6t2.5 6t2.5 6.5q2 3 3.5 8t3 11t3.5 10q0 5 2 10.5t6 12t5 9.5t4 14.5t6 16.5q2 3 8 21q0 4 6 16q2 3 4 10t4 10q0 1 1 2t1 2q0 5 3.5 15.5t3.5 15.5q0 1 1 4t1 4q2 6 10 23q0 7 3 16t6 18.5t3 16.5q1 3 3.5 9.5t4.5 10.5 t3.5 10t1.5 11q0 3 3 9t3 9q1 5 3.5 10.5l5 11t3.5 9.5l18 56q1 5 5.5 15t5.5 15l8 29q2 0 2 2q8 2 24 -2q1 0 9 4h151q8 4 10 4q20 2 64 2q0 -2 2 -2q0 -2 -1 -4.5t-1 -3.5q-1 -3 -1 -7t-0.5 -7t-1.5 -6.5t-3 -6.5q0 -9 -7.5 -27t-7.5 -28l-10 -23q0 -6 -8 -30 q-1 -1 -2 -3.5t-1.5 -4.5t-1 -4.5t-1.5 -4.5q-14 -23 -25 -71q0 -2 -2 -6.5t-2 -6.5q0 -8 -2 -12l-16 -39q-1 -3 -4.5 -11t-6 -15.5t-2.5 -14.5q0 -1 -1 -3.5t-1 -4.5q-8 -19 -10 -31q0 -4 -4 -12l-10 -20q-17 -34 -17 -48q-5 -10 -12 -28t-10 -25q-2 -7 -6 -15.5 t-7.5 -16.5t-5.5 -15q-9 -31 -14 -43q-2 -3 -4.5 -10.5t-5.5 -11.5q0 -6 -6 -18.5t-6 -20.5q0 -3 -3.5 -8.5t-3.5 -8.5q0 -4 -6 -16q-9 -16 -12 -31l-14 -43q0 -2 -6 -8q-5 -11 -9 -25l-8 -22q-1 -4 -5 -12.5t-5 -12.5q-12 -20 -14 -32q-1 -1 -4 -7.5t-6 -10t-7 -3.5 q-3 1 -7 0t-7 -2.5t-7 -2.5t-7 -1h-25h-31q-3 0 -14 -2.5t-14 0.5q-8 -3 -24 -3t-19 -1q-4 2 -9 2q-5 5 -16 2q-7 -3 -11 -2.5t-14 4.5h-34q-7 0 -9 -2q-11 -3 -25 -3.5t-25 0t-25 -0.5q-1 0 -3.5 1t-3.5 1q-2 2 -3.5 10.5t-4.5 11.5q-4 39 -26 82q-1 3 -3 8.5t-3.5 9.5 t-4.5 7q0 5 -3 13t-3 13q-9 36 -16 48q0 7 -4.5 18t-5.5 16q0 1 -1 4.5t-1 4.5q0 8 -4 22t-5 21q-1 2 -5 9t-5 11l-8 25q0 13 -5 27t-11.5 29t-8.5 23q0 7 -5 19.5t-5 19.5q0 13 -6 25q-17 50 -18 53v23q-2 6 -4.5 14.5t-4.5 15t-4.5 14t-5.5 13.5q-6 9 -6 19q0 6 -2 6 q-4 6 -6 22t-6 21l-4 20q-7 14 -7 27l-8 16q0 1 -1 4t-1 4q0 6 -4 16.5t-4 16.5q-6 24 -6 29q0 15 -10 35q0 4 -3 13t-4 13z" />
<glyph unicode="w" horiz-adv-x="1689" d="M115 905v33q5 6 4 26.5t6 24.5h45l10 -4q28 0 87 -1t89 -1l15 -6q0 -1 1 -2t1 -2v-43q0 -2 -1 -7.5t-1 -7.5q-1 -2 -1.5 -3.5t-0.5 -3.5t0.5 -3t1.5 -4l2 -6l1 -68q0 -67 -1 -67v-76q-7 -26 0 -39v-31q-1 -1 -2 -4.5t-2 -5.5q4 -16 4 -22q0 -15 1 -41.5t1 -38.5 q4 -12 4 -17q0 -17 16 -45q4 -4 6.5 -8.5t5.5 -10.5t5 -9q5 -4 14.5 -8t17 -8t11.5 -9q53 -4 80 -2q8 4 24 8l25 13l51 51q12 24 12 30q6 15 6 33q0 4 2 13t2 14q0 1 0.5 42t-0.5 42v250l7 12q1 11 1 26.5v32t1 29.5l8 8h110q2 -1 4.5 -2t4 -1.5t2.5 -0.5q72 -3 139 0 q7 -2 14 -12q-1 -4 -1 -9.5t0.5 -10t-0.5 -10.5t-3 -11q-2 -14 -2 -45v-103l-6 -12v-67q0 -19 -4 -27q-3 -6 0 -12q2 -2 1 -7.5t1 -7.5q2 -5 -2 -14q-2 -6 2 -21q0 -24 -2 -28t-2 -13v-30q1 -3 3 -7q1 -2 1 -3l-4 -11q8 -15 6 -22q0 -7 4 -15l12 -43l11 -22q24 -26 32.5 -32 t32.5 -17h64l12 6q32 7 50 15t32 26q17 17 28 49l13 31v39q7 13 5.5 49t4.5 49q-2 2 -2 6q0 1 1 3.5t1 5t-2 5.5v5q3 0 1 9l-1 9q3 4 -2 18v45q4 8 4 13v211l8 10q1 0 2 1t2 1h54q3 1 16.5 1t21.5 3q10 0 32 1t34 1h28t18 -0.5t9 0.5t11 2q8 -4 8 -8t2 -12.5t2 -12.5 q0 -2 0.5 -5t0.5 -5t0.5 -5t0.5 -5q0 -4 2.5 -11t1.5 -10q0 -2 -1 -6t-1 -6q2 -7 0 -21.5t2 -21.5v-27q-7 -10 0 -28q-4 -14 -2 -29q0 -4 -2 -6q2 -4 2 -10q0 -2 -1 -5t-1 -5q0 -9 -0.5 -26t-0.5 -31t1 -27q-1 -16 -1 -45.5t-1 -45.5v-14l-4 -10q0 -11 -1 -35t-1 -37 q-6 -24 -6 -26v-17q0 -10 -3 -22l-4 -21l-4 -12v-33l-6 -14q0 -31 -12 -47q0 -9 -8 -25l-27 -51q-2 -3 -8.5 -10t-9.5 -11q-3 -2 -8 -8t-7 -8l-16 -12l-21 -19l-30 -18q-11 -11 -39 -23l-27 -6q-1 -1 -22 -6q-1 0 -13 -4q-16 0 -24 -2q-5 0 -13 -4q-20 0 -30 -2 q-1 0 -3.5 -1t-4.5 -1q-11 4 -17 2q-3 0 -7.5 -1t-6.5 -1q-6 4 -19 4h-14q-2 0 -6 1t-6 1q-5 5 -8 2q-7 0 -20.5 4t-14.5 4q-6 3 -18 6t-17 6q-5 4 -15.5 8.5t-11.5 4.5q-4 -1 -10 2.5t-8 3.5q-41 33 -76 45q-6 5 -20 33q-28 27 -41 14v-10q-47 -59 -70 -74q-33 -17 -35 -18 q-2 -2 -6 -2q-6 -1 -16 -6.5t-13 -6.5q-22 0 -34 -6h-9q-3 1 -12 -2.5t-14 0.5q-8 -4 -16.5 -5t-22.5 0t-17 1h-6q-8 -4 -12 -4q-1 0 -3 1t-3 1t-4.5 -1t-5.5 -1t-5.5 1t-5.5 1h-34q-5 0 -13 -4q-8 0 -29 3t-32 3q-2 1 -12.5 6t-16.5 6q-4 0 -4 2q-8 3 -25.5 12t-27.5 11 l-47 24q-5 3 -11 10.5t-10 8.5l-14 18q-7 14 -14 21q-5 8 -13.5 26.5t-9.5 20.5q-12 18 -12 47q-6 8 -10.5 28t-6.5 25q-6 30 -6 45q-2 10 -2 33l-4 12q0 10 -1 30t-1 32q-1 1 -2 4.5t-2 5.5q0 11 -1 33t-1 35q0 2 -4 10q0 28 -1 86t-1 86q0 1 -1 3.5t-1 4.5v6q-7 17 2 31 q0 3 -4 26t2 25q7 10 0 21q-2 8 -2 26z" />
<glyph unicode="x" horiz-adv-x="1196" d="M82 125v18l12 27q7 35 25 53q2 2 3 7.5t3 7.5q15 31 18 34q11 17 27.5 52.5t22.5 46.5q14 22 34 66t29 61q10 30 41 61q0 19 -10 27q0 1 -1 2t-1 2q-21 37 -23 51q0 1 -10 14q-3 16 -12 31q-2 13 -17 35q-11 19 -28 67l-11 29q-2 8 -10 29q-3 5 -6 13t-4 11 q-10 37 -31 62l-4 14q-1 1 -4.5 6.5t-5.5 9t-5 9.5t-2.5 9.5t1.5 8.5l2 2h22q25 2 78 2q1 -1 4.5 -2t5.5 -2q3 0 11 4h22q2 0 10 -4q29 2 86 2q9 -3 19 -20q1 -2 37 -62q5 -9 39 -63q11 -26 28 -43q1 -6 4 -12.5t8 -13.5t7 -11q2 -3 18 -35l31 -47q6 -4 18 0q8 13 8 14 q0 4 -2 8.5t-4 7t-2 6t4 7.5q9 22 13 29q12 29 28 55q4 8 14 24.5t11 18.5l22 39q12 24 23 33q1 5 7 13t7 11q21 36 27 45l4 9l8 8q8 0 23.5 1t23.5 1h60h12q6 -4 18 -4h15q19 0 57.5 1t58.5 1q9 0 13 -2v-6q-1 -5 -6.5 -13t-6.5 -12l-12 -21q-4 -6 -10 -18t-10 -18 q-2 -6 -10 -18t-9 -13q-11 -14 -18 -35q-29 -58 -31 -63q-4 -11 -10 -17q0 -2 -2 -2q-4 -11 -15.5 -30t-15.5 -27q-12 -31 -29 -53l-10 -19q-2 -3 -7.5 -15t-10.5 -18l-8 -16q1 -3 2.5 -7t2 -7.5t2 -8t3.5 -8.5q10 -16 16 -35q2 -4 8.5 -14.5t8.5 -17.5q4 -4 8 -17 q1 -5 3.5 -11t5.5 -11t6 -11.5t5 -11.5l8 -22q3 -3 4 -7t2 -9t3 -7q3 -5 6 -13.5t6 -16.5t6 -13q8 -11 12 -29q4 -12 15.5 -35t15.5 -32q1 -7 4 -14t7.5 -14.5t6.5 -12.5q3 -11 21 -43q2 -6 10 -18q1 -2 1.5 -6t1.5 -6.5t3 -4.5q3 -5 1 -9.5t-7 -4.5q-8 -2 -22 -2 q-9 0 -26.5 -1t-25.5 -1h-79q-1 0 -17 4h-45q-8 0 -24 2t-25 2q-4 0 -10 6q-13 25 -13 27l-16 32q-10 16 -16 35q-2 6 -8.5 17.5t-8.5 17.5q0 4 -2 6q-1 2 -18 47q-5 17 -6 17q-9 17 -22 51.5t-17 42.5l-15 12q-6 0 -14 -1l-8 -1q-11 0 -19 -4q-2 0 -5.5 -1t-4.5 -1 q-4 -4 -4 -6q0 -6 -2 -8q-8 -18 -22 -43l-11 -21q-11 -25 -20 -39l-23 -45q-14 -28 -26 -49q-1 -7 -17 -39q-9 -12 -20 -33q-1 -3 -12 -20q-6 -2 -33 -2q-10 -2 -31 -2q-10 -5 -14 -4q-4 0 -8 4q-14 -2 -39 -2l-11 -4q-1 0 -4.5 1t-5.5 1q-1 0 -3 -1t-3 -1q-10 4 -33 4 q-12 -2 -39 -2q-7 0 -25 3t-28 3q-1 0 -2.5 1.5t-3.5 2.5z" />
<glyph unicode="y" horiz-adv-x="1101" d="M92 641q1 1 2 4.5t2 5.5q-4 12 -4 45q0 2 1.5 6t2.5 6.5t0.5 6t-2.5 6.5v4q3 2 0.5 8t-2.5 8v23l6 12v98q0 3 2.5 12t1.5 15v10q1 3 1.5 9t0.5 10t1.5 9t3.5 9q0 4 1 13.5t1 13.5q0 10 4 14q-2 2 -2 6q4 4 6 4h43q35 -3 65 0q7 0 20.5 2.5t18.5 2.5h15l18 4q3 0 11.5 1.5 t13.5 0.5t8 -6q2 -10 2 -29q0 -2 -2 -2q0 -4 -4 -8q4 -4 4 -9v-28q-4 -16 -4 -23q-2 -6 -2 -43q2 -5 -1.5 -14t-0.5 -14q6 -19 0 -35v-6q4 -4 1 -14.5t-3 -12.5t1.5 -9t0.5 -12q0 -1 1 -4t1 -4q-4 -9 -4 -45v-157q0 -5 4 -13v-12q2 -10 2 -27q4 -7 7 -16t6.5 -18t6.5 -15 l14 -10q16 -24 27 -35q3 -1 9.5 -1t10.5 -1t7 -4q6 -2 21 -5t24 -7h8h43q6 0 8 2q3 2 12.5 2.5t12.5 1.5l28 14q2 1 6.5 5t9.5 7t9 5q4 3 8 7.5t7 7.5t7 9t6 8.5t5.5 9.5t5 9.5t5.5 11t5 10.5l4 19q2 4 2 16q0 6 4 14q1 5 5 23.5t4 28.5v43l6 12v137l6 12v203q9 22 12 25 q1 0 3 1t3 1h211q13 0 13 -21q0 -6 1.5 -13.5t1.5 -13t-3 -12.5v-18q4 -4 4 -12v-49q0 -5 -2 -7l4 -14q0 -4 -1 -12.5t-1 -12.5l-2 -4l4 -8v-49l-6 -12v-27l4 -6q-2 -4 -2 -14q-2 -4 -2 -15q0 -5 3 -14t3 -14q-1 -3 -1 -7.5v-8t0.5 -8t0.5 -7.5v-64q-1 -3 -1 -7.5v-7.5 t0.5 -7t0.5 -6q-4 -8 -4 -10q0 -9 2 -13q-2 -2 -2 -6q-2 -22 -2 -139q-5 -15 -5 -17l-4 -57l-4 -12v-70q0 -5 -3 -14.5t-3 -16.5v-32q-6 -12 -6 -23q0 -6 -3 -21.5t-3 -23.5q-6 -6 -6 -33q0 -2 -2.5 -8.5t-1.5 -11.5q0 -3 -1 -9.5t-1 -9.5q0 -1 -1 -2.5t-2 -4.5t-2 -5 q0 -2 -1 -8.5t-1 -9.5q-6 -10 -6 -31l-10 -20q0 -4 -3 -11.5t-3 -11.5q-1 -2 -4.5 -10.5t-3.5 -14.5q-2 -3 -4.5 -11.5t-4.5 -12.5q-6 -25 -24 -49q-2 -4 -11 -14t-12 -17l-20 -23q-11 -8 -14 -18q-4 -1 -7 -3t-7 -7t-5 -6l-29 -21q-3 -1 -14 -12q-1 0 -11.5 -4t-14.5 -4 l-7 -2q-18 -18 -55 -27q-2 0 -6.5 -1t-7.5 -1q-1 0 -6 -2.5t-9 -3.5t-8 0q-5 0 -18.5 -3t-18.5 -3l-10 -4q-12 0 -37 -1t-37 -1q-12 -4 -15.5 -4t-12.5 4q-44 0 -64 2q-12 4 -14 4l-21 6q-2 1 -8.5 1.5t-9.5 2.5q-54 18 -92 41q-21 15 -27 18l-18 15v14q3 7 7 18t8.5 21 t8.5 18q4 12 9.5 24.5t14 28.5t11.5 23q2 7 10 12q8 -2 27 -2q4 -2 15.5 -7t17.5 -9q5 -1 16 -1t17 -1l8 -4h4q6 0 17 -4t16 -4h7.5t6.5 -2.5t6 -2.5h17.5t21.5 -4q4 0 6 2h51q20 11 27 11l31 12q19 8 36 25.5t27 37.5q5 5 10 25q11 33 11 41v6q2 2 2 4t-1 5t-1 5q0 3 4 11 q0 1 1 12t5 16v6.5t0.5 6.5t0.5 6.5v7t-1 6.5q-5 8 -15.5 10.5t-19.5 -2.5q-3 -1 -11 -3t-11 -5q-23 0 -31 4h-27q-4 0 -12 -4h-31q-1 1 -2.5 1.5t-3.5 1t-4 1.5q-2 0 -14 -4l-13 6h-55q-3 0 -9.5 -0.5t-12 -0.5t-9.5 1q-4 3 -14 4t-14 4q-3 3 -7 3q-2 1 -9.5 1.5t-12.5 2.5 q-9 5 -23 8l-22 8q-14 14 -29 23q-13 17 -20 22q-1 2 -13 8q-1 2 -18 25l-31 61q-8 12 -8 23q0 2 -3 9.5t-3 12.5q0 4 -3 11.5t-3 11.5t-3 12t-3 12v21q-4 13 -13 92v8q-4 8 -4 25q0 63 -2 96q0 13 -2 19q2 10 -2 20z" />
<glyph unicode="z" horiz-adv-x="956" d="M119 223v51q1 2 2 6t2 5v96q0 5 3.5 9.5t4.5 6.5q24 36 31 41l18 25l29 31q25 30 29 36q2 2 3 4.5t2 4.5t3 2q3 1 6 7t4 7q2 2 5.5 4.5t6 5t4.5 6.5l17 19q10 14 16 16l4 6q3 7 14 19t15 18q0 2 4 6q6 6 12 13t10 13t10.5 14.5t10.5 13.5l16 20l17 19q0 5 1 6.5t-1 5.5 t-3 5t-3.5 4.5t-3.5 4.5h-58l-10 -6h-16l-179 -4q-8 0 -12 6q0 46 -2 66q-4 12 -4 16q0 17 -1 48.5t-1 47.5q0 11 2 15q0 2 -1 9t-1 11v27q1 1 2.5 2t2.5 2t1 2q2 0 5.5 -1t4.5 -1q7 0 15 4l8 -4h14l10 4q1 0 5 -1t6 -1q1 0 4 1t4 1h10q17 0 23 2q8 0 20 -4q8 4 25 4h20 l170 4q9 0 26.5 1t26.5 1q3 0 11 4q33 2 94.5 2.5t81.5 1.5q8 -4 12 -4q10 -2 33 -2l6 -8l2 -4q0 -2 -1 -6t-1 -7t2 -6q0 -3 -1 -9.5t-1 -10.5v-76q0 -6 -4 -22v-88q-30 -36 -31 -37l-61 -66q-4 -4 -4 -6q-8 -14 -33 -38t-33 -40q-25 -25 -55 -67q-4 -1 -8.5 -6t-10 -12 t-6.5 -9q-2 -4 -12.5 -15.5t-13.5 -19.5q-22 -22 -27 -26q-1 -2 -3 -7t-3 -10t0 -10l16 -21h66q20 -5 24 -4h43q8 4 11 4q2 0 6 -1t6 -1h119q14 -5 10 -16q0 -1 -1 -3t-1 -3q0 -4 -2 -6l4 -13v-18l-1 -4t-1 -8q0 -12 -1 -36t-1 -36q0 -6 -4 -14q0 -23 2 -35q0 -4 4 -12v-19 q-4 -4 -4 -16.5t-4 -16.5q-15 0 -21 2l-12 -4q-126 -6 -260 -6q-8 4 -10 4h-136l-10 4q-111 0 -166 -2l-14 9q0 1 -1 3t-1 3q0 12 -1 34t-1 33z" />
<glyph unicode="{" horiz-adv-x="729" d="M98 797v170q4 11 31 18q3 0 10 2t11 2q10 2 30 10q5 0 19 9l18 26q4 5 7.5 13t5 14t3.5 16l3 15q2 3 2 18v104q-5 10 -5 11q-2 10 -2 32v9q-4 12 -5 26t-0.5 30.5t-0.5 25.5q0 6 1 18t1 18q0 3 4 11v30q0 23 7 35q0 19 2 27q0 2 1 5t1 5q2 14 2 43q12 29 12 31 q22 52 49 76q22 31 35 39l25 16l20 18q2 0 5.5 1t6.5 1q5 5 6 7q8 8 27.5 17.5t26.5 14.5q16 11 24 11q3 2 11.5 4t11.5 4l18 8l8 -6q2 -5 8 -15.5t10 -19t7 -16.5q2 -8 8 -22.5t8 -22.5q0 -5 2 -7q4 -4 7 -9.5t6.5 -12.5t5.5 -10l18 -35q0 -4 2 -6q-1 -1 -2 -2.5l-2 -3 t-2 -1.5q-6 -4 -25 -12.5t-26 -15.5q-12 -12 -27 -21l-22 -24l-8 -8q-6 -15 -15 -27q-3 -8 -12 -19.5t-12 -19.5q-14 -28 -17 -37q-12 -24 -12 -41q0 -6 -4 -14v-139l4 -13q0 -12 1 -39t1 -41q9 -15 0 -34q0 -3 4 -15v-24q0 -7 -4 -23q0 -7 -1 -21t-1 -20l-4 -12 q0 -21 -2 -31q0 -2 -0.5 -4.5t-1.5 -4.5t-2 -5l-2 -6l-8 -23q-4 -4 -9.5 -10t-13.5 -13.5t-12 -11.5t-13 -8t-12 -6q-13 -17 -8 -31l25 -18q20 -25 26 -31q1 -3 11 -26t10 -39q4 -4 4 -11q2 -10 2 -30l4 -11v-129q0 -1 -1 -3.5t-1 -4.5q0 -1 1 -4.5t1 -5.5q0 -4 -4 -12 q0 -11 -1 -35t-1 -37l-4 -12q0 -10 -1 -31t-1 -31l-4 -10v-49q10 -16 0 -29v-45l4 -10q0 -4 1 -13t1 -14q4 -4 4 -10l4 -16q2 -4 6.5 -14.5t9.5 -16.5q19 -29 19 -41q3 -3 12.5 -13.5t15.5 -15.5q0 -7 -6.5 -14t-7.5 -10q-9 -4 -20 -20.5t-19 -20.5q-7 -4 -13.5 -9 t-10.5 -8.5t-11.5 -11.5t-9.5 -10t-10.5 -12t-9.5 -11t-4.5 -4t-4.5 -3.5t-6 -1.5t-8 1q-2 1 -8.5 7t-11.5 8l-19 16q-5 5 -16 13t-17 14q-2 3 -5 7t-5.5 7.5t-5.5 7t-5 7.5t-3 7l-39 76q-6 36 -6 43q-2 16 -2 47q-10 14 0 27q0 111 2 166l4 10q0 29 2 43q0 2 4 10v84v56 q0 21 -4 28q-2 4 -2 12q0 13 -4 17q-2 4 -2 12t-2 12q-2 3 -2.5 12.5t-1.5 12.5q-5 9 -13 29t-12 28l-37 35l-18 10q-12 6 -17 11z" />
<glyph unicode="|" horiz-adv-x="630" d="M131 1430q0 20 4 30q0 3 1 10t1 11q-2 25 -2 75v17q2 3 1 9t1 9q3 11 0 21v78q-2 10 -2 26l6 6q53 0 80 2q8 -4 10 -4q59 0 177 4l4 -4q2 -22 2.5 -61t1.5 -51q-4 -20 -4 -29q0 -12 1 -37.5t1 -38.5v-26q0 -5 -4 -13l6 -213q-4 -8 -4 -10q0 -86 2 -127q-4 -8 -4 -10v-64 q0 -40 -2 -47v-39l2 -4t2 -8q0 -1 -0.5 -2t-1.5 -3.5t-2 -4.5v-66q0 -2 -1 -6t-1 -6q0 -84 2 -125q0 -6 -1.5 -25t1.5 -20q2 -16 2 -49l-4 -12q0 -48 4 -142q0 -35 2 -53q0 -17 -4 -25q0 -2 4 -10q0 -1 -2 -5t-2 -7q0 -23 1 -67t1 -66q0 -7 -1 -22.5t-1 -22.5v-80l-5 -14 l5 -7q-5 -20 -5 -24q3 -41 3 -82q0 -2 -3 -9t-2 -10q0 -3 1 -8t1 -8q0 -4 -2 -8q2 -18 2 -57q-4 -4 -4 -5h-8q-139 -5 -168 -4q-10 0 -14 2q-1 0 -4 -1t-4 -1q-4 2 -8 2h-17t-23.5 1.5t-9.5 5.5v6q-4 102 -4 151v13q0 1 1 4t1 4q0 4 -2 6q2 2 2 8v51q0 26 4 33v27l-6 18 q0 10 -1 31t-1 33q0 14 -1 44t-1 46q0 8 4 20l-4 170q1 1 1.5 2.5t1 4.5t1.5 5v68q0 4 1 14t1 17.5t-2 11.5q4 15 2 21q0 2 -4 10q-2 5 2 20q2 20 2 66q0 1 1 3t1 3q-4 6 0 18v88q0 5 4 9q0 213 -12 249q0 5 -1 20t-1 23v15q2 3 1.5 7.5t0.5 6.5q0 4 2 6q-4 98 -4 150 q0 5 -1 15.5t-1 15.5z" />
<glyph unicode="}" horiz-adv-x="735" d="M84 1626q8 8 19.5 28.5t19.5 28.5q6 11 20.5 32t20.5 32q0 2 4 6q13 18 16 23l19 20q4 9 8 10q62 -20 113 -77l18 -21l6 -20q9 -18 21 -54q1 -4 2.5 -9t2.5 -10t1 -9q6 -8 6 -29q4 -8 4 -12q2 -14 2 -45q0 -2 1 -6.5t1 -6.5q0 -1 -1 -4.5t-1 -5.5q0 -6 2 -8v-6 q-3 -6 2 -21q0 -43 2 -63q0 -6 1 -16.5t1 -16.5q2 -4 2 -27q2 -37 2 -110v-8l4 -11q0 -16 3 -34q0 -6 2 -18.5t2 -18.5q0 -11 2 -15q0 -2 1 -5.5t1 -4.5q-1 -3 0.5 -8t1.5 -6q0 -20 20 -60q16 -16 19 -24q22 -27 37 -33q3 -2 13.5 -8.5t19 -10t16.5 -3.5q4 -1 14 -4.5 t16 -4.5q0 -1 1 -4t1 -4v-235q-4 -21 -34 -21q-6 -2 -21 -10t-24 -10q-11 -7 -43 -39q-3 -5 -8 -13.5t-7.5 -14t-5 -14.5t-2.5 -20q-3 -5 -6 -15t-6 -15v-25q-3 -6 -4 -13.5t-1 -16t-1 -13.5v-59l-4 -13v-78q4 -8 4 -28q1 -3 1 -8.5t1 -9.5t4 -7v-92l-4 -12q0 -4 -1 -12.5 t-1 -12.5l-4 -10q0 -3 -1.5 -10t-1.5 -11q-2 -4 -4.5 -9.5t-5 -11.5t-4.5 -11q-1 -4 -5.5 -13t-4.5 -16l-19 -31q-1 -3 -8 -10.5t-8 -13.5q-5 -5 -17.5 -20.5t-21.5 -22.5q-3 -2 -10 -5t-12 -6.5t-9 -7.5q-2 -1 -5.5 -3.5l-7 -5t-5.5 -3.5l-37 -18q-4 2 -8.5 8t-8 13 t-3.5 13q0 3 -2 9t-2 8q-1 3 -1 9t-1 9q-7 21 -15 37q0 1 -1 4t-1 4l-12 41q-6 18 -6 19q0 4 -3 10.5t-3 9.5v4q2 6 6 12t10.5 13t9.5 12q15 29 31 51q5 20 8 23q2 7 7.5 27t8.5 37t3 36l6 12v175l-6 12v115q6 6 6 55l2.5 5t2.5 6t1 7q-3 5 4 15q0 1 1 4.5t1 5.5 q3 18 7 30.5t8 18t14 18.5q8 5 53 25l6 8v6l-16 17l-35 18l-29 37l-18 35q-2 4 -3 12t-3 12q-9 18 -9 50v98q7 14 7 35v243q-1 3 -1.5 7.5t-1 7.5t-2.5 6q0 4 -2 6q0 21 -2 31q0 5 -2 14t-2 14t-4 13.5t-4 13.5q-7 13 -10 27q-6 15 -17 26q-6 3 -10 11q-13 13 -28 22l-39 27 l-25 12q0 4 -2 6z" />
<glyph unicode="~" horiz-adv-x="823" d="M94 743v7l37 34q5 4 13.5 11t15.5 13t12 11q3 1 8 4t6 4q3 7 25 15q21 14 39 14q0 2 14.5 1l14.5 -1l61 -31q2 0 6 -4q5 -3 11 -6.5t11.5 -6t12.5 -6t12 -5.5h17q5 0 13 -2.5t12 -2.5t14 3q7 1 15 4.5t13 6t14.5 8t12.5 7.5l20 19q13 13 19 16q4 0 4 -2q4 -2 9.5 -4.5 t10.5 -4.5t10 -4.5t10 -5.5t9 -6q1 -3 12 -8q9 0 25 -12q26 -17 39 -21l4 -8v-8q-7 -14 -17 -24q-1 -1 -16.5 -21.5t-26.5 -28.5q-6 -3 -17 -10.5t-22 -13.5t-22 -10q-21 -7 -41 -7q-30 -6 -33 -6h-35l-10 6h-20l-6 3t-7.5 3t-7.5 1q-2 0 -10 4l-53 26q-7 -1 -22 2t-23 2 q-14 -4 -22.5 -7t-17 -7.5t-11 -6t-13.5 -9.5t-16 -11q-2 2 -8 2q-5 2 -14 9.5t-15 9.5q-6 7 -17 15t-20.5 15.5t-15.5 16.5q-3 4 -11 11t-12 7z" />
<glyph unicode="&#xa0;" />
<glyph unicode="&#xa1;" horiz-adv-x="622" d="M137 -92q2 12 2 37v14q0 4 1 14.5t1 14.5q0 14 4 20q0 7 -2 15q0 1 1 2t1 2q-1 6 1 18t1 18q0 1 1.5 4.5t1.5 4.5q0 2 1 5.5t1 4.5q0 5 2 15.5t2 18.5t-4 13q2 4 2 12v23q0 6 2 16t2 15q0 20 2 24v8q0 9 2 26t2 26q-1 2 0 6.5t0 7.5q2 4 2 16v23q0 6 2 17.5t2 17.5 q0 10 2 16v61v21v10q0 7 2 23t2 24q6 21 6 43q0 4 2 6v11q0 3 -1 10t-1 10q2 6 2 19q0 6 1 15.5t1 14.5q1 2 1.5 9t2.5 10v16q0 3 1.5 9.5t1.5 9.5v18q2 8 2 25q0 8 4 20v8q0 1 1 3.5t1 4.5q4 0 8 4q2 -2 6 -2l23 7q7 -5 18 -5q18 0 39 7h14h10q20 0 23 2q9 -2 21 -1t20 -1 q0 -9 4 -25q0 -1 -1 -3.5t-1 -4.5v-4l4 -37q0 -2 -1 -6t-1 -6l4 -19q0 -2 -1 -7.5t-1 -8.5q0 -4 2 -13t2 -14q0 -15 2 -18q-1 -2 -0.5 -9.5t-1.5 -9.5q2 -3 2 -22q0 -13 2 -19q-4 -18 2 -37q0 -4 1 -13t1 -13v-64q0 -1 2 -12t0 -12q0 -5 5 -25v-51q0 -9 2 -24t2 -25 q0 -4 -4 -8v-107l2 -4q-5 -26 2 -47v-16q0 -5 2 -7q-2 -6 -2 -20v-123q0 -16 -2 -22q0 -1 -1 -2.5t-1 -2.5q0 -2 1 -6t1 -6q-2 -4 -2 -12v-14l-7 -25q-2 -1 -6.5 -1t-7.5 -1h-10q-11 0 -15 -2h-12q-2 0 -6.5 -1t-7.5 -1h-33h-14h-13q-6 -2 -18 -2q-2 -1 -5 0.5t-5 1.5 q-6 -3 -12 0h-17q-8 -2 -18 2q-1 0 -6 -1.5t-9 -0.5q-8 0 -14 2h-20q-1 0 -3.5 1t-3.5 1q-1 1 -3.5 0t-4.5 0v39zM178 1122q2 6 4.5 14.5t3.5 11t2.5 7t2.5 7t2.5 5.5t4 6.5l5 7t7 11t9.5 14.5q2 2 5 3.5t5.5 3.5t5.5 3.5t5 4t4 4.5q10 10 20 10q1 0 19 6q18 0 22 -2h12 l7 -4q3 0 9 -1t9 -1l16 -8q3 -2 9 -11.5t12 -11.5q12 -18 12 -26q10 -33 10 -54v-6q-2 -4 -2.5 -8t-0.5 -9t-1 -9l-6 -11q0 -1 -1 -4.5t-1 -5.5l-8 -16q-2 -2 -7.5 -8t-6.5 -9q-2 -3 -5 -5.5t-7 -5t-5 -3.5q-4 -2 -11.5 -7t-14.5 -8.5t-13 -5.5q-6 0 -22 -4q-5 -2 -33 -2 q-19 3 -41 21l-20 20q-15 33 -15 54v12q3 10 -2 20z" />
<glyph unicode="&#xa3;" horiz-adv-x="1210" d="M92 250q0 2 1 5.5t1 4.5q-1 2 -0.5 6t-1.5 6q2 6 2 19q0 5 1 13.5t1 12.5v15q3 4 7 6.5t10.5 4t7.5 1.5h10q16 4 23 4h24q8 0 12 2h3q4 0 40 6q28 0 33 2q9 -3 19 0q3 0 9.5 7.5t8.5 11.5q0 45 -2 65q0 11 2 17q0 2 2 2v14q0 10 2 14v17v16q0 2 -1 7.5t-1 7.5v18q1 3 1 7 v7.5t1 7.5t2 7l-6 16q-18 12 -20 14l-7 -4q-5 0 -13 -1t-14.5 -1t-12.5 2q-17 0 -25 2h-23h-20q-2 1 -8.5 1.5t-9.5 2.5h-13l-8 15q-2 12 -2 39q0 12 2 37.5t2 37.5q0 7 2 11q-4 8 -4 28h6q13 0 45 9q3 -1 7.5 -1.5t8.5 0t9 1t8 0.5q5 1 12 1.5t14 1.5t13 3q7 -4 14 0 q7 -1 21 0t20 0q4 2 5 5t1.5 7t1.5 6q2 2 2 12l-4 5q5 25 4 30q4 9 5 30t4 30q-1 3 0 9.5t0 10.5v4q2 8 2 27v31q-1 5 0.5 13t1.5 11q0 1 -1 3.5t-1 4.5v25q0 2 1 6t1 6q0 7 3 22.5t3 22.5v33q2 7 3.5 19t3.5 22.5t5 17.5q-1 6 4 41q3 9 10.5 27t10.5 27l12 24q4 5 7.5 12 t7.5 16t6 13q7 11 10 19q17 30 28 41l27 22q2 2 12.5 8t12.5 11q2 2 4 2q5 0 13 7t15 7l23 8q38 13 53 16q2 0 6 1.5t6 1.5l2 1q3 1 5 1t4 -2q3 2 11.5 2.5t12.5 3.5q5 0 16 2t17 2q23 0 33 2q12 0 16 -2q2 -1 5 0t5 0q9 0 33 -4q6 -3 17 -6.5t14 -4.5q22 -4 31 -8h8 q4 -4 6 -4l18 -8q7 0 9 -2l30 -21q3 0 15 -4q8 -7 27 -20t28 -21l10 -10q0 -6 8.5 -18t8.5 -19q3 -4 16 -30l14 -35v-6q2 -4 2 -13q11 -22 11 -30q-4 -8 2 -11q-2 -6 -2 -16q0 -21 -2 -25q0 -2 2 -4v-12q-2 -4 -2 -12q0 -19 2 -29q0 -1 -1 -3t-1 -3v-4q4 -78 4 -117 q0 -8 -2 -10h-21q-2 2 -10 2q-2 0 -8 1.5t-9 0.5q-12 0 -16 2h-45q-1 0 -3 -1t-3 -1t-3 1t-3 1q-4 -2 -12.5 -1.5t-10.5 -2.5q-12 4 -16 0q-21 4 -33 0q-6 2 -15.5 1.5t-15.5 0.5q-2 16 2 27q-5 11 -2 24q0 6 -2 8l2 4v4q0 1 -1 2.5t-1 2.5q0 10 -2 16q0 3 -1 8t-1 8 q-9 37 -10 39q-7 9 -14 27q-12 12 -15 14l-12 13q-16 8 -25 8q-6 0 -18 4q-3 0 -8 1t-8 1h-15q-6 -2 -16 2q-38 -14 -49 -21l-19 -36q-11 -23 -14 -41q0 -9 -2 -13q0 -4 -4 -16q-2 -6 -2 -35q0 -6 -1 -17t-1 -18q0 -6 -2 -8v-2q-1 -2 0 -5t0 -5v-12q2 -3 2 -5.5t-1 -5.5 t-1 -4v-28q0 -13 -2 -21q0 -1 1 -3t1 -3q0 -4 -2 -6v-23q1 -5 1 -11.5t-0.5 -13.5t-0.5 -10v-39l-2 -2q2 -4 2 -12q3 -1 8 -4t6 -4q6 0 10 4q4 -2 12 -0.5t9 -1.5q4 2 6 2q1 0 3 -1t3 -1q8 1 22.5 -1t22.5 -1q2 0 7 -1t7 -1q6 0 14.5 -1t12.5 -1q10 0 14 -2h27q2 -3 2 -6 t-1 -7t-1 -6q0 -4 2 -8q-2 -4 -2 -18q0 -6 -1 -18t-1 -17q0 -6 -1 -17t-1 -16v-18q1 -2 0.5 -8t1.5 -9q-2 -6 -1.5 -15t-0.5 -15l-8 -7q-11 0 -17 -2l-30 -4q-14 -2 -40.5 -2.5t-35.5 -1.5h-13q-2 0 -6 1t-6 1l-16 -8l-2 -4v-45q-2 -6 -2 -23q2 -8 2 -17t-1 -19.5t-1 -16.5 v-18q0 -4 -2 -6q5 -21 -2 -50q2 -3 2.5 -10.5t1.5 -9.5q4 -4 4 -6q8 -2 20 -8q6 0 21 1t22 1q1 0 14.5 2.5t14.5 -2.5q9 5 14 2h4q7 0 21.5 -2t21.5 -2h23q4 -2 12 2q2 -2 8 -2q3 2 9.5 1t9.5 1q2 -2 7 -1.5t7 -0.5h10q21 0 25 -2q35 0 53 2q2 2 4 2q11 -4 17 -2q3 0 7.5 1 t6.5 1h12h7q22 0 30 2q3 0 6 -0.5t5.5 -0.5t5.5 -0.5t6 -0.5q2 -4 2 -15q-3 -7 -1.5 -23.5t-0.5 -25.5q0 -1 1 -3t1 -3q-4 -8 0 -12q-1 -3 0.5 -11.5t-0.5 -11.5v-8q0 -21 -2 -31q0 -3 -1 -12t-0.5 -16t3.5 -13v-26q0 -2 1 -6.5t1 -6.5q-2 -3 -2 -20l-4 -8l-2 -2h-29 q-1 0 -5 -1t-7 -1q-4 2 -8 2q-16 -3 -29 0q-2 0 -5.5 -1t-4.5 -1q-21 0 -31 -2q-13 0 -19 -2h-10q-4 0 -14 1t-14 1h-15q-5 0 -13 -2t-13 -2q-4 2 -17 2q-8 0 -14 2h-37h-14q-20 -2 -62 -2q-20 -2 -59 -2q-5 0 -8 -3q-4 -1 -7.5 -1t-7.5 0.5t-6 0.5q-4 1 -11.5 1.5 t-10.5 1.5q-2 -1 -6.5 0t-6.5 0l-2 -3h-24q-12 -4 -23 -4h-4q-23 6 -43 -2l-6 4l-6 -4q-2 2 -8 2q-2 2 -11 2q-4 -2 -18 -2q-10 0 -16 -2q-13 0 -19 -2q-1 0 -3.5 1t-4.5 1q-4 1 -15.5 0.5t-15.5 1.5q-2 0 -7 -1t-7 -1q-3 0 -7.5 -1t-6.5 -1h-15q-3 0 -8 -1t-8 -1h-31 q-4 -2 -6 -2h-41q-29 0 -43 -4q-4 2 -13.5 3t-13.5 3q-4 8 -4 29q0 17 2 20v13q-4 8 -2 12q0 2 -1 6t-1 6q4 8 0 15v14v27q0 2 -1 6t-1 6z" />
</font>
</defs>
</svg>
