<?xml version="1.0" standalone="no"?>
<!DOCTYPE svg PUBLIC "-//W3C//DTD SVG 1.1//EN" "http://www.w3.org/Graphics/SVG/1.1/DTD/svg11.dtd" >
<svg xmlns="http://www.w3.org/2000/svg">
<metadata></metadata>
<defs>
<font id="aracne_lightregular" horiz-adv-x="827" >
<font-face units-per-em="2048" ascent="1638" descent="-410" />
<missing-glyph horiz-adv-x="507" />
<glyph horiz-adv-x="2048" />
<glyph horiz-adv-x="2048" />
<glyph unicode="&#xd;" horiz-adv-x="2048" />
<glyph unicode=" "  horiz-adv-x="507" />
<glyph unicode="&#x09;" horiz-adv-x="507" />
<glyph unicode="&#xa0;" horiz-adv-x="507" />
<glyph unicode="!" horiz-adv-x="331" d="M0 1395l4 12l-4 6q4 8 4 14h6q17 -24 17 -32h-4q0 -4 4 -4q0 -3 -4 -11l18 -229v-14l2 -21h-2l2 -6v-33q0 -33 -2 -49q10 -92 10 -170h-4l4 -6v-18l4 -37h-4l4 -9v-16q0 -2 -4 -2l4 -8q-4 -98 -4 -111l17 -200l-5 -7q7 -29 19 -243h-4q4 -12 4 -13q0 -4 -4 -4l4 -16v-25 h-12q-4 0 -11 13v92q0 4 4 4q-8 13 -8 37h4l-4 8q0 47 -8 94h4l-4 8v4q0 4 -4 82h4q-6 21 -6 56h2l-12 118l2 7q0 4 -2 4l6 106l-4 12h4l-4 9v39q0 12 -2 16q0 2 2 2l-6 59h4l-4 9q0 4 4 4l-4 6q-1 48 -2 98.5t-1.5 76.5t-0.5 36l-5 10l5 8l-17 164h4q-7 17 -10 70zM43 14 v17q0 25 12 28q29 0 45 -28q-3 -31 -30 -31h-11q-8 0 -16 14z" />
<glyph unicode="&#x22;" horiz-adv-x="438" d="M25 1221q4 36 4 49v41q0 32 8 43l-8 2l4 22l-4 25l4 14q-4 4 -4 8q0 2 4 2l-4 15q0 4 4 8q0 2 -4 2l4 14q0 7 -4 11l4 16q0 4 -4 8l4 6q0 7 -4 11q4 28 4 36v13h8l22 -11l-4 -22q0 -6 4 -18l-8 -66q4 -4 4 -6h-4l4 -6q0 -9 -4 -21q3 -62 8 -67q-4 -24 -4 -27v-57 q0 -13 4 -49q-3 -23 -14 -23h-4q-11 0 -20 27zM174 1221q4 36 4 49v41q0 30 10 43l-10 2l6 22l-6 25l6 14q-6 3 -6 8q0 2 6 2l-6 15q0 5 6 8q0 2 -6 2l6 14q0 8 -6 11l6 16q0 5 -6 8l6 6q0 8 -6 11q6 21 6 36v13h9l20 -11l-2 -22q0 -12 2 -18l-6 -66q4 -4 4 -6h-4l4 -6 q0 -9 -4 -21q3 -64 6 -67q-2 -12 -2 -27v-57q0 -31 2 -49q-3 -23 -12 -23h-4q-14 0 -23 27z" />
<glyph unicode="#" horiz-adv-x="1597" d="M0 825q0 4 10 11h82q4 0 4 -2l8 2q2 0 2 -2l9 2h22q4 0 4 -2l6 2h13q4 0 4 -2l6 2q113 -2 258 -2q6 0 12 2q4 0 4 -2l19 2h10q-1 27 -2 61t-1.5 52t-0.5 28q-2 4 -2 10h2l-2 8v78q0 8 -4 74h4q-4 8 -4 10q-8 133 -8 168q-4 8 -4 10l18 4q0 -6 16 -12q0 -2 -4 -2 q4 -54 4 -59q0 -53 11 -293h-4l4 -6v-123q3 -8 8 -8h20q25 0 27 -2q14 2 35 2h84q4 0 4 -2q4 0 4 2q53 -2 119 -2h20l23 2q4 -2 22 -2l19 2v-2l8 2h33q5 0 55 4v41q0 4 4 4l-4 8q0 7 6 25q0 4 -2 4l10 100l-4 6q3 27 8 27q0 4 -4 4l13 102l-5 19v53q0 5 -4 33q0 4 4 4l-4 18 v39q0 8 9 8q3 0 20 -14l-2 -23q0 -98 2 -161q-18 -138 -18 -252h-2q0 -4 2 -4l-2 -27v-14h69l19 4v-4l8 4h47l27 4v-4l6 4h178q1 0 63 4v-4l6 4h5q8 -3 8 -8q0 -14 -19 -23q-22 3 -22 8l-8 -4h-52l-18 -4v4l-6 -4h-127q-6 0 -14 -4q-5 0 -5 4q-23 -2 -41 -8q-4 0 -4 4 l-18 -4h-51q-11 0 -15 -2q-6 2 -16 2l-18 -2q0 2 -2 2q-3 -39 -6.5 -74t-5 -49.5t-1.5 -15.5q0 -4 4 -4l-4 -27v-51q0 -4 -4 -4q0 -2 4 -2q0 -1 -4 -13l4 -36h-4l4 -9v-10q0 -4 -4 -4l4 -6v-4q0 -32 -4 -68q4 -28 4 -55h41q7 0 15 -4l8 4l28 -4l27 4q4 0 4 -4l19 4h14 q4 0 4 -4q2 0 2 4l21 -4l32 4q1 0 3.5 -0.5t8 -1.5t11.5 -2q20 4 28 4v-4l9 4q4 0 4 -4q4 0 4 4q21 -3 158 -6q8 -11 8 -21q-15 -6 -15 -10q-120 10 -292 10h-5q-42 0 -65 -2q-8 2 -53 2h-19v-213q0 -4 -4 -4q0 -4 4 -4q-3 -115 -18 -115h-4q-6 0 -15 15l13 55q0 4 -4 4 l4 27v37q0 10 2 14l-2 8l2 6q-2 4 -2 17h2q0 4 -2 4q2 23 2 53v41q0 4 4 4q-6 15 -6 37l2 8q-2 4 -2 10h-64l-22 -4l-9 4l-6 -4l-8 4q-4 0 -4 -4l-18 4h-29q-4 0 -4 4q-4 0 -4 -4q-3 0 -11 4q-81 -8 -178 -8q-4 0 -32 4q-5 0 -5 -4l-18 4h-59v-28q-9 -89 -9 -101v-92 q0 -4 -2 -4q0 -4 2 -4q-3 -129 -24 -129h-4l-10 6q9 94 14 94q0 4 -4 4q4 82 4 93v45q0 2 4 2q0 4 -4 4q6 68 6 114h-25q-4 0 -4 5l-8 -5h-6q-12 0 -12 5l-19 -5h-33q-4 0 -4 5l-6 -5h-37q-7 0 -73 -4v4l-9 -4h-12q-85 0 -125 -6v2l-8 -2h-20q-10 0 -13 19q17 10 49 10v-4 q8 4 11 4q4 0 20.5 0.5t50.5 1.5t70 2q8 4 10 4v-4l8 4h125l23 2q4 -2 18 -2h29v2q0 38 4 58q-4 70 -4 100v47q0 2 4 2l-4 12l4 8l-4 7l4 8q-4 8 -4 10h4l-4 8q0 4 4 4l-4 7v8q0 4 4 4q0 4 -4 4l4 24v111l-18 -2h-97q-6 0 -14 -4l-6 4q-4 0 -4 -4l-19 4h-26q-25 0 -41 2 q-4 0 -4 -2l-23 2q-73 0 -117 -6v4l-8 -4h-4q-92 0 -92 18zM496 389l36 -4h37q4 0 4 -4q5 0 5 4q74 -4 81 -4l33 4l6 -4q12 4 17 4q8 0 8 -4l65 8q47 -6 97 -8l8 4l6 -4l37 4v-4l8 4h14l9 -4l2 8l-2 25h2l-2 8v65q0 13 -4 21l4 20v33q0 12 -4 12l4 19v63q0 4 2 4q0 3 -2 3 l2 26v27q0 4 4 4l-4 6v10q0 4 4 4q0 4 -4 4l8 70l-19 -2v2l-8 -2h-43q-10 0 -14 -4q-4 0 -4 4l-45 -4h-45q-147 6 -160 6h-84q-10 0 -14 -2l-9 2q-14 -2 -32 -2h-4q0 -18 4 -18q-4 -50 -4 -58v-121l4 -26h-4q0 -2 4 -2l-4 -21v-41q0 -7 4 -57l-4 -8q0 -4 4 -4l-4 -19v-47z " />
<glyph unicode="$" horiz-adv-x="1013" d="M0 336v2q0 8 6 8h4q14 0 23 -100q47 -96 110 -156q80 -65 224 -65q4 0 4 -5l47 9v96q0 2 4 2l-4 8v29q-15 188 -15 229h5q0 4 -5 4l9 156q-4 8 -4 10h4l-4 8v129q0 20 -105 115q-83 95 -135 250q-8 31 -8 47v51q0 83 114 221q94 64 111 64v-2q23 0 23 43v78q0 4 -5 14 q3 12 9 12q20 -3 20 -12q-4 -82 -4 -96l4 -15q-4 -8 -4 -14h4q49 3 55 6q159 -21 205 -73q96 -90 96 -170h-4q9 -9 15 -60l-15 -10h-8q-7 0 -16 100q-34 85 -117 144q-84 41 -156 41h-18l-18 -4v4q-29 -3 -29 -13q-3 -79 -8 -106q4 -46 4 -66v-90l4 -20q-4 -12 -4 -21l4 -16 h-4l4 -8v-9q0 -21 -8 -100v-4q0 -3 4 -53h-4l4 -8v-64q0 -6 4 -14q0 -4 -4 -4q4 -50 4 -56v-37q0 -23 45 -49q293 -188 293 -424q0 -85 -142 -200q-105 -55 -167 -64v-16q0 -9 4 -17q0 -4 -4 -4l4 -16v-35q0 -25 4 -151q-3 -19 -10 -19h-13q-8 0 -8 6v54q0 4 4 4l-4 6v51 q0 72 -2 131q-36 -3 -41 -8q-28 4 -33 4h-35q-2 0 -2 4l-8 -4q-174 40 -174 74q-44 29 -92 104q-41 71 -41 160zM178 1112q10 -88 84 -205q36 -71 141 -157v4q-4 118 -4 139h4l-8 45q0 2 4 2l-4 21v147q0 6 -4 14l4 8q0 5 -4 5q0 2 4 10q-1 17 -2 38.5t-1.5 33.5t-0.5 18 q0 1 0.5 2t1.5 3.5t2 4.5l-4 15q8 91 8 159q4 0 4 2h-4q-75 0 -166 -129q-55 -91 -55 -153v-4q0 -13 2 -17zM426 379q3 -26 14 -160h-4l8 -43l-4 -8l4 -33q0 -8 -4 -8l9 -96q98 31 157 67q129 108 129 189q0 147 -153 297q-33 28 -156 116v-24l2 -27h-2q3 -6 6 -51 q0 -8 -4 -8l4 -37v-92q0 -4 -4 -4q0 -4 4 -4q-6 -49 -6 -74z" />
<glyph unicode="%" horiz-adv-x="856" d="M-37 950q0 100 72 125q46 21 67 21q110 0 148 -115l4 -31q0 -89 -94 -147q-42 -10 -43 -10q-154 35 -154 157zM2 911q50 -84 119 -84q0 -6 4 -6q100 26 100 135q-30 105 -104 105l-29 4q-90 -18 -90 -98v-31l4 -25h-4zM143 8q0 18 41 139q91 320 131 453q107 328 107 371 q57 197 57 233q25 109 66 228l8 4h6q8 0 8 -13q0 -16 -49 -170q-130 -556 -223 -809q-54 -224 -119 -419v-17h-4l-8 4q0 -12 -8 -12h-4q-9 0 -9 8zM451 453q0 98 71 122q46 21 68 21q110 0 145 -115l6 -28q0 -91 -96 -150q-38 -10 -43 -10q-151 35 -151 160zM489 412 q50 -84 119 -84q0 -4 4 -4q101 27 101 133q-30 104 -105 104l-28 4q-91 -19 -91 -98v-31l5 -24h-5z" />
<glyph unicode="&#x26;" horiz-adv-x="806" d="M0 227q3 45 6 45q0 4 -2 4q6 121 107 312q10 3 30 57q10 3 39 60q-69 195 -69 337q-10 20 -19 97q0 4 4 4l-4 33q0 255 109 290q3 0 41 9h28q60 0 121 -52q53 -65 53 -186q-15 -129 -59 -236q-45 -85 -74 -129l-104 -167q87 -218 131 -308q106 -171 174 -239 q10 -13 10 -19q38 32 76 178q6 70 27 70l12 -14q0 -59 -68 -219q-24 -27 -24 -41q98 -91 98 -101l-10 -6h-8q-37 27 -101 88q-82 -114 -272 -114h-19q-84 0 -165 63q-58 55 -58 100q-7 29 -10 84zM31 223q0 -118 39 -147q64 -70 159 -70q158 0 230 60q49 37 49 51 q-206 256 -246 385h4q-21 40 -69 174h-4q-138 -218 -162 -381q0 -4 2 -4l-2 -37v-31zM119 1106q0 -2 2 -15.5t8 -49.5l12 -72h-4l6 -17l-2 -6l52 -211h8q0 11 125 203q68 116 96 303q0 152 -92 193q-50 16 -56 16h-32q-109 -21 -109 -137q-11 0 -14 -183v-8l4 -16h-4z" />
<glyph unicode="'" horiz-adv-x="239" d="M25 1221q4 36 4 49v41q0 32 8 43l-8 2l4 22l-4 25l4 14q-4 4 -4 8q0 2 4 2l-4 15q0 4 4 8q0 2 -4 2l4 14q0 7 -4 11l4 16q0 4 -4 8l4 6q0 7 -4 11q4 28 4 36v13h8l22 -11l-4 -22q0 -6 4 -18l-8 -66q4 -4 4 -6h-4l4 -6q0 -9 -4 -21q3 -62 8 -67q-4 -24 -4 -27v-57 q0 -13 4 -49q-3 -23 -14 -23h-4q-11 0 -20 27z" />
<glyph unicode="(" horiz-adv-x="403" d="M0 807q4 0 4 4l-4 6q3 121 6 121q0 140 123 395q9 46 123 148q15 -6 18 -15v-8l-65 -61q-178 -272 -178 -553v-15l-4 -8q4 0 4 -4v-12q0 -1 10 -209l4 -18q-4 0 -4 -5q7 -77 26 -137q20 -183 181 -456v-9q-6 -12 -11 -12h-4q-31 41 -45 80q-54 88 -106 235q-21 78 -27 78 q0 4 4 4q-34 92 -55 451z" />
<glyph unicode=")" horiz-adv-x="438" d="M0 1458v8q3 9 18 15q114 -102 123 -148q121 -257 121 -395q2 0 8 -121l-4 -6q0 -4 4 -4q-21 -359 -55 -451q2 0 2 -4q-3 0 -24 -78q-50 -144 -107 -235q-14 -38 -45 -80h-4q-4 0 -10 12v9q160 271 180 456q16 56 26 137q0 5 -4 5l4 18q3 53 5.5 104t4 75t1.5 30v12 q0 4 4 4l-4 8v15q0 279 -176 553z" />
<glyph unicode="*" horiz-adv-x="573" d="M-2 1202q0 11 174 148q-97 60 -143 118q16 13 28 13q26 -34 119 -99l2 45v17q0 32 -6 47q0 32 27 41q10 0 10 -68v-37q0 -8 -6 -8l2 -6v-14q0 -4 -2 -4q2 -4 2 -19q119 88 131 88q8 4 14 4v-12q-11 -20 -18 -20l-8 4q-22 -25 -109 -82q72 -66 178 -141v-7q0 -9 -18 -12 q-41 23 -170 125h-2v-2q0 -9 2 -23l-2 -8q0 -6 2 -6q-2 -18 -2 -41q0 -5 6 -119q-11 -8 -23 -8q-3 23 -10 23q0 4 2 4q-2 25 -2 55v14q0 13 -4 13l4 18v80l-115 -90q-10 -13 -49 -39h-8q-6 0 -6 8z" />
<glyph unicode="+" horiz-adv-x="700" d="M-14 707l14 18q27 -3 27 -8l12 4l20 -4q20 4 27 4q5 -1 10.5 -2t8.5 -1.5t4 -0.5q4 0 4 4l16 -4h121q-12 217 -31 270l10 8h17q13 -47 20 -127h-2l2 -6q0 -4 -2 -4l2 -18v-9q0 -73 8 -106q-4 0 -4 -4l9 -4h10l18 4v-4l8 4h78l23 4q4 0 4 -4q53 3 69 8q25 -3 25 -12 q-10 -19 -33 -19h-73l-23 -4q-4 4 -23 4q-2 0 -2 -4l-18 4l-45 -4v4q-23 0 -23 -36q-4 -36 -4 -70q0 -6 0.5 -18t1.5 -34t2 -40l-14 -13h-4q-7 0 -10 31l4 6l-4 21h4l-4 6q1 29 2 64t1.5 54t0.5 29l-8 -4h-33q-4 0 -4 4l-8 -4q-4 0 -4 4l-7 -4h-4q-4 0 -4 4l-8 -4l-16 4 l-21 -4l-6 4l-47 -6v2l-8 -2q-86 0 -86 15z" />
<glyph unicode="," horiz-adv-x="266" d="M0 45q0 47 47 47h6q43 0 43 -35q13 -16 13 -41q0 -108 -89 -161q-8 13 -8 36q41 49 60 80l-4 9v4q0 4 4 4l-4 8l4 20l-11 -8h-41q-20 14 -20 37z" />
<glyph unicode="-" horiz-adv-x="669" d="M14 680v4q0 9 37 18q54 -4 72 -4h59q47 0 60 -8l2 8l35 -4l32 4l23 -4q8 4 10 4q4 0 4 -4l19 4q6 0 14 -4q4 0 4 4l18 -4q7 0 15 4l22 -4q7 0 15 4l8 -4q6 0 14 4q46 -4 51 -4h21v-6l-17 -18l-32 4q-7 0 -27 -4l-92 6q-4 -2 -10 -2v2l-9 -2q-18 0 -28 2q-90 -3 -96 -6 q-32 4 -41 4h-82q-16 0 -70 -4q-31 3 -31 10z" />
<glyph unicode="." horiz-adv-x="290" d="M4 55q0 25 39 51h39q37 -21 37 -57v-6q0 -42 -37 -57q-78 21 -78 69z" />
<glyph unicode="/" horiz-adv-x="559" d="M0 8q0 18 41 139l129 453q106 325 106 371q60 208 60 233q21 105 63 228l9 4h8q8 0 8 -13q0 -16 -49 -170q-130 -556 -223 -809q-54 -224 -119 -419v-17h-4l-9 4q0 -12 -8 -12h-4q-8 0 -8 8z" />
<glyph unicode="0" horiz-adv-x="862" d="M0 403q4 8 4 15v14q0 12 -4 12l4 19v78q0 10 2 14l-2 6q0 313 47 580q14 72 101 180q70 55 133 55h37q156 0 270 -170q86 -180 86 -358l-4 -8q0 -4 4 -4l-4 -15q0 -3 4 -61q-18 -351 -55 -475q-20 -88 -115 -226q-83 -59 -119 -59h-55q-88 0 -207 88q0 6 -27 27h-4 q15 -12 15 -23q-39 14 -93 150q-8 23 -14 110h2l-2 6v31q0 6 -4 14zM23 444q0 -220 65 -288q63 -60 68 -60q92 -69 211 -69h14q49 0 133 84q61 94 88 211q32 146 49 374q0 2 -4 2q8 60 8 86q-4 12 -4 13h4l-4 6q1 19 2 42t1.5 35.5t0.5 18.5q-18 159 -67 266 q-40 99 -152 162q-58 27 -98 27h-57q-69 -6 -140 -74q-57 -93 -67 -152q-37 -136 -37 -243v-19q0 -4 -4 -4q0 -4 4 -4l-4 -18v-4q-7 -171 -10 -355l4 -8q-4 -28 -4 -29z" />
<glyph unicode="1" horiz-adv-x="600" d="M0 756q0 12 201 299q75 100 157 223q49 61 56 61h4q18 -7 26 -32v-142q0 -6 -4 -14q4 -8 4 -14q0 -4 -4 -4l4 -9l-2 -10t-1.5 -7t-0.5 -3l4 -27h-4l4 -8v-37q0 -6 -4 -14q0 -4 4 -4l-4 -19v-8q0 -6 9 -6q0 -4 -5 -4q2 -138 11 -315h-4q0 -3 4 -3q-3 -83 -6 -98l2 -6 q-2 -4 -2 -14q0 -7 2 -13q-3 -32 -7 -32q0 -4 5 -4l-5 -43v-58q0 -57 -4 -143q4 -36 4 -96l5 -19h-5l5 -6v-80l2 -16h-2q0 -4 2 -4q-3 -27 -11 -27h-8q-5 0 -14 43q-4 0 -4 4q8 0 8 8v45l-8 -4h-2l10 15v67l-4 19h4l-4 8v94q0 4 4 4l-4 8q0 4 4 4l-4 19v10q0 4 4 4l-4 6 q0 4 4 4q0 4 -4 4q9 201 10 203q0 4 -2 4q2 29 2 64v86q0 74 -2 135q-4 0 -4 4q6 0 6 8l-6 4l4 19l-4 51q0 4 4 4l-4 19v110q0 4 4 4q-8 11 -8 19v69h-4v9h8q0 1 -0.5 4t-1.5 9.5t-2 14.5q1 18 2 40t1.5 34t0.5 18l-8 4q-39 -58 -92 -114q0 -11 -93 -133l-102 -152 q-74 -110 -113 -156h-4q-4 0 -10 13z" />
<glyph unicode="2" horiz-adv-x="876" d="M0 -2q0 41 111 235q88 164 174 289q132 236 270 457q82 134 82 211t-100 158q-56 26 -109 32q-110 0 -231 -65q-90 -78 -93 -115q-14 -34 -26 -119l-8 -4q-7 0 -7 8v25q9 99 37 141q51 77 156 119q68 31 133 37h37q102 0 188 -92q45 -77 45 -129v-8q-17 -84 -53 -152 q-52 -92 -178 -297q-132 -225 -240 -391q-25 -51 -102 -188q-55 -104 -55 -134h2l26 4v-4l9 4h38q11 0 17 3q4 0 4 -3q53 3 66 7l12 -4q21 1 43 2t33.5 1.5t15.5 0.5v-4l6 4h27q5 0 41 4l6 -4q1 0 2.5 0.5t5 1.5t6.5 2q90 -3 90 -8q3 0 11 4q102 -4 126 -4h60q6 0 6 -7v-16 l-2 -6q-28 4 -31 4q-4 0 -4 -4l-18 4h-56q-4 0 -4 2q-4 0 -4 -2q-55 7 -198 10q-8 -4 -15 -4v4q0 -5 -252 -14q-4 0 -4 4q-28 -6 -90 -8q0 8 -6 8z" />
<glyph unicode="3" horiz-adv-x="1013" d="M0 162v14q0 8 6 8q22 -6 31 -45q94 -125 178 -125q0 -9 74 -18h37q4 0 4 -4q4 0 4 4l14 -4q225 0 391 184q68 80 68 150q3 0 6 10q0 4 -2 4q23 84 23 180q0 112 -160 201q-98 33 -133 33h-23q-131 -25 -151 -25l-9 10q0 22 187 49q74 30 133 158q55 146 55 215 q0 83 -74 189q-82 67 -174 67q-230 0 -379 -168q-4 -2 -14 -2l-6 10v5q126 132 193 141q39 20 79 29v-5q13 4 93 13l8 -4q2 1 4.5 2t3.5 1.5t2 0.5v-4l8 4h10q157 0 228 -127q0 -7 -4 -15v-4h4v9q41 -62 41 -129v-37q-35 -207 -142 -326l-41 -35q49 0 170 -65 q115 -103 115 -193q0 -126 -51 -285q-99 -151 -234 -206q-60 -36 -137 -50q-69 -3 -74 -8l-22 4h-55q-4 0 -4 4q-2 0 -2 -4q-105 24 -105 29l-6 -2q-104 52 -168 162z" />
<glyph unicode="4" horiz-adv-x="833" d="M0 551q0 14 170 246l72 88q34 64 116 174q10 17 101 147q0 9 65 92q0 2 54 78q9 26 45 51q14 -14 20 -14q0 -2 -4 -10q2 -52 8 -100q-4 -8 -4 -19q0 -4 4 -4l-4 -14q-4 -200 -4 -203h-2q2 -6 2 -12q0 -11 -2 -11l2 -36v-46q0 -6 4 -14l-4 -8l4 -6l-4 -21q0 -2 4 -2 q-6 -37 -6 -108h-4l4 -6v-86q0 -7 -4 -15q4 -12 4 -14v-80q0 -2 -4 -2q6 -14 10 -14h12q7 0 15 4q4 0 4 -4l24 4h25l2 -17q-6 0 -14 -14l-9 4h-4l-16 -4v4l-8 -4h-41v-180q0 -9 -4 -17l4 -6l-19 -174q0 -4 4 -4l-4 -18v-60q0 -42 9 -69h-5l5 -9v-8q0 -4 -13 -10h-4 q-5 0 -14 18v19q0 8 -4 74h4l-4 8v14q0 4 4 4q-4 8 -4 10l4 27l-4 6l22 232q0 2 -4 2l4 18v113l4 6l-8 4h-41l-16 -4v4l-8 -4q-4 0 -4 4l-25 -4h-4q-80 0 -123 -6v4l-8 -4h-33q-69 0 -82 -13q-4 0 -4 5l-16 -5h-82l-23 5q-4 0 -4 -5l-18 5h-29q-4 0 -4 4l-8 -4h-11 q-8 0 -32 4l-8 -4q-23 10 -23 14zM41 565q169 -6 221 -6q0 -4 4 -4q0 7 37 10v-4q4 0 4 4q90 4 101 4h20q8 0 16 4q5 0 5 -4q65 9 79 9v-5l9 5h12q2 0 2 -5q22 7 37 9q2 -1 4.5 -2t3.5 -1.5t2 -0.5l12 4v84q0 4 4 16q-4 4 -4 14v29q0 4 4 4l-4 6q0 1 4 13l-4 22q8 107 8 162 h5l-5 8v84l-4 27h4q0 4 -4 4q4 50 4 55v18l-4 25h4q0 4 -4 4q8 55 11 141q-7 47 -7 93l-16 -25q-76 -92 -285 -399q-73 -112 -92 -131q-101 -139 -184 -267v-4z" />
<glyph unicode="5" horiz-adv-x="890" d="M0 174q6 14 10 14q70 -113 142 -141q71 -47 170 -47q173 0 301 152q75 141 75 258l9 108l-5 6q0 4 5 4q-9 111 -33 187q-21 93 -142 176q-140 51 -215 51q-147 -12 -147 -29q-75 -26 -102 -61h-9q-3 0 -12 12l4 27v14q0 61 4 131q-4 46 -4 97l4 6l-4 12q0 2 4 2l-4 21v88 q0 10 -4 92q14 26 137 26l17 2v-2l6 2h110q5 0 5 -2q4 0 4 2l26 -2h6l23 2q4 0 4 -2l37 2h147l19 4v-4q21 7 51 9l8 -5q10 5 15 5h8q8 0 8 -9q0 -20 -49 -20h-33q-9 0 -41 4q-8 -4 -14 -4v4q-4 0 -4 -4q-184 -4 -211 -4h-78q-74 0 -170 -8q4 -98 4 -111h-4l4 -6v-146l4 -36 h-4l4 -9v-4q0 -2 -4 -2q0 -4 4 -4l-4 -45v-78l-4 -8h8q115 53 129 53l100 11v-2q2 0 2 2q234 -41 234 -66q102 -57 141 -168q33 -109 33 -158v-22l4 -19h-4l4 -8v-16q0 -4 -4 -4l4 -8l-4 -9q4 -8 4 -10h-4q0 -4 4 -4l-4 -18v-27q0 -206 -129 -350l-45 -35q-115 -74 -229 -74 v4l-7 -4q-111 0 -237 97q-78 90 -78 108z" />
<glyph unicode="6" horiz-adv-x="862" d="M0 455l4 8q-4 8 -4 14h4l-4 6v37q14 136 43 264q0 38 80 174q41 87 184 281q108 123 144 129q0 9 36 18q9 0 9 -6q0 -11 -88 -63q-128 -134 -201 -258q-79 -114 -133 -248q-31 -112 -37 -193v-4h4q0 44 137 138q85 39 166 39v-3l8 3q2 0 2 -3q4 0 4 3q146 -21 207 -76 q98 -107 113 -211h-4q8 -16 8 -49q0 -206 -53 -336q-74 -109 -107 -109q-56 -41 -137 -41q-91 0 -207 72q-106 96 -115 147q-11 0 -32 88q-15 0 -27 142h2zM23 451q0 -49 24 -175q35 -103 117 -188q64 -64 190 -88q41 -3 41 -8q88 15 146 55q88 91 88 146q9 0 18 65l-4 8 q3 10 8 10q0 5 -4 5q12 67 12 122q0 9 3 15q0 219 -175 321q-37 14 -106 29q-4 0 -4 -2q-33 3 -39 6q-123 0 -238 -106q-77 -74 -77 -193v-22z" />
<glyph unicode="7" horiz-adv-x="890" d="M0 1348q0 3 18 18q7 0 13 -2q61 2 147 2l19 4v-4l8 4h2q10 0 18 -4l23 4h14q4 0 4 -4q4 0 4 4q3 0 11 -4l59 8l8 -4q40 4 51 4q9 0 41 -4q8 4 15 4v-4l8 4h10q14 0 96 -4l9 4l8 -4l20 4l8 -4q4 0 4 4l19 -4h10l37 4v-4l45 8v-4l6 4q10 0 13 -22q-85 -232 -123 -312 q-26 -78 -111 -292q-28 -62 -180 -519q0 -27 -37 -100q-46 -143 -59 -143q-6 0 -13 10q11 56 54 150q33 51 61 192q8 6 55 156q30 66 72 194q39 89 207 535q41 121 41 125h-4q-8 -4 -15 -4h-4q-4 0 -4 4l-6 -4h-96q-7 0 -17 -5l-8 5q-10 -5 -12 -5v5q-4 0 -4 -5l-21 5h-28 q-4 0 -4 4l-7 -4q-12 0 -12 4l-33 -4q-17 0 -66.5 -1t-160.5 -2.5t-209 -3.5z" />
<glyph unicode="8" horiz-adv-x="710" d="M0 287l4 14q-1 6 -2 11.5t-1.5 8t-0.5 3.5q21 140 133 317l100 150q0 4 5 14q-49 37 -101 119q-113 119 -131 252q0 94 72 151q0 10 69 64q83 47 152 47l27 -8q4 0 4 4q64 0 147 -74q17 -30 27 -43l-4 -8q12 0 18 -92q-18 -150 -203 -379q-15 0 -41 -39q35 -43 88 -82 q144 -163 156 -256q6 0 27 -162l-4 -18v-21q0 -2 4 -14q-12 -140 -37 -140q-47 -78 -219 -126q-187 0 -234 114q-55 146 -55 193zM23 295q0 -34 10 -64l-2 -8q13 -46 24 -75.5t29 -58t41 -44.5t57 -25.5t80 -9.5h8q70 3 166 64q82 46 82 153q4 0 4 33l-4 45h4l-4 8v27l-4 25 h4l-14 65h4q-14 91 -109 209q-58 70 -73 82q-13 4 -74 51q-92 -109 -184 -297q-45 -110 -45 -156v-24zM31 1163q9 -98 137 -248q37 -61 88 -100v-2q240 249 240 422v6q0 69 -60 123q-58 43 -147 43h-8q-114 0 -234 -147q-16 -37 -16 -84v-13z" />
<glyph unicode="9" horiz-adv-x="870" d="M0 1100q18 101 63 157q72 90 148 111q27 24 197 45v-4q8 4 10 4q4 0 4 -4l18 4h9q176 0 235 -96v-2q-18 0 -18 -137h-4q0 -4 4 -4l-29 -289v-19q0 -12 2 -12l-2 -18v-93q0 -10 2 -14l-2 -6q37 -364 37 -535h-4l4 -8v-92q0 -2 -4 -2q0 -4 4 -4l-4 -19v-53q0 -3 -11 -10h-8 l-4 18q0 15 4 97q-1 2 -2 5l-1.5 4.5t-0.5 2.5h4l-4 6l4 8q0 6 -4 6l4 27v10l-4 21h4l-4 6v22q0 5 4 5l-4 6v18q0 108 -10 166q0 4 2 4q-16 141 -16 219v15q0 1 -5 16q0 2 5 2q-7 34 -9 82l9 207l6 4l-4 6q8 24 8 31h-8q-79 -303 -295 -303q-165 0 -267 170q-63 129 -63 219 zM18 1092q27 -134 68 -203q105 -150 207 -150q0 -3 24 -6q197 0 271 234q55 146 55 213l-4 12h4q-4 8 -4 10l4 15q0 4 -4 4q3 30 8 30q0 2 -4 2q8 52 8 78q-50 45 -147 60q-35 0 -35 4l-6 -4h-12q-173 0 -295 -70q-76 -58 -119 -152q-15 -77 -19 -77z" />
<glyph unicode=":" horiz-adv-x="276" d="M4 55q0 25 39 51h39q37 -21 37 -57v-6q0 -42 -37 -57q-78 21 -78 69zM4 770q0 25 39 51h39q37 -21 37 -57v-6q0 -43 -37 -58q-78 21 -78 70z" />
<glyph unicode=";" horiz-adv-x="317" d="M68 770q0 26 38 51h37q39 -20 39 -57v-6q0 -44 -39 -58q-75 21 -75 70zM78 45q0 47 47 47h6q43 0 43 -35q12 -15 12 -41q0 -109 -88 -161q-8 13 -8 36q41 49 60 80l-5 9v4q0 4 5 4l-5 8l5 20l-11 -8h-41q-20 14 -20 37z" />
<glyph unicode="&#x3c;" horiz-adv-x="608" d="M0 684v4q82 65 184 109q125 64 183 110h8l2 -8v-10q-80 -69 -248 -141q-55 -32 -86 -60q141 -54 186 -70q103 -39 193 -59l4 -6v-23q-81 14 -371 121q-35 13 -55 33z" />
<glyph unicode="=" horiz-adv-x="720" d="M0 784q6 19 14 19q11 0 17 -2l6 2l18 -2q6 2 13 2l6 -2q4 0 4 2l18 -2h148q12 0 14 2q21 -6 27 -6l8 4q8 -4 10 -4q4 0 4 4l19 -4h41q6 0 14 4q4 0 4 -4l33 4q51 -3 51 -8q4 0 4 4q41 -6 41 -17q0 -18 -14 -24h-8q-8 8 -37 18q-3 0 -11 -4q-31 3 -41 6l-45 -6 q-15 3 -114 6q-51 -2 -107 -2l-8 -4l-6 4q-8 -4 -17 -4q-2 0 -2 4l-8 -4h-4q-92 0 -92 14zM14 569v4q0 10 37 19q27 -2 72 -2h57q46 0 62 -8l2 8l35 -4l32 4l23 -4q8 4 10 4q4 0 4 -4l19 4q6 0 14 -4q4 0 4 4l18 -4q7 0 15 4l22 -4q7 0 15 4l8 -4q6 0 14 4q46 -4 51 -4h21 v-8l-17 -19l-32 4q-7 0 -27 -4l-92 6q-4 -2 -10 -2v2l-9 -2q-20 0 -28 2q-90 -3 -96 -6q-36 4 -41 4h-82q-14 0 -72 -4q-29 3 -29 10z" />
<glyph unicode="&#x3e;" horiz-adv-x="573" d="M0 840v6q0 8 6 8q171 -54 305 -113q103 -30 103 -36q-3 -23 -129 -125l-211 -142h-19q-5 0 -12 13q196 121 311 217q21 21 21 26q-45 8 -201 78q-174 52 -174 68z" />
<glyph unicode="?" d="M-41 1147v18q3 60 16 60l-4 8v4q37 88 107 125q119 82 270 82v-4q4 0 4 4q68 -9 68 -17l6 5q134 -37 205 -129q84 -110 84 -248q0 -52 -133 -203l-152 -197q0 -6 -47 -86q-86 -226 -86 -340v-12l2 -16q-2 0 -2 -4q2 0 2 -4q-4 -5 -10 -13q-21 0 -27 21q10 0 25 96h2 q0 2 -2 2q25 151 75 279q66 115 109 165q6 0 41 54q8 0 59 75q125 131 125 205v23q0 104 -125 235q-116 78 -219 78h-8q-186 0 -326 -125q-38 -66 -38 -160l-9 -4q-12 3 -12 23zM260 41q0 13 23 29h20q23 -13 23 -33v-4q0 -23 -23 -33q-43 12 -43 41z" />
<glyph unicode="@" horiz-adv-x="901" d="M0 281h4q-4 8 -4 10q0 148 23 270q9 135 77 262q95 127 142 127q71 47 149 47h8q7 0 15 -4l8 4q90 -15 143 -65q80 -77 127 -291q6 -47 6 -129l4 -6q-3 -27 -6 -27q0 -4 2 -4q-21 -188 -147 -188q-36 0 -70 73v5h-4q0 -49 -88 -89q-11 0 -27 -8q-40 0 -83 49 q-46 70 -46 134v14q0 138 84 188q23 13 31 13q90 -25 121 -78q43 -43 43 -101q-12 -3 -12 -22q0 -4 4 -4l-4 -19v-8q0 -94 49 -121q8 -4 10 -4q101 0 119 170v78q0 155 -100 330q-67 76 -156 88q-4 0 -4 -2l-15 2q-126 0 -243 -111q-88 -119 -97 -207q-36 -203 -36 -292v-84 q0 -9 4 -17l-4 -6l4 -18q0 -4 -4 -4l4 -19v-14q35 -264 57 -264q64 -131 197 -199q22 0 22 -4q4 0 4 4l19 -4q183 0 256 137q51 68 51 127l6 2h8q8 0 8 -10q0 -82 -104 -201l-63 -51q-79 -31 -134 -31v4q-8 -4 -10 -4q-100 0 -151 60q-66 47 -105 110q-51 89 -51 121 q-41 134 -41 281zM256 479q0 -119 74 -178l41 -10q0 7 47 22q59 53 59 162l-4 8q4 8 4 11l-4 16q8 8 8 20q-44 84 -127 111q-32 0 -69 -49q-29 -66 -29 -113z" />
<glyph unicode="A" horiz-adv-x="1046" d="M0 18q28 80 98 310q22 40 101 258q31 60 145 389l143 432h13q9 -3 80 -215q14 -38 55 -240q52 -192 115 -389q58 -185 67 -239h-4q80 -287 80 -301q-4 0 -4 -5q16 0 16 -18h-12v4l4 8h-4q-8 0 -8 -12h-8l-52 188q-48 198 -114 428q0 -16 -195 -22v4q-4 0 -4 -4l-47 4 q-17 0 -37 -4q-70 6 -133 6l-8 -2q-6 2 -17 2h-41q0 -15 -110 -297q-53 -161 -78 -258q-20 -45 -29 -45t-12 18zM246 629h92q6 0 14 -4q4 0 4 4l41 -4h158l25 4q8 -4 18 -4h8q9 0 17 4l8 -4l71 12q-114 372 -114 430q-38 132 -92 283h-4q-110 -357 -246 -721z" />
<glyph unicode="B" d="M0 821q4 46 4 68v47q0 6 -4 14q12 168 18 183q0 4 -4 4l4 16l-4 12h4q-8 18 -8 86q0 2 0.5 11l1.5 27l2 36l-4 6l4 8q-8 16 -8 27q18 18 25 18l12 -4q93 11 127 11h63q102 0 199 -66q86 -77 86 -123q6 -3 6 -8h-2q10 -23 10 -57v-27q0 -146 -157 -229q-33 -11 -35 -11v-4 q125 -21 219 -94q119 -131 119 -299q4 0 4 -22q0 -2 -4 -2l4 -27v-45q0 -104 -59 -225q-47 -68 -140 -102.5t-231 -45.5l-8 2l-23 -2h-10q-4 0 -4 2l-6 -2q-4 0 -4 2q-23 -3 -23 -6l-18 4h-4q-24 0 -52 -4q-77 0 -77 33l-9 41q4 46 4 67v27l-4 16h4l-4 9v12q0 2 4 2l-4 8v6 q0 27 4 31q-4 32 -4 41v92q0 6 4 14q-4 12 -4 13h4l-4 6v49q0 12 -4 78q4 8 4 10q-8 41 -8 129v4q0 4 4 4l-6 33q0 6 2 10q-3 71 -6 86zM27 711q6 -15 6 -41v-37q0 -49 8 -156q0 -3 -0.5 -8t-1.5 -14.5t-2 -18.5l4 -18q0 -6 -4 -6l4 -37q0 -40 -4 -86q4 -62 4 -92 q0 -4 -0.5 -14t-1.5 -28l-2 -36q4 -8 4 -15h-4q6 -15 6 -41v-22q0 -10 35 -10q36 0 90 -4q110 3 121 10q8 -4 14 -4q1 0 2.5 0.5t5 1.5t6.5 2v-4q176 27 244 86q60 40 98 219q0 2 -4 2q3 51 7 51l-19 146h4q-34 140 -102 211q-98 73 -219 88q0 4 -11 4q-70 -6 -94 -6l-6 2 q-24 -7 -104 -7h-15q-6 0 -14 -4q-8 4 -14 4q-24 -8 -31 -8h-10l4 -45v-14q0 -6 -4 -14q4 -8 4 -15v-8q0 -6 -4 -14zM27 848l36 6q5 0 5 -2q46 6 73 6l27 -4q178 0 299 127q23 26 45 111l-4 8v6q0 4 4 4l-4 6l4 27q-27 106 -90 151q-41 47 -184 68l-22 2t-16 1.5t-7 0.5 q-108 -12 -138 -12h-18l-4 -19l4 -24q0 -4 -4 -4l4 -19v-160q-10 -188 -10 -192l4 -23h-4q0 -4 4 -4l-4 -24v-37z" />
<glyph unicode="C" horiz-adv-x="1095" d="M0 616q4 28 4 35v74q0 90 53 297q58 146 138 217q53 61 129 96q124 53 227 56v-5l8 5q131 0 248 -91q0 -1 24 -22v-6q0 -8 -8 -8h-8q-51 53 -104 73.5t-156 32.5q-144 -9 -256 -74q-82 -50 -121 -102q-73 -94 -117 -246q-32 -120 -32 -221q0 -2 -4 -2l4 -8l-4 -131 q0 -163 182 -381q205 -172 303 -189q4 0 16 -4q4 0 4 4l21 -4h8q212 0 389 201q-4 0 -4 4l8 4h4q13 -3 13 -22q-182 -209 -389 -209h-37q-131 0 -344 192q-157 170 -187 316q0 23 -8 47h4l-4 6v39q0 22 -4 26z" />
<glyph unicode="D" horiz-adv-x="954" d="M0 -4l10 16v54q0 4 4 4l-4 6q0 4 4 4l-4 6v137q0 31 -6 101h2l-2 8v51q0 21 2 35l-2 6q0 4 2 4l-2 27v20q0 15 2 19l-6 53q4 62 4 88l-4 22q4 8 4 11l-4 45q23 292 23 377h4l-4 8q0 4 4 4l-4 8v20q0 3 -5 33q0 4 5 4q-9 43 -9 82h4l-4 8q0 3 4 3l-4 8v96l-4 18l17 11 q4 0 15 0.5t31 1.5t38 2q347 -46 444 -125l96 -82q0 -4 68 -78q0 -12 41 -86q0 -1 5 -14.5t12 -34t11 -35.5h-4q37 -107 37 -303l4 -8q-9 -127 -49 -281q-11 0 -41 -86q-86 -138 -221 -203q-142 -65 -276 -65l-21 4l-53 -8v4l-8 -4h-4q-55 0 -82 -12q-3 0 -11 4 q-32 -4 -41 -4h-8q-7 0 -10 16zM27 356q4 -8 4 -10q0 -36 6 -70q0 -4 -4 -4q6 -72 8 -77l-4 -23v-45q0 -8 4 -16l-4 -25v-74l-4 -6h4l18 4v-4q12 5 133 14h5q4 0 4 -4l8 4h24q1 0 41 5l9 -5q20 7 83 17v-4q238 68 322 198q91 155 100 252q6 22 15 109v37q0 10 -2 12 q2 6 2 12q-3 69 -6 72q4 4 4 14q0 44 -13 70l4 6q-32 197 -121.5 316t-254.5 182q-232 55 -334 55v2q-38 -10 -41 -10v-33l4 -18h-4l4 -9v-40q0 -31 2 -56h-2q8 -34 10 -69q-4 -36 -4 -60q0 -6 4 -26q-9 -170 -24 -281l4 -6v-35q0 -2 -4 -2l4 -8v-19q0 -4 -4 -4l4 -12 q0 -2 -4 -2l4 -18v-74q0 -13 -4 -13l4 -18v-197q0 -4 -4 -4z" />
<glyph unicode="E" horiz-adv-x="950" d="M0 700l4 25v102q0 23 8 47q-4 12 -4 13l4 8q0 2 -4 2l4 21v16q10 87 13 246h4l-4 8v67q0 11 4 31l-9 64q1 2 2 5t2 4.5t1 2.5l-13 18q17 17 51 17q9 0 283 4l8 4l8 -4q21 9 60 12l8 -4q8 4 16 4h5q4 0 4 -4l8 4h6q4 0 4 -4q19 5 102 16l25 -4q3 0 11.5 0.5t25 1.5t31.5 2 v-4q13 6 61 9q33 0 33 -21q-10 -13 -55 -16l-21 4q-1 0 -3.5 -0.5l-7.5 -1.5t-11 -2q-9 0 -17 4q-36 -4 -43 -4h-51q-4 0 -16 -4q-5 0 -5 4l-233 -25v4l-6 -4h-51q-13 0 -13 4l-24 -4q-60 0 -99 -2q-16 2 -55 2v-2q4 -12 4 -16h-4q0 -4 4 -4l-4 -39v-72q0 -4 4 -16 q0 -5 -4 -5q0 -8 4 -8l-26 -489q4 -12 4 -17q64 9 121 9v-4l8 4l8 -4l8 4q4 0 4 -4l27 4h80q18 -3 18 -9l8 5q114 4 123 4l17 -4q8 4 12 4v-4q0 6 121 12l16 -4q21 8 60 8q8 -13 8 -25q0 -9 -92 -12v4q-5 0 -5 -4q-96 -2 -217 -2h-73q-9 0 -17 -4l-51 6q-24 -3 -137 -6v4 l-8 -4q-4 0 -4 4l-39 -8q8 -13 8 -21q0 -17 -4 -37l6 -112q0 -15 -2 -33q2 -41 2 -106q0 -39 -6 -39l4 -9v-4q0 -57 6 -100q-1 -6 -2 -11.5t-1.5 -8t-0.5 -3.5q12 -108 12 -122h-4l8 -31q110 -4 119 -4q5 0 119 4l18 -4q12 4 17 4v-4l8 4l39 -4l8 4q4 0 4 -4q41 2 123 14v-4 q0 9 240 12v-22l-91 -13q-2 1 -5 2t-4.5 2t-2.5 1l-8 -5l-23 5q-1 0 -4 -1t-8.5 -2t-11.5 -2l-8 5q-10 -5 -17 -5q-4 0 -4 5q-17 -10 -69 -13q-5 0 -5 4q-3 0 -94 -16v4q-4 0 -4 -4q-62 4 -67 4h-187l-22 -4q-90 9 -90 29q-9 58 -9 98v35q0 4 -4 16l4 8q-4 12 -4 13l4 8 q-9 9 -12 69l4 25v68q0 6 -4 14q3 43 8 43l-4 8v21q0 4 4 4q-8 19 -8 84q0 15 4 35q-4 28 -4 38v66q0 10 -4 18z" />
<glyph unicode="F" horiz-adv-x="925" d="M0 1319l4 61q-4 8 -4 13l16 14h4l11 -8q136 -4 162 -4h16q10 0 14 -2q6 2 17 2h59l20 4v-4l9 4q6 0 14 -4l12 4q9 0 21 -4l90 8v-4q8 4 10 4q4 0 4 -4l21 4h73l21 4v-4q4 0 4 4l39 -4h8q5 0 17 4q8 -4 16 -4h14q5 0 17 4l8 -4l8 4q45 -3 45 -12q-16 -23 -27 -23 q-21 8 -34 8h-31q-19 0 -51 -4q-20 4 -29 4q-4 0 -4 -4q-8 0 -8 4q-310 -12 -428 -12l-8 4q-5 0 -5 -4l-26 4h-88q-11 0 -11 -39l15 -286q0 -5 -4 -5l4 -38v-50q0 -16 4 -16l-4 -27v-190q20 0 110 4q70 -4 86 -4v-4l9 4q145 0 272 10v-4l6 4h68l24 4l8 -4q36 8 70 8l4 -8v-4 q0 -18 -98 -18h-12q-4 0 -4 4l-7 -4h-32l-27 -4v4l-8 -4h-33l-27 -3v3q-9 -3 -12 -3q-7 0 -30.5 -0.5t-69.5 -1.5l-92 -2l-9 -4q-8 4 -12 4t-4 -4l-18 4h-39q-13 0 -119 -4q0 -4 -4 -4l12 -78h-4q19 -82 41 -305h-4q13 -148 31 -293q-3 -14 -9 -14q-22 0 -22 92q-4 0 -4 8h4 q-13 44 -25 238h4q-40 334 -51 360q-4 0 -4 7q6 9 12 51l-4 8v14q0 4 4 4l-4 9v14q0 4 4 4l-4 8v53q0 4 4 4l-4 9v6q0 4 4 4q0 4 -4 4l4 14l-2 12l-1.5 9t-0.5 4l4 18l-4 9l4 8l-4 22h4l-4 8v3q0 62 -8 153q0 4 0.5 12.5t1.5 24t2 29.5q-8 39 -8 96z" />
<glyph unicode="G" horiz-adv-x="1064" d="M0 571h4l-4 7v114q0 311 127 527q153 202 377 202q4 0 4 -4l37 4q200 0 270 -73h4v-15q0 -8 -8 -8q-42 42 -139 70q-4 0 -4 -4q-31 3 -31 8q-4 0 -4 -4l-19 4h-100q-6 0 -14 -4q-4 0 -4 4l-21 -4h-20q-154 0 -305 -189q-65 -95 -80 -192q-21 -69 -27 -80q0 -4 2 -4 q-18 -94 -27 -203l5 -18v-54q0 -425 221 -610q68 -35 164 -35l36 -2t27.5 -1.5t11.5 -0.5q162 21 213 66q158 152 158 393q0 25 -12 151q-77 6 -80 9q-36 -4 -41 -4h-123q-2 0 -2 4l-8 -4h-4q-4 0 -4 4q-5 0 -5 -4l-16 4q-28 1 -58 2t-45.5 1.5t-21.5 0.5v4q-4 0 -4 -4 q-5 1 -10.5 2t-8 1.5t-3.5 0.5t-3.5 -0.5t-8 -1.5t-11.5 -2q-8 4 -12 4v10l8 12q70 -4 76 -4h30q5 0 5 -4l12 4q8 -1 15.5 -2t11 -1.5t4.5 -0.5q2 0 2 4q39 -8 131 -8h186q10 0 10 -14q13 -180 13 -195v-20q0 -2 -5 -2q0 -4 5 -4q0 -136 -134 -332q-107 -88 -221 -88 q0 -5 -35 -8q-219 0 -270 57q-79 64 -119 145q-98 203 -98 389z" />
<glyph unicode="H" horiz-adv-x="1040" d="M0 1430l12 8h4q8 0 17 -95h-4q22 -113 22 -331q4 -12 4 -13h-4l4 -8v-16q0 -15 -4 -51q4 -20 4 -29h-4l4 -6q1 -36 2 -77.5t1.5 -63.5t0.5 -33h142l41 4v-4l8 4q10 0 96 4v-4l8 4q68 -8 115 -8h4q4 0 4 -4l8 4h56q12 0 12 -4l20 4h11q12 0 106 4v-4l8 4h111v14 q0 12 -2 12l2 21v8l-2 47h2l-2 8v154l2 25q-2 4 -2 22l2 8q-2 6 -2 13h2q-2 6 -2 12l2 14q-2 6 -2 13h2l-2 8v67q0 9 -4 21l4 22v72q0 25 2 39q-2 10 -2 35v8q0 4 2 4l-2 8v12q0 5 2 5l-2 8q0 7 10 10h4q13 0 13 -43v-31q0 -4 -5 -4q0 -4 5 -4l-5 -20v-56q0 -4 -4 -4 q0 -4 4 -4l-4 -39q0 -2 0.5 -7.5t1.5 -17t2 -22.5h-4l9 -43h-5l5 -8v-4q0 -17 -5 -17l5 -26v-39q0 -6 -5 -16l5 -9l-5 -8q0 -4 5 -4l-5 -39v-63q0 -2 5 -17l-5 -8l5 -6q0 -4 -5 -4l5 -29v-39q0 -12 4 -106h-4l4 -8v-103q9 -242 26 -348q0 -4 -4 -4l8 -103h-4q8 -19 8 -69 v-17q0 -4 -22 -20h-4v4l4 8l-8 4q3 13 8 13q-9 65 -12 172h4q-6 18 -8 37h4q-21 135 -21 149h4q0 4 -4 4q-3 204 -10 303l-8 -4h-54q-5 0 -59 -4v4l-6 -4h-37q-4 0 -4 4l-6 -4h-53q-7 0 -15 -4l-8 4q-2 -1 -5 -2l-4.5 -1.5t-2.5 -0.5v4q-4 0 -4 -4l-29 4h-49q-49 0 -117 8 l-6 -4l-8 4q-27 0 -76 -8q-8 4 -10 4q-28 -4 -37 -4v4l-8 -4h-56q-8 0 -86 -4v-18q0 -5 -4 -17q4 -13 13 -86h-5l5 -8v-12q0 -13 -5 -13q9 -67 21 -299l-4 -8q7 -43 10 -88h-4l4 -6v-4q0 -4 -4 -4l4 -8v-25q0 -36 8 -49q-3 -21 -12 -21h-2q-18 0 -21 74l5 8q-14 121 -17 310 q-4 8 -4 12h4l-4 6q-9 323 -18 455q4 8 4 22l-4 17l4 8l-4 8q4 36 4 43q0 4 -4 16q0 4 4 4q-4 28 -4 31q0 113 -29 400z" />
<glyph unicode="I" horiz-adv-x="219" d="M0 12q0 50 8 189h4l-4 8q3 100 8 100l-4 21v137q0 4 4 16q-4 8 -4 17v12q0 2 4 2l-4 8v41q0 4 4 4q0 4 -4 4l4 21v4q14 167 17 297h4q0 4 -4 4l4 12q4 144 4 176v9q0 8 -4 16q0 4 4 4l-4 21v100q0 4 4 4l-4 8q0 81 -8 185q6 0 14 4l12 -17v-22q0 -17 -4 -37q4 -28 4 -41 v-33l4 -18h-4l4 -8v-5q0 -4 -4 -4q0 -4 4 -4l-4 -24l8 -181h-4l4 -8v-12q0 -4 -4 -4q0 -4 4 -4q-9 -44 -12 -209l-4 -8q0 -4 4 -4q-14 -203 -14 -363v-139q0 -70 -8 -70l4 -8v-55q0 -82 -8 -82q0 -4 4 -4l-4 -39v-25q0 -8 -9 -8h-8q-8 0 -8 12z" />
<glyph unicode="J" horiz-adv-x="1054" d="M0 561q0 5 10 12q21 0 39 -141q-4 0 -4 -2q8 0 29 -143q14 -61 39 -109q17 -26 20 -26q80 -80 252 -121q4 0 4 4q36 -8 68 -8l16 4v-4l8 4h11q103 0 213 90l8 -4q109 118 118 196q16 74 23 86l-4 7q0 20 6 20l-2 6q0 17 6 17l-4 8l6 18l-2 8q3 21 6 21l-4 8l15 96l-3 6 v31q0 11 3 17l-3 8q3 34 3 55q0 17 -3 23q3 21 3 34v19q0 14 -3 35l3 8l-3 22q0 4 3 4l-3 9v12l3 6q-7 0 -7 8q0 1 4 13q-60 434 -71 501h4l-4 8v9h4q29 0 29 -70q38 -239 38 -301v-8q9 -22 23 -144q0 -4 -2 -4l2 -39v-100q0 -4 -2 -4l2 -8v-58q0 -10 -2 -16l2 -6l-2 -16 q0 -5 2 -5l-2 -18v-55q0 -4 -4 -4q0 -2 4 -2q-9 -103 -14 -103q0 -4 4 -4q-28 -188 -60 -250q-71 -116 -143 -155q-92 -62 -166 -62l-6 4l-23 -4l-6 4q-5 -5 -35 -8v4l-8 -4q-4 0 -4 4q-2 0 -2 -4q-81 0 -221 61q-84 44 -127 117l-39 117q4 8 4 10q-12 35 -29 121l5 6 q-8 19 -25 129z" />
<glyph unicode="K" horiz-adv-x="1056" d="M0 723h4l-4 6q0 11 4 39q-4 74 -4 106q0 9 4 17l-4 8q3 43 6 43l-2 8v4l2 25q0 2 -2 2q3 71 6 80l-4 8q9 12 12 59q-4 8 -4 13l4 6q-4 8 -4 16q0 4 4 4l-4 9v4q0 12 4 12l-4 18v9q3 18 9 18l-5 20v13q0 4 5 4l-5 8v47q0 4 5 4l-5 8v5q0 8 5 18l-5 25q0 1 1 2.5t2 4.5t2 5 q-5 25 -5 26q7 17 13 17q13 0 16 -76q-2 -146 -10 -346h-4q0 -4 4 -4q-6 -40 -6 -80v-14q0 -4 -4 -4q0 -5 4 -5q-4 -62 -4 -67v-17q0 -4 -4 -16q4 -8 4 -10q0 -4 -4 -4l4 -21v-14q0 -4 -4 -4l4 -8v-31q0 -8 4 -16q-4 -12 -4 -13q192 119 286 193q36 15 211 145l256 199 l74 78q-4 0 -4 4l6 4v-4q11 8 21 8q10 -17 10 -29q-207 -186 -326 -264q-73 -64 -291 -209q-53 -44 -73 -47q-74 -50 -74 -53v-4q28 -3 190 -174l166 -152q216 -192 398 -334q24 -18 24 -22v-8l-4 -9l-6 4l-19 -4q-123 126 -178 150q-67 67 -162 141q-13 18 -174 158 q-110 102 -202 194q-24 7 -56 39q-69 -34 -69 -43l6 -41h-4l4 -8q15 -404 22 -418l-4 -14q3 -45 13 -55q-3 -13 -9 -13l4 -8v-47q0 -1 5 -16q-6 -35 -13 -35h-8q-7 0 -10 20h4l-4 9v39q0 4 -4 16q0 2 4 2l-4 29v18q0 4 4 4l-4 8v29q-6 58 -6 64v30q0 4 4 4l-4 9v8q0 4 4 4 q-10 24 -13 125q0 1 1 4t2 8.5t2 11.5z" />
<glyph unicode="L" d="M0 725q4 20 4 31v26l-4 25l4 8l-4 8l4 17q0 6 -4 26q2 117 14 244q0 4 -4 4q8 44 8 64q0 58 -18 249l10 9h4q6 0 13 -13v-4q14 -161 14 -219q-14 -241 -14 -321v-56q0 -4 -4 -4l4 -8q0 -23 -4 -39q4 -82 4 -113v-61q0 -8 4 -16q-4 -12 -4 -17q0 -1 0.5 -5l1.5 -12l2 -16 h-4q7 0 10 -245q4 -12 4 -13q0 -4 -4 -4l4 -18v-74q6 -126 6 -137v-8q23 -3 23 -8l8 4h4q19 0 98 8h8q5 0 5 -4l8 4h28q4 0 4 -4q8 4 11 4l8 -4q8 4 10 4v-4q4 0 4 4l19 -4l14 4l12 -4q6 0 6 4l45 -4h107q4 0 4 -4l8 4q15 -1 29.5 -2t21.5 -1.5t9 -0.5q1 0 2.5 0.5t5 1.5 t6.5 2q8 -4 18 -4q5 0 5 4l18 -4h37q6 0 14 4q8 -4 15 -4h4q4 0 16 4q20 -6 20 -13v-8q0 -8 -6 -8q0 4 -4 4l-4 -8l-26 4h-3q-12 0 -12 -4l-18 4h-68q-8 0 -16 -4l-23 4h-63q-4 0 -4 4l-6 -4l-9 4l-12 -4v4l-6 -4h-23q-4 0 -4 4l-6 -4q-1 0 -4.5 0.5t-11 1.5t-15.5 2 q-8 -4 -10 -4v4q-4 0 -4 -4l-27 4h-92q-4 0 -4 4l-6 -4h-4q-4 0 -4 4l-6 -4q-6 1 -11.5 2t-8 1.5t-3.5 0.5l-18 -4q-4 0 -4 4q-58 -12 -70 -12h-18q-45 0 -45 16v4q0 11 -1 26.5t-2 38t-2 38.5q0 4 5 4l-5 20v140l-4 26h4l-4 9v84q0 65 -8 96h4l-4 8v43q0 10 -2 16q2 4 2 17 v14q0 10 -2 16q0 5 2 5z" />
<glyph unicode="M" horiz-adv-x="1153" d="M0 1368v16q0 4 10 11q26 0 109 -103q20 -16 131 -159q31 -31 244 -308q69 102 204 256q0 16 199 258q0 11 16 21q-8 19 -8 33q49 -6 49 -21v-4q0 -8 -4 -20q4 -20 4 -27q-8 -11 -8 -25v-8l4 -18h-4l4 -8v-5q0 -4 -4 -4l4 -8v-104q0 -13 -4 -21l8 -86q0 -4 -4 -4l4 -20 v-64q0 -4 -4 -4l4 -6v-43q0 -25 4 -135l-4 -8q0 -2 4 -2l-4 -17q0 -34 7 -137q-3 -9 -3 -12q0 -4 3 -4l-3 -21v-104q0 -23 3 -64l-3 -8l15 -141l-4 -9q0 -14 4 -18q0 -5 -4 -33q4 -114 4 -153v-9q0 -4 4 -16q-3 -10 -8 -10l4 -8v-13q0 -6 -12 -12h-7q-9 0 -18 98v4h2l8 -4 v37q0 7 -4 15q0 4 4 4q-4 54 -4 59v64l-4 22l4 8q-4 20 -4 29l4 14l-4 8q0 5 4 5q-5 19 -14 149h4l-4 8q0 5 4 17q-4 46 -4 55v22q0 7 4 35q-4 8 -4 29h4l-4 6v68q0 7 4 43l-4 8q0 4 4 4l-4 20v21q0 19 -4 47q4 24 4 45q0 8 -4 16q0 5 4 5l-4 18v37q0 66 4 90q-4 70 -4 111 v153h-4q-68 -94 -175 -217q-37 -52 -110 -144.5t-127 -172.5l-10 -9h-9q-194 260 -239 316q-35 30 -191 227l-28 23q0 -7 2 -13l-2 -26l2 -39h-2l2 -8v-4q0 -10 4 -56q0 -4 -4 -4l4 -18v-103q0 -9 -4 -63q0 -4 4 -4l-4 -21v-39q0 -4 -2 -4l2 -8q11 -250 22 -352q-4 0 -4 -4 l8 -4l-4 -17l4 -26h-4q4 -12 4 -13q0 -40 13 -129l-4 -8l14 -149l6 4l4 -8q-7 0 -10 -31q18 -126 18 -182l-8 -5h-10q-10 3 -10 25h2q-34 352 -43 596q-5 0 -8 41l4 14l-9 105h5l-9 35q0 4 4 4l-4 26v142q0 8 -4 16q3 39 8 39l-4 20v78q0 18 -4 76q4 8 4 10q-10 102 -14 123 z" />
<glyph unicode="N" horiz-adv-x="933" d="M0 84l4 6q0 4 -4 4l4 21q8 164 8 231h4q0 4 -4 4q3 39 8 39q0 4 -4 4q2 63 11 185l-2 8l2 8l-2 18h2l-2 9v43l-5 20h5l-5 8v8q0 6 1 14.5t2 21t2 20.5q0 4 -5 4l5 18v94q0 5 2 5q0 4 -2 4l2 18q0 65 8 166l-4 8q3 39 8 39l-4 8q12 170 12 264v5l-4 26q19 22 33 25 q9 0 51 -51q24 -9 233 -230q260 -309 304 -368q53 -56 69 -56v25l-4 26h4l-4 9v8q0 77 -10 145q0 2 4 2q-2 83 -21 178q0 5 5 5q-9 52 -9 149v4q0 6 -4 14q4 12 4 17l-4 12q4 8 4 17l-4 18h4l-4 8v17q0 4 4 4q-6 17 -8 47l8 4h13q8 -3 8 -8q-4 0 -4 -4l8 -5q-4 -28 -4 -30 l4 -29q0 -4 -4 -4l4 -39v-80l31 -446q0 -23 12 -137v-89q0 -24 2 -34q-2 -14 -2 -39v-56l14 -260h-4l4 -8v-65l4 -21h-4q3 -25 13 -35v-12q0 -4 -5 -4l5 -8q0 -2 -5 -2l5 -9l-5 -20h-16q-8 0 -14 80h4l-4 6v123q0 58 -17 235v25q0 40 4 86q-4 36 -4 82v47q-96 84 -159 176 q-64 74 -240 291q-177 180 -266 256q0 -2 -4 -2l4 -21v-4q0 -20 -4 -28q4 -28 4 -31q-19 -210 -21 -385h-4q0 -4 4 -4l-4 -12q-1 -43 -2 -83.5t-1.5 -60.5t-0.5 -24q0 -12 0.5 -33t1.5 -59.5t2 -69.5q-20 -296 -20 -445l-4 -12q0 -4 4 -4q0 -1 -0.5 -2t-1.5 -3.5t-2 -4.5 q4 -58 4 -76v-35q0 -8 -6 -8h-9q-13 0 -16 84z" />
<glyph unicode="O" horiz-adv-x="1050" d="M0 608l4 15l-4 53q21 223 33 223q0 4 -2 4q2 14 2 31q-2 4 -2 10q5 0 32 133q37 109 78 166q85 104 156 137q91 31 131 31l8 -4q1 0 13 4l18 -4q2 0 2 4q167 0 279 -127q89 -111 141 -280q14 -60 14 -101v-18q0 -508 -219 -799q-116 -96 -199 -96h-67q-89 9 -180 63 q-87 55 -164 166q-53 178 -74 389zM23 578l40 -244q21 -119 80 -166q59 -74 119 -105q92 -51 182 -51q299 0 404 533q24 152 33 274q0 4 -4 4l4 19v73q-6 100 -88 271q-71 99 -123 143q-81 49 -148 55q-4 0 -4 -4l-55 9q-161 0 -252 -101q-88 -76 -137 -262 q-26 -101 -51 -362q4 -54 4 -64q-1 -5 -2 -10.5t-1.5 -8t-0.5 -3.5z" />
<glyph unicode="P" horiz-adv-x="925" d="M0 -2q6 129 14 129l-4 23l4 32l-4 8q3 19 8 19l-4 6q1 36 9 113l-5 10l9 47q-4 8 -4 16l4 7l-4 12h4l-4 6v92l-5 35q3 33 9 33l-4 8v51l-5 23q0 4 5 4l-5 43v35q0 6 -4 14q0 4 4 4l-4 18v60q0 2 4 2l-4 8l4 27q-8 0 -8 6q0 10 4 10l-4 21v61q0 6 4 14q-6 17 -8 49l4 9 q-4 8 -4 14t4 14q-4 12 -4 13t0.5 3t1.5 7l2 10l-4 8q4 8 4 11l-4 12q2 19 8 37q-4 8 -4 14q0 7 4 27q-4 28 -4 47q0 2 4 30l-4 7l8 53l-4 6l4 23v4q-14 20 -14 24q3 17 10 17h13q83 6 88 6v-2l8 2h166q70 0 280 -66q101 -40 138 -110q73 -158 73 -252v-19q0 -70 -65 -159 q-159 -170 -453 -170h-94q-4 0 -4 4q-4 0 -4 -4q-18 0 -117 18l-2 -6l2 -37h-2l2 -8v-146l4 -18h-4q4 -8 4 -10q0 -80 -10 -262q0 -5 4 -5q-9 -200 -23 -200h-8zM33 1016q0 -27 4 -191l4 -6q-4 -12 -4 -14v-53l4 -19h-4l4 -8v-2l-4 -18q94 -17 151 -17h19q4 0 4 -2q4 0 4 2 l14 -2q156 6 220 23q0 -4 2 -4q8 5 108 45q197 105 197 266q0 66 -68 231q-69 96 -123 96q0 12 -110 46q-128 32 -156 32l-14 -4q-50 4 -56 4q-2 -1 -5 -2l-4.5 -1.5t-2.5 -0.5v4l-6 -4h-23q-20 0 -28 -2l-19 2q-24 0 -104 -6q6 -12 6 -18q-2 -34 -5 -72.5t-4 -54t-1 -19.5 q4 -8 4 -20h-4l4 -8q0 -5 -4 -5q0 -4 4 -4q-4 -78 -4 -92v-102z" />
<glyph unicode="Q" horiz-adv-x="1116" d="M0 604h4l-4 8v27l27 139l-4 8q9 106 18 121q0 4 -4 4q24 133 96.5 266t155.5 201q47 33 125 33q0 4 4 4l8 -4l6 4l8 -4q3 0 11 4q117 0 288 -110q29 0 115 -138q100 -199 100 -299v-227q0 -2 -4 -2l4 -8q-3 -101 -10 -101q0 -4 2 -4q-21 -134 -76 -270q-14 -40 -90 -135 q-10 -20 -24 -31q157 -219 157 -233v-2l-6 -5h-4q-6 0 -92 130q-49 69 -76 96q-104 -82 -174 -82h-65q-116 0 -267 86q-68 63 -118 151q-76 107 -97 285q-4 8 -4 23h4q-10 23 -10 36h2q-6 21 -6 29zM27 590q24 -194 51 -252q77 -165 160 -236q131 -82 274 -82h39 q78 0 168 78l-164 226l-51 88l8 4h6q5 0 137 -197l80 -106q58 49 99 129q27 35 79 243q17 129 17 150v196q0 11 2 15q-15 150 -47 194q-108 248 -170 248q-70 64 -230 105l-8 -4h-37q-4 0 -4 4q-163 0 -239 -162q-154 -216 -154 -508q-16 -82 -16 -102v-31z" />
<glyph unicode="R" d="M0 1376q0 4 4 4l-4 21v31q6 18 96 18v-4q4 0 4 4l19 -4q5 0 123 -4v-4q4 0 4 4q208 -18 268 -58q73 -40 113 -161q12 -41 12 -70q-6 -75 -66 -172q-66 -88 -204 -145q-130 -48 -160 -48v5q-30 -8 -156 -17v-4q35 -30 309 -313q136 -133 246 -266q76 -77 129 -144v-4 q0 -6 -6 -6l-12 6l-8 -2q-29 40 -164 184q-81 102 -301 316q0 8 -203 202l6 -122h-4l4 -9v-45q0 -6 4 -14q0 -4 -4 -4l4 -29v-141q0 -4 -4 -4q0 -4 4 -4l-4 -37v-25q0 -4 -4 -4q0 -4 4 -4l-4 -27v-40q0 -13 -2 -17q0 -4 2 -4q-10 -98 -10 -172q0 -4 4 -16q-6 -27 -12 -27h-9 q-6 0 -6 8v35l-4 18h4l-4 9v12q0 4 4 4q-4 8 -4 10l15 158l-5 8q3 80 9 80q0 4 -4 4l4 27v114q0 5 4 5l-4 8v30q0 5 4 5l-4 8q-1 31 -2 67.5t-1.5 56t-0.5 29.5l-5 19h5l-5 8v39l-14 14v21q0 8 10 8v84l-2 22l2 9q-6 346 -14 456zM23 1384q3 -91 8 -106q0 -4 -4 -4l4 -29 v-63q0 -4 -4 -4l4 -9q0 -12 -4 -12q12 -73 12 -293l4 -14q0 -4 -4 -4l4 -19v-8l-4 -18h31l18 4v-4l70 10q4 0 4 -2q88 6 174 37q3 5 94 47q90 51 113 88q67 94 67 166h4q0 91 -92 203q-86 51 -215 57q-83 7 -149 16l-8 -4q-78 4 -80 4q-47 0 -47 -18q0 -4 4 -4z" />
<glyph unicode="S" horiz-adv-x="833" d="M0 336v6q0 9 18 12q10 -10 13 -73q49 -110 102 -160q94 -105 178 -105q0 -2 84 -14l8 4h5q152 0 251 166q23 71 23 82q0 14 2 18q-2 4 -2 15q0 4 2 4l-2 8v2q0 4 2 4l-2 8v6q0 87 -84 209q-146 165 -240 211q-68 36 -178 158q-54 76 -88 205q-4 54 -4 88q0 131 193 225 q108 31 163 31q206 0 267 -137q28 -73 28 -92h-6q-26 0 -26 43q-61 159 -211 159h-4q-5 0 -5 4q-8 -4 -10 -4l-8 4q-8 -4 -10 -4q-4 0 -4 4q-151 0 -267 -96q-77 -77 -77 -164q0 -110 86 -252q136 -142 188 -161q276 -197 311 -369q11 0 11 -86v-19l4 -22 q-43 -159 -133 -215q-83 -59 -164 -59v4q-2 0 -2 -4l-21 4l-6 -4q-64 9 -68 16l-6 -4q-105 15 -205 121q-106 121 -106 223z" />
<glyph unicode="T" horiz-adv-x="989" d="M0 1376q0 13 41 13h86l37 2v-2q21 5 198 14h66q4 0 4 -4q4 0 4 4l27 -4h88q4 0 4 -4q4 0 4 4l19 -4h100q6 0 18 -4l23 4h43q8 0 82 4q0 -8 14 -8v-7q0 -6 -18 -12l-19 4h-61l-25 -4l-6 4l-18 -4q-68 2 -152 8q-4 0 -4 -4l-18 4h-13q-12 0 -16 -4l-23 4h-30v-18 q0 -6 -4 -14q4 -12 4 -17v-6q0 -8 -6 -8q2 -25 2 -55v-60q0 -146 12 -579h-4l4 -9v-8q0 -4 -4 -4q0 -4 4 -4l-4 -16v-113q0 -2 -4 -14q4 -8 4 -15v-12q0 -2 -4 -2l4 -8v-111l-4 -8q8 0 8 -6v-60q0 -4 -4 -16q0 -2 4 -2l-4 -18v-187q0 -3 -10 -10q-6 0 -13 10v27q0 25 4 221 h4l-4 8v96q0 7 -4 15q4 8 4 14v53q0 7 -4 15q1 2 2 4.5t1.5 3.5t0.5 2q-1 9 -2 19.5t-1.5 15.5t-0.5 8q0 1 0.5 2t1.5 3.5t2 4.5q0 2 -4 10l8 127q0 3 -4 3l4 12q-4 102 -4 125v18l-4 23l4 8q-3 161 -12 188l4 6q-4 12 -4 13h4l-4 8q0 4 4 4l-4 6v41l4 23q0 4 -4 4l4 24v33 l-4 19h4l-4 8q0 4 4 4l-4 24v95q3 18 8 18q-4 8 -4 14h-106l-19 -4v4q-38 -7 -96 -12v4l-6 -4h-37q-12 0 -12 -2l-19 2h-37q-51 0 -94 -2z" />
<glyph unicode="U" horiz-adv-x="1103" d="M0 918v24q0 148 12 148l-4 8q0 4 4 4l-4 8q18 107 23 264q12 64 24 64h4l13 -11q-15 -55 -29 -196q0 -4 4 -4l-22 -197q2 -14 2 -49q0 -4 -2 -4l2 -8v-15q0 -4 -2 -4q0 -4 2 -4q0 -8 -2 -8q15 -277 43 -393q29 -218 126.5 -350t272.5 -187q145 0 252 119q67 99 133 317 q3 33 8 33l-4 8q15 26 39 211v121q0 10 4 60q0 4 -3 35.5t-11 109.5t-15 156v53l-2 31h2q-22 132 -22 141l12 8h4q19 0 31 -145l-4 -9l4 -10l-4 -8q29 -284 29 -362v-80q0 -37 2 -60q-6 -74 -19 -129q0 -4 4 -4q-11 -72 -47 -215h-4l4 -6q-36 -108 -115 -264 q-81 -90 -124 -96q-25 -25 -95 -43q-4 0 -4 4l-20 -4h-31q-93 12 -219 106q-145 151 -172 274q-41 145 -68 361q-4 0 -4 53v64q-8 63 -8 80z" />
<glyph unicode="V" horiz-adv-x="1107" d="M0 1407v4l12 8q25 -9 74 -174q32 -138 133 -454q36 -113 113 -406q52 -167 114 -328q9 -34 17 -34q37 120 106 284q30 89 60 167.5t58.5 157.5t66.5 204q24 56 100 309q5 0 20 69q37 76 58 170q-4 8 -4 21q10 0 10 18h4q7 0 16 -18v-4q-26 -100 -84 -268 q-171 -541 -227 -687l-174 -458l-10 -8h-8q-10 0 -31 77q-111 287 -162 508q-192 616 -192 641q0 33 -70 201z" />
<glyph unicode="W" horiz-adv-x="1386" d="M0 1430l8 4h8q20 -28 82 -336q36 -159 58 -373q86 -357 163 -584q41 -87 41 -102h5q63 155 63 258q20 98 98 295l95 276l18 9q39 0 145 -312q10 -13 45 -108q52 -93 66 -148q17 -26 127 -250q10 -16 12 -16q33 238 33 283l-4 8l4 24v29q0 4 4 4q0 4 -4 4q0 52 49 420 l-4 8l21 254q36 259 36 291q-4 8 -4 16l17 9q0 -7 12 -13q-11 -120 -37 -270q0 -4 4 -4q-15 -126 -24 -295q-4 0 -4 -2q0 -4 4 -4q-20 -205 -50 -361q0 -4 5 -4l-5 -20v-70q0 -4 -4 -16l4 -8q-4 -12 -4 -13q0 -4 4 -4l-4 -20v-13q-21 -286 -49 -286q-13 3 -28 49 q-118 233 -136 283q-4 0 -45 90q-19 25 -41 104q-80 211 -145 334h-4q-48 -189 -150 -430q-37 -161 -53 -262q-44 -142 -67 -168h-9q-13 10 -28 73q-31 64 -86 246q4 0 4 4q-6 0 -41 140q-21 53 -58 229q-9 33 -45 293q-16 51 -41 188q-9 30 -61 267z" />
<glyph unicode="X" horiz-adv-x="1116" d="M0 1423v4q0 7 12 13h4q77 -84 199 -307q178 -285 279 -435q47 62 127 201q43 63 163 270q59 87 109 189q5 0 35 61h8q9 0 12 -20q-83 -136 -117 -201q-32 -47 -206 -344q-72 -116 -115 -176q10 -37 88 -164l170 -340q81 -131 100 -168q-4 -8 -4 -16h-12 q-144 222 -274 516q-52 73 -84 143h-9q-83 -158 -417 -614q-39 -45 -52 -45l-12 16q113 127 266 361q87 117 203 307v4l-211 332q-27 39 -219 356z" />
<glyph unicode="Y" horiz-adv-x="1107" d="M-31 1372q7 17 13 17q28 -3 110 -150q147 -211 244 -381q127 -157 127 -170h4q104 129 158 221q12 9 30 49q95 142 203 359q13 13 55 92h13q0 -14 2 -18q-50 -84 -180 -332q-36 -54 -111 -174q-6 -2 -45 -72q-65 -98 -111 -151q9 -45 11 -76h-5l5 -8v-13l12 -92h-4l4 -6 q0 -4 -4 -4q2 -2 8 -51l-4 -9q9 -131 16 -174l-6 -14q6 -3 6 -8v-19q0 -42 17 -178q-13 0 -13 -10h-4q-12 18 -20 18v9h10v4q0 2 -2 2q0 4 2 4q-8 114 -23 248h5q-7 22 -9 37h4l-4 8v41q0 61 -16 202q0 5 2 5l-6 45h4q-8 37 -90 143q-44 44 -88 127q-104 162 -219 332 q-36 65 -68 106q-33 26 -33 41z" />
<glyph unicode="Z" horiz-adv-x="1060" d="M0 4q0 10 45 55q9 29 74 123l90 152q56 73 149 229q21 26 64 101q0 3 47 77q110 151 207 306q6 0 33 53q35 53 122 205q54 94 62 102h-113q-6 0 -14 -4q-4 0 -4 4l-19 -4h-149q-4 0 -16 -4q-8 4 -15 4l-22 -4q-4 0 -4 4l-25 -4h-59q-4 0 -4 4q-5 0 -5 -4l-18 4h-217 q-6 0 -14 -4q-5 0 -5 4q-63 -8 -94 -8l-6 12v2q0 13 64 16v-4l6 4h35l18 5v-5l6 5h12q5 0 5 -5l8 5h6q4 0 4 -5l6 5h4q4 0 4 -5l8 5q5 0 5 -5l18 5h6q7 0 15.5 -1t21 -2t20.5 -2l21 5l20 -5q5 0 5 5l18 -5h129q4 0 9.5 1t13 2t12.5 2q5 -5 26 -5h25l21 5v-5q2 0 2 5 q8 0 8 -5q94 9 239 9h7q8 -3 8 -9q0 -25 -45 -82q-19 -32 -44.5 -75.5t-40.5 -69.5t-24 -43l-172 -264q-142 -192 -182 -287q-65 -89 -117 -184q-14 -17 -133 -199l-117 -192q27 0 27 -4l8 4q54 -4 72 -4v-5q18 9 24 9q4 0 4 -4l27 4h27q4 0 4 -4q8 4 10 4q5 0 19.5 0.5 t43 1.5t56.5 2l8 4q2 0 2 -4l39 4h18q7 0 15 -4q4 0 4 4l18 -4q12 0 37.5 -0.5t73.5 -1.5t92 -2v-4q2 0 2 4l16 -4q7 0 7 4l38 -4h70q4 0 16 4q8 -4 15 -4h4l18 4v-4l6 4q10 -1 19 -2l13.5 -1.5t6.5 -0.5l19 4l4 -9v-12q0 -7 -21 -10l-18 4q-2 0 -2 -4l-21 4h-36 q-10 0 -56 -4q-20 4 -30 4q-7 0 -15 -4q-15 3 -200 6v4q-12 -4 -13 -4t-3.5 0.5l-7.5 1.5t-11 2l-6 -4q-12 4 -13 4q-4 0 -4 -4l-14 4q-246 -6 -373 -6h-31q-6 0 -14 -4q-8 4 -14 4q-3 -12 -25 -12z" />
<glyph unicode="[" horiz-adv-x="628" d="M0 -2v8q0 17 6 29l-2 8q2 16 2 41v82l-2 24q2 0 2 15v14l-2 21q2 0 2 2h-2q0 6 2 12q0 8 -2 22l2 7q-3 0 -6 41q4 0 4 4h-4l4 24l-4 21l4 16q0 9 -4 17l4 8q-4 70 -4 88v8l4 25q-4 0 -4 8l4 32l-4 15l4 8l-4 6q3 9 6 68q-2 0 -2 4q6 74 6 102q-1 14 -2 29.5t-1.5 23.5 t-0.5 11l4 8q-4 0 -4 4v53l4 37q-4 0 -4 4q4 28 4 33v45l4 8q-4 0 -4 4q0 13 4 33q-4 28 -4 31l4 20l-4 8q4 50 4 60v82q0 3 -4 61q4 0 4 4q-7 0 -10 74l6 31h-4v8q0 37 45 37q0 -4 4 -4v4q1 0 13 -4l125 6q2 -2 28 -2l21 2q0 -3 20 -6q0 4 4 4h13q8 0 28 -4q41 6 125 6h12 q15 -9 15 -14q0 -14 -133 -23q0 4 -4 4q-9 0 -29 -4l-82 8q-8 -4 -18 -4h-5q-147 0 -147 -14q0 -15 2 -19q0 -6 -2 -12l6 -96q-4 0 -4 -2q5 0 8 -31l-4 -27l4 -18q-4 -8 -4 -18v-7q0 -8 4 -16l-8 -37q4 0 4 -4v-10q0 -9 -4 -29l4 -18q0 -7 -4 -27l4 -18l-4 -27q0 -1 0.5 -2 t1.5 -3.5t2 -4.5l-4 -23v-24l-2 -8h2q-2 -25 -2 -56v-14l-4 -8q4 0 4 -4v-11l-4 -8h4q0 -2 -4 -10l4 -8l-4 -8q4 0 4 -3v-77l-4 -9h4q0 -28 -8 -88l4 -12l-6 -33q2 0 2 -4v-8q0 -19 -2 -33q2 -4 2 -10l-2 -37q0 -10 2 -14q-2 -4 -2 -17v-83l2 -37q-3 0 -6 -17q4 0 4 -2v-18 l-4 -8q6 0 6 -19q0 -6 -2 -10l6 -16l-4 -19q1 -8 2 -15t1.5 -10t0.5 -4q0 -10 -4 -18l8 -115q-4 -8 -4 -26v-43l-4 -9q10 0 10 -32h4q17 0 49 -4l19 4l8 -4q0 4 4 4h57l37 4q0 -4 8 -4q1 0 3.5 0.5t8 1.5t11.5 2l6 -4q0 4 4 4h8l9 -4q0 4 2 4h86l51 10q9 0 26 -10v-12 q-5 -8 -49 -23h-6l-8 4q0 -4 -4 -4h-39q-25 0 -41 -2q-4 2 -16 2q-9 0 -23 -2q0 2 -2 2v-2q-14 0 -18 2l-132 -6q-8 4 -14 4l-14 -4l-45 6z" />
<glyph unicode="\" horiz-adv-x="569" d="M0 1423q0 13 8 13h8l9 -4q38 -110 65 -228q0 -36 57 -233q0 -43 107 -371l129 -453q41 -121 41 -139q0 -8 -8 -8h-4q-9 0 -9 12l-8 -4h-4v17q-65 195 -119 419q-90 253 -223 809q-49 154 -49 170z" />
<glyph unicode="]" horiz-adv-x="643" d="M0 1475q0 6 14 14h13q85 0 125 -6q20 4 28 4h13q4 0 4 -4q20 3 20 6l21 -2q26 0 28 2l125 -6l12 4v-4q5 0 5 4q43 0 43 -37v-8h-2l6 -31q-3 -74 -11 -74q0 -4 5 -4q-1 -13 -3 -34t-2 -27v-82q0 -6 1 -15t2 -22.5t2 -22.5l-5 -8l5 -20q0 -3 -1 -7.5t-2 -11t-2 -12.5 q5 -25 5 -33q0 -4 -5 -4l5 -8v-45q0 -19 2 -33q0 -4 -2 -4l2 -37v-53q0 -4 -2 -4l2 -8q0 -29 -2 -64q0 -28 6 -102q0 -4 -4 -4q7 -64 8 -68l-4 -6l4 -8l-4 -15l4 -32q0 -8 -4 -8l4 -25v-8q0 -18 -4 -88l4 -8q-4 -8 -4 -17l4 -16l-4 -21l4 -24h-4q0 -4 4 -4q-3 -41 -8 -41 l4 -7q-1 -6 -2 -11l-1.5 -7.5t-0.5 -3.5q1 -2 2 -5l1.5 -4.5t0.5 -2.5h-4q0 -2 4 -2l-4 -21v-14q0 -15 4 -15l-4 -24v-82q0 -9 4 -41l-4 -8q8 -11 8 -29v-8l-33 -41l-45 -6l-14 4q-7 0 -15 -4l-131 6q-4 -2 -16 -2v2q-4 0 -4 -2q-14 2 -23 2q-10 0 -14 -2q-18 2 -41 2h-41 q-4 0 -4 4l-8 -4h-7q-44 15 -49 23v12q17 10 27 10l51 -10h86q2 0 2 -4l8 4h9q4 0 4 -4l6 4q6 -1 11 -2l7.5 -1.5t3.5 -0.5q9 0 9 4l36 -4h60q4 0 4 -4l6 4l18 -4q32 4 50 4h2q0 32 12 32l-4 9v43q0 18 -4 26l8 115q-4 8 -4 18q0 1 0.5 4t1.5 10t2 15l-4 19l6 16q-2 4 -2 10 q0 19 6 19l-4 8v18q0 2 4 2q-3 17 -6 17l2 37v83q0 13 -2 17q2 4 2 14l-2 37q0 6 2 10q-2 14 -2 33v8q0 4 2 4l-6 33l4 12q-8 60 -8 88h4l-4 9v77q0 3 4 3l-4 8l4 8q-4 8 -4 10h4l-4 8v11q0 4 4 4l-4 8v14q0 6 -4 56h4l-4 8v24l-2 23q2 6 2 10l-2 27l2 18q-2 10 -2 27l2 18 q-2 10 -2 29v10q0 4 2 4l-6 37q4 8 4 16v7q0 10 -4 18l4 18l-4 27q3 31 6 31q0 2 -2 2l6 96l-4 12q4 8 4 19q0 14 -148 14h-4q-10 0 -18 4l-80 -8q-20 4 -31 4q-4 0 -4 -4q-133 9 -133 23z" />
<glyph unicode="^" horiz-adv-x="559" d="M-10 1171q15 66 121 285q15 29 32 43h4q66 -66 109 -141q62 -95 111 -141v-7l-9 -2h-10q-70 64 -141 191q-35 44 -60 65q-41 -79 -69 -141q-42 -85 -60 -149l-8 -3h-20z" />
<glyph unicode="_" horiz-adv-x="1067" d="M0 -47q0 10 86 10h33q6 0 14 4q4 0 4 -4l15 4q61 0 163 13v-5q2 0 2 5l152 6v-4q8 3 96 12v-4l8 4h29q4 0 4 -4l8 4h4q5 0 5 -4l6 4l8 -4q2 0 2 4l20 -4h19q33 0 61 -4q70 6 133 8v-4q16 8 50 8q8 -3 8 -8v-8q-9 -15 -21 -15l-14 8l-528 -16v4q-53 -9 -340 -24h-4 q-20 0 -23 10v4z" />
<glyph unicode="`" horiz-adv-x="403" d="M0 1409q8 14 18 14q162 -126 207 -166l74 -59v-4q-3 -14 -10 -14h-8q-93 69 -170 141q-47 24 -111 88z" />
<glyph unicode="a" horiz-adv-x="1046" d="M0 18q28 80 98 310q22 40 101 258q31 60 145 389l143 432h13q9 -3 80 -215q14 -38 55 -240q52 -192 115 -389q58 -185 67 -239h-4q80 -287 80 -301q-4 0 -4 -5q16 0 16 -18h-12v4l4 8h-4q-8 0 -8 -12h-8l-52 188q-48 198 -114 428q0 -16 -195 -22v4q-4 0 -4 -4l-47 4 q-17 0 -37 -4q-70 6 -133 6l-8 -2q-6 2 -17 2h-41q0 -15 -110 -297q-53 -161 -78 -258q-20 -45 -29 -45t-12 18zM246 629h92q6 0 14 -4q4 0 4 4l41 -4h158l25 4q8 -4 18 -4h8q9 0 17 4l8 -4l71 12q-114 372 -114 430q-38 132 -92 283h-4q-110 -357 -246 -721z" />
<glyph unicode="b" d="M0 821q4 46 4 68v47q0 6 -4 14q12 168 18 183q0 4 -4 4l4 16l-4 12h4q-8 18 -8 86q0 2 0.5 11l1.5 27l2 36l-4 6l4 8q-8 16 -8 27q18 18 25 18l12 -4q93 11 127 11h63q102 0 199 -66q86 -77 86 -123q6 -3 6 -8h-2q10 -23 10 -57v-27q0 -146 -157 -229q-33 -11 -35 -11v-4 q125 -21 219 -94q119 -131 119 -299q4 0 4 -22q0 -2 -4 -2l4 -27v-45q0 -104 -59 -225q-47 -68 -140 -102.5t-231 -45.5l-8 2l-23 -2h-10q-4 0 -4 2l-6 -2q-4 0 -4 2q-23 -3 -23 -6l-18 4h-4q-24 0 -52 -4q-77 0 -77 33l-9 41q4 46 4 67v27l-4 16h4l-4 9v12q0 2 4 2l-4 8v6 q0 27 4 31q-4 32 -4 41v92q0 6 4 14q-4 12 -4 13h4l-4 6v49q0 12 -4 78q4 8 4 10q-8 41 -8 129v4q0 4 4 4l-6 33q0 6 2 10q-3 71 -6 86zM27 711q6 -15 6 -41v-37q0 -49 8 -156q0 -3 -0.5 -8t-1.5 -14.5t-2 -18.5l4 -18q0 -6 -4 -6l4 -37q0 -40 -4 -86q4 -62 4 -92 q0 -4 -0.5 -14t-1.5 -28l-2 -36q4 -8 4 -15h-4q6 -15 6 -41v-22q0 -10 35 -10q36 0 90 -4q110 3 121 10q8 -4 14 -4q1 0 2.5 0.5t5 1.5t6.5 2v-4q176 27 244 86q60 40 98 219q0 2 -4 2q3 51 7 51l-19 146h4q-34 140 -102 211q-98 73 -219 88q0 4 -11 4q-70 -6 -94 -6l-6 2 q-24 -7 -104 -7h-15q-6 0 -14 -4q-8 4 -14 4q-24 -8 -31 -8h-10l4 -45v-14q0 -6 -4 -14q4 -8 4 -15v-8q0 -6 -4 -14zM27 848l36 6q5 0 5 -2q46 6 73 6l27 -4q178 0 299 127q23 26 45 111l-4 8v6q0 4 4 4l-4 6l4 27q-27 106 -90 151q-41 47 -184 68l-22 2t-16 1.5t-7 0.5 q-108 -12 -138 -12h-18l-4 -19l4 -24q0 -4 -4 -4l4 -19v-160q-10 -188 -10 -192l4 -23h-4q0 -4 4 -4l-4 -24v-37z" />
<glyph unicode="c" horiz-adv-x="1095" d="M0 616q4 28 4 35v74q0 90 53 297q58 146 138 217q53 61 129 96q124 53 227 56v-5l8 5q131 0 248 -91q0 -1 24 -22v-6q0 -8 -8 -8h-8q-51 53 -104 73.5t-156 32.5q-144 -9 -256 -74q-82 -50 -121 -102q-73 -94 -117 -246q-32 -120 -32 -221q0 -2 -4 -2l4 -8l-4 -131 q0 -163 182 -381q205 -172 303 -189q4 0 16 -4q4 0 4 4l21 -4h8q212 0 389 201q-4 0 -4 4l8 4h4q13 -3 13 -22q-182 -209 -389 -209h-37q-131 0 -344 192q-157 170 -187 316q0 23 -8 47h4l-4 6v39q0 22 -4 26z" />
<glyph unicode="d" horiz-adv-x="954" d="M0 -4l10 16v54q0 4 4 4l-4 6q0 4 4 4l-4 6v137q0 31 -6 101h2l-2 8v51q0 21 2 35l-2 6q0 4 2 4l-2 27v20q0 15 2 19l-6 53q4 62 4 88l-4 22q4 8 4 11l-4 45q23 292 23 377h4l-4 8q0 4 4 4l-4 8v20q0 3 -5 33q0 4 5 4q-9 43 -9 82h4l-4 8q0 3 4 3l-4 8v96l-4 18l17 11 q4 0 15 0.5t31 1.5t38 2q347 -46 444 -125l96 -82q0 -4 68 -78q0 -12 41 -86q0 -1 5 -14.5t12 -34t11 -35.5h-4q37 -107 37 -303l4 -8q-9 -127 -49 -281q-11 0 -41 -86q-86 -138 -221 -203q-142 -65 -276 -65l-21 4l-53 -8v4l-8 -4h-4q-55 0 -82 -12q-3 0 -11 4 q-32 -4 -41 -4h-8q-7 0 -10 16zM27 356q4 -8 4 -10q0 -36 6 -70q0 -4 -4 -4q6 -72 8 -77l-4 -23v-45q0 -8 4 -16l-4 -25v-74l-4 -6h4l18 4v-4q12 5 133 14h5q4 0 4 -4l8 4h24q1 0 41 5l9 -5q20 7 83 17v-4q238 68 322 198q91 155 100 252q6 22 15 109v37q0 10 -2 12 q2 6 2 12q-3 69 -6 72q4 4 4 14q0 44 -13 70l4 6q-32 197 -121.5 316t-254.5 182q-232 55 -334 55v2q-38 -10 -41 -10v-33l4 -18h-4l4 -9v-40q0 -31 2 -56h-2q8 -34 10 -69q-4 -36 -4 -60q0 -6 4 -26q-9 -170 -24 -281l4 -6v-35q0 -2 -4 -2l4 -8v-19q0 -4 -4 -4l4 -12 q0 -2 -4 -2l4 -18v-74q0 -13 -4 -13l4 -18v-197q0 -4 -4 -4z" />
<glyph unicode="e" horiz-adv-x="950" d="M0 700l4 25v102q0 23 8 47q-4 12 -4 13l4 8q0 2 -4 2l4 21v16q10 87 13 246h4l-4 8v67q0 11 4 31l-9 64q1 2 2 5t2 4.5t1 2.5l-13 18q17 17 51 17q9 0 283 4l8 4l8 -4q21 9 60 12l8 -4q8 4 16 4h5q4 0 4 -4l8 4h6q4 0 4 -4q19 5 102 16l25 -4q3 0 11.5 0.5t25 1.5t31.5 2 v-4q13 6 61 9q33 0 33 -21q-10 -13 -55 -16l-21 4q-1 0 -3.5 -0.5l-7.5 -1.5t-11 -2q-9 0 -17 4q-36 -4 -43 -4h-51q-4 0 -16 -4q-5 0 -5 4l-233 -25v4l-6 -4h-51q-13 0 -13 4l-24 -4q-60 0 -99 -2q-16 2 -55 2v-2q4 -12 4 -16h-4q0 -4 4 -4l-4 -39v-72q0 -4 4 -16 q0 -5 -4 -5q0 -8 4 -8l-26 -489q4 -12 4 -17q64 9 121 9v-4l8 4l8 -4l8 4q4 0 4 -4l27 4h80q18 -3 18 -9l8 5q114 4 123 4l17 -4q8 4 12 4v-4q0 6 121 12l16 -4q21 8 60 8q8 -13 8 -25q0 -9 -92 -12v4q-5 0 -5 -4q-96 -2 -217 -2h-73q-9 0 -17 -4l-51 6q-24 -3 -137 -6v4 l-8 -4q-4 0 -4 4l-39 -8q8 -13 8 -21q0 -17 -4 -37l6 -112q0 -15 -2 -33q2 -41 2 -106q0 -39 -6 -39l4 -9v-4q0 -57 6 -100q-1 -6 -2 -11.5t-1.5 -8t-0.5 -3.5q12 -108 12 -122h-4l8 -31q110 -4 119 -4q5 0 119 4l18 -4q12 4 17 4v-4l8 4l39 -4l8 4q4 0 4 -4q41 2 123 14v-4 q0 9 240 12v-22l-91 -13q-2 1 -5 2t-4.5 2t-2.5 1l-8 -5l-23 5q-1 0 -4 -1t-8.5 -2t-11.5 -2l-8 5q-10 -5 -17 -5q-4 0 -4 5q-17 -10 -69 -13q-5 0 -5 4q-3 0 -94 -16v4q-4 0 -4 -4q-62 4 -67 4h-187l-22 -4q-90 9 -90 29q-9 58 -9 98v35q0 4 -4 16l4 8q-4 12 -4 13l4 8 q-9 9 -12 69l4 25v68q0 6 -4 14q3 43 8 43l-4 8v21q0 4 4 4q-8 19 -8 84q0 15 4 35q-4 28 -4 38v66q0 10 -4 18z" />
<glyph unicode="f" horiz-adv-x="925" d="M0 1319l4 61q-4 8 -4 13l16 14h4l11 -8q136 -4 162 -4h16q10 0 14 -2q6 2 17 2h59l20 4v-4l9 4q6 0 14 -4l12 4q9 0 21 -4l90 8v-4q8 4 10 4q4 0 4 -4l21 4h73l21 4v-4q4 0 4 4l39 -4h8q5 0 17 4q8 -4 16 -4h14q5 0 17 4l8 -4l8 4q45 -3 45 -12q-16 -23 -27 -23 q-21 8 -34 8h-31q-19 0 -51 -4q-20 4 -29 4q-4 0 -4 -4q-8 0 -8 4q-310 -12 -428 -12l-8 4q-5 0 -5 -4l-26 4h-88q-11 0 -11 -39l15 -286q0 -5 -4 -5l4 -38v-50q0 -16 4 -16l-4 -27v-190q20 0 110 4q70 -4 86 -4v-4l9 4q145 0 272 10v-4l6 4h68l24 4l8 -4q36 8 70 8l4 -8v-4 q0 -18 -98 -18h-12q-4 0 -4 4l-7 -4h-32l-27 -4v4l-8 -4h-33l-27 -3v3q-9 -3 -12 -3q-7 0 -30.5 -0.5t-69.5 -1.5l-92 -2l-9 -4q-8 4 -12 4t-4 -4l-18 4h-39q-13 0 -119 -4q0 -4 -4 -4l12 -78h-4q19 -82 41 -305h-4q13 -148 31 -293q-3 -14 -9 -14q-22 0 -22 92q-4 0 -4 8h4 q-13 44 -25 238h4q-40 334 -51 360q-4 0 -4 7q6 9 12 51l-4 8v14q0 4 4 4l-4 9v14q0 4 4 4l-4 8v53q0 4 4 4l-4 9v6q0 4 4 4q0 4 -4 4l4 14l-2 12l-1.5 9t-0.5 4l4 18l-4 9l4 8l-4 22h4l-4 8v3q0 62 -8 153q0 4 0.5 12.5t1.5 24t2 29.5q-8 39 -8 96z" />
<glyph unicode="g" horiz-adv-x="1064" d="M0 571h4l-4 7v114q0 311 127 527q153 202 377 202q4 0 4 -4l37 4q200 0 270 -73h4v-15q0 -8 -8 -8q-42 42 -139 70q-4 0 -4 -4q-31 3 -31 8q-4 0 -4 -4l-19 4h-100q-6 0 -14 -4q-4 0 -4 4l-21 -4h-20q-154 0 -305 -189q-65 -95 -80 -192q-21 -69 -27 -80q0 -4 2 -4 q-18 -94 -27 -203l5 -18v-54q0 -425 221 -610q68 -35 164 -35l36 -2t27.5 -1.5t11.5 -0.5q162 21 213 66q158 152 158 393q0 25 -12 151q-77 6 -80 9q-36 -4 -41 -4h-123q-2 0 -2 4l-8 -4h-4q-4 0 -4 4q-5 0 -5 -4l-16 4q-28 1 -58 2t-45.5 1.5t-21.5 0.5v4q-4 0 -4 -4 q-5 1 -10.5 2t-8 1.5t-3.5 0.5t-3.5 -0.5t-8 -1.5t-11.5 -2q-8 4 -12 4v10l8 12q70 -4 76 -4h30q5 0 5 -4l12 4q8 -1 15.5 -2t11 -1.5t4.5 -0.5q2 0 2 4q39 -8 131 -8h186q10 0 10 -14q13 -180 13 -195v-20q0 -2 -5 -2q0 -4 5 -4q0 -136 -134 -332q-107 -88 -221 -88 q0 -5 -35 -8q-219 0 -270 57q-79 64 -119 145q-98 203 -98 389z" />
<glyph unicode="h" horiz-adv-x="1040" d="M0 1430l12 8h4q8 0 17 -95h-4q22 -113 22 -331q4 -12 4 -13h-4l4 -8v-16q0 -15 -4 -51q4 -20 4 -29h-4l4 -6q1 -36 2 -77.5t1.5 -63.5t0.5 -33h142l41 4v-4l8 4q10 0 96 4v-4l8 4q68 -8 115 -8h4q4 0 4 -4l8 4h56q12 0 12 -4l20 4h11q12 0 106 4v-4l8 4h111v14 q0 12 -2 12l2 21v8l-2 47h2l-2 8v154l2 25q-2 4 -2 22l2 8q-2 6 -2 13h2q-2 6 -2 12l2 14q-2 6 -2 13h2l-2 8v67q0 9 -4 21l4 22v72q0 25 2 39q-2 10 -2 35v8q0 4 2 4l-2 8v12q0 5 2 5l-2 8q0 7 10 10h4q13 0 13 -43v-31q0 -4 -5 -4q0 -4 5 -4l-5 -20v-56q0 -4 -4 -4 q0 -4 4 -4l-4 -39q0 -2 0.5 -7.5t1.5 -17t2 -22.5h-4l9 -43h-5l5 -8v-4q0 -17 -5 -17l5 -26v-39q0 -6 -5 -16l5 -9l-5 -8q0 -4 5 -4l-5 -39v-63q0 -2 5 -17l-5 -8l5 -6q0 -4 -5 -4l5 -29v-39q0 -12 4 -106h-4l4 -8v-103q9 -242 26 -348q0 -4 -4 -4l8 -103h-4q8 -19 8 -69 v-17q0 -4 -22 -20h-4v4l4 8l-8 4q3 13 8 13q-9 65 -12 172h4q-6 18 -8 37h4q-21 135 -21 149h4q0 4 -4 4q-3 204 -10 303l-8 -4h-54q-5 0 -59 -4v4l-6 -4h-37q-4 0 -4 4l-6 -4h-53q-7 0 -15 -4l-8 4q-2 -1 -5 -2l-4.5 -1.5t-2.5 -0.5v4q-4 0 -4 -4l-29 4h-49q-49 0 -117 8 l-6 -4l-8 4q-27 0 -76 -8q-8 4 -10 4q-28 -4 -37 -4v4l-8 -4h-56q-8 0 -86 -4v-18q0 -5 -4 -17q4 -13 13 -86h-5l5 -8v-12q0 -13 -5 -13q9 -67 21 -299l-4 -8q7 -43 10 -88h-4l4 -6v-4q0 -4 -4 -4l4 -8v-25q0 -36 8 -49q-3 -21 -12 -21h-2q-18 0 -21 74l5 8q-14 121 -17 310 q-4 8 -4 12h4l-4 6q-9 323 -18 455q4 8 4 22l-4 17l4 8l-4 8q4 36 4 43q0 4 -4 16q0 4 4 4q-4 28 -4 31q0 113 -29 400z" />
<glyph unicode="i" horiz-adv-x="219" d="M0 12q0 50 8 189h4l-4 8q3 100 8 100l-4 21v137q0 4 4 16q-4 8 -4 17v12q0 2 4 2l-4 8v41q0 4 4 4q0 4 -4 4l4 21v4q14 167 17 297h4q0 4 -4 4l4 12q4 144 4 176v9q0 8 -4 16q0 4 4 4l-4 21v100q0 4 4 4l-4 8q0 81 -8 185q6 0 14 4l12 -17v-22q0 -17 -4 -37q4 -28 4 -41 v-33l4 -18h-4l4 -8v-5q0 -4 -4 -4q0 -4 4 -4l-4 -24l8 -181h-4l4 -8v-12q0 -4 -4 -4q0 -4 4 -4q-9 -44 -12 -209l-4 -8q0 -4 4 -4q-14 -203 -14 -363v-139q0 -70 -8 -70l4 -8v-55q0 -82 -8 -82q0 -4 4 -4l-4 -39v-25q0 -8 -9 -8h-8q-8 0 -8 12z" />
<glyph unicode="j" horiz-adv-x="1054" d="M0 561q0 5 10 12q21 0 39 -141q-4 0 -4 -2q8 0 29 -143q14 -61 39 -109q17 -26 20 -26q80 -80 252 -121q4 0 4 4q36 -8 68 -8l16 4v-4l8 4h11q103 0 213 90l8 -4q109 118 118 196q16 74 23 86l-4 7q0 20 6 20l-2 6q0 17 6 17l-4 8l6 18l-2 8q3 21 6 21l-4 8l15 96l-3 6 v31q0 11 3 17l-3 8q3 34 3 55q0 17 -3 23q3 21 3 34v19q0 14 -3 35l3 8l-3 22q0 4 3 4l-3 9v12l3 6q-7 0 -7 8q0 1 4 13q-60 434 -71 501h4l-4 8v9h4q29 0 29 -70q38 -239 38 -301v-8q9 -22 23 -144q0 -4 -2 -4l2 -39v-100q0 -4 -2 -4l2 -8v-58q0 -10 -2 -16l2 -6l-2 -16 q0 -5 2 -5l-2 -18v-55q0 -4 -4 -4q0 -2 4 -2q-9 -103 -14 -103q0 -4 4 -4q-28 -188 -60 -250q-71 -116 -143 -155q-92 -62 -166 -62l-6 4l-23 -4l-6 4q-5 -5 -35 -8v4l-8 -4q-4 0 -4 4q-2 0 -2 -4q-81 0 -221 61q-84 44 -127 117l-39 117q4 8 4 10q-12 35 -29 121l5 6 q-8 19 -25 129z" />
<glyph unicode="k" horiz-adv-x="1056" d="M0 723h4l-4 6q0 11 4 39q-4 74 -4 106q0 9 4 17l-4 8q3 43 6 43l-2 8v4l2 25q0 2 -2 2q3 71 6 80l-4 8q9 12 12 59q-4 8 -4 13l4 6q-4 8 -4 16q0 4 4 4l-4 9v4q0 12 4 12l-4 18v9q3 18 9 18l-5 20v13q0 4 5 4l-5 8v47q0 4 5 4l-5 8v5q0 8 5 18l-5 25q0 1 1 2.5t2 4.5t2 5 q-5 25 -5 26q7 17 13 17q13 0 16 -76q-2 -146 -10 -346h-4q0 -4 4 -4q-6 -40 -6 -80v-14q0 -4 -4 -4q0 -5 4 -5q-4 -62 -4 -67v-17q0 -4 -4 -16q4 -8 4 -10q0 -4 -4 -4l4 -21v-14q0 -4 -4 -4l4 -8v-31q0 -8 4 -16q-4 -12 -4 -13q192 119 286 193q36 15 211 145l256 199 l74 78q-4 0 -4 4l6 4v-4q11 8 21 8q10 -17 10 -29q-207 -186 -326 -264q-73 -64 -291 -209q-53 -44 -73 -47q-74 -50 -74 -53v-4q28 -3 190 -174l166 -152q216 -192 398 -334q24 -18 24 -22v-8l-4 -9l-6 4l-19 -4q-123 126 -178 150q-67 67 -162 141q-13 18 -174 158 q-110 102 -202 194q-24 7 -56 39q-69 -34 -69 -43l6 -41h-4l4 -8q15 -404 22 -418l-4 -14q3 -45 13 -55q-3 -13 -9 -13l4 -8v-47q0 -1 5 -16q-6 -35 -13 -35h-8q-7 0 -10 20h4l-4 9v39q0 4 -4 16q0 2 4 2l-4 29v18q0 4 4 4l-4 8v29q-6 58 -6 64v30q0 4 4 4l-4 9v8q0 4 4 4 q-10 24 -13 125q0 1 1 4t2 8.5t2 11.5z" />
<glyph unicode="l" d="M0 725q4 20 4 31v26l-4 25l4 8l-4 8l4 17q0 6 -4 26q2 117 14 244q0 4 -4 4q8 44 8 64q0 58 -18 249l10 9h4q6 0 13 -13v-4q14 -161 14 -219q-14 -241 -14 -321v-56q0 -4 -4 -4l4 -8q0 -23 -4 -39q4 -82 4 -113v-61q0 -8 4 -16q-4 -12 -4 -17q0 -1 0.5 -5l1.5 -12l2 -16 h-4q7 0 10 -245q4 -12 4 -13q0 -4 -4 -4l4 -18v-74q6 -126 6 -137v-8q23 -3 23 -8l8 4h4q19 0 98 8h8q5 0 5 -4l8 4h28q4 0 4 -4q8 4 11 4l8 -4q8 4 10 4v-4q4 0 4 4l19 -4l14 4l12 -4q6 0 6 4l45 -4h107q4 0 4 -4l8 4q15 -1 29.5 -2t21.5 -1.5t9 -0.5q1 0 2.5 0.5t5 1.5 t6.5 2q8 -4 18 -4q5 0 5 4l18 -4h37q6 0 14 4q8 -4 15 -4h4q4 0 16 4q20 -6 20 -13v-8q0 -8 -6 -8q0 4 -4 4l-4 -8l-26 4h-3q-12 0 -12 -4l-18 4h-68q-8 0 -16 -4l-23 4h-63q-4 0 -4 4l-6 -4l-9 4l-12 -4v4l-6 -4h-23q-4 0 -4 4l-6 -4q-1 0 -4.5 0.5t-11 1.5t-15.5 2 q-8 -4 -10 -4v4q-4 0 -4 -4l-27 4h-92q-4 0 -4 4l-6 -4h-4q-4 0 -4 4l-6 -4q-6 1 -11.5 2t-8 1.5t-3.5 0.5l-18 -4q-4 0 -4 4q-58 -12 -70 -12h-18q-45 0 -45 16v4q0 11 -1 26.5t-2 38t-2 38.5q0 4 5 4l-5 20v140l-4 26h4l-4 9v84q0 65 -8 96h4l-4 8v43q0 10 -2 16q2 4 2 17 v14q0 10 -2 16q0 5 2 5z" />
<glyph unicode="m" horiz-adv-x="1153" d="M0 1368v16q0 4 10 11q26 0 109 -103q20 -16 131 -159q31 -31 244 -308q69 102 204 256q0 16 199 258q0 11 16 21q-8 19 -8 33q49 -6 49 -21v-4q0 -8 -4 -20q4 -20 4 -27q-8 -11 -8 -25v-8l4 -18h-4l4 -8v-5q0 -4 -4 -4l4 -8v-104q0 -13 -4 -21l8 -86q0 -4 -4 -4l4 -20 v-64q0 -4 -4 -4l4 -6v-43q0 -25 4 -135l-4 -8q0 -2 4 -2l-4 -17q0 -34 7 -137q-3 -9 -3 -12q0 -4 3 -4l-3 -21v-104q0 -23 3 -64l-3 -8l15 -141l-4 -9q0 -14 4 -18q0 -5 -4 -33q4 -114 4 -153v-9q0 -4 4 -16q-3 -10 -8 -10l4 -8v-13q0 -6 -12 -12h-7q-9 0 -18 98v4h2l8 -4 v37q0 7 -4 15q0 4 4 4q-4 54 -4 59v64l-4 22l4 8q-4 20 -4 29l4 14l-4 8q0 5 4 5q-5 19 -14 149h4l-4 8q0 5 4 17q-4 46 -4 55v22q0 7 4 35q-4 8 -4 29h4l-4 6v68q0 7 4 43l-4 8q0 4 4 4l-4 20v21q0 19 -4 47q4 24 4 45q0 8 -4 16q0 5 4 5l-4 18v37q0 66 4 90q-4 70 -4 111 v153h-4q-68 -94 -175 -217q-37 -52 -110 -144.5t-127 -172.5l-10 -9h-9q-194 260 -239 316q-35 30 -191 227l-28 23q0 -7 2 -13l-2 -26l2 -39h-2l2 -8v-4q0 -10 4 -56q0 -4 -4 -4l4 -18v-103q0 -9 -4 -63q0 -4 4 -4l-4 -21v-39q0 -4 -2 -4l2 -8q11 -250 22 -352q-4 0 -4 -4 l8 -4l-4 -17l4 -26h-4q4 -12 4 -13q0 -40 13 -129l-4 -8l14 -149l6 4l4 -8q-7 0 -10 -31q18 -126 18 -182l-8 -5h-10q-10 3 -10 25h2q-34 352 -43 596q-5 0 -8 41l4 14l-9 105h5l-9 35q0 4 4 4l-4 26v142q0 8 -4 16q3 39 8 39l-4 20v78q0 18 -4 76q4 8 4 10q-10 102 -14 123 z" />
<glyph unicode="n" horiz-adv-x="933" d="M0 84l4 6q0 4 -4 4l4 21q8 164 8 231h4q0 4 -4 4q3 39 8 39q0 4 -4 4q2 63 11 185l-2 8l2 8l-2 18h2l-2 9v43l-5 20h5l-5 8v8q0 6 1 14.5t2 21t2 20.5q0 4 -5 4l5 18v94q0 5 2 5q0 4 -2 4l2 18q0 65 8 166l-4 8q3 39 8 39l-4 8q12 170 12 264v5l-4 26q19 22 33 25 q9 0 51 -51q24 -9 233 -230q260 -309 304 -368q53 -56 69 -56v25l-4 26h4l-4 9v8q0 77 -10 145q0 2 4 2q-2 83 -21 178q0 5 5 5q-9 52 -9 149v4q0 6 -4 14q4 12 4 17l-4 12q4 8 4 17l-4 18h4l-4 8v17q0 4 4 4q-6 17 -8 47l8 4h13q8 -3 8 -8q-4 0 -4 -4l8 -5q-4 -28 -4 -30 l4 -29q0 -4 -4 -4l4 -39v-80l31 -446q0 -23 12 -137v-89q0 -24 2 -34q-2 -14 -2 -39v-56l14 -260h-4l4 -8v-65l4 -21h-4q3 -25 13 -35v-12q0 -4 -5 -4l5 -8q0 -2 -5 -2l5 -9l-5 -20h-16q-8 0 -14 80h4l-4 6v123q0 58 -17 235v25q0 40 4 86q-4 36 -4 82v47q-96 84 -159 176 q-64 74 -240 291q-177 180 -266 256q0 -2 -4 -2l4 -21v-4q0 -20 -4 -28q4 -28 4 -31q-19 -210 -21 -385h-4q0 -4 4 -4l-4 -12q-1 -43 -2 -83.5t-1.5 -60.5t-0.5 -24q0 -12 0.5 -33t1.5 -59.5t2 -69.5q-20 -296 -20 -445l-4 -12q0 -4 4 -4q0 -1 -0.5 -2t-1.5 -3.5t-2 -4.5 q4 -58 4 -76v-35q0 -8 -6 -8h-9q-13 0 -16 84z" />
<glyph unicode="o" horiz-adv-x="1050" d="M0 608l4 15l-4 53q21 223 33 223q0 4 -2 4q2 14 2 31q-2 4 -2 10q5 0 32 133q37 109 78 166q85 104 156 137q91 31 131 31l8 -4q1 0 13 4l18 -4q2 0 2 4q167 0 279 -127q89 -111 141 -280q14 -60 14 -101v-18q0 -508 -219 -799q-116 -96 -199 -96h-67q-89 9 -180 63 q-87 55 -164 166q-53 178 -74 389zM23 578l40 -244q21 -119 80 -166q59 -74 119 -105q92 -51 182 -51q299 0 404 533q24 152 33 274q0 4 -4 4l4 19v73q-6 100 -88 271q-71 99 -123 143q-81 49 -148 55q-4 0 -4 -4l-55 9q-161 0 -252 -101q-88 -76 -137 -262 q-26 -101 -51 -362q4 -54 4 -64q-1 -5 -2 -10.5t-1.5 -8t-0.5 -3.5z" />
<glyph unicode="p" horiz-adv-x="925" d="M0 -2q6 129 14 129l-4 23l4 32l-4 8q3 19 8 19l-4 6q1 36 9 113l-5 10l9 47q-4 8 -4 16l4 7l-4 12h4l-4 6v92l-5 35q3 33 9 33l-4 8v51l-5 23q0 4 5 4l-5 43v35q0 6 -4 14q0 4 4 4l-4 18v60q0 2 4 2l-4 8l4 27q-8 0 -8 6q0 10 4 10l-4 21v61q0 6 4 14q-6 17 -8 49l4 9 q-4 8 -4 14t4 14q-4 12 -4 13t0.5 3t1.5 7l2 10l-4 8q4 8 4 11l-4 12q2 19 8 37q-4 8 -4 14q0 7 4 27q-4 28 -4 47q0 2 4 30l-4 7l8 53l-4 6l4 23v4q-14 20 -14 24q3 17 10 17h13q83 6 88 6v-2l8 2h166q70 0 280 -66q101 -40 138 -110q73 -158 73 -252v-19q0 -70 -65 -159 q-159 -170 -453 -170h-94q-4 0 -4 4q-4 0 -4 -4q-18 0 -117 18l-2 -6l2 -37h-2l2 -8v-146l4 -18h-4q4 -8 4 -10q0 -80 -10 -262q0 -5 4 -5q-9 -200 -23 -200h-8zM33 1016q0 -27 4 -191l4 -6q-4 -12 -4 -14v-53l4 -19h-4l4 -8v-2l-4 -18q94 -17 151 -17h19q4 0 4 -2q4 0 4 2 l14 -2q156 6 220 23q0 -4 2 -4q8 5 108 45q197 105 197 266q0 66 -68 231q-69 96 -123 96q0 12 -110 46q-128 32 -156 32l-14 -4q-50 4 -56 4q-2 -1 -5 -2l-4.5 -1.5t-2.5 -0.5v4l-6 -4h-23q-20 0 -28 -2l-19 2q-24 0 -104 -6q6 -12 6 -18q-2 -34 -5 -72.5t-4 -54t-1 -19.5 q4 -8 4 -20h-4l4 -8q0 -5 -4 -5q0 -4 4 -4q-4 -78 -4 -92v-102z" />
<glyph unicode="q" horiz-adv-x="1116" d="M0 604h4l-4 8v27l27 139l-4 8q9 106 18 121q0 4 -4 4q24 133 96.5 266t155.5 201q47 33 125 33q0 4 4 4l8 -4l6 4l8 -4q3 0 11 4q117 0 288 -110q29 0 115 -138q100 -199 100 -299v-227q0 -2 -4 -2l4 -8q-3 -101 -10 -101q0 -4 2 -4q-21 -134 -76 -270q-14 -40 -90 -135 q-10 -20 -24 -31q157 -219 157 -233v-2l-6 -5h-4q-6 0 -92 130q-49 69 -76 96q-104 -82 -174 -82h-65q-116 0 -267 86q-68 63 -118 151q-76 107 -97 285q-4 8 -4 23h4q-10 23 -10 36h2q-6 21 -6 29zM27 590q24 -194 51 -252q77 -165 160 -236q131 -82 274 -82h39 q78 0 168 78l-164 226l-51 88l8 4h6q5 0 137 -197l80 -106q58 49 99 129q27 35 79 243q17 129 17 150v196q0 11 2 15q-15 150 -47 194q-108 248 -170 248q-70 64 -230 105l-8 -4h-37q-4 0 -4 4q-163 0 -239 -162q-154 -216 -154 -508q-16 -82 -16 -102v-31z" />
<glyph unicode="r" d="M0 1376q0 4 4 4l-4 21v31q6 18 96 18v-4q4 0 4 4l19 -4q5 0 123 -4v-4q4 0 4 4q208 -18 268 -58q73 -40 113 -161q12 -41 12 -70q-6 -75 -66 -172q-66 -88 -204 -145q-130 -48 -160 -48v5q-30 -8 -156 -17v-4q35 -30 309 -313q136 -133 246 -266q76 -77 129 -144v-4 q0 -6 -6 -6l-12 6l-8 -2q-29 40 -164 184q-81 102 -301 316q0 8 -203 202l6 -122h-4l4 -9v-45q0 -6 4 -14q0 -4 -4 -4l4 -29v-141q0 -4 -4 -4q0 -4 4 -4l-4 -37v-25q0 -4 -4 -4q0 -4 4 -4l-4 -27v-40q0 -13 -2 -17q0 -4 2 -4q-10 -98 -10 -172q0 -4 4 -16q-6 -27 -12 -27h-9 q-6 0 -6 8v35l-4 18h4l-4 9v12q0 4 4 4q-4 8 -4 10l15 158l-5 8q3 80 9 80q0 4 -4 4l4 27v114q0 5 4 5l-4 8v30q0 5 4 5l-4 8q-1 31 -2 67.5t-1.5 56t-0.5 29.5l-5 19h5l-5 8v39l-14 14v21q0 8 10 8v84l-2 22l2 9q-6 346 -14 456zM23 1384q3 -91 8 -106q0 -4 -4 -4l4 -29 v-63q0 -4 -4 -4l4 -9q0 -12 -4 -12q12 -73 12 -293l4 -14q0 -4 -4 -4l4 -19v-8l-4 -18h31l18 4v-4l70 10q4 0 4 -2q88 6 174 37q3 5 94 47q90 51 113 88q67 94 67 166h4q0 91 -92 203q-86 51 -215 57q-83 7 -149 16l-8 -4q-78 4 -80 4q-47 0 -47 -18q0 -4 4 -4z" />
<glyph unicode="s" horiz-adv-x="833" d="M0 336v6q0 9 18 12q10 -10 13 -73q49 -110 102 -160q94 -105 178 -105q0 -2 84 -14l8 4h5q152 0 251 166q23 71 23 82q0 14 2 18q-2 4 -2 15q0 4 2 4l-2 8v2q0 4 2 4l-2 8v6q0 87 -84 209q-146 165 -240 211q-68 36 -178 158q-54 76 -88 205q-4 54 -4 88q0 131 193 225 q108 31 163 31q206 0 267 -137q28 -73 28 -92h-6q-26 0 -26 43q-61 159 -211 159h-4q-5 0 -5 4q-8 -4 -10 -4l-8 4q-8 -4 -10 -4q-4 0 -4 4q-151 0 -267 -96q-77 -77 -77 -164q0 -110 86 -252q136 -142 188 -161q276 -197 311 -369q11 0 11 -86v-19l4 -22 q-43 -159 -133 -215q-83 -59 -164 -59v4q-2 0 -2 -4l-21 4l-6 -4q-64 9 -68 16l-6 -4q-105 15 -205 121q-106 121 -106 223z" />
<glyph unicode="t" horiz-adv-x="989" d="M0 1376q0 13 41 13h86l37 2v-2q21 5 198 14h66q4 0 4 -4q4 0 4 4l27 -4h88q4 0 4 -4q4 0 4 4l19 -4h100q6 0 18 -4l23 4h43q8 0 82 4q0 -8 14 -8v-7q0 -6 -18 -12l-19 4h-61l-25 -4l-6 4l-18 -4q-68 2 -152 8q-4 0 -4 -4l-18 4h-13q-12 0 -16 -4l-23 4h-30v-18 q0 -6 -4 -14q4 -12 4 -17v-6q0 -8 -6 -8q2 -25 2 -55v-60q0 -146 12 -579h-4l4 -9v-8q0 -4 -4 -4q0 -4 4 -4l-4 -16v-113q0 -2 -4 -14q4 -8 4 -15v-12q0 -2 -4 -2l4 -8v-111l-4 -8q8 0 8 -6v-60q0 -4 -4 -16q0 -2 4 -2l-4 -18v-187q0 -3 -10 -10q-6 0 -13 10v27q0 25 4 221 h4l-4 8v96q0 7 -4 15q4 8 4 14v53q0 7 -4 15q1 2 2 4.5t1.5 3.5t0.5 2q-1 9 -2 19.5t-1.5 15.5t-0.5 8q0 1 0.5 2t1.5 3.5t2 4.5q0 2 -4 10l8 127q0 3 -4 3l4 12q-4 102 -4 125v18l-4 23l4 8q-3 161 -12 188l4 6q-4 12 -4 13h4l-4 8q0 4 4 4l-4 6v41l4 23q0 4 -4 4l4 24v33 l-4 19h4l-4 8q0 4 4 4l-4 24v95q3 18 8 18q-4 8 -4 14h-106l-19 -4v4q-38 -7 -96 -12v4l-6 -4h-37q-12 0 -12 -2l-19 2h-37q-51 0 -94 -2z" />
<glyph unicode="u" horiz-adv-x="1103" d="M0 918v24q0 148 12 148l-4 8q0 4 4 4l-4 8q18 107 23 264q12 64 24 64h4l13 -11q-15 -55 -29 -196q0 -4 4 -4l-22 -197q2 -14 2 -49q0 -4 -2 -4l2 -8v-15q0 -4 -2 -4q0 -4 2 -4q0 -8 -2 -8q15 -277 43 -393q29 -218 126.5 -350t272.5 -187q145 0 252 119q67 99 133 317 q3 33 8 33l-4 8q15 26 39 211v121q0 10 4 60q0 4 -3 35.5t-11 109.5t-15 156v53l-2 31h2q-22 132 -22 141l12 8h4q19 0 31 -145l-4 -9l4 -10l-4 -8q29 -284 29 -362v-80q0 -37 2 -60q-6 -74 -19 -129q0 -4 4 -4q-11 -72 -47 -215h-4l4 -6q-36 -108 -115 -264 q-81 -90 -124 -96q-25 -25 -95 -43q-4 0 -4 4l-20 -4h-31q-93 12 -219 106q-145 151 -172 274q-41 145 -68 361q-4 0 -4 53v64q-8 63 -8 80z" />
<glyph unicode="v" horiz-adv-x="1107" d="M0 1407v4l12 8q25 -9 74 -174q32 -138 133 -454q36 -113 113 -406q52 -167 114 -328q9 -34 17 -34q37 120 106 284q30 89 60 167.5t58.5 157.5t66.5 204q24 56 100 309q5 0 20 69q37 76 58 170q-4 8 -4 21q10 0 10 18h4q7 0 16 -18v-4q-26 -100 -84 -268 q-171 -541 -227 -687l-174 -458l-10 -8h-8q-10 0 -31 77q-111 287 -162 508q-192 616 -192 641q0 33 -70 201z" />
<glyph unicode="w" horiz-adv-x="1386" d="M0 1430l8 4h8q20 -28 82 -336q36 -159 58 -373q86 -357 163 -584q41 -87 41 -102h5q63 155 63 258q20 98 98 295l95 276l18 9q39 0 145 -312q10 -13 45 -108q52 -93 66 -148q17 -26 127 -250q10 -16 12 -16q33 238 33 283l-4 8l4 24v29q0 4 4 4q0 4 -4 4q0 52 49 420 l-4 8l21 254q36 259 36 291q-4 8 -4 16l17 9q0 -7 12 -13q-11 -120 -37 -270q0 -4 4 -4q-15 -126 -24 -295q-4 0 -4 -2q0 -4 4 -4q-20 -205 -50 -361q0 -4 5 -4l-5 -20v-70q0 -4 -4 -16l4 -8q-4 -12 -4 -13q0 -4 4 -4l-4 -20v-13q-21 -286 -49 -286q-13 3 -28 49 q-118 233 -136 283q-4 0 -45 90q-19 25 -41 104q-80 211 -145 334h-4q-48 -189 -150 -430q-37 -161 -53 -262q-44 -142 -67 -168h-9q-13 10 -28 73q-31 64 -86 246q4 0 4 4q-6 0 -41 140q-21 53 -58 229q-9 33 -45 293q-16 51 -41 188q-9 30 -61 267z" />
<glyph unicode="x" horiz-adv-x="1116" d="M0 1423v4q0 7 12 13h4q77 -84 199 -307q178 -285 279 -435q47 62 127 201q43 63 163 270q59 87 109 189q5 0 35 61h8q9 0 12 -20q-83 -136 -117 -201q-32 -47 -206 -344q-72 -116 -115 -176q10 -37 88 -164l170 -340q81 -131 100 -168q-4 -8 -4 -16h-12 q-144 222 -274 516q-52 73 -84 143h-9q-83 -158 -417 -614q-39 -45 -52 -45l-12 16q113 127 266 361q87 117 203 307v4l-211 332q-27 39 -219 356z" />
<glyph unicode="y" horiz-adv-x="1107" d="M-31 1372q7 17 13 17q28 -3 110 -150q147 -211 244 -381q127 -157 127 -170h4q104 129 158 221q12 9 30 49q95 142 203 359q13 13 55 92h13q0 -14 2 -18q-50 -84 -180 -332q-36 -54 -111 -174q-6 -2 -45 -72q-65 -98 -111 -151q9 -45 11 -76h-5l5 -8v-13l12 -92h-4l4 -6 q0 -4 -4 -4q2 -2 8 -51l-4 -9q9 -131 16 -174l-6 -14q6 -3 6 -8v-19q0 -42 17 -178q-13 0 -13 -10h-4q-12 18 -20 18v9h10v4q0 2 -2 2q0 4 2 4q-8 114 -23 248h5q-7 22 -9 37h4l-4 8v41q0 61 -16 202q0 5 2 5l-6 45h4q-8 37 -90 143q-44 44 -88 127q-104 162 -219 332 q-36 65 -68 106q-33 26 -33 41z" />
<glyph unicode="z" horiz-adv-x="1060" d="M0 4q0 10 45 55q9 29 74 123l90 152q56 73 149 229q21 26 64 101q0 3 47 77q110 151 207 306q6 0 33 53q35 53 122 205q54 94 62 102h-113q-6 0 -14 -4q-4 0 -4 4l-19 -4h-149q-4 0 -16 -4q-8 4 -15 4l-22 -4q-4 0 -4 4l-25 -4h-59q-4 0 -4 4q-5 0 -5 -4l-18 4h-217 q-6 0 -14 -4q-5 0 -5 4q-63 -8 -94 -8l-6 12v2q0 13 64 16v-4l6 4h35l18 5v-5l6 5h12q5 0 5 -5l8 5h6q4 0 4 -5l6 5h4q4 0 4 -5l8 5q5 0 5 -5l18 5h6q7 0 15.5 -1t21 -2t20.5 -2l21 5l20 -5q5 0 5 5l18 -5h129q4 0 9.5 1t13 2t12.5 2q5 -5 26 -5h25l21 5v-5q2 0 2 5 q8 0 8 -5q94 9 239 9h7q8 -3 8 -9q0 -25 -45 -82q-19 -32 -44.5 -75.5t-40.5 -69.5t-24 -43l-172 -264q-142 -192 -182 -287q-65 -89 -117 -184q-14 -17 -133 -199l-117 -192q27 0 27 -4l8 4q54 -4 72 -4v-5q18 9 24 9q4 0 4 -4l27 4h27q4 0 4 -4q8 4 10 4q5 0 19.5 0.5 t43 1.5t56.5 2l8 4q2 0 2 -4l39 4h18q7 0 15 -4q4 0 4 4l18 -4q12 0 37.5 -0.5t73.5 -1.5t92 -2v-4q2 0 2 4l16 -4q7 0 7 4l38 -4h70q4 0 16 4q8 -4 15 -4h4l18 4v-4l6 4q10 -1 19 -2l13.5 -1.5t6.5 -0.5l19 4l4 -9v-12q0 -7 -21 -10l-18 4q-2 0 -2 -4l-21 4h-36 q-10 0 -56 -4q-20 4 -30 4q-7 0 -15 -4q-15 3 -200 6v4q-12 -4 -13 -4t-3.5 0.5l-7.5 1.5t-11 2l-6 -4q-12 4 -13 4q-4 0 -4 -4l-14 4q-246 -6 -373 -6h-31q-6 0 -14 -4q-8 4 -14 4q-3 -12 -25 -12z" />
<glyph unicode="{" horiz-adv-x="544" d="M0 768v8q42 0 147 105q33 77 58 188q-4 0 -4 2v8q0 23 -4 113l4 20q-4 0 -4 9q4 0 4 4h-4l10 73q-2 0 -2 5q24 184 157 184h19l27 -4q0 4 4 4l14 -14q0 -17 -72 -17h-10q-34 0 -70 -51q-31 0 -49 -211q4 0 4 -2v-8q0 -27 4 -105q0 -9 -8 -28l4 -9q-9 -50 -18 -69h4 q-28 -97 -51 -123q-64 -73 -123 -88q0 -6 45 -45q18 -49 33 -64q15 -56 18 -110l-4 -6q4 0 4 -5v-18q0 -11 4 -51l-4 -8l4 -9q0 -21 11 -243q-5 0 -5 -4l9 -60q18 -92 49 -114q0 -35 170 -56h2v-18q0 -7 -29 -10q0 4 -4 4v-4q-139 27 -139 47q-61 46 -82 147l4 12q-4 0 -4 5 v6l4 18q-8 0 -8 8l4 9q-5 0 -8 20q4 8 4 16v15l-4 18q4 0 4 4q-4 0 -4 2v8q0 17 4 33q-8 60 -8 82q4 0 4 4q-6 0 -9 27l5 6q-3 145 -11 145l4 7q0 44 -53 133q-51 39 -51 55z" />
<glyph unicode="|" horiz-adv-x="204" d="M0 -346q0 67 8 260h4l-4 10q3 139 8 139l-4 29v189q0 10 4 22q-4 12 -4 23v16q0 4 4 4l-4 12v56q0 6 4 6q0 6 -4 6l4 27v6q16 210 19 409h4q0 6 -4 6q0 5 4 17q4 192 4 244v10q0 10 -4 22q0 7 4 7l-4 26v139q0 7 4 7l-4 10q0 111 -8 256q7 0 16 6l12 -23v-34 q0 -22 -4 -50q4 -36 4 -55v-45l4 -27h-4l4 -12v-6q0 -4 -4 -4q0 -6 4 -6l-4 -33l9 -250h-5l5 -10v-16q0 -7 -5 -7q0 -6 5 -6q-10 -66 -13 -289l-4 -10q0 -6 4 -6q-16 -322 -16 -500v-192q0 -94 -8 -94l4 -13v-77q0 -111 -10 -111q0 -4 6 -4l-6 -57v-33q0 -10 -9 -10h-8 q-8 0 -8 16z" />
<glyph unicode="}" horiz-adv-x="593" d="M0 1473l14 14q4 0 4 -4l25 4h20q134 0 158 -184q0 -5 -4 -5l12 -73h-4q0 -4 4 -4q0 -9 -4 -9l4 -20q-4 -90 -4 -113v-8q0 -2 -4 -2q19 -98 58 -188q102 -105 147 -105v-8q0 -16 -51 -55q-53 -89 -53 -133l4 -7q-8 0 -11 -145l2 -6q-3 -27 -6 -27q0 -4 4 -4q0 -22 -8 -82 q4 -16 4 -33v-8q0 -2 -4 -2q0 -4 4 -4l-4 -18v-15q0 -8 4 -16q-3 -20 -8 -20l4 -9q0 -8 -8 -8l4 -18v-6q0 -5 -4 -5l4 -12q-21 -101 -82 -147q0 -20 -139 -47v4q-4 0 -4 -4q-31 3 -31 10v18h4q170 21 170 56q31 22 49 114l9 60q0 4 -5 4q11 222 11 243l4 9l-4 8q4 40 4 51 v18q0 5 4 5l-4 6q3 54 18 110q12 16 33 64q45 39 45 45q-59 15 -123 88q-23 26 -51 123h4q-9 19 -18 69l4 9q-8 19 -8 28q4 78 4 105v8q0 2 4 2q-21 211 -49 211q-36 51 -70 51h-12q-70 0 -70 17z" />
<glyph unicode="~" horiz-adv-x="778" d="M0 582v24q0 77 96 158q17 10 56 16q69 0 188 -149q55 -49 109 -49h20q43 0 90 59q23 51 23 123l10 6h4q3 0 10 -10v-4q0 -68 -41 -152q-63 -51 -106 -51q-107 0 -201 129q-61 70 -111 70q-69 0 -124 -125v-58l4 -24l-13 -8q-14 0 -14 45z" />
<glyph unicode="&#xa1;" horiz-adv-x="256" d="M0 1309q3 37 14 37h19q20 0 30 -29v-4q-6 -12 -30 -33q-2 0 -2 4l-8 -4h-5q-5 0 -12 10l8 13q-5 0 -14 6zM37 965h4l-4 8v28q0 9 4 17q-4 8 -4 10l4 27l-4 20q0 4 4 4l-4 21v10q0 20 18 29q3 -15 8 -15l-4 -18v-74q0 -6 4 -14q-4 -8 -4 -17q0 -4 4 -110q0 -2 -4 -2l4 -21 v-114q0 -67 7 -107h-2l2 -8v-6l-2 -23q0 -4 2 -4l-2 -18q0 -9 2 -23h-2l2 -8v-33l4 -16h-4l4 -8v-19q0 -4 -4 -4l4 -8q0 -1 -0.5 -2t-1.5 -3.5t-2 -4.5q21 -164 34 -322h-4l4 -8v-27q0 -2 -4 -2q0 -4 4 -4q0 -2 -4 -10l6 -59h-2l7 -35q-3 -23 -11 -23q-18 0 -18 64v63 q0 4 4 4l-4 6v17l-4 37h4l-4 6v10q0 4 4 4q-11 41 -31 275q0 4 4 4l-4 14q0 113 -8 225q0 4 4 4l-4 19v27q0 4 4 4l-6 36q0 3 2 3q-2 43 -2 94v43z" />
<glyph unicode="&#xa2;" horiz-adv-x="1138" d="M0 616q4 28 4 35v74q0 90 53 297q58 146 138 217q53 61 129 96q124 53 227 56v-5l8 5q25 0 39 -2q6 30 25 92l8 4h6q6 0 6 -12q0 -13 -18 -89q97 -15 182 -84q0 -1 24 -22v-6q0 -8 -8 -8h-8q-68 71 -166 92l-31 6l-18 -72q-115 -573 -201 -858q-46 -212 -73 -321 q115 -83 184 -95q4 0 16 -4q4 0 4 4l21 -4h8q212 0 389 201q-4 0 -4 4l8 4h4q13 -3 13 -22q-182 -209 -389 -209h-37q-90 0 -224 96q-13 -58 -26 -100v-17h-2l-8 4q0 -14 -9 -14h-4q-6 0 -6 10q0 22 33 131q-33 25 -98 82q-157 170 -187 316q0 23 -8 47h4l-4 6v39 q0 22 -4 26zM25 586q0 -163 182 -381q78 -65 96 -78q36 152 115 471q94 352 94 393q51 208 51 246q6 39 29 129l-37 4q-144 -9 -256 -74q-82 -50 -121 -102q-73 -94 -117 -246q-32 -120 -32 -221q0 -2 -4 -2l4 -8z" />
<glyph unicode="&#xa3;" horiz-adv-x="933" d="M-100 670v4q0 4 16 14h178l25 -2l8 2l6 -2q6 2 17 2v-2q4 2 20 2q0 27 -8 74l4 6l-8 70l4 12q-3 58 -8 63l4 9q-3 52 -13 65q0 4 5 14q0 2 -1 8t-2 15.5t-2 19.5q3 121 13 121q0 4 -4 4q38 164 69 164q67 94 160 94h59q69 -19 121 -49q60 -54 60 -75q0 -9 -9 -9h-8 q-82 113 -223 113q-100 -24 -100 -47q-58 -30 -86 -115q-25 -103 -25 -176l4 -33l-4 -18q6 -27 16 -141q0 -5 -4 -5l9 -71q-5 -15 -5 -17q0 -10 9 -59l-4 -16l4 -23h4q12 0 14 2l21 -6q3 6 8 6l47 -2l47 2q14 -2 22 -2q6 2 17 2q4 -2 10 -2l8 2q4 0 4 -2q7 0 17 2 q14 0 18 -2l29 2q29 0 155 -6l23 4q16 -6 16 -12v-4q-18 -9 -18 -15l-25 4q-2 -1 -5 -2l-4.5 -1.5t-2.5 -0.5v4l-6 -4q-28 0 -172 9q-1 0 -2.5 -1t-4.5 -2t-5 -2l-35 5h-17q-6 0 -14.5 -1t-20 -2t-20.5 -2l-6 5q-7 -1 -16.5 -2t-16 -2t-10.5 -1h-25q-1 0 -16 5l-10 -5 q0 5 -4 5v-39q0 -12 4 -58l-4 -12q4 -32 4 -41q0 -15 -4 -43q4 -32 4 -47q0 -5 -4 -33q4 -16 4 -33v-12q0 -4 -4 -4l4 -6q-4 -28 -4 -31l4 -8q0 -4 -4 -4q0 -2 4 -10q-4 -74 -4 -93v-4q-8 -66 -64 -125q-28 -22 -35 -22v-4q13 0 21 -4q22 3 22 8q39 -3 39 -8l9 4h51 q10 0 14 -4q12 4 16 4h5q4 0 4 -4l8 4h47q4 0 4 -4q8 4 10 4q145 0 236 -8q24 4 51 4h23q4 0 16 -4q11 5 43 8v-4l6 4q4 0 4 -4l29 4h22q9 -3 9 -8v-9q-8 -14 -21 -14q-1 0 -2 0.5t-3.5 1.5t-4.5 2q-47 -8 -68 -8q-8 0 -8 4l-39 -4h-70q-11 0 -81 4q-4 -4 -27 -4v4l-12 -4 l-17 8q-54 -4 -57 -4q-13 0 -21 4q-28 -4 -34 -4h-35q-4 0 -4 4l-8 -4h-5q-4 0 -4 4l-8 -4h-43q-18 0 -26 4q-28 -4 -35 -4h-52q-65 0 -65 14v9l86 61q45 42 45 160q4 90 4 176l-4 14h4q0 4 -4 4l4 19v22q0 11 -4 39l4 15q-4 46 -4 57l4 22q-3 9 -6 43h-33q-4 0 -4 5l-6 -5 q-5 0 -20 1t-42.5 2t-56.5 2q-1 0 -3.5 -1t-7.5 -2t-11 -2q-10 5 -21 5l-10 -5v5l-8 -5h-35q-5 0 -12 11z" />
<glyph unicode="&#xa4;" horiz-adv-x="714" d="M0 428q0 11 104 109h2q0 10 -32 61q-15 38 -15 53v11q0 88 74 159q-19 0 -110 88q-17 7 -17 27q5 0 12 10q26 0 97 -74l49 -28q27 15 102 24v-4l8 4q5 0 5 -4l6 4h12q50 -26 84 -57q126 111 133 111q14 -6 14 -13q-6 -17 -55 -51q0 -5 -61 -63l-4 -9q25 -45 32 -73h-4 l4 -6v-23q0 -57 -28 -111h2q16 -22 114 -104v-6l-16 -21h-4q-44 38 -94 74v4h-25l-4 21h-4q-46 -37 -92 -49v4q-15 -9 -37 -9q-73 0 -119 37q-86 -82 -115 -114h-4q-14 8 -14 18zM88 680q0 -115 109 -156q36 -8 45 -8q148 0 172 160l-11 55q5 0 5 4q-52 80 -129 109 q-99 -15 -136 -49q-55 -64 -55 -107v-8z" />
<glyph unicode="&#xa5;" horiz-adv-x="1032" d="M-31 1372q7 17 13 17q28 -3 110 -150q147 -211 244 -381q127 -157 127 -170h4q104 129 158 221q12 9 30 49q95 142 203 359q13 13 55 92h13q0 -14 2 -18q-50 -84 -180 -332q-36 -54 -111 -174q-2 -1 -10 -14.5t-21.5 -35.5t-23.5 -36l10 -2v4q4 -4 6 -4h14l6 4q0 -4 3 -4 l4 4l2 -4q1 0 10 6q2 -2 4 -2h74l6 2q0 -2 2 -2l2 2q2 0 4 -2l6 2l2 -2q2 2 6 2t7 -19q0 -14 -33 -14h-2l-2 4q0 -4 -2 -4t-6 4l-3 -4l-2 4q-41 0 -59 2q-35 -3 -41 -6l-16 6q-3 -3 -15 -6l-4 4q-3 -3 -7 -9t-5 -7v-2h-2q-47 -68 -70 -94q9 -45 11 -76l24 4l23 -4q8 4 10 4 q4 0 4 -4l18 4q7 0 15 -4q4 0 4 4l18 -4q7 0 15 4l22 -4q6 0 14 4l9 -4q6 0 14 4q46 -4 51 -4h21v-8l-17 -19l-32 4q-9 0 -25 -4l-94 6q-4 -2 -11 -2v2l-8 -2q-18 0 -28 2q-33 0 -47 -2l12 -90h-4l4 -6q0 -4 -4 -4q2 -2 8 -51l-4 -9q9 -131 16 -174l-6 -14q6 -3 6 -8v-19 q0 -42 17 -178q-13 0 -13 -10h-4q-12 18 -20 18v9h10v4q0 2 -2 2q0 4 2 4q-8 114 -23 248h5q-7 22 -9 37h4l-4 8v41q0 72 -14 190q-16 -2 -27 -2q-36 4 -41 4h-82q-15 0 -69 -4q-31 3 -31 10v4q0 10 37 19q27 -2 72 -2h57q45 0 61 -8l3 8l20 -2l-6 35h4q-8 37 -82 133h-2 q-2 6 -14 18l-4 -4q-12 3 -15 6l-16 -6q-6 3 -41 6q-18 -2 -39 -2l-2 -4l-2 4q-4 -4 -6 -4t-2 4l-2 -4h-2q-33 0 -33 14q3 19 6 19q2 0 4 -2l2 2l8 -2q2 2 4 2l2 -2q2 0 2 2l7 -2h53q4 0 6 2q6 -6 8 -6l2 4l4 -4q2 0 2 4l7 -4h16l4 4v-4l6 2q-31 36 -59 94 q-104 162 -219 332q-36 65 -68 106q-33 26 -33 41z" />
<glyph unicode="&#xa6;" horiz-adv-x="247" d="M45 -39q4 54 4 72v57q0 47 8 60l-8 4l4 32l-4 33l4 23l-4 12q0 2 4 2l-4 20q0 7 4 15q0 4 -4 4l4 18q0 7 -4 15l4 22q0 7 -4 15l4 8q0 6 -4 14q4 40 4 51v19h8l19 -15l-4 -32q0 -7 4 -27l-8 -92l4 -12h-4l4 -7q0 -10 -4 -30q3 -87 8 -97q-4 -32 -4 -39v-81q0 -16 4 -70 q-3 -31 -12 -31h-2q-12 0 -21 37zM45 1012q4 54 4 69v60q0 46 8 59l-8 4l4 33l-4 33l4 22q-4 12 -4 13q0 2 4 2l-4 18q0 4 4 16q0 2 -4 2l4 21q0 2 -4 14l4 23q0 2 -4 14l4 6q0 5 -4 17q4 40 4 51v18h8l19 -14l-4 -35q0 -4 4 -24l-8 -93l4 -12h-4l4 -6q0 -11 -4 -31 q3 -86 8 -96q-4 -32 -4 -41v-82q0 -15 4 -69q-3 -29 -12 -29h-2q-12 0 -21 37z" />
<glyph unicode="&#xa7;" horiz-adv-x="634" d="M-41 -2q0 5 14 8q8 -8 11 -55q40 -82 86 -119q75 -75 137 -72q4 -4 65 -10l7 4h2q118 6 186 135q14 49 14 64q-3 9 2 14q-4 4 -4 13q0 2 4 2l-4 6v2q0 4 2 4l-2 4v6q-3 65 -69 156q-121 121 -191 151q-44 21 -141 115q-46 51 -76 152l-4 67q-3 99 137 178q68 24 113.5 29 t111.5 -10q-60 51 -98 65q-47 23 -141 117q-46 52 -74 150l-6 67q-3 98 137 180q76 24 123 27q156 9 209 -94q25 -55 25 -70h-7q-18 -3 -18 33q-52 119 -168 113h-2q-4 0 -4 4q-4 -4 -8 -4l-6 2q-2 -2 -9 -2q-2 0 -2 2q-116 -6 -198 -82q-57 -60 -54 -127q3 -82 72 -189 q104 -101 150 -116q219 -145 249 -273q10 0 13 -63v-15l4 -16q-27 -125 -94 -168q-59 -48 -121 -51v2q-4 0 -4 -2l-15 2l-6 -4q-49 6 -49 10l-6 -2q-70 15 -105 45q45 -45 91 -64q219 -142 249 -270q10 0 13 -63v-15l4 -16q-27 -125 -94 -168q-59 -48 -121 -51v2q-4 0 -4 -2 l-15 2l-6 -4q-47 6 -51 10l-4 -4q-80 9 -160 86q-87 90 -90 166v6zM14 627q3 -45 29 -109q35 -60 70 -90q78 -75 139 -72q0 -2 63 -8l7 2h2q119 6 186 137q14 46 14 64q0 10 2 12q-4 8 -4 12q0 3 4 3l-4 6v4q0 2 2 2l-2 6v4q-3 65 -69 156l-64 61q-44 20 -90 17h-2 q-4 0 -4 2q-2 -2 -8 -2l-6 2q-5 -5 -9 -5q-2 0 -2 5q-43 -2 -88 -18t-83 -41.5t-61.5 -65t-21.5 -84.5z" />
<glyph unicode="&#xa8;" horiz-adv-x="614" d="M2 1317q0 23 39 49h39q37 -21 37 -57v-6q0 -43 -37 -58q-78 21 -78 72zM303 1317q0 23 39 49h37q39 -20 39 -57v-6q0 -44 -39 -58q-76 21 -76 72z" />
<glyph unicode="&#xa9;" horiz-adv-x="1398" d="M0 690v4q0 4 4 4l-4 9v4q0 4 4 4l-4 8q0 197 139 410q46 49 221 155q12 0 27 15l8 -5q66 54 297 54h23q164 0 254 -72q198 -115 293 -365q22 -93 22 -174l-4 -8l4 -14q0 -98 -59 -266q-43 -94 -150 -193q-235 -162 -364 -162q-46 -16 -103 -16v4q-4 0 -4 -4 q-144 9 -213 31q-117 54 -192 118q-110 107 -156 226q-39 77 -39 166q0 4 4 4l-4 20v17q0 4 4 4q-8 8 -8 22zM31 707q0 -203 55 -273q41 -71 41 -88l8 4h4q35 -86 213 -188q114 -51 281 -51l51 6v-4l8 4q4 0 4 -4q99 22 174 53q104 45 222 133l63 80q102 156 102 348v27 l-4 16l4 8q0 231 -245 451q-98 62 -155.5 82t-149.5 20l-15 -4l-16 4q-4 0 -4 -4l-21 4h-26l-21 -4v4l-8 -4h-10q-149 0 -400 -178q-80 -102 -127 -229q-18 -83 -28 -154q0 -4 4 -4l-4 -21v-34zM379 659l4 19v41q0 4 4 4q0 4 -4 4q35 191 98 277q66 90 191 90q67 0 131 -64 v-4l-17 -8q-51 39 -110 53q-141 0 -187 -104q-66 -120 -81 -265q0 -182 110 -276q50 -29 115 -29q89 0 188 135l8 5q9 -9 9 -17q-95 -145 -201 -145q-28 -4 -33 -4q-127 0 -192 157q-21 62 -33 131z" />
<glyph unicode="&#xab;" horiz-adv-x="643" d="M0 684v4q61 66 135 109q96 70 131 110h6l4 -8v-10q-67 -74 -182 -141q-44 -33 -61 -60q3 -2 52.5 -28t82.5 -42q75 -40 139 -59l4 -6v-23q-61 14 -270 121q-26 15 -41 33zM201 694v4q61 66 135 109q94 68 131 111h6l2 -9v-10q-63 -72 -180 -141q-43 -32 -64 -60 q96 -49 136 -69q77 -41 141 -60l4 -8v-20q-61 14 -270 121q-28 15 -41 32z" />
<glyph unicode="&#xac;" horiz-adv-x="933" d="M0 705l14 10q24 -6 43 -6h49l19 -2q2 2 14 2h8l19 -2q18 6 24 6q16 -4 23 -4q4 4 8 4v-4l6 4h29q4 0 4 -4l6 4h127q12 0 78 -4q4 0 4 4l14 -4h70q8 0 12 -2q4 2 13 2h10l16 -2l6 2q42 -3 43 -4q4 2 13 2q4 0 4 -2q2 0 2 2q6 0 8 -2q18 2 39 2q7 -4 10 -37l-6 -11l6 -28 l-4 -15l4 -14l-6 -59l2 -11q-2 -10 -2 -28q2 -4 2 -8h-2q0 -4 2 -4l-2 -27l2 -12q-8 -8 -26 -15l-3 6h3l-7 17q7 11 7 14v14q0 8 -3 11q3 6 3 12q0 17 -3 20l7 50q-4 16 -4 18q0 10 4 14q-4 20 -4 25v39l4 4q-7 0 -7 6l-6 -2q-4 0 -4 2q-2 0 -2 -2q-31 2 -67 2h-39l-19 2 q-2 -2 -14 -2h-10q-2 0 -2 2l-7 -2h-10q-87 0 -108 6q-4 -4 -13 -4h-20q-2 0 -2 4q-8 -4 -10 -4t-60 4q-8 -4 -10 -4q-4 4 -8 4l-29 -4l-14 4l-21 -4q-1 0 -4 0.5t-8.5 1.5t-11.5 2q-20 -4 -29 -4l-4 4l-12 -6q-4 0 -4 2q-5 0 -9 -2l-20 2q-12 -2 -25 -2v2l-6 -2q-4 0 -4 2 l-20 -2q-17 0 -27 2l-6 -2q-37 3 -37 17z" />
<glyph unicode="&#xad;" horiz-adv-x="669" d="M14 680v4q0 9 37 18q54 -4 72 -4h59q47 0 60 -8l2 8l35 -4l32 4l23 -4q8 4 10 4q4 0 4 -4l19 4q6 0 14 -4q4 0 4 4l18 -4q7 0 15 4l22 -4q7 0 15 4l8 -4q6 0 14 4q46 -4 51 -4h21v-6l-17 -18l-32 4q-7 0 -27 -4l-92 6q-4 -2 -10 -2v2l-9 -2q-18 0 -28 2q-90 -3 -96 -6 q-32 4 -41 4h-82q-16 0 -70 -4q-31 3 -31 10z" />
<glyph unicode="&#xae;" horiz-adv-x="1398" d="M0 690v4q0 4 4 4l-4 9v4q0 4 4 4l-4 8q0 197 139 410q46 49 221 155q12 0 27 15l8 -5q66 54 297 54h23q164 0 254 -72q198 -115 293 -365q22 -93 22 -174l-4 -8l4 -14q0 -98 -59 -266q-43 -94 -150 -193q-235 -162 -364 -162q-46 -16 -103 -16v4q-4 0 -4 -4 q-144 9 -213 31q-117 54 -192 118q-110 107 -156 226q-39 77 -39 166q0 4 4 4l-4 20v17q0 4 4 4q-8 8 -8 22zM31 707q0 -203 55 -273q41 -71 41 -88l8 4h4q35 -86 213 -188q114 -51 281 -51l51 6v-4l8 4q4 0 4 -4q99 22 174 53q104 45 222 133l63 80q102 156 102 348v27 l-4 16l4 8q0 231 -245 451q-98 62 -155.5 82t-149.5 20l-15 -4l-16 4q-4 0 -4 -4l-21 4h-26l-21 -4v4l-8 -4h-10q-149 0 -400 -178q-80 -102 -127 -229q-18 -83 -28 -154q0 -4 4 -4l-4 -21v-34zM467 406v12q0 4 4 4q0 4 -4 4l4 39v33q0 4 4 4q-1 2 -2 4.5t-1.5 3.5t-0.5 2 q3 12 8 12l-4 8l4 25l-4 6q3 37 6 45l-2 23v20q0 4 2 4l-2 9v8q0 12 2 14q-2 4 -2 12q0 11 2 25q-2 2 -2 10l2 8q-2 4 -2 13q0 12 2 16l-2 27q0 18 2 41q-2 2 -2 10h2l-2 8v41q0 12 2 14l-2 9l2 20q0 4 -2 4q3 35 6 35q-3 6 -6 51h2l-2 8q0 21 47 21h11q53 0 71 -12l8 4 q48 -12 48 -17l8 4q157 -56 157 -174q0 -84 -174 -133v2q-7 -7 -65 -10l-8 4q-16 -4 -17 -4l-16 4v-4q164 -197 270 -309q0 -20 -12 -23h-8q-135 141 -203 232q-81 93 -90 96v-4q0 -13 4 -13l-4 -20v-39q0 -4 -4 -4l4 -8v-4l-4 -23l4 -12l-4 -8q2 -5 4 -13q-12 -67 -12 -106 v-12q0 -4 -5 -4l5 -7v-20q0 -22 -13 -25h-6q-8 0 -8 9zM506 766q3 -12 31 -12h75q32 0 103 24q74 43 88 74l-4 20h4q-18 75 -72 103q-17 17 -137 47v4l-8 -4q-37 3 -37 8l-8 -4h-11q-4 0 -4 4q-16 -4 -20 -4l4 -8v-27q0 -4 -4 -4l4 -8v-8q0 -3 -4 -15l4 -16l-4 -8l4 -12 l-4 -27l4 -12h-4l4 -9v-24q0 -7 -4 -35q0 -4 4 -4l-4 -21v-22z" />
<glyph unicode="&#xaf;" horiz-adv-x="1032" d="M0 1354v4q0 10 86 10h33q10 0 14 2q4 0 4 -2l15 2q58 0 163 10v-4l4 4l150 6v-4q4 1 98 11v-4l6 4h31q2 0 2 -4l8 4h4q5 0 5 -4l6 4l8 -4q4 0 4 4q18 -4 37 -7q33 0 61 -4l135 7v-5q15 9 48 9q8 -3 8 -9v-8q-7 -12 -16 -12t-19 6l-528 -8v4q-63 -14 -340 -23h-4 q-19 0 -23 11z" />
<glyph unicode="&#xb0;" horiz-adv-x="417" d="M-6 1298q0 100 69 123q47 21 68 21q110 0 148 -115l4 -29q0 -90 -95 -149q-42 -10 -43 -10q-151 35 -151 159zM31 1257q50 -83 119 -83q0 -5 4 -5q100 26 100 134q-30 104 -104 104l-29 4q-90 -18 -90 -98v-31l6 -25h-6z" />
<glyph unicode="&#xb1;" horiz-adv-x="1013" d="M-14 707l14 18q27 -3 27 -8l12 4l20 -4q20 4 27 4q5 -1 10.5 -2t8.5 -1.5t4 -0.5q4 0 4 4l16 -4h121q-12 217 -31 270l10 8h17q13 -47 20 -127h-2l2 -6q0 -4 -2 -4l2 -18v-9q0 -73 8 -106q-4 0 -4 -4l9 -4h10l18 4v-4l8 4h78l23 4q4 0 4 -4q53 3 69 8q25 -3 25 -12 q-10 -19 -33 -19h-73l-23 -4q-4 4 -23 4q-2 0 -2 -4l-18 4l-45 -4v4q-23 0 -23 -36q-4 -36 -4 -70q0 -6 0.5 -18t1.5 -34t2 -40l-14 -13h-4q-7 0 -10 31l4 6l-4 21h4l-4 6q1 29 2 64t1.5 54t0.5 29l-8 -4h-33q-4 0 -4 4l-8 -4q-4 0 -4 4l-7 -4h-4q-4 0 -4 4l-8 -4l-16 4 l-21 -4l-6 4l-47 -6v2l-8 -2q-86 0 -86 15zM14 371v4q0 7 37 16q27 -2 72 -2h57q46 0 62 -8l2 8l35 -4l32 4l23 -4q8 4 10 4q4 0 4 -4l19 4q6 0 14 -4q4 0 4 4l18 -4q7 0 15 4l22 -4q7 0 15 4l8 -4q6 0 14 4q46 -4 51 -4h21v-6l-17 -21l-32 4q-7 0 -27 -4l-92 9l-10 -5v5 l-9 -5q-8 0 -28 5q-84 -3 -96 -9q-36 4 -41 4h-82q-14 0 -72 -4q-29 3 -29 13z" />
<glyph unicode="&#xb4;" horiz-adv-x="466" d="M0 1194v4l74 59q45 40 207 166q10 0 18 -14q-64 -64 -111 -88q-77 -72 -170 -141h-8q-7 0 -10 14z" />
<glyph unicode="&#xb6;" horiz-adv-x="940" d="M-59 1018q3 8 6 8q-1 2 -2 4.5t-1.5 3.5t-0.5 2q4 11 8 11l-4 8q22 94 53 147q0 17 90 101q44 38 156 77q137 33 315 50h10q2 0 2 -3q57 11 68 11h53q8 -3 8 -8v-3q-14 -8 -14 -61q0 -4 4 -12q-4 -8 -4 -15v-22q0 -6 4 -14q-4 -8 -4 -15l4 -22h-4l4 -6v-35q0 -2 -4 -2 l4 -9q6 -102 6 -174v-57l4 -16h-4l4 -6v-23q0 -101 7 -176l-4 -6q2 -40 14 -131q0 -4 -4 -4l8 -86h-4l4 -9l-4 -6q4 -8 4 -10t-4 -2l4 -19v-57q0 -2 -4 -2l4 -6q0 -4 -4 -4l4 -25v-12q0 -4 -4 -4l4 -6v-11q0 -4 -4 -4l4 -6v-114q0 -9 2 -13q0 -4 -2 -4l6 -84h-4l4 -6v-4 q0 -2 -4 -2q4 -8 4 -10q0 -45 2 -88l-8 -7q-18 0 -18 76v29q0 6 -3 12q3 6 3 10q0 5 -3 5q0 4 3 10q-3 70 -3 112v9q0 8 -4 12l4 6l-4 8q0 2 4 2l-4 35v33q0 4 4 4q-4 8 -4 10t4 2l-4 19v55q0 4 4 4l-4 6q0 165 -10 230h4q-5 5 -8 47q-121 -11 -127 -11v-30q0 -2 -2 -2l2 -8 q0 -3 -2 -3l2 -18v-2q0 -4 -2 -4l2 -6v-37q0 -13 4 -17l-4 -20v-20q0 -23 4 -121l-4 -6q0 -5 4 -5l-4 -16v-82l4 -16h-4l4 -6v-7q0 -76 2 -131l4 -8q0 -2 -4 -2q25 -156 25 -166h-4l4 -6q0 -6 -10 -6q-11 0 -23 43q2 4 2 14q-2 4 -2 11h2q-5 16 -8 57h2q-14 66 -14 160 q0 2 4 10q-4 8 -4 14v10q0 3 4 3l-6 26q0 4 2 4l-2 25v8q0 4 2 4q0 4 -2 4l2 17v200q0 4 4 4l-4 7v8q0 2 4 2l-4 8v29q0 10 -2 14q0 2 2 2l-2 18v7q0 4 2 4l-2 6v8q0 4 2 4q-2 4 -2 14q-98 -10 -175 -10v2l-8 -2h-149q-41 0 -41 6q-4 0 -4 -4q-122 28 -168 82 q-43 79 -43 115l4 8q-8 0 -8 8q0 29 -2 68zM-33 987q0 -80 49 -156q53 -53 162 -71q25 0 25 -4l6 4l6 -4q8 4 14 4v-4l7 4q4 0 4 -4l6 4h33q4 0 4 -4l6 4q10 0 10 -4l35 4h84l22 2v-2l6 2l9 -2q4 2 10 2q0 -2 2 -2q3 6 6 6h43l19 2v47q0 6 6 6l-4 8v21q0 4 4 12l-6 17 q0 8 2 8q-2 27 -2 43q2 84 2 172l-2 6q2 4 2 10l-2 17h2l-2 6q0 18 2 30q-2 4 -2 11h2l-2 6q0 4 2 4l-2 6v4q0 8 2 12q0 5 -2 5l2 22v115h-7v4q0 4 5 4l-9 39q-276 -30 -331 -70q-56 -6 -158 -114q-33 -33 -68 -164q0 -40 -2 -58q2 -6 2 -10h-2zM555 772q2 0 2 -4l25 4h22 q4 0 4 -4q12 6 37 6h23q8 8 16 8v37l-2 35h2l-2 4v129l-4 17h4l-4 6q0 12 4 16q-6 40 -6 47h2l-2 8v21q0 2 2 2l-2 6v29l-4 16h4l-4 6v37l-4 16h4l-4 9v32q0 5 4 5l-4 6v37q0 48 -2 83q2 10 2 23q-8 4 -11 4q-79 -6 -96 -6v-4q0 -17 2 -21q-6 -40 -6 -100v-68q0 -8 -2 -12 q0 -4 2 -4q0 -13 -2 -27q0 -75 2 -104q-2 -53 -2 -111q2 -70 2 -137h-2l2 -8q0 -2 -2 -2l2 -6q-2 -12 -2 -31z" />
<glyph unicode="&#xb7;" horiz-adv-x="256" d="M10 707q0 24 37 51h39q39 -23 39 -60v-6q0 -41 -39 -55q-76 18 -76 70z" />
<glyph unicode="&#xb8;" horiz-adv-x="358" d="M8 -248q15 -11 49 -22q4 0 4 6q69 0 119 84h-4l4 24v29q0 79 -90 100l-10 -2v2q-1 1 -5.5 5t-6.5 6l43 86q29 64 47 63q5 0 10 -6q-19 -49 -62 -129q113 -23 113 -139q0 -125 -151 -160q-5 0 -43 10l-17 12v31z" />
<glyph unicode="&#xb9;" horiz-adv-x="681" d="M0 1051q0 14 180 233q62 68 144 172q46 49 49 49h4q12 -2 22 -26v-109q0 -8 -2 -10q2 -4 2 -12q0 -5 -2 -5l2 -4q-2 -10 -2 -18l2 -21h-2l2 -4v-28q0 -11 -2 -13q0 -4 2 -4l-2 -14v-4q0 -6 6 -6q0 -2 -4 -2q2 -106 11 -246h-2q0 -2 2 -2q-3 -59 -7 -76l5 -6q-5 -5 -5 -10 q0 -1 1 -2t2 -2.5t2 -3.5q-3 -27 -9 -27q0 -2 4 -2l-4 -35v-43q0 -78 -2 -113q2 -14 2 -73l4 -17h-4l4 -4v-61l5 -15h-5q0 -2 5 -2q-3 -20 -11 -20h-8q-6 0 -12 35q-4 0 -4 2q8 0 8 6v35l-8 -2h-2l10 10v51l-4 14h4l-4 7v75q0 2 4 2l-4 7q0 2 4 2l-4 14v8q0 4 4 4l-4 6 q0 2 4 2q0 5 -4 5q6 145 10 157q0 2 -4 2q4 46 4 49v66q0 12 -4 106q-2 0 -2 5q6 0 6 4l-6 4l2 14l-2 39q0 4 2 4l-2 14v86q0 2 2 2q-6 9 -6 17v53h-4v6h8q0 1 -0.5 3.5t-1.5 8t-2 11.5q1 14 2 31t1.5 26.5t0.5 13.5l-8 5q-40 -52 -82 -91q0 -8 -84 -104l-94 -117 q-78 -98 -101 -121h-2q-7 0 -10 9z" />
<glyph unicode="&#xba;" horiz-adv-x="466" d="M-6 1298q0 100 69 123q47 21 68 21q110 0 148 -115l4 -29q0 -90 -95 -149q-42 -10 -43 -10q-151 35 -151 159zM31 1257q50 -83 119 -83q0 -5 4 -5q100 26 100 134q-30 104 -104 104l-29 4q-90 -18 -90 -98v-31l6 -25h-6z" />
<glyph unicode="&#xbb;" horiz-adv-x="628" d="M0 541v20l2 8q64 19 141 60q40 20 136 69q-21 28 -64 60q-117 69 -180 141v10l4 9h4q41 -44 133 -111q74 -43 135 -109v-4q-13 -17 -41 -32q-209 -107 -270 -121zM201 530v23l2 6q64 19 139 59q33 16 82.5 42t52.5 28q-17 27 -61 60q-117 69 -180 141v10l2 8h6 q37 -42 133 -110q72 -43 135 -109v-4q-15 -19 -43 -33q-208 -106 -268 -121z" />
<glyph unicode="&#xbf;" horiz-adv-x="933" d="M0 279l4 8q0 4 -4 4l4 18v43q0 4 2 4q0 4 -2 4q9 103 64 187q79 175 280 258q106 66 170 123q80 86 80 121q4 24 4 45v8q-24 132 -24 143l14 6q20 -46 37 -157q0 -111 -180 -248q-5 0 -127 -78q-146 -56 -244 -233q-49 -93 -55 -222q0 -27 8 -90h-4q11 -73 41 -106 q88 -101 139 -101q85 -36 219 -36q1 0 2 0.5t3.5 1.5t4.5 2q4 0 4 -4l19 4h8q135 0 215 59q52 67 80 152q18 65 18 88l-4 26l12 6h5q4 0 10 -14q0 -99 -78 -240q-41 -62 -107 -77q-67 -24 -126 -29q-7 0 -11 2q-79 -3 -82 -6q-8 4 -14 4h-41q-4 0 -4 2q-2 0 -2 -2 q-119 18 -209 65q-125 88 -125 220v24q0 7 -4 15zM551 1434v4q6 12 22 18q24 0 45 -37q-8 -22 -20 -26h-20q-27 9 -27 41z" />
<glyph unicode="&#xc0;" horiz-adv-x="1071" d="M0 18q28 80 98 310q22 40 101 258q31 60 145 389l143 432h13q9 -3 80 -215q14 -38 55 -240q52 -192 115 -389q58 -185 67 -239h-4q80 -287 80 -301q-4 0 -4 -5q16 0 16 -18h-12v4l4 8h-4q-8 0 -8 -12h-8l-52 188q-48 198 -114 428q0 -16 -195 -22v4q-4 0 -4 -4l-47 4 q-17 0 -37 -4q-70 6 -133 6l-8 -2q-6 2 -17 2h-41q0 -15 -110 -297q-53 -161 -78 -258q-20 -45 -29 -45t-12 18zM213 1737q6 14 18 14q162 -126 207 -166l74 -59v-4q-6 -15 -10 -15h-8q-87 65 -170 142q-53 27 -111 88zM246 629h92q6 0 14 -4q4 0 4 4l41 -4h158l25 4 q8 -4 18 -4h8q9 0 17 4l8 -4l71 12q-114 372 -114 430q-38 132 -92 283h-4q-110 -357 -246 -721z" />
<glyph unicode="&#xc1;" horiz-adv-x="1050" d="M0 18q28 80 98 310q22 40 101 258q31 60 145 389l143 432h13q9 -3 80 -215q14 -38 55 -240q52 -192 115 -389q58 -185 67 -239h-4q80 -287 80 -301q-4 0 -4 -5q16 0 16 -18h-12v4l4 8h-4q-8 0 -8 -12h-8l-52 188q-48 198 -114 428q0 -16 -195 -22v4q-4 0 -4 -4l-47 4 q-17 0 -37 -4q-70 6 -133 6l-8 -2q-6 2 -17 2h-41q0 -15 -110 -297q-53 -161 -78 -258q-20 -45 -29 -45t-12 18zM246 629h92q6 0 14 -4q4 0 4 4l41 -4h158l25 4q8 -4 18 -4h8q9 0 17 4l8 -4l71 12q-114 372 -114 430q-38 132 -92 283h-4q-110 -357 -246 -721zM492 1522v4 l73 59q34 29 207 166q13 0 21 -14q-58 -61 -111 -88q-100 -90 -170 -142h-8q-6 0 -12 15z" />
<glyph unicode="&#xc2;" horiz-adv-x="1058" d="M0 18q28 80 98 310q22 40 101 258q31 60 145 389l143 432h13q9 -3 80 -215q14 -38 55 -240q52 -192 115 -389q58 -185 67 -239h-4q80 -287 80 -301q-4 0 -4 -5q16 0 16 -18h-12v4l4 8h-4q-8 0 -8 -12h-8l-52 188q-48 198 -114 428q0 -16 -195 -22v4q-4 0 -4 -4l-47 4 q-17 0 -37 -4q-70 6 -133 6l-8 -2q-6 2 -17 2h-41q0 -15 -110 -297q-53 -161 -78 -258q-20 -45 -29 -45t-12 18zM246 629h92q6 0 14 -4q4 0 4 4l41 -4h158l25 4q8 -4 18 -4h8q9 0 17 4l8 -4l71 12q-114 372 -114 430q-38 132 -92 283h-4q-110 -357 -246 -721zM293 1411 q16 68 123 287q17 30 33 41h4q61 -64 106 -142q62 -95 111 -141v-6l-6 -2h-13q-70 67 -139 190q-37 46 -59 68l-19 -38t-26 -52.5t-25 -52.5q-35 -66 -59 -150l-9 -2h-22z" />
<glyph unicode="&#xc3;" horiz-adv-x="1064" d="M0 18q28 80 98 310q22 40 101 258q31 60 145 389l143 432h13q9 -3 80 -215q14 -38 55 -240q52 -192 115 -389q58 -185 67 -239h-4q80 -287 80 -301q-4 0 -4 -5q16 0 16 -18h-12v4l4 8h-4q-8 0 -8 -12h-8l-52 188q-48 198 -114 428q0 -16 -195 -22v4q-4 0 -4 -4l-47 4 q-17 0 -37 -4q-70 6 -133 6l-8 -2q-6 2 -17 2h-41q0 -15 -110 -297q-53 -161 -78 -258q-20 -45 -29 -45t-12 18zM246 629h92q6 0 14 -4q4 0 4 4l41 -4h158l25 4q8 -4 18 -4h8q9 0 17 4l8 -4l71 12q-114 372 -114 430q-38 132 -92 283h-4q-110 -357 -246 -721zM256 1546v25 q0 67 84 139q18 11 47 16q58 0 162 -137q46 -43 92 -43h18q35 0 76 53q21 43 21 111l8 6h4q5 0 8 -10v-2q0 -62 -35 -137q-56 -47 -92 -47q-91 0 -170 116q-52 64 -96 64q-60 0 -107 -115v-49l3 -23l-9 -8q-14 0 -14 41z" />
<glyph unicode="&#xc4;" horiz-adv-x="1024" d="M0 18q28 80 98 310q22 40 101 258q31 60 145 389l143 432h13q9 -3 80 -215q14 -38 55 -240q52 -192 115 -389q58 -185 67 -239h-4q80 -287 80 -301q-4 0 -4 -5q16 0 16 -18h-12v4l4 8h-4q-8 0 -8 -12h-8l-52 188q-48 198 -114 428q0 -16 -195 -22v4q-4 0 -4 -4l-47 4 q-17 0 -37 -4q-70 6 -133 6l-8 -2q-6 2 -17 2h-41q0 -15 -110 -297q-53 -161 -78 -258q-20 -45 -29 -45t-12 18zM246 629h92q6 0 14 -4q4 0 4 4l41 -4h158l25 4q8 -4 18 -4h8q9 0 17 4l8 -4l71 12q-114 372 -114 430q-38 132 -92 283h-4q-110 -357 -246 -721zM279 1577 q0 24 38 49h37q39 -20 39 -57v-6q0 -44 -39 -58q-75 21 -75 72zM580 1577q0 23 36 49h39q37 -21 37 -57v-6q0 -43 -37 -58q-75 21 -75 72z" />
<glyph unicode="&#xc5;" horiz-adv-x="1077" d="M0 18q28 80 98 310q22 40 101 258q31 60 145 389l143 432h13q9 -3 80 -215q14 -38 55 -240q52 -192 115 -389q58 -185 67 -239h-4q80 -287 80 -301q-4 0 -4 -5q16 0 16 -18h-12v4l4 8h-4q-8 0 -8 -12h-8l-52 188q-48 198 -114 428q0 -16 -195 -22v4q-4 0 -4 -4l-47 4 q-17 0 -37 -4q-70 6 -133 6l-8 -2q-6 2 -17 2h-41q0 -15 -110 -297q-53 -161 -78 -258q-20 -45 -29 -45t-12 18zM246 629h92q6 0 14 -4q4 0 4 4l41 -4h158l25 4q8 -4 18 -4h8q9 0 17 4l8 -4l71 12q-114 372 -114 430q-38 132 -92 283h-4q-110 -357 -246 -721zM332 1616 q0 98 71 125q47 18 66 18q113 0 147 -112l7 -31q0 -90 -97 -150q-38 -10 -43 -10q-151 35 -151 160zM371 1577q50 -84 118 -84q0 -6 5 -6q100 26 100 135q-30 102 -105 102l-28 7q-90 -21 -90 -101v-28l4 -25h-4z" />
<glyph unicode="&#xc6;" horiz-adv-x="1404" d="M0 -8q27 84 41 94l-4 8q147 325 209 498q161 442 258 665q41 113 51 123l-4 9v4l16 22q38 -10 60 -10h18l25 2q6 -2 16 -2l8 2q4 0 4 -2q9 0 9 2q39 -2 86 -2h45q10 0 16 2q2 -2 14 -2h84q11 0 17 2q4 -2 10 -2q4 0 4 2l21 -2h4l18 2v-2l8 2h8q5 0 5 -2q4 0 4 2l16 -2 l23 2v-2l8 2q4 0 4 -2q9 3 45 6v-4q11 6 39 8l4 -8v-6l-16 -17l-23 5q-97 -5 -100 -5q-6 0 -21 5l-78 -9q-4 0 -4 4q-28 -4 -33 -4t-165 4l-9 5q-10 -5 -16 -5q-2 0 -2 5l-8 -5q-18 -1 -42 -2t-36.5 -1.5t-18.5 -0.5l-4 -8v-57q0 -4 -4 -4l4 -8l-2 -12l-1.5 -9t-0.5 -4l4 -8 q-3 -37 -8 -37l4 -8v-17l-4 -24q0 -4 4 -4l-4 -21v-8q0 -4 4 -16q0 -5 -4 -5q4 -54 4 -61v-82q0 -6 4 -14q0 -4 -4 -4l4 -23v-112q0 -9 4 -17q0 -6 -4 -6q4 -54 4 -59v-90q0 -5 -4 -5q6 -16 13 -16l-4 -20q3 -9 8 -9h8l18 4v-4l9 4h16q4 0 4 -4q4 0 4 4q78 -4 86 -4h96 q5 0 17 -4q8 4 10 4v-4q4 0 4 4l21 -4h75q10 0 64 4q8 -4 16 -4l6 4q25 -9 25 -16v-8l-4 -8q-71 6 -76 8q-8 -4 -10 -4v4l-8 -4q-148 8 -275 8l-14 4q-12 -4 -16 -4v4l-9 -4q-4 0 -4 4l-8 -4q-1 0 -4 0.5t-8.5 1.5t-11.5 2l-17 -4q-20 4 -27 4q0 -4 -4 -4l4 -8q0 -5 -4 -17 l4 -12h-4l4 -8v-35q0 -6 1 -15.5t2 -23.5t2 -24h-5l5 -9q8 -109 8 -174q0 -69 -13 -123l5 -8q0 -1 -1 -2.5t-2 -4.5t-2 -5q13 -60 13 -74v-8h84l18 4v-4q4 0 4 4l21 -4h76q4 0 4 -4l8 4h35q4 0 4 -4q4 0 4 4q216 -16 250 -16h4q4 0 4 -5q4 0 4 5l18 -5h64q8 0 8 -8 q-18 -24 -29 -24q-16 13 -59 16l-6 -4h-8q-4 0 -4 4l-9 -4q-105 12 -165 12h-13q-4 0 -4 4q-2 -1 -5 -2l-4.5 -1.5t-2.5 -0.5q-47 0 -78 8q-28 -4 -37 -4q-17 0 -127 4q-13 -8 -24 -8v4l-9 -4h-4q-4 0 -4 4l-8 -4h-35l-10 8l2 29v17q0 53 -2 65q3 46 6 211l-4 8q4 12 4 19v4 q0 6 -4 14l4 12q0 1 -0.5 5l-1.5 12l-2 16q0 4 4 4q-6 64 -6 148q2 6 2 12q-14 0 -14 -4l-29 4q-254 -3 -289 -12q-4 -35 -102 -260q-102 -227 -123 -308q-19 -31 -29 -36h-4q-8 0 -8 8v4zM279 616q14 0 14 5l29 -5h16q8 0 18 5l21 -5q26 0 31 5q11 -1 27.5 -2t27.5 -2 t20 -1h105l8 -4l2 21v119q0 10 -2 16q2 6 2 12l-2 21h2q-3 16 -6 16l4 17q-8 188 -8 358v74q0 9 4 37l-4 8l4 12q0 4 -4 4l4 21v32h-12q-13 -13 -97 -229q-61 -131 -174 -457l-30 -69v-9z" />
<glyph unicode="&#xc7;" horiz-adv-x="1095" d="M0 616q4 28 4 35v74q0 90 53 297q58 146 138 217q52 61 129 96q124 53 227 56v-5l8 5q131 0 248 -91q0 -1 24 -22v-6q0 -8 -8 -8h-8q-51 53 -104 73.5t-156 32.5q-144 -9 -256 -74q-82 -50 -121 -102q-73 -94 -117 -246q-32 -120 -32 -221q0 -2 -4 -2l4 -8l-4 -131 q0 -163 182 -381q205 -172 303 -189q4 0 16 -4q4 0 4 4l21 -4h8q212 0 389 201q-4 0 -4 4l8 4h4q13 -3 13 -22q-182 -209 -389 -209h-2l-46 -92q2 0 41 -15q72 -28 72 -125q0 -124 -151 -159q-5 0 -43 10l-17 12v31q17 -12 49 -23q4 0 4 6q69 0 119 84h-4l4 25v29 q0 79 -90 100l-10 -2v2q-1 0 -5.5 4t-6.5 6l43 86q3 14 10 21h-4q-131 0 -344 192q-157 170 -187 316q0 23 -8 47h4l-4 6v39q0 22 -4 26z" />
<glyph unicode="&#xc8;" horiz-adv-x="956" d="M0 700l4 25v102q0 23 8 47q-4 12 -4 13l4 8q0 2 -4 2l4 21v16q10 87 13 246h4l-4 8v67q0 11 4 31l-9 64q1 2 2 5t2 4.5t1 2.5l-13 18q17 17 51 17q9 0 283 4l8 4l8 -4q21 9 60 12l8 -4q8 4 16 4h5q4 0 4 -4l8 4h6q4 0 4 -4q19 5 102 16l25 -4q3 0 11.5 0.5t25 1.5t31.5 2 v-4q13 6 61 9q33 0 33 -21q-10 -13 -55 -16l-21 4q-1 0 -3.5 -0.5l-7.5 -1.5t-11 -2q-9 0 -17 4q-36 -4 -43 -4h-51q-4 0 -16 -4q-5 0 -5 4l-233 -25v4l-6 -4h-51q-13 0 -13 4l-24 -4q-60 0 -99 -2q-16 2 -55 2v-2q4 -12 4 -16h-4q0 -4 4 -4l-4 -39v-72q0 -4 4 -16 q0 -5 -4 -5q0 -8 4 -8l-26 -489q4 -12 4 -17q64 9 121 9v-4l8 4l8 -4l8 4q4 0 4 -4l27 4h80q18 -3 18 -9l8 5q114 4 123 4l17 -4q8 4 12 4v-4q0 6 121 12l16 -4q21 8 60 8q8 -13 8 -25q0 -9 -92 -12v4q-5 0 -5 -4q-96 -2 -217 -2h-73q-9 0 -17 -4l-51 6q-24 -3 -137 -6v4 l-8 -4q-4 0 -4 4l-39 -8q8 -13 8 -21q0 -17 -4 -37l6 -112q0 -15 -2 -33q2 -41 2 -106q0 -39 -6 -39l4 -9v-4q0 -57 6 -100q-1 -6 -2 -11.5t-1.5 -8t-0.5 -3.5q12 -108 12 -122h-4l8 -31q110 -4 119 -4q5 0 119 4l18 -4q12 4 17 4v-4l8 4l39 -4l8 4q4 0 4 -4q41 2 123 14v-4 q0 9 240 12v-22l-91 -13q-2 1 -5 2t-4.5 2t-2.5 1l-8 -5l-23 5q-1 0 -4 -1t-8.5 -2t-11.5 -2l-8 5q-10 -5 -17 -5q-4 0 -4 5q-17 -10 -69 -13q-5 0 -5 4q-3 0 -94 -16v4q-4 0 -4 -4q-62 4 -67 4h-187l-22 -4q-90 9 -90 29q-9 58 -9 98v35q0 4 -4 16l4 8q-4 12 -4 13l4 8 q-9 9 -12 69l4 25v68q0 6 -4 14q3 43 8 43l-4 8v21q0 4 4 4q-8 19 -8 84q0 15 4 35q-4 28 -4 38v66q0 10 -4 18zM172 1737q8 14 18 14q162 -126 207 -166l74 -59v-4q-3 -15 -10 -15h-8q-87 65 -170 142q-53 27 -111 88z" />
<glyph unicode="&#xc9;" horiz-adv-x="948" d="M0 700l4 25v102q0 23 8 47q-4 12 -4 13l4 8q0 2 -4 2l4 21v16q10 87 13 246h4l-4 8v67q0 11 4 31l-9 64q1 2 2 5t2 4.5t1 2.5l-13 18q17 17 51 17q9 0 283 4l8 4l8 -4q21 9 60 12l8 -4q8 4 16 4h5q4 0 4 -4l8 4h6q4 0 4 -4q19 5 102 16l25 -4q3 0 11.5 0.5t25 1.5t31.5 2 v-4q13 6 61 9q33 0 33 -21q-10 -13 -55 -16l-21 4q-1 0 -3.5 -0.5l-7.5 -1.5t-11 -2q-9 0 -17 4q-36 -4 -43 -4h-51q-4 0 -16 -4q-5 0 -5 4l-233 -25v4l-6 -4h-51q-13 0 -13 4l-24 -4q-60 0 -99 -2q-16 2 -55 2v-2q4 -12 4 -16h-4q0 -4 4 -4l-4 -39v-72q0 -4 4 -16 q0 -5 -4 -5q0 -8 4 -8l-26 -489q4 -12 4 -17q64 9 121 9v-4l8 4l8 -4l8 4q4 0 4 -4l27 4h80q18 -3 18 -9l8 5q114 4 123 4l17 -4q8 4 12 4v-4q0 6 121 12l16 -4q21 8 60 8q8 -13 8 -25q0 -9 -92 -12v4q-5 0 -5 -4q-96 -2 -217 -2h-73q-9 0 -17 -4l-51 6q-24 -3 -137 -6v4 l-8 -4q-4 0 -4 4l-39 -8q8 -13 8 -21q0 -17 -4 -37l6 -112q0 -15 -2 -33q2 -41 2 -106q0 -39 -6 -39l4 -9v-4q0 -57 6 -100q-1 -6 -2 -11.5t-1.5 -8t-0.5 -3.5q12 -108 12 -122h-4l8 -31q110 -4 119 -4q5 0 119 4l18 -4q12 4 17 4v-4l8 4l39 -4l8 4q4 0 4 -4q41 2 123 14v-4 q0 9 240 12v-22l-91 -13q-2 1 -5 2t-4.5 2t-2.5 1l-8 -5l-23 5q-1 0 -4 -1t-8.5 -2t-11.5 -2l-8 5q-10 -5 -17 -5q-4 0 -4 5q-17 -10 -69 -13q-5 0 -5 4q-3 0 -94 -16v4q-4 0 -4 -4q-62 4 -67 4h-187l-22 -4q-90 9 -90 29q-9 58 -9 98v35q0 4 -4 16l4 8q-4 12 -4 13l4 8 q-9 9 -12 69l4 25v68q0 6 -4 14q3 43 8 43l-4 8v21q0 4 4 4q-8 19 -8 84q0 15 4 35q-4 28 -4 38v66q0 10 -4 18zM383 1522v4l74 59q45 40 207 166q10 0 18 -14q-58 -61 -111 -88q-100 -90 -170 -142h-8q-7 0 -10 15z" />
<glyph unicode="&#xca;" horiz-adv-x="929" d="M0 700l4 25v102q0 23 8 47q-4 12 -4 13l4 8q0 2 -4 2l4 21v16q10 87 13 246h4l-4 8v67q0 11 4 31l-9 64q1 2 2 5t2 4.5t1 2.5l-13 18q17 17 51 17q9 0 283 4l8 4l8 -4q21 9 60 12l8 -4q8 4 16 4h5q4 0 4 -4l8 4h6q4 0 4 -4q19 5 102 16l25 -4q3 0 11.5 0.5t25 1.5t31.5 2 v-4q13 6 61 9q33 0 33 -21q-10 -13 -55 -16l-21 4q-1 0 -3.5 -0.5l-7.5 -1.5t-11 -2q-9 0 -17 4q-36 -4 -43 -4h-51q-4 0 -16 -4q-5 0 -5 4l-233 -25v4l-6 -4h-51q-13 0 -13 4l-24 -4q-60 0 -99 -2q-16 2 -55 2v-2q4 -12 4 -16h-4q0 -4 4 -4l-4 -39v-72q0 -4 4 -16 q0 -5 -4 -5q0 -8 4 -8l-26 -489q4 -12 4 -17q64 9 121 9v-4l8 4l8 -4l8 4q4 0 4 -4l27 4h80q18 -3 18 -9l8 5q114 4 123 4l17 -4q8 4 12 4v-4q0 6 121 12l16 -4q21 8 60 8q8 -13 8 -25q0 -9 -92 -12v4q-5 0 -5 -4q-96 -2 -217 -2h-73q-9 0 -17 -4l-51 6q-24 -3 -137 -6v4 l-8 -4q-4 0 -4 4l-39 -8q8 -13 8 -21q0 -17 -4 -37l6 -112q0 -15 -2 -33q2 -41 2 -106q0 -39 -6 -39l4 -9v-4q0 -57 6 -100q-1 -6 -2 -11.5t-1.5 -8t-0.5 -3.5q12 -108 12 -122h-4l8 -31q110 -4 119 -4q5 0 119 4l18 -4q12 4 17 4v-4l8 4l39 -4l8 4q4 0 4 -4q41 2 123 14v-4 q0 9 240 12v-22l-91 -13q-2 1 -5 2t-4.5 2t-2.5 1l-8 -5l-23 5q-1 0 -4 -1t-8.5 -2t-11.5 -2l-8 5q-10 -5 -17 -5q-4 0 -4 5q-17 -10 -69 -13q-5 0 -5 4q-3 0 -94 -16v4q-4 0 -4 -4q-62 4 -67 4h-187l-22 -4q-90 9 -90 29q-9 58 -9 98v35q0 4 -4 16l4 8q-4 12 -4 13l4 8 q-9 9 -12 69l4 25v68q0 6 -4 14q3 43 8 43l-4 8v21q0 4 4 4q-8 19 -8 84q0 15 4 35q-4 28 -4 38v66q0 10 -4 18zM193 1442q21 74 122 284q14 28 33 43h4q70 -69 107 -143q68 -100 110 -139v-6l-6 -2h-10q-71 65 -141 190q-38 47 -60 66q-28 -55 -69 -144q-41 -80 -60 -147 l-8 -2h-22z" />
<glyph unicode="&#xcb;" horiz-adv-x="954" d="M0 700l4 25v102q0 23 8 47q-4 12 -4 13l4 8q0 2 -4 2l4 21v16q10 87 13 246h4l-4 8v67q0 11 4 31l-9 64q1 2 2 5t2 4.5t1 2.5l-13 18q17 17 51 17q9 0 283 4l8 4l8 -4q21 9 60 12l8 -4q8 4 16 4h5q4 0 4 -4l8 4h6q4 0 4 -4q19 5 102 16l25 -4q3 0 11.5 0.5t25 1.5t31.5 2 v-4q13 6 61 9q33 0 33 -21q-10 -13 -55 -16l-21 4q-1 0 -3.5 -0.5l-7.5 -1.5t-11 -2q-9 0 -17 4q-36 -4 -43 -4h-51q-4 0 -16 -4q-5 0 -5 4l-233 -25v4l-6 -4h-51q-13 0 -13 4l-24 -4q-60 0 -99 -2q-16 2 -55 2v-2q4 -12 4 -16h-4q0 -4 4 -4l-4 -39v-72q0 -4 4 -16 q0 -5 -4 -5q0 -8 4 -8l-26 -489q4 -12 4 -17q64 9 121 9v-4l8 4l8 -4l8 4q4 0 4 -4l27 4h80q18 -3 18 -9l8 5q114 4 123 4l17 -4q8 4 12 4v-4q0 6 121 12l16 -4q21 8 60 8q8 -13 8 -25q0 -9 -92 -12v4q-5 0 -5 -4q-96 -2 -217 -2h-73q-9 0 -17 -4l-51 6q-24 -3 -137 -6v4 l-8 -4q-4 0 -4 4l-39 -8q8 -13 8 -21q0 -17 -4 -37l6 -112q0 -15 -2 -33q2 -41 2 -106q0 -39 -6 -39l4 -9v-4q0 -57 6 -100q-1 -6 -2 -11.5t-1.5 -8t-0.5 -3.5q12 -108 12 -122h-4l8 -31q110 -4 119 -4q5 0 119 4l18 -4q12 4 17 4v-4l8 4l39 -4l8 4q4 0 4 -4q41 2 123 14v-4 q0 9 240 12v-22l-91 -13q-2 1 -5 2t-4.5 2t-2.5 1l-8 -5l-23 5q-1 0 -4 -1t-8.5 -2t-11.5 -2l-8 5q-10 -5 -17 -5q-4 0 -4 5q-17 -10 -69 -13q-5 0 -5 4q-3 0 -94 -16v4q-4 0 -4 -4q-62 4 -67 4h-187l-22 -4q-90 9 -90 29q-9 58 -9 98v35q0 4 -4 16l4 8q-4 12 -4 13l4 8 q-9 9 -12 69l4 25v68q0 6 -4 14q3 43 8 43l-4 8v21q0 4 4 4q-8 19 -8 84q0 15 4 35q-4 28 -4 38v66q0 10 -4 18zM188 1577q0 23 39 49h37q39 -20 39 -57v-6q0 -44 -39 -58q-76 21 -76 72zM489 1577q0 22 37 49h39q37 -21 37 -57v-6q0 -43 -37 -58q-76 21 -76 72z" />
<glyph unicode="&#xcc;" horiz-adv-x="294" d="M-129 1737q8 14 20 14q162 -126 207 -166l74 -59v-4q-6 -15 -10 -15h-8q-87 65 -170 142q-57 29 -113 88zM100 12q0 33 9 189h4l-4 8q3 100 8 100l-4 21v137q0 4 4 16q-4 8 -4 17v12q0 2 4 2l-4 8v41q0 4 4 4q0 4 -4 4l4 21v4q12 180 14 297h4q0 4 -4 4l4 12q4 144 4 176 v9q0 8 -4 16q0 4 4 4l-4 21v100q0 4 4 4l-4 8q0 81 -8 185q8 0 16 4l13 -17v-22q0 -17 -4 -37q4 -28 4 -41v-33l4 -18h-4l4 -8v-5q0 -4 -4 -4q0 -4 4 -4l-4 -24l8 -181h-4l4 -8v-12q0 -4 -4 -4q0 -4 4 -4q-9 -44 -12 -209l-5 -8q0 -4 5 -4q-17 -247 -17 -363v-139 q0 -70 -8 -70l4 -8v-55q0 -82 -6 -82q0 -4 2 -4l-2 -39v-25q0 -8 -8 -8h-8q-9 0 -9 12z" />
<glyph unicode="&#xcd;" horiz-adv-x="229" d="M0 12q0 50 8 189h4l-4 8q3 100 8 100l-4 21v137q0 4 4 16q-4 8 -4 17v12q0 2 4 2l-4 8v41q0 4 4 4q0 4 -4 4l4 21v4q14 167 17 297h4q0 4 -4 4l4 12q4 144 4 176v9q0 8 -4 16q0 4 4 4l-4 21v100q0 4 4 4l-4 8q0 81 -8 185q6 0 14 4l12 -17v-22q0 -17 -4 -37q4 -28 4 -41 v-33l4 -18h-4l4 -8v-5q0 -4 -4 -4q0 -4 4 -4l-4 -24l8 -181h-4l4 -8v-12q0 -4 -4 -4q0 -4 4 -4q-9 -44 -12 -209l-4 -8q0 -4 4 -4q-14 -203 -14 -363v-139q0 -70 -8 -70l4 -8v-55q0 -82 -8 -82q0 -4 4 -4l-4 -39v-25q0 -8 -9 -8h-8q-8 0 -8 12zM29 1522v4l73 59 q34 29 207 166q13 0 21 -14q-56 -59 -113 -88q-83 -77 -170 -142h-6q-6 0 -12 15z" />
<glyph unicode="&#xce;" horiz-adv-x="290" d="M-84 1442q19 69 123 284q14 28 33 43h4q67 -67 106 -143q63 -92 113 -139v-6l-8 -2h-11q-71 65 -141 190q-40 50 -59 66q-37 -72 -70 -144q-39 -76 -59 -147l-8 -2h-23zM57 12q0 33 9 189h4l-4 8q3 100 8 100l-4 21v137q0 4 4 16q-4 8 -4 17v12q0 2 4 2l-4 8v41q0 4 4 4 q0 4 -4 4l4 21v4q13 152 16 297h4q0 4 -4 4l4 12q4 144 4 176v9q0 8 -4 16q0 4 4 4l-4 21v100q0 4 4 4l-4 8q0 81 -8 185q4 0 16 4l13 -17v-22q0 -17 -4 -37q4 -28 4 -41v-33l4 -18h-4l4 -8v-5q0 -4 -4 -4q0 -4 4 -4l-4 -24l8 -181h-4l4 -8v-12q0 -4 -4 -4q0 -4 4 -4 q-9 -44 -12 -209l-5 -8q0 -4 5 -4q-17 -247 -17 -363v-139q0 -70 -8 -70l4 -8v-55q0 -82 -8 -82q0 -4 4 -4l-4 -39v-25q0 -8 -8 -8h-8q-9 0 -9 12z" />
<glyph unicode="&#xcf;" horiz-adv-x="296" d="M-100 1577q0 22 37 49h38q37 -21 37 -57v-6q0 -43 -37 -58q-75 21 -75 72zM43 12q0 33 6 189h4l-4 8q3 100 8 100l-4 21v137q0 4 4 16q-4 8 -4 17v12q0 2 4 2l-4 8v41q0 4 4 4q0 4 -4 4l4 21v4q14 167 17 297h4q0 4 -4 4l4 12q6 108 6 176v9q0 10 -6 16q0 4 6 4l-6 21 v100q0 4 6 4l-6 8q0 81 -8 185q8 0 16 4l12 -17v-22q0 -17 -4 -37q4 -28 4 -41v-33l4 -18h-4l4 -8v-5q0 -4 -4 -4q0 -4 4 -4l-4 -24l8 -181h-4l4 -8v-12q0 -4 -4 -4q0 -4 4 -4q-9 -44 -12 -209l-4 -8q0 -4 4 -4q-16 -232 -16 -363v-139q0 -70 -8 -70l4 -8v-55q0 -82 -8 -82 q0 -4 4 -4l-4 -39v-25q0 -8 -9 -8h-8q-6 0 -6 12zM150 1577q0 23 36 49h39q37 -21 37 -57v-6q0 -43 -37 -58q-75 21 -75 72z" />
<glyph unicode="&#xd0;" horiz-adv-x="1024" d="M-184 680v4q0 9 37 18q54 -4 69 -4h78v15q23 292 23 377h4l-4 8q0 4 4 4l-4 8v20q0 3 -5 33q0 4 5 4q-9 43 -9 82h4l-4 8q0 3 4 3l-4 8v96l-4 18l17 11q4 0 15 0.5t31 1.5t38 2q347 -46 444 -125l96 -82q0 -4 68 -78q0 -12 41 -86q0 -1 5 -14.5t12 -34t11 -35.5h-4 q37 -107 37 -303l4 -8q-9 -127 -49 -281q-11 0 -41 -86q-86 -138 -221 -203q-142 -65 -276 -65l-21 4l-53 -8v4l-8 -4h-4q-55 0 -82 -12q-3 0 -11 4q-32 -4 -41 -4h-8q-7 0 -10 16l10 16v54q0 4 4 4l-4 6q0 4 4 4l-4 6v137q0 31 -6 101h2l-2 8v51q0 21 2 35l-2 6q0 4 2 4 l-2 27v20q0 15 2 19l-6 53q4 62 4 88l-4 22q4 8 4 11v6h-90q-16 0 -70 -4q-28 3 -28 10zM27 356q4 -8 4 -10q0 -36 6 -70q0 -4 -4 -4q6 -72 8 -77l-4 -23v-45q0 -8 4 -16l-4 -25v-74l-4 -6h4l18 4v-4q12 5 133 14h5q4 0 4 -4l8 4h24q1 0 41 5l9 -5q20 7 83 17v-4 q238 68 322 198q91 155 100 252q6 22 15 109v37q0 10 -2 12q2 6 2 12q-3 69 -6 72q4 4 4 14q0 44 -13 70l4 6q-32 197 -121.5 316t-254.5 182q-232 55 -334 55v2q-38 -10 -41 -10v-33l4 -18h-4l4 -9v-40q0 -31 2 -56h-2q8 -34 10 -69q-4 -36 -4 -60q0 -6 4 -26 q-9 -170 -24 -281l4 -6v-35q0 -2 -4 -2l4 -8v-19q0 -2 -2 -4q2 -1 5 -1.5t4.5 -1t2.5 -1.5l2 8l35 -4l33 4l22 -4q8 4 10 4q4 0 4 -4l21 4q4 0 12 -4q4 0 4 4l21 -4q8 0 12 4l25 -4q6 0 14 4l6 -4q5 0 17 4q40 -4 51 -4h18v-6l-14 -18l-35 4q-5 0 -25 -4l-94 6q-4 -2 -10 -2 v2l-6 -2q-21 0 -31 2q-90 -3 -96 -6h-8l2 -8v-74q0 -13 -4 -13l4 -18v-197q0 -4 -4 -4z" />
<glyph unicode="&#xd1;" horiz-adv-x="952" d="M0 84l4 6q0 4 -4 4l4 21q8 164 8 231h4q0 4 -4 4q3 39 8 39q0 4 -4 4q2 63 11 185l-2 8l2 8l-2 18h2l-2 9v43l-5 20h5l-5 8v8q0 6 1 14.5t2 21t2 20.5q0 4 -5 4l5 18v94q0 5 2 5q0 4 -2 4l2 18q0 65 8 166l-4 8q3 39 8 39l-4 8q12 170 12 264v5l-4 26q19 22 33 25 q9 0 51 -51q24 -9 233 -230q260 -309 304 -368q53 -56 69 -56v25l-4 26h4l-4 9v8q0 77 -10 145q0 2 4 2q-2 83 -21 178q0 5 5 5q-9 52 -9 149v4q0 6 -4 14q4 12 4 17l-4 12q4 8 4 17l-4 18h4l-4 8v17q0 4 4 4q-6 17 -8 47l8 4h13q8 -3 8 -8q-4 0 -4 -4l8 -5q-4 -28 -4 -30 l4 -29q0 -4 -4 -4l4 -39v-80l31 -446q0 -23 12 -137v-89q0 -24 2 -34q-2 -14 -2 -39v-56l14 -260h-4l4 -8v-65l4 -21h-4q3 -25 13 -35v-12q0 -4 -5 -4l5 -8q0 -2 -5 -2l5 -9l-5 -20h-16q-8 0 -14 80h4l-4 6v123q0 58 -17 235v25q0 40 4 86q-4 36 -4 82v47q-96 84 -159 176 q-64 74 -240 291q-177 180 -266 256q0 -2 -4 -2l4 -21v-4q0 -20 -4 -28q4 -28 4 -31q-19 -210 -21 -385h-4q0 -4 4 -4l-4 -12q-1 -43 -2 -83.5t-1.5 -60.5t-0.5 -24q0 -12 0.5 -33t1.5 -59.5t2 -69.5q-20 -296 -20 -445l-4 -12q0 -4 4 -4q0 -1 -0.5 -2t-1.5 -3.5t-2 -4.5 q4 -58 4 -76v-35q0 -8 -6 -8h-9q-13 0 -16 84zM127 1546v25q0 69 82 139q18 11 47 16q60 0 164 -137q46 -43 92 -43h18q35 0 76 53q19 46 19 111l10 6h2q3 0 10 -10v-2q0 -62 -35 -137q-59 -47 -92 -47q-93 0 -172 116q-52 64 -94 64q-59 0 -109 -115v-49l5 -23l-11 -8 q-12 0 -12 41z" />
<glyph unicode="&#xd2;" horiz-adv-x="1064" d="M0 608l4 15l-4 53q21 223 33 223q0 4 -2 4q2 14 2 31q-2 4 -2 10q5 0 32 133q37 109 78 166q85 104 156 137q91 31 131 31l8 -4q1 0 13 4l18 -4q2 0 2 4q167 0 279 -127q89 -111 141 -280q14 -60 14 -101v-18q0 -508 -219 -799q-116 -96 -199 -96h-67q-89 9 -180 63 q-87 55 -164 166q-53 178 -74 389zM23 578l40 -244q21 -119 80 -166q59 -74 119 -105q92 -51 182 -51q299 0 404 533q24 152 33 274q0 4 -4 4l4 19v73q-6 100 -88 271q-71 99 -123 143q-81 49 -148 55q-4 0 -4 -4l-55 9q-161 0 -252 -101q-88 -76 -137 -262 q-26 -101 -51 -362q4 -54 4 -64q-1 -5 -2 -10.5t-1.5 -8t-0.5 -3.5zM172 1737q8 14 18 14q162 -126 207 -166l74 -59v-4q-3 -15 -10 -15h-8q-87 65 -170 142q-53 27 -111 88z" />
<glyph unicode="&#xd3;" horiz-adv-x="1056" d="M0 608l4 15l-4 53q21 223 33 223q0 4 -2 4q2 14 2 31q-2 4 -2 10q5 0 32 133q37 109 78 166q85 104 156 137q91 31 131 31l8 -4q1 0 13 4l18 -4q2 0 2 4q167 0 279 -127q89 -111 141 -280q14 -60 14 -101v-18q0 -508 -219 -799q-116 -96 -199 -96h-67q-89 9 -180 63 q-87 55 -164 166q-53 178 -74 389zM23 578l40 -244q21 -119 80 -166q59 -74 119 -105q92 -51 182 -51q299 0 404 533q24 152 33 274q0 4 -4 4l4 19v73q-6 100 -88 271q-71 99 -123 143q-81 49 -148 55q-4 0 -4 -4l-55 9q-161 0 -252 -101q-88 -76 -137 -262 q-26 -101 -51 -362q4 -54 4 -64q-1 -5 -2 -10.5t-1.5 -8t-0.5 -3.5zM446 1522v4l74 59q34 29 207 166q13 0 21 -14q-58 -61 -111 -88q-100 -90 -170 -142h-8q-7 0 -13 15z" />
<glyph unicode="&#xd4;" horiz-adv-x="1067" d="M0 608l4 15l-4 53q21 223 33 223q0 4 -2 4q2 14 2 31q-2 4 -2 10q5 0 32 133q37 109 78 166q85 104 156 137q91 31 131 31l8 -4q1 0 13 4l18 -4q2 0 2 4q167 0 279 -127q89 -111 141 -280q14 -60 14 -101v-18q0 -508 -219 -799q-116 -96 -199 -96h-67q-89 9 -180 63 q-87 55 -164 166q-53 178 -74 389zM23 578l40 -244q21 -119 80 -166q59 -74 119 -105q92 -51 182 -51q299 0 404 533q24 152 33 274q0 4 -4 4l4 19v73q-6 100 -88 271q-71 99 -123 143q-81 49 -148 55q-4 0 -4 -4l-55 9q-161 0 -252 -101q-88 -76 -137 -262 q-26 -101 -51 -362q4 -54 4 -64q-1 -5 -2 -10.5t-1.5 -8t-0.5 -3.5zM272 1442q15 64 121 284q14 28 33 43h4q67 -67 109 -143q68 -100 110 -139v-6l-8 -2h-10q-73 67 -142 190q-36 49 -59 66q-37 -72 -70 -144q-39 -76 -59 -147l-6 -2h-23z" />
<glyph unicode="&#xd5;" horiz-adv-x="1067" d="M0 608l4 15l-4 53q21 223 33 223q0 4 -2 4q2 14 2 31q-2 4 -2 10q5 0 32 133q37 109 78 166q85 104 156 137q91 31 131 31l8 -4q1 0 13 4l18 -4q2 0 2 4q167 0 279 -127q89 -111 141 -280q14 -60 14 -101v-18q0 -508 -219 -799q-116 -96 -199 -96h-67q-89 9 -180 63 q-87 55 -164 166q-53 178 -74 389zM23 578l40 -244q21 -119 80 -166q59 -74 119 -105q92 -51 182 -51q299 0 404 533q24 152 33 274q0 4 -4 4l4 19v73q-6 100 -88 271q-71 99 -123 143q-81 49 -148 55q-4 0 -4 -4l-55 9q-161 0 -252 -101q-88 -76 -137 -262 q-26 -101 -51 -362q4 -54 4 -64q-1 -5 -2 -10.5t-1.5 -8t-0.5 -3.5zM207 1546v25q0 69 82 139q18 11 49 16q58 0 162 -137q46 -43 92 -43h18q35 0 76 53q19 46 19 111l10 6h2q7 0 10 -10v-2q0 -62 -35 -137q-56 -47 -92 -47q-90 0 -172 116q-52 64 -94 64q-59 0 -109 -115 v-49l4 -23l-10 -8q-12 0 -12 41z" />
<glyph unicode="&#xd6;" horiz-adv-x="1075" d="M0 608l4 15l-4 53q21 223 33 223q0 4 -2 4q2 14 2 31q-2 4 -2 10q5 0 32 133q37 109 78 166q85 104 156 137q91 31 131 31l8 -4q1 0 13 4l18 -4q2 0 2 4q167 0 279 -127q89 -111 141 -280q14 -60 14 -101v-18q0 -508 -219 -799q-116 -96 -199 -96h-67q-89 9 -180 63 q-87 55 -164 166q-53 178 -74 389zM23 578l40 -244q21 -119 80 -166q59 -74 119 -105q92 -51 182 -51q299 0 404 533q24 152 33 274q0 4 -4 4l4 19v73q-6 100 -88 271q-71 99 -123 143q-81 49 -148 55q-4 0 -4 -4l-55 9q-161 0 -252 -101q-88 -76 -137 -262 q-26 -101 -51 -362q4 -54 4 -64q-1 -5 -2 -10.5t-1.5 -8t-0.5 -3.5zM250 1577q0 22 37 49h39q36 -20 36 -57v-6q0 -44 -36 -58q-76 21 -76 72zM549 1577q0 23 39 49h37q39 -20 39 -57v-6q0 -44 -39 -58q-76 21 -76 72z" />
<glyph unicode="&#xd7;" horiz-adv-x="587" d="M0 836v8q0 4 14 10q43 -37 170 -115q0 -4 33 -30q49 68 135 178h2q6 0 13 -10q0 -19 -101 -138l-24 -45q72 -69 184 -147l23 -23q0 -6 -23 -22q-31 33 -164 131l-37 33h-4q-67 -71 -158 -183q-3 -1 -6 -1.5t-5 -1t-3 -1t-2 -0.5l-4 8v9q54 57 162 188v2q-96 74 -172 113 q0 11 -33 37z" />
<glyph unicode="&#xd8;" horiz-adv-x="1081" d="M0 608l4 15l-4 53q21 223 33 223q0 4 -2 4q2 14 2 31q-2 4 -2 10q5 0 32 133q37 109 78 166q85 104 156 137q91 31 131 31l8 -4q1 0 13 4l18 -4q2 0 2 4q71 0 127 -20l27 86l10 4h8q8 0 8 -13q0 -10 -24 -90q68 -30 123 -94q89 -111 141 -280q14 -60 14 -101v-18 q0 -508 -219 -799q-116 -96 -199 -96h-67q-85 10 -164 53l-18 -57v-17h-7l-8 4q0 -14 -8 -14h-4q-8 0 -8 10q0 15 24 92q-78 53 -151 158q-53 178 -74 389zM23 578l40 -244q21 -119 80 -166q51 -61 88 -84l13 33q88 316 137 479q113 346 113 391q61 213 61 248q4 22 35 133 q-31 12 -68 16q-4 0 -4 -4l-55 9q-161 0 -252 -101q-88 -76 -137 -262q-26 -101 -51 -362q4 -54 4 -64q-1 -5 -2 -10.5t-1.5 -8t-0.5 -3.5zM260 66q2 0 2 -3q92 -51 182 -51q299 0 404 533q24 152 33 274q0 4 -4 4l4 19v73q-6 100 -88 271q-71 99 -123 143q-42 23 -52 27 q-17 -57 -20 -70q-136 -574 -238 -856q-48 -199 -100 -364z" />
<glyph unicode="&#xd9;" horiz-adv-x="1099" d="M0 918v24q0 148 12 148l-4 8q0 4 4 4l-4 8q18 107 23 264q12 64 24 64h4l13 -11q-15 -55 -29 -196q0 -4 4 -4l-22 -197q2 -14 2 -49q0 -4 -2 -4l2 -8v-15q0 -4 -2 -4q0 -4 2 -4q0 -8 -2 -8q15 -277 43 -393q29 -218 126.5 -350t272.5 -187q145 0 252 119q67 99 133 317 q3 33 8 33l-4 8q15 26 39 211v121q0 10 4 60q0 4 -3 35.5t-11 109.5t-15 156v53l-2 31h2q-22 132 -22 141l12 8h4q19 0 31 -145l-4 -9l4 -10l-4 -8q29 -284 29 -362v-80q0 -37 2 -60q-6 -74 -19 -129q0 -4 4 -4q-11 -72 -47 -215h-4l4 -6q-36 -108 -115 -264 q-81 -90 -124 -96q-25 -25 -95 -43q-4 0 -4 4l-20 -4h-31q-93 12 -219 106q-145 151 -172 274q-41 145 -68 361q-4 0 -4 53v64q-8 63 -8 80zM172 1737q8 14 18 14q162 -126 207 -166l74 -59v-4q-3 -15 -10 -15h-8q-87 65 -170 142q-53 27 -111 88z" />
<glyph unicode="&#xda;" horiz-adv-x="1120" d="M0 918v24q0 148 12 148l-4 8q0 4 4 4l-4 8q18 107 23 264q12 64 24 64h4l13 -11q-15 -55 -29 -196q0 -4 4 -4l-22 -197q2 -14 2 -49q0 -4 -2 -4l2 -8v-15q0 -4 -2 -4q0 -4 2 -4q0 -8 -2 -8q15 -277 43 -393q29 -218 126.5 -350t272.5 -187q145 0 252 119q67 99 133 317 q3 33 8 33l-4 8q15 26 39 211v121q0 10 4 60q0 4 -3 35.5t-11 109.5t-15 156v53l-2 31h2q-22 132 -22 141l12 8h4q19 0 31 -145l-4 -9l4 -10l-4 -8q29 -284 29 -362v-80q0 -37 2 -60q-6 -74 -19 -129q0 -4 4 -4q-11 -72 -47 -215h-4l4 -6q-36 -108 -115 -264 q-81 -90 -124 -96q-25 -25 -95 -43q-4 0 -4 4l-20 -4h-31q-93 12 -219 106q-145 151 -172 274q-41 145 -68 361q-4 0 -4 53v64q-8 63 -8 80zM438 1522v4l74 59q50 43 209 166q10 0 18 -14q-59 -62 -110 -88q-100 -90 -170 -142h-8q-7 0 -13 15z" />
<glyph unicode="&#xdb;" horiz-adv-x="1110" d="M0 918v24q0 148 12 148l-4 8q0 4 4 4l-4 8q18 107 23 264q12 64 24 64h4l13 -11q-15 -55 -29 -196q0 -4 4 -4l-22 -197q2 -14 2 -49q0 -4 -2 -4l2 -8v-15q0 -4 -2 -4q0 -4 2 -4q0 -8 -2 -8q15 -277 43 -393q29 -218 126.5 -350t272.5 -187q145 0 252 119q67 99 133 317 q3 33 8 33l-4 8q15 26 39 211v121q0 10 4 60q0 4 -3 35.5t-11 109.5t-15 156v53l-2 31h2q-22 132 -22 141l12 8h4q19 0 31 -145l-4 -9l4 -10l-4 -8q29 -284 29 -362v-80q0 -37 2 -60q-6 -74 -19 -129q0 -4 4 -4q-11 -72 -47 -215h-4l4 -6q-36 -108 -115 -264 q-81 -90 -124 -96q-25 -25 -95 -43q-4 0 -4 4l-20 -4h-31q-93 12 -219 106q-145 151 -172 274q-41 145 -68 361q-4 0 -4 53v64q-8 63 -8 80zM258 1442q16 68 123 284q16 32 33 43h4q64 -67 106 -143q66 -97 111 -139v-6l-6 -2h-13q-68 65 -141 190q-35 47 -57 66 q-31 -54 -72 -144q-34 -67 -57 -147l-8 -2h-23z" />
<glyph unicode="&#xdc;" horiz-adv-x="1116" d="M0 918v24q0 148 12 148l-4 8q0 4 4 4l-4 8q18 107 23 264q12 64 24 64h4l13 -11q-15 -55 -29 -196q0 -4 4 -4l-22 -197q2 -14 2 -49q0 -4 -2 -4l2 -8v-15q0 -4 -2 -4q0 -4 2 -4q0 -8 -2 -8q15 -277 43 -393q29 -218 126.5 -350t272.5 -187q145 0 252 119q67 99 133 317 q3 33 8 33l-4 8q15 26 39 211v121q0 10 4 60q0 4 -3 35.5t-11 109.5t-15 156v53l-2 31h2q-22 132 -22 141l12 8h4q19 0 31 -145l-4 -9l4 -10l-4 -8q29 -284 29 -362v-80q0 -37 2 -60q-6 -74 -19 -129q0 -4 4 -4q-11 -72 -47 -215h-4l4 -6q-36 -108 -115 -264 q-81 -90 -124 -96q-25 -25 -95 -43q-4 0 -4 4l-20 -4h-31q-93 12 -219 106q-145 151 -172 274q-41 145 -68 361q-4 0 -4 53v64q-8 63 -8 80zM266 1577q0 23 39 49h37q39 -20 39 -57v-6q0 -44 -39 -58q-76 21 -76 72zM567 1577q0 22 37 49h39q39 -20 39 -57v-6q0 -44 -39 -58 q-76 21 -76 72z" />
<glyph unicode="&#xdd;" horiz-adv-x="1099" d="M-31 1372q7 17 13 17q28 -3 110 -150q147 -211 244 -381q127 -157 127 -170h4q104 129 158 221q12 9 30 49q95 142 203 359q13 13 55 92h13q0 -14 2 -18q-50 -84 -180 -332q-36 -54 -111 -174q-6 -2 -45 -72q-65 -98 -111 -151q9 -45 11 -76h-5l5 -8v-13l12 -92h-4l4 -6 q0 -4 -4 -4q2 -2 8 -51l-4 -9q9 -131 16 -174l-6 -14q6 -3 6 -8v-19q0 -42 17 -178q-13 0 -13 -10h-4q-12 18 -20 18v9h10v4q0 2 -2 2q0 4 2 4q-8 114 -23 248h5q-7 22 -9 37h4l-4 8v41q0 61 -16 202q0 5 2 5l-6 45h4q-8 37 -90 143q-44 44 -88 127q-104 162 -219 332 q-36 65 -68 106q-33 26 -33 41zM383 1522v4l74 59q45 40 207 166q10 0 18 -14q-58 -61 -111 -88q-100 -90 -170 -142h-8q-7 0 -10 15z" />
<glyph unicode="&#xdf;" horiz-adv-x="1044" d="M14 -16l6 61v57q3 97 9 97l-4 18v131q0 2 4 14q-4 12 -4 17v10q0 4 4 4l-4 8v37q0 4 4 4q0 4 -4 4l4 19v4q11 118 14 283h4q0 4 -4 4l4 14l2 56t1.5 42.5t0.5 20.5q-3 107 -10 127q2 2 2 14q0 17 -2 19q0 165 76 272q94 94 143 94q73 17 88 17h64q117 -9 209 -62 q88 -76 106 -137q0 -4 -4 -4q12 -24 12 -62v-26q0 -151 -172 -236q-27 -12 -35 -12v-4q123 -20 236 -94q127 -145 127 -310q4 0 4 -22q0 -4 -4 -4l4 -27v-47q0 -112 -64 -231q-50 -72 -146.5 -105t-252.5 -49l-8 4l-25 -4h-12q-4 0 -4 4l-8 -4q-2 0 -2 4q-25 -3 -25 -8 l-20 4h-4q-24 0 -56 -4q-63 6 -63 16v11l2 8l133 -8q122 6 131 12l16 -4q1 0 3 0.5l6 1.5l8 2v-4q183 26 264 88q64 40 104 225q0 4 -4 4q3 53 6 53l-18 148h4q-41 148 -112 219q-108 73 -236 90q0 4 -12 4q-68 -8 -101 -8l-8 4q-16 -8 -110 -8h-17q-14 0 -16 -2q-2 2 -17 2 h-34q-9 0 -9 8v8q0 10 39 13q4 0 4 -5q58 7 80 7l29 -2q195 0 324 129q29 29 47 114l-4 6v9q0 4 4 4l-4 8l4 27q-26 111 -99 159q-42 31 -109.5 50.5t-142.5 19.5q-128 0 -217 -105q-55 -73 -67 -200q-1 -5 -2 -11.5t-1.5 -10t-0.5 -5.5q4 -114 4 -162v-14q0 -4 -4 -4l4 -8 v-11q0 -4 -4 -4q0 -4 4 -4q-10 -46 -13 -198l-4 -9q0 -2 4 -2q-16 -222 -16 -344v-133q0 -65 -6 -65l2 -9v-53q0 -76 -6 -76h-14z" />
<glyph unicode="&#xe0;" horiz-adv-x="1071" d="M0 18q28 80 98 310q22 40 101 258q31 60 145 389l143 432h13q9 -3 80 -215q14 -38 55 -240q52 -192 115 -389q58 -185 67 -239h-4q80 -287 80 -301q-4 0 -4 -5q16 0 16 -18h-12v4l4 8h-4q-8 0 -8 -12h-8l-52 188q-48 198 -114 428q0 -16 -195 -22v4q-4 0 -4 -4l-47 4 q-17 0 -37 -4q-70 6 -133 6l-8 -2q-6 2 -17 2h-41q0 -15 -110 -297q-53 -161 -78 -258q-20 -45 -29 -45t-12 18zM213 1737q6 14 18 14q162 -126 207 -166l74 -59v-4q-6 -15 -10 -15h-8q-87 65 -170 142q-53 27 -111 88zM246 629h92q6 0 14 -4q4 0 4 4l41 -4h158l25 4 q8 -4 18 -4h8q9 0 17 4l8 -4l71 12q-114 372 -114 430q-38 132 -92 283h-4q-110 -357 -246 -721z" />
<glyph unicode="&#xe1;" horiz-adv-x="1050" d="M0 18q28 80 98 310q22 40 101 258q31 60 145 389l143 432h13q9 -3 80 -215q14 -38 55 -240q52 -192 115 -389q58 -185 67 -239h-4q80 -287 80 -301q-4 0 -4 -5q16 0 16 -18h-12v4l4 8h-4q-8 0 -8 -12h-8l-52 188q-48 198 -114 428q0 -16 -195 -22v4q-4 0 -4 -4l-47 4 q-17 0 -37 -4q-70 6 -133 6l-8 -2q-6 2 -17 2h-41q0 -15 -110 -297q-53 -161 -78 -258q-20 -45 -29 -45t-12 18zM246 629h92q6 0 14 -4q4 0 4 4l41 -4h158l25 4q8 -4 18 -4h8q9 0 17 4l8 -4l71 12q-114 372 -114 430q-38 132 -92 283h-4q-110 -357 -246 -721zM492 1522v4 l73 59q34 29 207 166q13 0 21 -14q-58 -61 -111 -88q-100 -90 -170 -142h-8q-6 0 -12 15z" />
<glyph unicode="&#xe2;" horiz-adv-x="1058" d="M0 18q28 80 98 310q22 40 101 258q31 60 145 389l143 432h13q9 -3 80 -215q14 -38 55 -240q52 -192 115 -389q58 -185 67 -239h-4q80 -287 80 -301q-4 0 -4 -5q16 0 16 -18h-12v4l4 8h-4q-8 0 -8 -12h-8l-52 188q-48 198 -114 428q0 -16 -195 -22v4q-4 0 -4 -4l-47 4 q-17 0 -37 -4q-70 6 -133 6l-8 -2q-6 2 -17 2h-41q0 -15 -110 -297q-53 -161 -78 -258q-20 -45 -29 -45t-12 18zM246 629h92q6 0 14 -4q4 0 4 4l41 -4h158l25 4q8 -4 18 -4h8q9 0 17 4l8 -4l71 12q-114 372 -114 430q-38 132 -92 283h-4q-110 -357 -246 -721zM293 1411 q16 68 123 287q17 30 33 41h4q61 -64 106 -142q62 -95 111 -141v-6l-6 -2h-13q-70 67 -139 190q-37 46 -59 68l-19 -38t-26 -52.5t-25 -52.5q-35 -66 -59 -150l-9 -2h-22z" />
<glyph unicode="&#xe3;" horiz-adv-x="1064" d="M0 18q28 80 98 310q22 40 101 258q31 60 145 389l143 432h13q9 -3 80 -215q14 -38 55 -240q52 -192 115 -389q58 -185 67 -239h-4q80 -287 80 -301q-4 0 -4 -5q16 0 16 -18h-12v4l4 8h-4q-8 0 -8 -12h-8l-52 188q-48 198 -114 428q0 -16 -195 -22v4q-4 0 -4 -4l-47 4 q-17 0 -37 -4q-70 6 -133 6l-8 -2q-6 2 -17 2h-41q0 -15 -110 -297q-53 -161 -78 -258q-20 -45 -29 -45t-12 18zM246 629h92q6 0 14 -4q4 0 4 4l41 -4h158l25 4q8 -4 18 -4h8q9 0 17 4l8 -4l71 12q-114 372 -114 430q-38 132 -92 283h-4q-110 -357 -246 -721zM256 1546v25 q0 67 84 139q18 11 47 16q58 0 162 -137q46 -43 92 -43h18q35 0 76 53q21 43 21 111l8 6h4q5 0 8 -10v-2q0 -62 -35 -137q-56 -47 -92 -47q-91 0 -170 116q-52 64 -96 64q-60 0 -107 -115v-49l3 -23l-9 -8q-14 0 -14 41z" />
<glyph unicode="&#xe4;" horiz-adv-x="1024" d="M0 18q28 80 98 310q22 40 101 258q31 60 145 389l143 432h13q9 -3 80 -215q14 -38 55 -240q52 -192 115 -389q58 -185 67 -239h-4q80 -287 80 -301q-4 0 -4 -5q16 0 16 -18h-12v4l4 8h-4q-8 0 -8 -12h-8l-52 188q-48 198 -114 428q0 -16 -195 -22v4q-4 0 -4 -4l-47 4 q-17 0 -37 -4q-70 6 -133 6l-8 -2q-6 2 -17 2h-41q0 -15 -110 -297q-53 -161 -78 -258q-20 -45 -29 -45t-12 18zM246 629h92q6 0 14 -4q4 0 4 4l41 -4h158l25 4q8 -4 18 -4h8q9 0 17 4l8 -4l71 12q-114 372 -114 430q-38 132 -92 283h-4q-110 -357 -246 -721zM279 1577 q0 24 38 49h37q39 -20 39 -57v-6q0 -44 -39 -58q-75 21 -75 72zM580 1577q0 23 36 49h39q37 -21 37 -57v-6q0 -43 -37 -58q-75 21 -75 72z" />
<glyph unicode="&#xe5;" horiz-adv-x="1077" d="M0 18q28 80 98 310q22 40 101 258q31 60 145 389l143 432h13q9 -3 80 -215q14 -38 55 -240q52 -192 115 -389q58 -185 67 -239h-4q80 -287 80 -301q-4 0 -4 -5q16 0 16 -18h-12v4l4 8h-4q-8 0 -8 -12h-8l-52 188q-48 198 -114 428q0 -16 -195 -22v4q-4 0 -4 -4l-47 4 q-17 0 -37 -4q-70 6 -133 6l-8 -2q-6 2 -17 2h-41q0 -15 -110 -297q-53 -161 -78 -258q-20 -45 -29 -45t-12 18zM246 629h92q6 0 14 -4q4 0 4 4l41 -4h158l25 4q8 -4 18 -4h8q9 0 17 4l8 -4l71 12q-114 372 -114 430q-38 132 -92 283h-4q-110 -357 -246 -721zM332 1616 q0 98 71 125q47 18 66 18q113 0 147 -112l7 -31q0 -90 -97 -150q-38 -10 -43 -10q-151 35 -151 160zM371 1577q50 -84 118 -84q0 -6 5 -6q100 26 100 135q-30 102 -105 102l-28 7q-90 -21 -90 -101v-28l4 -25h-4z" />
<glyph unicode="&#xe6;" horiz-adv-x="1404" d="M0 -8q27 84 41 94l-4 8q147 325 209 498q161 442 258 665q41 113 51 123l-4 9v4l16 22q38 -10 60 -10h18l25 2q6 -2 16 -2l8 2q4 0 4 -2q9 0 9 2q39 -2 86 -2h45q10 0 16 2q2 -2 14 -2h84q11 0 17 2q4 -2 10 -2q4 0 4 2l21 -2h4l18 2v-2l8 2h8q5 0 5 -2q4 0 4 2l16 -2 l23 2v-2l8 2q4 0 4 -2q9 3 45 6v-4q11 6 39 8l4 -8v-6l-16 -17l-23 5q-97 -5 -100 -5q-6 0 -21 5l-78 -9q-4 0 -4 4q-28 -4 -33 -4t-165 4l-9 5q-10 -5 -16 -5q-2 0 -2 5l-8 -5q-18 -1 -42 -2t-36.5 -1.5t-18.5 -0.5l-4 -8v-57q0 -4 -4 -4l4 -8l-2 -12l-1.5 -9t-0.5 -4l4 -8 q-3 -37 -8 -37l4 -8v-17l-4 -24q0 -4 4 -4l-4 -21v-8q0 -4 4 -16q0 -5 -4 -5q4 -54 4 -61v-82q0 -6 4 -14q0 -4 -4 -4l4 -23v-112q0 -9 4 -17q0 -6 -4 -6q4 -54 4 -59v-90q0 -5 -4 -5q6 -16 13 -16l-4 -20q3 -9 8 -9h8l18 4v-4l9 4h16q4 0 4 -4q4 0 4 4q78 -4 86 -4h96 q5 0 17 -4q8 4 10 4v-4q4 0 4 4l21 -4h75q10 0 64 4q8 -4 16 -4l6 4q25 -9 25 -16v-8l-4 -8q-71 6 -76 8q-8 -4 -10 -4v4l-8 -4q-148 8 -275 8l-14 4q-12 -4 -16 -4v4l-9 -4q-4 0 -4 4l-8 -4q-1 0 -4 0.5t-8.5 1.5t-11.5 2l-17 -4q-20 4 -27 4q0 -4 -4 -4l4 -8q0 -5 -4 -17 l4 -12h-4l4 -8v-35q0 -6 1 -15.5t2 -23.5t2 -24h-5l5 -9q8 -109 8 -174q0 -69 -13 -123l5 -8q0 -1 -1 -2.5t-2 -4.5t-2 -5q13 -60 13 -74v-8h84l18 4v-4q4 0 4 4l21 -4h76q4 0 4 -4l8 4h35q4 0 4 -4q4 0 4 4q216 -16 250 -16h4q4 0 4 -5q4 0 4 5l18 -5h64q8 0 8 -8 q-18 -24 -29 -24q-16 13 -59 16l-6 -4h-8q-4 0 -4 4l-9 -4q-105 12 -165 12h-13q-4 0 -4 4q-2 -1 -5 -2l-4.5 -1.5t-2.5 -0.5q-47 0 -78 8q-28 -4 -37 -4q-17 0 -127 4q-13 -8 -24 -8v4l-9 -4h-4q-4 0 -4 4l-8 -4h-35l-10 8l2 29v17q0 53 -2 65q3 46 6 211l-4 8q4 12 4 19v4 q0 6 -4 14l4 12q0 1 -0.5 5l-1.5 12l-2 16q0 4 4 4q-6 64 -6 148q2 6 2 12q-14 0 -14 -4l-29 4q-254 -3 -289 -12q-4 -35 -102 -260q-102 -227 -123 -308q-19 -31 -29 -36h-4q-8 0 -8 8v4zM279 616q14 0 14 5l29 -5h16q8 0 18 5l21 -5q26 0 31 5q11 -1 27.5 -2t27.5 -2 t20 -1h105l8 -4l2 21v119q0 10 -2 16q2 6 2 12l-2 21h2q-3 16 -6 16l4 17q-8 188 -8 358v74q0 9 4 37l-4 8l4 12q0 4 -4 4l4 21v32h-12q-13 -13 -97 -229q-61 -131 -174 -457l-30 -69v-9z" />
<glyph unicode="&#xe7;" horiz-adv-x="1095" d="M0 616q4 28 4 35v74q0 90 53 297q58 146 138 217q52 61 129 96q124 53 227 56v-5l8 5q131 0 248 -91q0 -1 24 -22v-6q0 -8 -8 -8h-8q-51 53 -104 73.5t-156 32.5q-144 -9 -256 -74q-82 -50 -121 -102q-73 -94 -117 -246q-32 -120 -32 -221q0 -2 -4 -2l4 -8l-4 -131 q0 -163 182 -381q205 -172 303 -189q4 0 16 -4q4 0 4 4l21 -4h8q212 0 389 201q-4 0 -4 4l8 4h4q13 -3 13 -22q-182 -209 -389 -209h-2l-46 -92q2 0 41 -15q72 -28 72 -125q0 -124 -151 -159q-5 0 -43 10l-17 12v31q17 -12 49 -23q4 0 4 6q69 0 119 84h-4l4 25v29 q0 79 -90 100l-10 -2v2q-1 0 -5.5 4t-6.5 6l43 86q3 14 10 21h-4q-131 0 -344 192q-157 170 -187 316q0 23 -8 47h4l-4 6v39q0 22 -4 26z" />
<glyph unicode="&#xe8;" horiz-adv-x="956" d="M0 700l4 25v102q0 23 8 47q-4 12 -4 13l4 8q0 2 -4 2l4 21v16q10 87 13 246h4l-4 8v67q0 11 4 31l-9 64q1 2 2 5t2 4.5t1 2.5l-13 18q17 17 51 17q9 0 283 4l8 4l8 -4q21 9 60 12l8 -4q8 4 16 4h5q4 0 4 -4l8 4h6q4 0 4 -4q19 5 102 16l25 -4q3 0 11.5 0.5t25 1.5t31.5 2 v-4q13 6 61 9q33 0 33 -21q-10 -13 -55 -16l-21 4q-1 0 -3.5 -0.5l-7.5 -1.5t-11 -2q-9 0 -17 4q-36 -4 -43 -4h-51q-4 0 -16 -4q-5 0 -5 4l-233 -25v4l-6 -4h-51q-13 0 -13 4l-24 -4q-60 0 -99 -2q-16 2 -55 2v-2q4 -12 4 -16h-4q0 -4 4 -4l-4 -39v-72q0 -4 4 -16 q0 -5 -4 -5q0 -8 4 -8l-26 -489q4 -12 4 -17q64 9 121 9v-4l8 4l8 -4l8 4q4 0 4 -4l27 4h80q18 -3 18 -9l8 5q114 4 123 4l17 -4q8 4 12 4v-4q0 6 121 12l16 -4q21 8 60 8q8 -13 8 -25q0 -9 -92 -12v4q-5 0 -5 -4q-96 -2 -217 -2h-73q-9 0 -17 -4l-51 6q-24 -3 -137 -6v4 l-8 -4q-4 0 -4 4l-39 -8q8 -13 8 -21q0 -17 -4 -37l6 -112q0 -15 -2 -33q2 -41 2 -106q0 -39 -6 -39l4 -9v-4q0 -57 6 -100q-1 -6 -2 -11.5t-1.5 -8t-0.5 -3.5q12 -108 12 -122h-4l8 -31q110 -4 119 -4q5 0 119 4l18 -4q12 4 17 4v-4l8 4l39 -4l8 4q4 0 4 -4q41 2 123 14v-4 q0 9 240 12v-22l-91 -13q-2 1 -5 2t-4.5 2t-2.5 1l-8 -5l-23 5q-1 0 -4 -1t-8.5 -2t-11.5 -2l-8 5q-10 -5 -17 -5q-4 0 -4 5q-17 -10 -69 -13q-5 0 -5 4q-3 0 -94 -16v4q-4 0 -4 -4q-62 4 -67 4h-187l-22 -4q-90 9 -90 29q-9 58 -9 98v35q0 4 -4 16l4 8q-4 12 -4 13l4 8 q-9 9 -12 69l4 25v68q0 6 -4 14q3 43 8 43l-4 8v21q0 4 4 4q-8 19 -8 84q0 15 4 35q-4 28 -4 38v66q0 10 -4 18zM172 1737q8 14 18 14q162 -126 207 -166l74 -59v-4q-3 -15 -10 -15h-8q-87 65 -170 142q-53 27 -111 88z" />
<glyph unicode="&#xe9;" horiz-adv-x="948" d="M0 700l4 25v102q0 23 8 47q-4 12 -4 13l4 8q0 2 -4 2l4 21v16q10 87 13 246h4l-4 8v67q0 11 4 31l-9 64q1 2 2 5t2 4.5t1 2.5l-13 18q17 17 51 17q9 0 283 4l8 4l8 -4q21 9 60 12l8 -4q8 4 16 4h5q4 0 4 -4l8 4h6q4 0 4 -4q19 5 102 16l25 -4q3 0 11.5 0.5t25 1.5t31.5 2 v-4q13 6 61 9q33 0 33 -21q-10 -13 -55 -16l-21 4q-1 0 -3.5 -0.5l-7.5 -1.5t-11 -2q-9 0 -17 4q-36 -4 -43 -4h-51q-4 0 -16 -4q-5 0 -5 4l-233 -25v4l-6 -4h-51q-13 0 -13 4l-24 -4q-60 0 -99 -2q-16 2 -55 2v-2q4 -12 4 -16h-4q0 -4 4 -4l-4 -39v-72q0 -4 4 -16 q0 -5 -4 -5q0 -8 4 -8l-26 -489q4 -12 4 -17q64 9 121 9v-4l8 4l8 -4l8 4q4 0 4 -4l27 4h80q18 -3 18 -9l8 5q114 4 123 4l17 -4q8 4 12 4v-4q0 6 121 12l16 -4q21 8 60 8q8 -13 8 -25q0 -9 -92 -12v4q-5 0 -5 -4q-96 -2 -217 -2h-73q-9 0 -17 -4l-51 6q-24 -3 -137 -6v4 l-8 -4q-4 0 -4 4l-39 -8q8 -13 8 -21q0 -17 -4 -37l6 -112q0 -15 -2 -33q2 -41 2 -106q0 -39 -6 -39l4 -9v-4q0 -57 6 -100q-1 -6 -2 -11.5t-1.5 -8t-0.5 -3.5q12 -108 12 -122h-4l8 -31q110 -4 119 -4q5 0 119 4l18 -4q12 4 17 4v-4l8 4l39 -4l8 4q4 0 4 -4q41 2 123 14v-4 q0 9 240 12v-22l-91 -13q-2 1 -5 2t-4.5 2t-2.5 1l-8 -5l-23 5q-1 0 -4 -1t-8.5 -2t-11.5 -2l-8 5q-10 -5 -17 -5q-4 0 -4 5q-17 -10 -69 -13q-5 0 -5 4q-3 0 -94 -16v4q-4 0 -4 -4q-62 4 -67 4h-187l-22 -4q-90 9 -90 29q-9 58 -9 98v35q0 4 -4 16l4 8q-4 12 -4 13l4 8 q-9 9 -12 69l4 25v68q0 6 -4 14q3 43 8 43l-4 8v21q0 4 4 4q-8 19 -8 84q0 15 4 35q-4 28 -4 38v66q0 10 -4 18zM383 1522v4l74 59q45 40 207 166q10 0 18 -14q-58 -61 -111 -88q-100 -90 -170 -142h-8q-7 0 -10 15z" />
<glyph unicode="&#xea;" horiz-adv-x="929" d="M0 700l4 25v102q0 23 8 47q-4 12 -4 13l4 8q0 2 -4 2l4 21v16q10 87 13 246h4l-4 8v67q0 11 4 31l-9 64q1 2 2 5t2 4.5t1 2.5l-13 18q17 17 51 17q9 0 283 4l8 4l8 -4q21 9 60 12l8 -4q8 4 16 4h5q4 0 4 -4l8 4h6q4 0 4 -4q19 5 102 16l25 -4q3 0 11.5 0.5t25 1.5t31.5 2 v-4q13 6 61 9q33 0 33 -21q-10 -13 -55 -16l-21 4q-1 0 -3.5 -0.5l-7.5 -1.5t-11 -2q-9 0 -17 4q-36 -4 -43 -4h-51q-4 0 -16 -4q-5 0 -5 4l-233 -25v4l-6 -4h-51q-13 0 -13 4l-24 -4q-60 0 -99 -2q-16 2 -55 2v-2q4 -12 4 -16h-4q0 -4 4 -4l-4 -39v-72q0 -4 4 -16 q0 -5 -4 -5q0 -8 4 -8l-26 -489q4 -12 4 -17q64 9 121 9v-4l8 4l8 -4l8 4q4 0 4 -4l27 4h80q18 -3 18 -9l8 5q114 4 123 4l17 -4q8 4 12 4v-4q0 6 121 12l16 -4q21 8 60 8q8 -13 8 -25q0 -9 -92 -12v4q-5 0 -5 -4q-96 -2 -217 -2h-73q-9 0 -17 -4l-51 6q-24 -3 -137 -6v4 l-8 -4q-4 0 -4 4l-39 -8q8 -13 8 -21q0 -17 -4 -37l6 -112q0 -15 -2 -33q2 -41 2 -106q0 -39 -6 -39l4 -9v-4q0 -57 6 -100q-1 -6 -2 -11.5t-1.5 -8t-0.5 -3.5q12 -108 12 -122h-4l8 -31q110 -4 119 -4q5 0 119 4l18 -4q12 4 17 4v-4l8 4l39 -4l8 4q4 0 4 -4q41 2 123 14v-4 q0 9 240 12v-22l-91 -13q-2 1 -5 2t-4.5 2t-2.5 1l-8 -5l-23 5q-1 0 -4 -1t-8.5 -2t-11.5 -2l-8 5q-10 -5 -17 -5q-4 0 -4 5q-17 -10 -69 -13q-5 0 -5 4q-3 0 -94 -16v4q-4 0 -4 -4q-62 4 -67 4h-187l-22 -4q-90 9 -90 29q-9 58 -9 98v35q0 4 -4 16l4 8q-4 12 -4 13l4 8 q-9 9 -12 69l4 25v68q0 6 -4 14q3 43 8 43l-4 8v21q0 4 4 4q-8 19 -8 84q0 15 4 35q-4 28 -4 38v66q0 10 -4 18zM193 1442q21 74 122 284q14 28 33 43h4q70 -69 107 -143q68 -100 110 -139v-6l-6 -2h-10q-71 65 -141 190q-38 47 -60 66q-28 -55 -69 -144q-41 -80 -60 -147 l-8 -2h-22z" />
<glyph unicode="&#xeb;" horiz-adv-x="954" d="M0 700l4 25v102q0 23 8 47q-4 12 -4 13l4 8q0 2 -4 2l4 21v16q10 87 13 246h4l-4 8v67q0 11 4 31l-9 64q1 2 2 5t2 4.5t1 2.5l-13 18q17 17 51 17q9 0 283 4l8 4l8 -4q21 9 60 12l8 -4q8 4 16 4h5q4 0 4 -4l8 4h6q4 0 4 -4q19 5 102 16l25 -4q3 0 11.5 0.5t25 1.5t31.5 2 v-4q13 6 61 9q33 0 33 -21q-10 -13 -55 -16l-21 4q-1 0 -3.5 -0.5l-7.5 -1.5t-11 -2q-9 0 -17 4q-36 -4 -43 -4h-51q-4 0 -16 -4q-5 0 -5 4l-233 -25v4l-6 -4h-51q-13 0 -13 4l-24 -4q-60 0 -99 -2q-16 2 -55 2v-2q4 -12 4 -16h-4q0 -4 4 -4l-4 -39v-72q0 -4 4 -16 q0 -5 -4 -5q0 -8 4 -8l-26 -489q4 -12 4 -17q64 9 121 9v-4l8 4l8 -4l8 4q4 0 4 -4l27 4h80q18 -3 18 -9l8 5q114 4 123 4l17 -4q8 4 12 4v-4q0 6 121 12l16 -4q21 8 60 8q8 -13 8 -25q0 -9 -92 -12v4q-5 0 -5 -4q-96 -2 -217 -2h-73q-9 0 -17 -4l-51 6q-24 -3 -137 -6v4 l-8 -4q-4 0 -4 4l-39 -8q8 -13 8 -21q0 -17 -4 -37l6 -112q0 -15 -2 -33q2 -41 2 -106q0 -39 -6 -39l4 -9v-4q0 -57 6 -100q-1 -6 -2 -11.5t-1.5 -8t-0.5 -3.5q12 -108 12 -122h-4l8 -31q110 -4 119 -4q5 0 119 4l18 -4q12 4 17 4v-4l8 4l39 -4l8 4q4 0 4 -4q41 2 123 14v-4 q0 9 240 12v-22l-91 -13q-2 1 -5 2t-4.5 2t-2.5 1l-8 -5l-23 5q-1 0 -4 -1t-8.5 -2t-11.5 -2l-8 5q-10 -5 -17 -5q-4 0 -4 5q-17 -10 -69 -13q-5 0 -5 4q-3 0 -94 -16v4q-4 0 -4 -4q-62 4 -67 4h-187l-22 -4q-90 9 -90 29q-9 58 -9 98v35q0 4 -4 16l4 8q-4 12 -4 13l4 8 q-9 9 -12 69l4 25v68q0 6 -4 14q3 43 8 43l-4 8v21q0 4 4 4q-8 19 -8 84q0 15 4 35q-4 28 -4 38v66q0 10 -4 18zM188 1577q0 23 39 49h37q39 -20 39 -57v-6q0 -44 -39 -58q-76 21 -76 72zM489 1577q0 22 37 49h39q37 -21 37 -57v-6q0 -43 -37 -58q-76 21 -76 72z" />
<glyph unicode="&#xec;" horiz-adv-x="294" d="M-129 1737q8 14 20 14q162 -126 207 -166l74 -59v-4q-6 -15 -10 -15h-8q-87 65 -170 142q-57 29 -113 88zM100 12q0 33 9 189h4l-4 8q3 100 8 100l-4 21v137q0 4 4 16q-4 8 -4 17v12q0 2 4 2l-4 8v41q0 4 4 4q0 4 -4 4l4 21v4q12 180 14 297h4q0 4 -4 4l4 12q4 144 4 176 v9q0 8 -4 16q0 4 4 4l-4 21v100q0 4 4 4l-4 8q0 81 -8 185q8 0 16 4l13 -17v-22q0 -17 -4 -37q4 -28 4 -41v-33l4 -18h-4l4 -8v-5q0 -4 -4 -4q0 -4 4 -4l-4 -24l8 -181h-4l4 -8v-12q0 -4 -4 -4q0 -4 4 -4q-9 -44 -12 -209l-5 -8q0 -4 5 -4q-17 -247 -17 -363v-139 q0 -70 -8 -70l4 -8v-55q0 -82 -6 -82q0 -4 2 -4l-2 -39v-25q0 -8 -8 -8h-8q-9 0 -9 12z" />
<glyph unicode="&#xed;" horiz-adv-x="229" d="M0 12q0 50 8 189h4l-4 8q3 100 8 100l-4 21v137q0 4 4 16q-4 8 -4 17v12q0 2 4 2l-4 8v41q0 4 4 4q0 4 -4 4l4 21v4q14 167 17 297h4q0 4 -4 4l4 12q4 144 4 176v9q0 8 -4 16q0 4 4 4l-4 21v100q0 4 4 4l-4 8q0 81 -8 185q6 0 14 4l12 -17v-22q0 -17 -4 -37q4 -28 4 -41 v-33l4 -18h-4l4 -8v-5q0 -4 -4 -4q0 -4 4 -4l-4 -24l8 -181h-4l4 -8v-12q0 -4 -4 -4q0 -4 4 -4q-9 -44 -12 -209l-4 -8q0 -4 4 -4q-14 -203 -14 -363v-139q0 -70 -8 -70l4 -8v-55q0 -82 -8 -82q0 -4 4 -4l-4 -39v-25q0 -8 -9 -8h-8q-8 0 -8 12zM29 1522v4l73 59 q34 29 207 166q13 0 21 -14q-56 -59 -113 -88q-83 -77 -170 -142h-6q-6 0 -12 15z" />
<glyph unicode="&#xee;" horiz-adv-x="290" d="M-84 1442q19 69 123 284q14 28 33 43h4q67 -67 106 -143q63 -92 113 -139v-6l-8 -2h-11q-71 65 -141 190q-40 50 -59 66q-37 -72 -70 -144q-39 -76 -59 -147l-8 -2h-23zM57 12q0 33 9 189h4l-4 8q3 100 8 100l-4 21v137q0 4 4 16q-4 8 -4 17v12q0 2 4 2l-4 8v41q0 4 4 4 q0 4 -4 4l4 21v4q13 152 16 297h4q0 4 -4 4l4 12q4 144 4 176v9q0 8 -4 16q0 4 4 4l-4 21v100q0 4 4 4l-4 8q0 81 -8 185q4 0 16 4l13 -17v-22q0 -17 -4 -37q4 -28 4 -41v-33l4 -18h-4l4 -8v-5q0 -4 -4 -4q0 -4 4 -4l-4 -24l8 -181h-4l4 -8v-12q0 -4 -4 -4q0 -4 4 -4 q-9 -44 -12 -209l-5 -8q0 -4 5 -4q-17 -247 -17 -363v-139q0 -70 -8 -70l4 -8v-55q0 -82 -8 -82q0 -4 4 -4l-4 -39v-25q0 -8 -8 -8h-8q-9 0 -9 12z" />
<glyph unicode="&#xef;" horiz-adv-x="296" d="M-100 1577q0 22 37 49h38q37 -21 37 -57v-6q0 -43 -37 -58q-75 21 -75 72zM43 12q0 33 6 189h4l-4 8q3 100 8 100l-4 21v137q0 4 4 16q-4 8 -4 17v12q0 2 4 2l-4 8v41q0 4 4 4q0 4 -4 4l4 21v4q14 167 17 297h4q0 4 -4 4l4 12q6 108 6 176v9q0 10 -6 16q0 4 6 4l-6 21 v100q0 4 6 4l-6 8q0 81 -8 185q8 0 16 4l12 -17v-22q0 -17 -4 -37q4 -28 4 -41v-33l4 -18h-4l4 -8v-5q0 -4 -4 -4q0 -4 4 -4l-4 -24l8 -181h-4l4 -8v-12q0 -4 -4 -4q0 -4 4 -4q-9 -44 -12 -209l-4 -8q0 -4 4 -4q-16 -232 -16 -363v-139q0 -70 -8 -70l4 -8v-55q0 -82 -8 -82 q0 -4 4 -4l-4 -39v-25q0 -8 -9 -8h-8q-6 0 -6 12zM150 1577q0 23 36 49h39q37 -21 37 -57v-6q0 -43 -37 -58q-75 21 -75 72z" />
<glyph unicode="&#xf0;" horiz-adv-x="1024" d="M-184 680v4q0 9 37 18q54 -4 69 -4h78v15q23 292 23 377h4l-4 8q0 4 4 4l-4 8v20q0 3 -5 33q0 4 5 4q-9 43 -9 82h4l-4 8q0 3 4 3l-4 8v96l-4 18l17 11q4 0 15 0.5t31 1.5t38 2q347 -46 444 -125l96 -82q0 -4 68 -78q0 -12 41 -86q0 -1 5 -14.5t12 -34t11 -35.5h-4 q37 -107 37 -303l4 -8q-9 -127 -49 -281q-11 0 -41 -86q-86 -138 -221 -203q-142 -65 -276 -65l-21 4l-53 -8v4l-8 -4h-4q-55 0 -82 -12q-3 0 -11 4q-32 -4 -41 -4h-8q-7 0 -10 16l10 16v54q0 4 4 4l-4 6q0 4 4 4l-4 6v137q0 31 -6 101h2l-2 8v51q0 21 2 35l-2 6q0 4 2 4 l-2 27v20q0 15 2 19l-6 53q4 62 4 88l-4 22q4 8 4 11v6h-90q-16 0 -70 -4q-28 3 -28 10zM27 356q4 -8 4 -10q0 -36 6 -70q0 -4 -4 -4q6 -72 8 -77l-4 -23v-45q0 -8 4 -16l-4 -25v-74l-4 -6h4l18 4v-4q12 5 133 14h5q4 0 4 -4l8 4h24q1 0 41 5l9 -5q20 7 83 17v-4 q238 68 322 198q91 155 100 252q6 22 15 109v37q0 10 -2 12q2 6 2 12q-3 69 -6 72q4 4 4 14q0 44 -13 70l4 6q-32 197 -121.5 316t-254.5 182q-232 55 -334 55v2q-38 -10 -41 -10v-33l4 -18h-4l4 -9v-40q0 -31 2 -56h-2q8 -34 10 -69q-4 -36 -4 -60q0 -6 4 -26 q-9 -170 -24 -281l4 -6v-35q0 -2 -4 -2l4 -8v-19q0 -2 -2 -4q2 -1 5 -1.5t4.5 -1t2.5 -1.5l2 8l35 -4l33 4l22 -4q8 4 10 4q4 0 4 -4l21 4q4 0 12 -4q4 0 4 4l21 -4q8 0 12 4l25 -4q6 0 14 4l6 -4q5 0 17 4q40 -4 51 -4h18v-6l-14 -18l-35 4q-5 0 -25 -4l-94 6q-4 -2 -10 -2 v2l-6 -2q-21 0 -31 2q-90 -3 -96 -6h-8l2 -8v-74q0 -13 -4 -13l4 -18v-197q0 -4 -4 -4z" />
<glyph unicode="&#xf1;" horiz-adv-x="952" d="M0 84l4 6q0 4 -4 4l4 21q8 164 8 231h4q0 4 -4 4q3 39 8 39q0 4 -4 4q2 63 11 185l-2 8l2 8l-2 18h2l-2 9v43l-5 20h5l-5 8v8q0 6 1 14.5t2 21t2 20.5q0 4 -5 4l5 18v94q0 5 2 5q0 4 -2 4l2 18q0 65 8 166l-4 8q3 39 8 39l-4 8q12 170 12 264v5l-4 26q19 22 33 25 q9 0 51 -51q24 -9 233 -230q260 -309 304 -368q53 -56 69 -56v25l-4 26h4l-4 9v8q0 77 -10 145q0 2 4 2q-2 83 -21 178q0 5 5 5q-9 52 -9 149v4q0 6 -4 14q4 12 4 17l-4 12q4 8 4 17l-4 18h4l-4 8v17q0 4 4 4q-6 17 -8 47l8 4h13q8 -3 8 -8q-4 0 -4 -4l8 -5q-4 -28 -4 -30 l4 -29q0 -4 -4 -4l4 -39v-80l31 -446q0 -23 12 -137v-89q0 -24 2 -34q-2 -14 -2 -39v-56l14 -260h-4l4 -8v-65l4 -21h-4q3 -25 13 -35v-12q0 -4 -5 -4l5 -8q0 -2 -5 -2l5 -9l-5 -20h-16q-8 0 -14 80h4l-4 6v123q0 58 -17 235v25q0 40 4 86q-4 36 -4 82v47q-96 84 -159 176 q-64 74 -240 291q-177 180 -266 256q0 -2 -4 -2l4 -21v-4q0 -20 -4 -28q4 -28 4 -31q-19 -210 -21 -385h-4q0 -4 4 -4l-4 -12q-1 -43 -2 -83.5t-1.5 -60.5t-0.5 -24q0 -12 0.5 -33t1.5 -59.5t2 -69.5q-20 -296 -20 -445l-4 -12q0 -4 4 -4q0 -1 -0.5 -2t-1.5 -3.5t-2 -4.5 q4 -58 4 -76v-35q0 -8 -6 -8h-9q-13 0 -16 84zM127 1546v25q0 69 82 139q18 11 47 16q60 0 164 -137q46 -43 92 -43h18q35 0 76 53q19 46 19 111l10 6h2q3 0 10 -10v-2q0 -62 -35 -137q-59 -47 -92 -47q-93 0 -172 116q-52 64 -94 64q-59 0 -109 -115v-49l5 -23l-11 -8 q-12 0 -12 41z" />
<glyph unicode="&#xf2;" horiz-adv-x="1064" d="M0 608l4 15l-4 53q21 223 33 223q0 4 -2 4q2 14 2 31q-2 4 -2 10q5 0 32 133q37 109 78 166q85 104 156 137q91 31 131 31l8 -4q1 0 13 4l18 -4q2 0 2 4q167 0 279 -127q89 -111 141 -280q14 -60 14 -101v-18q0 -508 -219 -799q-116 -96 -199 -96h-67q-89 9 -180 63 q-87 55 -164 166q-53 178 -74 389zM23 578l40 -244q21 -119 80 -166q59 -74 119 -105q92 -51 182 -51q299 0 404 533q24 152 33 274q0 4 -4 4l4 19v73q-6 100 -88 271q-71 99 -123 143q-81 49 -148 55q-4 0 -4 -4l-55 9q-161 0 -252 -101q-88 -76 -137 -262 q-26 -101 -51 -362q4 -54 4 -64q-1 -5 -2 -10.5t-1.5 -8t-0.5 -3.5zM172 1737q8 14 18 14q162 -126 207 -166l74 -59v-4q-3 -15 -10 -15h-8q-87 65 -170 142q-53 27 -111 88z" />
<glyph unicode="&#xf3;" horiz-adv-x="1056" d="M0 608l4 15l-4 53q21 223 33 223q0 4 -2 4q2 14 2 31q-2 4 -2 10q5 0 32 133q37 109 78 166q85 104 156 137q91 31 131 31l8 -4q1 0 13 4l18 -4q2 0 2 4q167 0 279 -127q89 -111 141 -280q14 -60 14 -101v-18q0 -508 -219 -799q-116 -96 -199 -96h-67q-89 9 -180 63 q-87 55 -164 166q-53 178 -74 389zM23 578l40 -244q21 -119 80 -166q59 -74 119 -105q92 -51 182 -51q299 0 404 533q24 152 33 274q0 4 -4 4l4 19v73q-6 100 -88 271q-71 99 -123 143q-81 49 -148 55q-4 0 -4 -4l-55 9q-161 0 -252 -101q-88 -76 -137 -262 q-26 -101 -51 -362q4 -54 4 -64q-1 -5 -2 -10.5t-1.5 -8t-0.5 -3.5zM446 1522v4l74 59q34 29 207 166q13 0 21 -14q-58 -61 -111 -88q-100 -90 -170 -142h-8q-7 0 -13 15z" />
<glyph unicode="&#xf4;" horiz-adv-x="1067" d="M0 608l4 15l-4 53q21 223 33 223q0 4 -2 4q2 14 2 31q-2 4 -2 10q5 0 32 133q37 109 78 166q85 104 156 137q91 31 131 31l8 -4q1 0 13 4l18 -4q2 0 2 4q167 0 279 -127q89 -111 141 -280q14 -60 14 -101v-18q0 -508 -219 -799q-116 -96 -199 -96h-67q-89 9 -180 63 q-87 55 -164 166q-53 178 -74 389zM23 578l40 -244q21 -119 80 -166q59 -74 119 -105q92 -51 182 -51q299 0 404 533q24 152 33 274q0 4 -4 4l4 19v73q-6 100 -88 271q-71 99 -123 143q-81 49 -148 55q-4 0 -4 -4l-55 9q-161 0 -252 -101q-88 -76 -137 -262 q-26 -101 -51 -362q4 -54 4 -64q-1 -5 -2 -10.5t-1.5 -8t-0.5 -3.5zM272 1442q15 64 121 284q14 28 33 43h4q67 -67 109 -143q68 -100 110 -139v-6l-8 -2h-10q-73 67 -142 190q-36 49 -59 66q-37 -72 -70 -144q-39 -76 -59 -147l-6 -2h-23z" />
<glyph unicode="&#xf5;" horiz-adv-x="1067" d="M0 608l4 15l-4 53q21 223 33 223q0 4 -2 4q2 14 2 31q-2 4 -2 10q5 0 32 133q37 109 78 166q85 104 156 137q91 31 131 31l8 -4q1 0 13 4l18 -4q2 0 2 4q167 0 279 -127q89 -111 141 -280q14 -60 14 -101v-18q0 -508 -219 -799q-116 -96 -199 -96h-67q-89 9 -180 63 q-87 55 -164 166q-53 178 -74 389zM23 578l40 -244q21 -119 80 -166q59 -74 119 -105q92 -51 182 -51q299 0 404 533q24 152 33 274q0 4 -4 4l4 19v73q-6 100 -88 271q-71 99 -123 143q-81 49 -148 55q-4 0 -4 -4l-55 9q-161 0 -252 -101q-88 -76 -137 -262 q-26 -101 -51 -362q4 -54 4 -64q-1 -5 -2 -10.5t-1.5 -8t-0.5 -3.5zM207 1546v25q0 69 82 139q18 11 49 16q58 0 162 -137q46 -43 92 -43h18q35 0 76 53q19 46 19 111l10 6h2q7 0 10 -10v-2q0 -62 -35 -137q-56 -47 -92 -47q-90 0 -172 116q-52 64 -94 64q-59 0 -109 -115 v-49l4 -23l-10 -8q-12 0 -12 41z" />
<glyph unicode="&#xf6;" horiz-adv-x="1075" d="M0 608l4 15l-4 53q21 223 33 223q0 4 -2 4q2 14 2 31q-2 4 -2 10q5 0 32 133q37 109 78 166q85 104 156 137q91 31 131 31l8 -4q1 0 13 4l18 -4q2 0 2 4q167 0 279 -127q89 -111 141 -280q14 -60 14 -101v-18q0 -508 -219 -799q-116 -96 -199 -96h-67q-89 9 -180 63 q-87 55 -164 166q-53 178 -74 389zM23 578l40 -244q21 -119 80 -166q59 -74 119 -105q92 -51 182 -51q299 0 404 533q24 152 33 274q0 4 -4 4l4 19v73q-6 100 -88 271q-71 99 -123 143q-81 49 -148 55q-4 0 -4 -4l-55 9q-161 0 -252 -101q-88 -76 -137 -262 q-26 -101 -51 -362q4 -54 4 -64q-1 -5 -2 -10.5t-1.5 -8t-0.5 -3.5zM250 1577q0 22 37 49h39q36 -20 36 -57v-6q0 -44 -36 -58q-76 21 -76 72zM549 1577q0 23 39 49h37q39 -20 39 -57v-6q0 -44 -39 -58q-76 21 -76 72z" />
<glyph unicode="&#xf7;" horiz-adv-x="813" d="M0 698v9l10 10l60 -6q2 1 5 2l4.5 1.5t2.5 0.5v-4l6 4l18 -4q5 0 5 4q54 -7 57 -8q13 8 65 8h41l19 2v-2q4 0 4 2q6 0 6 -2q33 2 74 2h37l26 4v-4l9 4q136 4 169 4q0 -12 -16 -31l-16 4h-74q-12 0 -20 4l-19 -4q-45 -1 -87 -2l-63 -1.5t-26 -0.5q-1 0 -4 -0.5t-8.5 -1.5 t-10.5 -2l-8 4q-50 -4 -59 -4h-23q-10 0 -14 -2q-2 0 -2 2q-30 -6 -45 -6v4q-4 0 -4 -4q-58 4 -64 4h-32q-20 0 -23 10zM248 858q0 20 12.5 28t38.5 13h4q6 0 19 -22v-19q-9 -18 -29 -18q-45 3 -45 18zM270 537q0 26 45 41q22 0 25 -31v-10q-12 -27 -37 -27q-33 11 -33 27z " />
<glyph unicode="&#xf8;" horiz-adv-x="1081" d="M0 608l4 15l-4 53q21 223 33 223q0 4 -2 4q2 14 2 31q-2 4 -2 10q5 0 32 133q37 109 78 166q85 104 156 137q91 31 131 31l8 -4q1 0 13 4l18 -4q2 0 2 4q71 0 127 -20l27 86l10 4h8q8 0 8 -13q0 -10 -24 -90q68 -30 123 -94q89 -111 141 -280q14 -60 14 -101v-18 q0 -508 -219 -799q-116 -96 -199 -96h-67q-85 10 -164 53l-18 -57v-17h-7l-8 4q0 -14 -8 -14h-4q-8 0 -8 10q0 15 24 92q-78 53 -151 158q-53 178 -74 389zM23 578l40 -244q21 -119 80 -166q51 -61 88 -84l13 33q88 316 137 479q113 346 113 391q61 213 61 248q4 22 35 133 q-31 12 -68 16q-4 0 -4 -4l-55 9q-161 0 -252 -101q-88 -76 -137 -262q-26 -101 -51 -362q4 -54 4 -64q-1 -5 -2 -10.5t-1.5 -8t-0.5 -3.5zM260 66q2 0 2 -3q92 -51 182 -51q299 0 404 533q24 152 33 274q0 4 -4 4l4 19v73q-6 100 -88 271q-71 99 -123 143q-42 23 -52 27 q-17 -57 -20 -70q-136 -574 -238 -856q-48 -199 -100 -364z" />
<glyph unicode="&#xf9;" horiz-adv-x="1099" d="M0 918v24q0 148 12 148l-4 8q0 4 4 4l-4 8q18 107 23 264q12 64 24 64h4l13 -11q-15 -55 -29 -196q0 -4 4 -4l-22 -197q2 -14 2 -49q0 -4 -2 -4l2 -8v-15q0 -4 -2 -4q0 -4 2 -4q0 -8 -2 -8q15 -277 43 -393q29 -218 126.5 -350t272.5 -187q145 0 252 119q67 99 133 317 q3 33 8 33l-4 8q15 26 39 211v121q0 10 4 60q0 4 -3 35.5t-11 109.5t-15 156v53l-2 31h2q-22 132 -22 141l12 8h4q19 0 31 -145l-4 -9l4 -10l-4 -8q29 -284 29 -362v-80q0 -37 2 -60q-6 -74 -19 -129q0 -4 4 -4q-11 -72 -47 -215h-4l4 -6q-36 -108 -115 -264 q-81 -90 -124 -96q-25 -25 -95 -43q-4 0 -4 4l-20 -4h-31q-93 12 -219 106q-145 151 -172 274q-41 145 -68 361q-4 0 -4 53v64q-8 63 -8 80zM172 1737q8 14 18 14q162 -126 207 -166l74 -59v-4q-3 -15 -10 -15h-8q-87 65 -170 142q-53 27 -111 88z" />
<glyph unicode="&#xfa;" horiz-adv-x="1120" d="M0 918v24q0 148 12 148l-4 8q0 4 4 4l-4 8q18 107 23 264q12 64 24 64h4l13 -11q-15 -55 -29 -196q0 -4 4 -4l-22 -197q2 -14 2 -49q0 -4 -2 -4l2 -8v-15q0 -4 -2 -4q0 -4 2 -4q0 -8 -2 -8q15 -277 43 -393q29 -218 126.5 -350t272.5 -187q145 0 252 119q67 99 133 317 q3 33 8 33l-4 8q15 26 39 211v121q0 10 4 60q0 4 -3 35.5t-11 109.5t-15 156v53l-2 31h2q-22 132 -22 141l12 8h4q19 0 31 -145l-4 -9l4 -10l-4 -8q29 -284 29 -362v-80q0 -37 2 -60q-6 -74 -19 -129q0 -4 4 -4q-11 -72 -47 -215h-4l4 -6q-36 -108 -115 -264 q-81 -90 -124 -96q-25 -25 -95 -43q-4 0 -4 4l-20 -4h-31q-93 12 -219 106q-145 151 -172 274q-41 145 -68 361q-4 0 -4 53v64q-8 63 -8 80zM438 1522v4l74 59q50 43 209 166q10 0 18 -14q-59 -62 -110 -88q-100 -90 -170 -142h-8q-7 0 -13 15z" />
<glyph unicode="&#xfb;" horiz-adv-x="1110" d="M0 918v24q0 148 12 148l-4 8q0 4 4 4l-4 8q18 107 23 264q12 64 24 64h4l13 -11q-15 -55 -29 -196q0 -4 4 -4l-22 -197q2 -14 2 -49q0 -4 -2 -4l2 -8v-15q0 -4 -2 -4q0 -4 2 -4q0 -8 -2 -8q15 -277 43 -393q29 -218 126.5 -350t272.5 -187q145 0 252 119q67 99 133 317 q3 33 8 33l-4 8q15 26 39 211v121q0 10 4 60q0 4 -3 35.5t-11 109.5t-15 156v53l-2 31h2q-22 132 -22 141l12 8h4q19 0 31 -145l-4 -9l4 -10l-4 -8q29 -284 29 -362v-80q0 -37 2 -60q-6 -74 -19 -129q0 -4 4 -4q-11 -72 -47 -215h-4l4 -6q-36 -108 -115 -264 q-81 -90 -124 -96q-25 -25 -95 -43q-4 0 -4 4l-20 -4h-31q-93 12 -219 106q-145 151 -172 274q-41 145 -68 361q-4 0 -4 53v64q-8 63 -8 80zM258 1442q16 68 123 284q16 32 33 43h4q64 -67 106 -143q66 -97 111 -139v-6l-6 -2h-13q-68 65 -141 190q-35 47 -57 66 q-31 -54 -72 -144q-34 -67 -57 -147l-8 -2h-23z" />
<glyph unicode="&#xfc;" horiz-adv-x="1116" d="M0 918v24q0 148 12 148l-4 8q0 4 4 4l-4 8q18 107 23 264q12 64 24 64h4l13 -11q-15 -55 -29 -196q0 -4 4 -4l-22 -197q2 -14 2 -49q0 -4 -2 -4l2 -8v-15q0 -4 -2 -4q0 -4 2 -4q0 -8 -2 -8q15 -277 43 -393q29 -218 126.5 -350t272.5 -187q145 0 252 119q67 99 133 317 q3 33 8 33l-4 8q15 26 39 211v121q0 10 4 60q0 4 -3 35.5t-11 109.5t-15 156v53l-2 31h2q-22 132 -22 141l12 8h4q19 0 31 -145l-4 -9l4 -10l-4 -8q29 -284 29 -362v-80q0 -37 2 -60q-6 -74 -19 -129q0 -4 4 -4q-11 -72 -47 -215h-4l4 -6q-36 -108 -115 -264 q-81 -90 -124 -96q-25 -25 -95 -43q-4 0 -4 4l-20 -4h-31q-93 12 -219 106q-145 151 -172 274q-41 145 -68 361q-4 0 -4 53v64q-8 63 -8 80zM266 1577q0 23 39 49h37q39 -20 39 -57v-6q0 -44 -39 -58q-76 21 -76 72zM567 1577q0 22 37 49h39q39 -20 39 -57v-6q0 -44 -39 -58 q-76 21 -76 72z" />
<glyph unicode="&#xfd;" horiz-adv-x="1099" d="M-31 1372q7 17 13 17q28 -3 110 -150q147 -211 244 -381q127 -157 127 -170h4q104 129 158 221q12 9 30 49q95 142 203 359q13 13 55 92h13q0 -14 2 -18q-50 -84 -180 -332q-36 -54 -111 -174q-6 -2 -45 -72q-65 -98 -111 -151q9 -45 11 -76h-5l5 -8v-13l12 -92h-4l4 -6 q0 -4 -4 -4q2 -2 8 -51l-4 -9q9 -131 16 -174l-6 -14q6 -3 6 -8v-19q0 -42 17 -178q-13 0 -13 -10h-4q-12 18 -20 18v9h10v4q0 2 -2 2q0 4 2 4q-8 114 -23 248h5q-7 22 -9 37h4l-4 8v41q0 61 -16 202q0 5 2 5l-6 45h4q-8 37 -90 143q-44 44 -88 127q-104 162 -219 332 q-36 65 -68 106q-33 26 -33 41zM383 1522v4l74 59q45 40 207 166q10 0 18 -14q-58 -61 -111 -88q-100 -90 -170 -142h-8q-7 0 -10 15z" />
<glyph unicode="&#xff;" horiz-adv-x="1099" d="M-31 1372q7 17 13 17q28 -3 110 -150q147 -211 244 -381q127 -157 127 -170h4q104 129 158 221q12 9 30 49q95 142 203 359q13 13 55 92h13q0 -14 2 -18q-50 -84 -180 -332q-36 -54 -111 -174q-6 -2 -45 -72q-65 -98 -111 -151q9 -45 11 -76h-5l5 -8v-13l12 -92h-4l4 -6 q0 -4 -4 -4q2 -2 8 -51l-4 -9q9 -131 16 -174l-6 -14q6 -3 6 -8v-19q0 -42 17 -178q-13 0 -13 -10h-4q-12 18 -20 18v9h10v4q0 2 -2 2q0 4 2 4q-8 114 -23 248h5q-7 22 -9 37h4l-4 8v41q0 61 -16 202q0 5 2 5l-6 45h4q-8 37 -90 143q-44 44 -88 127q-104 162 -219 332 q-36 65 -68 106q-33 26 -33 41zM266 1577q0 23 39 49h37q39 -20 39 -57v-6q0 -44 -39 -58q-76 21 -76 72zM567 1577q0 22 37 49h39q39 -20 39 -57v-6q0 -44 -39 -58q-76 21 -76 72z" />
<glyph unicode="&#x152;" horiz-adv-x="1640" d="M0 655l4 17l-4 53q9 121 25 121q0 4 -5 4q1 6 2 12.5t2 11t1 7.5l-5 12q8 0 35 141q38 111 82 174q92 111 166 146q95 30 143 30l9 -4l18 4v-4q15 9 29 9v-5q21 9 30 9q16 -4 17 -4l8 4l23 -4h4q8 0 20 4l21 -4q36 4 43 4v-4l8 4h26q5 0 5 -4l8 4h4q4 0 4 -4q4 0 4 4 q1 0 6.5 -0.5t18 -1.5t26.5 -2q70 1 133.5 2t94 1.5t36.5 0.5l9 4l8 -4q21 9 57 12l8 -4q16 4 17 4h4q4 0 4 -4l8 4h8q4 0 4 -4l103 14l22 -4h9q5 0 59 4v-4q7 5 63 8q31 0 31 -18q-11 -14 -55 -17l-19 5q-1 0 -4 -1t-8.5 -2t-11.5 -2q-1 0 -3.5 1t-6.5 2t-7 2q-6 -1 -13 -2 t-11.5 -1.5t-10 -1t-8.5 -0.5h-51l-16 -4q-4 0 -4 4l-232 -22v4l-8 -4h-51q-12 0 -12 4l-25 -4q-20 0 -98 -4q-32 4 -56 4v-4l2 -6t1.5 -5t1 -3.5t0.5 -2.5h-5q0 -4 5 -4l-5 -39v-69q0 -1 1 -3.5t2 -6.5t2 -7q0 -4 -5 -4q0 -6 5 -6l-27 -485q4 -12 4 -15q65 9 121 9v-4l8 4 l8 -4l8 4q5 0 5 -4l26 4h80q21 -3 21 -9l6 5q114 4 123 4l16 -4l12 4v-4q3 7 121 10l16 -2q24 6 60 6q8 -13 8 -23q0 -9 -90 -12v4q-4 0 -4 -4q-192 -4 -217 -4h-76l-16 -4l-52 8q-6 -1 -24 -1.5t-49 -2t-64 -4.5v4l-8 -4q-4 0 -4 4l-39 -8q8 -8 8 -19q0 -14 -4 -34l6 -113 q-2 -18 -2 -33q2 -39 2 -104q0 -39 -6 -39l4 -8v-5q0 -55 6 -96q-1 -6 -2 -11.5t-1.5 -8.5t-0.5 -4q9 -65 12 -129h-4l9 -31q114 -4 118 -4q5 0 119 4l19 -4l16 4v-4l8 4l39 -4l8 4q4 0 4 -4q55 3 123 16v-4q0 9 240 12v-24l-90 -12l-13 4l-8 -4l-22 4q-1 0 -3 -0.5t-5 -1 t-7.5 -1t-9.5 -1.5l-8 4q-12 -4 -14 -4q-4 0 -4 4q-18 -8 -72 -11q-4 0 -4 4q-3 0 -94 -16v4q-5 0 -5 -4q-62 4 -67 4h-184l-25 -4q-12 4 -21 4h-10q-34 0 -55 -8v4q-4 0 -4 -4q-62 4 -68 4h-186l-23 -4q-89 19 -151 50t-104.5 70t-96.5 109q-12 0 -39 117q-27 116 -51 309z M25 625q30 -194 47 -275q15 -101 94 -174q127 -145 315 -145q30 0 140 4l18 -4l16 4v-4l9 4l38 -4l13 4q0 -4 4 -4v4q-8 41 -8 94v43q0 2 -4 14l4 9l-4 12l4 8q-7 11 -13 70l4 22v68q0 2 -4 14q3 43 9 43l-5 8v21q0 4 5 4q-9 18 -9 82q0 15 4 35q-4 28 -4 39v61q0 8 -4 20 l4 23v102q0 23 9 47q-1 3 -2 5t-2 3.5t-1 2.5l5 8q0 4 -5 4l5 21v14q9 77 12 242h4l-4 8v65q0 5 4 33l-8 61q4 12 4 17q-13 8 -25 8h-4q-2 0 -14 -4q-4 0 -4 4q-81 -6 -170 -8q-1 0 -4 0.5l-9 1.5l-12 2q-166 0 -272 -115q-76 -73 -123 -209q-28 -88 -57 -313q2 -39 2 -78 q-2 -14 -2 -22z" />
<glyph unicode="&#x153;" horiz-adv-x="1640" d="M0 655l4 17l-4 53q9 121 25 121q0 4 -5 4q1 6 2 12.5t2 11t1 7.5l-5 12q8 0 35 141q38 111 82 174q92 111 166 146q95 30 143 30l9 -4l18 4v-4q15 9 29 9v-5q21 9 30 9q16 -4 17 -4l8 4l23 -4h4q8 0 20 4l21 -4q36 4 43 4v-4l8 4h26q5 0 5 -4l8 4h4q4 0 4 -4q4 0 4 4 q1 0 6.5 -0.5t18 -1.5t26.5 -2q70 1 133.5 2t94 1.5t36.5 0.5l9 4l8 -4q21 9 57 12l8 -4q16 4 17 4h4q4 0 4 -4l8 4h8q4 0 4 -4l103 14l22 -4h9q5 0 59 4v-4q7 5 63 8q31 0 31 -18q-11 -14 -55 -17l-19 5q-1 0 -4 -1t-8.5 -2t-11.5 -2q-1 0 -3.5 1t-6.5 2t-7 2q-6 -1 -13 -2 t-11.5 -1.5t-10 -1t-8.5 -0.5h-51l-16 -4q-4 0 -4 4l-232 -22v4l-8 -4h-51q-12 0 -12 4l-25 -4q-20 0 -98 -4q-32 4 -56 4v-4l2 -6t1.5 -5t1 -3.5t0.5 -2.5h-5q0 -4 5 -4l-5 -39v-69q0 -1 1 -3.5t2 -6.5t2 -7q0 -4 -5 -4q0 -6 5 -6l-27 -485q4 -12 4 -15q65 9 121 9v-4l8 4 l8 -4l8 4q5 0 5 -4l26 4h80q21 -3 21 -9l6 5q114 4 123 4l16 -4l12 4v-4q3 7 121 10l16 -2q24 6 60 6q8 -13 8 -23q0 -9 -90 -12v4q-4 0 -4 -4q-192 -4 -217 -4h-76l-16 -4l-52 8q-6 -1 -24 -1.5t-49 -2t-64 -4.5v4l-8 -4q-4 0 -4 4l-39 -8q8 -8 8 -19q0 -14 -4 -34l6 -113 q-2 -18 -2 -33q2 -39 2 -104q0 -39 -6 -39l4 -8v-5q0 -55 6 -96q-1 -6 -2 -11.5t-1.5 -8.5t-0.5 -4q9 -65 12 -129h-4l9 -31q114 -4 118 -4q5 0 119 4l19 -4l16 4v-4l8 4l39 -4l8 4q4 0 4 -4q55 3 123 16v-4q0 9 240 12v-24l-90 -12l-13 4l-8 -4l-22 4q-1 0 -3 -0.5t-5 -1 t-7.5 -1t-9.5 -1.5l-8 4q-12 -4 -14 -4q-4 0 -4 4q-18 -8 -72 -11q-4 0 -4 4q-3 0 -94 -16v4q-5 0 -5 -4q-62 4 -67 4h-184l-25 -4q-12 4 -21 4h-10q-34 0 -55 -8v4q-4 0 -4 -4q-62 4 -68 4h-186l-23 -4q-89 19 -151 50t-104.5 70t-96.5 109q-12 0 -39 117q-27 116 -51 309z M25 625q30 -194 47 -275q15 -101 94 -174q127 -145 315 -145q30 0 140 4l18 -4l16 4v-4l9 4l38 -4l13 4q0 -4 4 -4v4q-8 41 -8 94v43q0 2 -4 14l4 9l-4 12l4 8q-7 11 -13 70l4 22v68q0 2 -4 14q3 43 9 43l-5 8v21q0 4 5 4q-9 18 -9 82q0 15 4 35q-4 28 -4 39v61q0 8 -4 20 l4 23v102q0 23 9 47q-1 3 -2 5t-2 3.5t-1 2.5l5 8q0 4 -5 4l5 21v14q9 77 12 242h4l-4 8v65q0 5 4 33l-8 61q4 12 4 17q-13 8 -25 8h-4q-2 0 -14 -4q-4 0 -4 4q-81 -6 -170 -8q-1 0 -4 0.5l-9 1.5l-12 2q-166 0 -272 -115q-76 -73 -123 -209q-28 -88 -57 -313q2 -39 2 -78 q-2 -14 -2 -22z" />
<glyph unicode="&#x178;" horiz-adv-x="1099" d="M-31 1372q7 17 13 17q28 -3 110 -150q147 -211 244 -381q127 -157 127 -170h4q104 129 158 221q12 9 30 49q95 142 203 359q13 13 55 92h13q0 -14 2 -18q-50 -84 -180 -332q-36 -54 -111 -174q-6 -2 -45 -72q-65 -98 -111 -151q9 -45 11 -76h-5l5 -8v-13l12 -92h-4l4 -6 q0 -4 -4 -4q2 -2 8 -51l-4 -9q9 -131 16 -174l-6 -14q6 -3 6 -8v-19q0 -42 17 -178q-13 0 -13 -10h-4q-12 18 -20 18v9h10v4q0 2 -2 2q0 4 2 4q-8 114 -23 248h5q-7 22 -9 37h4l-4 8v41q0 61 -16 202q0 5 2 5l-6 45h4q-8 37 -90 143q-44 44 -88 127q-104 162 -219 332 q-36 65 -68 106q-33 26 -33 41zM266 1577q0 23 39 49h37q39 -20 39 -57v-6q0 -44 -39 -58q-76 21 -76 72zM567 1577q0 22 37 49h39q39 -20 39 -57v-6q0 -44 -39 -58q-76 21 -76 72z" />
<glyph unicode="&#x2c6;" horiz-adv-x="522" d="M-10 1171q15 66 121 285q15 29 32 43h4q66 -66 109 -141q62 -95 111 -141v-7l-9 -2h-10q-70 64 -141 191q-35 44 -60 65q-41 -79 -69 -141q-42 -85 -60 -149l-8 -3h-20z" />
<glyph unicode="&#x2dc;" horiz-adv-x="706" d="M2 1214v23q0 69 84 141q21 12 47 17q57 0 162 -138q46 -43 92 -43h19q33 0 75 54q21 44 21 110l8 6h2q7 0 10 -10v-2q0 -62 -35 -137q-56 -47 -92 -47q-91 0 -170 117q-51 63 -96 63q-59 0 -106 -115v-49l2 -22l-9 -8q-14 0 -14 40z" />
<glyph unicode="&#x2000;" horiz-adv-x="884" />
<glyph unicode="&#x2001;" horiz-adv-x="1769" />
<glyph unicode="&#x2002;" horiz-adv-x="884" />
<glyph unicode="&#x2003;" horiz-adv-x="1769" />
<glyph unicode="&#x2004;" horiz-adv-x="589" />
<glyph unicode="&#x2005;" horiz-adv-x="442" />
<glyph unicode="&#x2006;" horiz-adv-x="294" />
<glyph unicode="&#x2007;" horiz-adv-x="294" />
<glyph unicode="&#x2008;" horiz-adv-x="221" />
<glyph unicode="&#x2009;" horiz-adv-x="353" />
<glyph unicode="&#x200a;" horiz-adv-x="98" />
<glyph unicode="&#x2010;" horiz-adv-x="669" d="M14 680v4q0 9 37 18q54 -4 72 -4h59q47 0 60 -8l2 8l35 -4l32 4l23 -4q8 4 10 4q4 0 4 -4l19 4q6 0 14 -4q4 0 4 4l18 -4q7 0 15 4l22 -4q7 0 15 4l8 -4q6 0 14 4q46 -4 51 -4h21v-6l-17 -18l-32 4q-7 0 -27 -4l-92 6q-4 -2 -10 -2v2l-9 -2q-18 0 -28 2q-90 -3 -96 -6 q-32 4 -41 4h-82q-16 0 -70 -4q-31 3 -31 10z" />
<glyph unicode="&#x2011;" horiz-adv-x="669" d="M14 680v4q0 9 37 18q54 -4 72 -4h59q47 0 60 -8l2 8l35 -4l32 4l23 -4q8 4 10 4q4 0 4 -4l19 4q6 0 14 -4q4 0 4 4l18 -4q7 0 15 4l22 -4q7 0 15 4l8 -4q6 0 14 4q46 -4 51 -4h21v-6l-17 -18l-32 4q-7 0 -27 -4l-92 6q-4 -2 -10 -2v2l-9 -2q-18 0 -28 2q-90 -3 -96 -6 q-32 4 -41 4h-82q-16 0 -70 -4q-31 3 -31 10z" />
<glyph unicode="&#x2012;" horiz-adv-x="669" d="M14 680v4q0 9 37 18q54 -4 72 -4h59q47 0 60 -8l2 8l35 -4l32 4l23 -4q8 4 10 4q4 0 4 -4l19 4q6 0 14 -4q4 0 4 4l18 -4q7 0 15 4l22 -4q7 0 15 4l8 -4q6 0 14 4q46 -4 51 -4h21v-6l-17 -18l-32 4q-7 0 -27 -4l-92 6q-4 -2 -10 -2v2l-9 -2q-18 0 -28 2q-90 -3 -96 -6 q-32 4 -41 4h-82q-16 0 -70 -4q-31 3 -31 10z" />
<glyph unicode="&#x2013;" horiz-adv-x="763" d="M14 680v4q0 9 37 18q54 -4 72 -4h59q47 0 60 -8l2 8l35 -4l32 4l23 -4q8 4 10 4q4 0 4 -4l19 4q6 0 14 -4q4 0 4 4l18 -4q7 0 15 4l22 -4q7 0 15 4l8 -4q6 0 14 4q46 -4 51 -4h21v-6l-17 -18l-32 4q-7 0 -27 -4l-92 6q-4 -2 -10 -2v2l-9 -2q-18 0 -28 2q-90 -3 -96 -6 q-32 4 -41 4h-82q-16 0 -70 -4q-31 3 -31 10z" />
<glyph unicode="&#x2014;" horiz-adv-x="1110" d="M0 469v4q0 13 86 10h33q6 0 14 4q4 0 4 -4l15 4q47 -2 163 9v-2q2 0 4 2l150 6v-4q13 4 98 10v-2l6 2h31q2 0 2 -4l8 4h4q5 0 5 -4l6 4l8 -4q4 0 4 4l18 -4h19q33 0 61 -4l135 6v-4q15 6 48 6q8 0 8 -6v-8q-8 -13 -15.5 -14t-19.5 5l-528 -8v4q-58 -13 -340 -22h-4 q-20 0 -23 10z" />
<glyph unicode="&#x2018;" horiz-adv-x="290" d="M8 1546q16 6 25 0q52 -164 73 -254l29 -90l-2 -4q-3 -2 -5.5 -3t-4 -1.5t-4 -0.5t-3 0.5t-3.5 1.5t-4 1q-30 86 -60 213q-25 48 -41 137z" />
<glyph unicode="&#x2019;" horiz-adv-x="290" d="M8 1202l27 90q28 104 76 254q9 6 24 0q-16 -89 -41 -137q-32 -136 -59 -213q-15 -5 -25 2z" />
<glyph unicode="&#x201a;" horiz-adv-x="303" d="M8 -106l27 90q27 99 76 256q10 7 24 -2q-16 -90 -41 -138q-31 -130 -59 -211q-5 -5 -10.5 -5t-14.5 7z" />
<glyph unicode="&#x201c;" horiz-adv-x="516" d="M8 1546q16 6 25 0q52 -164 73 -254l29 -90l-2 -4q-3 -2 -5.5 -3t-4 -1.5t-4 -0.5t-3 0.5t-3.5 1.5t-4 1q-30 86 -60 213q-25 48 -41 137zM193 1546q14 6 22 0q55 -166 76 -254l28 -90l-2 -4q-14 -8 -18 -4l-6 2q-38 110 -60 213q-23 45 -40 137z" />
<glyph unicode="&#x201d;" horiz-adv-x="501" d="M8 1202l27 90q28 104 76 254q9 6 24 0q-16 -89 -41 -137q-32 -136 -59 -213q-15 -5 -25 2zM193 1202l26 90q28 104 76 254q9 6 24 0q-17 -92 -40 -137q-26 -110 -62 -213q-12 -6 -22 2z" />
<glyph unicode="&#x201e;" horiz-adv-x="512" d="M8 -102l27 90q28 104 76 254q9 6 24 0q-16 -90 -41 -138q-32 -136 -59 -213q-6 -5 -11 -4.5t-14 7.5zM193 -102l26 90q28 104 76 254q9 6 24 0q-17 -93 -40 -138q-26 -110 -62 -213l-4 -4q-5 -3 -18 7z" />
<glyph unicode="&#x2022;" horiz-adv-x="438" d="M-6 803q0 99 69 125q46 18 68 18q111 0 148 -112l4 -31q0 -91 -95 -150q-42 -10 -43 -10q-151 35 -151 160z" />
<glyph unicode="&#x2026;" horiz-adv-x="1208" d="M14 82q0 45 37 57q33 11 37 11q33 0 55 -17.5t27 -50.5q0 -44 -51 -70q-5 -1 -10.5 -2t-8.5 -1.5t-4 -0.5q-82 15 -82 74zM389 82q0 45 37 57q33 11 37 11q33 0 55 -17.5t27 -50.5q0 -44 -51 -70q-5 -1 -10.5 -2t-8.5 -1.5t-4 -0.5q-82 15 -82 74zM778 82q0 45 37 57 q33 11 37 11q33 0 55 -17.5t27 -50.5q0 -44 -51 -70q-5 -1 -10.5 -2t-8.5 -1.5t-4 -0.5q-82 15 -82 74z" />
<glyph unicode="&#x202f;" horiz-adv-x="353" />
<glyph unicode="&#x2039;" horiz-adv-x="630" d="M-35 666v4q80 61 185 106q119 61 182 111h8l2 -6v-13q-80 -66 -248 -141q-53 -31 -86 -57q79 -34 187 -72q92 -35 192 -57l4 -9v-22q-89 15 -371 123q-40 15 -55 33z" />
<glyph unicode="&#x203a;" horiz-adv-x="630" d="M-35 510v22l4 9q103 23 193 57q90 32 184 72q-28 24 -86 57q-161 72 -248 141v13l4 6h9q63 -50 182 -111q103 -44 184 -106v-4q-15 -18 -55 -33q-285 -108 -371 -123z" />
<glyph unicode="&#x205f;" horiz-adv-x="442" />
<glyph unicode="&#x20ac;" horiz-adv-x="1067" d="M-70 811v8q0 5 23 15q10 -3 10 -9l8 4l6 -4l9 4l8 -4q12 9 41 9h69l43 -5q0 61 68 244q61 112 178 250q104 84 189 84q14 -3 14 -6q4 0 4 2q156 -21 156 -43q37 0 96 -86q0 -10 33 -43l-4 -8q4 0 4 -4l-8 -5h-3q-23 0 -71 91q-67 48 -164 69q-2 0 -2 -4q-27 8 -64 8 q-155 0 -325 -305q-36 -63 -78 -244l8 5h64q20 0 24 4q28 -4 33 -4h109q2 0 18 -19q0 -3 -10 -10h-37q-4 0 -4 4l-8 -4q-54 4 -70 4v2l-8 -2h-19q-10 0 -14 2q-4 -2 -14 -2l-9 2q-4 -2 -14 -2h-4q-4 0 -4 2q-4 -2 -10 -2q-13 0 -31 2l-6 -43q0 -4 4 -4l-4 -19q0 -8 4 -16 q-3 -14 -8 -14q5 -5 8 -51h-4l4 -9v-4q0 -2 -4 -2l4 -8q0 -2 -4 -2q3 -3 6 -49q14 1 25.5 2t17 1.5t6.5 0.5l119 -4q8 4 10 4v-4l8 4h37q5 0 33 4q29 -3 29 -12v-4q0 -16 -99 -19v4q-4 0 -4 -4q-28 4 -30 4q-3 0 -3 -4l-20 4h-61l-27 -4v4l-6 -4h-12l-19 4q0 -12 -4 -12 l35 -143h-4q34 -137 143 -258q128 -131 238 -131q0 -4 41 -7q89 0 165 43q107 85 107 119q15 41 18 41h9q8 -3 8 -6q0 -50 -45 -104q-119 -119 -238 -119q-135 0 -221 59q-80 39 -193 201q-51 105 -77 235q4 8 4 17q-13 37 -13 61q-6 0 -14 -4q-8 4 -10 4l-8 -4q-4 0 -4 4 q-31 -8 -74 -8q-6 0 -14 4l-70 -6q-19 3 -19 6l11 27l37 -4h28l27 4v-4l8 4h55l19 4v-4q8 4 22 4v28q0 9 -4 21l4 20v29l-4 21h4l-4 6v26q0 49 8 68l-59 2l-27 -2l-8 2q-4 -2 -14 -2q-6 0 -10 2q-25 -7 -90 -10z" />
<glyph unicode="&#x2122;" horiz-adv-x="882" d="M0 1415q3 15 16 15q1 0 58 -5q1 0 5.5 1t14 2t19.5 2q11 -1 27 -2t28 -2t22 -1l13 5v-5l8 5h14q6 0 51 -5q24 9 56 9h14q7 0 16 -15q-16 -22 -16 -24l-8 4q-94 -4 -121 -4h-22v-4q0 -4 4 -58h-4l4 -8v-35l4 -16q-4 -12 -4 -14q0 -5 4 -17q-4 -28 -4 -35v-26q0 -5 -4 -17 q6 -19 8 -35l-4 -8l8 -53l-21 -12h-4q-14 6 -14 26v13q0 4 4 4l-4 8v4q0 14 4 14l-4 27v43q0 4 4 4l-4 8v21q0 2 4 2l-4 8v70q0 4 -4 16q4 12 4 16l-4 19h4q-4 7 -8 35h-8q-3 0 -15 -4q-16 5 -39 8l-12 -4v4l-8 -4h-39q-30 0 -39 20zM406 1372q3 66 18 66h4 q109 -133 109 -148h8q104 137 104 144l8 4q15 -3 25 -23v-47q0 -16 2 -20q0 -9 -2 -11q2 -59 2 -141v-100q0 -22 -18 -31q-7 0 -13 27l4 20v35q0 4 5 4l-5 6v21l-12 143q5 5 8 55h-4q-22 -22 -78 -102q-21 -27 -39 -27l-88 125h-4q0 -12 -4 -12l4 -27v-43l4 -16 q-1 -2 -2 -4.5t-1.5 -3.5t-0.5 -2q0 -9 4 -9q-6 -48 -8 -98q1 -2 2 -4.5t1.5 -3.5t0.5 -2q0 -4 -4 -4q8 -41 8 -74l-20 -16q-6 0 -12 22q0 4 4 4l-4 21v82q0 2 4 14l-4 16h4l-6 27q2 4 2 12l-2 19q0 8 2 12q-2 14 -2 35v20q0 13 2 15q-3 20 -6 20z" />
<glyph unicode="&#x25fc;" horiz-adv-x="1443" d="M0 0v1444h1444v-1444h-1444z" />
</font>
</defs>
</svg>
